<?xml version="1.0" encoding="UTF-8" standalone="no"?>
<!DOCTYPE svg PUBLIC "-//W3C//DTD SVG 1.1//EN"
 "http://www.w3.org/Graphics/SVG/1.1/DTD/svg11.dtd">
<!-- Generated by graphviz version 12.2.1 (20241206.2353)
 -->
<!-- Pages: 1 -->
<svg width="905pt" height="631pt"
 viewBox="0.00 0.00 904.98 631.00" xmlns="http://www.w3.org/2000/svg" xmlns:xlink="http://www.w3.org/1999/xlink">
<g id="graph0" class="graph" transform="scale(1 1) rotate(0) translate(4 627)">
<polygon fill="white" stroke="none" points="-4,4 -4,-627 900.98,-627 900.98,4 -4,4"/>
<g id="clust1" class="cluster">
<title>cluster~</title>
<path fill="none" stroke="lightgray" stroke-width="2.6" d="M30.98,-8C30.98,-8 876.98,-8 876.98,-8 882.98,-8 888.98,-14 888.98,-20 888.98,-20 888.98,-603 888.98,-603 888.98,-609 882.98,-615 876.98,-615 876.98,-615 30.98,-615 30.98,-615 24.98,-615 18.98,-609 18.98,-603 18.98,-603 18.98,-20 18.98,-20 18.98,-14 24.98,-8 30.98,-8"/>
<text text-anchor="middle" x="453.98" y="-598.65" font-family="Arial Black" font-size="13.00">FIDE</text>
</g>
<g id="clust2" class="cluster">
<title>cluster~/test</title>
<path fill="none" stroke="lightgray" stroke-width="2.6" d="M448.98,-509C448.98,-509 532.98,-509 532.98,-509 538.98,-509 544.98,-515 544.98,-521 544.98,-521 544.98,-572 544.98,-572 544.98,-578 538.98,-584 532.98,-584 532.98,-584 448.98,-584 448.98,-584 442.98,-584 436.98,-578 436.98,-572 436.98,-572 436.98,-521 436.98,-521 436.98,-515 442.98,-509 448.98,-509"/>
<text text-anchor="middle" x="490.98" y="-567.65" font-family="Arial Black" font-size="13.00">test</text>
</g>
<g id="clust3" class="cluster">
<title>cluster~/lib</title>
<path fill="none" stroke="lightgray" stroke-width="2.6" d="M38.98,-16C38.98,-16 868.98,-16 868.98,-16 874.98,-16 880.98,-22 880.98,-28 880.98,-28 880.98,-489 880.98,-489 880.98,-495 874.98,-501 868.98,-501 868.98,-501 38.98,-501 38.98,-501 32.98,-501 26.98,-495 26.98,-489 26.98,-489 26.98,-28 26.98,-28 26.98,-22 32.98,-16 38.98,-16"/>
<text text-anchor="middle" x="453.98" y="-484.65" font-family="Arial Black" font-size="13.00">lib</text>
</g>
<g id="clust4" class="cluster">
<title>cluster~/lib/models</title>
<path fill="none" stroke="lightgray" stroke-width="2.6" d="M46.98,-24C46.98,-24 286.98,-24 286.98,-24 292.98,-24 298.98,-30 298.98,-36 298.98,-36 298.98,-87 298.98,-87 298.98,-93 292.98,-99 286.98,-99 286.98,-99 46.98,-99 46.98,-99 40.98,-99 34.98,-93 34.98,-87 34.98,-87 34.98,-36 34.98,-36 34.98,-30 40.98,-24 46.98,-24"/>
<text text-anchor="middle" x="166.98" y="-82.65" font-family="Arial Black" font-size="13.00">models</text>
</g>
<g id="clust5" class="cluster">
<title>cluster~/lib/screens</title>
<path fill="none" stroke="lightgray" stroke-width="2.6" d="M76.98,-312C76.98,-312 712.98,-312 712.98,-312 718.98,-312 724.98,-318 724.98,-324 724.98,-324 724.98,-414 724.98,-414 724.98,-420 718.98,-426 712.98,-426 712.98,-426 76.98,-426 76.98,-426 70.98,-426 64.98,-420 64.98,-414 64.98,-414 64.98,-324 64.98,-324 64.98,-318 70.98,-312 76.98,-312"/>
<text text-anchor="middle" x="394.98" y="-409.65" font-family="Arial Black" font-size="13.00">screens</text>
</g>
<g id="clust6" class="cluster">
<title>cluster~/lib/screens/explorer</title>
<path fill="none" stroke="lightgray" stroke-width="2.6" d="M84.98,-320C84.98,-320 346.98,-320 346.98,-320 352.98,-320 358.98,-326 358.98,-332 358.98,-332 358.98,-383 358.98,-383 358.98,-389 352.98,-395 346.98,-395 346.98,-395 84.98,-395 84.98,-395 78.98,-395 72.98,-389 72.98,-383 72.98,-383 72.98,-332 72.98,-332 72.98,-326 78.98,-320 84.98,-320"/>
<text text-anchor="middle" x="215.98" y="-378.65" font-family="Arial Black" font-size="13.00">explorer</text>
</g>
<g id="clust7" class="cluster">
<title>cluster~/lib/screens/outline</title>
<path fill="none" stroke="lightgray" stroke-width="2.6" d="M378.98,-320C378.98,-320 474.98,-320 474.98,-320 480.98,-320 486.98,-326 486.98,-332 486.98,-332 486.98,-383 486.98,-383 486.98,-389 480.98,-395 474.98,-395 474.98,-395 378.98,-395 378.98,-395 372.98,-395 366.98,-389 366.98,-383 366.98,-383 366.98,-332 366.98,-332 366.98,-326 372.98,-320 378.98,-320"/>
<text text-anchor="middle" x="426.98" y="-378.65" font-family="Arial Black" font-size="13.00">outline</text>
</g>
<g id="clust8" class="cluster">
<title>cluster~/lib/screens/editor</title>
<path fill="none" stroke="lightgray" stroke-width="2.6" d="M506.98,-320C506.98,-320 604.98,-320 604.98,-320 610.98,-320 616.98,-326 616.98,-332 616.98,-332 616.98,-383 616.98,-383 616.98,-389 610.98,-395 604.98,-395 604.98,-395 506.98,-395 506.98,-395 500.98,-395 494.98,-389 494.98,-383 494.98,-383 494.98,-332 494.98,-332 494.98,-326 500.98,-320 506.98,-320"/>
<text text-anchor="middle" x="555.98" y="-378.65" font-family="Arial Black" font-size="13.00">editor</text>
</g>
<g id="clust9" class="cluster">
<title>cluster~/lib/screens/git</title>
<path fill="none" stroke="lightgray" stroke-width="2.6" d="M636.98,-320C636.98,-320 704.98,-320 704.98,-320 710.98,-320 716.98,-326 716.98,-332 716.98,-332 716.98,-383 716.98,-383 716.98,-389 710.98,-395 704.98,-395 704.98,-395 636.98,-395 636.98,-395 630.98,-395 624.98,-389 624.98,-383 624.98,-383 624.98,-332 624.98,-332 624.98,-326 630.98,-320 636.98,-320"/>
<text text-anchor="middle" x="670.98" y="-378.65" font-family="Arial Black" font-size="13.00">git</text>
</g>
<g id="clust10" class="cluster">
<title>cluster~/lib/theme</title>
<path fill="none" stroke="lightgray" stroke-width="2.6" d="M744.98,-320C744.98,-320 828.98,-320 828.98,-320 834.98,-320 840.98,-326 840.98,-332 840.98,-332 840.98,-383 840.98,-383 840.98,-389 834.98,-395 828.98,-395 828.98,-395 744.98,-395 744.98,-395 738.98,-395 732.98,-389 732.98,-383 732.98,-383 732.98,-332 732.98,-332 732.98,-326 738.98,-320 744.98,-320"/>
<text text-anchor="middle" x="786.98" y="-378.65" font-family="Arial Black" font-size="13.00">theme</text>
</g>
<g id="clust11" class="cluster">
<title>cluster~/lib/services</title>
<path fill="none" stroke="lightgray" stroke-width="2.6" d="M489.98,-107C489.98,-107 860.98,-107 860.98,-107 866.98,-107 872.98,-113 872.98,-119 872.98,-119 872.98,-170 872.98,-170 872.98,-176 866.98,-182 860.98,-182 860.98,-182 489.98,-182 489.98,-182 483.98,-182 477.98,-176 477.98,-170 477.98,-170 477.98,-119 477.98,-119 477.98,-113 483.98,-107 489.98,-107"/>
<text text-anchor="middle" x="675.48" y="-165.65" font-family="Arial Black" font-size="13.00">services</text>
</g>
<g id="clust12" class="cluster">
<title>cluster~/lib/widgets</title>
<path fill="none" stroke="lightgray" stroke-width="2.6" d="M240.98,-190C240.98,-190 623.98,-190 623.98,-190 629.98,-190 635.98,-196 635.98,-202 635.98,-202 635.98,-292 635.98,-292 635.98,-298 629.98,-304 623.98,-304 623.98,-304 240.98,-304 240.98,-304 234.98,-304 228.98,-298 228.98,-292 228.98,-292 228.98,-202 228.98,-202 228.98,-196 234.98,-190 240.98,-190"/>
<text text-anchor="middle" x="432.48" y="-287.65" font-family="Arial Black" font-size="13.00">widgets</text>
</g>
<g id="clust13" class="cluster">
<title>cluster~/lib/widgets/explorer</title>
<path fill="none" stroke="lightgray" stroke-width="2.6" d="M248.98,-198C248.98,-198 338.98,-198 338.98,-198 344.98,-198 350.98,-204 350.98,-210 350.98,-210 350.98,-261 350.98,-261 350.98,-267 344.98,-273 338.98,-273 338.98,-273 248.98,-273 248.98,-273 242.98,-273 236.98,-267 236.98,-261 236.98,-261 236.98,-210 236.98,-210 236.98,-204 242.98,-198 248.98,-198"/>
<text text-anchor="middle" x="293.98" y="-256.65" font-family="Arial Black" font-size="13.00">explorer</text>
</g>
<g id="clust14" class="cluster">
<title>cluster~/tool</title>
<path fill="none" stroke="lightgray" stroke-width="2.6" d="M705.98,-509C705.98,-509 791.98,-509 791.98,-509 797.98,-509 803.98,-515 803.98,-521 803.98,-521 803.98,-572 803.98,-572 803.98,-578 797.98,-584 791.98,-584 791.98,-584 705.98,-584 705.98,-584 699.98,-584 693.98,-578 693.98,-572 693.98,-572 693.98,-521 693.98,-521 693.98,-515 699.98,-509 705.98,-509"/>
<text text-anchor="middle" x="748.98" y="-567.65" font-family="Arial Black" font-size="13.00">tool</text>
</g>
<!-- /test/widget_test.dart -->
<g id="node1" class="node">
<title>/test/widget_test.dart</title>
<path fill="Lavender" stroke="black" stroke-width="1.3" d="M524.86,-553C524.86,-553 457.11,-553 457.11,-553 451.11,-553 445.11,-547 445.11,-541 445.11,-541 445.11,-529 445.11,-529 445.11,-523 451.11,-517 457.11,-517 457.11,-517 524.86,-517 524.86,-517 530.86,-517 536.86,-523 536.86,-529 536.86,-529 536.86,-541 536.86,-541 536.86,-547 530.86,-553 524.86,-553"/>
<text text-anchor="middle" x="490.98" y="-529.75" font-family="Arial" font-size="15.00">widget_test</text>
</g>
<!-- /lib/main.dart -->
<g id="node9" class="node">
<title>/lib/main.dart</title>
<path fill="Lavender" stroke="black" stroke-width="1.3" d="M505.98,-470C505.98,-470 475.98,-470 475.98,-470 469.98,-470 463.98,-464 463.98,-458 463.98,-458 463.98,-446 463.98,-446 463.98,-440 469.98,-434 475.98,-434 475.98,-434 505.98,-434 505.98,-434 511.98,-434 517.98,-440 517.98,-446 517.98,-446 517.98,-458 517.98,-458 517.98,-464 511.98,-470 505.98,-470"/>
<text text-anchor="middle" x="490.98" y="-446.75" font-family="Arial" font-size="15.00">main</text>
</g>
<!-- /test/widget_test.dart&#45;&gt;/lib/main.dart -->
<g id="edge1" class="edge">
<title>/test/widget_test.dart&#45;&gt;/lib/main.dart</title>
<path fill="none" stroke="#aabbaa" stroke-width="1.3" stroke-opacity="0.533333" d="M490.98,-516.82C490.98,-506.8 490.98,-493.88 490.98,-482.29"/>
<polygon fill="#aabbaa" fill-opacity="0.533333" stroke="#aabbaa" stroke-width="1.3" stroke-opacity="0.533333" points="494.48,-482.4 490.98,-472.4 487.48,-482.4 494.48,-482.4"/>
</g>
<!-- /lib/models/project_node.dart -->
<g id="node2" class="node">
<title>/lib/models/project_node.dart</title>
<path fill="Lavender" stroke="black" stroke-width="1.3" d="M133.11,-68C133.11,-68 54.86,-68 54.86,-68 48.86,-68 42.86,-62 42.86,-56 42.86,-56 42.86,-44 42.86,-44 42.86,-38 48.86,-32 54.86,-32 54.86,-32 133.11,-32 133.11,-32 139.11,-32 145.11,-38 145.11,-44 145.11,-44 145.11,-56 145.11,-56 145.11,-62 139.11,-68 133.11,-68"/>
<text text-anchor="middle" x="93.98" y="-44.75" font-family="Arial" font-size="15.00">project_node</text>
</g>
<!-- /lib/models/file_system_item.dart -->
<g id="node3" class="node">
<title>/lib/models/file_system_item.dart</title>
<path fill="Lavender" stroke="black" stroke-width="1.3" d="M278.86,-68C278.86,-68 175.11,-68 175.11,-68 169.11,-68 163.11,-62 163.11,-56 163.11,-56 163.11,-44 163.11,-44 163.11,-38 169.11,-32 175.11,-32 175.11,-32 278.86,-32 278.86,-32 284.86,-32 290.86,-38 290.86,-44 290.86,-44 290.86,-56 290.86,-56 290.86,-62 284.86,-68 278.86,-68"/>
<text text-anchor="middle" x="226.98" y="-44.75" font-family="Arial" font-size="15.00">file_system_item</text>
</g>
<!-- /lib/screens/explorer/explorer_screen.dart -->
<g id="node4" class="node">
<title>/lib/screens/explorer/explorer_screen.dart</title>
<path fill="Lavender" stroke="black" stroke-width="1.3" d="M192.61,-364C192.61,-364 93.36,-364 93.36,-364 87.36,-364 81.36,-358 81.36,-352 81.36,-352 81.36,-340 81.36,-340 81.36,-334 87.36,-328 93.36,-328 93.36,-328 192.61,-328 192.61,-328 198.61,-328 204.61,-334 204.61,-340 204.61,-340 204.61,-352 204.61,-352 204.61,-358 198.61,-364 192.61,-364"/>
<text text-anchor="middle" x="142.98" y="-340.75" font-family="Arial" font-size="15.00">explorer_screen</text>
</g>
<!-- /lib/screens/explorer/explorer_screen.dart&#45;&gt;/lib/models/project_node.dart -->
<g id="edge2" class="edge">
<title>/lib/screens/explorer/explorer_screen.dart&#45;&gt;/lib/models/project_node.dart</title>
<path fill="none" stroke="#aabbaa" stroke-width="1.3" stroke-opacity="0.533333" d="M140.14,-327.92C132.07,-279.53 108.99,-141.04 98.86,-80.23"/>
<polygon fill="#aabbaa" fill-opacity="0.533333" stroke="#aabbaa" stroke-width="1.3" stroke-opacity="0.533333" points="102.32,-79.72 97.22,-70.44 95.41,-80.87 102.32,-79.72"/>
</g>
<!-- /lib/screens/explorer/explorer_screen.dart&#45;&gt;/lib/models/file_system_item.dart -->
<g id="edge3" class="edge">
<title>/lib/screens/explorer/explorer_screen.dart&#45;&gt;/lib/models/file_system_item.dart</title>
<path fill="none" stroke="#aabbaa" stroke-width="1.3" stroke-opacity="0.533333" d="M147.86,-327.92C161.72,-279.42 201.42,-140.46 218.74,-79.85"/>
<polygon fill="#aabbaa" fill-opacity="0.533333" stroke="#aabbaa" stroke-width="1.3" stroke-opacity="0.533333" points="222.06,-80.96 221.44,-70.39 215.33,-79.04 222.06,-80.96"/>
</g>
<!-- /lib/widgets/message_widget.dart -->
<g id="node16" class="node">
<title>/lib/widgets/message_widget.dart</title>
<path fill="Lavender" stroke="black" stroke-width="1.3" d="M615.86,-242C615.86,-242 512.11,-242 512.11,-242 506.11,-242 500.11,-236 500.11,-230 500.11,-230 500.11,-218 500.11,-218 500.11,-212 506.11,-206 512.11,-206 512.11,-206 615.86,-206 615.86,-206 621.86,-206 627.86,-212 627.86,-218 627.86,-218 627.86,-230 627.86,-230 627.86,-236 621.86,-242 615.86,-242"/>
<text text-anchor="middle" x="563.98" y="-218.75" font-family="Arial" font-size="15.00">message_widget</text>
</g>
<!-- /lib/screens/explorer/explorer_screen.dart&#45;&gt;/lib/widgets/message_widget.dart -->
<g id="edge4" class="edge">
<title>/lib/screens/explorer/explorer_screen.dart&#45;&gt;/lib/widgets/message_widget.dart</title>
<path fill="none" stroke="#aabbaa" stroke-width="1.3" stroke-opacity="0.533333" d="M173.45,-327.53C185.65,-321.42 200.09,-315.28 213.98,-312 243.95,-304.92 462.96,-316.75 490.98,-304 514.82,-293.16 534.45,-270.48 547.33,-252.19"/>
<polygon fill="#aabbaa" fill-opacity="0.533333" stroke="#aabbaa" stroke-width="1.3" stroke-opacity="0.533333" points="550.19,-254.22 552.85,-243.96 544.37,-250.32 550.19,-254.22"/>
</g>
<!-- /lib/screens/explorer/welcome_screen.dart -->
<g id="node5" class="node">
<title>/lib/screens/explorer/welcome_screen.dart</title>
<path fill="Lavender" stroke="black" stroke-width="1.3" d="M338.86,-364C338.86,-364 235.11,-364 235.11,-364 229.11,-364 223.11,-358 223.11,-352 223.11,-352 223.11,-340 223.11,-340 223.11,-334 229.11,-328 235.11,-328 235.11,-328 338.86,-328 338.86,-328 344.86,-328 350.86,-334 350.86,-340 350.86,-340 350.86,-352 350.86,-352 350.86,-358 344.86,-364 338.86,-364"/>
<text text-anchor="middle" x="286.98" y="-340.75" font-family="Arial" font-size="15.00">welcome_screen</text>
</g>
<!-- /lib/screens/outline/outline_panel.dart -->
<g id="node6" class="node">
<title>/lib/screens/outline/outline_panel.dart</title>
<path fill="Lavender" stroke="black" stroke-width="1.3" d="M466.86,-364C466.86,-364 387.11,-364 387.11,-364 381.11,-364 375.11,-358 375.11,-352 375.11,-352 375.11,-340 375.11,-340 375.11,-334 381.11,-328 387.11,-328 387.11,-328 466.86,-328 466.86,-328 472.86,-328 478.86,-334 478.86,-340 478.86,-340 478.86,-352 478.86,-352 478.86,-358 472.86,-364 466.86,-364"/>
<text text-anchor="middle" x="426.98" y="-340.75" font-family="Arial" font-size="15.00">outline_panel</text>
</g>
<!-- /lib/screens/outline/outline_panel.dart&#45;&gt;/lib/models/file_system_item.dart -->
<g id="edge5" class="edge">
<title>/lib/screens/outline/outline_panel.dart&#45;&gt;/lib/models/file_system_item.dart</title>
<path fill="none" stroke="#aabbaa" stroke-width="1.3" stroke-opacity="0.533333" d="M399.35,-327.57C388.43,-321.55 375.52,-315.45 362.98,-312 349.03,-308.16 243.02,-314.42 232.98,-304 202.9,-272.75 215.65,-139.19 223.06,-79.74"/>
<polygon fill="#aabbaa" fill-opacity="0.533333" stroke="#aabbaa" stroke-width="1.3" stroke-opacity="0.533333" points="226.48,-80.56 224.29,-70.19 219.54,-79.66 226.48,-80.56"/>
</g>
<!-- /lib/screens/editor/editor_screen.dart -->
<g id="node7" class="node">
<title>/lib/screens/editor/editor_screen.dart</title>
<path fill="Lavender" stroke="black" stroke-width="1.3" d="M597.36,-364C597.36,-364 514.61,-364 514.61,-364 508.61,-364 502.61,-358 502.61,-352 502.61,-352 502.61,-340 502.61,-340 502.61,-334 508.61,-328 514.61,-328 514.61,-328 597.36,-328 597.36,-328 603.36,-328 609.36,-334 609.36,-340 609.36,-340 609.36,-352 609.36,-352 609.36,-358 603.36,-364 597.36,-364"/>
<text text-anchor="middle" x="555.98" y="-340.75" font-family="Arial" font-size="15.00">editor_screen</text>
</g>
<!-- /lib/screens/editor/editor_screen.dart&#45;&gt;/lib/widgets/message_widget.dart -->
<g id="edge6" class="edge">
<title>/lib/screens/editor/editor_screen.dart&#45;&gt;/lib/widgets/message_widget.dart</title>
<path fill="none" stroke="#aabbaa" stroke-width="1.3" stroke-opacity="0.533333" d="M557.15,-327.55C558.43,-308.35 560.5,-277.19 562.03,-254.24"/>
<polygon fill="#aabbaa" fill-opacity="0.533333" stroke="#aabbaa" stroke-width="1.3" stroke-opacity="0.533333" points="565.51,-254.64 562.69,-244.43 558.53,-254.18 565.51,-254.64"/>
</g>
<!-- /lib/screens/git/git_panel.dart -->
<g id="node8" class="node">
<title>/lib/screens/git/git_panel.dart</title>
<path fill="Lavender" stroke="black" stroke-width="1.3" d="M696.98,-364C696.98,-364 644.98,-364 644.98,-364 638.98,-364 632.98,-358 632.98,-352 632.98,-352 632.98,-340 632.98,-340 632.98,-334 638.98,-328 644.98,-328 644.98,-328 696.98,-328 696.98,-328 702.98,-328 708.98,-334 708.98,-340 708.98,-340 708.98,-352 708.98,-352 708.98,-358 702.98,-364 696.98,-364"/>
<text text-anchor="middle" x="670.98" y="-340.75" font-family="Arial" font-size="15.00">git_panel</text>
</g>
<!-- /lib/services/git_service.dart -->
<g id="node11" class="node">
<title>/lib/services/git_service.dart</title>
<path fill="Lavender" stroke="black" stroke-width="1.3" d="M725.61,-151C725.61,-151 662.36,-151 662.36,-151 656.36,-151 650.36,-145 650.36,-139 650.36,-139 650.36,-127 650.36,-127 650.36,-121 656.36,-115 662.36,-115 662.36,-115 725.61,-115 725.61,-115 731.61,-115 737.61,-121 737.61,-127 737.61,-127 737.61,-139 737.61,-139 737.61,-145 731.61,-151 725.61,-151"/>
<text text-anchor="middle" x="693.98" y="-127.75" font-family="Arial" font-size="15.00">git_service</text>
</g>
<!-- /lib/screens/git/git_panel.dart&#45;&gt;/lib/services/git_service.dart -->
<g id="edge7" class="edge">
<title>/lib/screens/git/git_panel.dart&#45;&gt;/lib/services/git_service.dart</title>
<path fill="none" stroke="#aabbaa" stroke-width="1.3" stroke-opacity="0.533333" d="M672.87,-327.73C676.81,-291.55 685.97,-207.47 690.83,-162.91"/>
<polygon fill="#aabbaa" fill-opacity="0.533333" stroke="#aabbaa" stroke-width="1.3" stroke-opacity="0.533333" points="694.29,-163.49 691.89,-153.17 687.33,-162.73 694.29,-163.49"/>
</g>
<!-- /lib/main.dart&#45;&gt;/lib/models/project_node.dart -->
<g id="edge17" class="edge">
<title>/lib/main.dart&#45;&gt;/lib/models/project_node.dart</title>
<path fill="none" stroke="#aabbaa" stroke-width="1.3" stroke-opacity="0.533333" d="M463.52,-450.5C368.04,-448.64 55.55,-441.4 40.98,-426 -51.45,-328.29 37.68,-147.3 77.23,-78.51"/>
<polygon fill="#aabbaa" fill-opacity="0.533333" stroke="#aabbaa" stroke-width="1.3" stroke-opacity="0.533333" points="80.08,-80.55 82.12,-70.16 74.04,-77.02 80.08,-80.55"/>
</g>
<!-- /lib/main.dart&#45;&gt;/lib/models/file_system_item.dart -->
<g id="edge16" class="edge">
<title>/lib/main.dart&#45;&gt;/lib/models/file_system_item.dart</title>
<path fill="none" stroke="#aabbaa" stroke-width="1.3" stroke-opacity="0.533333" d="M463.66,-450.4C372.31,-448.27 82.54,-440.39 68.98,-426 -22.65,-328.78 177.37,-120.29 185.98,-107 192.34,-97.2 199.76,-86.79 206.53,-77.64"/>
<polygon fill="#aabbaa" fill-opacity="0.533333" stroke="#aabbaa" stroke-width="1.3" stroke-opacity="0.533333" points="209.16,-79.97 212.35,-69.87 203.56,-75.77 209.16,-79.97"/>
</g>
<!-- /lib/main.dart&#45;&gt;/lib/screens/explorer/explorer_screen.dart -->
<g id="edge8" class="edge">
<title>/lib/main.dart&#45;&gt;/lib/screens/explorer/explorer_screen.dart</title>
<path fill="none" stroke="#aabbaa" stroke-width="1.3" stroke-opacity="0.533333" d="M463.67,-451.04C402.66,-450.73 257.26,-447.68 213.98,-426 191,-414.49 171.99,-392.08 159.45,-374.07"/>
<polygon fill="#aabbaa" fill-opacity="0.533333" stroke="#aabbaa" stroke-width="1.3" stroke-opacity="0.533333" points="162.53,-372.38 154.08,-365.98 156.69,-376.25 162.53,-372.38"/>
</g>
<!-- /lib/main.dart&#45;&gt;/lib/screens/explorer/welcome_screen.dart -->
<g id="edge9" class="edge">
<title>/lib/main.dart&#45;&gt;/lib/screens/explorer/welcome_screen.dart</title>
<path fill="none" stroke="#aabbaa" stroke-width="1.3" stroke-opacity="0.533333" d="M463.65,-450.39C436.58,-448.73 394.7,-443.28 362.98,-426 339.86,-413.4 319.53,-391.34 305.73,-373.73"/>
<polygon fill="#aabbaa" fill-opacity="0.533333" stroke="#aabbaa" stroke-width="1.3" stroke-opacity="0.533333" points="308.76,-371.94 299.94,-366.06 303.17,-376.15 308.76,-371.94"/>
</g>
<!-- /lib/main.dart&#45;&gt;/lib/screens/outline/outline_panel.dart -->
<g id="edge11" class="edge">
<title>/lib/main.dart&#45;&gt;/lib/screens/outline/outline_panel.dart</title>
<path fill="none" stroke="#aabbaa" stroke-width="1.3" stroke-opacity="0.533333" d="M480.42,-433.83C470.46,-417.64 455.37,-393.13 443.77,-374.27"/>
<polygon fill="#aabbaa" fill-opacity="0.533333" stroke="#aabbaa" stroke-width="1.3" stroke-opacity="0.533333" points="446.82,-372.56 438.6,-365.87 440.86,-376.23 446.82,-372.56"/>
</g>
<!-- /lib/main.dart&#45;&gt;/lib/screens/editor/editor_screen.dart -->
<g id="edge10" class="edge">
<title>/lib/main.dart&#45;&gt;/lib/screens/editor/editor_screen.dart</title>
<path fill="none" stroke="#aabbaa" stroke-width="1.3" stroke-opacity="0.533333" d="M501.72,-433.83C511.83,-417.64 527.15,-393.13 538.94,-374.27"/>
<polygon fill="#aabbaa" fill-opacity="0.533333" stroke="#aabbaa" stroke-width="1.3" stroke-opacity="0.533333" points="541.86,-376.2 544.19,-365.87 535.92,-372.49 541.86,-376.2"/>
</g>
<!-- /lib/main.dart&#45;&gt;/lib/screens/git/git_panel.dart -->
<g id="edge12" class="edge">
<title>/lib/main.dart&#45;&gt;/lib/screens/git/git_panel.dart</title>
<path fill="none" stroke="#aabbaa" stroke-width="1.3" stroke-opacity="0.533333" d="M518.25,-451.85C546.33,-451.41 590.22,-446.97 620.98,-426 639.03,-413.7 651.91,-392.51 660.08,-375.17"/>
<polygon fill="#aabbaa" fill-opacity="0.533333" stroke="#aabbaa" stroke-width="1.3" stroke-opacity="0.533333" points="663.18,-376.83 663.98,-366.27 656.76,-374.02 663.18,-376.83"/>
</g>
<!-- /lib/theme/app_theme.dart -->
<g id="node10" class="node">
<title>/lib/theme/app_theme.dart</title>
<path fill="Lavender" stroke="black" stroke-width="1.3" d="M820.48,-364C820.48,-364 753.48,-364 753.48,-364 747.48,-364 741.48,-358 741.48,-352 741.48,-352 741.48,-340 741.48,-340 741.48,-334 747.48,-328 753.48,-328 753.48,-328 820.48,-328 820.48,-328 826.48,-328 832.48,-334 832.48,-340 832.48,-340 832.48,-352 832.48,-352 832.48,-358 826.48,-364 820.48,-364"/>
<text text-anchor="middle" x="786.98" y="-340.75" font-family="Arial" font-size="15.00">app_theme</text>
</g>
<!-- /lib/main.dart&#45;&gt;/lib/theme/app_theme.dart -->
<g id="edge15" class="edge">
<title>/lib/main.dart&#45;&gt;/lib/theme/app_theme.dart</title>
<path fill="none" stroke="#aabbaa" stroke-width="1.3" stroke-opacity="0.533333" d="M518.47,-450.56C571.67,-449.29 686.55,-444.44 720.98,-426 742.75,-414.35 760.24,-392.27 771.73,-374.42"/>
<polygon fill="#aabbaa" fill-opacity="0.533333" stroke="#aabbaa" stroke-width="1.3" stroke-opacity="0.533333" points="774.7,-376.27 776.92,-365.91 768.72,-372.63 774.7,-376.27"/>
</g>
<!-- /lib/main.dart&#45;&gt;/lib/services/git_service.dart -->
<g id="edge14" class="edge">
<title>/lib/main.dart&#45;&gt;/lib/services/git_service.dart</title>
<path fill="none" stroke="#aabbaa" stroke-width="1.3" stroke-opacity="0.533333" d="M518.44,-451.22C599.43,-451.59 833.09,-450.52 855.98,-426 890.56,-388.97 874.27,-359.25 855.98,-312 842.05,-275.98 763.77,-199.17 721.34,-159.26"/>
<polygon fill="#aabbaa" fill-opacity="0.533333" stroke="#aabbaa" stroke-width="1.3" stroke-opacity="0.533333" points="723.99,-156.95 714.3,-152.67 719.21,-162.06 723.99,-156.95"/>
</g>
<!-- /lib/services/file_system_service.dart -->
<g id="node12" class="node">
<title>/lib/services/file_system_service.dart</title>
<path fill="Lavender" stroke="black" stroke-width="1.3" d="M620.23,-151C620.23,-151 497.73,-151 497.73,-151 491.73,-151 485.73,-145 485.73,-139 485.73,-139 485.73,-127 485.73,-127 485.73,-121 491.73,-115 497.73,-115 497.73,-115 620.23,-115 620.23,-115 626.23,-115 632.23,-121 632.23,-127 632.23,-127 632.23,-139 632.23,-139 632.23,-145 626.23,-151 620.23,-151"/>
<text text-anchor="middle" x="558.98" y="-127.75" font-family="Arial" font-size="15.00">file_system_service</text>
</g>
<!-- /lib/main.dart&#45;&gt;/lib/services/file_system_service.dart -->
<g id="edge13" class="edge">
<title>/lib/main.dart&#45;&gt;/lib/services/file_system_service.dart</title>
<path fill="none" stroke="#aabbaa" stroke-width="1.3" stroke-opacity="0.533333" d="M518.46,-451.16C597.78,-451.33 822.88,-449.72 844.98,-426 862.25,-407.47 857.29,-334.15 844.98,-312 838.07,-299.55 676.02,-202.95 598.98,-157.5"/>
<polygon fill="#aabbaa" fill-opacity="0.533333" stroke="#aabbaa" stroke-width="1.3" stroke-opacity="0.533333" points="600.78,-154.5 590.39,-152.43 597.23,-160.53 600.78,-154.5"/>
</g>
<!-- /lib/services/file_system_service.dart&#45;&gt;/lib/models/file_system_item.dart -->
<g id="edge18" class="edge">
<title>/lib/services/file_system_service.dart&#45;&gt;/lib/models/file_system_item.dart</title>
<path fill="none" stroke="#aabbaa" stroke-width="1.3" stroke-opacity="0.533333" d="M487.35,-114.52C432.9,-101.24 358.15,-83 302.71,-69.48"/>
<polygon fill="#aabbaa" fill-opacity="0.533333" stroke="#aabbaa" stroke-width="1.3" stroke-opacity="0.533333" points="303.64,-66.1 293.1,-67.13 301.98,-72.9 303.64,-66.1"/>
</g>
<!-- /lib/services/editor_service.dart -->
<g id="node13" class="node">
<title>/lib/services/editor_service.dart</title>
<path fill="Lavender" stroke="black" stroke-width="1.3" d="M852.48,-151C852.48,-151 767.48,-151 767.48,-151 761.48,-151 755.48,-145 755.48,-139 755.48,-139 755.48,-127 755.48,-127 755.48,-121 761.48,-115 767.48,-115 767.48,-115 852.48,-115 852.48,-115 858.48,-115 864.48,-121 864.48,-127 864.48,-127 864.48,-139 864.48,-139 864.48,-145 858.48,-151 852.48,-151"/>
<text text-anchor="middle" x="809.98" y="-127.75" font-family="Arial" font-size="15.00">editor_service</text>
</g>
<!-- /lib/widgets/save_file_dialog.dart -->
<g id="node14" class="node">
<title>/lib/widgets/save_file_dialog.dart</title>
<path fill="Lavender" stroke="black" stroke-width="1.3" d="M469.86,-242C469.86,-242 372.11,-242 372.11,-242 366.11,-242 360.11,-236 360.11,-230 360.11,-230 360.11,-218 360.11,-218 360.11,-212 366.11,-206 372.11,-206 372.11,-206 469.86,-206 469.86,-206 475.86,-206 481.86,-212 481.86,-218 481.86,-218 481.86,-230 481.86,-230 481.86,-236 475.86,-242 469.86,-242"/>
<text text-anchor="middle" x="420.98" y="-218.75" font-family="Arial" font-size="15.00">save_file_dialog</text>
</g>
<!-- /lib/widgets/explorer/file_explorer.dart -->
<g id="node15" class="node">
<title>/lib/widgets/explorer/file_explorer.dart</title>
<path fill="Lavender" stroke="black" stroke-width="1.3" d="M330.48,-242C330.48,-242 257.48,-242 257.48,-242 251.48,-242 245.48,-236 245.48,-230 245.48,-230 245.48,-218 245.48,-218 245.48,-212 251.48,-206 257.48,-206 257.48,-206 330.48,-206 330.48,-206 336.48,-206 342.48,-212 342.48,-218 342.48,-218 342.48,-230 342.48,-230 342.48,-236 336.48,-242 330.48,-242"/>
<text text-anchor="middle" x="293.98" y="-218.75" font-family="Arial" font-size="15.00">file_explorer</text>
</g>
<!-- /lib/widgets/explorer/file_explorer.dart&#45;&gt;/lib/models/file_system_item.dart -->
<g id="edge20" class="edge">
<title>/lib/widgets/explorer/file_explorer.dart&#45;&gt;/lib/models/file_system_item.dart</title>
<path fill="none" stroke="#aabbaa" stroke-width="1.3" stroke-opacity="0.533333" d="M287.19,-205.56C275.6,-175.81 251.92,-115.01 237.96,-79.17"/>
<polygon fill="#aabbaa" fill-opacity="0.533333" stroke="#aabbaa" stroke-width="1.3" stroke-opacity="0.533333" points="241.4,-78.37 234.51,-70.32 234.88,-80.91 241.4,-78.37"/>
</g>
<!-- /lib/widgets/explorer/file_explorer.dart&#45;&gt;/lib/services/file_system_service.dart -->
<g id="edge19" class="edge">
<title>/lib/widgets/explorer/file_explorer.dart&#45;&gt;/lib/services/file_system_service.dart</title>
<path fill="none" stroke="#aabbaa" stroke-width="1.3" stroke-opacity="0.533333" d="M318.48,-205.62C327.18,-200.03 337.23,-194.21 346.98,-190 387.38,-172.56 434.52,-159.45 474.07,-150.32"/>
<polygon fill="#aabbaa" fill-opacity="0.533333" stroke="#aabbaa" stroke-width="1.3" stroke-opacity="0.533333" points="474.65,-153.78 483.63,-148.16 473.11,-146.95 474.65,-153.78"/>
</g>
<!-- /tool/sort_source.dart -->
<g id="node17" class="node">
<title>/tool/sort_source.dart</title>
<path fill="Lavender" stroke="black" stroke-width="1.3" d="M784.36,-553C784.36,-553 713.61,-553 713.61,-553 707.61,-553 701.61,-547 701.61,-541 701.61,-541 701.61,-529 701.61,-529 701.61,-523 707.61,-517 713.61,-517 713.61,-517 784.36,-517 784.36,-517 790.36,-517 796.36,-523 796.36,-529 796.36,-529 796.36,-541 796.36,-541 796.36,-547 790.36,-553 784.36,-553"/>
<text text-anchor="middle" x="748.98" y="-529.75" font-family="Arial" font-size="15.00">sort_source</text>
</g>
</g>
</svg>
