<?xml version="1.0" encoding="UTF-8" standalone="no"?>
<!DOCTYPE svg PUBLIC "-//W3C//DTD SVG 1.1//EN"
 "http://www.w3.org/Graphics/SVG/1.1/DTD/svg11.dtd">
<!-- Generated by graphviz version 13.1.1 (20250719.2154)
 -->
<!-- Pages: 1 -->
<svg width="1358pt" height="545pt"
 viewBox="0.00 0.00 1358.00 545.00" xmlns="http://www.w3.org/2000/svg" xmlns:xlink="http://www.w3.org/1999/xlink">
<g id="graph0" class="graph" transform="scale(1 1) rotate(0) translate(4 541)">
<polygon fill="white" stroke="none" points="-4,4 -4,-541 1354,-541 1354,4 -4,4"/>
<g id="clust1" class="cluster">
<title>cluster~</title>
<path fill="none" stroke="lightgray" stroke-width="2.6" d="M20,-8C20,-8 1330,-8 1330,-8 1336,-8 1342,-14 1342,-20 1342,-20 1342,-517 1342,-517 1342,-523 1336,-529 1330,-529 1330,-529 20,-529 20,-529 14,-529 8,-523 8,-517 8,-517 8,-20 8,-20 8,-14 14,-8 20,-8"/>
<text xml:space="preserve" text-anchor="middle" x="675" y="-512.65" font-family="Arial Black" font-size="13.00">fide</text>
</g>
<g id="clust2" class="cluster">
<title>cluster~/test</title>
<path fill="none" stroke="lightgray" stroke-width="2.6" d="M775,-423C775,-423 859,-423 859,-423 865,-423 871,-429 871,-435 871,-435 871,-486 871,-486 871,-492 865,-498 859,-498 859,-498 775,-498 775,-498 769,-498 763,-492 763,-486 763,-486 763,-435 763,-435 763,-429 769,-423 775,-423"/>
<text xml:space="preserve" text-anchor="middle" x="817" y="-481.65" font-family="Arial Black" font-size="13.00">test</text>
</g>
<g id="clust3" class="cluster">
<title>cluster~/lib</title>
<path fill="none" stroke="lightgray" stroke-width="2.6" d="M28,-16C28,-16 1322,-16 1322,-16 1328,-16 1334,-22 1334,-28 1334,-28 1334,-403 1334,-403 1334,-409 1328,-415 1322,-415 1322,-415 28,-415 28,-415 22,-415 16,-409 16,-403 16,-403 16,-28 16,-28 16,-22 22,-16 28,-16"/>
<text xml:space="preserve" text-anchor="middle" x="675" y="-398.65" font-family="Arial Black" font-size="13.00">lib</text>
</g>
<g id="clust4" class="cluster">
<title>cluster~/lib/providers</title>
<path fill="none" stroke="lightgray" stroke-width="2.6" d="M1180,-190C1180,-190 1282,-190 1282,-190 1288,-190 1294,-196 1294,-202 1294,-202 1294,-253 1294,-253 1294,-259 1288,-265 1282,-265 1282,-265 1180,-265 1180,-265 1174,-265 1168,-259 1168,-253 1168,-253 1168,-202 1168,-202 1168,-196 1174,-190 1180,-190"/>
<text xml:space="preserve" text-anchor="middle" x="1231" y="-248.65" font-family="Arial Black" font-size="13.00">providers</text>
</g>
<g id="clust5" class="cluster">
<title>cluster~/lib/utils</title>
<path fill="none" stroke="lightgray" stroke-width="2.6" d="M296,-24C296,-24 538,-24 538,-24 544,-24 550,-30 550,-36 550,-36 550,-87 550,-87 550,-93 544,-99 538,-99 538,-99 296,-99 296,-99 290,-99 284,-93 284,-87 284,-87 284,-36 284,-36 284,-30 290,-24 296,-24"/>
<text xml:space="preserve" text-anchor="middle" x="417" y="-82.65" font-family="Arial Black" font-size="13.00">utils</text>
</g>
<g id="clust6" class="cluster">
<title>cluster~/lib/models</title>
<path fill="none" stroke="lightgray" stroke-width="2.6" d="M671,-107C671,-107 911,-107 911,-107 917,-107 923,-113 923,-119 923,-119 923,-170 923,-170 923,-176 917,-182 911,-182 911,-182 671,-182 671,-182 665,-182 659,-176 659,-170 659,-170 659,-119 659,-119 659,-113 665,-107 671,-107"/>
<text xml:space="preserve" text-anchor="middle" x="791" y="-165.65" font-family="Arial Black" font-size="13.00">models</text>
</g>
<g id="clust7" class="cluster">
<title>cluster~/lib/screens</title>
<path fill="none" stroke="lightgray" stroke-width="2.6" d="M108,-107C108,-107 446,-107 446,-107 452,-107 458,-113 458,-119 458,-119 458,-253 458,-253 458,-259 452,-265 446,-265 446,-265 108,-265 108,-265 102,-265 96,-259 96,-253 96,-253 96,-119 96,-119 96,-113 102,-107 108,-107"/>
<text xml:space="preserve" text-anchor="middle" x="277" y="-248.65" font-family="Arial Black" font-size="13.00">screens</text>
</g>
<g id="clust8" class="cluster">
<title>cluster~/lib/theme</title>
<path fill="none" stroke="lightgray" stroke-width="2.6" d="M40,-24C40,-24 124,-24 124,-24 130,-24 136,-30 136,-36 136,-36 136,-87 136,-87 136,-93 130,-99 124,-99 124,-99 40,-99 40,-99 34,-99 28,-93 28,-87 28,-87 28,-36 28,-36 28,-30 34,-24 40,-24"/>
<text xml:space="preserve" text-anchor="middle" x="82" y="-82.65" font-family="Arial Black" font-size="13.00">theme</text>
</g>
<g id="clust9" class="cluster">
<title>cluster~/lib/services</title>
<path fill="none" stroke="lightgray" stroke-width="2.6" d="M943,-107C943,-107 1314,-107 1314,-107 1320,-107 1326,-113 1326,-119 1326,-119 1326,-170 1326,-170 1326,-176 1320,-182 1314,-182 1314,-182 943,-182 943,-182 937,-182 931,-176 931,-170 931,-170 931,-119 931,-119 931,-113 937,-107 943,-107"/>
<text xml:space="preserve" text-anchor="middle" x="1128.5" y="-165.65" font-family="Arial Black" font-size="13.00">services</text>
</g>
<g id="clust10" class="cluster">
<title>cluster~/lib/widgets</title>
<path fill="none" stroke="lightgray" stroke-width="2.6" d="M510,-190C510,-190 1114,-190 1114,-190 1120,-190 1126,-196 1126,-202 1126,-202 1126,-328 1126,-328 1126,-334 1120,-340 1114,-340 1114,-340 510,-340 510,-340 504,-340 498,-334 498,-328 498,-328 498,-202 498,-202 498,-196 504,-190 510,-190"/>
<text xml:space="preserve" text-anchor="middle" x="812" y="-323.65" font-family="Arial Black" font-size="13.00">widgets</text>
</g>
<g id="clust11" class="cluster">
<title>cluster~/tool</title>
<path fill="none" stroke="lightgray" stroke-width="2.6" d="M1063,-423C1063,-423 1149,-423 1149,-423 1155,-423 1161,-429 1161,-435 1161,-435 1161,-486 1161,-486 1161,-492 1155,-498 1149,-498 1149,-498 1063,-498 1063,-498 1057,-498 1051,-492 1051,-486 1051,-486 1051,-435 1051,-435 1051,-429 1057,-423 1063,-423"/>
<text xml:space="preserve" text-anchor="middle" x="1106" y="-481.65" font-family="Arial Black" font-size="13.00">tool</text>
</g>
<!-- /test/widget_test.dart -->
<g id="node1" class="node">
<title>/test/widget_test.dart</title>
<path fill="Lavender" stroke="black" stroke-width="1.3" d="M850.88,-467C850.88,-467 783.12,-467 783.12,-467 777.12,-467 771.12,-461 771.12,-455 771.12,-455 771.12,-443 771.12,-443 771.12,-437 777.12,-431 783.12,-431 783.12,-431 850.88,-431 850.88,-431 856.88,-431 862.88,-437 862.88,-443 862.88,-443 862.88,-455 862.88,-455 862.88,-461 856.88,-467 850.88,-467"/>
<text xml:space="preserve" text-anchor="middle" x="817" y="-443.75" font-family="Arial" font-size="15.00">widget_test</text>
</g>
<!-- /lib/main.dart -->
<g id="node12" class="node">
<title>/lib/main.dart</title>
<path fill="Lavender" stroke="black" stroke-width="1.3" d="M832,-384C832,-384 802,-384 802,-384 796,-384 790,-378 790,-372 790,-372 790,-360 790,-360 790,-354 796,-348 802,-348 802,-348 832,-348 832,-348 838,-348 844,-354 844,-360 844,-360 844,-372 844,-372 844,-378 838,-384 832,-384"/>
<text xml:space="preserve" text-anchor="middle" x="817" y="-360.75" font-family="Arial" font-size="15.00">main</text>
</g>
<!-- /test/widget_test.dart&#45;&gt;/lib/main.dart -->
<g id="edge1" class="edge">
<title>/test/widget_test.dart&#45;&gt;/lib/main.dart</title>
<path fill="none" stroke="#aabbaa" stroke-width="1.3" stroke-opacity="0.533333" d="M817,-430.42C817,-420.45 817,-407.7 817,-396.26"/>
<polygon fill="#aabbaa" fill-opacity="0.533333" stroke="#aabbaa" stroke-width="1.3" stroke-opacity="0.533333" points="820.5,-396.51 817,-386.51 813.5,-396.51 820.5,-396.51"/>
</g>
<!-- /lib/providers/app_providers.dart -->
<g id="node2" class="node">
<title>/lib/providers/app_providers.dart</title>
<path fill="Lavender" stroke="black" stroke-width="1.3" d="M1274.25,-234C1274.25,-234 1187.75,-234 1187.75,-234 1181.75,-234 1175.75,-228 1175.75,-222 1175.75,-222 1175.75,-210 1175.75,-210 1175.75,-204 1181.75,-198 1187.75,-198 1187.75,-198 1274.25,-198 1274.25,-198 1280.25,-198 1286.25,-204 1286.25,-210 1286.25,-210 1286.25,-222 1286.25,-222 1286.25,-228 1280.25,-234 1274.25,-234"/>
<text xml:space="preserve" text-anchor="middle" x="1231" y="-210.75" font-family="Arial" font-size="15.00">app_providers</text>
</g>
<!-- /lib/models/project_node.dart -->
<g id="node5" class="node">
<title>/lib/models/project_node.dart</title>
<path fill="Lavender" stroke="black" stroke-width="1.3" d="M757.12,-151C757.12,-151 678.88,-151 678.88,-151 672.88,-151 666.88,-145 666.88,-139 666.88,-139 666.88,-127 666.88,-127 666.88,-121 672.88,-115 678.88,-115 678.88,-115 757.12,-115 757.12,-115 763.12,-115 769.12,-121 769.12,-127 769.12,-127 769.12,-139 769.12,-139 769.12,-145 763.12,-151 757.12,-151"/>
<text xml:space="preserve" text-anchor="middle" x="718" y="-127.75" font-family="Arial" font-size="15.00">project_node</text>
</g>
<!-- /lib/providers/app_providers.dart&#45;&gt;/lib/models/project_node.dart -->
<g id="edge3" class="edge">
<title>/lib/providers/app_providers.dart&#45;&gt;/lib/models/project_node.dart</title>
<path fill="none" stroke="#aabbaa" stroke-width="1.3" stroke-opacity="0.533333" d="M1175.33,-198.9C1160.7,-195.31 1144.86,-191.98 1130,-190 1091.22,-184.82 814.77,-195.37 778,-182 764.75,-177.18 752.22,-168.17 742.07,-159.24"/>
<polygon fill="#aabbaa" fill-opacity="0.533333" stroke="#aabbaa" stroke-width="1.3" stroke-opacity="0.533333" points="744.59,-156.81 734.9,-152.53 739.81,-161.92 744.59,-156.81"/>
</g>
<!-- /lib/models/file_system_item.dart -->
<g id="node6" class="node">
<title>/lib/models/file_system_item.dart</title>
<path fill="Lavender" stroke="black" stroke-width="1.3" d="M902.88,-151C902.88,-151 799.12,-151 799.12,-151 793.12,-151 787.12,-145 787.12,-139 787.12,-139 787.12,-127 787.12,-127 787.12,-121 793.12,-115 799.12,-115 799.12,-115 902.88,-115 902.88,-115 908.88,-115 914.88,-121 914.88,-127 914.88,-127 914.88,-139 914.88,-139 914.88,-145 908.88,-151 902.88,-151"/>
<text xml:space="preserve" text-anchor="middle" x="851" y="-127.75" font-family="Arial" font-size="15.00">file_system_item</text>
</g>
<!-- /lib/providers/app_providers.dart&#45;&gt;/lib/models/file_system_item.dart -->
<g id="edge2" class="edge">
<title>/lib/providers/app_providers.dart&#45;&gt;/lib/models/file_system_item.dart</title>
<path fill="none" stroke="#aabbaa" stroke-width="1.3" stroke-opacity="0.533333" d="M1188.89,-197.39C1180.14,-194.4 1170.88,-191.72 1162,-190 1110.7,-180.09 976.94,-197.38 927,-182 910.84,-177.02 894.74,-167.66 881.55,-158.51"/>
<polygon fill="#aabbaa" fill-opacity="0.533333" stroke="#aabbaa" stroke-width="1.3" stroke-opacity="0.533333" points="883.81,-155.83 873.66,-152.79 879.7,-161.5 883.81,-155.83"/>
</g>
<!-- /lib/utils/message_helper.dart -->
<g id="node3" class="node">
<title>/lib/utils/message_helper.dart</title>
<path fill="Lavender" stroke="black" stroke-width="1.3" d="M406.12,-68C406.12,-68 303.88,-68 303.88,-68 297.88,-68 291.88,-62 291.88,-56 291.88,-56 291.88,-44 291.88,-44 291.88,-38 297.88,-32 303.88,-32 303.88,-32 406.12,-32 406.12,-32 412.12,-32 418.12,-38 418.12,-44 418.12,-44 418.12,-56 418.12,-56 418.12,-62 412.12,-68 406.12,-68"/>
<text xml:space="preserve" text-anchor="middle" x="355" y="-44.75" font-family="Arial" font-size="15.00">message_helper</text>
</g>
<!-- /lib/widgets/message_widget.dart -->
<g id="node21" class="node">
<title>/lib/widgets/message_widget.dart</title>
<path fill="Lavender" stroke="black" stroke-width="1.3" d="M621.88,-309C621.88,-309 518.12,-309 518.12,-309 512.12,-309 506.12,-303 506.12,-297 506.12,-297 506.12,-285 506.12,-285 506.12,-279 512.12,-273 518.12,-273 518.12,-273 621.88,-273 621.88,-273 627.88,-273 633.88,-279 633.88,-285 633.88,-285 633.88,-297 633.88,-297 633.88,-303 627.88,-309 621.88,-309"/>
<text xml:space="preserve" text-anchor="middle" x="570" y="-285.75" font-family="Arial" font-size="15.00">message_widget</text>
</g>
<!-- /lib/utils/message_helper.dart&#45;&gt;/lib/widgets/message_widget.dart -->
<g id="edge4" class="edge">
<title>/lib/utils/message_helper.dart&#45;&gt;/lib/widgets/message_widget.dart</title>
<path fill="none" stroke="#aabbaa" stroke-width="1.3" stroke-opacity="0.533333" d="M376.8,-68.59C390.49,-78.83 408.92,-91.22 427,-99 441.66,-105.31 451.29,-95.17 462,-107 509.52,-159.46 435.86,-211.32 482,-265 482.73,-265.85 487.42,-267.54 494.28,-269.66"/>
<polygon fill="#aabbaa" fill-opacity="0.533333" stroke="#aabbaa" stroke-width="1.3" stroke-opacity="0.533333" points="493.21,-272.99 503.79,-272.46 495.19,-266.28 493.21,-272.99"/>
</g>
<!-- /lib/utils/file_type_utils.dart -->
<g id="node4" class="node">
<title>/lib/utils/file_type_utils.dart</title>
<path fill="Lavender" stroke="black" stroke-width="1.3" d="M530,-68C530,-68 448,-68 448,-68 442,-68 436,-62 436,-56 436,-56 436,-44 436,-44 436,-38 442,-32 448,-32 448,-32 530,-32 530,-32 536,-32 542,-38 542,-44 542,-44 542,-56 542,-56 542,-62 536,-68 530,-68"/>
<text xml:space="preserve" text-anchor="middle" x="489" y="-44.75" font-family="Arial" font-size="15.00">file_type_utils</text>
</g>
<!-- /lib/screens/git_panel.dart -->
<g id="node7" class="node">
<title>/lib/screens/git_panel.dart</title>
<path fill="Lavender" stroke="black" stroke-width="1.3" d="M168,-151C168,-151 116,-151 116,-151 110,-151 104,-145 104,-139 104,-139 104,-127 104,-127 104,-121 110,-115 116,-115 116,-115 168,-115 168,-115 174,-115 180,-121 180,-127 180,-127 180,-139 180,-139 180,-145 174,-151 168,-151"/>
<text xml:space="preserve" text-anchor="middle" x="142" y="-127.75" font-family="Arial" font-size="15.00">git_panel</text>
</g>
<!-- /lib/theme/app_theme.dart -->
<g id="node13" class="node">
<title>/lib/theme/app_theme.dart</title>
<path fill="Lavender" stroke="black" stroke-width="1.3" d="M115.5,-68C115.5,-68 48.5,-68 48.5,-68 42.5,-68 36.5,-62 36.5,-56 36.5,-56 36.5,-44 36.5,-44 36.5,-38 42.5,-32 48.5,-32 48.5,-32 115.5,-32 115.5,-32 121.5,-32 127.5,-38 127.5,-44 127.5,-44 127.5,-56 127.5,-56 127.5,-62 121.5,-68 115.5,-68"/>
<text xml:space="preserve" text-anchor="middle" x="82" y="-44.75" font-family="Arial" font-size="15.00">app_theme</text>
</g>
<!-- /lib/screens/git_panel.dart&#45;&gt;/lib/theme/app_theme.dart -->
<g id="edge5" class="edge">
<title>/lib/screens/git_panel.dart&#45;&gt;/lib/theme/app_theme.dart</title>
<path fill="none" stroke="#aabbaa" stroke-width="1.3" stroke-opacity="0.533333" d="M128.98,-114.42C121.12,-103.81 110.94,-90.06 102.06,-78.08"/>
<polygon fill="#aabbaa" fill-opacity="0.533333" stroke="#aabbaa" stroke-width="1.3" stroke-opacity="0.533333" points="104.93,-76.07 96.16,-70.12 99.3,-80.24 104.93,-76.07"/>
</g>
<!-- /lib/services/git_service.dart -->
<g id="node14" class="node">
<title>/lib/services/git_service.dart</title>
<path fill="Lavender" stroke="black" stroke-width="1.3" d="M1178.62,-151C1178.62,-151 1115.38,-151 1115.38,-151 1109.38,-151 1103.38,-145 1103.38,-139 1103.38,-139 1103.38,-127 1103.38,-127 1103.38,-121 1109.38,-115 1115.38,-115 1115.38,-115 1178.62,-115 1178.62,-115 1184.62,-115 1190.62,-121 1190.62,-127 1190.62,-127 1190.62,-139 1190.62,-139 1190.62,-145 1184.62,-151 1178.62,-151"/>
<text xml:space="preserve" text-anchor="middle" x="1147" y="-127.75" font-family="Arial" font-size="15.00">git_service</text>
</g>
<!-- /lib/screens/git_panel.dart&#45;&gt;/lib/services/git_service.dart -->
<g id="edge6" class="edge">
<title>/lib/screens/git_panel.dart&#45;&gt;/lib/services/git_service.dart</title>
<path fill="none" stroke="#aabbaa" stroke-width="1.3" stroke-opacity="0.533333" d="M153.34,-151.42C163.14,-165.05 178.75,-181.92 198,-186 222.1,-191.11 1060.9,-191.11 1085,-186 1100.96,-182.61 1115.11,-171.54 1125.85,-160.39"/>
<polygon fill="#aabbaa" fill-opacity="0.533333" stroke="#aabbaa" stroke-width="1.3" stroke-opacity="0.533333" points="1128.35,-162.84 1132.39,-153.04 1123.13,-158.18 1128.35,-162.84"/>
</g>
<!-- /lib/screens/explorer_screen.dart -->
<g id="node8" class="node">
<title>/lib/screens/explorer_screen.dart</title>
<path fill="Lavender" stroke="black" stroke-width="1.3" d="M293.62,-234C293.62,-234 194.38,-234 194.38,-234 188.38,-234 182.38,-228 182.38,-222 182.38,-222 182.38,-210 182.38,-210 182.38,-204 188.38,-198 194.38,-198 194.38,-198 293.62,-198 293.62,-198 299.62,-198 305.62,-204 305.62,-210 305.62,-210 305.62,-222 305.62,-222 305.62,-228 299.62,-234 293.62,-234"/>
<text xml:space="preserve" text-anchor="middle" x="244" y="-210.75" font-family="Arial" font-size="15.00">explorer_screen</text>
</g>
<!-- /lib/screens/explorer_screen.dart&#45;&gt;/lib/utils/message_helper.dart -->
<g id="edge9" class="edge">
<title>/lib/screens/explorer_screen.dart&#45;&gt;/lib/utils/message_helper.dart</title>
<path fill="none" stroke="#aabbaa" stroke-width="1.3" stroke-opacity="0.533333" d="M202.62,-197.42C194.57,-194.54 186.11,-191.89 178,-190 159.95,-185.79 107.46,-195.72 95,-182 72.59,-157.32 73.59,-132.55 95,-107 101.52,-99.21 130.04,-101 140,-99 186.69,-89.64 238.82,-78.03 280.05,-68.58"/>
<polygon fill="#aabbaa" fill-opacity="0.533333" stroke="#aabbaa" stroke-width="1.3" stroke-opacity="0.533333" points="280.78,-72 289.74,-66.35 279.21,-65.18 280.78,-72"/>
</g>
<!-- /lib/screens/explorer_screen.dart&#45;&gt;/lib/models/project_node.dart -->
<g id="edge7" class="edge">
<title>/lib/screens/explorer_screen.dart&#45;&gt;/lib/models/project_node.dart</title>
<path fill="none" stroke="#aabbaa" stroke-width="1.3" stroke-opacity="0.533333" d="M287.77,-197.41C296.65,-194.46 306.03,-191.79 315,-190 379.17,-177.23 397.04,-189.82 462,-182 528.22,-174.02 603.13,-159.3 654.72,-148.26"/>
<polygon fill="#aabbaa" fill-opacity="0.533333" stroke="#aabbaa" stroke-width="1.3" stroke-opacity="0.533333" points="655.38,-151.7 664.41,-146.16 653.9,-144.85 655.38,-151.7"/>
</g>
<!-- /lib/screens/explorer_screen.dart&#45;&gt;/lib/models/file_system_item.dart -->
<g id="edge8" class="edge">
<title>/lib/screens/explorer_screen.dart&#45;&gt;/lib/models/file_system_item.dart</title>
<path fill="none" stroke="#aabbaa" stroke-width="1.3" stroke-opacity="0.533333" d="M286.96,-197.4C296.07,-194.37 305.74,-191.67 315,-190 365.64,-180.89 728.84,-197.18 778,-182 793.67,-177.16 809.12,-167.85 821.74,-158.71"/>
<polygon fill="#aabbaa" fill-opacity="0.533333" stroke="#aabbaa" stroke-width="1.3" stroke-opacity="0.533333" points="823.81,-161.53 829.65,-152.69 819.57,-155.96 823.81,-161.53"/>
</g>
<!-- /lib/screens/explorer_screen.dart&#45;&gt;/lib/screens/git_panel.dart -->
<g id="edge11" class="edge">
<title>/lib/screens/explorer_screen.dart&#45;&gt;/lib/screens/git_panel.dart</title>
<path fill="none" stroke="#aabbaa" stroke-width="1.3" stroke-opacity="0.533333" d="M211.67,-197.48C203.99,-192.81 195.99,-187.52 189,-182 180.71,-175.46 172.4,-167.54 165.13,-160.03"/>
<polygon fill="#aabbaa" fill-opacity="0.533333" stroke="#aabbaa" stroke-width="1.3" stroke-opacity="0.533333" points="167.87,-157.84 158.47,-152.95 162.77,-162.64 167.87,-157.84"/>
</g>
<!-- /lib/screens/welcome_screen.dart -->
<g id="node11" class="node">
<title>/lib/screens/welcome_screen.dart</title>
<path fill="Lavender" stroke="black" stroke-width="1.3" d="M313.88,-151C313.88,-151 210.12,-151 210.12,-151 204.12,-151 198.12,-145 198.12,-139 198.12,-139 198.12,-127 198.12,-127 198.12,-121 204.12,-115 210.12,-115 210.12,-115 313.88,-115 313.88,-115 319.88,-115 325.88,-121 325.88,-127 325.88,-127 325.88,-139 325.88,-139 325.88,-145 319.88,-151 313.88,-151"/>
<text xml:space="preserve" text-anchor="middle" x="262" y="-127.75" font-family="Arial" font-size="15.00">welcome_screen</text>
</g>
<!-- /lib/screens/explorer_screen.dart&#45;&gt;/lib/screens/welcome_screen.dart -->
<g id="edge10" class="edge">
<title>/lib/screens/explorer_screen.dart&#45;&gt;/lib/screens/welcome_screen.dart</title>
<path fill="none" stroke="#aabbaa" stroke-width="1.3" stroke-opacity="0.533333" d="M247.91,-197.42C250.15,-187.34 253.02,-174.43 255.58,-162.89"/>
<polygon fill="#aabbaa" fill-opacity="0.533333" stroke="#aabbaa" stroke-width="1.3" stroke-opacity="0.533333" points="258.92,-163.98 257.68,-153.46 252.09,-162.46 258.92,-163.98"/>
</g>
<!-- /lib/screens/explorer_screen.dart&#45;&gt;/lib/theme/app_theme.dart -->
<g id="edge12" class="edge">
<title>/lib/screens/explorer_screen.dart&#45;&gt;/lib/theme/app_theme.dart</title>
<path fill="none" stroke="#aabbaa" stroke-width="1.3" stroke-opacity="0.533333" d="M203.01,-197.42C194.85,-194.51 186.25,-191.84 178,-190 166.8,-187.5 82.8,-190.43 75,-182 49.74,-154.7 59.56,-108.91 69.98,-79.34"/>
<polygon fill="#aabbaa" fill-opacity="0.533333" stroke="#aabbaa" stroke-width="1.3" stroke-opacity="0.533333" points="73.12,-80.94 73.38,-70.34 66.57,-78.46 73.12,-80.94"/>
</g>
<!-- /lib/screens/outline_panel.dart -->
<g id="node9" class="node">
<title>/lib/screens/outline_panel.dart</title>
<path fill="Lavender" stroke="black" stroke-width="1.3" d="M415.88,-234C415.88,-234 336.12,-234 336.12,-234 330.12,-234 324.12,-228 324.12,-222 324.12,-222 324.12,-210 324.12,-210 324.12,-204 330.12,-198 336.12,-198 336.12,-198 415.88,-198 415.88,-198 421.88,-198 427.88,-204 427.88,-210 427.88,-210 427.88,-222 427.88,-222 427.88,-228 421.88,-234 415.88,-234"/>
<text xml:space="preserve" text-anchor="middle" x="376" y="-210.75" font-family="Arial" font-size="15.00">outline_panel</text>
</g>
<!-- /lib/screens/outline_panel.dart&#45;&gt;/lib/models/file_system_item.dart -->
<g id="edge14" class="edge">
<title>/lib/screens/outline_panel.dart&#45;&gt;/lib/models/file_system_item.dart</title>
<path fill="none" stroke="#aabbaa" stroke-width="1.3" stroke-opacity="0.533333" d="M428.23,-201.81C448.62,-197.23 472.27,-192.59 494,-190 525.35,-186.27 747.89,-191.48 778,-182 793.64,-177.08 809.09,-167.75 821.72,-158.62"/>
<polygon fill="#aabbaa" fill-opacity="0.533333" stroke="#aabbaa" stroke-width="1.3" stroke-opacity="0.533333" points="823.78,-161.45 829.63,-152.62 819.54,-155.88 823.78,-161.45"/>
</g>
<!-- /lib/screens/editor_screen.dart -->
<g id="node10" class="node">
<title>/lib/screens/editor_screen.dart</title>
<path fill="Lavender" stroke="black" stroke-width="1.3" d="M438.38,-151C438.38,-151 355.62,-151 355.62,-151 349.62,-151 343.62,-145 343.62,-139 343.62,-139 343.62,-127 343.62,-127 343.62,-121 349.62,-115 355.62,-115 355.62,-115 438.38,-115 438.38,-115 444.38,-115 450.38,-121 450.38,-127 450.38,-127 450.38,-139 450.38,-139 450.38,-145 444.38,-151 438.38,-151"/>
<text xml:space="preserve" text-anchor="middle" x="397" y="-127.75" font-family="Arial" font-size="15.00">editor_screen</text>
</g>
<!-- /lib/screens/outline_panel.dart&#45;&gt;/lib/screens/editor_screen.dart -->
<g id="edge15" class="edge">
<title>/lib/screens/outline_panel.dart&#45;&gt;/lib/screens/editor_screen.dart</title>
<path fill="none" stroke="#aabbaa" stroke-width="1.3" stroke-opacity="0.533333" d="M380.56,-197.42C383.17,-187.34 386.52,-174.43 389.51,-162.89"/>
<polygon fill="#aabbaa" fill-opacity="0.533333" stroke="#aabbaa" stroke-width="1.3" stroke-opacity="0.533333" points="392.84,-164 391.96,-153.45 386.06,-162.25 392.84,-164"/>
</g>
<!-- /lib/screens/outline_panel.dart&#45;&gt;/lib/theme/app_theme.dart -->
<g id="edge13" class="edge">
<title>/lib/screens/outline_panel.dart&#45;&gt;/lib/theme/app_theme.dart</title>
<path fill="none" stroke="#aabbaa" stroke-width="1.3" stroke-opacity="0.533333" d="M338.92,-197.39C331.17,-194.4 322.94,-191.72 315,-190 303.05,-187.42 103.91,-190.37 95,-182 80.68,-168.55 79.73,-114.1 80.65,-79.78"/>
<polygon fill="#aabbaa" fill-opacity="0.533333" stroke="#aabbaa" stroke-width="1.3" stroke-opacity="0.533333" points="84.14,-80.23 80.99,-70.12 77.14,-79.99 84.14,-80.23"/>
</g>
<!-- /lib/screens/editor_screen.dart&#45;&gt;/lib/utils/message_helper.dart -->
<g id="edge16" class="edge">
<title>/lib/screens/editor_screen.dart&#45;&gt;/lib/utils/message_helper.dart</title>
<path fill="none" stroke="#aabbaa" stroke-width="1.3" stroke-opacity="0.533333" d="M387.89,-114.42C382.55,-104.13 375.68,-90.89 369.6,-79.17"/>
<polygon fill="#aabbaa" fill-opacity="0.533333" stroke="#aabbaa" stroke-width="1.3" stroke-opacity="0.533333" points="372.71,-77.55 365,-70.29 366.5,-80.78 372.71,-77.55"/>
</g>
<!-- /lib/screens/editor_screen.dart&#45;&gt;/lib/utils/file_type_utils.dart -->
<g id="edge17" class="edge">
<title>/lib/screens/editor_screen.dart&#45;&gt;/lib/utils/file_type_utils.dart</title>
<path fill="none" stroke="#aabbaa" stroke-width="1.3" stroke-opacity="0.533333" d="M416.96,-114.42C429.62,-103.28 446.2,-88.68 460.27,-76.3"/>
<polygon fill="#aabbaa" fill-opacity="0.533333" stroke="#aabbaa" stroke-width="1.3" stroke-opacity="0.533333" points="462.41,-79.08 467.6,-69.84 457.78,-73.82 462.41,-79.08"/>
</g>
<!-- /lib/main.dart&#45;&gt;/lib/providers/app_providers.dart -->
<g id="edge18" class="edge">
<title>/lib/main.dart&#45;&gt;/lib/providers/app_providers.dart</title>
<path fill="none" stroke="#aabbaa" stroke-width="1.3" stroke-opacity="0.533333" d="M844.4,-365.51C911.22,-366.34 1080.72,-365.75 1130,-340 1170.39,-318.9 1200.66,-273.93 1217.08,-244.61"/>
<polygon fill="#aabbaa" fill-opacity="0.533333" stroke="#aabbaa" stroke-width="1.3" stroke-opacity="0.533333" points="1220.09,-246.42 1221.76,-235.95 1213.93,-243.09 1220.09,-246.42"/>
</g>
<!-- /lib/main.dart&#45;&gt;/lib/screens/editor_screen.dart -->
<g id="edge20" class="edge">
<title>/lib/main.dart&#45;&gt;/lib/screens/editor_screen.dart</title>
<path fill="none" stroke="#aabbaa" stroke-width="1.3" stroke-opacity="0.533333" d="M789.43,-364.49C715.66,-362.88 517.73,-357.03 494,-340 436.05,-298.42 469.36,-253.55 437,-190 431.88,-179.94 425.09,-169.68 418.56,-160.74"/>
<polygon fill="#aabbaa" fill-opacity="0.533333" stroke="#aabbaa" stroke-width="1.3" stroke-opacity="0.533333" points="421.42,-158.72 412.6,-152.85 415.84,-162.94 421.42,-158.72"/>
</g>
<!-- /lib/main.dart&#45;&gt;/lib/theme/app_theme.dart -->
<g id="edge22" class="edge">
<title>/lib/main.dart&#45;&gt;/lib/theme/app_theme.dart</title>
<path fill="none" stroke="#aabbaa" stroke-width="1.3" stroke-opacity="0.533333" d="M789.46,-364.88C670.57,-363.8 202.3,-353.91 92,-265 35.85,-219.74 38.94,-177.31 55,-107 57.2,-97.38 61.27,-87.49 65.59,-78.75"/>
<polygon fill="#aabbaa" fill-opacity="0.533333" stroke="#aabbaa" stroke-width="1.3" stroke-opacity="0.533333" points="68.57,-80.61 70.17,-70.14 62.39,-77.33 68.57,-80.61"/>
</g>
<!-- /lib/main.dart&#45;&gt;/lib/services/git_service.dart -->
<g id="edge21" class="edge">
<title>/lib/main.dart&#45;&gt;/lib/services/git_service.dart</title>
<path fill="none" stroke="#aabbaa" stroke-width="1.3" stroke-opacity="0.533333" d="M844.58,-364.55C916.48,-363.13 1108.28,-357.75 1169,-340 1236,-320.42 1271.32,-325 1307,-265 1324.04,-236.35 1329.67,-214.43 1307,-190 1290.78,-172.52 1221.91,-191.4 1200,-182 1188.36,-177.01 1177.59,-168.37 1168.83,-159.79"/>
<polygon fill="#aabbaa" fill-opacity="0.533333" stroke="#aabbaa" stroke-width="1.3" stroke-opacity="0.533333" points="1171.58,-157.61 1162.15,-152.79 1166.52,-162.44 1171.58,-157.61"/>
</g>
<!-- /lib/widgets/main_layout.dart -->
<g id="node19" class="node">
<title>/lib/widgets/main_layout.dart</title>
<path fill="Lavender" stroke="black" stroke-width="1.3" d="M853.12,-309C853.12,-309 780.88,-309 780.88,-309 774.88,-309 768.88,-303 768.88,-297 768.88,-297 768.88,-285 768.88,-285 768.88,-279 774.88,-273 780.88,-273 780.88,-273 853.12,-273 853.12,-273 859.12,-273 865.12,-279 865.12,-285 865.12,-285 865.12,-297 865.12,-297 865.12,-303 859.12,-309 853.12,-309"/>
<text xml:space="preserve" text-anchor="middle" x="817" y="-285.75" font-family="Arial" font-size="15.00">main_layout</text>
</g>
<!-- /lib/main.dart&#45;&gt;/lib/widgets/main_layout.dart -->
<g id="edge19" class="edge">
<title>/lib/main.dart&#45;&gt;/lib/widgets/main_layout.dart</title>
<path fill="none" stroke="#aabbaa" stroke-width="1.3" stroke-opacity="0.533333" d="M817,-347.7C817,-339.76 817,-330.12 817,-321.11"/>
<polygon fill="#aabbaa" fill-opacity="0.533333" stroke="#aabbaa" stroke-width="1.3" stroke-opacity="0.533333" points="820.5,-321.4 817,-311.4 813.5,-321.4 820.5,-321.4"/>
</g>
<!-- /lib/services/file_system_service.dart -->
<g id="node15" class="node">
<title>/lib/services/file_system_service.dart</title>
<path fill="Lavender" stroke="black" stroke-width="1.3" d="M1073.25,-151C1073.25,-151 950.75,-151 950.75,-151 944.75,-151 938.75,-145 938.75,-139 938.75,-139 938.75,-127 938.75,-127 938.75,-121 944.75,-115 950.75,-115 950.75,-115 1073.25,-115 1073.25,-115 1079.25,-115 1085.25,-121 1085.25,-127 1085.25,-127 1085.25,-139 1085.25,-139 1085.25,-145 1079.25,-151 1073.25,-151"/>
<text xml:space="preserve" text-anchor="middle" x="1012" y="-127.75" font-family="Arial" font-size="15.00">file_system_service</text>
</g>
<!-- /lib/services/file_system_service.dart&#45;&gt;/lib/models/file_system_item.dart -->
<g id="edge23" class="edge">
<title>/lib/services/file_system_service.dart&#45;&gt;/lib/models/file_system_item.dart</title>
<path fill="none" stroke="#aabbaa" stroke-width="1.3" stroke-opacity="0.533333" d="M938.47,-133C934.75,-133 931.04,-133 927.32,-133"/>
<polygon fill="#aabbaa" fill-opacity="0.533333" stroke="#aabbaa" stroke-width="1.3" stroke-opacity="0.533333" points="927.43,-129.5 917.43,-133 927.43,-136.5 927.43,-129.5"/>
</g>
<!-- /lib/services/editor_service.dart -->
<g id="node16" class="node">
<title>/lib/services/editor_service.dart</title>
<path fill="Lavender" stroke="black" stroke-width="1.3" d="M1305.5,-151C1305.5,-151 1220.5,-151 1220.5,-151 1214.5,-151 1208.5,-145 1208.5,-139 1208.5,-139 1208.5,-127 1208.5,-127 1208.5,-121 1214.5,-115 1220.5,-115 1220.5,-115 1305.5,-115 1305.5,-115 1311.5,-115 1317.5,-121 1317.5,-127 1317.5,-127 1317.5,-139 1317.5,-139 1317.5,-145 1311.5,-151 1305.5,-151"/>
<text xml:space="preserve" text-anchor="middle" x="1263" y="-127.75" font-family="Arial" font-size="15.00">editor_service</text>
</g>
<!-- /lib/widgets/resizable_splitter.dart -->
<g id="node17" class="node">
<title>/lib/widgets/resizable_splitter.dart</title>
<path fill="Lavender" stroke="black" stroke-width="1.3" d="M741.88,-234C741.88,-234 638.12,-234 638.12,-234 632.12,-234 626.12,-228 626.12,-222 626.12,-222 626.12,-210 626.12,-210 626.12,-204 632.12,-198 638.12,-198 638.12,-198 741.88,-198 741.88,-198 747.88,-198 753.88,-204 753.88,-210 753.88,-210 753.88,-222 753.88,-222 753.88,-228 747.88,-234 741.88,-234"/>
<text xml:space="preserve" text-anchor="middle" x="690" y="-210.75" font-family="Arial" font-size="15.00">resizable_splitter</text>
</g>
<!-- /lib/widgets/directory_contents.dart -->
<g id="node18" class="node">
<title>/lib/widgets/directory_contents.dart</title>
<path fill="Lavender" stroke="black" stroke-width="1.3" d="M1105.5,-234C1105.5,-234 990.5,-234 990.5,-234 984.5,-234 978.5,-228 978.5,-222 978.5,-222 978.5,-210 978.5,-210 978.5,-204 984.5,-198 990.5,-198 990.5,-198 1105.5,-198 1105.5,-198 1111.5,-198 1117.5,-204 1117.5,-210 1117.5,-210 1117.5,-222 1117.5,-222 1117.5,-228 1111.5,-234 1105.5,-234"/>
<text xml:space="preserve" text-anchor="middle" x="1048" y="-210.75" font-family="Arial" font-size="15.00">directory_contents</text>
</g>
<!-- /lib/widgets/directory_contents.dart&#45;&gt;/lib/models/file_system_item.dart -->
<g id="edge25" class="edge">
<title>/lib/widgets/directory_contents.dart&#45;&gt;/lib/models/file_system_item.dart</title>
<path fill="none" stroke="#aabbaa" stroke-width="1.3" stroke-opacity="0.533333" d="M995.56,-197.45C986.74,-194.78 977.65,-192.18 969,-190 950.58,-185.35 944.68,-188.97 927,-182 911.88,-176.03 896.48,-166.98 883.54,-158.33"/>
<polygon fill="#aabbaa" fill-opacity="0.533333" stroke="#aabbaa" stroke-width="1.3" stroke-opacity="0.533333" points="885.57,-155.48 875.35,-152.67 881.59,-161.24 885.57,-155.48"/>
</g>
<!-- /lib/widgets/directory_contents.dart&#45;&gt;/lib/services/file_system_service.dart -->
<g id="edge24" class="edge">
<title>/lib/widgets/directory_contents.dart&#45;&gt;/lib/services/file_system_service.dart</title>
<path fill="none" stroke="#aabbaa" stroke-width="1.3" stroke-opacity="0.533333" d="M1040.19,-197.42C1035.61,-187.13 1029.73,-173.89 1024.52,-162.17"/>
<polygon fill="#aabbaa" fill-opacity="0.533333" stroke="#aabbaa" stroke-width="1.3" stroke-opacity="0.533333" points="1027.86,-161.06 1020.6,-153.34 1021.46,-163.9 1027.86,-161.06"/>
</g>
<!-- /lib/widgets/main_layout.dart&#45;&gt;/lib/providers/app_providers.dart -->
<g id="edge26" class="edge">
<title>/lib/widgets/main_layout.dart&#45;&gt;/lib/providers/app_providers.dart</title>
<path fill="none" stroke="#aabbaa" stroke-width="1.3" stroke-opacity="0.533333" d="M865.45,-285.43C904.89,-281.79 962.01,-276.72 1012,-273 1040.86,-270.85 1114.17,-272.94 1142,-265 1160.83,-259.62 1180.15,-249.82 1195.96,-240.46"/>
<polygon fill="#aabbaa" fill-opacity="0.533333" stroke="#aabbaa" stroke-width="1.3" stroke-opacity="0.533333" points="1197.43,-243.67 1204.12,-235.46 1193.77,-237.7 1197.43,-243.67"/>
</g>
<!-- /lib/widgets/main_layout.dart&#45;&gt;/lib/utils/file_type_utils.dart -->
<g id="edge28" class="edge">
<title>/lib/widgets/main_layout.dart&#45;&gt;/lib/utils/file_type_utils.dart</title>
<path fill="none" stroke="#aabbaa" stroke-width="1.3" stroke-opacity="0.533333" d="M768.3,-284.68C733.44,-281.01 685.37,-276.23 643,-273 626.8,-271.77 508.39,-276.59 497,-265 472.08,-239.65 479.93,-132.76 485.49,-80.29"/>
<polygon fill="#aabbaa" fill-opacity="0.533333" stroke="#aabbaa" stroke-width="1.3" stroke-opacity="0.533333" points="488.96,-80.78 486.59,-70.46 482,-80.01 488.96,-80.78"/>
</g>
<!-- /lib/widgets/main_layout.dart&#45;&gt;/lib/models/file_system_item.dart -->
<g id="edge27" class="edge">
<title>/lib/widgets/main_layout.dart&#45;&gt;/lib/models/file_system_item.dart</title>
<path fill="none" stroke="#aabbaa" stroke-width="1.3" stroke-opacity="0.533333" d="M865.46,-285.54C904.91,-281.96 962.03,-276.92 1012,-273 1024.77,-272 1118.26,-274.37 1127,-265 1149.74,-240.63 1150.09,-214.04 1127,-190 1111.59,-173.96 948.24,-188.61 927,-182 910.85,-176.98 894.75,-167.6 881.56,-158.46"/>
<polygon fill="#aabbaa" fill-opacity="0.533333" stroke="#aabbaa" stroke-width="1.3" stroke-opacity="0.533333" points="883.83,-155.78 873.68,-152.75 879.72,-161.45 883.83,-155.78"/>
</g>
<!-- /lib/widgets/main_layout.dart&#45;&gt;/lib/widgets/resizable_splitter.dart -->
<g id="edge29" class="edge">
<title>/lib/widgets/main_layout.dart&#45;&gt;/lib/widgets/resizable_splitter.dart</title>
<path fill="none" stroke="#aabbaa" stroke-width="1.3" stroke-opacity="0.533333" d="M777.14,-272.37C772.32,-269.99 767.51,-267.51 763,-265 750.06,-257.8 736.36,-249.11 724.38,-241.11"/>
<polygon fill="#aabbaa" fill-opacity="0.533333" stroke="#aabbaa" stroke-width="1.3" stroke-opacity="0.533333" points="726.64,-238.41 716.4,-235.71 722.72,-244.21 726.64,-238.41"/>
</g>
<!-- /lib/widgets/left_panel.dart -->
<g id="node22" class="node">
<title>/lib/widgets/left_panel.dart</title>
<path fill="Lavender" stroke="black" stroke-width="1.3" d="M948.25,-234C948.25,-234 891.75,-234 891.75,-234 885.75,-234 879.75,-228 879.75,-222 879.75,-222 879.75,-210 879.75,-210 879.75,-204 885.75,-198 891.75,-198 891.75,-198 948.25,-198 948.25,-198 954.25,-198 960.25,-204 960.25,-210 960.25,-210 960.25,-222 960.25,-222 960.25,-228 954.25,-234 948.25,-234"/>
<text xml:space="preserve" text-anchor="middle" x="920" y="-210.75" font-family="Arial" font-size="15.00">left_panel</text>
</g>
<!-- /lib/widgets/main_layout.dart&#45;&gt;/lib/widgets/left_panel.dart -->
<g id="edge30" class="edge">
<title>/lib/widgets/main_layout.dart&#45;&gt;/lib/widgets/left_panel.dart</title>
<path fill="none" stroke="#aabbaa" stroke-width="1.3" stroke-opacity="0.533333" d="M858.78,-272.43C863.03,-270.13 867.17,-267.64 871,-265 880.21,-258.64 889.26,-250.48 897.03,-242.7"/>
<polygon fill="#aabbaa" fill-opacity="0.533333" stroke="#aabbaa" stroke-width="1.3" stroke-opacity="0.533333" points="899.14,-245.56 903.54,-235.92 894.09,-240.71 899.14,-245.56"/>
</g>
<!-- /lib/widgets/center_panel.dart -->
<g id="node23" class="node">
<title>/lib/widgets/center_panel.dart</title>
<path fill="Lavender" stroke="black" stroke-width="1.3" d="M596.12,-234C596.12,-234 517.88,-234 517.88,-234 511.88,-234 505.88,-228 505.88,-222 505.88,-222 505.88,-210 505.88,-210 505.88,-204 511.88,-198 517.88,-198 517.88,-198 596.12,-198 596.12,-198 602.12,-198 608.12,-204 608.12,-210 608.12,-210 608.12,-222 608.12,-222 608.12,-228 602.12,-234 596.12,-234"/>
<text xml:space="preserve" text-anchor="middle" x="557" y="-210.75" font-family="Arial" font-size="15.00">center_panel</text>
</g>
<!-- /lib/widgets/main_layout.dart&#45;&gt;/lib/widgets/center_panel.dart -->
<g id="edge31" class="edge">
<title>/lib/widgets/main_layout.dart&#45;&gt;/lib/widgets/center_panel.dart</title>
<path fill="none" stroke="#aabbaa" stroke-width="1.3" stroke-opacity="0.533333" d="M768.32,-286.96C718.08,-283.28 643.43,-276.16 617,-265 604.52,-259.73 592.5,-251.09 582.54,-242.58"/>
<polygon fill="#aabbaa" fill-opacity="0.533333" stroke="#aabbaa" stroke-width="1.3" stroke-opacity="0.533333" points="584.9,-240 575.13,-235.89 580.21,-245.19 584.9,-240"/>
</g>
<!-- /lib/widgets/right_panel.dart -->
<g id="node24" class="node">
<title>/lib/widgets/right_panel.dart</title>
<path fill="Lavender" stroke="black" stroke-width="1.3" d="M849.75,-234C849.75,-234 784.25,-234 784.25,-234 778.25,-234 772.25,-228 772.25,-222 772.25,-222 772.25,-210 772.25,-210 772.25,-204 778.25,-198 784.25,-198 784.25,-198 849.75,-198 849.75,-198 855.75,-198 861.75,-204 861.75,-210 861.75,-210 861.75,-222 861.75,-222 861.75,-228 855.75,-234 849.75,-234"/>
<text xml:space="preserve" text-anchor="middle" x="817" y="-210.75" font-family="Arial" font-size="15.00">right_panel</text>
</g>
<!-- /lib/widgets/main_layout.dart&#45;&gt;/lib/widgets/right_panel.dart -->
<g id="edge32" class="edge">
<title>/lib/widgets/main_layout.dart&#45;&gt;/lib/widgets/right_panel.dart</title>
<path fill="none" stroke="#aabbaa" stroke-width="1.3" stroke-opacity="0.533333" d="M817,-272.7C817,-264.76 817,-255.12 817,-246.11"/>
<polygon fill="#aabbaa" fill-opacity="0.533333" stroke="#aabbaa" stroke-width="1.3" stroke-opacity="0.533333" points="820.5,-246.4 817,-236.4 813.5,-246.4 820.5,-246.4"/>
</g>
<!-- /lib/widgets/file_explorer.dart -->
<g id="node20" class="node">
<title>/lib/widgets/file_explorer.dart</title>
<path fill="Lavender" stroke="black" stroke-width="1.3" d="M1105.5,-309C1105.5,-309 1032.5,-309 1032.5,-309 1026.5,-309 1020.5,-303 1020.5,-297 1020.5,-297 1020.5,-285 1020.5,-285 1020.5,-279 1026.5,-273 1032.5,-273 1032.5,-273 1105.5,-273 1105.5,-273 1111.5,-273 1117.5,-279 1117.5,-285 1117.5,-285 1117.5,-297 1117.5,-297 1117.5,-303 1111.5,-309 1105.5,-309"/>
<text xml:space="preserve" text-anchor="middle" x="1069" y="-285.75" font-family="Arial" font-size="15.00">file_explorer</text>
</g>
<!-- /lib/widgets/file_explorer.dart&#45;&gt;/lib/models/file_system_item.dart -->
<g id="edge34" class="edge">
<title>/lib/widgets/file_explorer.dart&#45;&gt;/lib/models/file_system_item.dart</title>
<path fill="none" stroke="#aabbaa" stroke-width="1.3" stroke-opacity="0.533333" d="M1117.92,-274.16C1130.15,-269.97 1140.1,-266.27 1141,-265 1160.32,-237.84 1164.13,-214.01 1141,-190 1132.75,-181.43 938.36,-185.52 927,-182 910.84,-177 894.75,-167.63 881.55,-158.48"/>
<polygon fill="#aabbaa" fill-opacity="0.533333" stroke="#aabbaa" stroke-width="1.3" stroke-opacity="0.533333" points="883.82,-155.81 873.67,-152.77 879.71,-161.47 883.82,-155.81"/>
</g>
<!-- /lib/widgets/file_explorer.dart&#45;&gt;/lib/services/file_system_service.dart -->
<g id="edge33" class="edge">
<title>/lib/widgets/file_explorer.dart&#45;&gt;/lib/services/file_system_service.dart</title>
<path fill="none" stroke="#aabbaa" stroke-width="1.3" stroke-opacity="0.533333" d="M1117.97,-273.79C1119.32,-273.5 1120.67,-273.24 1122,-273 1131.63,-271.27 1291.24,-272.08 1298,-265 1309.51,-252.95 1309.55,-202.01 1298,-190 1290.14,-181.82 1104.89,-185.18 1094,-182 1076.67,-176.93 1059.17,-167.43 1044.82,-158.2"/>
<polygon fill="#aabbaa" fill-opacity="0.533333" stroke="#aabbaa" stroke-width="1.3" stroke-opacity="0.533333" points="1046.86,-155.36 1036.6,-152.7 1042.96,-161.17 1046.86,-155.36"/>
</g>
<!-- /lib/widgets/file_explorer.dart&#45;&gt;/lib/widgets/directory_contents.dart -->
<g id="edge35" class="edge">
<title>/lib/widgets/file_explorer.dart&#45;&gt;/lib/widgets/directory_contents.dart</title>
<path fill="none" stroke="#aabbaa" stroke-width="1.3" stroke-opacity="0.533333" d="M1064.02,-272.7C1061.71,-264.67 1058.9,-254.9 1056.29,-245.8"/>
<polygon fill="#aabbaa" fill-opacity="0.533333" stroke="#aabbaa" stroke-width="1.3" stroke-opacity="0.533333" points="1059.69,-244.96 1053.56,-236.32 1052.96,-246.9 1059.69,-244.96"/>
</g>
<!-- /lib/widgets/left_panel.dart&#45;&gt;/lib/models/file_system_item.dart -->
<g id="edge37" class="edge">
<title>/lib/widgets/left_panel.dart&#45;&gt;/lib/models/file_system_item.dart</title>
<path fill="none" stroke="#aabbaa" stroke-width="1.3" stroke-opacity="0.533333" d="M905.03,-197.42C895.81,-186.6 883.81,-172.51 873.46,-160.37"/>
<polygon fill="#aabbaa" fill-opacity="0.533333" stroke="#aabbaa" stroke-width="1.3" stroke-opacity="0.533333" points="876.37,-158.38 867.22,-153.04 871.04,-162.92 876.37,-158.38"/>
</g>
<!-- /lib/widgets/left_panel.dart&#45;&gt;/lib/screens/explorer_screen.dart -->
<g id="edge36" class="edge">
<title>/lib/widgets/left_panel.dart&#45;&gt;/lib/screens/explorer_screen.dart</title>
<path fill="none" stroke="#aabbaa" stroke-width="1.3" stroke-opacity="0.533333" d="M908.08,-234.38C897.83,-247.98 881.61,-264.84 862,-269 847.38,-272.1 338.62,-272.1 324,-269 304.62,-264.89 285.97,-253.15 271.57,-241.77"/>
<polygon fill="#aabbaa" fill-opacity="0.533333" stroke="#aabbaa" stroke-width="1.3" stroke-opacity="0.533333" points="274.19,-239.39 264.26,-235.68 269.7,-244.77 274.19,-239.39"/>
</g>
<!-- /lib/widgets/center_panel.dart&#45;&gt;/lib/models/file_system_item.dart -->
<g id="edge40" class="edge">
<title>/lib/widgets/center_panel.dart&#45;&gt;/lib/models/file_system_item.dart</title>
<path fill="none" stroke="#aabbaa" stroke-width="1.3" stroke-opacity="0.533333" d="M593.47,-197.47C601.09,-194.48 609.18,-191.77 617,-190 651.94,-182.11 743.95,-193.12 778,-182 793.47,-176.95 808.8,-167.7 821.39,-158.65"/>
<polygon fill="#aabbaa" fill-opacity="0.533333" stroke="#aabbaa" stroke-width="1.3" stroke-opacity="0.533333" points="823.39,-161.53 829.27,-152.72 819.18,-155.94 823.39,-161.53"/>
</g>
<!-- /lib/widgets/center_panel.dart&#45;&gt;/lib/screens/editor_screen.dart -->
<g id="edge39" class="edge">
<title>/lib/widgets/center_panel.dart&#45;&gt;/lib/screens/editor_screen.dart</title>
<path fill="none" stroke="#aabbaa" stroke-width="1.3" stroke-opacity="0.533333" d="M522.28,-197.42C498.8,-185.54 467.56,-169.72 442.14,-156.85"/>
<polygon fill="#aabbaa" fill-opacity="0.533333" stroke="#aabbaa" stroke-width="1.3" stroke-opacity="0.533333" points="443.91,-153.82 433.41,-152.43 440.75,-160.07 443.91,-153.82"/>
</g>
<!-- /lib/widgets/center_panel.dart&#45;&gt;/lib/screens/welcome_screen.dart -->
<g id="edge38" class="edge">
<title>/lib/widgets/center_panel.dart&#45;&gt;/lib/screens/welcome_screen.dart</title>
<path fill="none" stroke="#aabbaa" stroke-width="1.3" stroke-opacity="0.533333" d="M505.62,-199.53C491.59,-195.84 476.31,-192.31 462,-190 434.08,-185.49 361.82,-190.96 335,-182 319.56,-176.84 304.24,-167.58 291.65,-158.55"/>
<polygon fill="#aabbaa" fill-opacity="0.533333" stroke="#aabbaa" stroke-width="1.3" stroke-opacity="0.533333" points="293.86,-155.83 283.76,-152.63 289.65,-161.43 293.86,-155.83"/>
</g>
<!-- /lib/widgets/right_panel.dart&#45;&gt;/lib/models/file_system_item.dart -->
<g id="edge42" class="edge">
<title>/lib/widgets/right_panel.dart&#45;&gt;/lib/models/file_system_item.dart</title>
<path fill="none" stroke="#aabbaa" stroke-width="1.3" stroke-opacity="0.533333" d="M824.38,-197.42C828.65,-187.23 834.14,-174.16 839.03,-162.53"/>
<polygon fill="#aabbaa" fill-opacity="0.533333" stroke="#aabbaa" stroke-width="1.3" stroke-opacity="0.533333" points="842.23,-163.93 842.88,-153.36 835.78,-161.22 842.23,-163.93"/>
</g>
<!-- /lib/widgets/right_panel.dart&#45;&gt;/lib/screens/outline_panel.dart -->
<g id="edge41" class="edge">
<title>/lib/widgets/right_panel.dart&#45;&gt;/lib/screens/outline_panel.dart</title>
<path fill="none" stroke="#aabbaa" stroke-width="1.3" stroke-opacity="0.533333" d="M803.41,-234.55C792.03,-248.04 774.41,-264.67 754,-269 740.36,-271.89 516.67,-271.74 503,-269 474.46,-263.28 444.32,-251 420.56,-239.7"/>
<polygon fill="#aabbaa" fill-opacity="0.533333" stroke="#aabbaa" stroke-width="1.3" stroke-opacity="0.533333" points="422.42,-236.71 411.9,-235.47 419.35,-243 422.42,-236.71"/>
</g>
<!-- /tool/sort_source.dart -->
<g id="node25" class="node">
<title>/tool/sort_source.dart</title>
<path fill="Lavender" stroke="black" stroke-width="1.3" d="M1141.38,-467C1141.38,-467 1070.62,-467 1070.62,-467 1064.62,-467 1058.62,-461 1058.62,-455 1058.62,-455 1058.62,-443 1058.62,-443 1058.62,-437 1064.62,-431 1070.62,-431 1070.62,-431 1141.38,-431 1141.38,-431 1147.38,-431 1153.38,-437 1153.38,-443 1153.38,-443 1153.38,-455 1153.38,-455 1153.38,-461 1147.38,-467 1141.38,-467"/>
<text xml:space="preserve" text-anchor="middle" x="1106" y="-443.75" font-family="Arial" font-size="15.00">sort_source</text>
</g>
</g>
</svg>
