<?xml version="1.0" encoding="UTF-8" standalone="no"?>
<!DOCTYPE svg PUBLIC "-//W3C//DTD SVG 1.1//EN"
 "http://www.w3.org/Graphics/SVG/1.1/DTD/svg11.dtd">
<!-- Generated by graphviz version 13.1.2 (20250808.2320)
 -->
<!-- Pages: 1 -->
<svg width="1608pt" height="747pt"
 viewBox="0.00 0.00 1608.00 747.00" xmlns="http://www.w3.org/2000/svg" xmlns:xlink="http://www.w3.org/1999/xlink">
<g id="graph0" class="graph" transform="scale(1 1) rotate(0) translate(4 743)">
<polygon fill="white" stroke="none" points="-4,4 -4,-743 1604.38,-743 1604.38,4 -4,4"/>
<g id="clust1" class="cluster">
<title>cluster~</title>
<path fill="none" stroke="lightgray" stroke-width="2.6" d="M47.38,-8C47.38,-8 1580.38,-8 1580.38,-8 1586.38,-8 1592.38,-14 1592.38,-20 1592.38,-20 1592.38,-719 1592.38,-719 1592.38,-725 1586.38,-731 1580.38,-731 1580.38,-731 47.38,-731 47.38,-731 41.38,-731 35.38,-725 35.38,-719 35.38,-719 35.38,-20 35.38,-20 35.38,-14 41.38,-8 47.38,-8"/>
<text xml:space="preserve" text-anchor="middle" x="813.88" y="-714.65" font-family="Arial Black" font-size="13.00">fide</text>
</g>
<g id="clust2" class="cluster">
<title>cluster~/test</title>
<path fill="none" stroke="lightgray" stroke-width="2.6" d="M1260.38,-625C1260.38,-625 1344.38,-625 1344.38,-625 1350.38,-625 1356.38,-631 1356.38,-637 1356.38,-637 1356.38,-688 1356.38,-688 1356.38,-694 1350.38,-700 1344.38,-700 1344.38,-700 1260.38,-700 1260.38,-700 1254.38,-700 1248.38,-694 1248.38,-688 1248.38,-688 1248.38,-637 1248.38,-637 1248.38,-631 1254.38,-625 1260.38,-625"/>
<text xml:space="preserve" text-anchor="middle" x="1302.38" y="-683.65" font-family="Arial Black" font-size="13.00">test</text>
</g>
<g id="clust3" class="cluster">
<title>cluster~/lib</title>
<path fill="none" stroke="lightgray" stroke-width="2.6" d="M55.38,-16C55.38,-16 1572.38,-16 1572.38,-16 1578.38,-16 1584.38,-22 1584.38,-28 1584.38,-28 1584.38,-605 1584.38,-605 1584.38,-611 1578.38,-617 1572.38,-617 1572.38,-617 55.38,-617 55.38,-617 49.38,-617 43.38,-611 43.38,-605 43.38,-605 43.38,-28 43.38,-28 43.38,-22 49.38,-16 55.38,-16"/>
<text xml:space="preserve" text-anchor="middle" x="813.88" y="-600.65" font-family="Arial Black" font-size="13.00">lib</text>
</g>
<g id="clust4" class="cluster">
<title>cluster~/lib/providers</title>
<path fill="none" stroke="lightgray" stroke-width="2.6" d="M1386.38,-187C1386.38,-187 1488.38,-187 1488.38,-187 1494.38,-187 1500.38,-193 1500.38,-199 1500.38,-199 1500.38,-250 1500.38,-250 1500.38,-256 1494.38,-262 1488.38,-262 1488.38,-262 1386.38,-262 1386.38,-262 1380.38,-262 1374.38,-256 1374.38,-250 1374.38,-250 1374.38,-199 1374.38,-199 1374.38,-193 1380.38,-187 1386.38,-187"/>
<text xml:space="preserve" text-anchor="middle" x="1437.38" y="-245.65" font-family="Arial Black" font-size="13.00">providers</text>
</g>
<g id="clust5" class="cluster">
<title>cluster~/lib/panels</title>
<path fill="none" stroke="lightgray" stroke-width="2.6" d="M173.38,-179C173.38,-179 1080.38,-179 1080.38,-179 1086.38,-179 1092.38,-185 1092.38,-191 1092.38,-191 1092.38,-530 1092.38,-530 1092.38,-536 1086.38,-542 1080.38,-542 1080.38,-542 173.38,-542 173.38,-542 167.38,-542 161.38,-536 161.38,-530 161.38,-530 161.38,-191 161.38,-191 161.38,-185 167.38,-179 173.38,-179"/>
<text xml:space="preserve" text-anchor="middle" x="626.88" y="-525.65" font-family="Arial Black" font-size="13.00">panels</text>
</g>
<g id="clust6" class="cluster">
<title>cluster~/lib/panels/right</title>
<path fill="none" stroke="lightgray" stroke-width="2.6" d="M181.38,-353C181.38,-353 367.38,-353 367.38,-353 373.38,-353 379.38,-359 379.38,-365 379.38,-365 379.38,-499 379.38,-499 379.38,-505 373.38,-511 367.38,-511 367.38,-511 181.38,-511 181.38,-511 175.38,-511 169.38,-505 169.38,-499 169.38,-499 169.38,-365 169.38,-365 169.38,-359 175.38,-353 181.38,-353"/>
<text xml:space="preserve" text-anchor="middle" x="274.38" y="-494.65" font-family="Arial Black" font-size="13.00">right</text>
</g>
<g id="clust7" class="cluster">
<title>cluster~/lib/panels/center</title>
<path fill="none" stroke="lightgray" stroke-width="2.6" d="M842.38,-270C842.38,-270 1072.38,-270 1072.38,-270 1078.38,-270 1084.38,-276 1084.38,-282 1084.38,-282 1084.38,-416 1084.38,-416 1084.38,-422 1078.38,-428 1072.38,-428 1072.38,-428 842.38,-428 842.38,-428 836.38,-428 830.38,-422 830.38,-416 830.38,-416 830.38,-282 830.38,-282 830.38,-276 836.38,-270 842.38,-270"/>
<text xml:space="preserve" text-anchor="middle" x="957.38" y="-411.65" font-family="Arial Black" font-size="13.00">center</text>
</g>
<g id="clust8" class="cluster">
<title>cluster~/lib/panels/left</title>
<path fill="none" stroke="lightgray" stroke-width="2.6" d="M399.38,-187C399.38,-187 810.38,-187 810.38,-187 816.38,-187 822.38,-193 822.38,-199 822.38,-199 822.38,-499 822.38,-499 822.38,-505 816.38,-511 810.38,-511 810.38,-511 399.38,-511 399.38,-511 393.38,-511 387.38,-505 387.38,-499 387.38,-499 387.38,-199 387.38,-199 387.38,-193 393.38,-187 399.38,-187"/>
<text xml:space="preserve" text-anchor="middle" x="604.88" y="-494.65" font-family="Arial Black" font-size="13.00">left</text>
</g>
<g id="clust9" class="cluster">
<title>cluster~/lib/utils</title>
<path fill="none" stroke="lightgray" stroke-width="2.6" d="M1112.38,-187C1112.38,-187 1354.38,-187 1354.38,-187 1360.38,-187 1366.38,-193 1366.38,-199 1366.38,-199 1366.38,-250 1366.38,-250 1366.38,-256 1360.38,-262 1354.38,-262 1354.38,-262 1112.38,-262 1112.38,-262 1106.38,-262 1100.38,-256 1100.38,-250 1100.38,-250 1100.38,-199 1100.38,-199 1100.38,-193 1106.38,-187 1112.38,-187"/>
<text xml:space="preserve" text-anchor="middle" x="1233.38" y="-245.65" font-family="Arial Black" font-size="13.00">utils</text>
</g>
<g id="clust10" class="cluster">
<title>cluster~/lib/models</title>
<path fill="none" stroke="lightgray" stroke-width="2.6" d="M713.38,-24C713.38,-24 949.38,-24 949.38,-24 955.38,-24 961.38,-30 961.38,-36 961.38,-36 961.38,-159 961.38,-159 961.38,-165 955.38,-171 949.38,-171 949.38,-171 713.38,-171 713.38,-171 707.38,-171 701.38,-165 701.38,-159 701.38,-159 701.38,-36 701.38,-36 701.38,-30 707.38,-24 713.38,-24"/>
<text xml:space="preserve" text-anchor="middle" x="831.38" y="-154.65" font-family="Arial Black" font-size="13.00">models</text>
</g>
<g id="clust11" class="cluster">
<title>cluster~/lib/screens</title>
<path fill="none" stroke="lightgray" stroke-width="2.6" d="M1242.38,-436C1242.38,-436 1476.38,-436 1476.38,-436 1482.38,-436 1488.38,-442 1488.38,-448 1488.38,-448 1488.38,-499 1488.38,-499 1488.38,-505 1482.38,-511 1476.38,-511 1476.38,-511 1242.38,-511 1242.38,-511 1236.38,-511 1230.38,-505 1230.38,-499 1230.38,-499 1230.38,-448 1230.38,-448 1230.38,-442 1236.38,-436 1242.38,-436"/>
<text xml:space="preserve" text-anchor="middle" x="1359.38" y="-494.65" font-family="Arial Black" font-size="13.00">screens</text>
</g>
<g id="clust12" class="cluster">
<title>cluster~/lib/theme</title>
<path fill="none" stroke="lightgray" stroke-width="2.6" d="M1112.38,-436C1112.38,-436 1196.38,-436 1196.38,-436 1202.38,-436 1208.38,-442 1208.38,-448 1208.38,-448 1208.38,-499 1208.38,-499 1208.38,-505 1202.38,-511 1196.38,-511 1196.38,-511 1112.38,-511 1112.38,-511 1106.38,-511 1100.38,-505 1100.38,-499 1100.38,-499 1100.38,-448 1100.38,-448 1100.38,-442 1106.38,-436 1112.38,-436"/>
<text xml:space="preserve" text-anchor="middle" x="1154.38" y="-494.65" font-family="Arial Black" font-size="13.00">theme</text>
</g>
<g id="clust13" class="cluster">
<title>cluster~/lib/services</title>
<path fill="none" stroke="lightgray" stroke-width="2.6" d="M115.38,-96C115.38,-96 587.38,-96 587.38,-96 593.38,-96 599.38,-102 599.38,-108 599.38,-108 599.38,-159 599.38,-159 599.38,-165 593.38,-171 587.38,-171 587.38,-171 115.38,-171 115.38,-171 109.38,-171 103.38,-165 103.38,-159 103.38,-159 103.38,-108 103.38,-108 103.38,-102 109.38,-96 115.38,-96"/>
<text xml:space="preserve" text-anchor="middle" x="351.38" y="-154.65" font-family="Arial Black" font-size="13.00">services</text>
</g>
<g id="clust14" class="cluster">
<title>cluster~/lib/widgets</title>
<path fill="none" stroke="lightgray" stroke-width="2.6" d="M1138.38,-270C1138.38,-270 1492.38,-270 1492.38,-270 1498.38,-270 1504.38,-276 1504.38,-282 1504.38,-282 1504.38,-333 1504.38,-333 1504.38,-339 1498.38,-345 1492.38,-345 1492.38,-345 1138.38,-345 1138.38,-345 1132.38,-345 1126.38,-339 1126.38,-333 1126.38,-333 1126.38,-282 1126.38,-282 1126.38,-276 1132.38,-270 1138.38,-270"/>
<text xml:space="preserve" text-anchor="middle" x="1315.38" y="-328.65" font-family="Arial Black" font-size="13.00">widgets</text>
</g>
<g id="clust15" class="cluster">
<title>cluster~/tool</title>
<path fill="none" stroke="lightgray" stroke-width="2.6" d="M1431.38,-625C1431.38,-625 1517.38,-625 1517.38,-625 1523.38,-625 1529.38,-631 1529.38,-637 1529.38,-637 1529.38,-688 1529.38,-688 1529.38,-694 1523.38,-700 1517.38,-700 1517.38,-700 1431.38,-700 1431.38,-700 1425.38,-700 1419.38,-694 1419.38,-688 1419.38,-688 1419.38,-637 1419.38,-637 1419.38,-631 1425.38,-625 1431.38,-625"/>
<text xml:space="preserve" text-anchor="middle" x="1474.38" y="-683.65" font-family="Arial Black" font-size="13.00">tool</text>
</g>
<!-- /test/widget_test.dart -->
<g id="node1" class="node">
<title>/test/widget_test.dart</title>
<path fill="Lavender" stroke="black" stroke-width="1.3" d="M1336.26,-669C1336.26,-669 1268.51,-669 1268.51,-669 1262.51,-669 1256.51,-663 1256.51,-657 1256.51,-657 1256.51,-645 1256.51,-645 1256.51,-639 1262.51,-633 1268.51,-633 1268.51,-633 1336.26,-633 1336.26,-633 1342.26,-633 1348.26,-639 1348.26,-645 1348.26,-645 1348.26,-657 1348.26,-657 1348.26,-663 1342.26,-669 1336.26,-669"/>
<text xml:space="preserve" text-anchor="middle" x="1302.38" y="-645.75" font-family="Arial" font-size="15.00">widget_test</text>
</g>
<!-- /lib/main.dart -->
<g id="node24" class="node">
<title>/lib/main.dart</title>
<path fill="Lavender" stroke="black" stroke-width="1.3" d="M1317.38,-586C1317.38,-586 1287.38,-586 1287.38,-586 1281.38,-586 1275.38,-580 1275.38,-574 1275.38,-574 1275.38,-562 1275.38,-562 1275.38,-556 1281.38,-550 1287.38,-550 1287.38,-550 1317.38,-550 1317.38,-550 1323.38,-550 1329.38,-556 1329.38,-562 1329.38,-562 1329.38,-574 1329.38,-574 1329.38,-580 1323.38,-586 1317.38,-586"/>
<text xml:space="preserve" text-anchor="middle" x="1302.38" y="-562.75" font-family="Arial" font-size="15.00">main</text>
</g>
<!-- /test/widget_test.dart&#45;&gt;/lib/main.dart -->
<g id="edge1" class="edge">
<title>/test/widget_test.dart&#45;&gt;/lib/main.dart</title>
<path fill="none" stroke="#aabbaa" stroke-width="1.3" stroke-opacity="0.533333" d="M1302.38,-632.42C1302.38,-622.45 1302.38,-609.7 1302.38,-598.26"/>
<polygon fill="#aabbaa" fill-opacity="0.533333" stroke="#aabbaa" stroke-width="1.3" stroke-opacity="0.533333" points="1305.88,-598.51 1302.38,-588.51 1298.88,-598.51 1305.88,-598.51"/>
</g>
<!-- /lib/providers/app_providers.dart -->
<g id="node2" class="node">
<title>/lib/providers/app_providers.dart</title>
<path fill="Lavender" stroke="black" stroke-width="1.3" d="M1480.63,-231C1480.63,-231 1394.13,-231 1394.13,-231 1388.13,-231 1382.13,-225 1382.13,-219 1382.13,-219 1382.13,-207 1382.13,-207 1382.13,-201 1388.13,-195 1394.13,-195 1394.13,-195 1480.63,-195 1480.63,-195 1486.63,-195 1492.63,-201 1492.63,-207 1492.63,-207 1492.63,-219 1492.63,-219 1492.63,-225 1486.63,-231 1480.63,-231"/>
<text xml:space="preserve" text-anchor="middle" x="1437.38" y="-207.75" font-family="Arial" font-size="15.00">app_providers</text>
</g>
<!-- /lib/utils/file_type_utils.dart -->
<g id="node18" class="node">
<title>/lib/utils/file_type_utils.dart</title>
<path fill="Lavender" stroke="black" stroke-width="1.3" d="M1346.38,-231C1346.38,-231 1264.38,-231 1264.38,-231 1258.38,-231 1252.38,-225 1252.38,-219 1252.38,-219 1252.38,-207 1252.38,-207 1252.38,-201 1258.38,-195 1264.38,-195 1264.38,-195 1346.38,-195 1346.38,-195 1352.38,-195 1358.38,-201 1358.38,-207 1358.38,-207 1358.38,-219 1358.38,-219 1358.38,-225 1352.38,-231 1346.38,-231"/>
<text xml:space="preserve" text-anchor="middle" x="1305.38" y="-207.75" font-family="Arial" font-size="15.00">file_type_utils</text>
</g>
<!-- /lib/providers/app_providers.dart&#45;&gt;/lib/utils/file_type_utils.dart -->
<g id="edge5" class="edge">
<title>/lib/providers/app_providers.dart&#45;&gt;/lib/utils/file_type_utils.dart</title>
<path fill="none" stroke="#aabbaa" stroke-width="1.3" stroke-opacity="0.533333" d="M1381.66,-213C1378,-213 1374.35,-213 1370.69,-213"/>
<polygon fill="#aabbaa" fill-opacity="0.533333" stroke="#aabbaa" stroke-width="1.3" stroke-opacity="0.533333" points="1370.97,-209.5 1360.97,-213 1370.97,-216.5 1370.97,-209.5"/>
</g>
<!-- /lib/models/project_node.dart -->
<g id="node19" class="node">
<title>/lib/models/project_node.dart</title>
<path fill="Lavender" stroke="black" stroke-width="1.3" d="M799.51,-140C799.51,-140 721.26,-140 721.26,-140 715.26,-140 709.26,-134 709.26,-128 709.26,-128 709.26,-116 709.26,-116 709.26,-110 715.26,-104 721.26,-104 721.26,-104 799.51,-104 799.51,-104 805.51,-104 811.51,-110 811.51,-116 811.51,-116 811.51,-128 811.51,-128 811.51,-134 805.51,-140 799.51,-140"/>
<text xml:space="preserve" text-anchor="middle" x="760.38" y="-116.75" font-family="Arial" font-size="15.00">project_node</text>
</g>
<!-- /lib/providers/app_providers.dart&#45;&gt;/lib/models/project_node.dart -->
<g id="edge3" class="edge">
<title>/lib/providers/app_providers.dart&#45;&gt;/lib/models/project_node.dart</title>
<path fill="none" stroke="#aabbaa" stroke-width="1.3" stroke-opacity="0.533333" d="M1408.77,-194.42C1397.27,-188.31 1383.62,-182.18 1370.38,-179 1340.67,-171.85 849.14,-181.32 820.38,-171 807.12,-166.24 794.58,-157.23 784.43,-148.29"/>
<polygon fill="#aabbaa" fill-opacity="0.533333" stroke="#aabbaa" stroke-width="1.3" stroke-opacity="0.533333" points="786.95,-145.86 777.26,-141.57 782.17,-150.97 786.95,-145.86"/>
</g>
<!-- /lib/models/document_state.dart -->
<g id="node20" class="node">
<title>/lib/models/document_state.dart</title>
<path fill="Lavender" stroke="black" stroke-width="1.3" d="M941.01,-140C941.01,-140 841.76,-140 841.76,-140 835.76,-140 829.76,-134 829.76,-128 829.76,-128 829.76,-116 829.76,-116 829.76,-110 835.76,-104 841.76,-104 841.76,-104 941.01,-104 941.01,-104 947.01,-104 953.01,-110 953.01,-116 953.01,-116 953.01,-128 953.01,-128 953.01,-134 947.01,-140 941.01,-140"/>
<text xml:space="preserve" text-anchor="middle" x="891.38" y="-116.75" font-family="Arial" font-size="15.00">document_state</text>
</g>
<!-- /lib/providers/app_providers.dart&#45;&gt;/lib/models/document_state.dart -->
<g id="edge4" class="edge">
<title>/lib/providers/app_providers.dart&#45;&gt;/lib/models/document_state.dart</title>
<path fill="none" stroke="#aabbaa" stroke-width="1.3" stroke-opacity="0.533333" d="M1408.38,-194.47C1396.95,-188.44 1383.44,-182.37 1370.38,-179 1333.76,-169.56 1238.01,-174.8 1200.38,-171 1119.57,-162.85 1027.68,-147.83 965.26,-136.76"/>
<polygon fill="#aabbaa" fill-opacity="0.533333" stroke="#aabbaa" stroke-width="1.3" stroke-opacity="0.533333" points="965.96,-133.33 955.5,-135.01 964.73,-140.22 965.96,-133.33"/>
</g>
<!-- /lib/models/file_system_item.dart -->
<g id="node21" class="node">
<title>/lib/models/file_system_item.dart</title>
<path fill="Lavender" stroke="black" stroke-width="1.3" d="M825.26,-68C825.26,-68 721.51,-68 721.51,-68 715.51,-68 709.51,-62 709.51,-56 709.51,-56 709.51,-44 709.51,-44 709.51,-38 715.51,-32 721.51,-32 721.51,-32 825.26,-32 825.26,-32 831.26,-32 837.26,-38 837.26,-44 837.26,-44 837.26,-56 837.26,-56 837.26,-62 831.26,-68 825.26,-68"/>
<text xml:space="preserve" text-anchor="middle" x="773.38" y="-44.75" font-family="Arial" font-size="15.00">file_system_item</text>
</g>
<!-- /lib/providers/app_providers.dart&#45;&gt;/lib/models/file_system_item.dart -->
<g id="edge2" class="edge">
<title>/lib/providers/app_providers.dart&#45;&gt;/lib/models/file_system_item.dart</title>
<path fill="none" stroke="#aabbaa" stroke-width="1.3" stroke-opacity="0.533333" d="M1405.7,-194.4C1394.76,-188.87 1382.26,-183.13 1370.38,-179 1188.57,-115.82 964.34,-77.87 849.32,-61.15"/>
<polygon fill="#aabbaa" fill-opacity="0.533333" stroke="#aabbaa" stroke-width="1.3" stroke-opacity="0.533333" points="849.87,-57.69 839.47,-59.73 848.87,-64.62 849.87,-57.69"/>
</g>
<!-- /lib/panels/right/outline_panel.dart -->
<g id="node3" class="node">
<title>/lib/panels/right/outline_panel.dart</title>
<path fill="Lavender" stroke="black" stroke-width="1.3" d="M359.26,-397C359.26,-397 279.51,-397 279.51,-397 273.51,-397 267.51,-391 267.51,-385 267.51,-385 267.51,-373 267.51,-373 267.51,-367 273.51,-361 279.51,-361 279.51,-361 359.26,-361 359.26,-361 365.26,-361 371.26,-367 371.26,-373 371.26,-373 371.26,-385 371.26,-385 371.26,-391 365.26,-397 359.26,-397"/>
<text xml:space="preserve" text-anchor="middle" x="319.38" y="-373.75" font-family="Arial" font-size="15.00">outline_panel</text>
</g>
<!-- /lib/panels/center/editor_screen.dart -->
<g id="node6" class="node">
<title>/lib/panels/center/editor_screen.dart</title>
<path fill="Lavender" stroke="black" stroke-width="1.3" d="M932.76,-314C932.76,-314 850.01,-314 850.01,-314 844.01,-314 838.01,-308 838.01,-302 838.01,-302 838.01,-290 838.01,-290 838.01,-284 844.01,-278 850.01,-278 850.01,-278 932.76,-278 932.76,-278 938.76,-278 944.76,-284 944.76,-290 944.76,-290 944.76,-302 944.76,-302 944.76,-308 938.76,-314 932.76,-314"/>
<text xml:space="preserve" text-anchor="middle" x="891.38" y="-290.75" font-family="Arial" font-size="15.00">editor_screen</text>
</g>
<!-- /lib/panels/right/outline_panel.dart&#45;&gt;/lib/panels/center/editor_screen.dart -->
<g id="edge7" class="edge">
<title>/lib/panels/right/outline_panel.dart&#45;&gt;/lib/panels/center/editor_screen.dart</title>
<path fill="none" stroke="#aabbaa" stroke-width="1.3" stroke-opacity="0.533333" d="M357.98,-360.4C366.21,-357.37 374.96,-354.67 383.38,-353 431.68,-343.45 779.76,-360.82 826.38,-345 840.46,-340.22 854.02,-331.18 865.08,-322.22"/>
<polygon fill="#aabbaa" fill-opacity="0.533333" stroke="#aabbaa" stroke-width="1.3" stroke-opacity="0.533333" points="867.3,-324.92 872.61,-315.75 862.74,-319.61 867.3,-324.92"/>
</g>
<!-- /lib/panels/right/outline_panel.dart&#45;&gt;/lib/models/file_system_item.dart -->
<g id="edge6" class="edge">
<title>/lib/panels/right/outline_panel.dart&#45;&gt;/lib/models/file_system_item.dart</title>
<path fill="none" stroke="#aabbaa" stroke-width="1.3" stroke-opacity="0.533333" d="M320.2,-360.59C322.56,-314.35 330.05,-191.17 343.38,-179 365.71,-158.61 591.68,-189.77 615.38,-171 642.43,-149.58 611.66,-121.05 635.38,-96 651.76,-78.7 674.86,-68.04 697.48,-61.48"/>
<polygon fill="#aabbaa" fill-opacity="0.533333" stroke="#aabbaa" stroke-width="1.3" stroke-opacity="0.533333" points="698.19,-64.91 706.97,-58.99 696.41,-58.14 698.19,-64.91"/>
</g>
<!-- /lib/panels/right/ai_panel.dart -->
<g id="node4" class="node">
<title>/lib/panels/right/ai_panel.dart</title>
<path fill="Lavender" stroke="black" stroke-width="1.3" d="M237.13,-397C237.13,-397 189.63,-397 189.63,-397 183.63,-397 177.63,-391 177.63,-385 177.63,-385 177.63,-373 177.63,-373 177.63,-367 183.63,-361 189.63,-361 189.63,-361 237.13,-361 237.13,-361 243.13,-361 249.13,-367 249.13,-373 249.13,-373 249.13,-385 249.13,-385 249.13,-391 243.13,-397 237.13,-397"/>
<text xml:space="preserve" text-anchor="middle" x="213.38" y="-373.75" font-family="Arial" font-size="15.00">ai_panel</text>
</g>
<!-- /lib/panels/right/ai_panel.dart&#45;&gt;/lib/models/file_system_item.dart -->
<g id="edge9" class="edge">
<title>/lib/panels/right/ai_panel.dart&#45;&gt;/lib/models/file_system_item.dart</title>
<path fill="none" stroke="#aabbaa" stroke-width="1.3" stroke-opacity="0.533333" d="M220.36,-360.61C238.59,-316.12 288.66,-200.16 323.38,-179 349.96,-162.81 579.99,-191.53 603.38,-171 628.75,-148.73 592.97,-121.25 615.38,-96 636.03,-72.75 667.74,-61.14 697.36,-55.47"/>
<polygon fill="#aabbaa" fill-opacity="0.533333" stroke="#aabbaa" stroke-width="1.3" stroke-opacity="0.533333" points="697.79,-58.95 707.07,-53.84 696.63,-52.04 697.79,-58.95"/>
</g>
<!-- /lib/services/ai_service.dart -->
<g id="node27" class="node">
<title>/lib/services/ai_service.dart</title>
<path fill="Lavender" stroke="black" stroke-width="1.3" d="M346.76,-140C346.76,-140 288.01,-140 288.01,-140 282.01,-140 276.01,-134 276.01,-128 276.01,-128 276.01,-116 276.01,-116 276.01,-110 282.01,-104 288.01,-104 288.01,-104 346.76,-104 346.76,-104 352.76,-104 358.76,-110 358.76,-116 358.76,-116 358.76,-128 358.76,-128 358.76,-134 352.76,-140 346.76,-140"/>
<text xml:space="preserve" text-anchor="middle" x="317.38" y="-116.75" font-family="Arial" font-size="15.00">ai_service</text>
</g>
<!-- /lib/panels/right/ai_panel.dart&#45;&gt;/lib/services/ai_service.dart -->
<g id="edge8" class="edge">
<title>/lib/panels/right/ai_panel.dart&#45;&gt;/lib/services/ai_service.dart</title>
<path fill="none" stroke="#aabbaa" stroke-width="1.3" stroke-opacity="0.533333" d="M219.46,-360.68C227.06,-339.25 240.61,-301.72 253.38,-270 270.17,-228.28 291.26,-180.68 304.53,-151.23"/>
<polygon fill="#aabbaa" fill-opacity="0.533333" stroke="#aabbaa" stroke-width="1.3" stroke-opacity="0.533333" points="307.63,-152.86 308.57,-142.31 301.26,-149.98 307.63,-152.86"/>
</g>
<!-- /lib/panels/right/right_panel.dart -->
<g id="node5" class="node">
<title>/lib/panels/right/right_panel.dart</title>
<path fill="Lavender" stroke="black" stroke-width="1.3" d="M303.13,-480C303.13,-480 237.63,-480 237.63,-480 231.63,-480 225.63,-474 225.63,-468 225.63,-468 225.63,-456 225.63,-456 225.63,-450 231.63,-444 237.63,-444 237.63,-444 303.13,-444 303.13,-444 309.13,-444 315.13,-450 315.13,-456 315.13,-456 315.13,-468 315.13,-468 315.13,-474 309.13,-480 303.13,-480"/>
<text xml:space="preserve" text-anchor="middle" x="270.38" y="-456.75" font-family="Arial" font-size="15.00">right_panel</text>
</g>
<!-- /lib/panels/right/right_panel.dart&#45;&gt;/lib/panels/right/outline_panel.dart -->
<g id="edge10" class="edge">
<title>/lib/panels/right/right_panel.dart&#45;&gt;/lib/panels/right/outline_panel.dart</title>
<path fill="none" stroke="#aabbaa" stroke-width="1.3" stroke-opacity="0.533333" d="M281.01,-443.42C287.37,-432.92 295.58,-419.34 302.78,-407.44"/>
<polygon fill="#aabbaa" fill-opacity="0.533333" stroke="#aabbaa" stroke-width="1.3" stroke-opacity="0.533333" points="305.57,-409.59 307.75,-399.23 299.58,-405.97 305.57,-409.59"/>
</g>
<!-- /lib/panels/right/right_panel.dart&#45;&gt;/lib/panels/right/ai_panel.dart -->
<g id="edge11" class="edge">
<title>/lib/panels/right/right_panel.dart&#45;&gt;/lib/panels/right/ai_panel.dart</title>
<path fill="none" stroke="#aabbaa" stroke-width="1.3" stroke-opacity="0.533333" d="M258.01,-443.42C250.54,-432.81 240.87,-419.06 232.44,-407.08"/>
<polygon fill="#aabbaa" fill-opacity="0.533333" stroke="#aabbaa" stroke-width="1.3" stroke-opacity="0.533333" points="235.48,-405.31 226.86,-399.15 229.75,-409.34 235.48,-405.31"/>
</g>
<!-- /lib/panels/right/right_panel.dart&#45;&gt;/lib/models/file_system_item.dart -->
<g id="edge12" class="edge">
<title>/lib/panels/right/right_panel.dart&#45;&gt;/lib/models/file_system_item.dart</title>
<path fill="none" stroke="#aabbaa" stroke-width="1.3" stroke-opacity="0.533333" d="M225.39,-459.02C176.62,-455.88 103.2,-447.9 84.38,-428 -17.11,-320.69 -31.68,-203.72 69.38,-96 90.6,-73.38 519.15,-58.38 697.02,-53.1"/>
<polygon fill="#aabbaa" fill-opacity="0.533333" stroke="#aabbaa" stroke-width="1.3" stroke-opacity="0.533333" points="697.02,-56.61 706.91,-52.81 696.81,-49.61 697.02,-56.61"/>
</g>
<!-- /lib/panels/center/editor_screen.dart&#45;&gt;/lib/providers/app_providers.dart -->
<g id="edge13" class="edge">
<title>/lib/panels/center/editor_screen.dart&#45;&gt;/lib/providers/app_providers.dart</title>
<path fill="none" stroke="#aabbaa" stroke-width="1.3" stroke-opacity="0.533333" d="M928.74,-277.41C936.71,-274.38 945.19,-271.67 953.38,-270 998.79,-260.74 1326.4,-276.6 1370.38,-262 1384.92,-257.18 1399.01,-248 1410.49,-238.94"/>
<polygon fill="#aabbaa" fill-opacity="0.533333" stroke="#aabbaa" stroke-width="1.3" stroke-opacity="0.533333" points="1412.51,-241.82 1417.96,-232.73 1408.03,-236.44 1412.51,-241.82"/>
</g>
<!-- /lib/utils/message_helper.dart -->
<g id="node17" class="node">
<title>/lib/utils/message_helper.dart</title>
<path fill="Lavender" stroke="black" stroke-width="1.3" d="M1222.51,-231C1222.51,-231 1120.26,-231 1120.26,-231 1114.26,-231 1108.26,-225 1108.26,-219 1108.26,-219 1108.26,-207 1108.26,-207 1108.26,-201 1114.26,-195 1120.26,-195 1120.26,-195 1222.51,-195 1222.51,-195 1228.51,-195 1234.51,-201 1234.51,-207 1234.51,-207 1234.51,-219 1234.51,-219 1234.51,-225 1228.51,-231 1222.51,-231"/>
<text xml:space="preserve" text-anchor="middle" x="1171.38" y="-207.75" font-family="Arial" font-size="15.00">message_helper</text>
</g>
<!-- /lib/panels/center/editor_screen.dart&#45;&gt;/lib/utils/message_helper.dart -->
<g id="edge14" class="edge">
<title>/lib/panels/center/editor_screen.dart&#45;&gt;/lib/utils/message_helper.dart</title>
<path fill="none" stroke="#aabbaa" stroke-width="1.3" stroke-opacity="0.533333" d="M932.79,-277.43C939.61,-274.79 946.66,-272.21 953.38,-270 1000.21,-254.62 1053.82,-240.8 1096.16,-230.74"/>
<polygon fill="#aabbaa" fill-opacity="0.533333" stroke="#aabbaa" stroke-width="1.3" stroke-opacity="0.533333" points="1096.94,-234.15 1105.87,-228.45 1095.33,-227.33 1096.94,-234.15"/>
</g>
<!-- /lib/panels/center/editor_screen.dart&#45;&gt;/lib/utils/file_type_utils.dart -->
<g id="edge15" class="edge">
<title>/lib/panels/center/editor_screen.dart&#45;&gt;/lib/utils/file_type_utils.dart</title>
<path fill="none" stroke="#aabbaa" stroke-width="1.3" stroke-opacity="0.533333" d="M928.75,-277.46C936.72,-274.43 945.2,-271.7 953.38,-270 984.94,-263.42 1213.03,-272.85 1243.38,-262 1256.73,-257.23 1269.48,-248.4 1279.9,-239.6"/>
<polygon fill="#aabbaa" fill-opacity="0.533333" stroke="#aabbaa" stroke-width="1.3" stroke-opacity="0.533333" points="1282.2,-242.24 1287.31,-232.96 1277.53,-237.03 1282.2,-242.24"/>
</g>
<!-- /lib/panels/center/editor_screen.dart&#45;&gt;/lib/models/document_state.dart -->
<g id="edge16" class="edge">
<title>/lib/panels/center/editor_screen.dart&#45;&gt;/lib/models/document_state.dart</title>
<path fill="none" stroke="#aabbaa" stroke-width="1.3" stroke-opacity="0.533333" d="M891.38,-277.56C891.38,-248.07 891.38,-188.06 891.38,-152.11"/>
<polygon fill="#aabbaa" fill-opacity="0.533333" stroke="#aabbaa" stroke-width="1.3" stroke-opacity="0.533333" points="894.88,-152.45 891.38,-142.45 887.88,-152.45 894.88,-152.45"/>
</g>
<!-- /lib/panels/center/terminal_panel.dart -->
<g id="node7" class="node">
<title>/lib/panels/center/terminal_panel.dart</title>
<path fill="Lavender" stroke="black" stroke-width="1.3" d="M1064.13,-314C1064.13,-314 974.63,-314 974.63,-314 968.63,-314 962.63,-308 962.63,-302 962.63,-302 962.63,-290 962.63,-290 962.63,-284 968.63,-278 974.63,-278 974.63,-278 1064.13,-278 1064.13,-278 1070.13,-278 1076.13,-284 1076.13,-290 1076.13,-290 1076.13,-302 1076.13,-302 1076.13,-308 1070.13,-314 1064.13,-314"/>
<text xml:space="preserve" text-anchor="middle" x="1019.38" y="-290.75" font-family="Arial" font-size="15.00">terminal_panel</text>
</g>
<!-- /lib/panels/center/terminal_panel.dart&#45;&gt;/lib/providers/app_providers.dart -->
<g id="edge17" class="edge">
<title>/lib/panels/center/terminal_panel.dart&#45;&gt;/lib/providers/app_providers.dart</title>
<path fill="none" stroke="#aabbaa" stroke-width="1.3" stroke-opacity="0.533333" d="M1062.73,-277.36C1071.74,-274.37 1081.26,-271.69 1090.38,-270 1120.98,-264.32 1340.89,-271.94 1370.38,-262 1384.89,-257.11 1398.98,-247.92 1410.47,-238.88"/>
<polygon fill="#aabbaa" fill-opacity="0.533333" stroke="#aabbaa" stroke-width="1.3" stroke-opacity="0.533333" points="1412.48,-241.75 1417.94,-232.67 1408.01,-236.37 1412.48,-241.75"/>
</g>
<!-- /lib/panels/center/center_panel.dart -->
<g id="node8" class="node">
<title>/lib/panels/center/center_panel.dart</title>
<path fill="Lavender" stroke="black" stroke-width="1.3" d="M1064.51,-397C1064.51,-397 986.26,-397 986.26,-397 980.26,-397 974.26,-391 974.26,-385 974.26,-385 974.26,-373 974.26,-373 974.26,-367 980.26,-361 986.26,-361 986.26,-361 1064.51,-361 1064.51,-361 1070.51,-361 1076.51,-367 1076.51,-373 1076.51,-373 1076.51,-385 1076.51,-385 1076.51,-391 1070.51,-397 1064.51,-397"/>
<text xml:space="preserve" text-anchor="middle" x="1025.38" y="-373.75" font-family="Arial" font-size="15.00">center_panel</text>
</g>
<!-- /lib/panels/center/center_panel.dart&#45;&gt;/lib/providers/app_providers.dart -->
<g id="edge18" class="edge">
<title>/lib/panels/center/center_panel.dart&#45;&gt;/lib/providers/app_providers.dart</title>
<path fill="none" stroke="#aabbaa" stroke-width="1.3" stroke-opacity="0.533333" d="M1065.58,-360.39C1072.74,-356.06 1079.71,-350.93 1085.38,-345 1111.07,-318.14 1091.14,-290.13 1122.38,-270 1145.56,-255.07 1344.27,-270.85 1370.38,-262 1384.78,-257.12 1398.77,-248.02 1410.2,-239.05"/>
<polygon fill="#aabbaa" fill-opacity="0.533333" stroke="#aabbaa" stroke-width="1.3" stroke-opacity="0.533333" points="1412.18,-241.96 1417.65,-232.89 1407.71,-236.56 1412.18,-241.96"/>
</g>
<!-- /lib/panels/center/center_panel.dart&#45;&gt;/lib/panels/center/editor_screen.dart -->
<g id="edge20" class="edge">
<title>/lib/panels/center/center_panel.dart&#45;&gt;/lib/panels/center/editor_screen.dart</title>
<path fill="none" stroke="#aabbaa" stroke-width="1.3" stroke-opacity="0.533333" d="M982.67,-360.38C972.83,-355.79 962.56,-350.55 953.38,-345 942.17,-338.22 930.63,-329.75 920.59,-321.82"/>
<polygon fill="#aabbaa" fill-opacity="0.533333" stroke="#aabbaa" stroke-width="1.3" stroke-opacity="0.533333" points="922.99,-319.26 913.01,-315.7 918.59,-324.71 922.99,-319.26"/>
</g>
<!-- /lib/panels/center/center_panel.dart&#45;&gt;/lib/panels/center/terminal_panel.dart -->
<g id="edge21" class="edge">
<title>/lib/panels/center/center_panel.dart&#45;&gt;/lib/panels/center/terminal_panel.dart</title>
<path fill="none" stroke="#aabbaa" stroke-width="1.3" stroke-opacity="0.533333" d="M1024.08,-360.42C1023.34,-350.45 1022.4,-337.7 1021.55,-326.26"/>
<polygon fill="#aabbaa" fill-opacity="0.533333" stroke="#aabbaa" stroke-width="1.3" stroke-opacity="0.533333" points="1025.06,-326.22 1020.83,-316.5 1018.07,-326.73 1025.06,-326.22"/>
</g>
<!-- /lib/panels/center/center_panel.dart&#45;&gt;/lib/models/file_system_item.dart -->
<g id="edge23" class="edge">
<title>/lib/panels/center/center_panel.dart&#45;&gt;/lib/models/file_system_item.dart</title>
<path fill="none" stroke="#aabbaa" stroke-width="1.3" stroke-opacity="0.533333" d="M973.99,-370.01C933.9,-364.15 876.74,-356.61 826.38,-353 814.11,-352.12 392.01,-353.78 383.38,-345 357.53,-318.68 357.68,-205.47 383.38,-179 393.91,-168.15 642.89,-179.52 655.38,-171 685.32,-150.58 662.78,-122.62 687.38,-96 695.36,-87.37 705.37,-80.1 715.72,-74.09"/>
<polygon fill="#aabbaa" fill-opacity="0.533333" stroke="#aabbaa" stroke-width="1.3" stroke-opacity="0.533333" points="717.24,-77.25 724.39,-69.43 713.92,-71.09 717.24,-77.25"/>
</g>
<!-- /lib/screens/welcome_screen.dart -->
<g id="node23" class="node">
<title>/lib/screens/welcome_screen.dart</title>
<path fill="Lavender" stroke="black" stroke-width="1.3" d="M1354.26,-480C1354.26,-480 1250.51,-480 1250.51,-480 1244.51,-480 1238.51,-474 1238.51,-468 1238.51,-468 1238.51,-456 1238.51,-456 1238.51,-450 1244.51,-444 1250.51,-444 1250.51,-444 1354.26,-444 1354.26,-444 1360.26,-444 1366.26,-450 1366.26,-456 1366.26,-456 1366.26,-468 1366.26,-468 1366.26,-474 1360.26,-480 1354.26,-480"/>
<text xml:space="preserve" text-anchor="middle" x="1302.38" y="-456.75" font-family="Arial" font-size="15.00">welcome_screen</text>
</g>
<!-- /lib/panels/center/center_panel.dart&#45;&gt;/lib/screens/welcome_screen.dart -->
<g id="edge19" class="edge">
<title>/lib/panels/center/center_panel.dart&#45;&gt;/lib/screens/welcome_screen.dart</title>
<path fill="none" stroke="#aabbaa" stroke-width="1.3" stroke-opacity="0.533333" d="M1056.84,-397.54C1077.42,-408.17 1105.23,-420.99 1131.38,-428 1166.32,-437.36 1176.82,-429.36 1212.38,-436 1219.12,-437.26 1226.09,-438.78 1233.03,-440.45"/>
<polygon fill="#aabbaa" fill-opacity="0.533333" stroke="#aabbaa" stroke-width="1.3" stroke-opacity="0.533333" points="1232.17,-443.85 1242.72,-442.9 1233.88,-437.06 1232.17,-443.85"/>
</g>
<!-- /lib/widgets/resizable_splitter.dart -->
<g id="node30" class="node">
<title>/lib/widgets/resizable_splitter.dart</title>
<path fill="Lavender" stroke="black" stroke-width="1.3" d="M1250.26,-314C1250.26,-314 1146.51,-314 1146.51,-314 1140.51,-314 1134.51,-308 1134.51,-302 1134.51,-302 1134.51,-290 1134.51,-290 1134.51,-284 1140.51,-278 1146.51,-278 1146.51,-278 1250.26,-278 1250.26,-278 1256.26,-278 1262.26,-284 1262.26,-290 1262.26,-290 1262.26,-302 1262.26,-302 1262.26,-308 1256.26,-314 1250.26,-314"/>
<text xml:space="preserve" text-anchor="middle" x="1198.38" y="-290.75" font-family="Arial" font-size="15.00">resizable_splitter</text>
</g>
<!-- /lib/panels/center/center_panel.dart&#45;&gt;/lib/widgets/resizable_splitter.dart -->
<g id="edge22" class="edge">
<title>/lib/panels/center/center_panel.dart&#45;&gt;/lib/widgets/resizable_splitter.dart</title>
<path fill="none" stroke="#aabbaa" stroke-width="1.3" stroke-opacity="0.533333" d="M1066,-360.49C1077.18,-355.57 1089.29,-350.16 1100.38,-345 1117.72,-336.94 1136.61,-327.78 1153.14,-319.64"/>
<polygon fill="#aabbaa" fill-opacity="0.533333" stroke="#aabbaa" stroke-width="1.3" stroke-opacity="0.533333" points="1154.45,-322.9 1161.86,-315.33 1151.34,-316.62 1154.45,-322.9"/>
</g>
<!-- /lib/panels/left/git_panel.dart -->
<g id="node9" class="node">
<title>/lib/panels/left/git_panel.dart</title>
<path fill="Lavender" stroke="black" stroke-width="1.3" d="M664.38,-231C664.38,-231 612.38,-231 612.38,-231 606.38,-231 600.38,-225 600.38,-219 600.38,-219 600.38,-207 600.38,-207 600.38,-201 606.38,-195 612.38,-195 612.38,-195 664.38,-195 664.38,-195 670.38,-195 676.38,-201 676.38,-207 676.38,-207 676.38,-219 676.38,-219 676.38,-225 670.38,-231 664.38,-231"/>
<text xml:space="preserve" text-anchor="middle" x="638.38" y="-207.75" font-family="Arial" font-size="15.00">git_panel</text>
</g>
<!-- /lib/services/git_service.dart -->
<g id="node26" class="node">
<title>/lib/services/git_service.dart</title>
<path fill="Lavender" stroke="black" stroke-width="1.3" d="M452.01,-140C452.01,-140 388.76,-140 388.76,-140 382.76,-140 376.76,-134 376.76,-128 376.76,-128 376.76,-116 376.76,-116 376.76,-110 382.76,-104 388.76,-104 388.76,-104 452.01,-104 452.01,-104 458.01,-104 464.01,-110 464.01,-116 464.01,-116 464.01,-128 464.01,-128 464.01,-134 458.01,-140 452.01,-140"/>
<text xml:space="preserve" text-anchor="middle" x="420.38" y="-116.75" font-family="Arial" font-size="15.00">git_service</text>
</g>
<!-- /lib/panels/left/git_panel.dart&#45;&gt;/lib/services/git_service.dart -->
<g id="edge24" class="edge">
<title>/lib/panels/left/git_panel.dart&#45;&gt;/lib/services/git_service.dart</title>
<path fill="none" stroke="#aabbaa" stroke-width="1.3" stroke-opacity="0.533333" d="M599.78,-207.84C565.06,-202.88 513.49,-192.38 473.38,-171 462.65,-165.28 452.37,-156.91 443.77,-148.75"/>
<polygon fill="#aabbaa" fill-opacity="0.533333" stroke="#aabbaa" stroke-width="1.3" stroke-opacity="0.533333" points="446.4,-146.43 436.85,-141.84 441.45,-151.39 446.4,-146.43"/>
</g>
<!-- /lib/panels/left/left_panel_controls.dart -->
<g id="node10" class="node">
<title>/lib/panels/left/left_panel_controls.dart</title>
<path fill="Lavender" stroke="black" stroke-width="1.3" d="M525.01,-480C525.01,-480 407.76,-480 407.76,-480 401.76,-480 395.76,-474 395.76,-468 395.76,-468 395.76,-456 395.76,-456 395.76,-450 401.76,-444 407.76,-444 407.76,-444 525.01,-444 525.01,-444 531.01,-444 537.01,-450 537.01,-456 537.01,-456 537.01,-468 537.01,-468 537.01,-474 531.01,-480 525.01,-480"/>
<text xml:space="preserve" text-anchor="middle" x="466.38" y="-456.75" font-family="Arial" font-size="15.00">left_panel_controls</text>
</g>
<!-- /lib/panels/left/base_panel.dart -->
<g id="node11" class="node">
<title>/lib/panels/left/base_panel.dart</title>
<path fill="Lavender" stroke="black" stroke-width="1.3" d="M796.63,-314C796.63,-314 728.13,-314 728.13,-314 722.13,-314 716.13,-308 716.13,-302 716.13,-302 716.13,-290 716.13,-290 716.13,-284 722.13,-278 728.13,-278 728.13,-278 796.63,-278 796.63,-278 802.63,-278 808.63,-284 808.63,-290 808.63,-290 808.63,-302 808.63,-302 808.63,-308 802.63,-314 796.63,-314"/>
<text xml:space="preserve" text-anchor="middle" x="762.38" y="-290.75" font-family="Arial" font-size="15.00">base_panel</text>
</g>
<!-- /lib/panels/left/base_panel.dart&#45;&gt;/lib/providers/app_providers.dart -->
<g id="edge30" class="edge">
<title>/lib/panels/left/base_panel.dart&#45;&gt;/lib/providers/app_providers.dart</title>
<path fill="none" stroke="#aabbaa" stroke-width="1.3" stroke-opacity="0.533333" d="M800.98,-277.38C809.2,-274.35 817.95,-271.65 826.38,-270 885.7,-258.37 1312.96,-280.91 1370.38,-262 1384.93,-257.21 1399.02,-248.03 1410.5,-238.98"/>
<polygon fill="#aabbaa" fill-opacity="0.533333" stroke="#aabbaa" stroke-width="1.3" stroke-opacity="0.533333" points="1412.52,-241.85 1417.97,-232.76 1408.04,-236.47 1412.52,-241.85"/>
</g>
<!-- /lib/panels/left/base_panel.dart&#45;&gt;/lib/panels/left/git_panel.dart -->
<g id="edge29" class="edge">
<title>/lib/panels/left/base_panel.dart&#45;&gt;/lib/panels/left/git_panel.dart</title>
<path fill="none" stroke="#aabbaa" stroke-width="1.3" stroke-opacity="0.533333" d="M718.17,-277.41C708.7,-272.92 698.96,-267.72 690.38,-262 680.77,-255.6 671.21,-247.43 662.95,-239.65"/>
<polygon fill="#aabbaa" fill-opacity="0.533333" stroke="#aabbaa" stroke-width="1.3" stroke-opacity="0.533333" points="665.57,-237.32 655.97,-232.84 660.68,-242.33 665.57,-237.32"/>
</g>
<!-- /lib/panels/left/base_panel.dart&#45;&gt;/lib/utils/message_helper.dart -->
<g id="edge28" class="edge">
<title>/lib/panels/left/base_panel.dart&#45;&gt;/lib/utils/message_helper.dart</title>
<path fill="none" stroke="#aabbaa" stroke-width="1.3" stroke-opacity="0.533333" d="M803.61,-277.43C811.09,-274.66 818.9,-272.04 826.38,-270 917.54,-245.1 1025.47,-229.77 1096.03,-221.58"/>
<polygon fill="#aabbaa" fill-opacity="0.533333" stroke="#aabbaa" stroke-width="1.3" stroke-opacity="0.533333" points="1096.39,-225.06 1105.93,-220.45 1095.6,-218.11 1096.39,-225.06"/>
</g>
<!-- /lib/panels/left/base_panel.dart&#45;&gt;/lib/models/project_node.dart -->
<g id="edge25" class="edge">
<title>/lib/panels/left/base_panel.dart&#45;&gt;/lib/models/project_node.dart</title>
<path fill="none" stroke="#aabbaa" stroke-width="1.3" stroke-opacity="0.533333" d="M762.18,-277.56C761.84,-248.07 761.14,-188.06 760.72,-152.11"/>
<polygon fill="#aabbaa" fill-opacity="0.533333" stroke="#aabbaa" stroke-width="1.3" stroke-opacity="0.533333" points="764.22,-152.41 760.61,-142.45 757.22,-152.49 764.22,-152.41"/>
</g>
<!-- /lib/panels/left/base_panel.dart&#45;&gt;/lib/models/file_system_item.dart -->
<g id="edge26" class="edge">
<title>/lib/panels/left/base_panel.dart&#45;&gt;/lib/models/file_system_item.dart</title>
<path fill="none" stroke="#aabbaa" stroke-width="1.3" stroke-opacity="0.533333" d="M753.34,-277.45C736.46,-244.61 701.72,-176.67 700.38,-171 692.72,-138.56 684.13,-125.1 700.38,-96 705.03,-87.68 711.91,-80.71 719.62,-74.93"/>
<polygon fill="#aabbaa" fill-opacity="0.533333" stroke="#aabbaa" stroke-width="1.3" stroke-opacity="0.533333" points="721.32,-78.01 727.71,-69.56 717.44,-72.18 721.32,-78.01"/>
</g>
<!-- /lib/panels/left/base_panel.dart&#45;&gt;/lib/services/git_service.dart -->
<g id="edge27" class="edge">
<title>/lib/panels/left/base_panel.dart&#45;&gt;/lib/services/git_service.dart</title>
<path fill="none" stroke="#aabbaa" stroke-width="1.3" stroke-opacity="0.533333" d="M727.08,-277.5C720.84,-273.13 714.9,-267.96 710.38,-262 687.1,-231.31 715.86,-202.56 685.38,-179 666.73,-164.59 495.21,-179.89 473.38,-171 461.65,-166.22 450.86,-157.63 442.11,-149.03"/>
<polygon fill="#aabbaa" fill-opacity="0.533333" stroke="#aabbaa" stroke-width="1.3" stroke-opacity="0.533333" points="444.86,-146.84 435.45,-141.98 439.78,-151.65 444.86,-146.84"/>
</g>
<!-- /lib/panels/left/directory_contents.dart -->
<g id="node12" class="node">
<title>/lib/panels/left/directory_contents.dart</title>
<path fill="Lavender" stroke="black" stroke-width="1.3" d="M522.88,-397C522.88,-397 407.88,-397 407.88,-397 401.88,-397 395.88,-391 395.88,-385 395.88,-385 395.88,-373 395.88,-373 395.88,-367 401.88,-361 407.88,-361 407.88,-361 522.88,-361 522.88,-361 528.88,-361 534.88,-367 534.88,-373 534.88,-373 534.88,-385 534.88,-385 534.88,-391 528.88,-397 522.88,-397"/>
<text xml:space="preserve" text-anchor="middle" x="465.38" y="-373.75" font-family="Arial" font-size="15.00">directory_contents</text>
</g>
<!-- /lib/panels/left/directory_contents.dart&#45;&gt;/lib/models/file_system_item.dart -->
<g id="edge33" class="edge">
<title>/lib/panels/left/directory_contents.dart&#45;&gt;/lib/models/file_system_item.dart</title>
<path fill="none" stroke="#aabbaa" stroke-width="1.3" stroke-opacity="0.533333" d="M443.8,-360.48C400.13,-323.03 309.83,-234.15 363.38,-179 384.44,-157.31 611.68,-189.77 635.38,-171 662.43,-149.58 632.28,-121.63 655.38,-96 666.77,-83.36 682.1,-74.25 697.93,-67.69"/>
<polygon fill="#aabbaa" fill-opacity="0.533333" stroke="#aabbaa" stroke-width="1.3" stroke-opacity="0.533333" points="698.96,-71.04 707.08,-64.24 696.49,-64.49 698.96,-71.04"/>
</g>
<!-- /lib/panels/left/directory_contents.dart&#45;&gt;/lib/services/git_service.dart -->
<g id="edge32" class="edge">
<title>/lib/panels/left/directory_contents.dart&#45;&gt;/lib/services/git_service.dart</title>
<path fill="none" stroke="#aabbaa" stroke-width="1.3" stroke-opacity="0.533333" d="M411.41,-360.4C402.12,-357.7 392.52,-355.11 383.38,-353 372.42,-350.46 340.68,-353.56 333.38,-345 285.16,-288.46 309.36,-238.87 353.38,-179 357.63,-173.23 361.58,-175.21 367.38,-171 376.68,-164.26 386.18,-156.12 394.52,-148.47"/>
<polygon fill="#aabbaa" fill-opacity="0.533333" stroke="#aabbaa" stroke-width="1.3" stroke-opacity="0.533333" points="396.73,-151.2 401.62,-141.8 391.94,-146.1 396.73,-151.2"/>
</g>
<!-- /lib/services/file_system_service.dart -->
<g id="node28" class="node">
<title>/lib/services/file_system_service.dart</title>
<path fill="Lavender" stroke="black" stroke-width="1.3" d="M245.63,-140C245.63,-140 123.13,-140 123.13,-140 117.13,-140 111.13,-134 111.13,-128 111.13,-128 111.13,-116 111.13,-116 111.13,-110 117.13,-104 123.13,-104 123.13,-104 245.63,-104 245.63,-104 251.63,-104 257.63,-110 257.63,-116 257.63,-116 257.63,-128 257.63,-128 257.63,-134 251.63,-140 245.63,-140"/>
<text xml:space="preserve" text-anchor="middle" x="184.38" y="-116.75" font-family="Arial" font-size="15.00">file_system_service</text>
</g>
<!-- /lib/panels/left/directory_contents.dart&#45;&gt;/lib/services/file_system_service.dart -->
<g id="edge31" class="edge">
<title>/lib/panels/left/directory_contents.dart&#45;&gt;/lib/services/file_system_service.dart</title>
<path fill="none" stroke="#aabbaa" stroke-width="1.3" stroke-opacity="0.533333" d="M413.28,-360.45C403.43,-357.61 393.16,-354.96 383.38,-353 365.86,-349.49 318.24,-354.93 303.38,-345 235.15,-299.4 203.01,-201.35 190.71,-152.26"/>
<polygon fill="#aabbaa" fill-opacity="0.533333" stroke="#aabbaa" stroke-width="1.3" stroke-opacity="0.533333" points="194.11,-151.45 188.39,-142.54 187.3,-153.07 194.11,-151.45"/>
</g>
<!-- /lib/panels/left/folder_panel.dart -->
<g id="node13" class="node">
<title>/lib/panels/left/folder_panel.dart</title>
<path fill="Lavender" stroke="black" stroke-width="1.3" d="M802.26,-397C802.26,-397 728.51,-397 728.51,-397 722.51,-397 716.51,-391 716.51,-385 716.51,-385 716.51,-373 716.51,-373 716.51,-367 722.51,-361 728.51,-361 728.51,-361 802.26,-361 802.26,-361 808.26,-361 814.26,-367 814.26,-373 814.26,-373 814.26,-385 814.26,-385 814.26,-391 808.26,-397 802.26,-397"/>
<text xml:space="preserve" text-anchor="middle" x="765.38" y="-373.75" font-family="Arial" font-size="15.00">folder_panel</text>
</g>
<!-- /lib/panels/left/folder_panel.dart&#45;&gt;/lib/panels/left/base_panel.dart -->
<g id="edge35" class="edge">
<title>/lib/panels/left/folder_panel.dart&#45;&gt;/lib/panels/left/base_panel.dart</title>
<path fill="none" stroke="#aabbaa" stroke-width="1.3" stroke-opacity="0.533333" d="M764.73,-360.42C764.36,-350.45 763.89,-337.7 763.46,-326.26"/>
<polygon fill="#aabbaa" fill-opacity="0.533333" stroke="#aabbaa" stroke-width="1.3" stroke-opacity="0.533333" points="766.97,-326.37 763.1,-316.51 759.98,-326.63 766.97,-326.37"/>
</g>
<!-- /lib/panels/left/folder_panel.dart&#45;&gt;/lib/models/project_node.dart -->
<g id="edge34" class="edge">
<title>/lib/panels/left/folder_panel.dart&#45;&gt;/lib/models/project_node.dart</title>
<path fill="none" stroke="#aabbaa" stroke-width="1.3" stroke-opacity="0.533333" d="M715.88,-360.77C673.97,-343.19 616.78,-311.4 591.38,-262 574.52,-229.19 566.56,-206.29 591.38,-179 604,-165.13 657.49,-176.62 675.38,-171 693.12,-165.43 711.26,-155.82 726.2,-146.65"/>
<polygon fill="#aabbaa" fill-opacity="0.533333" stroke="#aabbaa" stroke-width="1.3" stroke-opacity="0.533333" points="727.77,-149.81 734.33,-141.49 724.01,-143.9 727.77,-149.81"/>
</g>
<!-- /lib/panels/left/file_explorer.dart -->
<g id="node14" class="node">
<title>/lib/panels/left/file_explorer.dart</title>
<path fill="Lavender" stroke="black" stroke-width="1.3" d="M639.88,-480C639.88,-480 566.88,-480 566.88,-480 560.88,-480 554.88,-474 554.88,-468 554.88,-468 554.88,-456 554.88,-456 554.88,-450 560.88,-444 566.88,-444 566.88,-444 639.88,-444 639.88,-444 645.88,-444 651.88,-450 651.88,-456 651.88,-456 651.88,-468 651.88,-468 651.88,-474 645.88,-480 639.88,-480"/>
<text xml:space="preserve" text-anchor="middle" x="603.38" y="-456.75" font-family="Arial" font-size="15.00">file_explorer</text>
</g>
<!-- /lib/panels/left/file_explorer.dart&#45;&gt;/lib/panels/left/directory_contents.dart -->
<g id="edge39" class="edge">
<title>/lib/panels/left/file_explorer.dart&#45;&gt;/lib/panels/left/directory_contents.dart</title>
<path fill="none" stroke="#aabbaa" stroke-width="1.3" stroke-opacity="0.533333" d="M570.83,-443.48C561.89,-438.56 552.22,-433.14 543.38,-428 530.05,-420.24 515.61,-411.46 502.83,-403.55"/>
<polygon fill="#aabbaa" fill-opacity="0.533333" stroke="#aabbaa" stroke-width="1.3" stroke-opacity="0.533333" points="504.99,-400.78 494.65,-398.48 501.3,-406.73 504.99,-400.78"/>
</g>
<!-- /lib/panels/left/file_explorer.dart&#45;&gt;/lib/models/file_system_item.dart -->
<g id="edge38" class="edge">
<title>/lib/panels/left/file_explorer.dart&#45;&gt;/lib/models/file_system_item.dart</title>
<path fill="none" stroke="#aabbaa" stroke-width="1.3" stroke-opacity="0.533333" d="M569.15,-443.4C561.81,-440.37 553.98,-437.67 546.38,-436 534.55,-433.41 119.29,-436.2 110.38,-428 83.16,-402.94 59.08,-123 84.38,-96 125.55,-52.06 526.54,-49.37 697.16,-50.25"/>
<polygon fill="#aabbaa" fill-opacity="0.533333" stroke="#aabbaa" stroke-width="1.3" stroke-opacity="0.533333" points="697.05,-53.75 707.07,-50.31 697.09,-46.75 697.05,-53.75"/>
</g>
<!-- /lib/panels/left/file_explorer.dart&#45;&gt;/lib/services/git_service.dart -->
<g id="edge37" class="edge">
<title>/lib/panels/left/file_explorer.dart&#45;&gt;/lib/services/git_service.dart</title>
<path fill="none" stroke="#aabbaa" stroke-width="1.3" stroke-opacity="0.533333" d="M569.15,-443.42C561.81,-440.39 553.98,-437.68 546.38,-436 536.04,-433.72 172.79,-435.56 165.38,-428 142.06,-404.18 154.3,-384.44 165.38,-353 198.37,-259.38 218.79,-227.52 305.38,-179 329.62,-165.42 342.15,-182.64 367.38,-171 378.59,-165.83 389.09,-157.43 397.74,-149.1"/>
<polygon fill="#aabbaa" fill-opacity="0.533333" stroke="#aabbaa" stroke-width="1.3" stroke-opacity="0.533333" points="400.2,-151.59 404.66,-141.98 395.18,-146.71 400.2,-151.59"/>
</g>
<!-- /lib/panels/left/file_explorer.dart&#45;&gt;/lib/services/file_system_service.dart -->
<g id="edge36" class="edge">
<title>/lib/panels/left/file_explorer.dart&#45;&gt;/lib/services/file_system_service.dart</title>
<path fill="none" stroke="#aabbaa" stroke-width="1.3" stroke-opacity="0.533333" d="M569.15,-443.41C561.81,-440.38 553.98,-437.67 546.38,-436 535.58,-433.62 156.12,-435.9 148.38,-428 74.25,-352.36 136.83,-210.47 168.6,-150.69"/>
<polygon fill="#aabbaa" fill-opacity="0.533333" stroke="#aabbaa" stroke-width="1.3" stroke-opacity="0.533333" points="171.49,-152.7 173.2,-142.24 165.34,-149.35 171.49,-152.7"/>
</g>
<!-- /lib/panels/left/left_panel.dart -->
<g id="node15" class="node">
<title>/lib/panels/left/left_panel.dart</title>
<path fill="Lavender" stroke="black" stroke-width="1.3" d="M738.63,-480C738.63,-480 682.13,-480 682.13,-480 676.13,-480 670.13,-474 670.13,-468 670.13,-468 670.13,-456 670.13,-456 670.13,-450 676.13,-444 682.13,-444 682.13,-444 738.63,-444 738.63,-444 744.63,-444 750.63,-450 750.63,-456 750.63,-456 750.63,-468 750.63,-468 750.63,-474 744.63,-480 738.63,-480"/>
<text xml:space="preserve" text-anchor="middle" x="710.38" y="-456.75" font-family="Arial" font-size="15.00">left_panel</text>
</g>
<!-- /lib/panels/left/left_panel.dart&#45;&gt;/lib/panels/left/git_panel.dart -->
<g id="edge42" class="edge">
<title>/lib/panels/left/left_panel.dart&#45;&gt;/lib/panels/left/git_panel.dart</title>
<path fill="none" stroke="#aabbaa" stroke-width="1.3" stroke-opacity="0.533333" d="M707.4,-443.62C703.54,-422.14 696.26,-384.56 687.38,-353 676.4,-313.99 660.25,-270.05 649.53,-242.21"/>
<polygon fill="#aabbaa" fill-opacity="0.533333" stroke="#aabbaa" stroke-width="1.3" stroke-opacity="0.533333" points="652.9,-241.21 646.02,-233.16 646.38,-243.74 652.9,-241.21"/>
</g>
<!-- /lib/panels/left/left_panel.dart&#45;&gt;/lib/panels/left/folder_panel.dart -->
<g id="edge40" class="edge">
<title>/lib/panels/left/left_panel.dart&#45;&gt;/lib/panels/left/folder_panel.dart</title>
<path fill="none" stroke="#aabbaa" stroke-width="1.3" stroke-opacity="0.533333" d="M722.32,-443.42C729.45,-432.92 738.67,-419.34 746.75,-407.44"/>
<polygon fill="#aabbaa" fill-opacity="0.533333" stroke="#aabbaa" stroke-width="1.3" stroke-opacity="0.533333" points="749.64,-409.41 752.37,-399.17 743.85,-405.48 749.64,-409.41"/>
</g>
<!-- /lib/panels/left/organized_panel.dart -->
<g id="node16" class="node">
<title>/lib/panels/left/organized_panel.dart</title>
<path fill="Lavender" stroke="black" stroke-width="1.3" d="M666.13,-397C666.13,-397 564.63,-397 564.63,-397 558.63,-397 552.63,-391 552.63,-385 552.63,-385 552.63,-373 552.63,-373 552.63,-367 558.63,-361 564.63,-361 564.63,-361 666.13,-361 666.13,-361 672.13,-361 678.13,-367 678.13,-373 678.13,-373 678.13,-385 678.13,-385 678.13,-391 672.13,-397 666.13,-397"/>
<text xml:space="preserve" text-anchor="middle" x="615.38" y="-373.75" font-family="Arial" font-size="15.00">organized_panel</text>
</g>
<!-- /lib/panels/left/left_panel.dart&#45;&gt;/lib/panels/left/organized_panel.dart -->
<g id="edge41" class="edge">
<title>/lib/panels/left/left_panel.dart&#45;&gt;/lib/panels/left/organized_panel.dart</title>
<path fill="none" stroke="#aabbaa" stroke-width="1.3" stroke-opacity="0.533333" d="M689.77,-443.42C676.7,-432.28 659.57,-417.68 645.05,-405.3"/>
<polygon fill="#aabbaa" fill-opacity="0.533333" stroke="#aabbaa" stroke-width="1.3" stroke-opacity="0.533333" points="647.33,-402.64 637.45,-398.82 642.79,-407.97 647.33,-402.64"/>
</g>
<!-- /lib/panels/left/left_panel.dart&#45;&gt;/lib/models/file_system_item.dart -->
<g id="edge43" class="edge">
<title>/lib/panels/left/left_panel.dart&#45;&gt;/lib/models/file_system_item.dart</title>
<path fill="none" stroke="#aabbaa" stroke-width="1.3" stroke-opacity="0.533333" d="M681.17,-443.39C674.85,-440.37 668.05,-437.66 661.38,-436 648.01,-432.67 176.2,-436.53 165.38,-428 142.23,-409.74 103.08,-200.25 99.38,-171 95.2,-137.93 76.61,-120.34 99.38,-96 139.48,-53.13 529.13,-49.79 697.03,-50.37"/>
<polygon fill="#aabbaa" fill-opacity="0.533333" stroke="#aabbaa" stroke-width="1.3" stroke-opacity="0.533333" points="696.99,-53.87 707.01,-50.41 697.02,-46.87 696.99,-53.87"/>
</g>
<!-- /lib/panels/left/organized_panel.dart&#45;&gt;/lib/panels/left/base_panel.dart -->
<g id="edge45" class="edge">
<title>/lib/panels/left/organized_panel.dart&#45;&gt;/lib/panels/left/base_panel.dart</title>
<path fill="none" stroke="#aabbaa" stroke-width="1.3" stroke-opacity="0.533333" d="M647.28,-360.42C668.66,-348.64 697.05,-333 720.28,-320.2"/>
<polygon fill="#aabbaa" fill-opacity="0.533333" stroke="#aabbaa" stroke-width="1.3" stroke-opacity="0.533333" points="721.75,-323.38 728.82,-315.49 718.38,-317.25 721.75,-323.38"/>
</g>
<!-- /lib/panels/left/organized_panel.dart&#45;&gt;/lib/models/project_node.dart -->
<g id="edge44" class="edge">
<title>/lib/panels/left/organized_panel.dart&#45;&gt;/lib/models/project_node.dart</title>
<path fill="none" stroke="#aabbaa" stroke-width="1.3" stroke-opacity="0.533333" d="M602.76,-360.54C576.87,-322.45 524.01,-231.1 571.38,-179 584,-165.13 637.27,-175.85 655.38,-171 677.07,-165.19 699.88,-155.27 718.68,-145.96"/>
<polygon fill="#aabbaa" fill-opacity="0.533333" stroke="#aabbaa" stroke-width="1.3" stroke-opacity="0.533333" points="720.17,-149.13 727.49,-141.47 716.99,-142.89 720.17,-149.13"/>
</g>
<!-- /lib/widgets/message_widget.dart -->
<g id="node32" class="node">
<title>/lib/widgets/message_widget.dart</title>
<path fill="Lavender" stroke="black" stroke-width="1.3" d="M1396.26,-314C1396.26,-314 1292.51,-314 1292.51,-314 1286.51,-314 1280.51,-308 1280.51,-302 1280.51,-302 1280.51,-290 1280.51,-290 1280.51,-284 1286.51,-278 1292.51,-278 1292.51,-278 1396.26,-278 1396.26,-278 1402.26,-278 1408.26,-284 1408.26,-290 1408.26,-290 1408.26,-302 1408.26,-302 1408.26,-308 1402.26,-314 1396.26,-314"/>
<text xml:space="preserve" text-anchor="middle" x="1344.38" y="-290.75" font-family="Arial" font-size="15.00">message_widget</text>
</g>
<!-- /lib/utils/message_helper.dart&#45;&gt;/lib/widgets/message_widget.dart -->
<g id="edge46" class="edge">
<title>/lib/utils/message_helper.dart&#45;&gt;/lib/widgets/message_widget.dart</title>
<path fill="none" stroke="#aabbaa" stroke-width="1.3" stroke-opacity="0.533333" d="M1193.66,-231.48C1207.37,-241.55 1225.65,-253.8 1243.38,-262 1255.13,-267.43 1259.03,-266.12 1271.38,-270 1275.2,-271.2 1279.13,-272.46 1283.08,-273.75"/>
<polygon fill="#aabbaa" fill-opacity="0.533333" stroke="#aabbaa" stroke-width="1.3" stroke-opacity="0.533333" points="1281.77,-277 1292.36,-276.83 1283.97,-270.36 1281.77,-277"/>
</g>
<!-- /lib/models/project_node.dart&#45;&gt;/lib/models/file_system_item.dart -->
<g id="edge47" class="edge">
<title>/lib/models/project_node.dart&#45;&gt;/lib/models/file_system_item.dart</title>
<path fill="none" stroke="#aabbaa" stroke-width="1.3" stroke-opacity="0.533333" d="M763.59,-103.7C764.91,-96.6 766.48,-88.18 767.96,-80.18"/>
<polygon fill="#aabbaa" fill-opacity="0.533333" stroke="#aabbaa" stroke-width="1.3" stroke-opacity="0.533333" points="771.37,-81 769.76,-70.53 764.49,-79.72 771.37,-81"/>
</g>
<!-- /lib/screens/main_layout.dart -->
<g id="node22" class="node">
<title>/lib/screens/main_layout.dart</title>
<path fill="Lavender" stroke="black" stroke-width="1.3" d="M1468.51,-480C1468.51,-480 1396.26,-480 1396.26,-480 1390.26,-480 1384.26,-474 1384.26,-468 1384.26,-468 1384.26,-456 1384.26,-456 1384.26,-450 1390.26,-444 1396.26,-444 1396.26,-444 1468.51,-444 1468.51,-444 1474.51,-444 1480.51,-450 1480.51,-456 1480.51,-456 1480.51,-468 1480.51,-468 1480.51,-474 1474.51,-480 1468.51,-480"/>
<text xml:space="preserve" text-anchor="middle" x="1432.38" y="-456.75" font-family="Arial" font-size="15.00">main_layout</text>
</g>
<!-- /lib/screens/main_layout.dart&#45;&gt;/lib/providers/app_providers.dart -->
<g id="edge49" class="edge">
<title>/lib/screens/main_layout.dart&#45;&gt;/lib/providers/app_providers.dart</title>
<path fill="none" stroke="#aabbaa" stroke-width="1.3" stroke-opacity="0.533333" d="M1448.72,-443.42C1467.35,-422.05 1496.75,-383.99 1508.38,-345 1517.91,-313.06 1522.92,-299.99 1508.38,-270 1502.29,-257.44 1491.86,-246.84 1480.84,-238.37"/>
<polygon fill="#aabbaa" fill-opacity="0.533333" stroke="#aabbaa" stroke-width="1.3" stroke-opacity="0.533333" points="1482.89,-235.53 1472.71,-232.6 1478.84,-241.24 1482.89,-235.53"/>
</g>
<!-- /lib/screens/main_layout.dart&#45;&gt;/lib/panels/right/right_panel.dart -->
<g id="edge56" class="edge">
<title>/lib/screens/main_layout.dart&#45;&gt;/lib/panels/right/right_panel.dart</title>
<path fill="none" stroke="#aabbaa" stroke-width="1.3" stroke-opacity="0.533333" d="M1426.12,-480.27C1417.09,-502.9 1397.95,-539.3 1366.38,-546 1353.15,-548.81 405.61,-548.81 392.38,-546 354.41,-537.94 318.79,-510.18 295.96,-488.75"/>
<polygon fill="#aabbaa" fill-opacity="0.533333" stroke="#aabbaa" stroke-width="1.3" stroke-opacity="0.533333" points="298.6,-486.43 288.99,-481.98 293.73,-491.46 298.6,-486.43"/>
</g>
<!-- /lib/screens/main_layout.dart&#45;&gt;/lib/panels/center/editor_screen.dart -->
<g id="edge48" class="edge">
<title>/lib/screens/main_layout.dart&#45;&gt;/lib/panels/center/editor_screen.dart</title>
<path fill="none" stroke="#aabbaa" stroke-width="1.3" stroke-opacity="0.533333" d="M1397.82,-443.38C1390.58,-440.39 1382.86,-437.71 1375.38,-436 1351.1,-430.46 1170.86,-443.52 1151.38,-428 1124.4,-406.5 1158.26,-374.63 1131.38,-353 1115.96,-340.59 971.97,-351.82 953.38,-345 940.08,-340.11 927.34,-331.26 916.9,-322.48"/>
<polygon fill="#aabbaa" fill-opacity="0.533333" stroke="#aabbaa" stroke-width="1.3" stroke-opacity="0.533333" points="919.28,-319.91 909.49,-315.86 914.62,-325.13 919.28,-319.91"/>
</g>
<!-- /lib/screens/main_layout.dart&#45;&gt;/lib/panels/center/center_panel.dart -->
<g id="edge55" class="edge">
<title>/lib/screens/main_layout.dart&#45;&gt;/lib/panels/center/center_panel.dart</title>
<path fill="none" stroke="#aabbaa" stroke-width="1.3" stroke-opacity="0.533333" d="M1397.82,-443.36C1390.58,-440.38 1382.86,-437.7 1375.38,-436 1322.47,-424 1184.22,-440.31 1131.38,-428 1108.91,-422.76 1085.39,-412.64 1066.23,-403.04"/>
<polygon fill="#aabbaa" fill-opacity="0.533333" stroke="#aabbaa" stroke-width="1.3" stroke-opacity="0.533333" points="1068.02,-400.03 1057.53,-398.55 1064.81,-406.25 1068.02,-400.03"/>
</g>
<!-- /lib/screens/main_layout.dart&#45;&gt;/lib/panels/left/left_panel.dart -->
<g id="edge54" class="edge">
<title>/lib/screens/main_layout.dart&#45;&gt;/lib/panels/left/left_panel.dart</title>
<path fill="none" stroke="#aabbaa" stroke-width="1.3" stroke-opacity="0.533333" d="M1426.12,-480.27C1417.09,-502.9 1397.95,-539.3 1366.38,-546 1338.01,-552.02 1134.22,-549.03 1105.38,-546 980.79,-532.9 837.68,-497.16 762.61,-476.77"/>
<polygon fill="#aabbaa" fill-opacity="0.533333" stroke="#aabbaa" stroke-width="1.3" stroke-opacity="0.533333" points="763.62,-473.42 753.05,-474.16 761.77,-480.17 763.62,-473.42"/>
</g>
<!-- /lib/screens/main_layout.dart&#45;&gt;/lib/utils/file_type_utils.dart -->
<g id="edge52" class="edge">
<title>/lib/screens/main_layout.dart&#45;&gt;/lib/utils/file_type_utils.dart</title>
<path fill="none" stroke="#aabbaa" stroke-width="1.3" stroke-opacity="0.533333" d="M1397.14,-443.39C1390.08,-440.48 1382.61,-437.82 1375.38,-436 1332.58,-425.21 1318.53,-441.13 1276.38,-428 1212.7,-408.16 1207.22,-380.35 1146.38,-353 1136.13,-348.39 1128.96,-354.12 1122.38,-345 1102.89,-317.96 1099.6,-294.34 1122.38,-270 1131.59,-260.16 1230.78,-266.78 1243.38,-262 1256.63,-256.97 1269.36,-248.1 1279.8,-239.33"/>
<polygon fill="#aabbaa" fill-opacity="0.533333" stroke="#aabbaa" stroke-width="1.3" stroke-opacity="0.533333" points="1282.08,-241.99 1287.22,-232.73 1277.42,-236.76 1282.08,-241.99"/>
</g>
<!-- /lib/screens/main_layout.dart&#45;&gt;/lib/models/document_state.dart -->
<g id="edge51" class="edge">
<title>/lib/screens/main_layout.dart&#45;&gt;/lib/models/document_state.dart</title>
<path fill="none" stroke="#aabbaa" stroke-width="1.3" stroke-opacity="0.533333" d="M1470.41,-443.49C1477.05,-439.15 1483.41,-433.99 1488.38,-428 1559.19,-342.65 1585.17,-254.96 1504.38,-179 1465.8,-142.72 1119.48,-129.05 965.09,-124.73"/>
<polygon fill="#aabbaa" fill-opacity="0.533333" stroke="#aabbaa" stroke-width="1.3" stroke-opacity="0.533333" points="965.48,-121.24 955.39,-124.46 965.29,-128.23 965.48,-121.24"/>
</g>
<!-- /lib/screens/main_layout.dart&#45;&gt;/lib/models/file_system_item.dart -->
<g id="edge50" class="edge">
<title>/lib/screens/main_layout.dart&#45;&gt;/lib/models/file_system_item.dart</title>
<path fill="none" stroke="#aabbaa" stroke-width="1.3" stroke-opacity="0.533333" d="M1480.74,-449.66C1493.86,-444.73 1507.23,-437.77 1517.38,-428 1597.31,-351.13 1610.49,-258.7 1533.38,-179 1439.69,-82.17 1023.05,-58.47 849.58,-52.77"/>
<polygon fill="#aabbaa" fill-opacity="0.533333" stroke="#aabbaa" stroke-width="1.3" stroke-opacity="0.533333" points="849.84,-49.28 839.73,-52.46 849.61,-56.27 849.84,-49.28"/>
</g>
<!-- /lib/screens/main_layout.dart&#45;&gt;/lib/widgets/resizable_splitter.dart -->
<g id="edge53" class="edge">
<title>/lib/screens/main_layout.dart&#45;&gt;/lib/widgets/resizable_splitter.dart</title>
<path fill="none" stroke="#aabbaa" stroke-width="1.3" stroke-opacity="0.533333" d="M1407.34,-443.45C1365.29,-413.98 1280.44,-354.51 1232.81,-321.13"/>
<polygon fill="#aabbaa" fill-opacity="0.533333" stroke="#aabbaa" stroke-width="1.3" stroke-opacity="0.533333" points="1235.05,-318.43 1224.85,-315.55 1231.03,-324.16 1235.05,-318.43"/>
</g>
<!-- /lib/main.dart&#45;&gt;/lib/providers/app_providers.dart -->
<g id="edge57" class="edge">
<title>/lib/main.dart&#45;&gt;/lib/providers/app_providers.dart</title>
<path fill="none" stroke="#aabbaa" stroke-width="1.3" stroke-opacity="0.533333" d="M1329.72,-565.66C1383.38,-562.75 1498.32,-555.06 1510.38,-542 1592.45,-453.17 1574.55,-377.11 1518.38,-270 1511.49,-256.86 1499.96,-246.19 1487.73,-237.83"/>
<polygon fill="#aabbaa" fill-opacity="0.533333" stroke="#aabbaa" stroke-width="1.3" stroke-opacity="0.533333" points="1489.84,-235.02 1479.51,-232.66 1486.12,-240.95 1489.84,-235.02"/>
</g>
<!-- /lib/main.dart&#45;&gt;/lib/panels/center/editor_screen.dart -->
<g id="edge60" class="edge">
<title>/lib/main.dart&#45;&gt;/lib/panels/center/editor_screen.dart</title>
<path fill="none" stroke="#aabbaa" stroke-width="1.3" stroke-opacity="0.533333" d="M1274.77,-565.08C1258.22,-562.41 1238.17,-556.22 1226.38,-542 1196.05,-505.42 1246.61,-468.97 1212.38,-436 1198.72,-422.84 1143.28,-438.35 1127.38,-428 1095.36,-407.16 1117.74,-373.31 1085.38,-353 1060.49,-337.38 980.89,-355.34 953.38,-345 940.11,-340.01 927.38,-331.14 916.95,-322.37"/>
<polygon fill="#aabbaa" fill-opacity="0.533333" stroke="#aabbaa" stroke-width="1.3" stroke-opacity="0.533333" points="919.32,-319.8 909.53,-315.77 914.67,-325.03 919.32,-319.8"/>
</g>
<!-- /lib/main.dart&#45;&gt;/lib/screens/main_layout.dart -->
<g id="edge58" class="edge">
<title>/lib/main.dart&#45;&gt;/lib/screens/main_layout.dart</title>
<path fill="none" stroke="#aabbaa" stroke-width="1.3" stroke-opacity="0.533333" d="M1329.95,-561.8C1344.49,-558.07 1362.04,-551.89 1375.38,-542 1393.44,-528.62 1408.11,-507.84 1418.04,-490.95"/>
<polygon fill="#aabbaa" fill-opacity="0.533333" stroke="#aabbaa" stroke-width="1.3" stroke-opacity="0.533333" points="1421.08,-492.69 1422.91,-482.25 1414.97,-489.27 1421.08,-492.69"/>
</g>
<!-- /lib/main.dart&#45;&gt;/lib/screens/welcome_screen.dart -->
<g id="edge61" class="edge">
<title>/lib/main.dart&#45;&gt;/lib/screens/welcome_screen.dart</title>
<path fill="none" stroke="#aabbaa" stroke-width="1.3" stroke-opacity="0.533333" d="M1302.38,-549.36C1302.38,-533.73 1302.38,-510.59 1302.38,-492.2"/>
<polygon fill="#aabbaa" fill-opacity="0.533333" stroke="#aabbaa" stroke-width="1.3" stroke-opacity="0.533333" points="1305.88,-492.35 1302.38,-482.35 1298.88,-492.35 1305.88,-492.35"/>
</g>
<!-- /lib/theme/app_theme.dart -->
<g id="node25" class="node">
<title>/lib/theme/app_theme.dart</title>
<path fill="Lavender" stroke="black" stroke-width="1.3" d="M1187.88,-480C1187.88,-480 1120.88,-480 1120.88,-480 1114.88,-480 1108.88,-474 1108.88,-468 1108.88,-468 1108.88,-456 1108.88,-456 1108.88,-450 1114.88,-444 1120.88,-444 1120.88,-444 1187.88,-444 1187.88,-444 1193.88,-444 1199.88,-450 1199.88,-456 1199.88,-456 1199.88,-468 1199.88,-468 1199.88,-474 1193.88,-480 1187.88,-480"/>
<text xml:space="preserve" text-anchor="middle" x="1154.38" y="-456.75" font-family="Arial" font-size="15.00">app_theme</text>
</g>
<!-- /lib/main.dart&#45;&gt;/lib/theme/app_theme.dart -->
<g id="edge63" class="edge">
<title>/lib/main.dart&#45;&gt;/lib/theme/app_theme.dart</title>
<path fill="none" stroke="#aabbaa" stroke-width="1.3" stroke-opacity="0.533333" d="M1275.14,-565.46C1254.08,-563.08 1225.12,-557.06 1204.38,-542 1186.82,-529.25 1173.96,-508.26 1165.69,-491.13"/>
<polygon fill="#aabbaa" fill-opacity="0.533333" stroke="#aabbaa" stroke-width="1.3" stroke-opacity="0.533333" points="1169.02,-490.01 1161.72,-482.34 1162.65,-492.89 1169.02,-490.01"/>
</g>
<!-- /lib/main.dart&#45;&gt;/lib/services/git_service.dart -->
<g id="edge62" class="edge">
<title>/lib/main.dart&#45;&gt;/lib/services/git_service.dart</title>
<path fill="none" stroke="#aabbaa" stroke-width="1.3" stroke-opacity="0.533333" d="M1274.84,-566.88C1103.21,-566.08 186.86,-560.93 165.38,-542 43.72,-434.78 69.63,-272.15 202.38,-179 217.41,-168.46 350.42,-178.02 367.38,-171 379.08,-166.16 389.87,-157.56 398.62,-148.96"/>
<polygon fill="#aabbaa" fill-opacity="0.533333" stroke="#aabbaa" stroke-width="1.3" stroke-opacity="0.533333" points="400.95,-151.59 405.29,-141.93 395.87,-146.77 400.95,-151.59"/>
</g>
<!-- /lib/widgets/title_bar.dart -->
<g id="node31" class="node">
<title>/lib/widgets/title_bar.dart</title>
<path fill="Lavender" stroke="black" stroke-width="1.3" d="M1484.01,-314C1484.01,-314 1438.76,-314 1438.76,-314 1432.76,-314 1426.76,-308 1426.76,-302 1426.76,-302 1426.76,-290 1426.76,-290 1426.76,-284 1432.76,-278 1438.76,-278 1438.76,-278 1484.01,-278 1484.01,-278 1490.01,-278 1496.01,-284 1496.01,-290 1496.01,-290 1496.01,-302 1496.01,-302 1496.01,-308 1490.01,-314 1484.01,-314"/>
<text xml:space="preserve" text-anchor="middle" x="1461.38" y="-290.75" font-family="Arial" font-size="15.00">title_bar</text>
</g>
<!-- /lib/main.dart&#45;&gt;/lib/widgets/title_bar.dart -->
<g id="edge59" class="edge">
<title>/lib/main.dart&#45;&gt;/lib/widgets/title_bar.dart</title>
<path fill="none" stroke="#aabbaa" stroke-width="1.3" stroke-opacity="0.533333" d="M1329.98,-567.61C1377.47,-568.01 1471.6,-565.7 1492.38,-542 1546.26,-480.57 1502.73,-374.82 1476.97,-324.78"/>
<polygon fill="#aabbaa" fill-opacity="0.533333" stroke="#aabbaa" stroke-width="1.3" stroke-opacity="0.533333" points="1480.18,-323.36 1472.4,-316.17 1474,-326.64 1480.18,-323.36"/>
</g>
<!-- /lib/services/file_system_service.dart&#45;&gt;/lib/models/file_system_item.dart -->
<g id="edge64" class="edge">
<title>/lib/services/file_system_service.dart&#45;&gt;/lib/models/file_system_item.dart</title>
<path fill="none" stroke="#aabbaa" stroke-width="1.3" stroke-opacity="0.533333" d="M237.11,-103.36C247.08,-100.53 257.48,-97.91 267.38,-96 418,-66.93 597.52,-56.59 697.15,-52.95"/>
<polygon fill="#aabbaa" fill-opacity="0.533333" stroke="#aabbaa" stroke-width="1.3" stroke-opacity="0.533333" points="697.06,-56.45 706.93,-52.6 696.81,-49.46 697.06,-56.45"/>
</g>
<!-- /lib/services/editor_service.dart -->
<g id="node29" class="node">
<title>/lib/services/editor_service.dart</title>
<path fill="Lavender" stroke="black" stroke-width="1.3" d="M578.88,-140C578.88,-140 493.88,-140 493.88,-140 487.88,-140 481.88,-134 481.88,-128 481.88,-128 481.88,-116 481.88,-116 481.88,-110 487.88,-104 493.88,-104 493.88,-104 578.88,-104 578.88,-104 584.88,-104 590.88,-110 590.88,-116 590.88,-116 590.88,-128 590.88,-128 590.88,-134 584.88,-140 578.88,-140"/>
<text xml:space="preserve" text-anchor="middle" x="536.38" y="-116.75" font-family="Arial" font-size="15.00">editor_service</text>
</g>
<!-- /lib/widgets/title_bar.dart&#45;&gt;/lib/providers/app_providers.dart -->
<g id="edge65" class="edge">
<title>/lib/widgets/title_bar.dart&#45;&gt;/lib/providers/app_providers.dart</title>
<path fill="none" stroke="#aabbaa" stroke-width="1.3" stroke-opacity="0.533333" d="M1456.17,-277.42C1453.19,-267.34 1449.36,-254.43 1445.94,-242.89"/>
<polygon fill="#aabbaa" fill-opacity="0.533333" stroke="#aabbaa" stroke-width="1.3" stroke-opacity="0.533333" points="1449.33,-242.02 1443.14,-233.43 1442.62,-244.01 1449.33,-242.02"/>
</g>
<!-- /tool/sort_source.dart -->
<g id="node33" class="node">
<title>/tool/sort_source.dart</title>
<path fill="Lavender" stroke="black" stroke-width="1.3" d="M1509.76,-669C1509.76,-669 1439.01,-669 1439.01,-669 1433.01,-669 1427.01,-663 1427.01,-657 1427.01,-657 1427.01,-645 1427.01,-645 1427.01,-639 1433.01,-633 1439.01,-633 1439.01,-633 1509.76,-633 1509.76,-633 1515.76,-633 1521.76,-639 1521.76,-645 1521.76,-645 1521.76,-657 1521.76,-657 1521.76,-663 1515.76,-669 1509.76,-669"/>
<text xml:space="preserve" text-anchor="middle" x="1474.38" y="-645.75" font-family="Arial" font-size="15.00">sort_source</text>
</g>
</g>
</svg>
