<?xml version="1.0" encoding="UTF-8" standalone="no"?>
<!DOCTYPE svg PUBLIC "-//W3C//DTD SVG 1.1//EN"
 "http://www.w3.org/Graphics/SVG/1.1/DTD/svg11.dtd">
<!-- Generated by graphviz version 13.1.1 (20250719.2154)
 -->
<!-- Pages: 1 -->
<svg width="1358pt" height="545pt"
 viewBox="0.00 0.00 1358.00 545.00" xmlns="http://www.w3.org/2000/svg" xmlns:xlink="http://www.w3.org/1999/xlink">
<g id="graph0" class="graph" transform="scale(1 1) rotate(0) translate(4 541)">
<polygon fill="white" stroke="none" points="-4,4 -4,-541 1354,-541 1354,4 -4,4"/>
<g id="clust1" class="cluster">
<title>cluster~</title>
<path fill="none" stroke="lightgray" stroke-width="2.6" d="M20,-8C20,-8 1330,-8 1330,-8 1336,-8 1342,-14 1342,-20 1342,-20 1342,-517 1342,-517 1342,-523 1336,-529 1330,-529 1330,-529 20,-529 20,-529 14,-529 8,-523 8,-517 8,-517 8,-20 8,-20 8,-14 14,-8 20,-8"/>
<text xml:space="preserve" text-anchor="middle" x="675" y="-512.65" font-family="Arial Black" font-size="13.00">fide</text>
</g>
<g id="clust2" class="cluster">
<title>cluster~/test</title>
<path fill="none" stroke="lightgray" stroke-width="2.6" d="M499,-423C499,-423 583,-423 583,-423 589,-423 595,-429 595,-435 595,-435 595,-486 595,-486 595,-492 589,-498 583,-498 583,-498 499,-498 499,-498 493,-498 487,-492 487,-486 487,-486 487,-435 487,-435 487,-429 493,-423 499,-423"/>
<text xml:space="preserve" text-anchor="middle" x="541" y="-481.65" font-family="Arial Black" font-size="13.00">test</text>
</g>
<g id="clust3" class="cluster">
<title>cluster~/lib</title>
<path fill="none" stroke="lightgray" stroke-width="2.6" d="M28,-16C28,-16 1322,-16 1322,-16 1328,-16 1334,-22 1334,-28 1334,-28 1334,-403 1334,-403 1334,-409 1328,-415 1322,-415 1322,-415 28,-415 28,-415 22,-415 16,-409 16,-403 16,-403 16,-28 16,-28 16,-22 22,-16 28,-16"/>
<text xml:space="preserve" text-anchor="middle" x="675" y="-398.65" font-family="Arial Black" font-size="13.00">lib</text>
</g>
<g id="clust4" class="cluster">
<title>cluster~/lib/providers</title>
<path fill="none" stroke="lightgray" stroke-width="2.6" d="M490,-190C490,-190 592,-190 592,-190 598,-190 604,-196 604,-202 604,-202 604,-253 604,-253 604,-259 598,-265 592,-265 592,-265 490,-265 490,-265 484,-265 478,-259 478,-253 478,-253 478,-202 478,-202 478,-196 484,-190 490,-190"/>
<text xml:space="preserve" text-anchor="middle" x="541" y="-248.65" font-family="Arial Black" font-size="13.00">providers</text>
</g>
<g id="clust5" class="cluster">
<title>cluster~/lib/utils</title>
<path fill="none" stroke="lightgray" stroke-width="2.6" d="M278,-24C278,-24 520,-24 520,-24 526,-24 532,-30 532,-36 532,-36 532,-87 532,-87 532,-93 526,-99 520,-99 520,-99 278,-99 278,-99 272,-99 266,-93 266,-87 266,-87 266,-36 266,-36 266,-30 272,-24 278,-24"/>
<text xml:space="preserve" text-anchor="middle" x="399" y="-82.65" font-family="Arial Black" font-size="13.00">utils</text>
</g>
<g id="clust6" class="cluster">
<title>cluster~/lib/models</title>
<path fill="none" stroke="lightgray" stroke-width="2.6" d="M552,-24C552,-24 672,-24 672,-24 678,-24 684,-30 684,-36 684,-36 684,-170 684,-170 684,-176 678,-182 672,-182 672,-182 552,-182 552,-182 546,-182 540,-176 540,-170 540,-170 540,-36 540,-36 540,-30 546,-24 552,-24"/>
<text xml:space="preserve" text-anchor="middle" x="612" y="-165.65" font-family="Arial Black" font-size="13.00">models</text>
</g>
<g id="clust7" class="cluster">
<title>cluster~/lib/screens</title>
<path fill="none" stroke="lightgray" stroke-width="2.6" d="M88,-107C88,-107 426,-107 426,-107 432,-107 438,-113 438,-119 438,-119 438,-253 438,-253 438,-259 432,-265 426,-265 426,-265 88,-265 88,-265 82,-265 76,-259 76,-253 76,-253 76,-119 76,-119 76,-113 82,-107 88,-107"/>
<text xml:space="preserve" text-anchor="middle" x="257" y="-248.65" font-family="Arial Black" font-size="13.00">screens</text>
</g>
<g id="clust8" class="cluster">
<title>cluster~/lib/theme</title>
<path fill="none" stroke="lightgray" stroke-width="2.6" d="M36,-24C36,-24 120,-24 120,-24 126,-24 132,-30 132,-36 132,-36 132,-87 132,-87 132,-93 126,-99 120,-99 120,-99 36,-99 36,-99 30,-99 24,-93 24,-87 24,-87 24,-36 24,-36 24,-30 30,-24 36,-24"/>
<text xml:space="preserve" text-anchor="middle" x="78" y="-82.65" font-family="Arial Black" font-size="13.00">theme</text>
</g>
<g id="clust9" class="cluster">
<title>cluster~/lib/services</title>
<path fill="none" stroke="lightgray" stroke-width="2.6" d="M712,-107C712,-107 1084,-107 1084,-107 1090,-107 1096,-113 1096,-119 1096,-119 1096,-170 1096,-170 1096,-176 1090,-182 1084,-182 1084,-182 712,-182 712,-182 706,-182 700,-176 700,-170 700,-170 700,-119 700,-119 700,-113 706,-107 712,-107"/>
<text xml:space="preserve" text-anchor="middle" x="898" y="-165.65" font-family="Arial Black" font-size="13.00">services</text>
</g>
<g id="clust10" class="cluster">
<title>cluster~/lib/widgets</title>
<path fill="none" stroke="lightgray" stroke-width="2.6" d="M698,-190C698,-190 1302,-190 1302,-190 1308,-190 1314,-196 1314,-202 1314,-202 1314,-328 1314,-328 1314,-334 1308,-340 1302,-340 1302,-340 698,-340 698,-340 692,-340 686,-334 686,-328 686,-328 686,-202 686,-202 686,-196 692,-190 698,-190"/>
<text xml:space="preserve" text-anchor="middle" x="1000" y="-323.65" font-family="Arial Black" font-size="13.00">widgets</text>
</g>
<g id="clust11" class="cluster">
<title>cluster~/tool</title>
<path fill="none" stroke="lightgray" stroke-width="2.6" d="M925,-423C925,-423 1011,-423 1011,-423 1017,-423 1023,-429 1023,-435 1023,-435 1023,-486 1023,-486 1023,-492 1017,-498 1011,-498 1011,-498 925,-498 925,-498 919,-498 913,-492 913,-486 913,-486 913,-435 913,-435 913,-429 919,-423 925,-423"/>
<text xml:space="preserve" text-anchor="middle" x="968" y="-481.65" font-family="Arial Black" font-size="13.00">tool</text>
</g>
<!-- /test/widget_test.dart -->
<g id="node1" class="node">
<title>/test/widget_test.dart</title>
<path fill="Lavender" stroke="black" stroke-width="1.3" d="M574.88,-467C574.88,-467 507.12,-467 507.12,-467 501.12,-467 495.12,-461 495.12,-455 495.12,-455 495.12,-443 495.12,-443 495.12,-437 501.12,-431 507.12,-431 507.12,-431 574.88,-431 574.88,-431 580.88,-431 586.88,-437 586.88,-443 586.88,-443 586.88,-455 586.88,-455 586.88,-461 580.88,-467 574.88,-467"/>
<text xml:space="preserve" text-anchor="middle" x="541" y="-443.75" font-family="Arial" font-size="15.00">widget_test</text>
</g>
<!-- /lib/main.dart -->
<g id="node12" class="node">
<title>/lib/main.dart</title>
<path fill="Lavender" stroke="black" stroke-width="1.3" d="M556,-384C556,-384 526,-384 526,-384 520,-384 514,-378 514,-372 514,-372 514,-360 514,-360 514,-354 520,-348 526,-348 526,-348 556,-348 556,-348 562,-348 568,-354 568,-360 568,-360 568,-372 568,-372 568,-378 562,-384 556,-384"/>
<text xml:space="preserve" text-anchor="middle" x="541" y="-360.75" font-family="Arial" font-size="15.00">main</text>
</g>
<!-- /test/widget_test.dart&#45;&gt;/lib/main.dart -->
<g id="edge1" class="edge">
<title>/test/widget_test.dart&#45;&gt;/lib/main.dart</title>
<path fill="none" stroke="#aabbaa" stroke-width="1.3" stroke-opacity="0.533333" d="M541,-430.42C541,-420.45 541,-407.7 541,-396.26"/>
<polygon fill="#aabbaa" fill-opacity="0.533333" stroke="#aabbaa" stroke-width="1.3" stroke-opacity="0.533333" points="544.5,-396.51 541,-386.51 537.5,-396.51 544.5,-396.51"/>
</g>
<!-- /lib/providers/app_providers.dart -->
<g id="node2" class="node">
<title>/lib/providers/app_providers.dart</title>
<path fill="Lavender" stroke="black" stroke-width="1.3" d="M584.25,-234C584.25,-234 497.75,-234 497.75,-234 491.75,-234 485.75,-228 485.75,-222 485.75,-222 485.75,-210 485.75,-210 485.75,-204 491.75,-198 497.75,-198 497.75,-198 584.25,-198 584.25,-198 590.25,-198 596.25,-204 596.25,-210 596.25,-210 596.25,-222 596.25,-222 596.25,-228 590.25,-234 584.25,-234"/>
<text xml:space="preserve" text-anchor="middle" x="541" y="-210.75" font-family="Arial" font-size="15.00">app_providers</text>
</g>
<!-- /lib/models/project_node.dart -->
<g id="node5" class="node">
<title>/lib/models/project_node.dart</title>
<path fill="Lavender" stroke="black" stroke-width="1.3" d="M638.12,-151C638.12,-151 559.88,-151 559.88,-151 553.88,-151 547.88,-145 547.88,-139 547.88,-139 547.88,-127 547.88,-127 547.88,-121 553.88,-115 559.88,-115 559.88,-115 638.12,-115 638.12,-115 644.12,-115 650.12,-121 650.12,-127 650.12,-127 650.12,-139 650.12,-139 650.12,-145 644.12,-151 638.12,-151"/>
<text xml:space="preserve" text-anchor="middle" x="599" y="-127.75" font-family="Arial" font-size="15.00">project_node</text>
</g>
<!-- /lib/providers/app_providers.dart&#45;&gt;/lib/models/project_node.dart -->
<g id="edge3" class="edge">
<title>/lib/providers/app_providers.dart&#45;&gt;/lib/models/project_node.dart</title>
<path fill="none" stroke="#aabbaa" stroke-width="1.3" stroke-opacity="0.533333" d="M553.59,-197.42C561.19,-186.81 571.03,-173.06 579.61,-161.08"/>
<polygon fill="#aabbaa" fill-opacity="0.533333" stroke="#aabbaa" stroke-width="1.3" stroke-opacity="0.533333" points="582.32,-163.31 585.29,-153.14 576.63,-159.23 582.32,-163.31"/>
</g>
<!-- /lib/models/file_system_item.dart -->
<g id="node6" class="node">
<title>/lib/models/file_system_item.dart</title>
<path fill="Lavender" stroke="black" stroke-width="1.3" d="M663.88,-68C663.88,-68 560.12,-68 560.12,-68 554.12,-68 548.12,-62 548.12,-56 548.12,-56 548.12,-44 548.12,-44 548.12,-38 554.12,-32 560.12,-32 560.12,-32 663.88,-32 663.88,-32 669.88,-32 675.88,-38 675.88,-44 675.88,-44 675.88,-56 675.88,-56 675.88,-62 669.88,-68 663.88,-68"/>
<text xml:space="preserve" text-anchor="middle" x="612" y="-44.75" font-family="Arial" font-size="15.00">file_system_item</text>
</g>
<!-- /lib/providers/app_providers.dart&#45;&gt;/lib/models/file_system_item.dart -->
<g id="edge2" class="edge">
<title>/lib/providers/app_providers.dart&#45;&gt;/lib/models/file_system_item.dart</title>
<path fill="none" stroke="#aabbaa" stroke-width="1.3" stroke-opacity="0.533333" d="M578.24,-197.47C585.35,-194.62 592.81,-191.97 600,-190 612.76,-186.5 650.3,-191.96 659,-182 680.93,-156.9 670.4,-138.32 659,-107 655.05,-96.14 647.96,-85.92 640.47,-77.26"/>
<polygon fill="#aabbaa" fill-opacity="0.533333" stroke="#aabbaa" stroke-width="1.3" stroke-opacity="0.533333" points="643.03,-74.88 633.65,-69.95 637.91,-79.65 643.03,-74.88"/>
</g>
<!-- /lib/utils/message_helper.dart -->
<g id="node3" class="node">
<title>/lib/utils/message_helper.dart</title>
<path fill="Lavender" stroke="black" stroke-width="1.3" d="M388.12,-68C388.12,-68 285.88,-68 285.88,-68 279.88,-68 273.88,-62 273.88,-56 273.88,-56 273.88,-44 273.88,-44 273.88,-38 279.88,-32 285.88,-32 285.88,-32 388.12,-32 388.12,-32 394.12,-32 400.12,-38 400.12,-44 400.12,-44 400.12,-56 400.12,-56 400.12,-62 394.12,-68 388.12,-68"/>
<text xml:space="preserve" text-anchor="middle" x="337" y="-44.75" font-family="Arial" font-size="15.00">message_helper</text>
</g>
<!-- /lib/widgets/message_widget.dart -->
<g id="node21" class="node">
<title>/lib/widgets/message_widget.dart</title>
<path fill="Lavender" stroke="black" stroke-width="1.3" d="M809.88,-309C809.88,-309 706.12,-309 706.12,-309 700.12,-309 694.12,-303 694.12,-297 694.12,-297 694.12,-285 694.12,-285 694.12,-279 700.12,-273 706.12,-273 706.12,-273 809.88,-273 809.88,-273 815.88,-273 821.88,-279 821.88,-285 821.88,-285 821.88,-297 821.88,-297 821.88,-303 815.88,-309 809.88,-309"/>
<text xml:space="preserve" text-anchor="middle" x="758" y="-285.75" font-family="Arial" font-size="15.00">message_widget</text>
</g>
<!-- /lib/utils/message_helper.dart&#45;&gt;/lib/widgets/message_widget.dart -->
<g id="edge4" class="edge">
<title>/lib/utils/message_helper.dart&#45;&gt;/lib/widgets/message_widget.dart</title>
<path fill="none" stroke="#aabbaa" stroke-width="1.3" stroke-opacity="0.533333" d="M358.39,-68.59C372.08,-78.97 390.64,-91.5 409,-99 426.59,-106.19 438.38,-92.79 451,-107 497.73,-159.64 411.38,-216.09 462,-265 470.1,-272.83 633.95,-271.66 681.7,-272.93"/>
<polygon fill="#aabbaa" fill-opacity="0.533333" stroke="#aabbaa" stroke-width="1.3" stroke-opacity="0.533333" points="681.51,-276.43 691.68,-273.45 681.87,-269.44 681.51,-276.43"/>
</g>
<!-- /lib/utils/file_type_utils.dart -->
<g id="node4" class="node">
<title>/lib/utils/file_type_utils.dart</title>
<path fill="Lavender" stroke="black" stroke-width="1.3" d="M512,-68C512,-68 430,-68 430,-68 424,-68 418,-62 418,-56 418,-56 418,-44 418,-44 418,-38 424,-32 430,-32 430,-32 512,-32 512,-32 518,-32 524,-38 524,-44 524,-44 524,-56 524,-56 524,-62 518,-68 512,-68"/>
<text xml:space="preserve" text-anchor="middle" x="471" y="-44.75" font-family="Arial" font-size="15.00">file_type_utils</text>
</g>
<!-- /lib/models/project_node.dart&#45;&gt;/lib/models/file_system_item.dart -->
<g id="edge5" class="edge">
<title>/lib/models/project_node.dart&#45;&gt;/lib/models/file_system_item.dart</title>
<path fill="none" stroke="#aabbaa" stroke-width="1.3" stroke-opacity="0.533333" d="M601.82,-114.42C603.42,-104.45 605.47,-91.7 607.3,-80.26"/>
<polygon fill="#aabbaa" fill-opacity="0.533333" stroke="#aabbaa" stroke-width="1.3" stroke-opacity="0.533333" points="610.74,-80.91 608.87,-70.48 603.83,-79.8 610.74,-80.91"/>
</g>
<!-- /lib/screens/git_panel.dart -->
<g id="node7" class="node">
<title>/lib/screens/git_panel.dart</title>
<path fill="Lavender" stroke="black" stroke-width="1.3" d="M272,-151C272,-151 220,-151 220,-151 214,-151 208,-145 208,-139 208,-139 208,-127 208,-127 208,-121 214,-115 220,-115 220,-115 272,-115 272,-115 278,-115 284,-121 284,-127 284,-127 284,-139 284,-139 284,-145 278,-151 272,-151"/>
<text xml:space="preserve" text-anchor="middle" x="246" y="-127.75" font-family="Arial" font-size="15.00">git_panel</text>
</g>
<!-- /lib/theme/app_theme.dart -->
<g id="node13" class="node">
<title>/lib/theme/app_theme.dart</title>
<path fill="Lavender" stroke="black" stroke-width="1.3" d="M111.5,-68C111.5,-68 44.5,-68 44.5,-68 38.5,-68 32.5,-62 32.5,-56 32.5,-56 32.5,-44 32.5,-44 32.5,-38 38.5,-32 44.5,-32 44.5,-32 111.5,-32 111.5,-32 117.5,-32 123.5,-38 123.5,-44 123.5,-44 123.5,-56 123.5,-56 123.5,-62 117.5,-68 111.5,-68"/>
<text xml:space="preserve" text-anchor="middle" x="78" y="-44.75" font-family="Arial" font-size="15.00">app_theme</text>
</g>
<!-- /lib/screens/git_panel.dart&#45;&gt;/lib/theme/app_theme.dart -->
<g id="edge6" class="edge">
<title>/lib/screens/git_panel.dart&#45;&gt;/lib/theme/app_theme.dart</title>
<path fill="none" stroke="#aabbaa" stroke-width="1.3" stroke-opacity="0.533333" d="M213.5,-114.42C208.66,-111.88 203.72,-109.34 199,-107 175.95,-95.54 150.09,-83.47 128.21,-73.48"/>
<polygon fill="#aabbaa" fill-opacity="0.533333" stroke="#aabbaa" stroke-width="1.3" stroke-opacity="0.533333" points="129.84,-70.38 119.29,-69.43 126.94,-76.75 129.84,-70.38"/>
</g>
<!-- /lib/services/git_service.dart -->
<g id="node14" class="node">
<title>/lib/services/git_service.dart</title>
<path fill="Lavender" stroke="black" stroke-width="1.3" d="M783.62,-151C783.62,-151 720.38,-151 720.38,-151 714.38,-151 708.38,-145 708.38,-139 708.38,-139 708.38,-127 708.38,-127 708.38,-121 714.38,-115 720.38,-115 720.38,-115 783.62,-115 783.62,-115 789.62,-115 795.62,-121 795.62,-127 795.62,-127 795.62,-139 795.62,-139 795.62,-145 789.62,-151 783.62,-151"/>
<text xml:space="preserve" text-anchor="middle" x="752" y="-127.75" font-family="Arial" font-size="15.00">git_service</text>
</g>
<!-- /lib/screens/git_panel.dart&#45;&gt;/lib/services/git_service.dart -->
<g id="edge7" class="edge">
<title>/lib/screens/git_panel.dart&#45;&gt;/lib/services/git_service.dart</title>
<path fill="none" stroke="#aabbaa" stroke-width="1.3" stroke-opacity="0.533333" d="M257.34,-151.42C267.14,-165.05 282.75,-181.92 302,-186 322.81,-190.42 664.19,-190.42 685,-186 701.88,-182.42 717.25,-171.15 729.01,-159.91"/>
<polygon fill="#aabbaa" fill-opacity="0.533333" stroke="#aabbaa" stroke-width="1.3" stroke-opacity="0.533333" points="731.4,-162.47 735.88,-152.87 726.39,-157.58 731.4,-162.47"/>
</g>
<!-- /lib/screens/explorer_screen.dart -->
<g id="node8" class="node">
<title>/lib/screens/explorer_screen.dart</title>
<path fill="Lavender" stroke="black" stroke-width="1.3" d="M415.62,-234C415.62,-234 316.38,-234 316.38,-234 310.38,-234 304.38,-228 304.38,-222 304.38,-222 304.38,-210 304.38,-210 304.38,-204 310.38,-198 316.38,-198 316.38,-198 415.62,-198 415.62,-198 421.62,-198 427.62,-204 427.62,-210 427.62,-210 427.62,-222 427.62,-222 427.62,-228 421.62,-234 415.62,-234"/>
<text xml:space="preserve" text-anchor="middle" x="366" y="-210.75" font-family="Arial" font-size="15.00">explorer_screen</text>
</g>
<!-- /lib/screens/explorer_screen.dart&#45;&gt;/lib/utils/message_helper.dart -->
<g id="edge11" class="edge">
<title>/lib/screens/explorer_screen.dart&#45;&gt;/lib/utils/message_helper.dart</title>
<path fill="none" stroke="#aabbaa" stroke-width="1.3" stroke-opacity="0.533333" d="M423.02,-197.57C429.32,-193.43 434.93,-188.31 439,-182 457.08,-153.99 459.31,-133.43 439,-107 430.59,-96.06 421.58,-104.68 409,-99 395.1,-92.72 380.89,-83.87 368.81,-75.47"/>
<polygon fill="#aabbaa" fill-opacity="0.533333" stroke="#aabbaa" stroke-width="1.3" stroke-opacity="0.533333" points="370.99,-72.72 360.82,-69.74 366.91,-78.41 370.99,-72.72"/>
</g>
<!-- /lib/screens/explorer_screen.dart&#45;&gt;/lib/models/project_node.dart -->
<g id="edge8" class="edge">
<title>/lib/screens/explorer_screen.dart&#45;&gt;/lib/models/project_node.dart</title>
<path fill="none" stroke="#aabbaa" stroke-width="1.3" stroke-opacity="0.533333" d="M428.19,-201.31C449.32,-196.04 472.91,-189.47 494,-182 514.12,-174.87 535.67,-165.37 553.98,-156.7"/>
<polygon fill="#aabbaa" fill-opacity="0.533333" stroke="#aabbaa" stroke-width="1.3" stroke-opacity="0.533333" points="555.37,-159.91 562.86,-152.43 552.33,-153.6 555.37,-159.91"/>
</g>
<!-- /lib/screens/explorer_screen.dart&#45;&gt;/lib/models/file_system_item.dart -->
<g id="edge9" class="edge">
<title>/lib/screens/explorer_screen.dart&#45;&gt;/lib/models/file_system_item.dart</title>
<path fill="none" stroke="#aabbaa" stroke-width="1.3" stroke-opacity="0.533333" d="M419.44,-197.42C430.21,-193.01 441.21,-187.84 451,-182 495.13,-155.66 499.04,-139.32 539,-107 551.96,-96.51 566.49,-85.27 579.16,-75.63"/>
<polygon fill="#aabbaa" fill-opacity="0.533333" stroke="#aabbaa" stroke-width="1.3" stroke-opacity="0.533333" points="581,-78.62 586.85,-69.79 576.77,-73.04 581,-78.62"/>
</g>
<!-- /lib/screens/explorer_screen.dart&#45;&gt;/lib/screens/git_panel.dart -->
<g id="edge13" class="edge">
<title>/lib/screens/explorer_screen.dart&#45;&gt;/lib/screens/git_panel.dart</title>
<path fill="none" stroke="#aabbaa" stroke-width="1.3" stroke-opacity="0.533333" d="M320.18,-197.44C310.83,-193 301.32,-187.82 293,-182 284.21,-175.85 275.66,-167.92 268.33,-160.29"/>
<polygon fill="#aabbaa" fill-opacity="0.533333" stroke="#aabbaa" stroke-width="1.3" stroke-opacity="0.533333" points="271,-158.02 261.66,-153.03 265.85,-162.76 271,-158.02"/>
</g>
<!-- /lib/screens/welcome_screen.dart -->
<g id="node11" class="node">
<title>/lib/screens/welcome_screen.dart</title>
<path fill="Lavender" stroke="black" stroke-width="1.3" d="M417.88,-151C417.88,-151 314.12,-151 314.12,-151 308.12,-151 302.12,-145 302.12,-139 302.12,-139 302.12,-127 302.12,-127 302.12,-121 308.12,-115 314.12,-115 314.12,-115 417.88,-115 417.88,-115 423.88,-115 429.88,-121 429.88,-127 429.88,-127 429.88,-139 429.88,-139 429.88,-145 423.88,-151 417.88,-151"/>
<text xml:space="preserve" text-anchor="middle" x="366" y="-127.75" font-family="Arial" font-size="15.00">welcome_screen</text>
</g>
<!-- /lib/screens/explorer_screen.dart&#45;&gt;/lib/screens/welcome_screen.dart -->
<g id="edge12" class="edge">
<title>/lib/screens/explorer_screen.dart&#45;&gt;/lib/screens/welcome_screen.dart</title>
<path fill="none" stroke="#aabbaa" stroke-width="1.3" stroke-opacity="0.533333" d="M366,-197.42C366,-187.45 366,-174.7 366,-163.26"/>
<polygon fill="#aabbaa" fill-opacity="0.533333" stroke="#aabbaa" stroke-width="1.3" stroke-opacity="0.533333" points="369.5,-163.51 366,-153.51 362.5,-163.51 369.5,-163.51"/>
</g>
<!-- /lib/screens/explorer_screen.dart&#45;&gt;/lib/theme/app_theme.dart -->
<g id="edge14" class="edge">
<title>/lib/screens/explorer_screen.dart&#45;&gt;/lib/theme/app_theme.dart</title>
<path fill="none" stroke="#aabbaa" stroke-width="1.3" stroke-opacity="0.533333" d="M322.01,-197.41C312.88,-194.43 303.23,-191.73 294,-190 282.03,-187.76 83.45,-190.76 75,-182 61.5,-168 67.37,-114.25 72.76,-80.1"/>
<polygon fill="#aabbaa" fill-opacity="0.533333" stroke="#aabbaa" stroke-width="1.3" stroke-opacity="0.533333" points="76.18,-80.9 74.37,-70.46 69.27,-79.75 76.18,-80.9"/>
</g>
<!-- /lib/screens/explorer_screen.dart&#45;&gt;/lib/services/git_service.dart -->
<g id="edge10" class="edge">
<title>/lib/screens/explorer_screen.dart&#45;&gt;/lib/services/git_service.dart</title>
<path fill="none" stroke="#aabbaa" stroke-width="1.3" stroke-opacity="0.533333" d="M428.16,-198.49C443.08,-195.12 459.02,-191.99 474,-190 521.17,-183.72 643.14,-197.89 688,-182 701.77,-177.12 715.03,-168.15 725.87,-159.27"/>
<polygon fill="#aabbaa" fill-opacity="0.533333" stroke="#aabbaa" stroke-width="1.3" stroke-opacity="0.533333" points="727.98,-162.08 733.25,-152.88 723.4,-156.79 727.98,-162.08"/>
</g>
<!-- /lib/screens/outline_panel.dart -->
<g id="node9" class="node">
<title>/lib/screens/outline_panel.dart</title>
<path fill="Lavender" stroke="black" stroke-width="1.3" d="M272.88,-234C272.88,-234 193.12,-234 193.12,-234 187.12,-234 181.12,-228 181.12,-222 181.12,-222 181.12,-210 181.12,-210 181.12,-204 187.12,-198 193.12,-198 193.12,-198 272.88,-198 272.88,-198 278.88,-198 284.88,-204 284.88,-210 284.88,-210 284.88,-222 284.88,-222 284.88,-228 278.88,-234 272.88,-234"/>
<text xml:space="preserve" text-anchor="middle" x="233" y="-210.75" font-family="Arial" font-size="15.00">outline_panel</text>
</g>
<!-- /lib/screens/outline_panel.dart&#45;&gt;/lib/models/file_system_item.dart -->
<g id="edge16" class="edge">
<title>/lib/screens/outline_panel.dart&#45;&gt;/lib/models/file_system_item.dart</title>
<path fill="none" stroke="#aabbaa" stroke-width="1.3" stroke-opacity="0.533333" d="M271.07,-197.39C278.84,-194.44 287.07,-191.77 295,-190 310.64,-186.51 426.89,-192.5 439,-182 464.68,-159.73 428.79,-129.8 454,-107 467.58,-94.72 518.68,-104.94 536,-99 551.88,-93.56 567.84,-84.21 581,-75.2"/>
<polygon fill="#aabbaa" fill-opacity="0.533333" stroke="#aabbaa" stroke-width="1.3" stroke-opacity="0.533333" points="582.76,-78.25 588.87,-69.6 578.69,-72.55 582.76,-78.25"/>
</g>
<!-- /lib/screens/editor_screen.dart -->
<g id="node10" class="node">
<title>/lib/screens/editor_screen.dart</title>
<path fill="Lavender" stroke="black" stroke-width="1.3" d="M178.38,-151C178.38,-151 95.62,-151 95.62,-151 89.62,-151 83.62,-145 83.62,-139 83.62,-139 83.62,-127 83.62,-127 83.62,-121 89.62,-115 95.62,-115 95.62,-115 178.38,-115 178.38,-115 184.38,-115 190.38,-121 190.38,-127 190.38,-127 190.38,-139 190.38,-139 190.38,-145 184.38,-151 178.38,-151"/>
<text xml:space="preserve" text-anchor="middle" x="137" y="-127.75" font-family="Arial" font-size="15.00">editor_screen</text>
</g>
<!-- /lib/screens/outline_panel.dart&#45;&gt;/lib/screens/editor_screen.dart -->
<g id="edge17" class="edge">
<title>/lib/screens/outline_panel.dart&#45;&gt;/lib/screens/editor_screen.dart</title>
<path fill="none" stroke="#aabbaa" stroke-width="1.3" stroke-opacity="0.533333" d="M212.17,-197.42C198.83,-186.17 181.33,-171.4 166.57,-158.95"/>
<polygon fill="#aabbaa" fill-opacity="0.533333" stroke="#aabbaa" stroke-width="1.3" stroke-opacity="0.533333" points="169.19,-156.58 159.29,-152.81 164.68,-161.93 169.19,-156.58"/>
</g>
<!-- /lib/screens/outline_panel.dart&#45;&gt;/lib/theme/app_theme.dart -->
<g id="edge15" class="edge">
<title>/lib/screens/outline_panel.dart&#45;&gt;/lib/theme/app_theme.dart</title>
<path fill="none" stroke="#aabbaa" stroke-width="1.3" stroke-opacity="0.533333" d="M198.72,-197.44C191.7,-194.49 184.23,-191.8 177,-190 164.36,-186.85 68.89,-191.52 60,-182 34.3,-154.48 48.92,-108.44 62.75,-78.91"/>
<polygon fill="#aabbaa" fill-opacity="0.533333" stroke="#aabbaa" stroke-width="1.3" stroke-opacity="0.533333" points="65.74,-80.75 67.05,-70.24 59.47,-77.64 65.74,-80.75"/>
</g>
<!-- /lib/screens/editor_screen.dart&#45;&gt;/lib/utils/message_helper.dart -->
<g id="edge18" class="edge">
<title>/lib/screens/editor_screen.dart&#45;&gt;/lib/utils/message_helper.dart</title>
<path fill="none" stroke="#aabbaa" stroke-width="1.3" stroke-opacity="0.533333" d="M180.4,-114.42C210.41,-102.27 250.55,-86.01 282.69,-73"/>
<polygon fill="#aabbaa" fill-opacity="0.533333" stroke="#aabbaa" stroke-width="1.3" stroke-opacity="0.533333" points="283.91,-76.28 291.86,-69.28 281.28,-69.79 283.91,-76.28"/>
</g>
<!-- /lib/screens/editor_screen.dart&#45;&gt;/lib/utils/file_type_utils.dart -->
<g id="edge19" class="edge">
<title>/lib/screens/editor_screen.dart&#45;&gt;/lib/utils/file_type_utils.dart</title>
<path fill="none" stroke="#aabbaa" stroke-width="1.3" stroke-opacity="0.533333" d="M174.71,-114.4C182.58,-111.41 190.94,-108.72 199,-107 244.67,-97.23 365.11,-114.95 409,-99 422.32,-94.16 435.06,-85.32 445.49,-76.53"/>
<polygon fill="#aabbaa" fill-opacity="0.533333" stroke="#aabbaa" stroke-width="1.3" stroke-opacity="0.533333" points="447.79,-79.17 452.91,-69.9 443.12,-73.96 447.79,-79.17"/>
</g>
<!-- /lib/main.dart&#45;&gt;/lib/providers/app_providers.dart -->
<g id="edge20" class="edge">
<title>/lib/main.dart&#45;&gt;/lib/providers/app_providers.dart</title>
<path fill="none" stroke="#aabbaa" stroke-width="1.3" stroke-opacity="0.533333" d="M541,-347.44C541,-322.52 541,-276.56 541,-246.39"/>
<polygon fill="#aabbaa" fill-opacity="0.533333" stroke="#aabbaa" stroke-width="1.3" stroke-opacity="0.533333" points="544.5,-246.5 541,-236.5 537.5,-246.5 544.5,-246.5"/>
</g>
<!-- /lib/main.dart&#45;&gt;/lib/screens/editor_screen.dart -->
<g id="edge22" class="edge">
<title>/lib/main.dart&#45;&gt;/lib/screens/editor_screen.dart</title>
<path fill="none" stroke="#aabbaa" stroke-width="1.3" stroke-opacity="0.533333" d="M513.36,-361.92C432.7,-352.36 200.26,-320.41 152,-265 127.66,-237.06 128.1,-192.07 131.72,-162.77"/>
<polygon fill="#aabbaa" fill-opacity="0.533333" stroke="#aabbaa" stroke-width="1.3" stroke-opacity="0.533333" points="135.13,-163.62 133.12,-153.22 128.21,-162.61 135.13,-163.62"/>
</g>
<!-- /lib/main.dart&#45;&gt;/lib/theme/app_theme.dart -->
<g id="edge24" class="edge">
<title>/lib/main.dart&#45;&gt;/lib/theme/app_theme.dart</title>
<path fill="none" stroke="#aabbaa" stroke-width="1.3" stroke-opacity="0.533333" d="M513.44,-365.49C436.61,-366.5 221.47,-366.8 157,-340 76.8,-306.66 56.99,-267.55 42,-182 36.25,-149.17 32.61,-138.98 42,-107 45,-96.8 50.49,-86.7 56.3,-77.94"/>
<polygon fill="#aabbaa" fill-opacity="0.533333" stroke="#aabbaa" stroke-width="1.3" stroke-opacity="0.533333" points="59.03,-80.13 61.98,-69.96 53.33,-76.07 59.03,-80.13"/>
</g>
<!-- /lib/main.dart&#45;&gt;/lib/services/git_service.dart -->
<g id="edge23" class="edge">
<title>/lib/main.dart&#45;&gt;/lib/services/git_service.dart</title>
<path fill="none" stroke="#aabbaa" stroke-width="1.3" stroke-opacity="0.533333" d="M553.9,-347.43C568.01,-327.83 590.9,-294.94 608,-265 626.34,-232.89 614.6,-212.42 644,-190 659.8,-177.95 669.78,-189.95 688,-182 700.96,-176.34 713.74,-167.59 724.42,-159.1"/>
<polygon fill="#aabbaa" fill-opacity="0.533333" stroke="#aabbaa" stroke-width="1.3" stroke-opacity="0.533333" points="726.63,-161.82 732.09,-152.73 722.16,-156.43 726.63,-161.82"/>
</g>
<!-- /lib/widgets/main_layout.dart -->
<g id="node19" class="node">
<title>/lib/widgets/main_layout.dart</title>
<path fill="Lavender" stroke="black" stroke-width="1.3" d="M1039.12,-309C1039.12,-309 966.88,-309 966.88,-309 960.88,-309 954.88,-303 954.88,-297 954.88,-297 954.88,-285 954.88,-285 954.88,-279 960.88,-273 966.88,-273 966.88,-273 1039.12,-273 1039.12,-273 1045.12,-273 1051.12,-279 1051.12,-285 1051.12,-285 1051.12,-297 1051.12,-297 1051.12,-303 1045.12,-309 1039.12,-309"/>
<text xml:space="preserve" text-anchor="middle" x="1003" y="-285.75" font-family="Arial" font-size="15.00">main_layout</text>
</g>
<!-- /lib/main.dart&#45;&gt;/lib/widgets/main_layout.dart -->
<g id="edge21" class="edge">
<title>/lib/main.dart&#45;&gt;/lib/widgets/main_layout.dart</title>
<path fill="none" stroke="#aabbaa" stroke-width="1.3" stroke-opacity="0.533333" d="M568.59,-365.53C648.25,-366.7 877.25,-367.52 946,-340 958.38,-335.04 970.03,-326.3 979.53,-317.62"/>
<polygon fill="#aabbaa" fill-opacity="0.533333" stroke="#aabbaa" stroke-width="1.3" stroke-opacity="0.533333" points="981.8,-320.3 986.53,-310.81 976.92,-315.28 981.8,-320.3"/>
</g>
<!-- /lib/services/file_system_service.dart -->
<g id="node15" class="node">
<title>/lib/services/file_system_service.dart</title>
<path fill="Lavender" stroke="black" stroke-width="1.3" d="M948.25,-151C948.25,-151 825.75,-151 825.75,-151 819.75,-151 813.75,-145 813.75,-139 813.75,-139 813.75,-127 813.75,-127 813.75,-121 819.75,-115 825.75,-115 825.75,-115 948.25,-115 948.25,-115 954.25,-115 960.25,-121 960.25,-127 960.25,-127 960.25,-139 960.25,-139 960.25,-145 954.25,-151 948.25,-151"/>
<text xml:space="preserve" text-anchor="middle" x="887" y="-127.75" font-family="Arial" font-size="15.00">file_system_service</text>
</g>
<!-- /lib/services/file_system_service.dart&#45;&gt;/lib/models/file_system_item.dart -->
<g id="edge25" class="edge">
<title>/lib/services/file_system_service.dart&#45;&gt;/lib/models/file_system_item.dart</title>
<path fill="none" stroke="#aabbaa" stroke-width="1.3" stroke-opacity="0.533333" d="M829.68,-114.42C821.41,-111.91 812.99,-109.38 805,-107 765.32,-95.2 720.96,-82.3 684.78,-71.87"/>
<polygon fill="#aabbaa" fill-opacity="0.533333" stroke="#aabbaa" stroke-width="1.3" stroke-opacity="0.533333" points="685.81,-68.52 675.23,-69.11 683.87,-75.25 685.81,-68.52"/>
</g>
<!-- /lib/services/editor_service.dart -->
<g id="node16" class="node">
<title>/lib/services/editor_service.dart</title>
<path fill="Lavender" stroke="black" stroke-width="1.3" d="M1075.5,-151C1075.5,-151 990.5,-151 990.5,-151 984.5,-151 978.5,-145 978.5,-139 978.5,-139 978.5,-127 978.5,-127 978.5,-121 984.5,-115 990.5,-115 990.5,-115 1075.5,-115 1075.5,-115 1081.5,-115 1087.5,-121 1087.5,-127 1087.5,-127 1087.5,-139 1087.5,-139 1087.5,-145 1081.5,-151 1075.5,-151"/>
<text xml:space="preserve" text-anchor="middle" x="1033" y="-127.75" font-family="Arial" font-size="15.00">editor_service</text>
</g>
<!-- /lib/widgets/resizable_splitter.dart -->
<g id="node17" class="node">
<title>/lib/widgets/resizable_splitter.dart</title>
<path fill="Lavender" stroke="black" stroke-width="1.3" d="M1293.88,-234C1293.88,-234 1190.12,-234 1190.12,-234 1184.12,-234 1178.12,-228 1178.12,-222 1178.12,-222 1178.12,-210 1178.12,-210 1178.12,-204 1184.12,-198 1190.12,-198 1190.12,-198 1293.88,-198 1293.88,-198 1299.88,-198 1305.88,-204 1305.88,-210 1305.88,-210 1305.88,-222 1305.88,-222 1305.88,-228 1299.88,-234 1293.88,-234"/>
<text xml:space="preserve" text-anchor="middle" x="1242" y="-210.75" font-family="Arial" font-size="15.00">resizable_splitter</text>
</g>
<!-- /lib/widgets/directory_contents.dart -->
<g id="node18" class="node">
<title>/lib/widgets/directory_contents.dart</title>
<path fill="Lavender" stroke="black" stroke-width="1.3" d="M941.5,-234C941.5,-234 826.5,-234 826.5,-234 820.5,-234 814.5,-228 814.5,-222 814.5,-222 814.5,-210 814.5,-210 814.5,-204 820.5,-198 826.5,-198 826.5,-198 941.5,-198 941.5,-198 947.5,-198 953.5,-204 953.5,-210 953.5,-210 953.5,-222 953.5,-222 953.5,-228 947.5,-234 941.5,-234"/>
<text xml:space="preserve" text-anchor="middle" x="884" y="-210.75" font-family="Arial" font-size="15.00">directory_contents</text>
</g>
<!-- /lib/widgets/directory_contents.dart&#45;&gt;/lib/models/file_system_item.dart -->
<g id="edge28" class="edge">
<title>/lib/widgets/directory_contents.dart&#45;&gt;/lib/models/file_system_item.dart</title>
<path fill="none" stroke="#aabbaa" stroke-width="1.3" stroke-opacity="0.533333" d="M932.82,-197.44C942.7,-194.48 953.09,-191.8 963,-190 979.53,-187 1102.44,-194.19 1114,-182 1136.94,-157.81 1136.23,-131.84 1114,-107 1086.12,-75.83 821.09,-60.02 687.79,-53.99"/>
<polygon fill="#aabbaa" fill-opacity="0.533333" stroke="#aabbaa" stroke-width="1.3" stroke-opacity="0.533333" points="688.2,-50.5 678.06,-53.55 687.89,-57.49 688.2,-50.5"/>
</g>
<!-- /lib/widgets/directory_contents.dart&#45;&gt;/lib/services/git_service.dart -->
<g id="edge27" class="edge">
<title>/lib/widgets/directory_contents.dart&#45;&gt;/lib/services/git_service.dart</title>
<path fill="none" stroke="#aabbaa" stroke-width="1.3" stroke-opacity="0.533333" d="M834.65,-197.44C824.52,-193 814.16,-187.82 805,-182 795.15,-175.74 785.39,-167.61 776.98,-159.82"/>
<polygon fill="#aabbaa" fill-opacity="0.533333" stroke="#aabbaa" stroke-width="1.3" stroke-opacity="0.533333" points="779.49,-157.38 769.86,-152.98 774.64,-162.43 779.49,-157.38"/>
</g>
<!-- /lib/widgets/directory_contents.dart&#45;&gt;/lib/services/file_system_service.dart -->
<g id="edge26" class="edge">
<title>/lib/widgets/directory_contents.dart&#45;&gt;/lib/services/file_system_service.dart</title>
<path fill="none" stroke="#aabbaa" stroke-width="1.3" stroke-opacity="0.533333" d="M884.65,-197.42C885.02,-187.45 885.49,-174.7 885.92,-163.26"/>
<polygon fill="#aabbaa" fill-opacity="0.533333" stroke="#aabbaa" stroke-width="1.3" stroke-opacity="0.533333" points="889.4,-163.63 886.28,-153.51 882.41,-163.37 889.4,-163.63"/>
</g>
<!-- /lib/widgets/main_layout.dart&#45;&gt;/lib/providers/app_providers.dart -->
<g id="edge30" class="edge">
<title>/lib/widgets/main_layout.dart&#45;&gt;/lib/providers/app_providers.dart</title>
<path fill="none" stroke="#aabbaa" stroke-width="1.3" stroke-opacity="0.533333" d="M954.38,-274.59C951.56,-273.98 948.75,-273.44 946,-273 830.11,-254.29 797.51,-285.92 682,-265 651.72,-259.51 619.12,-248.76 592.91,-238.81"/>
<polygon fill="#aabbaa" fill-opacity="0.533333" stroke="#aabbaa" stroke-width="1.3" stroke-opacity="0.533333" points="594.51,-235.68 583.92,-235.33 591.98,-242.21 594.51,-235.68"/>
</g>
<!-- /lib/widgets/main_layout.dart&#45;&gt;/lib/utils/file_type_utils.dart -->
<g id="edge32" class="edge">
<title>/lib/widgets/main_layout.dart&#45;&gt;/lib/utils/file_type_utils.dart</title>
<path fill="none" stroke="#aabbaa" stroke-width="1.3" stroke-opacity="0.533333" d="M954.38,-274.55C951.56,-273.95 948.76,-273.43 946,-273 933.04,-271 483.26,-274.29 474,-265 461.28,-252.25 466.11,-136.05 469.2,-80.42"/>
<polygon fill="#aabbaa" fill-opacity="0.533333" stroke="#aabbaa" stroke-width="1.3" stroke-opacity="0.533333" points="472.69,-80.75 469.77,-70.57 465.7,-80.35 472.69,-80.75"/>
</g>
<!-- /lib/widgets/main_layout.dart&#45;&gt;/lib/models/file_system_item.dart -->
<g id="edge31" class="edge">
<title>/lib/widgets/main_layout.dart&#45;&gt;/lib/models/file_system_item.dart</title>
<path fill="none" stroke="#aabbaa" stroke-width="1.3" stroke-opacity="0.533333" d="M1051.69,-289.64C1134.97,-288.53 1297.54,-283.92 1315,-265 1337.61,-240.51 1332.46,-218.4 1315,-190 1249.78,-83.9 856.57,-58.74 688.3,-52.81"/>
<polygon fill="#aabbaa" fill-opacity="0.533333" stroke="#aabbaa" stroke-width="1.3" stroke-opacity="0.533333" points="688.42,-49.31 678.31,-52.47 688.18,-56.31 688.42,-49.31"/>
</g>
<!-- /lib/widgets/main_layout.dart&#45;&gt;/lib/screens/editor_screen.dart -->
<g id="edge29" class="edge">
<title>/lib/widgets/main_layout.dart&#45;&gt;/lib/screens/editor_screen.dart</title>
<path fill="none" stroke="#aabbaa" stroke-width="1.3" stroke-opacity="0.533333" d="M954.39,-274.53C951.57,-273.93 948.76,-273.42 946,-273 924.74,-269.78 188.64,-278.61 172,-265 145.62,-243.42 165.05,-222.86 156,-190 153.53,-181.02 150.42,-171.37 147.44,-162.65"/>
<polygon fill="#aabbaa" fill-opacity="0.533333" stroke="#aabbaa" stroke-width="1.3" stroke-opacity="0.533333" points="150.79,-161.62 144.17,-153.35 144.18,-163.94 150.79,-161.62"/>
</g>
<!-- /lib/widgets/main_layout.dart&#45;&gt;/lib/widgets/resizable_splitter.dart -->
<g id="edge33" class="edge">
<title>/lib/widgets/main_layout.dart&#45;&gt;/lib/widgets/resizable_splitter.dart</title>
<path fill="none" stroke="#aabbaa" stroke-width="1.3" stroke-opacity="0.533333" d="M1051.62,-288.18C1085.48,-285.61 1131.17,-279.48 1169,-265 1183.87,-259.31 1198.81,-250.22 1211.27,-241.47"/>
<polygon fill="#aabbaa" fill-opacity="0.533333" stroke="#aabbaa" stroke-width="1.3" stroke-opacity="0.533333" points="1213.08,-244.48 1219.1,-235.76 1208.96,-238.83 1213.08,-244.48"/>
</g>
<!-- /lib/widgets/left_panel.dart -->
<g id="node22" class="node">
<title>/lib/widgets/left_panel.dart</title>
<path fill="Lavender" stroke="black" stroke-width="1.3" d="M1040.25,-234C1040.25,-234 983.75,-234 983.75,-234 977.75,-234 971.75,-228 971.75,-222 971.75,-222 971.75,-210 971.75,-210 971.75,-204 977.75,-198 983.75,-198 983.75,-198 1040.25,-198 1040.25,-198 1046.25,-198 1052.25,-204 1052.25,-210 1052.25,-210 1052.25,-222 1052.25,-222 1052.25,-228 1046.25,-234 1040.25,-234"/>
<text xml:space="preserve" text-anchor="middle" x="1012" y="-210.75" font-family="Arial" font-size="15.00">left_panel</text>
</g>
<!-- /lib/widgets/main_layout.dart&#45;&gt;/lib/widgets/left_panel.dart -->
<g id="edge34" class="edge">
<title>/lib/widgets/main_layout.dart&#45;&gt;/lib/widgets/left_panel.dart</title>
<path fill="none" stroke="#aabbaa" stroke-width="1.3" stroke-opacity="0.533333" d="M1005.13,-272.7C1006.11,-264.76 1007.3,-255.12 1008.41,-246.11"/>
<polygon fill="#aabbaa" fill-opacity="0.533333" stroke="#aabbaa" stroke-width="1.3" stroke-opacity="0.533333" points="1011.86,-246.73 1009.61,-236.38 1004.91,-245.88 1011.86,-246.73"/>
</g>
<!-- /lib/widgets/center_panel.dart -->
<g id="node23" class="node">
<title>/lib/widgets/center_panel.dart</title>
<path fill="Lavender" stroke="black" stroke-width="1.3" d="M784.12,-234C784.12,-234 705.88,-234 705.88,-234 699.88,-234 693.88,-228 693.88,-222 693.88,-222 693.88,-210 693.88,-210 693.88,-204 699.88,-198 705.88,-198 705.88,-198 784.12,-198 784.12,-198 790.12,-198 796.12,-204 796.12,-210 796.12,-210 796.12,-222 796.12,-222 796.12,-228 790.12,-234 784.12,-234"/>
<text xml:space="preserve" text-anchor="middle" x="745" y="-210.75" font-family="Arial" font-size="15.00">center_panel</text>
</g>
<!-- /lib/widgets/main_layout.dart&#45;&gt;/lib/widgets/center_panel.dart -->
<g id="edge35" class="edge">
<title>/lib/widgets/main_layout.dart&#45;&gt;/lib/widgets/center_panel.dart</title>
<path fill="none" stroke="#aabbaa" stroke-width="1.3" stroke-opacity="0.533333" d="M954.36,-274.68C951.55,-274.05 948.75,-273.48 946,-273 915.31,-267.62 835.14,-276.03 806,-265 792.88,-260.03 780.34,-251.16 770.08,-242.39"/>
<polygon fill="#aabbaa" fill-opacity="0.533333" stroke="#aabbaa" stroke-width="1.3" stroke-opacity="0.533333" points="772.56,-239.92 762.8,-235.8 767.86,-245.11 772.56,-239.92"/>
</g>
<!-- /lib/widgets/right_panel.dart -->
<g id="node24" class="node">
<title>/lib/widgets/right_panel.dart</title>
<path fill="Lavender" stroke="black" stroke-width="1.3" d="M1147.75,-234C1147.75,-234 1082.25,-234 1082.25,-234 1076.25,-234 1070.25,-228 1070.25,-222 1070.25,-222 1070.25,-210 1070.25,-210 1070.25,-204 1076.25,-198 1082.25,-198 1082.25,-198 1147.75,-198 1147.75,-198 1153.75,-198 1159.75,-204 1159.75,-210 1159.75,-210 1159.75,-222 1159.75,-222 1159.75,-228 1153.75,-234 1147.75,-234"/>
<text xml:space="preserve" text-anchor="middle" x="1115" y="-210.75" font-family="Arial" font-size="15.00">right_panel</text>
</g>
<!-- /lib/widgets/main_layout.dart&#45;&gt;/lib/widgets/right_panel.dart -->
<g id="edge36" class="edge">
<title>/lib/widgets/main_layout.dart&#45;&gt;/lib/widgets/right_panel.dart</title>
<path fill="none" stroke="#aabbaa" stroke-width="1.3" stroke-opacity="0.533333" d="M1047.77,-272.45C1052.35,-270.14 1056.84,-267.65 1061,-265 1070.95,-258.67 1080.87,-250.52 1089.44,-242.73"/>
<polygon fill="#aabbaa" fill-opacity="0.533333" stroke="#aabbaa" stroke-width="1.3" stroke-opacity="0.533333" points="1091.84,-245.28 1096.73,-235.88 1087.04,-240.19 1091.84,-245.28"/>
</g>
<!-- /lib/widgets/file_explorer.dart -->
<g id="node20" class="node">
<title>/lib/widgets/file_explorer.dart</title>
<path fill="Lavender" stroke="black" stroke-width="1.3" d="M924.5,-309C924.5,-309 851.5,-309 851.5,-309 845.5,-309 839.5,-303 839.5,-297 839.5,-297 839.5,-285 839.5,-285 839.5,-279 845.5,-273 851.5,-273 851.5,-273 924.5,-273 924.5,-273 930.5,-273 936.5,-279 936.5,-285 936.5,-285 936.5,-297 936.5,-297 936.5,-303 930.5,-309 924.5,-309"/>
<text xml:space="preserve" text-anchor="middle" x="888" y="-285.75" font-family="Arial" font-size="15.00">file_explorer</text>
</g>
<!-- /lib/widgets/file_explorer.dart&#45;&gt;/lib/models/file_system_item.dart -->
<g id="edge39" class="edge">
<title>/lib/widgets/file_explorer.dart&#45;&gt;/lib/models/file_system_item.dart</title>
<path fill="none" stroke="#aabbaa" stroke-width="1.3" stroke-opacity="0.533333" d="M839.06,-274.57C836.35,-273.97 833.65,-273.44 831,-273 820.75,-271.28 651.19,-272.51 644,-265 620.94,-240.93 624.2,-216.81 644,-190 651.18,-180.27 662.82,-191.73 670,-182 689.8,-155.19 683.03,-137.68 670,-107 665.03,-95.28 656.27,-84.82 647.04,-76.21"/>
<polygon fill="#aabbaa" fill-opacity="0.533333" stroke="#aabbaa" stroke-width="1.3" stroke-opacity="0.533333" points="649.5,-73.71 639.65,-69.82 644.92,-79.01 649.5,-73.71"/>
</g>
<!-- /lib/widgets/file_explorer.dart&#45;&gt;/lib/services/git_service.dart -->
<g id="edge38" class="edge">
<title>/lib/widgets/file_explorer.dart&#45;&gt;/lib/services/git_service.dart</title>
<path fill="none" stroke="#aabbaa" stroke-width="1.3" stroke-opacity="0.533333" d="M839.05,-274.58C836.34,-273.99 833.65,-273.45 831,-273 812.69,-269.88 676.82,-278.45 664,-265 641,-240.87 643.69,-216.43 664,-190 672.41,-179.06 681.73,-188.32 694,-182 705.5,-176.07 716.78,-167.55 726.29,-159.33"/>
<polygon fill="#aabbaa" fill-opacity="0.533333" stroke="#aabbaa" stroke-width="1.3" stroke-opacity="0.533333" points="728.63,-161.93 733.69,-152.63 723.93,-156.74 728.63,-161.93"/>
</g>
<!-- /lib/widgets/file_explorer.dart&#45;&gt;/lib/services/file_system_service.dart -->
<g id="edge37" class="edge">
<title>/lib/widgets/file_explorer.dart&#45;&gt;/lib/services/file_system_service.dart</title>
<path fill="none" stroke="#aabbaa" stroke-width="1.3" stroke-opacity="0.533333" d="M839.05,-274.61C836.34,-274 833.65,-273.46 831,-273 814.99,-270.21 696.17,-276.8 685,-265 662.08,-240.79 662.23,-214.34 685,-190 694.13,-180.24 792.23,-185.92 805,-182 822.13,-176.74 839.49,-167.3 853.79,-158.17"/>
<polygon fill="#aabbaa" fill-opacity="0.533333" stroke="#aabbaa" stroke-width="1.3" stroke-opacity="0.533333" points="855.59,-161.18 861.99,-152.74 851.72,-155.35 855.59,-161.18"/>
</g>
<!-- /lib/widgets/file_explorer.dart&#45;&gt;/lib/widgets/directory_contents.dart -->
<g id="edge40" class="edge">
<title>/lib/widgets/file_explorer.dart&#45;&gt;/lib/widgets/directory_contents.dart</title>
<path fill="none" stroke="#aabbaa" stroke-width="1.3" stroke-opacity="0.533333" d="M887.05,-272.7C886.62,-264.76 886.09,-255.12 885.6,-246.11"/>
<polygon fill="#aabbaa" fill-opacity="0.533333" stroke="#aabbaa" stroke-width="1.3" stroke-opacity="0.533333" points="889.1,-246.19 885.06,-236.39 882.12,-246.57 889.1,-246.19"/>
</g>
<!-- /lib/widgets/left_panel.dart&#45;&gt;/lib/models/file_system_item.dart -->
<g id="edge42" class="edge">
<title>/lib/widgets/left_panel.dart&#45;&gt;/lib/models/file_system_item.dart</title>
<path fill="none" stroke="#aabbaa" stroke-width="1.3" stroke-opacity="0.533333" d="M1042.42,-197.42C1048.42,-194.55 1054.79,-191.9 1061,-190 1075.13,-185.69 1117.2,-193.06 1127,-182 1149.11,-157.05 1149.26,-131.81 1127,-107 1098.25,-74.96 824.41,-59.52 688.19,-53.77"/>
<polygon fill="#aabbaa" fill-opacity="0.533333" stroke="#aabbaa" stroke-width="1.3" stroke-opacity="0.533333" points="688.34,-50.28 678.21,-53.36 688.05,-57.27 688.34,-50.28"/>
</g>
<!-- /lib/widgets/left_panel.dart&#45;&gt;/lib/screens/explorer_screen.dart -->
<g id="edge41" class="edge">
<title>/lib/widgets/left_panel.dart&#45;&gt;/lib/screens/explorer_screen.dart</title>
<path fill="none" stroke="#aabbaa" stroke-width="1.3" stroke-opacity="0.533333" d="M1000.08,-234.38C989.83,-247.98 973.61,-264.84 954,-269 941.2,-271.72 495.8,-271.72 483,-269 456.69,-263.42 429.2,-251.33 407.48,-240.1"/>
<polygon fill="#aabbaa" fill-opacity="0.533333" stroke="#aabbaa" stroke-width="1.3" stroke-opacity="0.533333" points="409.21,-237.06 398.74,-235.45 405.92,-243.24 409.21,-237.06"/>
</g>
<!-- /lib/widgets/center_panel.dart&#45;&gt;/lib/models/file_system_item.dart -->
<g id="edge45" class="edge">
<title>/lib/widgets/center_panel.dart&#45;&gt;/lib/models/file_system_item.dart</title>
<path fill="none" stroke="#aabbaa" stroke-width="1.3" stroke-opacity="0.533333" d="M781.74,-197.46C789.58,-194.42 797.94,-191.7 806,-190 821.99,-186.62 1088.6,-193.71 1100,-182 1123.25,-158.11 1122.19,-131.88 1100,-107 1073.1,-76.84 818.41,-60.64 688.07,-54.26"/>
<polygon fill="#aabbaa" fill-opacity="0.533333" stroke="#aabbaa" stroke-width="1.3" stroke-opacity="0.533333" points="688.36,-50.77 678.2,-53.79 688.02,-57.76 688.36,-50.77"/>
</g>
<!-- /lib/widgets/center_panel.dart&#45;&gt;/lib/screens/editor_screen.dart -->
<g id="edge44" class="edge">
<title>/lib/widgets/center_panel.dart&#45;&gt;/lib/screens/editor_screen.dart</title>
<path fill="none" stroke="#aabbaa" stroke-width="1.3" stroke-opacity="0.533333" d="M693.24,-203.52C667.71,-198.38 636.39,-192.85 608,-190 585.39,-187.73 220.43,-189.56 199,-182 185.3,-177.17 172.24,-168.02 161.68,-159"/>
<polygon fill="#aabbaa" fill-opacity="0.533333" stroke="#aabbaa" stroke-width="1.3" stroke-opacity="0.533333" points="164.3,-156.65 154.54,-152.53 159.6,-161.84 164.3,-156.65"/>
</g>
<!-- /lib/widgets/center_panel.dart&#45;&gt;/lib/screens/welcome_screen.dart -->
<g id="edge43" class="edge">
<title>/lib/widgets/center_panel.dart&#45;&gt;/lib/screens/welcome_screen.dart</title>
<path fill="none" stroke="#aabbaa" stroke-width="1.3" stroke-opacity="0.533333" d="M693.42,-204.71C667.81,-199.82 636.35,-194.16 608,-190 576.14,-185.33 567.6,-188.17 536,-182 500.88,-175.14 462.46,-164.56 431.05,-155.08"/>
<polygon fill="#aabbaa" fill-opacity="0.533333" stroke="#aabbaa" stroke-width="1.3" stroke-opacity="0.533333" points="432.28,-151.8 421.69,-152.22 430.23,-158.49 432.28,-151.8"/>
</g>
<!-- /lib/widgets/right_panel.dart&#45;&gt;/lib/models/file_system_item.dart -->
<g id="edge47" class="edge">
<title>/lib/widgets/right_panel.dart&#45;&gt;/lib/models/file_system_item.dart</title>
<path fill="none" stroke="#aabbaa" stroke-width="1.3" stroke-opacity="0.533333" d="M1131.6,-197.38C1135.04,-192.72 1138.17,-187.45 1140,-182 1150.62,-150.4 1162.29,-131.78 1140,-107 1110.35,-74.04 827.05,-58.99 688.1,-53.55"/>
<polygon fill="#aabbaa" fill-opacity="0.533333" stroke="#aabbaa" stroke-width="1.3" stroke-opacity="0.533333" points="688.42,-50.06 678.29,-53.17 688.15,-57.05 688.42,-50.06"/>
</g>
<!-- /lib/widgets/right_panel.dart&#45;&gt;/lib/screens/outline_panel.dart -->
<g id="edge46" class="edge">
<title>/lib/widgets/right_panel.dart&#45;&gt;/lib/screens/outline_panel.dart</title>
<path fill="none" stroke="#aabbaa" stroke-width="1.3" stroke-opacity="0.533333" d="M1101.41,-234.55C1090.03,-248.04 1072.41,-264.67 1052,-269 1031.67,-273.31 324.33,-273.31 304,-269 286.44,-265.27 270.14,-253.93 257.6,-242.7"/>
<polygon fill="#aabbaa" fill-opacity="0.533333" stroke="#aabbaa" stroke-width="1.3" stroke-opacity="0.533333" points="260.24,-240.38 250.59,-236 255.4,-245.44 260.24,-240.38"/>
</g>
<!-- /tool/sort_source.dart -->
<g id="node25" class="node">
<title>/tool/sort_source.dart</title>
<path fill="Lavender" stroke="black" stroke-width="1.3" d="M1003.38,-467C1003.38,-467 932.62,-467 932.62,-467 926.62,-467 920.62,-461 920.62,-455 920.62,-455 920.62,-443 920.62,-443 920.62,-437 926.62,-431 932.62,-431 932.62,-431 1003.38,-431 1003.38,-431 1009.38,-431 1015.38,-437 1015.38,-443 1015.38,-443 1015.38,-455 1015.38,-455 1015.38,-461 1009.38,-467 1003.38,-467"/>
<text xml:space="preserve" text-anchor="middle" x="968" y="-443.75" font-family="Arial" font-size="15.00">sort_source</text>
</g>
</g>
</svg>
