<?xml version="1.0" encoding="UTF-8" standalone="no"?>
<!DOCTYPE svg PUBLIC "-//W3C//DTD SVG 1.1//EN"
 "http://www.w3.org/Graphics/SVG/1.1/DTD/svg11.dtd">
<!-- Generated by graphviz version 13.1.2 (20250808.2320)
 -->
<!-- Pages: 1 -->
<svg width="2179pt" height="747pt"
 viewBox="0.00 0.00 2179.00 747.00" xmlns="http://www.w3.org/2000/svg" xmlns:xlink="http://www.w3.org/1999/xlink">
<g id="graph0" class="graph" transform="scale(1 1) rotate(0) translate(4 743)">
<polygon fill="white" stroke="none" points="-4,4 -4,-743 2175.14,-743 2175.14,4 -4,4"/>
<g id="clust1" class="cluster">
<title>cluster~</title>
<path fill="none" stroke="lightgray" stroke-width="2.6" d="M59.14,-8C59.14,-8 2151.14,-8 2151.14,-8 2157.14,-8 2163.14,-14 2163.14,-20 2163.14,-20 2163.14,-719 2163.14,-719 2163.14,-725 2157.14,-731 2151.14,-731 2151.14,-731 59.14,-731 59.14,-731 53.14,-731 47.14,-725 47.14,-719 47.14,-719 47.14,-20 47.14,-20 47.14,-14 53.14,-8 59.14,-8"/>
<text xml:space="preserve" text-anchor="middle" x="1105.14" y="-714.65" font-family="Arial Black" font-size="13.00">fide</text>
</g>
<g id="clust2" class="cluster">
<title>cluster~/test</title>
<path fill="none" stroke="lightgray" stroke-width="2.6" d="M1553.14,-625C1553.14,-625 1637.14,-625 1637.14,-625 1643.14,-625 1649.14,-631 1649.14,-637 1649.14,-637 1649.14,-688 1649.14,-688 1649.14,-694 1643.14,-700 1637.14,-700 1637.14,-700 1553.14,-700 1553.14,-700 1547.14,-700 1541.14,-694 1541.14,-688 1541.14,-688 1541.14,-637 1541.14,-637 1541.14,-631 1547.14,-625 1553.14,-625"/>
<text xml:space="preserve" text-anchor="middle" x="1595.14" y="-683.65" font-family="Arial Black" font-size="13.00">test</text>
</g>
<g id="clust3" class="cluster">
<title>cluster~/lib</title>
<path fill="none" stroke="lightgray" stroke-width="2.6" d="M67.14,-16C67.14,-16 2143.14,-16 2143.14,-16 2149.14,-16 2155.14,-22 2155.14,-28 2155.14,-28 2155.14,-605 2155.14,-605 2155.14,-611 2149.14,-617 2143.14,-617 2143.14,-617 67.14,-617 67.14,-617 61.14,-617 55.14,-611 55.14,-605 55.14,-605 55.14,-28 55.14,-28 55.14,-22 61.14,-16 67.14,-16"/>
<text xml:space="preserve" text-anchor="middle" x="1105.14" y="-600.65" font-family="Arial Black" font-size="13.00">lib</text>
</g>
<g id="clust4" class="cluster">
<title>cluster~/lib/providers</title>
<path fill="none" stroke="lightgray" stroke-width="2.6" d="M1491.14,-187C1491.14,-187 1593.14,-187 1593.14,-187 1599.14,-187 1605.14,-193 1605.14,-199 1605.14,-199 1605.14,-250 1605.14,-250 1605.14,-256 1599.14,-262 1593.14,-262 1593.14,-262 1491.14,-262 1491.14,-262 1485.14,-262 1479.14,-256 1479.14,-250 1479.14,-250 1479.14,-199 1479.14,-199 1479.14,-193 1485.14,-187 1491.14,-187"/>
<text xml:space="preserve" text-anchor="middle" x="1542.14" y="-245.65" font-family="Arial Black" font-size="13.00">providers</text>
</g>
<g id="clust5" class="cluster">
<title>cluster~/lib/panels</title>
<path fill="none" stroke="lightgray" stroke-width="2.6" d="M277.14,-179C277.14,-179 1185.14,-179 1185.14,-179 1191.14,-179 1197.14,-185 1197.14,-191 1197.14,-191 1197.14,-530 1197.14,-530 1197.14,-536 1191.14,-542 1185.14,-542 1185.14,-542 277.14,-542 277.14,-542 271.14,-542 265.14,-536 265.14,-530 265.14,-530 265.14,-191 265.14,-191 265.14,-185 271.14,-179 277.14,-179"/>
<text xml:space="preserve" text-anchor="middle" x="731.14" y="-525.65" font-family="Arial Black" font-size="13.00">panels</text>
</g>
<g id="clust6" class="cluster">
<title>cluster~/lib/panels/right</title>
<path fill="none" stroke="lightgray" stroke-width="2.6" d="M991.14,-353C991.14,-353 1177.14,-353 1177.14,-353 1183.14,-353 1189.14,-359 1189.14,-365 1189.14,-365 1189.14,-499 1189.14,-499 1189.14,-505 1183.14,-511 1177.14,-511 1177.14,-511 991.14,-511 991.14,-511 985.14,-511 979.14,-505 979.14,-499 979.14,-499 979.14,-365 979.14,-365 979.14,-359 985.14,-353 991.14,-353"/>
<text xml:space="preserve" text-anchor="middle" x="1084.14" y="-494.65" font-family="Arial Black" font-size="13.00">right</text>
</g>
<g id="clust7" class="cluster">
<title>cluster~/lib/panels/center</title>
<path fill="none" stroke="lightgray" stroke-width="2.6" d="M729.14,-187C729.14,-187 959.14,-187 959.14,-187 965.14,-187 971.14,-193 971.14,-199 971.14,-199 971.14,-416 971.14,-416 971.14,-422 965.14,-428 959.14,-428 959.14,-428 729.14,-428 729.14,-428 723.14,-428 717.14,-422 717.14,-416 717.14,-416 717.14,-199 717.14,-199 717.14,-193 723.14,-187 729.14,-187"/>
<text xml:space="preserve" text-anchor="middle" x="844.14" y="-411.65" font-family="Arial Black" font-size="13.00">center</text>
</g>
<g id="clust8" class="cluster">
<title>cluster~/lib/panels/left</title>
<path fill="none" stroke="lightgray" stroke-width="2.6" d="M285.14,-187C285.14,-187 697.14,-187 697.14,-187 703.14,-187 709.14,-193 709.14,-199 709.14,-199 709.14,-499 709.14,-499 709.14,-505 703.14,-511 697.14,-511 697.14,-511 285.14,-511 285.14,-511 279.14,-511 273.14,-505 273.14,-499 273.14,-499 273.14,-199 273.14,-199 273.14,-193 279.14,-187 285.14,-187"/>
<text xml:space="preserve" text-anchor="middle" x="491.14" y="-494.65" font-family="Arial Black" font-size="13.00">left</text>
</g>
<g id="clust9" class="cluster">
<title>cluster~/lib/utils</title>
<path fill="none" stroke="lightgray" stroke-width="2.6" d="M1217.14,-187C1217.14,-187 1459.14,-187 1459.14,-187 1465.14,-187 1471.14,-193 1471.14,-199 1471.14,-199 1471.14,-250 1471.14,-250 1471.14,-256 1465.14,-262 1459.14,-262 1459.14,-262 1217.14,-262 1217.14,-262 1211.14,-262 1205.14,-256 1205.14,-250 1205.14,-250 1205.14,-199 1205.14,-199 1205.14,-193 1211.14,-187 1217.14,-187"/>
<text xml:space="preserve" text-anchor="middle" x="1338.14" y="-245.65" font-family="Arial Black" font-size="13.00">utils</text>
</g>
<g id="clust10" class="cluster">
<title>cluster~/lib/models</title>
<path fill="none" stroke="lightgray" stroke-width="2.6" d="M933.14,-24C933.14,-24 1169.14,-24 1169.14,-24 1175.14,-24 1181.14,-30 1181.14,-36 1181.14,-36 1181.14,-159 1181.14,-159 1181.14,-165 1175.14,-171 1169.14,-171 1169.14,-171 933.14,-171 933.14,-171 927.14,-171 921.14,-165 921.14,-159 921.14,-159 921.14,-36 921.14,-36 921.14,-30 927.14,-24 933.14,-24"/>
<text xml:space="preserve" text-anchor="middle" x="1051.14" y="-154.65" font-family="Arial Black" font-size="13.00">models</text>
</g>
<g id="clust11" class="cluster">
<title>cluster~/lib/screens</title>
<path fill="none" stroke="lightgray" stroke-width="2.6" d="M1333.14,-436C1333.14,-436 1701.14,-436 1701.14,-436 1707.14,-436 1713.14,-442 1713.14,-448 1713.14,-448 1713.14,-499 1713.14,-499 1713.14,-505 1707.14,-511 1701.14,-511 1701.14,-511 1333.14,-511 1333.14,-511 1327.14,-511 1321.14,-505 1321.14,-499 1321.14,-499 1321.14,-448 1321.14,-448 1321.14,-442 1327.14,-436 1333.14,-436"/>
<text xml:space="preserve" text-anchor="middle" x="1517.14" y="-494.65" font-family="Arial Black" font-size="13.00">screens</text>
</g>
<g id="clust12" class="cluster">
<title>cluster~/lib/theme</title>
<path fill="none" stroke="lightgray" stroke-width="2.6" d="M1217.14,-436C1217.14,-436 1301.14,-436 1301.14,-436 1307.14,-436 1313.14,-442 1313.14,-448 1313.14,-448 1313.14,-499 1313.14,-499 1313.14,-505 1307.14,-511 1301.14,-511 1301.14,-511 1217.14,-511 1217.14,-511 1211.14,-511 1205.14,-505 1205.14,-499 1205.14,-499 1205.14,-448 1205.14,-448 1205.14,-442 1211.14,-436 1217.14,-436"/>
<text xml:space="preserve" text-anchor="middle" x="1259.14" y="-494.65" font-family="Arial Black" font-size="13.00">theme</text>
</g>
<g id="clust13" class="cluster">
<title>cluster~/lib/services</title>
<path fill="none" stroke="lightgray" stroke-width="2.6" d="M1649.14,-187C1649.14,-187 2023.14,-187 2023.14,-187 2029.14,-187 2035.14,-193 2035.14,-199 2035.14,-199 2035.14,-333 2035.14,-333 2035.14,-339 2029.14,-345 2023.14,-345 2023.14,-345 1649.14,-345 1649.14,-345 1643.14,-345 1637.14,-339 1637.14,-333 1637.14,-333 1637.14,-199 1637.14,-199 1637.14,-193 1643.14,-187 1649.14,-187"/>
<text xml:space="preserve" text-anchor="middle" x="1836.14" y="-328.65" font-family="Arial Black" font-size="13.00">services</text>
</g>
<g id="clust14" class="cluster">
<title>cluster~/lib/widgets</title>
<path fill="none" stroke="lightgray" stroke-width="2.6" d="M1229.14,-270C1229.14,-270 1583.14,-270 1583.14,-270 1589.14,-270 1595.14,-276 1595.14,-282 1595.14,-282 1595.14,-333 1595.14,-333 1595.14,-339 1589.14,-345 1583.14,-345 1583.14,-345 1229.14,-345 1229.14,-345 1223.14,-345 1217.14,-339 1217.14,-333 1217.14,-333 1217.14,-282 1217.14,-282 1217.14,-276 1223.14,-270 1229.14,-270"/>
<text xml:space="preserve" text-anchor="middle" x="1406.14" y="-328.65" font-family="Arial Black" font-size="13.00">widgets</text>
</g>
<g id="clust15" class="cluster">
<title>cluster~/tool</title>
<path fill="none" stroke="lightgray" stroke-width="2.6" d="M1894.14,-625C1894.14,-625 1980.14,-625 1980.14,-625 1986.14,-625 1992.14,-631 1992.14,-637 1992.14,-637 1992.14,-688 1992.14,-688 1992.14,-694 1986.14,-700 1980.14,-700 1980.14,-700 1894.14,-700 1894.14,-700 1888.14,-700 1882.14,-694 1882.14,-688 1882.14,-688 1882.14,-637 1882.14,-637 1882.14,-631 1888.14,-625 1894.14,-625"/>
<text xml:space="preserve" text-anchor="middle" x="1937.14" y="-683.65" font-family="Arial Black" font-size="13.00">tool</text>
</g>
<!-- /test/widget_test.dart -->
<g id="node1" class="node">
<title>/test/widget_test.dart</title>
<path fill="Lavender" stroke="black" stroke-width="1.3" d="M1629.01,-669C1629.01,-669 1561.26,-669 1561.26,-669 1555.26,-669 1549.26,-663 1549.26,-657 1549.26,-657 1549.26,-645 1549.26,-645 1549.26,-639 1555.26,-633 1561.26,-633 1561.26,-633 1629.01,-633 1629.01,-633 1635.01,-633 1641.01,-639 1641.01,-645 1641.01,-645 1641.01,-657 1641.01,-657 1641.01,-663 1635.01,-669 1629.01,-669"/>
<text xml:space="preserve" text-anchor="middle" x="1595.14" y="-645.75" font-family="Arial" font-size="15.00">widget_test</text>
</g>
<!-- /lib/main.dart -->
<g id="node26" class="node">
<title>/lib/main.dart</title>
<path fill="Lavender" stroke="black" stroke-width="1.3" d="M1610.14,-586C1610.14,-586 1580.14,-586 1580.14,-586 1574.14,-586 1568.14,-580 1568.14,-574 1568.14,-574 1568.14,-562 1568.14,-562 1568.14,-556 1574.14,-550 1580.14,-550 1580.14,-550 1610.14,-550 1610.14,-550 1616.14,-550 1622.14,-556 1622.14,-562 1622.14,-562 1622.14,-574 1622.14,-574 1622.14,-580 1616.14,-586 1610.14,-586"/>
<text xml:space="preserve" text-anchor="middle" x="1595.14" y="-562.75" font-family="Arial" font-size="15.00">main</text>
</g>
<!-- /test/widget_test.dart&#45;&gt;/lib/main.dart -->
<g id="edge1" class="edge">
<title>/test/widget_test.dart&#45;&gt;/lib/main.dart</title>
<path fill="none" stroke="#aabbaa" stroke-width="1.3" stroke-opacity="0.533333" d="M1595.14,-632.42C1595.14,-622.45 1595.14,-609.7 1595.14,-598.26"/>
<polygon fill="#aabbaa" fill-opacity="0.533333" stroke="#aabbaa" stroke-width="1.3" stroke-opacity="0.533333" points="1598.64,-598.51 1595.14,-588.51 1591.64,-598.51 1598.64,-598.51"/>
</g>
<!-- /lib/providers/app_providers.dart -->
<g id="node2" class="node">
<title>/lib/providers/app_providers.dart</title>
<path fill="Lavender" stroke="black" stroke-width="1.3" d="M1585.39,-231C1585.39,-231 1498.89,-231 1498.89,-231 1492.89,-231 1486.89,-225 1486.89,-219 1486.89,-219 1486.89,-207 1486.89,-207 1486.89,-201 1492.89,-195 1498.89,-195 1498.89,-195 1585.39,-195 1585.39,-195 1591.39,-195 1597.39,-201 1597.39,-207 1597.39,-207 1597.39,-219 1597.39,-219 1597.39,-225 1591.39,-231 1585.39,-231"/>
<text xml:space="preserve" text-anchor="middle" x="1542.14" y="-207.75" font-family="Arial" font-size="15.00">app_providers</text>
</g>
<!-- /lib/utils/file_type_utils.dart -->
<g id="node19" class="node">
<title>/lib/utils/file_type_utils.dart</title>
<path fill="Lavender" stroke="black" stroke-width="1.3" d="M1451.14,-231C1451.14,-231 1369.14,-231 1369.14,-231 1363.14,-231 1357.14,-225 1357.14,-219 1357.14,-219 1357.14,-207 1357.14,-207 1357.14,-201 1363.14,-195 1369.14,-195 1369.14,-195 1451.14,-195 1451.14,-195 1457.14,-195 1463.14,-201 1463.14,-207 1463.14,-207 1463.14,-219 1463.14,-219 1463.14,-225 1457.14,-231 1451.14,-231"/>
<text xml:space="preserve" text-anchor="middle" x="1410.14" y="-207.75" font-family="Arial" font-size="15.00">file_type_utils</text>
</g>
<!-- /lib/providers/app_providers.dart&#45;&gt;/lib/utils/file_type_utils.dart -->
<g id="edge6" class="edge">
<title>/lib/providers/app_providers.dart&#45;&gt;/lib/utils/file_type_utils.dart</title>
<path fill="none" stroke="#aabbaa" stroke-width="1.3" stroke-opacity="0.533333" d="M1486.42,-213C1482.76,-213 1479.1,-213 1475.45,-213"/>
<polygon fill="#aabbaa" fill-opacity="0.533333" stroke="#aabbaa" stroke-width="1.3" stroke-opacity="0.533333" points="1475.73,-209.5 1465.73,-213 1475.73,-216.5 1475.73,-209.5"/>
</g>
<!-- /lib/models/project_node.dart -->
<g id="node20" class="node">
<title>/lib/models/project_node.dart</title>
<path fill="Lavender" stroke="black" stroke-width="1.3" d="M1019.26,-140C1019.26,-140 941.01,-140 941.01,-140 935.01,-140 929.01,-134 929.01,-128 929.01,-128 929.01,-116 929.01,-116 929.01,-110 935.01,-104 941.01,-104 941.01,-104 1019.26,-104 1019.26,-104 1025.26,-104 1031.26,-110 1031.26,-116 1031.26,-116 1031.26,-128 1031.26,-128 1031.26,-134 1025.26,-140 1019.26,-140"/>
<text xml:space="preserve" text-anchor="middle" x="980.14" y="-116.75" font-family="Arial" font-size="15.00">project_node</text>
</g>
<!-- /lib/providers/app_providers.dart&#45;&gt;/lib/models/project_node.dart -->
<g id="edge3" class="edge">
<title>/lib/providers/app_providers.dart&#45;&gt;/lib/models/project_node.dart</title>
<path fill="none" stroke="#aabbaa" stroke-width="1.3" stroke-opacity="0.533333" d="M1513.52,-194.45C1502.02,-188.34 1488.37,-182.21 1475.14,-179 1428.16,-167.6 1085.61,-187.42 1040.14,-171 1026.88,-166.21 1014.35,-157.2 1004.2,-148.27"/>
<polygon fill="#aabbaa" fill-opacity="0.533333" stroke="#aabbaa" stroke-width="1.3" stroke-opacity="0.533333" points="1006.72,-145.83 997.03,-141.55 1001.94,-150.94 1006.72,-145.83"/>
</g>
<!-- /lib/models/document_state.dart -->
<g id="node21" class="node">
<title>/lib/models/document_state.dart</title>
<path fill="Lavender" stroke="black" stroke-width="1.3" d="M1160.76,-140C1160.76,-140 1061.51,-140 1061.51,-140 1055.51,-140 1049.51,-134 1049.51,-128 1049.51,-128 1049.51,-116 1049.51,-116 1049.51,-110 1055.51,-104 1061.51,-104 1061.51,-104 1160.76,-104 1160.76,-104 1166.76,-104 1172.76,-110 1172.76,-116 1172.76,-116 1172.76,-128 1172.76,-128 1172.76,-134 1166.76,-140 1160.76,-140"/>
<text xml:space="preserve" text-anchor="middle" x="1111.14" y="-116.75" font-family="Arial" font-size="15.00">document_state</text>
</g>
<!-- /lib/providers/app_providers.dart&#45;&gt;/lib/models/document_state.dart -->
<g id="edge4" class="edge">
<title>/lib/providers/app_providers.dart&#45;&gt;/lib/models/document_state.dart</title>
<path fill="none" stroke="#aabbaa" stroke-width="1.3" stroke-opacity="0.533333" d="M1512.76,-194.46C1501.4,-188.51 1488.03,-182.49 1475.14,-179 1426.54,-165.85 1412.06,-177.52 1362.14,-171 1302.07,-163.16 1234.66,-150.02 1184.84,-139.48"/>
<polygon fill="#aabbaa" fill-opacity="0.533333" stroke="#aabbaa" stroke-width="1.3" stroke-opacity="0.533333" points="1185.65,-136.07 1175.14,-137.4 1184.19,-142.91 1185.65,-136.07"/>
</g>
<!-- /lib/models/file_system_item.dart -->
<g id="node22" class="node">
<title>/lib/models/file_system_item.dart</title>
<path fill="Lavender" stroke="black" stroke-width="1.3" d="M1045.01,-68C1045.01,-68 941.26,-68 941.26,-68 935.26,-68 929.26,-62 929.26,-56 929.26,-56 929.26,-44 929.26,-44 929.26,-38 935.26,-32 941.26,-32 941.26,-32 1045.01,-32 1045.01,-32 1051.01,-32 1057.01,-38 1057.01,-44 1057.01,-44 1057.01,-56 1057.01,-56 1057.01,-62 1051.01,-68 1045.01,-68"/>
<text xml:space="preserve" text-anchor="middle" x="993.14" y="-44.75" font-family="Arial" font-size="15.00">file_system_item</text>
</g>
<!-- /lib/providers/app_providers.dart&#45;&gt;/lib/models/file_system_item.dart -->
<g id="edge2" class="edge">
<title>/lib/providers/app_providers.dart&#45;&gt;/lib/models/file_system_item.dart</title>
<path fill="none" stroke="#aabbaa" stroke-width="1.3" stroke-opacity="0.533333" d="M1509.66,-194.39C1498.87,-188.98 1486.67,-183.32 1475.14,-179 1335.44,-126.64 1165.43,-86.77 1069.2,-66.31"/>
<polygon fill="#aabbaa" fill-opacity="0.533333" stroke="#aabbaa" stroke-width="1.3" stroke-opacity="0.533333" points="1069.99,-62.89 1059.48,-64.25 1068.54,-69.74 1069.99,-62.89"/>
</g>
<!-- /lib/services/project_service.dart -->
<g id="node28" class="node">
<title>/lib/services/project_service.dart</title>
<path fill="Lavender" stroke="black" stroke-width="1.3" d="M1749.39,-314C1749.39,-314 1656.89,-314 1656.89,-314 1650.89,-314 1644.89,-308 1644.89,-302 1644.89,-302 1644.89,-290 1644.89,-290 1644.89,-284 1650.89,-278 1656.89,-278 1656.89,-278 1749.39,-278 1749.39,-278 1755.39,-278 1761.39,-284 1761.39,-290 1761.39,-290 1761.39,-302 1761.39,-302 1761.39,-308 1755.39,-314 1749.39,-314"/>
<text xml:space="preserve" text-anchor="middle" x="1703.14" y="-290.75" font-family="Arial" font-size="15.00">project_service</text>
</g>
<!-- /lib/providers/app_providers.dart&#45;&gt;/lib/services/project_service.dart -->
<g id="edge5" class="edge">
<title>/lib/providers/app_providers.dart&#45;&gt;/lib/services/project_service.dart</title>
<path fill="none" stroke="#aabbaa" stroke-width="1.3" stroke-opacity="0.533333" d="M1582.39,-231.46C1600.71,-240.72 1622.48,-252.19 1642.14,-262 1648.92,-265.39 1656.12,-268.88 1663.12,-272.28"/>
<polygon fill="#aabbaa" fill-opacity="0.533333" stroke="#aabbaa" stroke-width="1.3" stroke-opacity="0.533333" points="1661.57,-275.42 1672.1,-276.64 1664.63,-269.12 1661.57,-275.42"/>
</g>
<!-- /lib/panels/right/outline_panel.dart -->
<g id="node3" class="node">
<title>/lib/panels/right/outline_panel.dart</title>
<path fill="Lavender" stroke="black" stroke-width="1.3" d="M1079.01,-397C1079.01,-397 999.26,-397 999.26,-397 993.26,-397 987.26,-391 987.26,-385 987.26,-385 987.26,-373 987.26,-373 987.26,-367 993.26,-361 999.26,-361 999.26,-361 1079.01,-361 1079.01,-361 1085.01,-361 1091.01,-367 1091.01,-373 1091.01,-373 1091.01,-385 1091.01,-385 1091.01,-391 1085.01,-397 1079.01,-397"/>
<text xml:space="preserve" text-anchor="middle" x="1039.14" y="-373.75" font-family="Arial" font-size="15.00">outline_panel</text>
</g>
<!-- /lib/panels/center/editor_screen.dart -->
<g id="node7" class="node">
<title>/lib/panels/center/editor_screen.dart</title>
<path fill="Lavender" stroke="black" stroke-width="1.3" d="M819.51,-314C819.51,-314 736.76,-314 736.76,-314 730.76,-314 724.76,-308 724.76,-302 724.76,-302 724.76,-290 724.76,-290 724.76,-284 730.76,-278 736.76,-278 736.76,-278 819.51,-278 819.51,-278 825.51,-278 831.51,-284 831.51,-290 831.51,-290 831.51,-302 831.51,-302 831.51,-308 825.51,-314 819.51,-314"/>
<text xml:space="preserve" text-anchor="middle" x="778.14" y="-290.75" font-family="Arial" font-size="15.00">editor_screen</text>
</g>
<!-- /lib/panels/right/outline_panel.dart&#45;&gt;/lib/panels/center/editor_screen.dart -->
<g id="edge8" class="edge">
<title>/lib/panels/right/outline_panel.dart&#45;&gt;/lib/panels/center/editor_screen.dart</title>
<path fill="none" stroke="#aabbaa" stroke-width="1.3" stroke-opacity="0.533333" d="M999.8,-360.42C991.78,-357.47 983.3,-354.79 975.14,-353 945.78,-346.57 868.28,-355.56 840.14,-345 826.87,-340.02 814.14,-331.15 803.7,-322.38"/>
<polygon fill="#aabbaa" fill-opacity="0.533333" stroke="#aabbaa" stroke-width="1.3" stroke-opacity="0.533333" points="806.08,-319.81 796.28,-315.77 801.42,-325.04 806.08,-319.81"/>
</g>
<!-- /lib/panels/right/outline_panel.dart&#45;&gt;/lib/models/file_system_item.dart -->
<g id="edge7" class="edge">
<title>/lib/panels/right/outline_panel.dart&#45;&gt;/lib/models/file_system_item.dart</title>
<path fill="none" stroke="#aabbaa" stroke-width="1.3" stroke-opacity="0.533333" d="M1075.53,-360.47C1083.47,-357.39 1091.95,-354.65 1100.14,-353 1112.92,-350.43 2029.96,-354.26 2039.14,-345 2065.11,-318.8 2059.72,-209.61 2039.14,-179 1989.87,-105.71 1941.24,-123.64 1855.14,-104 1706.72,-70.15 1251.4,-56.65 1069.43,-52.52"/>
<polygon fill="#aabbaa" fill-opacity="0.533333" stroke="#aabbaa" stroke-width="1.3" stroke-opacity="0.533333" points="1069.63,-49.02 1059.56,-52.3 1069.48,-56.02 1069.63,-49.02"/>
</g>
<!-- /lib/panels/right/ai_panel.dart -->
<g id="node4" class="node">
<title>/lib/panels/right/ai_panel.dart</title>
<path fill="Lavender" stroke="black" stroke-width="1.3" d="M1168.89,-397C1168.89,-397 1121.39,-397 1121.39,-397 1115.39,-397 1109.39,-391 1109.39,-385 1109.39,-385 1109.39,-373 1109.39,-373 1109.39,-367 1115.39,-361 1121.39,-361 1121.39,-361 1168.89,-361 1168.89,-361 1174.89,-361 1180.89,-367 1180.89,-373 1180.89,-373 1180.89,-385 1180.89,-385 1180.89,-391 1174.89,-397 1168.89,-397"/>
<text xml:space="preserve" text-anchor="middle" x="1145.14" y="-373.75" font-family="Arial" font-size="15.00">ai_panel</text>
</g>
<!-- /lib/panels/right/ai_panel.dart&#45;&gt;/lib/models/file_system_item.dart -->
<g id="edge10" class="edge">
<title>/lib/panels/right/ai_panel.dart&#45;&gt;/lib/models/file_system_item.dart</title>
<path fill="none" stroke="#aabbaa" stroke-width="1.3" stroke-opacity="0.533333" d="M1181.39,-375.98C1267.61,-371.26 1491.77,-359.39 1679.14,-353 1689.52,-352.65 2045.87,-352.43 2053.14,-345 2104.75,-292.28 2086.75,-244.68 2053.14,-179 2027.18,-128.27 2002.86,-123.01 1949.14,-104 1867.23,-75.02 1281.51,-58.03 1069.5,-52.77"/>
<polygon fill="#aabbaa" fill-opacity="0.533333" stroke="#aabbaa" stroke-width="1.3" stroke-opacity="0.533333" points="1069.63,-49.27 1059.54,-52.52 1069.46,-56.27 1069.63,-49.27"/>
</g>
<!-- /lib/services/ai_service.dart -->
<g id="node31" class="node">
<title>/lib/services/ai_service.dart</title>
<path fill="Lavender" stroke="black" stroke-width="1.3" d="M2015.51,-314C2015.51,-314 1956.76,-314 1956.76,-314 1950.76,-314 1944.76,-308 1944.76,-302 1944.76,-302 1944.76,-290 1944.76,-290 1944.76,-284 1950.76,-278 1956.76,-278 1956.76,-278 2015.51,-278 2015.51,-278 2021.51,-278 2027.51,-284 2027.51,-290 2027.51,-290 2027.51,-302 2027.51,-302 2027.51,-308 2021.51,-314 2015.51,-314"/>
<text xml:space="preserve" text-anchor="middle" x="1986.14" y="-290.75" font-family="Arial" font-size="15.00">ai_service</text>
</g>
<!-- /lib/panels/right/ai_panel.dart&#45;&gt;/lib/services/ai_service.dart -->
<g id="edge9" class="edge">
<title>/lib/panels/right/ai_panel.dart&#45;&gt;/lib/services/ai_service.dart</title>
<path fill="none" stroke="#aabbaa" stroke-width="1.3" stroke-opacity="0.533333" d="M1181.29,-372.9C1225.66,-366.88 1303.26,-357.18 1370.14,-353 1401.47,-351.04 1906.04,-356.78 1935.14,-345 1946.68,-340.33 1957.15,-331.71 1965.56,-323.05"/>
<polygon fill="#aabbaa" fill-opacity="0.533333" stroke="#aabbaa" stroke-width="1.3" stroke-opacity="0.533333" points="1968.14,-325.42 1972.22,-315.64 1962.93,-320.74 1968.14,-325.42"/>
</g>
<!-- /lib/panels/right/right_panel.dart -->
<g id="node5" class="node">
<title>/lib/panels/right/right_panel.dart</title>
<path fill="Lavender" stroke="black" stroke-width="1.3" d="M1119.89,-480C1119.89,-480 1054.39,-480 1054.39,-480 1048.39,-480 1042.39,-474 1042.39,-468 1042.39,-468 1042.39,-456 1042.39,-456 1042.39,-450 1048.39,-444 1054.39,-444 1054.39,-444 1119.89,-444 1119.89,-444 1125.89,-444 1131.89,-450 1131.89,-456 1131.89,-456 1131.89,-468 1131.89,-468 1131.89,-474 1125.89,-480 1119.89,-480"/>
<text xml:space="preserve" text-anchor="middle" x="1087.14" y="-456.75" font-family="Arial" font-size="15.00">right_panel</text>
</g>
<!-- /lib/panels/right/right_panel.dart&#45;&gt;/lib/panels/right/outline_panel.dart -->
<g id="edge11" class="edge">
<title>/lib/panels/right/right_panel.dart&#45;&gt;/lib/panels/right/outline_panel.dart</title>
<path fill="none" stroke="#aabbaa" stroke-width="1.3" stroke-opacity="0.533333" d="M1076.72,-443.42C1070.56,-433.02 1062.61,-419.61 1055.62,-407.8"/>
<polygon fill="#aabbaa" fill-opacity="0.533333" stroke="#aabbaa" stroke-width="1.3" stroke-opacity="0.533333" points="1058.65,-406.05 1050.54,-399.23 1052.62,-409.62 1058.65,-406.05"/>
</g>
<!-- /lib/panels/right/right_panel.dart&#45;&gt;/lib/panels/right/ai_panel.dart -->
<g id="edge12" class="edge">
<title>/lib/panels/right/right_panel.dart&#45;&gt;/lib/panels/right/ai_panel.dart</title>
<path fill="none" stroke="#aabbaa" stroke-width="1.3" stroke-opacity="0.533333" d="M1099.72,-443.42C1107.32,-432.81 1117.17,-419.06 1125.75,-407.08"/>
<polygon fill="#aabbaa" fill-opacity="0.533333" stroke="#aabbaa" stroke-width="1.3" stroke-opacity="0.533333" points="1128.46,-409.31 1131.43,-399.14 1122.77,-405.23 1128.46,-409.31"/>
</g>
<!-- /lib/panels/right/right_panel.dart&#45;&gt;/lib/models/file_system_item.dart -->
<g id="edge13" class="edge">
<title>/lib/panels/right/right_panel.dart&#45;&gt;/lib/models/file_system_item.dart</title>
<path fill="none" stroke="#aabbaa" stroke-width="1.3" stroke-opacity="0.533333" d="M1041.99,-457.27C971.73,-451.62 831.96,-441.04 713.14,-436 688.49,-434.95 292.86,-434.77 269.14,-428 199.95,-408.24 166.91,-406.85 130.14,-345 102.76,-298.95 86.42,-143.02 123.14,-104 150.15,-75.3 709.46,-58.21 916.74,-52.84"/>
<polygon fill="#aabbaa" fill-opacity="0.533333" stroke="#aabbaa" stroke-width="1.3" stroke-opacity="0.533333" points="916.83,-56.34 926.74,-52.59 916.65,-49.34 916.83,-56.34"/>
</g>
<!-- /lib/panels/center/large_file_message.dart -->
<g id="node6" class="node">
<title>/lib/panels/center/large_file_message.dart</title>
<path fill="Lavender" stroke="black" stroke-width="1.3" d="M858.64,-231C858.64,-231 737.64,-231 737.64,-231 731.64,-231 725.64,-225 725.64,-219 725.64,-219 725.64,-207 725.64,-207 725.64,-201 731.64,-195 737.64,-195 737.64,-195 858.64,-195 858.64,-195 864.64,-195 870.64,-201 870.64,-207 870.64,-207 870.64,-219 870.64,-219 870.64,-225 864.64,-231 858.64,-231"/>
<text xml:space="preserve" text-anchor="middle" x="798.14" y="-207.75" font-family="Arial" font-size="15.00">large_file_message</text>
</g>
<!-- /lib/panels/center/editor_screen.dart&#45;&gt;/lib/providers/app_providers.dart -->
<g id="edge15" class="edge">
<title>/lib/panels/center/editor_screen.dart&#45;&gt;/lib/providers/app_providers.dart</title>
<path fill="none" stroke="#aabbaa" stroke-width="1.3" stroke-opacity="0.533333" d="M815.49,-277.37C823.46,-274.34 831.95,-271.64 840.14,-270 874.73,-263.06 1441.62,-273 1475.14,-262 1489.69,-257.22 1503.79,-248.05 1515.26,-238.99"/>
<polygon fill="#aabbaa" fill-opacity="0.533333" stroke="#aabbaa" stroke-width="1.3" stroke-opacity="0.533333" points="1517.29,-241.86 1522.73,-232.77 1512.81,-236.48 1517.29,-241.86"/>
</g>
<!-- /lib/panels/center/editor_screen.dart&#45;&gt;/lib/panels/center/large_file_message.dart -->
<g id="edge14" class="edge">
<title>/lib/panels/center/editor_screen.dart&#45;&gt;/lib/panels/center/large_file_message.dart</title>
<path fill="none" stroke="#aabbaa" stroke-width="1.3" stroke-opacity="0.533333" d="M782.48,-277.42C784.97,-267.34 788.16,-254.43 791.01,-242.89"/>
<polygon fill="#aabbaa" fill-opacity="0.533333" stroke="#aabbaa" stroke-width="1.3" stroke-opacity="0.533333" points="794.34,-244 793.34,-233.45 787.54,-242.32 794.34,-244"/>
</g>
<!-- /lib/utils/message_helper.dart -->
<g id="node18" class="node">
<title>/lib/utils/message_helper.dart</title>
<path fill="Lavender" stroke="black" stroke-width="1.3" d="M1327.26,-231C1327.26,-231 1225.01,-231 1225.01,-231 1219.01,-231 1213.01,-225 1213.01,-219 1213.01,-219 1213.01,-207 1213.01,-207 1213.01,-201 1219.01,-195 1225.01,-195 1225.01,-195 1327.26,-195 1327.26,-195 1333.26,-195 1339.26,-201 1339.26,-207 1339.26,-207 1339.26,-219 1339.26,-219 1339.26,-225 1333.26,-231 1327.26,-231"/>
<text xml:space="preserve" text-anchor="middle" x="1276.14" y="-207.75" font-family="Arial" font-size="15.00">message_helper</text>
</g>
<!-- /lib/panels/center/editor_screen.dart&#45;&gt;/lib/utils/message_helper.dart -->
<g id="edge16" class="edge">
<title>/lib/panels/center/editor_screen.dart&#45;&gt;/lib/utils/message_helper.dart</title>
<path fill="none" stroke="#aabbaa" stroke-width="1.3" stroke-opacity="0.533333" d="M816.21,-277.38C823.98,-274.44 832.21,-271.77 840.14,-270 903.14,-255.97 920.98,-269.04 985.14,-262 1058.83,-253.91 1142.24,-239.62 1200.81,-228.73"/>
<polygon fill="#aabbaa" fill-opacity="0.533333" stroke="#aabbaa" stroke-width="1.3" stroke-opacity="0.533333" points="1201.43,-232.17 1210.61,-226.89 1200.14,-225.29 1201.43,-232.17"/>
</g>
<!-- /lib/panels/center/editor_screen.dart&#45;&gt;/lib/utils/file_type_utils.dart -->
<g id="edge17" class="edge">
<title>/lib/panels/center/editor_screen.dart&#45;&gt;/lib/utils/file_type_utils.dart</title>
<path fill="none" stroke="#aabbaa" stroke-width="1.3" stroke-opacity="0.533333" d="M815.49,-277.39C823.46,-274.36 831.95,-271.66 840.14,-270 895.47,-258.81 1294.87,-280.68 1348.14,-262 1361.85,-257.19 1374.91,-248.05 1385.47,-239.02"/>
<polygon fill="#aabbaa" fill-opacity="0.533333" stroke="#aabbaa" stroke-width="1.3" stroke-opacity="0.533333" points="1387.55,-241.86 1392.61,-232.55 1382.85,-236.68 1387.55,-241.86"/>
</g>
<!-- /lib/panels/center/editor_screen.dart&#45;&gt;/lib/models/document_state.dart -->
<g id="edge18" class="edge">
<title>/lib/panels/center/editor_screen.dart&#45;&gt;/lib/models/document_state.dart</title>
<path fill="none" stroke="#aabbaa" stroke-width="1.3" stroke-opacity="0.533333" d="M738.91,-277.4C730.56,-274.37 721.68,-271.67 713.14,-270 701.03,-267.64 277.78,-270.8 269.14,-262 243.29,-235.68 243.19,-205.22 269.14,-179 284.21,-163.78 1019.69,-177.38 1040.14,-171 1055.49,-166.21 1070.54,-156.91 1082.8,-147.75"/>
<polygon fill="#aabbaa" fill-opacity="0.533333" stroke="#aabbaa" stroke-width="1.3" stroke-opacity="0.533333" points="1084.74,-150.68 1090.44,-141.75 1080.42,-145.18 1084.74,-150.68"/>
</g>
<!-- /lib/panels/center/terminal_panel.dart -->
<g id="node8" class="node">
<title>/lib/panels/center/terminal_panel.dart</title>
<path fill="Lavender" stroke="black" stroke-width="1.3" d="M950.89,-314C950.89,-314 861.39,-314 861.39,-314 855.39,-314 849.39,-308 849.39,-302 849.39,-302 849.39,-290 849.39,-290 849.39,-284 855.39,-278 861.39,-278 861.39,-278 950.89,-278 950.89,-278 956.89,-278 962.89,-284 962.89,-290 962.89,-290 962.89,-302 962.89,-302 962.89,-308 956.89,-314 950.89,-314"/>
<text xml:space="preserve" text-anchor="middle" x="906.14" y="-290.75" font-family="Arial" font-size="15.00">terminal_panel</text>
</g>
<!-- /lib/panels/center/terminal_panel.dart&#45;&gt;/lib/providers/app_providers.dart -->
<g id="edge19" class="edge">
<title>/lib/panels/center/terminal_panel.dart&#45;&gt;/lib/providers/app_providers.dart</title>
<path fill="none" stroke="#aabbaa" stroke-width="1.3" stroke-opacity="0.533333" d="M963.29,-283.67C991.94,-278.5 1027.24,-272.9 1059.14,-270 1105.18,-265.82 1431.26,-276.56 1475.14,-262 1489.67,-257.18 1503.77,-248 1515.25,-238.94"/>
<polygon fill="#aabbaa" fill-opacity="0.533333" stroke="#aabbaa" stroke-width="1.3" stroke-opacity="0.533333" points="1517.27,-241.82 1522.72,-232.73 1512.79,-236.44 1517.27,-241.82"/>
</g>
<!-- /lib/panels/center/center_panel.dart -->
<g id="node9" class="node">
<title>/lib/panels/center/center_panel.dart</title>
<path fill="Lavender" stroke="black" stroke-width="1.3" d="M948.26,-397C948.26,-397 870.01,-397 870.01,-397 864.01,-397 858.01,-391 858.01,-385 858.01,-385 858.01,-373 858.01,-373 858.01,-367 864.01,-361 870.01,-361 870.01,-361 948.26,-361 948.26,-361 954.26,-361 960.26,-367 960.26,-373 960.26,-373 960.26,-385 960.26,-385 960.26,-391 954.26,-397 948.26,-397"/>
<text xml:space="preserve" text-anchor="middle" x="909.14" y="-373.75" font-family="Arial" font-size="15.00">center_panel</text>
</g>
<!-- /lib/panels/center/center_panel.dart&#45;&gt;/lib/providers/app_providers.dart -->
<g id="edge21" class="edge">
<title>/lib/panels/center/center_panel.dart&#45;&gt;/lib/providers/app_providers.dart</title>
<path fill="none" stroke="#aabbaa" stroke-width="1.3" stroke-opacity="0.533333" d="M955.24,-360.36C961.91,-357.86 968.69,-355.35 975.14,-353 1080.42,-314.71 1102.99,-290.39 1213.14,-270 1241.78,-264.7 1447.55,-271.33 1475.14,-262 1489.54,-257.13 1503.53,-248.03 1514.97,-239.06"/>
<polygon fill="#aabbaa" fill-opacity="0.533333" stroke="#aabbaa" stroke-width="1.3" stroke-opacity="0.533333" points="1516.94,-241.97 1522.41,-232.9 1512.48,-236.58 1516.94,-241.97"/>
</g>
<!-- /lib/panels/center/center_panel.dart&#45;&gt;/lib/panels/center/editor_screen.dart -->
<g id="edge23" class="edge">
<title>/lib/panels/center/center_panel.dart&#45;&gt;/lib/panels/center/editor_screen.dart</title>
<path fill="none" stroke="#aabbaa" stroke-width="1.3" stroke-opacity="0.533333" d="M868.6,-360.38C859.06,-355.76 849.07,-350.51 840.14,-345 829.07,-338.18 817.64,-329.77 807.65,-321.9"/>
<polygon fill="#aabbaa" fill-opacity="0.533333" stroke="#aabbaa" stroke-width="1.3" stroke-opacity="0.533333" points="810.09,-319.37 800.1,-315.83 805.7,-324.83 810.09,-319.37"/>
</g>
<!-- /lib/panels/center/center_panel.dart&#45;&gt;/lib/panels/center/terminal_panel.dart -->
<g id="edge24" class="edge">
<title>/lib/panels/center/center_panel.dart&#45;&gt;/lib/panels/center/terminal_panel.dart</title>
<path fill="none" stroke="#aabbaa" stroke-width="1.3" stroke-opacity="0.533333" d="M908.49,-360.42C908.12,-350.45 907.65,-337.7 907.22,-326.26"/>
<polygon fill="#aabbaa" fill-opacity="0.533333" stroke="#aabbaa" stroke-width="1.3" stroke-opacity="0.533333" points="910.73,-326.37 906.86,-316.51 903.73,-326.63 910.73,-326.37"/>
</g>
<!-- /lib/panels/center/center_panel.dart&#45;&gt;/lib/models/document_state.dart -->
<g id="edge20" class="edge">
<title>/lib/panels/center/center_panel.dart&#45;&gt;/lib/models/document_state.dart</title>
<path fill="none" stroke="#aabbaa" stroke-width="1.3" stroke-opacity="0.533333" d="M857.71,-369.88C818.26,-364.04 762.41,-356.58 713.14,-353 700.84,-352.11 278.89,-352.56 269.14,-345 210.26,-299.38 193.74,-231.93 246.14,-179 261.66,-163.33 1019.08,-177.57 1040.14,-171 1055.49,-166.21 1070.54,-156.91 1082.8,-147.76"/>
<polygon fill="#aabbaa" fill-opacity="0.533333" stroke="#aabbaa" stroke-width="1.3" stroke-opacity="0.533333" points="1084.74,-150.68 1090.44,-141.75 1080.42,-145.18 1084.74,-150.68"/>
</g>
<!-- /lib/panels/center/center_panel.dart&#45;&gt;/lib/models/file_system_item.dart -->
<g id="edge26" class="edge">
<title>/lib/panels/center/center_panel.dart&#45;&gt;/lib/models/file_system_item.dart</title>
<path fill="none" stroke="#aabbaa" stroke-width="1.3" stroke-opacity="0.533333" d="M857.71,-369.88C818.26,-364.04 762.41,-356.58 713.14,-353 700.84,-352.11 279.53,-351.66 269.14,-345 205.24,-304.06 216.09,-253.76 229.14,-179 235.23,-144.1 227.9,-125.4 256.14,-104 307.92,-64.76 739.32,-54.43 917.06,-51.83"/>
<polygon fill="#aabbaa" fill-opacity="0.533333" stroke="#aabbaa" stroke-width="1.3" stroke-opacity="0.533333" points="916.99,-55.34 926.94,-51.69 916.89,-48.34 916.99,-55.34"/>
</g>
<!-- /lib/screens/welcome_screen.dart -->
<g id="node25" class="node">
<title>/lib/screens/welcome_screen.dart</title>
<path fill="Lavender" stroke="black" stroke-width="1.3" d="M1445.01,-480C1445.01,-480 1341.26,-480 1341.26,-480 1335.26,-480 1329.26,-474 1329.26,-468 1329.26,-468 1329.26,-456 1329.26,-456 1329.26,-450 1335.26,-444 1341.26,-444 1341.26,-444 1445.01,-444 1445.01,-444 1451.01,-444 1457.01,-450 1457.01,-456 1457.01,-456 1457.01,-468 1457.01,-468 1457.01,-474 1451.01,-480 1445.01,-480"/>
<text xml:space="preserve" text-anchor="middle" x="1393.14" y="-456.75" font-family="Arial" font-size="15.00">welcome_screen</text>
</g>
<!-- /lib/panels/center/center_panel.dart&#45;&gt;/lib/screens/welcome_screen.dart -->
<g id="edge22" class="edge">
<title>/lib/panels/center/center_panel.dart&#45;&gt;/lib/screens/welcome_screen.dart</title>
<path fill="none" stroke="#aabbaa" stroke-width="1.3" stroke-opacity="0.533333" d="M926.75,-397.44C939.14,-408.47 956.75,-421.78 975.14,-428 1011.15,-440.18 1279.68,-429.55 1317.14,-436 1323.3,-437.06 1329.64,-438.52 1335.91,-440.21"/>
<polygon fill="#aabbaa" fill-opacity="0.533333" stroke="#aabbaa" stroke-width="1.3" stroke-opacity="0.533333" points="1334.6,-443.47 1345.18,-442.9 1336.55,-436.75 1334.6,-443.47"/>
</g>
<!-- /lib/widgets/resizable_splitter.dart -->
<g id="node33" class="node">
<title>/lib/widgets/resizable_splitter.dart</title>
<path fill="Lavender" stroke="black" stroke-width="1.3" d="M1341.01,-314C1341.01,-314 1237.26,-314 1237.26,-314 1231.26,-314 1225.26,-308 1225.26,-302 1225.26,-302 1225.26,-290 1225.26,-290 1225.26,-284 1231.26,-278 1237.26,-278 1237.26,-278 1341.01,-278 1341.01,-278 1347.01,-278 1353.01,-284 1353.01,-290 1353.01,-290 1353.01,-302 1353.01,-302 1353.01,-308 1347.01,-314 1341.01,-314"/>
<text xml:space="preserve" text-anchor="middle" x="1289.14" y="-290.75" font-family="Arial" font-size="15.00">resizable_splitter</text>
</g>
<!-- /lib/panels/center/center_panel.dart&#45;&gt;/lib/widgets/resizable_splitter.dart -->
<g id="edge25" class="edge">
<title>/lib/panels/center/center_panel.dart&#45;&gt;/lib/widgets/resizable_splitter.dart</title>
<path fill="none" stroke="#aabbaa" stroke-width="1.3" stroke-opacity="0.533333" d="M949.37,-360.43C957.74,-357.44 966.62,-354.74 975.14,-353 1060.12,-335.64 1085.35,-363.27 1170.14,-345 1195.36,-339.57 1222.12,-329.23 1243.86,-319.53"/>
<polygon fill="#aabbaa" fill-opacity="0.533333" stroke="#aabbaa" stroke-width="1.3" stroke-opacity="0.533333" points="1245.31,-322.71 1252.94,-315.37 1242.4,-316.35 1245.31,-322.71"/>
</g>
<!-- /lib/panels/left/git_panel.dart -->
<g id="node10" class="node">
<title>/lib/panels/left/git_panel.dart</title>
<path fill="Lavender" stroke="black" stroke-width="1.3" d="M681.14,-231C681.14,-231 629.14,-231 629.14,-231 623.14,-231 617.14,-225 617.14,-219 617.14,-219 617.14,-207 617.14,-207 617.14,-201 623.14,-195 629.14,-195 629.14,-195 681.14,-195 681.14,-195 687.14,-195 693.14,-201 693.14,-207 693.14,-207 693.14,-219 693.14,-219 693.14,-225 687.14,-231 681.14,-231"/>
<text xml:space="preserve" text-anchor="middle" x="655.14" y="-207.75" font-family="Arial" font-size="15.00">git_panel</text>
</g>
<!-- /lib/services/git_service.dart -->
<g id="node29" class="node">
<title>/lib/services/git_service.dart</title>
<path fill="Lavender" stroke="black" stroke-width="1.3" d="M1720.76,-231C1720.76,-231 1657.51,-231 1657.51,-231 1651.51,-231 1645.51,-225 1645.51,-219 1645.51,-219 1645.51,-207 1645.51,-207 1645.51,-201 1651.51,-195 1657.51,-195 1657.51,-195 1720.76,-195 1720.76,-195 1726.76,-195 1732.76,-201 1732.76,-207 1732.76,-207 1732.76,-219 1732.76,-219 1732.76,-225 1726.76,-231 1720.76,-231"/>
<text xml:space="preserve" text-anchor="middle" x="1689.14" y="-207.75" font-family="Arial" font-size="15.00">git_service</text>
</g>
<!-- /lib/panels/left/git_panel.dart&#45;&gt;/lib/services/git_service.dart -->
<g id="edge27" class="edge">
<title>/lib/panels/left/git_panel.dart&#45;&gt;/lib/services/git_service.dart</title>
<path fill="none" stroke="#aabbaa" stroke-width="1.3" stroke-opacity="0.533333" d="M669.89,-231.46C682.14,-244.9 700.96,-261.5 722.14,-266 746,-271.06 1576.28,-271.06 1600.14,-266 1621.12,-261.55 1641.86,-249.74 1658.04,-238.4"/>
<polygon fill="#aabbaa" fill-opacity="0.533333" stroke="#aabbaa" stroke-width="1.3" stroke-opacity="0.533333" points="1659.91,-241.37 1665.9,-232.63 1655.77,-235.73 1659.91,-241.37"/>
</g>
<!-- /lib/panels/left/left_panel_controls.dart -->
<g id="node11" class="node">
<title>/lib/panels/left/left_panel_controls.dart</title>
<path fill="Lavender" stroke="black" stroke-width="1.3" d="M410.76,-480C410.76,-480 293.51,-480 293.51,-480 287.51,-480 281.51,-474 281.51,-468 281.51,-468 281.51,-456 281.51,-456 281.51,-450 287.51,-444 293.51,-444 293.51,-444 410.76,-444 410.76,-444 416.76,-444 422.76,-450 422.76,-456 422.76,-456 422.76,-468 422.76,-468 422.76,-474 416.76,-480 410.76,-480"/>
<text xml:space="preserve" text-anchor="middle" x="352.14" y="-456.75" font-family="Arial" font-size="15.00">left_panel_controls</text>
</g>
<!-- /lib/panels/left/base_panel.dart -->
<g id="node12" class="node">
<title>/lib/panels/left/base_panel.dart</title>
<path fill="Lavender" stroke="black" stroke-width="1.3" d="M689.39,-314C689.39,-314 620.89,-314 620.89,-314 614.89,-314 608.89,-308 608.89,-302 608.89,-302 608.89,-290 608.89,-290 608.89,-284 614.89,-278 620.89,-278 620.89,-278 689.39,-278 689.39,-278 695.39,-278 701.39,-284 701.39,-290 701.39,-290 701.39,-302 701.39,-302 701.39,-308 695.39,-314 689.39,-314"/>
<text xml:space="preserve" text-anchor="middle" x="655.14" y="-290.75" font-family="Arial" font-size="15.00">base_panel</text>
</g>
<!-- /lib/panels/left/base_panel.dart&#45;&gt;/lib/providers/app_providers.dart -->
<g id="edge33" class="edge">
<title>/lib/panels/left/base_panel.dart&#45;&gt;/lib/providers/app_providers.dart</title>
<path fill="none" stroke="#aabbaa" stroke-width="1.3" stroke-opacity="0.533333" d="M689.99,-277.36C697.45,-274.33 705.42,-271.64 713.14,-270 754.56,-261.23 1434.9,-275.16 1475.14,-262 1489.7,-257.24 1503.79,-248.07 1515.27,-239.01"/>
<polygon fill="#aabbaa" fill-opacity="0.533333" stroke="#aabbaa" stroke-width="1.3" stroke-opacity="0.533333" points="1517.3,-241.88 1522.73,-232.78 1512.81,-236.5 1517.3,-241.88"/>
</g>
<!-- /lib/panels/left/base_panel.dart&#45;&gt;/lib/panels/left/git_panel.dart -->
<g id="edge32" class="edge">
<title>/lib/panels/left/base_panel.dart&#45;&gt;/lib/panels/left/git_panel.dart</title>
<path fill="none" stroke="#aabbaa" stroke-width="1.3" stroke-opacity="0.533333" d="M655.14,-277.42C655.14,-267.45 655.14,-254.7 655.14,-243.26"/>
<polygon fill="#aabbaa" fill-opacity="0.533333" stroke="#aabbaa" stroke-width="1.3" stroke-opacity="0.533333" points="658.64,-243.51 655.14,-233.51 651.64,-243.51 658.64,-243.51"/>
</g>
<!-- /lib/panels/left/base_panel.dart&#45;&gt;/lib/utils/message_helper.dart -->
<g id="edge31" class="edge">
<title>/lib/panels/left/base_panel.dart&#45;&gt;/lib/utils/message_helper.dart</title>
<path fill="none" stroke="#aabbaa" stroke-width="1.3" stroke-opacity="0.533333" d="M690.01,-277.47C697.47,-274.43 705.43,-271.71 713.14,-270 772.18,-256.91 924.95,-267.82 985.14,-262 1058.93,-254.86 1142.32,-240.45 1200.86,-229.27"/>
<polygon fill="#aabbaa" fill-opacity="0.533333" stroke="#aabbaa" stroke-width="1.3" stroke-opacity="0.533333" points="1201.51,-232.71 1210.67,-227.38 1200.18,-225.83 1201.51,-232.71"/>
</g>
<!-- /lib/panels/left/base_panel.dart&#45;&gt;/lib/models/project_node.dart -->
<g id="edge28" class="edge">
<title>/lib/panels/left/base_panel.dart&#45;&gt;/lib/models/project_node.dart</title>
<path fill="none" stroke="#aabbaa" stroke-width="1.3" stroke-opacity="0.533333" d="M690.01,-277.48C697.47,-274.44 705.43,-271.71 713.14,-270 727.35,-266.84 964.81,-272.27 975.14,-262 1003.68,-233.61 997.17,-183.25 989.16,-151.58"/>
<polygon fill="#aabbaa" fill-opacity="0.533333" stroke="#aabbaa" stroke-width="1.3" stroke-opacity="0.533333" points="992.64,-151.04 986.61,-142.33 985.89,-152.9 992.64,-151.04"/>
</g>
<!-- /lib/panels/left/base_panel.dart&#45;&gt;/lib/models/file_system_item.dart -->
<g id="edge29" class="edge">
<title>/lib/panels/left/base_panel.dart&#45;&gt;/lib/models/file_system_item.dart</title>
<path fill="none" stroke="#aabbaa" stroke-width="1.3" stroke-opacity="0.533333" d="M608.42,-294.68C506.84,-293.5 273.08,-287.96 249.14,-262 224.13,-234.88 225.37,-207.21 249.14,-179 334.08,-78.2 744.88,-56.78 917.01,-52.23"/>
<polygon fill="#aabbaa" fill-opacity="0.533333" stroke="#aabbaa" stroke-width="1.3" stroke-opacity="0.533333" points="916.86,-55.73 926.77,-51.98 916.69,-48.73 916.86,-55.73"/>
</g>
<!-- /lib/panels/left/base_panel.dart&#45;&gt;/lib/services/git_service.dart -->
<g id="edge30" class="edge">
<title>/lib/panels/left/base_panel.dart&#45;&gt;/lib/services/git_service.dart</title>
<path fill="none" stroke="#aabbaa" stroke-width="1.3" stroke-opacity="0.533333" d="M689.67,-277.47C697.23,-274.4 705.31,-271.65 713.14,-270 761.85,-259.72 1561.23,-275.5 1609.14,-262 1626.33,-257.16 1643.55,-247.58 1657.58,-238.25"/>
<polygon fill="#aabbaa" fill-opacity="0.533333" stroke="#aabbaa" stroke-width="1.3" stroke-opacity="0.533333" points="1659.37,-241.28 1665.58,-232.69 1655.37,-235.53 1659.37,-241.28"/>
</g>
<!-- /lib/panels/left/directory_contents.dart -->
<g id="node13" class="node">
<title>/lib/panels/left/directory_contents.dart</title>
<path fill="Lavender" stroke="black" stroke-width="1.3" d="M688.64,-397C688.64,-397 573.64,-397 573.64,-397 567.64,-397 561.64,-391 561.64,-385 561.64,-385 561.64,-373 561.64,-373 561.64,-367 567.64,-361 573.64,-361 573.64,-361 688.64,-361 688.64,-361 694.64,-361 700.64,-367 700.64,-373 700.64,-373 700.64,-385 700.64,-385 700.64,-391 694.64,-397 688.64,-397"/>
<text xml:space="preserve" text-anchor="middle" x="631.14" y="-373.75" font-family="Arial" font-size="15.00">directory_contents</text>
</g>
<!-- /lib/panels/left/directory_contents.dart&#45;&gt;/lib/models/file_system_item.dart -->
<g id="edge36" class="edge">
<title>/lib/panels/left/directory_contents.dart&#45;&gt;/lib/models/file_system_item.dart</title>
<path fill="none" stroke="#aabbaa" stroke-width="1.3" stroke-opacity="0.533333" d="M570.3,-360.38C557.78,-357.39 544.61,-354.71 532.14,-353 514.58,-350.59 225.74,-357.47 213.14,-345 136.87,-269.57 145.13,-174.31 226.14,-104 277.5,-59.42 733.17,-52.23 916.87,-51.15"/>
<polygon fill="#aabbaa" fill-opacity="0.533333" stroke="#aabbaa" stroke-width="1.3" stroke-opacity="0.533333" points="916.88,-54.65 926.87,-51.1 916.85,-47.65 916.88,-54.65"/>
</g>
<!-- /lib/panels/left/directory_contents.dart&#45;&gt;/lib/services/git_service.dart -->
<g id="edge35" class="edge">
<title>/lib/panels/left/directory_contents.dart&#45;&gt;/lib/services/git_service.dart</title>
<path fill="none" stroke="#aabbaa" stroke-width="1.3" stroke-opacity="0.533333" d="M680.93,-360.45C691.44,-357.42 702.56,-354.7 713.14,-353 752.2,-346.73 1030.82,-354.84 1069.14,-345 1139.03,-327.05 1143.23,-287.87 1213.14,-270 1255.78,-259.1 1566.85,-274.18 1609.14,-262 1626.3,-257.06 1643.51,-247.47 1657.56,-238.16"/>
<polygon fill="#aabbaa" fill-opacity="0.533333" stroke="#aabbaa" stroke-width="1.3" stroke-opacity="0.533333" points="1659.33,-241.19 1665.56,-232.61 1655.34,-235.43 1659.33,-241.19"/>
</g>
<!-- /lib/services/file_system_service.dart -->
<g id="node32" class="node">
<title>/lib/services/file_system_service.dart</title>
<path fill="Lavender" stroke="black" stroke-width="1.3" d="M1914.39,-314C1914.39,-314 1791.89,-314 1791.89,-314 1785.89,-314 1779.89,-308 1779.89,-302 1779.89,-302 1779.89,-290 1779.89,-290 1779.89,-284 1785.89,-278 1791.89,-278 1791.89,-278 1914.39,-278 1914.39,-278 1920.39,-278 1926.39,-284 1926.39,-290 1926.39,-290 1926.39,-302 1926.39,-302 1926.39,-308 1920.39,-314 1914.39,-314"/>
<text xml:space="preserve" text-anchor="middle" x="1853.14" y="-290.75" font-family="Arial" font-size="15.00">file_system_service</text>
</g>
<!-- /lib/panels/left/directory_contents.dart&#45;&gt;/lib/services/file_system_service.dart -->
<g id="edge34" class="edge">
<title>/lib/panels/left/directory_contents.dart&#45;&gt;/lib/services/file_system_service.dart</title>
<path fill="none" stroke="#aabbaa" stroke-width="1.3" stroke-opacity="0.533333" d="M680.47,-360.46C691.12,-357.38 702.4,-354.64 713.14,-353 771.19,-344.12 1713.48,-360.43 1770.14,-345 1788.02,-340.13 1806.04,-330.42 1820.7,-321"/>
<polygon fill="#aabbaa" fill-opacity="0.533333" stroke="#aabbaa" stroke-width="1.3" stroke-opacity="0.533333" points="1822.28,-324.16 1828.64,-315.68 1818.38,-318.34 1822.28,-324.16"/>
</g>
<!-- /lib/panels/left/folder_panel.dart -->
<g id="node14" class="node">
<title>/lib/panels/left/folder_panel.dart</title>
<path fill="Lavender" stroke="black" stroke-width="1.3" d="M367.01,-397C367.01,-397 293.26,-397 293.26,-397 287.26,-397 281.26,-391 281.26,-385 281.26,-385 281.26,-373 281.26,-373 281.26,-367 287.26,-361 293.26,-361 293.26,-361 367.01,-361 367.01,-361 373.01,-361 379.01,-367 379.01,-373 379.01,-373 379.01,-385 379.01,-385 379.01,-391 373.01,-397 367.01,-397"/>
<text xml:space="preserve" text-anchor="middle" x="330.14" y="-373.75" font-family="Arial" font-size="15.00">folder_panel</text>
</g>
<!-- /lib/panels/left/folder_panel.dart&#45;&gt;/lib/panels/left/base_panel.dart -->
<g id="edge40" class="edge">
<title>/lib/panels/left/folder_panel.dart&#45;&gt;/lib/panels/left/base_panel.dart</title>
<path fill="none" stroke="#aabbaa" stroke-width="1.3" stroke-opacity="0.533333" d="M368.1,-360.35C374.7,-357.66 381.55,-355.09 388.14,-353 458.6,-330.67 542.37,-314.76 597.04,-305.73"/>
<polygon fill="#aabbaa" fill-opacity="0.533333" stroke="#aabbaa" stroke-width="1.3" stroke-opacity="0.533333" points="597.34,-309.23 606.65,-304.17 596.21,-302.32 597.34,-309.23"/>
</g>
<!-- /lib/panels/left/folder_panel.dart&#45;&gt;/lib/models/project_node.dart -->
<g id="edge37" class="edge">
<title>/lib/panels/left/folder_panel.dart&#45;&gt;/lib/models/project_node.dart</title>
<path fill="none" stroke="#aabbaa" stroke-width="1.3" stroke-opacity="0.533333" d="M280.8,-374.48C239.11,-370.37 184.04,-361.85 170.14,-345 123.19,-288.09 118.8,-232.94 169.14,-179 219.76,-124.76 734.39,-121.84 916.61,-122.53"/>
<polygon fill="#aabbaa" fill-opacity="0.533333" stroke="#aabbaa" stroke-width="1.3" stroke-opacity="0.533333" points="916.4,-126.03 926.41,-122.57 916.43,-119.03 916.4,-126.03"/>
</g>
<!-- /lib/panels/left/folder_panel.dart&#45;&gt;/lib/models/file_system_item.dart -->
<g id="edge38" class="edge">
<title>/lib/panels/left/folder_panel.dart&#45;&gt;/lib/models/file_system_item.dart</title>
<path fill="none" stroke="#aabbaa" stroke-width="1.3" stroke-opacity="0.533333" d="M280.8,-374.48C239.11,-370.37 184.04,-361.85 170.14,-345 101.98,-262.37 96.36,-181.64 170.14,-104 195.66,-77.14 718.11,-59.06 917.09,-53.13"/>
<polygon fill="#aabbaa" fill-opacity="0.533333" stroke="#aabbaa" stroke-width="1.3" stroke-opacity="0.533333" points="917.02,-56.63 926.91,-52.84 916.81,-49.64 917.02,-56.63"/>
</g>
<!-- /lib/panels/left/folder_panel.dart&#45;&gt;/lib/services/git_service.dart -->
<g id="edge39" class="edge">
<title>/lib/panels/left/folder_panel.dart&#45;&gt;/lib/services/git_service.dart</title>
<path fill="none" stroke="#aabbaa" stroke-width="1.3" stroke-opacity="0.533333" d="M364.99,-360.37C372.45,-357.35 380.42,-354.65 388.14,-353 420.03,-346.19 944.43,-355.99 975.14,-345 1025.46,-327 1018.83,-288.03 1069.14,-270 1125.63,-249.76 1551.43,-278.45 1609.14,-262 1626.31,-257.11 1643.53,-247.53 1657.57,-238.2"/>
<polygon fill="#aabbaa" fill-opacity="0.533333" stroke="#aabbaa" stroke-width="1.3" stroke-opacity="0.533333" points="1659.35,-241.23 1665.57,-232.65 1655.36,-235.48 1659.35,-241.23"/>
</g>
<!-- /lib/panels/left/file_explorer.dart -->
<g id="node15" class="node">
<title>/lib/panels/left/file_explorer.dart</title>
<path fill="Lavender" stroke="black" stroke-width="1.3" d="M677.64,-480C677.64,-480 604.64,-480 604.64,-480 598.64,-480 592.64,-474 592.64,-468 592.64,-468 592.64,-456 592.64,-456 592.64,-450 598.64,-444 604.64,-444 604.64,-444 677.64,-444 677.64,-444 683.64,-444 689.64,-450 689.64,-456 689.64,-456 689.64,-468 689.64,-468 689.64,-474 683.64,-480 677.64,-480"/>
<text xml:space="preserve" text-anchor="middle" x="641.14" y="-456.75" font-family="Arial" font-size="15.00">file_explorer</text>
</g>
<!-- /lib/panels/left/file_explorer.dart&#45;&gt;/lib/panels/left/directory_contents.dart -->
<g id="edge44" class="edge">
<title>/lib/panels/left/file_explorer.dart&#45;&gt;/lib/panels/left/directory_contents.dart</title>
<path fill="none" stroke="#aabbaa" stroke-width="1.3" stroke-opacity="0.533333" d="M638.97,-443.42C637.74,-433.45 636.16,-420.7 634.75,-409.26"/>
<polygon fill="#aabbaa" fill-opacity="0.533333" stroke="#aabbaa" stroke-width="1.3" stroke-opacity="0.533333" points="638.24,-408.99 633.55,-399.49 631.3,-409.85 638.24,-408.99"/>
</g>
<!-- /lib/panels/left/file_explorer.dart&#45;&gt;/lib/models/file_system_item.dart -->
<g id="edge43" class="edge">
<title>/lib/panels/left/file_explorer.dart&#45;&gt;/lib/models/file_system_item.dart</title>
<path fill="none" stroke="#aabbaa" stroke-width="1.3" stroke-opacity="0.533333" d="M592.06,-447.71C572.89,-443.11 550.63,-438.49 530.14,-436 508.13,-433.33 148.95,-441.21 131.14,-428 73.03,-384.9 49.17,-156.32 99.14,-104 127.2,-74.62 705.68,-57.88 916.84,-52.73"/>
<polygon fill="#aabbaa" fill-opacity="0.533333" stroke="#aabbaa" stroke-width="1.3" stroke-opacity="0.533333" points="916.84,-56.23 926.75,-52.49 916.67,-49.23 916.84,-56.23"/>
</g>
<!-- /lib/panels/left/file_explorer.dart&#45;&gt;/lib/services/git_service.dart -->
<g id="edge42" class="edge">
<title>/lib/panels/left/file_explorer.dart&#45;&gt;/lib/services/git_service.dart</title>
<path fill="none" stroke="#aabbaa" stroke-width="1.3" stroke-opacity="0.533333" d="M690.05,-456.58C755.09,-450.88 873.65,-441.1 975.14,-436 1113.68,-429.04 1149.23,-442.86 1287.14,-428 1463.5,-409 1502.75,-371.72 1679.14,-353 1689,-351.95 2029.2,-352.09 2036.14,-345 2059.44,-321.17 2059.39,-293.89 2036.14,-270 2024.74,-258.29 1757.3,-268.08 1742.14,-262 1730.39,-257.28 1719.59,-248.71 1710.84,-240.09"/>
<polygon fill="#aabbaa" fill-opacity="0.533333" stroke="#aabbaa" stroke-width="1.3" stroke-opacity="0.533333" points="1713.59,-237.9 1704.18,-233.04 1708.5,-242.71 1713.59,-237.9"/>
</g>
<!-- /lib/panels/left/file_explorer.dart&#45;&gt;/lib/services/file_system_service.dart -->
<g id="edge41" class="edge">
<title>/lib/panels/left/file_explorer.dart&#45;&gt;/lib/services/file_system_service.dart</title>
<path fill="none" stroke="#aabbaa" stroke-width="1.3" stroke-opacity="0.533333" d="M690.06,-456.75C755.11,-451.24 873.68,-441.66 975.14,-436 1023.54,-433.3 1145.82,-438.52 1193.14,-428 1276.54,-409.46 1286.59,-370.84 1370.14,-353 1413.61,-343.72 1727.32,-356.95 1770.14,-345 1787.99,-340.02 1806.01,-330.29 1820.67,-320.89"/>
<polygon fill="#aabbaa" fill-opacity="0.533333" stroke="#aabbaa" stroke-width="1.3" stroke-opacity="0.533333" points="1822.24,-324.06 1828.61,-315.59 1818.35,-318.23 1822.24,-324.06"/>
</g>
<!-- /lib/panels/left/left_panel.dart -->
<g id="node16" class="node">
<title>/lib/panels/left/left_panel.dart</title>
<path fill="Lavender" stroke="black" stroke-width="1.3" d="M509.39,-480C509.39,-480 452.89,-480 452.89,-480 446.89,-480 440.89,-474 440.89,-468 440.89,-468 440.89,-456 440.89,-456 440.89,-450 446.89,-444 452.89,-444 452.89,-444 509.39,-444 509.39,-444 515.39,-444 521.39,-450 521.39,-456 521.39,-456 521.39,-468 521.39,-468 521.39,-474 515.39,-480 509.39,-480"/>
<text xml:space="preserve" text-anchor="middle" x="481.14" y="-456.75" font-family="Arial" font-size="15.00">left_panel</text>
</g>
<!-- /lib/panels/left/left_panel.dart&#45;&gt;/lib/panels/left/git_panel.dart -->
<g id="edge47" class="edge">
<title>/lib/panels/left/left_panel.dart&#45;&gt;/lib/panels/left/git_panel.dart</title>
<path fill="none" stroke="#aabbaa" stroke-width="1.3" stroke-opacity="0.533333" d="M515.85,-443.47C521.97,-439.11 527.76,-433.94 532.14,-428 552.67,-400.13 539.85,-384.96 553.14,-353 569.42,-313.86 574.63,-303.86 600.14,-270 608.09,-259.44 617.92,-248.85 627.05,-239.76"/>
<polygon fill="#aabbaa" fill-opacity="0.533333" stroke="#aabbaa" stroke-width="1.3" stroke-opacity="0.533333" points="629.36,-242.4 634.1,-232.92 624.48,-237.37 629.36,-242.4"/>
</g>
<!-- /lib/panels/left/left_panel.dart&#45;&gt;/lib/panels/left/folder_panel.dart -->
<g id="edge45" class="edge">
<title>/lib/panels/left/left_panel.dart&#45;&gt;/lib/panels/left/folder_panel.dart</title>
<path fill="none" stroke="#aabbaa" stroke-width="1.3" stroke-opacity="0.533333" d="M450.1,-443.46C444.26,-440.66 438.11,-438.02 432.14,-436 413.31,-429.64 406.16,-436.39 388.14,-428 376.11,-422.4 364.49,-413.69 354.86,-405.22"/>
<polygon fill="#aabbaa" fill-opacity="0.533333" stroke="#aabbaa" stroke-width="1.3" stroke-opacity="0.533333" points="357.44,-402.84 347.73,-398.62 352.69,-407.98 357.44,-402.84"/>
</g>
<!-- /lib/panels/left/organized_panel.dart -->
<g id="node17" class="node">
<title>/lib/panels/left/organized_panel.dart</title>
<path fill="Lavender" stroke="black" stroke-width="1.3" d="M510.89,-397C510.89,-397 409.39,-397 409.39,-397 403.39,-397 397.39,-391 397.39,-385 397.39,-385 397.39,-373 397.39,-373 397.39,-367 403.39,-361 409.39,-361 409.39,-361 510.89,-361 510.89,-361 516.89,-361 522.89,-367 522.89,-373 522.89,-373 522.89,-385 522.89,-385 522.89,-391 516.89,-397 510.89,-397"/>
<text xml:space="preserve" text-anchor="middle" x="460.14" y="-373.75" font-family="Arial" font-size="15.00">organized_panel</text>
</g>
<!-- /lib/panels/left/left_panel.dart&#45;&gt;/lib/panels/left/organized_panel.dart -->
<g id="edge46" class="edge">
<title>/lib/panels/left/left_panel.dart&#45;&gt;/lib/panels/left/organized_panel.dart</title>
<path fill="none" stroke="#aabbaa" stroke-width="1.3" stroke-opacity="0.533333" d="M476.58,-443.42C473.97,-433.34 470.62,-420.43 467.63,-408.89"/>
<polygon fill="#aabbaa" fill-opacity="0.533333" stroke="#aabbaa" stroke-width="1.3" stroke-opacity="0.533333" points="471.08,-408.25 465.18,-399.45 464.3,-410 471.08,-408.25"/>
</g>
<!-- /lib/panels/left/left_panel.dart&#45;&gt;/lib/models/file_system_item.dart -->
<g id="edge48" class="edge">
<title>/lib/panels/left/left_panel.dart&#45;&gt;/lib/models/file_system_item.dart</title>
<path fill="none" stroke="#aabbaa" stroke-width="1.3" stroke-opacity="0.533333" d="M451.92,-443.43C445.6,-440.4 438.81,-437.68 432.14,-436 413.66,-431.33 103.84,-440.14 89.14,-428 -22.07,-336.17 -29.26,-207.54 71.14,-104 100.43,-73.8 701.56,-57.49 917.08,-52.6"/>
<polygon fill="#aabbaa" fill-opacity="0.533333" stroke="#aabbaa" stroke-width="1.3" stroke-opacity="0.533333" points="917,-56.1 926.92,-52.38 916.84,-49.1 917,-56.1"/>
</g>
<!-- /lib/panels/left/organized_panel.dart&#45;&gt;/lib/panels/left/base_panel.dart -->
<g id="edge50" class="edge">
<title>/lib/panels/left/organized_panel.dart&#45;&gt;/lib/panels/left/base_panel.dart</title>
<path fill="none" stroke="#aabbaa" stroke-width="1.3" stroke-opacity="0.533333" d="M502.45,-360.42C531.71,-348.27 570.85,-332.01 602.18,-319"/>
<polygon fill="#aabbaa" fill-opacity="0.533333" stroke="#aabbaa" stroke-width="1.3" stroke-opacity="0.533333" points="603.2,-322.36 611.09,-315.3 600.52,-315.9 603.2,-322.36"/>
</g>
<!-- /lib/panels/left/organized_panel.dart&#45;&gt;/lib/models/project_node.dart -->
<g id="edge49" class="edge">
<title>/lib/panels/left/organized_panel.dart&#45;&gt;/lib/models/project_node.dart</title>
<path fill="none" stroke="#aabbaa" stroke-width="1.3" stroke-opacity="0.533333" d="M415.75,-360.35C406.74,-357.41 397.24,-354.75 388.14,-353 369.02,-349.33 226.84,-358.83 213.14,-345 161.21,-292.57 159.89,-233.04 210.14,-179 257.82,-127.72 740.72,-122.85 916.55,-122.78"/>
<polygon fill="#aabbaa" fill-opacity="0.533333" stroke="#aabbaa" stroke-width="1.3" stroke-opacity="0.533333" points="916.45,-126.28 926.45,-122.79 916.45,-119.28 916.45,-126.28"/>
</g>
<!-- /lib/widgets/message_widget.dart -->
<g id="node35" class="node">
<title>/lib/widgets/message_widget.dart</title>
<path fill="Lavender" stroke="black" stroke-width="1.3" d="M1487.01,-314C1487.01,-314 1383.26,-314 1383.26,-314 1377.26,-314 1371.26,-308 1371.26,-302 1371.26,-302 1371.26,-290 1371.26,-290 1371.26,-284 1377.26,-278 1383.26,-278 1383.26,-278 1487.01,-278 1487.01,-278 1493.01,-278 1499.01,-284 1499.01,-290 1499.01,-290 1499.01,-302 1499.01,-302 1499.01,-308 1493.01,-314 1487.01,-314"/>
<text xml:space="preserve" text-anchor="middle" x="1435.14" y="-290.75" font-family="Arial" font-size="15.00">message_widget</text>
</g>
<!-- /lib/utils/message_helper.dart&#45;&gt;/lib/widgets/message_widget.dart -->
<g id="edge51" class="edge">
<title>/lib/utils/message_helper.dart&#45;&gt;/lib/widgets/message_widget.dart</title>
<path fill="none" stroke="#aabbaa" stroke-width="1.3" stroke-opacity="0.533333" d="M1299.64,-231.63C1313.32,-241.39 1331.17,-253.27 1348.14,-262 1355.83,-265.96 1364.11,-269.7 1372.39,-273.15"/>
<polygon fill="#aabbaa" fill-opacity="0.533333" stroke="#aabbaa" stroke-width="1.3" stroke-opacity="0.533333" points="1370.83,-276.3 1381.41,-276.78 1373.44,-269.8 1370.83,-276.3"/>
</g>
<!-- /lib/models/project_node.dart&#45;&gt;/lib/models/file_system_item.dart -->
<g id="edge52" class="edge">
<title>/lib/models/project_node.dart&#45;&gt;/lib/models/file_system_item.dart</title>
<path fill="none" stroke="#aabbaa" stroke-width="1.3" stroke-opacity="0.533333" d="M983.35,-103.7C984.67,-96.6 986.23,-88.18 987.72,-80.18"/>
<polygon fill="#aabbaa" fill-opacity="0.533333" stroke="#aabbaa" stroke-width="1.3" stroke-opacity="0.533333" points="991.13,-81 989.51,-70.53 984.25,-79.72 991.13,-81"/>
</g>
<!-- /lib/screens/main_layout.dart -->
<g id="node23" class="node">
<title>/lib/screens/main_layout.dart</title>
<path fill="Lavender" stroke="black" stroke-width="1.3" d="M1693.26,-480C1693.26,-480 1621.01,-480 1621.01,-480 1615.01,-480 1609.01,-474 1609.01,-468 1609.01,-468 1609.01,-456 1609.01,-456 1609.01,-450 1615.01,-444 1621.01,-444 1621.01,-444 1693.26,-444 1693.26,-444 1699.26,-444 1705.26,-450 1705.26,-456 1705.26,-456 1705.26,-468 1705.26,-468 1705.26,-474 1699.26,-480 1693.26,-480"/>
<text xml:space="preserve" text-anchor="middle" x="1657.14" y="-456.75" font-family="Arial" font-size="15.00">main_layout</text>
</g>
<!-- /lib/screens/main_layout.dart&#45;&gt;/lib/providers/app_providers.dart -->
<g id="edge54" class="edge">
<title>/lib/screens/main_layout.dart&#45;&gt;/lib/providers/app_providers.dart</title>
<path fill="none" stroke="#aabbaa" stroke-width="1.3" stroke-opacity="0.533333" d="M1648.9,-443.72C1638.58,-421.41 1621.07,-381.14 1611.14,-345 1602.2,-312.45 1614.62,-300 1599.14,-270 1593.26,-258.6 1584.19,-248.13 1575,-239.41"/>
<polygon fill="#aabbaa" fill-opacity="0.533333" stroke="#aabbaa" stroke-width="1.3" stroke-opacity="0.533333" points="1577.52,-236.96 1567.73,-232.92 1572.86,-242.19 1577.52,-236.96"/>
</g>
<!-- /lib/screens/main_layout.dart&#45;&gt;/lib/panels/right/right_panel.dart -->
<g id="edge61" class="edge">
<title>/lib/screens/main_layout.dart&#45;&gt;/lib/panels/right/right_panel.dart</title>
<path fill="none" stroke="#aabbaa" stroke-width="1.3" stroke-opacity="0.533333" d="M1650.88,-480.27C1641.85,-502.9 1622.71,-539.3 1591.14,-546 1570.43,-550.39 1230.84,-550.39 1210.14,-546 1171.95,-537.9 1136.03,-510.14 1112.98,-488.73"/>
<polygon fill="#aabbaa" fill-opacity="0.533333" stroke="#aabbaa" stroke-width="1.3" stroke-opacity="0.533333" points="1115.57,-486.36 1105.93,-481.96 1110.72,-491.41 1115.57,-486.36"/>
</g>
<!-- /lib/screens/main_layout.dart&#45;&gt;/lib/panels/center/editor_screen.dart -->
<g id="edge53" class="edge">
<title>/lib/screens/main_layout.dart&#45;&gt;/lib/panels/center/editor_screen.dart</title>
<path fill="none" stroke="#aabbaa" stroke-width="1.3" stroke-opacity="0.533333" d="M1622.57,-443.42C1615.33,-440.43 1607.61,-437.73 1600.14,-436 1517.8,-416.92 1493.18,-443.75 1410.14,-428 1309.88,-408.99 1293.57,-371.04 1193.14,-353 1154.52,-346.06 877.12,-358.11 840.14,-345 826.45,-340.14 813.39,-330.99 802.83,-321.97"/>
<polygon fill="#aabbaa" fill-opacity="0.533333" stroke="#aabbaa" stroke-width="1.3" stroke-opacity="0.533333" points="805.45,-319.63 795.69,-315.51 800.75,-324.82 805.45,-319.63"/>
</g>
<!-- /lib/screens/main_layout.dart&#45;&gt;/lib/panels/center/center_panel.dart -->
<g id="edge60" class="edge">
<title>/lib/screens/main_layout.dart&#45;&gt;/lib/panels/center/center_panel.dart</title>
<path fill="none" stroke="#aabbaa" stroke-width="1.3" stroke-opacity="0.533333" d="M1622.91,-443.37C1615.58,-440.34 1607.74,-437.65 1600.14,-436 1566.2,-428.66 1008.09,-438.95 975.14,-428 960.75,-423.22 946.85,-414.04 935.56,-404.99"/>
<polygon fill="#aabbaa" fill-opacity="0.533333" stroke="#aabbaa" stroke-width="1.3" stroke-opacity="0.533333" points="938.12,-402.57 928.23,-398.78 933.59,-407.91 938.12,-402.57"/>
</g>
<!-- /lib/screens/main_layout.dart&#45;&gt;/lib/panels/left/left_panel.dart -->
<g id="edge59" class="edge">
<title>/lib/screens/main_layout.dart&#45;&gt;/lib/panels/left/left_panel.dart</title>
<path fill="none" stroke="#aabbaa" stroke-width="1.3" stroke-opacity="0.533333" d="M1650.88,-480.27C1641.85,-502.9 1622.71,-539.3 1591.14,-546 1577.58,-548.88 606.7,-548.88 593.14,-546 557.36,-538.41 524.94,-510.71 504.29,-489.17"/>
<polygon fill="#aabbaa" fill-opacity="0.533333" stroke="#aabbaa" stroke-width="1.3" stroke-opacity="0.533333" points="506.88,-486.81 497.53,-481.84 501.74,-491.56 506.88,-486.81"/>
</g>
<!-- /lib/screens/main_layout.dart&#45;&gt;/lib/utils/file_type_utils.dart -->
<g id="edge57" class="edge">
<title>/lib/screens/main_layout.dart&#45;&gt;/lib/utils/file_type_utils.dart</title>
<path fill="none" stroke="#aabbaa" stroke-width="1.3" stroke-opacity="0.533333" d="M1622.57,-443.43C1615.32,-440.44 1607.61,-437.74 1600.14,-436 1561.14,-426.92 1458.21,-440.41 1420.14,-428 1362.83,-409.31 1364.06,-372.84 1307.14,-353 1287.34,-346.1 1227.32,-360.44 1213.14,-345 1190.59,-320.45 1190.28,-294.26 1213.14,-270 1223.45,-259.07 1334.07,-267.28 1348.14,-262 1361.41,-257.02 1374.14,-248.15 1384.58,-239.38"/>
<polygon fill="#aabbaa" fill-opacity="0.533333" stroke="#aabbaa" stroke-width="1.3" stroke-opacity="0.533333" points="1386.86,-242.04 1392,-232.77 1382.2,-236.81 1386.86,-242.04"/>
</g>
<!-- /lib/screens/main_layout.dart&#45;&gt;/lib/models/document_state.dart -->
<g id="edge56" class="edge">
<title>/lib/screens/main_layout.dart&#45;&gt;/lib/models/document_state.dart</title>
<path fill="none" stroke="#aabbaa" stroke-width="1.3" stroke-opacity="0.533333" d="M1658.21,-443.59C1660.77,-418.73 1669.49,-373.78 1699.14,-353 1715.11,-341.8 2036.51,-358.95 2050.14,-345 2101.82,-292.12 2092.97,-229.69 2039.14,-179 2008.18,-149.85 1399.18,-130.74 1184.92,-124.9"/>
<polygon fill="#aabbaa" fill-opacity="0.533333" stroke="#aabbaa" stroke-width="1.3" stroke-opacity="0.533333" points="1185.26,-121.4 1175.17,-124.63 1185.07,-128.4 1185.26,-121.4"/>
</g>
<!-- /lib/screens/main_layout.dart&#45;&gt;/lib/models/file_system_item.dart -->
<g id="edge55" class="edge">
<title>/lib/screens/main_layout.dart&#45;&gt;/lib/models/file_system_item.dart</title>
<path fill="none" stroke="#aabbaa" stroke-width="1.3" stroke-opacity="0.533333" d="M1691.12,-443.46C1697.04,-440.75 1703.2,-438.15 1709.14,-436 1865.56,-379.45 1969.82,-476.13 2072.14,-345 2140.6,-257.26 2103.75,-153.63 2004.14,-104 1921.3,-62.73 1290.41,-53.49 1069.36,-51.51"/>
<polygon fill="#aabbaa" fill-opacity="0.533333" stroke="#aabbaa" stroke-width="1.3" stroke-opacity="0.533333" points="1069.58,-48.02 1059.55,-51.43 1069.52,-55.02 1069.58,-48.02"/>
</g>
<!-- /lib/screens/main_layout.dart&#45;&gt;/lib/widgets/resizable_splitter.dart -->
<g id="edge58" class="edge">
<title>/lib/screens/main_layout.dart&#45;&gt;/lib/widgets/resizable_splitter.dart</title>
<path fill="none" stroke="#aabbaa" stroke-width="1.3" stroke-opacity="0.533333" d="M1626.44,-443.48C1582.3,-419.12 1497.66,-375.49 1420.14,-353 1395.15,-345.75 1386.5,-354.15 1362.14,-345 1347.13,-339.36 1332.06,-330.19 1319.55,-321.37"/>
<polygon fill="#aabbaa" fill-opacity="0.533333" stroke="#aabbaa" stroke-width="1.3" stroke-opacity="0.533333" points="1321.83,-318.7 1311.7,-315.61 1317.69,-324.35 1321.83,-318.7"/>
</g>
<!-- /lib/screens/loading_screen.dart -->
<g id="node24" class="node">
<title>/lib/screens/loading_screen.dart</title>
<path fill="Lavender" stroke="black" stroke-width="1.3" d="M1579.39,-480C1579.39,-480 1486.89,-480 1486.89,-480 1480.89,-480 1474.89,-474 1474.89,-468 1474.89,-468 1474.89,-456 1474.89,-456 1474.89,-450 1480.89,-444 1486.89,-444 1486.89,-444 1579.39,-444 1579.39,-444 1585.39,-444 1591.39,-450 1591.39,-456 1591.39,-456 1591.39,-468 1591.39,-468 1591.39,-474 1585.39,-480 1579.39,-480"/>
<text xml:space="preserve" text-anchor="middle" x="1533.14" y="-456.75" font-family="Arial" font-size="15.00">loading_screen</text>
</g>
<!-- /lib/main.dart&#45;&gt;/lib/providers/app_providers.dart -->
<g id="edge62" class="edge">
<title>/lib/main.dart&#45;&gt;/lib/providers/app_providers.dart</title>
<path fill="none" stroke="#aabbaa" stroke-width="1.3" stroke-opacity="0.533333" d="M1622.62,-566.01C1658.53,-564.06 1718.47,-558.39 1732.14,-542 1762.31,-505.82 1748.31,-480.25 1732.14,-436 1715.58,-390.67 1702.78,-379.03 1662.14,-353 1650.88,-345.79 1642.73,-354.32 1633.14,-345 1608.14,-320.7 1629.53,-298.98 1610.14,-270 1602.1,-257.98 1590.72,-247.21 1579.57,-238.39"/>
<polygon fill="#aabbaa" fill-opacity="0.533333" stroke="#aabbaa" stroke-width="1.3" stroke-opacity="0.533333" points="1582.01,-235.85 1571.91,-232.64 1577.81,-241.45 1582.01,-235.85"/>
</g>
<!-- /lib/main.dart&#45;&gt;/lib/panels/center/editor_screen.dart -->
<g id="edge65" class="edge">
<title>/lib/main.dart&#45;&gt;/lib/panels/center/editor_screen.dart</title>
<path fill="none" stroke="#aabbaa" stroke-width="1.3" stroke-opacity="0.533333" d="M1567.67,-567.01C1379.92,-567.02 292.71,-566.02 269.14,-542 210.3,-482.05 210.28,-412.93 269.14,-353 277.78,-344.2 701.46,-348.96 713.14,-345 727.22,-340.22 740.78,-331.18 751.83,-322.22"/>
<polygon fill="#aabbaa" fill-opacity="0.533333" stroke="#aabbaa" stroke-width="1.3" stroke-opacity="0.533333" points="754.06,-324.92 759.37,-315.75 749.5,-319.61 754.06,-324.92"/>
</g>
<!-- /lib/main.dart&#45;&gt;/lib/screens/main_layout.dart -->
<g id="edge63" class="edge">
<title>/lib/main.dart&#45;&gt;/lib/screens/main_layout.dart</title>
<path fill="none" stroke="#aabbaa" stroke-width="1.3" stroke-opacity="0.533333" d="M1605.66,-549.36C1615.25,-533.27 1629.57,-509.25 1640.67,-490.63"/>
<polygon fill="#aabbaa" fill-opacity="0.533333" stroke="#aabbaa" stroke-width="1.3" stroke-opacity="0.533333" points="1643.66,-492.45 1645.77,-482.07 1637.64,-488.87 1643.66,-492.45"/>
</g>
<!-- /lib/main.dart&#45;&gt;/lib/screens/loading_screen.dart -->
<g id="edge66" class="edge">
<title>/lib/main.dart&#45;&gt;/lib/screens/loading_screen.dart</title>
<path fill="none" stroke="#aabbaa" stroke-width="1.3" stroke-opacity="0.533333" d="M1584.62,-549.36C1575.03,-533.27 1560.71,-509.25 1549.61,-490.63"/>
<polygon fill="#aabbaa" fill-opacity="0.533333" stroke="#aabbaa" stroke-width="1.3" stroke-opacity="0.533333" points="1552.64,-488.87 1544.51,-482.07 1546.62,-492.45 1552.64,-488.87"/>
</g>
<!-- /lib/main.dart&#45;&gt;/lib/screens/welcome_screen.dart -->
<g id="edge67" class="edge">
<title>/lib/main.dart&#45;&gt;/lib/screens/welcome_screen.dart</title>
<path fill="none" stroke="#aabbaa" stroke-width="1.3" stroke-opacity="0.533333" d="M1567.52,-566.57C1540.18,-565.05 1497.93,-559.7 1466.14,-542 1443.56,-529.43 1424.07,-507.36 1410.91,-489.75"/>
<polygon fill="#aabbaa" fill-opacity="0.533333" stroke="#aabbaa" stroke-width="1.3" stroke-opacity="0.533333" points="1414.1,-488.18 1405.43,-482.1 1408.41,-492.27 1414.1,-488.18"/>
</g>
<!-- /lib/theme/app_theme.dart -->
<g id="node27" class="node">
<title>/lib/theme/app_theme.dart</title>
<path fill="Lavender" stroke="black" stroke-width="1.3" d="M1292.64,-480C1292.64,-480 1225.64,-480 1225.64,-480 1219.64,-480 1213.64,-474 1213.64,-468 1213.64,-468 1213.64,-456 1213.64,-456 1213.64,-450 1219.64,-444 1225.64,-444 1225.64,-444 1292.64,-444 1292.64,-444 1298.64,-444 1304.64,-450 1304.64,-456 1304.64,-456 1304.64,-468 1304.64,-468 1304.64,-474 1298.64,-480 1292.64,-480"/>
<text xml:space="preserve" text-anchor="middle" x="1259.14" y="-456.75" font-family="Arial" font-size="15.00">app_theme</text>
</g>
<!-- /lib/main.dart&#45;&gt;/lib/theme/app_theme.dart -->
<g id="edge69" class="edge">
<title>/lib/main.dart&#45;&gt;/lib/theme/app_theme.dart</title>
<path fill="none" stroke="#aabbaa" stroke-width="1.3" stroke-opacity="0.533333" d="M1567.57,-567.35C1506.01,-567.68 1359.45,-565.87 1317.14,-542 1296.89,-530.58 1281.73,-508.84 1272,-491.06"/>
<polygon fill="#aabbaa" fill-opacity="0.533333" stroke="#aabbaa" stroke-width="1.3" stroke-opacity="0.533333" points="1275.22,-489.67 1267.54,-482.37 1269,-492.87 1275.22,-489.67"/>
</g>
<!-- /lib/main.dart&#45;&gt;/lib/services/git_service.dart -->
<g id="edge68" class="edge">
<title>/lib/main.dart&#45;&gt;/lib/services/git_service.dart</title>
<path fill="none" stroke="#aabbaa" stroke-width="1.3" stroke-opacity="0.533333" d="M1622.75,-565.81C1653.73,-563.71 1705.01,-557.93 1746.14,-542 1896.27,-483.85 1973.25,-486.45 2050.14,-345 2066.06,-315.71 2073.4,-293.87 2050.14,-270 2038.19,-257.74 1758.03,-268.36 1742.14,-262 1730.38,-257.29 1719.58,-248.72 1710.84,-240.1"/>
<polygon fill="#aabbaa" fill-opacity="0.533333" stroke="#aabbaa" stroke-width="1.3" stroke-opacity="0.533333" points="1713.59,-237.91 1704.18,-233.05 1708.5,-242.72 1713.59,-237.91"/>
</g>
<!-- /lib/widgets/title_bar.dart -->
<g id="node34" class="node">
<title>/lib/widgets/title_bar.dart</title>
<path fill="Lavender" stroke="black" stroke-width="1.3" d="M1574.76,-314C1574.76,-314 1529.51,-314 1529.51,-314 1523.51,-314 1517.51,-308 1517.51,-302 1517.51,-302 1517.51,-290 1517.51,-290 1517.51,-284 1523.51,-278 1529.51,-278 1529.51,-278 1574.76,-278 1574.76,-278 1580.76,-278 1586.76,-284 1586.76,-290 1586.76,-290 1586.76,-302 1586.76,-302 1586.76,-308 1580.76,-314 1574.76,-314"/>
<text xml:space="preserve" text-anchor="middle" x="1552.14" y="-290.75" font-family="Arial" font-size="15.00">title_bar</text>
</g>
<!-- /lib/main.dart&#45;&gt;/lib/widgets/title_bar.dart -->
<g id="edge64" class="edge">
<title>/lib/main.dart&#45;&gt;/lib/widgets/title_bar.dart</title>
<path fill="none" stroke="#aabbaa" stroke-width="1.3" stroke-opacity="0.533333" d="M1622.69,-565.3C1654.94,-562.67 1705.45,-556.32 1717.14,-542 1746.92,-505.5 1738.59,-477.95 1717.14,-436 1685.69,-374.5 1641.35,-392.44 1591.14,-345 1584.22,-338.47 1577.42,-330.71 1571.49,-323.35"/>
<polygon fill="#aabbaa" fill-opacity="0.533333" stroke="#aabbaa" stroke-width="1.3" stroke-opacity="0.533333" points="1574.61,-321.66 1565.7,-315.93 1569.09,-325.96 1574.61,-321.66"/>
</g>
<!-- /lib/services/project_service.dart&#45;&gt;/lib/providers/app_providers.dart -->
<g id="edge74" class="edge">
<title>/lib/services/project_service.dart&#45;&gt;/lib/providers/app_providers.dart</title>
<path fill="none" stroke="#aabbaa" stroke-width="1.3" stroke-opacity="0.533333" d="M1656.55,-277.5C1645.77,-272.58 1634.48,-267.16 1624.14,-262 1608.32,-254.1 1591.13,-245.14 1576.52,-237.11"/>
<polygon fill="#aabbaa" fill-opacity="0.533333" stroke="#aabbaa" stroke-width="1.3" stroke-opacity="0.533333" points="1578.54,-234.23 1568.1,-232.42 1575.13,-240.35 1578.54,-234.23"/>
</g>
<!-- /lib/services/project_service.dart&#45;&gt;/lib/models/project_node.dart -->
<g id="edge70" class="edge">
<title>/lib/services/project_service.dart&#45;&gt;/lib/models/project_node.dart</title>
<path fill="none" stroke="#aabbaa" stroke-width="1.3" stroke-opacity="0.533333" d="M1745.01,-277.42C1753.53,-274.47 1762.52,-271.79 1771.14,-270 1786.5,-266.81 1901.36,-273.41 1912.14,-262 1937.47,-235.19 1938.1,-205.2 1912.14,-179 1895.09,-161.79 1062.96,-179.12 1040.14,-171 1026.86,-166.27 1014.32,-157.27 1004.18,-148.33"/>
<polygon fill="#aabbaa" fill-opacity="0.533333" stroke="#aabbaa" stroke-width="1.3" stroke-opacity="0.533333" points="1006.7,-145.9 997.01,-141.61 1001.91,-151 1006.7,-145.9"/>
</g>
<!-- /lib/services/project_service.dart&#45;&gt;/lib/models/file_system_item.dart -->
<g id="edge71" class="edge">
<title>/lib/services/project_service.dart&#45;&gt;/lib/models/file_system_item.dart</title>
<path fill="none" stroke="#aabbaa" stroke-width="1.3" stroke-opacity="0.533333" d="M1745.01,-277.38C1753.52,-274.43 1762.51,-271.76 1771.14,-270 1788.14,-266.52 1915.19,-274.58 1927.14,-262 1952.55,-235.26 1951.39,-206.8 1927.14,-179 1870.81,-114.43 1281.63,-69.85 1069.07,-55.76"/>
<polygon fill="#aabbaa" fill-opacity="0.533333" stroke="#aabbaa" stroke-width="1.3" stroke-opacity="0.533333" points="1069.6,-52.29 1059.39,-55.12 1069.14,-59.27 1069.6,-52.29"/>
</g>
<!-- /lib/services/project_service.dart&#45;&gt;/lib/services/git_service.dart -->
<g id="edge72" class="edge">
<title>/lib/services/project_service.dart&#45;&gt;/lib/services/git_service.dart</title>
<path fill="none" stroke="#aabbaa" stroke-width="1.3" stroke-opacity="0.533333" d="M1700.1,-277.42C1698.38,-267.45 1696.17,-254.7 1694.2,-243.26"/>
<polygon fill="#aabbaa" fill-opacity="0.533333" stroke="#aabbaa" stroke-width="1.3" stroke-opacity="0.533333" points="1697.66,-242.74 1692.51,-233.48 1690.76,-243.93 1697.66,-242.74"/>
</g>
<!-- /lib/services/file_system_watcher.dart -->
<g id="node30" class="node">
<title>/lib/services/file_system_watcher.dart</title>
<path fill="Lavender" stroke="black" stroke-width="1.3" d="M1891.01,-231C1891.01,-231 1763.26,-231 1763.26,-231 1757.26,-231 1751.26,-225 1751.26,-219 1751.26,-219 1751.26,-207 1751.26,-207 1751.26,-201 1757.26,-195 1763.26,-195 1763.26,-195 1891.01,-195 1891.01,-195 1897.01,-195 1903.01,-201 1903.01,-207 1903.01,-207 1903.01,-219 1903.01,-219 1903.01,-225 1897.01,-231 1891.01,-231"/>
<text xml:space="preserve" text-anchor="middle" x="1827.14" y="-207.75" font-family="Arial" font-size="15.00">file_system_watcher</text>
</g>
<!-- /lib/services/project_service.dart&#45;&gt;/lib/services/file_system_watcher.dart -->
<g id="edge73" class="edge">
<title>/lib/services/project_service.dart&#45;&gt;/lib/services/file_system_watcher.dart</title>
<path fill="none" stroke="#aabbaa" stroke-width="1.3" stroke-opacity="0.533333" d="M1730.05,-277.42C1747.68,-265.91 1770.95,-250.7 1790.29,-238.07"/>
<polygon fill="#aabbaa" fill-opacity="0.533333" stroke="#aabbaa" stroke-width="1.3" stroke-opacity="0.533333" points="1792.18,-241.02 1798.64,-232.62 1788.35,-235.16 1792.18,-241.02"/>
</g>
<!-- /lib/services/file_system_watcher.dart&#45;&gt;/lib/models/project_node.dart -->
<g id="edge75" class="edge">
<title>/lib/services/file_system_watcher.dart&#45;&gt;/lib/models/project_node.dart</title>
<path fill="none" stroke="#aabbaa" stroke-width="1.3" stroke-opacity="0.533333" d="M1790.34,-194.39C1775.69,-188.27 1758.46,-182.15 1742.14,-179 1703.84,-171.6 1076.87,-184.12 1040.14,-171 1026.87,-166.26 1014.33,-157.26 1004.18,-148.31"/>
<polygon fill="#aabbaa" fill-opacity="0.533333" stroke="#aabbaa" stroke-width="1.3" stroke-opacity="0.533333" points="1006.7,-145.88 997.02,-141.59 1001.91,-150.99 1006.7,-145.88"/>
</g>
<!-- /lib/services/file_system_service.dart&#45;&gt;/lib/models/file_system_item.dart -->
<g id="edge76" class="edge">
<title>/lib/services/file_system_service.dart&#45;&gt;/lib/models/file_system_item.dart</title>
<path fill="none" stroke="#aabbaa" stroke-width="1.3" stroke-opacity="0.533333" d="M1924.6,-277.53C1931.04,-273.4 1936.77,-268.3 1941.14,-262 1962.15,-231.68 1961.48,-209.78 1941.14,-179 1894.26,-108.06 1847.82,-123.86 1765.14,-104 1634.61,-72.65 1237.39,-57.95 1069.42,-53.01"/>
<polygon fill="#aabbaa" fill-opacity="0.533333" stroke="#aabbaa" stroke-width="1.3" stroke-opacity="0.533333" points="1069.56,-49.51 1059.46,-52.72 1069.35,-56.51 1069.56,-49.51"/>
</g>
<!-- /lib/widgets/title_bar.dart&#45;&gt;/lib/providers/app_providers.dart -->
<g id="edge77" class="edge">
<title>/lib/widgets/title_bar.dart&#45;&gt;/lib/providers/app_providers.dart</title>
<path fill="none" stroke="#aabbaa" stroke-width="1.3" stroke-opacity="0.533333" d="M1549.97,-277.42C1548.74,-267.45 1547.16,-254.7 1545.75,-243.26"/>
<polygon fill="#aabbaa" fill-opacity="0.533333" stroke="#aabbaa" stroke-width="1.3" stroke-opacity="0.533333" points="1549.24,-242.99 1544.55,-233.49 1542.3,-243.85 1549.24,-242.99"/>
</g>
<!-- /tool/sort_source.dart -->
<g id="node36" class="node">
<title>/tool/sort_source.dart</title>
<path fill="Lavender" stroke="black" stroke-width="1.3" d="M1972.51,-669C1972.51,-669 1901.76,-669 1901.76,-669 1895.76,-669 1889.76,-663 1889.76,-657 1889.76,-657 1889.76,-645 1889.76,-645 1889.76,-639 1895.76,-633 1901.76,-633 1901.76,-633 1972.51,-633 1972.51,-633 1978.51,-633 1984.51,-639 1984.51,-645 1984.51,-645 1984.51,-657 1984.51,-657 1984.51,-663 1978.51,-669 1972.51,-669"/>
<text xml:space="preserve" text-anchor="middle" x="1937.14" y="-645.75" font-family="Arial" font-size="15.00">sort_source</text>
</g>
</g>
</svg>
