<?xml version="1.0" encoding="UTF-8" standalone="no"?>
<!DOCTYPE svg PUBLIC "-//W3C//DTD SVG 1.1//EN"
 "http://www.w3.org/Graphics/SVG/1.1/DTD/svg11.dtd">
<!-- Generated by graphviz version 13.1.1 (20250719.2154)
 -->
<!-- Pages: 1 -->
<svg width="1241pt" height="617pt"
 viewBox="0.00 0.00 1241.00 617.00" xmlns="http://www.w3.org/2000/svg" xmlns:xlink="http://www.w3.org/1999/xlink">
<g id="graph0" class="graph" transform="scale(1 1) rotate(0) translate(4 613)">
<polygon fill="white" stroke="none" points="-4,4 -4,-613 1237.05,-613 1237.05,4 -4,4"/>
<g id="clust1" class="cluster">
<title>cluster~</title>
<path fill="none" stroke="lightgray" stroke-width="2.6" d="M21.05,-8C21.05,-8 1213.05,-8 1213.05,-8 1219.05,-8 1225.05,-14 1225.05,-20 1225.05,-20 1225.05,-589 1225.05,-589 1225.05,-595 1219.05,-601 1213.05,-601 1213.05,-601 21.05,-601 21.05,-601 15.05,-601 9.05,-595 9.05,-589 9.05,-589 9.05,-20 9.05,-20 9.05,-14 15.05,-8 21.05,-8"/>
<text xml:space="preserve" text-anchor="middle" x="617.05" y="-584.65" font-family="Arial Black" font-size="13.00">fide</text>
</g>
<g id="clust2" class="cluster">
<title>cluster~/test</title>
<path fill="none" stroke="lightgray" stroke-width="2.6" d="M529.05,-495C529.05,-495 613.05,-495 613.05,-495 619.05,-495 625.05,-501 625.05,-507 625.05,-507 625.05,-558 625.05,-558 625.05,-564 619.05,-570 613.05,-570 613.05,-570 529.05,-570 529.05,-570 523.05,-570 517.05,-564 517.05,-558 517.05,-558 517.05,-507 517.05,-507 517.05,-501 523.05,-495 529.05,-495"/>
<text xml:space="preserve" text-anchor="middle" x="571.05" y="-553.65" font-family="Arial Black" font-size="13.00">test</text>
</g>
<g id="clust3" class="cluster">
<title>cluster~/lib</title>
<path fill="none" stroke="lightgray" stroke-width="2.6" d="M29.05,-16C29.05,-16 1205.05,-16 1205.05,-16 1211.05,-16 1217.05,-22 1217.05,-28 1217.05,-28 1217.05,-475 1217.05,-475 1217.05,-481 1211.05,-487 1205.05,-487 1205.05,-487 29.05,-487 29.05,-487 23.05,-487 17.05,-481 17.05,-475 17.05,-475 17.05,-28 17.05,-28 17.05,-22 23.05,-16 29.05,-16"/>
<text xml:space="preserve" text-anchor="middle" x="617.05" y="-470.65" font-family="Arial Black" font-size="13.00">lib</text>
</g>
<g id="clust4" class="cluster">
<title>cluster~/lib/providers</title>
<path fill="none" stroke="lightgray" stroke-width="2.6" d="M109.05,-190C109.05,-190 211.05,-190 211.05,-190 217.05,-190 223.05,-196 223.05,-202 223.05,-202 223.05,-253 223.05,-253 223.05,-259 217.05,-265 211.05,-265 211.05,-265 109.05,-265 109.05,-265 103.05,-265 97.05,-259 97.05,-253 97.05,-253 97.05,-202 97.05,-202 97.05,-196 103.05,-190 109.05,-190"/>
<text xml:space="preserve" text-anchor="middle" x="160.05" y="-248.65" font-family="Arial Black" font-size="13.00">providers</text>
</g>
<g id="clust5" class="cluster">
<title>cluster~/lib/utils</title>
<path fill="none" stroke="lightgray" stroke-width="2.6" d="M955.05,-24C955.05,-24 1197.05,-24 1197.05,-24 1203.05,-24 1209.05,-30 1209.05,-36 1209.05,-36 1209.05,-87 1209.05,-87 1209.05,-93 1203.05,-99 1197.05,-99 1197.05,-99 955.05,-99 955.05,-99 949.05,-99 943.05,-93 943.05,-87 943.05,-87 943.05,-36 943.05,-36 943.05,-30 949.05,-24 955.05,-24"/>
<text xml:space="preserve" text-anchor="middle" x="1076.05" y="-82.65" font-family="Arial Black" font-size="13.00">utils</text>
</g>
<g id="clust6" class="cluster">
<title>cluster~/lib/models</title>
<path fill="none" stroke="lightgray" stroke-width="2.6" d="M561.05,-24C561.05,-24 681.05,-24 681.05,-24 687.05,-24 693.05,-30 693.05,-36 693.05,-36 693.05,-170 693.05,-170 693.05,-176 687.05,-182 681.05,-182 681.05,-182 561.05,-182 561.05,-182 555.05,-182 549.05,-176 549.05,-170 549.05,-170 549.05,-36 549.05,-36 549.05,-30 555.05,-24 561.05,-24"/>
<text xml:space="preserve" text-anchor="middle" x="621.05" y="-165.65" font-family="Arial Black" font-size="13.00">models</text>
</g>
<g id="clust7" class="cluster">
<title>cluster~/lib/screens</title>
<path fill="none" stroke="lightgray" stroke-width="2.6" d="M807.05,-107C807.05,-107 1145.05,-107 1145.05,-107 1151.05,-107 1157.05,-113 1157.05,-119 1157.05,-119 1157.05,-253 1157.05,-253 1157.05,-259 1151.05,-265 1145.05,-265 1145.05,-265 807.05,-265 807.05,-265 801.05,-265 795.05,-259 795.05,-253 795.05,-253 795.05,-119 795.05,-119 795.05,-113 801.05,-107 807.05,-107"/>
<text xml:space="preserve" text-anchor="middle" x="976.05" y="-248.65" font-family="Arial Black" font-size="13.00">screens</text>
</g>
<g id="clust8" class="cluster">
<title>cluster~/lib/theme</title>
<path fill="none" stroke="lightgray" stroke-width="2.6" d="M732.05,-24C732.05,-24 816.05,-24 816.05,-24 822.05,-24 828.05,-30 828.05,-36 828.05,-36 828.05,-87 828.05,-87 828.05,-93 822.05,-99 816.05,-99 816.05,-99 732.05,-99 732.05,-99 726.05,-99 720.05,-93 720.05,-87 720.05,-87 720.05,-36 720.05,-36 720.05,-30 726.05,-24 732.05,-24"/>
<text xml:space="preserve" text-anchor="middle" x="774.05" y="-82.65" font-family="Arial Black" font-size="13.00">theme</text>
</g>
<g id="clust9" class="cluster">
<title>cluster~/lib/services</title>
<path fill="none" stroke="lightgray" stroke-width="2.6" d="M49.05,-107C49.05,-107 421.05,-107 421.05,-107 427.05,-107 433.05,-113 433.05,-119 433.05,-119 433.05,-170 433.05,-170 433.05,-176 427.05,-182 421.05,-182 421.05,-182 49.05,-182 49.05,-182 43.05,-182 37.05,-176 37.05,-170 37.05,-170 37.05,-119 37.05,-119 37.05,-113 43.05,-107 49.05,-107"/>
<text xml:space="preserve" text-anchor="middle" x="235.05" y="-165.65" font-family="Arial Black" font-size="13.00">services</text>
</g>
<g id="clust10" class="cluster">
<title>cluster~/lib/widgets</title>
<path fill="none" stroke="lightgray" stroke-width="2.6" d="M297.05,-190C297.05,-190 743.05,-190 743.05,-190 749.05,-190 755.05,-196 755.05,-202 755.05,-202 755.05,-400 755.05,-400 755.05,-406 749.05,-412 743.05,-412 743.05,-412 297.05,-412 297.05,-412 291.05,-412 285.05,-406 285.05,-400 285.05,-400 285.05,-202 285.05,-202 285.05,-196 291.05,-190 297.05,-190"/>
<text xml:space="preserve" text-anchor="middle" x="520.05" y="-395.65" font-family="Arial Black" font-size="13.00">widgets</text>
</g>
<g id="clust11" class="cluster">
<title>cluster~/tool</title>
<path fill="none" stroke="lightgray" stroke-width="2.6" d="M946.05,-495C946.05,-495 1032.05,-495 1032.05,-495 1038.05,-495 1044.05,-501 1044.05,-507 1044.05,-507 1044.05,-558 1044.05,-558 1044.05,-564 1038.05,-570 1032.05,-570 1032.05,-570 946.05,-570 946.05,-570 940.05,-570 934.05,-564 934.05,-558 934.05,-558 934.05,-507 934.05,-507 934.05,-501 940.05,-495 946.05,-495"/>
<text xml:space="preserve" text-anchor="middle" x="989.05" y="-553.65" font-family="Arial Black" font-size="13.00">tool</text>
</g>
<!-- /test/widget_test.dart -->
<g id="node1" class="node">
<title>/test/widget_test.dart</title>
<path fill="Lavender" stroke="black" stroke-width="1.3" d="M604.93,-539C604.93,-539 537.18,-539 537.18,-539 531.18,-539 525.18,-533 525.18,-527 525.18,-527 525.18,-515 525.18,-515 525.18,-509 531.18,-503 537.18,-503 537.18,-503 604.93,-503 604.93,-503 610.93,-503 616.93,-509 616.93,-515 616.93,-515 616.93,-527 616.93,-527 616.93,-533 610.93,-539 604.93,-539"/>
<text xml:space="preserve" text-anchor="middle" x="571.05" y="-515.75" font-family="Arial" font-size="15.00">widget_test</text>
</g>
<!-- /lib/main.dart -->
<g id="node12" class="node">
<title>/lib/main.dart</title>
<path fill="Lavender" stroke="black" stroke-width="1.3" d="M586.05,-456C586.05,-456 556.05,-456 556.05,-456 550.05,-456 544.05,-450 544.05,-444 544.05,-444 544.05,-432 544.05,-432 544.05,-426 550.05,-420 556.05,-420 556.05,-420 586.05,-420 586.05,-420 592.05,-420 598.05,-426 598.05,-432 598.05,-432 598.05,-444 598.05,-444 598.05,-450 592.05,-456 586.05,-456"/>
<text xml:space="preserve" text-anchor="middle" x="571.05" y="-432.75" font-family="Arial" font-size="15.00">main</text>
</g>
<!-- /test/widget_test.dart&#45;&gt;/lib/main.dart -->
<g id="edge1" class="edge">
<title>/test/widget_test.dart&#45;&gt;/lib/main.dart</title>
<path fill="none" stroke="#aabbaa" stroke-width="1.3" stroke-opacity="0.533333" d="M571.05,-502.42C571.05,-492.45 571.05,-479.7 571.05,-468.26"/>
<polygon fill="#aabbaa" fill-opacity="0.533333" stroke="#aabbaa" stroke-width="1.3" stroke-opacity="0.533333" points="574.55,-468.51 571.05,-458.51 567.55,-468.51 574.55,-468.51"/>
</g>
<!-- /lib/providers/app_providers.dart -->
<g id="node2" class="node">
<title>/lib/providers/app_providers.dart</title>
<path fill="Lavender" stroke="black" stroke-width="1.3" d="M203.3,-234C203.3,-234 116.8,-234 116.8,-234 110.8,-234 104.8,-228 104.8,-222 104.8,-222 104.8,-210 104.8,-210 104.8,-204 110.8,-198 116.8,-198 116.8,-198 203.3,-198 203.3,-198 209.3,-198 215.3,-204 215.3,-210 215.3,-210 215.3,-222 215.3,-222 215.3,-228 209.3,-234 203.3,-234"/>
<text xml:space="preserve" text-anchor="middle" x="160.05" y="-210.75" font-family="Arial" font-size="15.00">app_providers</text>
</g>
<!-- /lib/models/project_node.dart -->
<g id="node5" class="node">
<title>/lib/models/project_node.dart</title>
<path fill="Lavender" stroke="black" stroke-width="1.3" d="M673.18,-151C673.18,-151 594.93,-151 594.93,-151 588.93,-151 582.93,-145 582.93,-139 582.93,-139 582.93,-127 582.93,-127 582.93,-121 588.93,-115 594.93,-115 594.93,-115 673.18,-115 673.18,-115 679.18,-115 685.18,-121 685.18,-127 685.18,-127 685.18,-139 685.18,-139 685.18,-145 679.18,-151 673.18,-151"/>
<text xml:space="preserve" text-anchor="middle" x="634.05" y="-127.75" font-family="Arial" font-size="15.00">project_node</text>
</g>
<!-- /lib/providers/app_providers.dart&#45;&gt;/lib/models/project_node.dart -->
<g id="edge3" class="edge">
<title>/lib/providers/app_providers.dart&#45;&gt;/lib/models/project_node.dart</title>
<path fill="none" stroke="#aabbaa" stroke-width="1.3" stroke-opacity="0.533333" d="M215.77,-201.59C236.19,-197.18 259.56,-192.72 281.05,-190 355.22,-180.63 375.15,-193.22 449.05,-182 490.35,-175.73 535.76,-164.02 571.26,-153.74"/>
<polygon fill="#aabbaa" fill-opacity="0.533333" stroke="#aabbaa" stroke-width="1.3" stroke-opacity="0.533333" points="571.92,-157.19 580.53,-151.01 569.95,-150.47 571.92,-157.19"/>
</g>
<!-- /lib/models/file_system_item.dart -->
<g id="node6" class="node">
<title>/lib/models/file_system_item.dart</title>
<path fill="Lavender" stroke="black" stroke-width="1.3" d="M672.93,-68C672.93,-68 569.18,-68 569.18,-68 563.18,-68 557.18,-62 557.18,-56 557.18,-56 557.18,-44 557.18,-44 557.18,-38 563.18,-32 569.18,-32 569.18,-32 672.93,-32 672.93,-32 678.93,-32 684.93,-38 684.93,-44 684.93,-44 684.93,-56 684.93,-56 684.93,-62 678.93,-68 672.93,-68"/>
<text xml:space="preserve" text-anchor="middle" x="621.05" y="-44.75" font-family="Arial" font-size="15.00">file_system_item</text>
</g>
<!-- /lib/providers/app_providers.dart&#45;&gt;/lib/models/file_system_item.dart -->
<g id="edge2" class="edge">
<title>/lib/providers/app_providers.dart&#45;&gt;/lib/models/file_system_item.dart</title>
<path fill="none" stroke="#aabbaa" stroke-width="1.3" stroke-opacity="0.533333" d="M215.71,-200.23C232.72,-196.26 251.55,-192.4 269.05,-190 287.57,-187.46 422.37,-193.55 437.05,-182 464.36,-160.52 435.08,-132.14 459.05,-107 481.63,-83.32 514.7,-69.65 545.08,-61.76"/>
<polygon fill="#aabbaa" fill-opacity="0.533333" stroke="#aabbaa" stroke-width="1.3" stroke-opacity="0.533333" points="545.75,-65.2 554.66,-59.47 544.12,-58.4 545.75,-65.2"/>
</g>
<!-- /lib/utils/message_helper.dart -->
<g id="node3" class="node">
<title>/lib/utils/message_helper.dart</title>
<path fill="Lavender" stroke="black" stroke-width="1.3" d="M1189.18,-68C1189.18,-68 1086.93,-68 1086.93,-68 1080.93,-68 1074.93,-62 1074.93,-56 1074.93,-56 1074.93,-44 1074.93,-44 1074.93,-38 1080.93,-32 1086.93,-32 1086.93,-32 1189.18,-32 1189.18,-32 1195.18,-32 1201.18,-38 1201.18,-44 1201.18,-44 1201.18,-56 1201.18,-56 1201.18,-62 1195.18,-68 1189.18,-68"/>
<text xml:space="preserve" text-anchor="middle" x="1138.05" y="-44.75" font-family="Arial" font-size="15.00">message_helper</text>
</g>
<!-- /lib/widgets/message_widget.dart -->
<g id="node22" class="node">
<title>/lib/widgets/message_widget.dart</title>
<path fill="Lavender" stroke="black" stroke-width="1.3" d="M639.93,-381C639.93,-381 536.18,-381 536.18,-381 530.18,-381 524.18,-375 524.18,-369 524.18,-369 524.18,-357 524.18,-357 524.18,-351 530.18,-345 536.18,-345 536.18,-345 639.93,-345 639.93,-345 645.93,-345 651.93,-351 651.93,-357 651.93,-357 651.93,-369 651.93,-369 651.93,-375 645.93,-381 639.93,-381"/>
<text xml:space="preserve" text-anchor="middle" x="588.05" y="-357.75" font-family="Arial" font-size="15.00">message_widget</text>
</g>
<!-- /lib/utils/message_helper.dart&#45;&gt;/lib/widgets/message_widget.dart -->
<g id="edge4" class="edge">
<title>/lib/utils/message_helper.dart&#45;&gt;/lib/widgets/message_widget.dart</title>
<path fill="none" stroke="#aabbaa" stroke-width="1.3" stroke-opacity="0.533333" d="M1150.56,-68.63C1177.24,-108.56 1233.41,-206.96 1184.05,-265 1118.16,-342.48 809.73,-358.23 664.3,-361.32"/>
<polygon fill="#aabbaa" fill-opacity="0.533333" stroke="#aabbaa" stroke-width="1.3" stroke-opacity="0.533333" points="664.33,-357.82 654.4,-361.51 664.47,-364.82 664.33,-357.82"/>
</g>
<!-- /lib/utils/file_type_utils.dart -->
<g id="node4" class="node">
<title>/lib/utils/file_type_utils.dart</title>
<path fill="Lavender" stroke="black" stroke-width="1.3" d="M1045.05,-68C1045.05,-68 963.05,-68 963.05,-68 957.05,-68 951.05,-62 951.05,-56 951.05,-56 951.05,-44 951.05,-44 951.05,-38 957.05,-32 963.05,-32 963.05,-32 1045.05,-32 1045.05,-32 1051.05,-32 1057.05,-38 1057.05,-44 1057.05,-44 1057.05,-56 1057.05,-56 1057.05,-62 1051.05,-68 1045.05,-68"/>
<text xml:space="preserve" text-anchor="middle" x="1004.05" y="-44.75" font-family="Arial" font-size="15.00">file_type_utils</text>
</g>
<!-- /lib/models/project_node.dart&#45;&gt;/lib/models/file_system_item.dart -->
<g id="edge5" class="edge">
<title>/lib/models/project_node.dart&#45;&gt;/lib/models/file_system_item.dart</title>
<path fill="none" stroke="#aabbaa" stroke-width="1.3" stroke-opacity="0.533333" d="M631.23,-114.42C629.63,-104.45 627.59,-91.7 625.75,-80.26"/>
<polygon fill="#aabbaa" fill-opacity="0.533333" stroke="#aabbaa" stroke-width="1.3" stroke-opacity="0.533333" points="629.22,-79.8 624.18,-70.48 622.31,-80.91 629.22,-79.8"/>
</g>
<!-- /lib/screens/git_panel.dart -->
<g id="node7" class="node">
<title>/lib/screens/git_panel.dart</title>
<path fill="Lavender" stroke="black" stroke-width="1.3" d="M1013.05,-151C1013.05,-151 961.05,-151 961.05,-151 955.05,-151 949.05,-145 949.05,-139 949.05,-139 949.05,-127 949.05,-127 949.05,-121 955.05,-115 961.05,-115 961.05,-115 1013.05,-115 1013.05,-115 1019.05,-115 1025.05,-121 1025.05,-127 1025.05,-127 1025.05,-139 1025.05,-139 1025.05,-145 1019.05,-151 1013.05,-151"/>
<text xml:space="preserve" text-anchor="middle" x="987.05" y="-127.75" font-family="Arial" font-size="15.00">git_panel</text>
</g>
<!-- /lib/theme/app_theme.dart -->
<g id="node13" class="node">
<title>/lib/theme/app_theme.dart</title>
<path fill="Lavender" stroke="black" stroke-width="1.3" d="M807.55,-68C807.55,-68 740.55,-68 740.55,-68 734.55,-68 728.55,-62 728.55,-56 728.55,-56 728.55,-44 728.55,-44 728.55,-38 734.55,-32 740.55,-32 740.55,-32 807.55,-32 807.55,-32 813.55,-32 819.55,-38 819.55,-44 819.55,-44 819.55,-56 819.55,-56 819.55,-62 813.55,-68 807.55,-68"/>
<text xml:space="preserve" text-anchor="middle" x="774.05" y="-44.75" font-family="Arial" font-size="15.00">app_theme</text>
</g>
<!-- /lib/screens/git_panel.dart&#45;&gt;/lib/theme/app_theme.dart -->
<g id="edge6" class="edge">
<title>/lib/screens/git_panel.dart&#45;&gt;/lib/theme/app_theme.dart</title>
<path fill="none" stroke="#aabbaa" stroke-width="1.3" stroke-opacity="0.533333" d="M955.8,-114.47C950.61,-111.82 945.23,-109.23 940.05,-107 904.58,-91.7 863.44,-77.8 830.99,-67.67"/>
<polygon fill="#aabbaa" fill-opacity="0.533333" stroke="#aabbaa" stroke-width="1.3" stroke-opacity="0.533333" points="832.36,-64.43 821.78,-64.83 830.3,-71.12 832.36,-64.43"/>
</g>
<!-- /lib/services/git_service.dart -->
<g id="node14" class="node">
<title>/lib/services/git_service.dart</title>
<path fill="Lavender" stroke="black" stroke-width="1.3" d="M120.68,-151C120.68,-151 57.43,-151 57.43,-151 51.43,-151 45.43,-145 45.43,-139 45.43,-139 45.43,-127 45.43,-127 45.43,-121 51.43,-115 57.43,-115 57.43,-115 120.68,-115 120.68,-115 126.68,-115 132.68,-121 132.68,-127 132.68,-127 132.68,-139 132.68,-139 132.68,-145 126.68,-151 120.68,-151"/>
<text xml:space="preserve" text-anchor="middle" x="89.05" y="-127.75" font-family="Arial" font-size="15.00">git_service</text>
</g>
<!-- /lib/screens/git_panel.dart&#45;&gt;/lib/services/git_service.dart -->
<g id="edge7" class="edge">
<title>/lib/screens/git_panel.dart&#45;&gt;/lib/services/git_service.dart</title>
<path fill="none" stroke="#aabbaa" stroke-width="1.3" stroke-opacity="0.533333" d="M975.71,-151.42C965.91,-165.05 950.3,-181.92 931.05,-186 909.86,-190.5 172.25,-190.5 151.05,-186 135.1,-182.61 120.94,-171.54 110.21,-160.39"/>
<polygon fill="#aabbaa" fill-opacity="0.533333" stroke="#aabbaa" stroke-width="1.3" stroke-opacity="0.533333" points="112.93,-158.18 103.66,-153.04 107.7,-162.84 112.93,-158.18"/>
</g>
<!-- /lib/screens/explorer_screen.dart -->
<g id="node8" class="node">
<title>/lib/screens/explorer_screen.dart</title>
<path fill="Lavender" stroke="black" stroke-width="1.3" d="M916.68,-234C916.68,-234 817.43,-234 817.43,-234 811.43,-234 805.43,-228 805.43,-222 805.43,-222 805.43,-210 805.43,-210 805.43,-204 811.43,-198 817.43,-198 817.43,-198 916.68,-198 916.68,-198 922.68,-198 928.68,-204 928.68,-210 928.68,-210 928.68,-222 928.68,-222 928.68,-228 922.68,-234 916.68,-234"/>
<text xml:space="preserve" text-anchor="middle" x="867.05" y="-210.75" font-family="Arial" font-size="15.00">explorer_screen</text>
</g>
<!-- /lib/screens/explorer_screen.dart&#45;&gt;/lib/utils/message_helper.dart -->
<g id="edge11" class="edge">
<title>/lib/screens/explorer_screen.dart&#45;&gt;/lib/utils/message_helper.dart</title>
<path fill="none" stroke="#aabbaa" stroke-width="1.3" stroke-opacity="0.533333" d="M910.42,-197.41C919.42,-194.42 928.94,-191.73 938.05,-190 950.07,-187.72 1149.56,-190.8 1158.05,-182 1184.25,-154.83 1168.66,-108.69 1154.08,-79.05"/>
<polygon fill="#aabbaa" fill-opacity="0.533333" stroke="#aabbaa" stroke-width="1.3" stroke-opacity="0.533333" points="1157.26,-77.57 1149.54,-70.32 1151.05,-80.8 1157.26,-77.57"/>
</g>
<!-- /lib/screens/explorer_screen.dart&#45;&gt;/lib/models/project_node.dart -->
<g id="edge8" class="edge">
<title>/lib/screens/explorer_screen.dart&#45;&gt;/lib/models/project_node.dart</title>
<path fill="none" stroke="#aabbaa" stroke-width="1.3" stroke-opacity="0.533333" d="M804.79,-197.8C793.6,-194.99 782.02,-192.26 771.05,-190 748.15,-185.27 741.15,-189.65 719.05,-182 701.75,-176.01 683.91,-166.52 669.07,-157.56"/>
<polygon fill="#aabbaa" fill-opacity="0.533333" stroke="#aabbaa" stroke-width="1.3" stroke-opacity="0.533333" points="671.32,-154.84 660.98,-152.53 667.62,-160.78 671.32,-154.84"/>
</g>
<!-- /lib/screens/explorer_screen.dart&#45;&gt;/lib/models/file_system_item.dart -->
<g id="edge9" class="edge">
<title>/lib/screens/explorer_screen.dart&#45;&gt;/lib/models/file_system_item.dart</title>
<path fill="none" stroke="#aabbaa" stroke-width="1.3" stroke-opacity="0.533333" d="M804.85,-198.71C793.61,-195.79 781.98,-192.79 771.05,-190 756.85,-186.37 750.83,-190.73 739.05,-182 707.82,-158.86 719.93,-136.01 694.05,-107 683.65,-95.34 670.53,-84.41 658.3,-75.36"/>
<polygon fill="#aabbaa" fill-opacity="0.533333" stroke="#aabbaa" stroke-width="1.3" stroke-opacity="0.533333" points="660.52,-72.64 650.35,-69.67 656.44,-78.33 660.52,-72.64"/>
</g>
<!-- /lib/screens/explorer_screen.dart&#45;&gt;/lib/screens/git_panel.dart -->
<g id="edge13" class="edge">
<title>/lib/screens/explorer_screen.dart&#45;&gt;/lib/screens/git_panel.dart</title>
<path fill="none" stroke="#aabbaa" stroke-width="1.3" stroke-opacity="0.533333" d="M912.88,-197.44C922.22,-193 931.73,-187.82 940.05,-182 948.85,-175.85 957.39,-167.92 964.73,-160.29"/>
<polygon fill="#aabbaa" fill-opacity="0.533333" stroke="#aabbaa" stroke-width="1.3" stroke-opacity="0.533333" points="967.21,-162.76 971.4,-153.03 962.05,-158.02 967.21,-162.76"/>
</g>
<!-- /lib/screens/welcome_screen.dart -->
<g id="node11" class="node">
<title>/lib/screens/welcome_screen.dart</title>
<path fill="Lavender" stroke="black" stroke-width="1.3" d="M918.93,-151C918.93,-151 815.18,-151 815.18,-151 809.18,-151 803.18,-145 803.18,-139 803.18,-139 803.18,-127 803.18,-127 803.18,-121 809.18,-115 815.18,-115 815.18,-115 918.93,-115 918.93,-115 924.93,-115 930.93,-121 930.93,-127 930.93,-127 930.93,-139 930.93,-139 930.93,-145 924.93,-151 918.93,-151"/>
<text xml:space="preserve" text-anchor="middle" x="867.05" y="-127.75" font-family="Arial" font-size="15.00">welcome_screen</text>
</g>
<!-- /lib/screens/explorer_screen.dart&#45;&gt;/lib/screens/welcome_screen.dart -->
<g id="edge12" class="edge">
<title>/lib/screens/explorer_screen.dart&#45;&gt;/lib/screens/welcome_screen.dart</title>
<path fill="none" stroke="#aabbaa" stroke-width="1.3" stroke-opacity="0.533333" d="M867.05,-197.42C867.05,-187.45 867.05,-174.7 867.05,-163.26"/>
<polygon fill="#aabbaa" fill-opacity="0.533333" stroke="#aabbaa" stroke-width="1.3" stroke-opacity="0.533333" points="870.55,-163.51 867.05,-153.51 863.55,-163.51 870.55,-163.51"/>
</g>
<!-- /lib/screens/explorer_screen.dart&#45;&gt;/lib/theme/app_theme.dart -->
<g id="edge14" class="edge">
<title>/lib/screens/explorer_screen.dart&#45;&gt;/lib/theme/app_theme.dart</title>
<path fill="none" stroke="#aabbaa" stroke-width="1.3" stroke-opacity="0.533333" d="M820.92,-197.44C814.26,-194.93 807.49,-192.39 801.05,-190 791.3,-186.38 785.18,-190.41 779.05,-182 757.56,-152.53 761.02,-108.61 766.61,-79.89"/>
<polygon fill="#aabbaa" fill-opacity="0.533333" stroke="#aabbaa" stroke-width="1.3" stroke-opacity="0.533333" points="770.02,-80.67 768.74,-70.15 763.19,-79.17 770.02,-80.67"/>
</g>
<!-- /lib/screens/explorer_screen.dart&#45;&gt;/lib/services/git_service.dart -->
<g id="edge10" class="edge">
<title>/lib/screens/explorer_screen.dart&#45;&gt;/lib/services/git_service.dart</title>
<path fill="none" stroke="#aabbaa" stroke-width="1.3" stroke-opacity="0.533333" d="M804.92,-198.22C790.01,-194.86 774.05,-191.81 759.05,-190 725.02,-185.89 173.96,-194.54 142.05,-182 130.1,-177.3 119.14,-168.56 110.34,-159.8"/>
<polygon fill="#aabbaa" fill-opacity="0.533333" stroke="#aabbaa" stroke-width="1.3" stroke-opacity="0.533333" points="113.02,-157.55 103.64,-152.64 107.91,-162.33 113.02,-157.55"/>
</g>
<!-- /lib/screens/outline_panel.dart -->
<g id="node9" class="node">
<title>/lib/screens/outline_panel.dart</title>
<path fill="Lavender" stroke="black" stroke-width="1.3" d="M1038.93,-234C1038.93,-234 959.18,-234 959.18,-234 953.18,-234 947.18,-228 947.18,-222 947.18,-222 947.18,-210 947.18,-210 947.18,-204 953.18,-198 959.18,-198 959.18,-198 1038.93,-198 1038.93,-198 1044.93,-198 1050.93,-204 1050.93,-210 1050.93,-210 1050.93,-222 1050.93,-222 1050.93,-228 1044.93,-234 1038.93,-234"/>
<text xml:space="preserve" text-anchor="middle" x="999.05" y="-210.75" font-family="Arial" font-size="15.00">outline_panel</text>
</g>
<!-- /lib/screens/outline_panel.dart&#45;&gt;/lib/models/file_system_item.dart -->
<g id="edge16" class="edge">
<title>/lib/screens/outline_panel.dart&#45;&gt;/lib/models/file_system_item.dart</title>
<path fill="none" stroke="#aabbaa" stroke-width="1.3" stroke-opacity="0.533333" d="M961.95,-197.47C954.21,-194.47 945.99,-191.77 938.05,-190 920.35,-186.06 790.95,-190.73 775.05,-182 739.28,-162.35 752.44,-134.25 722.05,-107 707.47,-93.92 689.3,-82.67 672.41,-73.75"/>
<polygon fill="#aabbaa" fill-opacity="0.533333" stroke="#aabbaa" stroke-width="1.3" stroke-opacity="0.533333" points="674.36,-70.81 663.86,-69.4 671.18,-77.05 674.36,-70.81"/>
</g>
<!-- /lib/screens/editor_screen.dart -->
<g id="node10" class="node">
<title>/lib/screens/editor_screen.dart</title>
<path fill="Lavender" stroke="black" stroke-width="1.3" d="M1137.43,-151C1137.43,-151 1054.68,-151 1054.68,-151 1048.68,-151 1042.68,-145 1042.68,-139 1042.68,-139 1042.68,-127 1042.68,-127 1042.68,-121 1048.68,-115 1054.68,-115 1054.68,-115 1137.43,-115 1137.43,-115 1143.43,-115 1149.43,-121 1149.43,-127 1149.43,-127 1149.43,-139 1149.43,-139 1149.43,-145 1143.43,-151 1137.43,-151"/>
<text xml:space="preserve" text-anchor="middle" x="1096.05" y="-127.75" font-family="Arial" font-size="15.00">editor_screen</text>
</g>
<!-- /lib/screens/outline_panel.dart&#45;&gt;/lib/screens/editor_screen.dart -->
<g id="edge17" class="edge">
<title>/lib/screens/outline_panel.dart&#45;&gt;/lib/screens/editor_screen.dart</title>
<path fill="none" stroke="#aabbaa" stroke-width="1.3" stroke-opacity="0.533333" d="M1020.1,-197.42C1033.57,-186.17 1051.26,-171.4 1066.18,-158.95"/>
<polygon fill="#aabbaa" fill-opacity="0.533333" stroke="#aabbaa" stroke-width="1.3" stroke-opacity="0.533333" points="1068.1,-161.9 1073.54,-152.8 1063.62,-156.53 1068.1,-161.9"/>
</g>
<!-- /lib/screens/outline_panel.dart&#45;&gt;/lib/theme/app_theme.dart -->
<g id="edge15" class="edge">
<title>/lib/screens/outline_panel.dart&#45;&gt;/lib/theme/app_theme.dart</title>
<path fill="none" stroke="#aabbaa" stroke-width="1.3" stroke-opacity="0.533333" d="M961.62,-197.38C953.97,-194.44 945.87,-191.77 938.05,-190 922.42,-186.47 805.92,-192.77 794.05,-182 786.63,-175.25 780.04,-116.88 776.59,-80.37"/>
<polygon fill="#aabbaa" fill-opacity="0.533333" stroke="#aabbaa" stroke-width="1.3" stroke-opacity="0.533333" points="780.08,-80.08 775.68,-70.44 773.11,-80.72 780.08,-80.08"/>
</g>
<!-- /lib/screens/editor_screen.dart&#45;&gt;/lib/utils/message_helper.dart -->
<g id="edge18" class="edge">
<title>/lib/screens/editor_screen.dart&#45;&gt;/lib/utils/message_helper.dart</title>
<path fill="none" stroke="#aabbaa" stroke-width="1.3" stroke-opacity="0.533333" d="M1105.17,-114.42C1110.51,-104.13 1117.37,-90.89 1123.45,-79.17"/>
<polygon fill="#aabbaa" fill-opacity="0.533333" stroke="#aabbaa" stroke-width="1.3" stroke-opacity="0.533333" points="1126.56,-80.78 1128.05,-70.29 1120.34,-77.55 1126.56,-80.78"/>
</g>
<!-- /lib/screens/editor_screen.dart&#45;&gt;/lib/utils/file_type_utils.dart -->
<g id="edge19" class="edge">
<title>/lib/screens/editor_screen.dart&#45;&gt;/lib/utils/file_type_utils.dart</title>
<path fill="none" stroke="#aabbaa" stroke-width="1.3" stroke-opacity="0.533333" d="M1076.09,-114.42C1063.43,-103.28 1046.85,-88.68 1032.79,-76.3"/>
<polygon fill="#aabbaa" fill-opacity="0.533333" stroke="#aabbaa" stroke-width="1.3" stroke-opacity="0.533333" points="1035.27,-73.82 1025.45,-69.84 1030.65,-79.08 1035.27,-73.82"/>
</g>
<!-- /lib/main.dart&#45;&gt;/lib/providers/app_providers.dart -->
<g id="edge20" class="edge">
<title>/lib/main.dart&#45;&gt;/lib/providers/app_providers.dart</title>
<path fill="none" stroke="#aabbaa" stroke-width="1.3" stroke-opacity="0.533333" d="M543.74,-436.03C475.81,-433.43 303.12,-425.55 281.05,-412 218.7,-373.71 183.53,-289.99 168.64,-245.74"/>
<polygon fill="#aabbaa" fill-opacity="0.533333" stroke="#aabbaa" stroke-width="1.3" stroke-opacity="0.533333" points="172.06,-244.94 165.66,-236.5 165.4,-247.09 172.06,-244.94"/>
</g>
<!-- /lib/main.dart&#45;&gt;/lib/screens/editor_screen.dart -->
<g id="edge23" class="edge">
<title>/lib/main.dart&#45;&gt;/lib/screens/editor_screen.dart</title>
<path fill="none" stroke="#aabbaa" stroke-width="1.3" stroke-opacity="0.533333" d="M598.42,-436.97C640.65,-436.24 723.84,-432.09 791.05,-412 929.88,-370.5 999.67,-384.2 1082.05,-265 1102.78,-235.01 1103.13,-191.57 1100.43,-163.06"/>
<polygon fill="#aabbaa" fill-opacity="0.533333" stroke="#aabbaa" stroke-width="1.3" stroke-opacity="0.533333" points="1103.94,-162.97 1099.32,-153.44 1096.99,-163.77 1103.94,-162.97"/>
</g>
<!-- /lib/main.dart&#45;&gt;/lib/theme/app_theme.dart -->
<g id="edge25" class="edge">
<title>/lib/main.dart&#45;&gt;/lib/theme/app_theme.dart</title>
<path fill="none" stroke="#aabbaa" stroke-width="1.3" stroke-opacity="0.533333" d="M598.64,-437.48C645.6,-437.66 738.08,-434.98 759.05,-412 803.13,-363.7 763.72,-330.37 765.05,-265 765.73,-231.67 776.78,-221.2 765.05,-190 763.39,-185.58 759.72,-186.42 758.05,-182 746.33,-150.8 753.43,-140.01 758.05,-107 759.33,-97.91 761.71,-88.23 764.25,-79.52"/>
<polygon fill="#aabbaa" fill-opacity="0.533333" stroke="#aabbaa" stroke-width="1.3" stroke-opacity="0.533333" points="767.5,-80.85 767.14,-70.26 760.82,-78.76 767.5,-80.85"/>
</g>
<!-- /lib/main.dart&#45;&gt;/lib/services/git_service.dart -->
<g id="edge24" class="edge">
<title>/lib/main.dart&#45;&gt;/lib/services/git_service.dart</title>
<path fill="none" stroke="#aabbaa" stroke-width="1.3" stroke-opacity="0.533333" d="M543.66,-437.01C470.81,-436.75 273.77,-433.95 213.05,-412 139.4,-385.37 109.64,-376.59 70.05,-309 59.12,-290.33 64.2,-194.16 65.05,-190 66.98,-180.63 70.53,-170.9 74.33,-162.23"/>
<polygon fill="#aabbaa" fill-opacity="0.533333" stroke="#aabbaa" stroke-width="1.3" stroke-opacity="0.533333" points="77.42,-163.87 78.51,-153.34 71.09,-160.9 77.42,-163.87"/>
</g>
<!-- /lib/widgets/title_bar.dart -->
<g id="node19" class="node">
<title>/lib/widgets/title_bar.dart</title>
<path fill="Lavender" stroke="black" stroke-width="1.3" d="M493.68,-381C493.68,-381 448.43,-381 448.43,-381 442.43,-381 436.43,-375 436.43,-369 436.43,-369 436.43,-357 436.43,-357 436.43,-351 442.43,-345 448.43,-345 448.43,-345 493.68,-345 493.68,-345 499.68,-345 505.68,-351 505.68,-357 505.68,-357 505.68,-369 505.68,-369 505.68,-375 499.68,-381 493.68,-381"/>
<text xml:space="preserve" text-anchor="middle" x="471.05" y="-357.75" font-family="Arial" font-size="15.00">title_bar</text>
</g>
<!-- /lib/main.dart&#45;&gt;/lib/widgets/title_bar.dart -->
<g id="edge22" class="edge">
<title>/lib/main.dart&#45;&gt;/lib/widgets/title_bar.dart</title>
<path fill="none" stroke="#aabbaa" stroke-width="1.3" stroke-opacity="0.533333" d="M543.64,-427.4C534.13,-423.4 523.69,-418.22 515.05,-412 506.58,-405.89 498.49,-397.94 491.61,-390.27"/>
<polygon fill="#aabbaa" fill-opacity="0.533333" stroke="#aabbaa" stroke-width="1.3" stroke-opacity="0.533333" points="494.3,-388.03 485.15,-382.69 488.97,-392.57 494.3,-388.03"/>
</g>
<!-- /lib/widgets/main_layout.dart -->
<g id="node20" class="node">
<title>/lib/widgets/main_layout.dart</title>
<path fill="Lavender" stroke="black" stroke-width="1.3" d="M576.18,-309C576.18,-309 503.93,-309 503.93,-309 497.93,-309 491.93,-303 491.93,-297 491.93,-297 491.93,-285 491.93,-285 491.93,-279 497.93,-273 503.93,-273 503.93,-273 576.18,-273 576.18,-273 582.18,-273 588.18,-279 588.18,-285 588.18,-285 588.18,-297 588.18,-297 588.18,-303 582.18,-309 576.18,-309"/>
<text xml:space="preserve" text-anchor="middle" x="540.05" y="-285.75" font-family="Arial" font-size="15.00">main_layout</text>
</g>
<!-- /lib/main.dart&#45;&gt;/lib/widgets/main_layout.dart -->
<g id="edge21" class="edge">
<title>/lib/main.dart&#45;&gt;/lib/widgets/main_layout.dart</title>
<path fill="none" stroke="#aabbaa" stroke-width="1.3" stroke-opacity="0.533333" d="M598.69,-437.56C619.47,-436.33 646.73,-430.85 661.05,-412 679.07,-388.29 677.35,-369.92 661.05,-345 657.05,-338.87 626.94,-325.67 597.76,-313.98"/>
<polygon fill="#aabbaa" fill-opacity="0.533333" stroke="#aabbaa" stroke-width="1.3" stroke-opacity="0.533333" points="599.09,-310.74 588.5,-310.31 596.51,-317.25 599.09,-310.74"/>
</g>
<!-- /lib/services/file_system_service.dart -->
<g id="node15" class="node">
<title>/lib/services/file_system_service.dart</title>
<path fill="Lavender" stroke="black" stroke-width="1.3" d="M285.3,-151C285.3,-151 162.8,-151 162.8,-151 156.8,-151 150.8,-145 150.8,-139 150.8,-139 150.8,-127 150.8,-127 150.8,-121 156.8,-115 162.8,-115 162.8,-115 285.3,-115 285.3,-115 291.3,-115 297.3,-121 297.3,-127 297.3,-127 297.3,-139 297.3,-139 297.3,-145 291.3,-151 285.3,-151"/>
<text xml:space="preserve" text-anchor="middle" x="224.05" y="-127.75" font-family="Arial" font-size="15.00">file_system_service</text>
</g>
<!-- /lib/services/file_system_service.dart&#45;&gt;/lib/models/file_system_item.dart -->
<g id="edge26" class="edge">
<title>/lib/services/file_system_service.dart&#45;&gt;/lib/models/file_system_item.dart</title>
<path fill="none" stroke="#aabbaa" stroke-width="1.3" stroke-opacity="0.533333" d="M279.17,-114.42C288.43,-111.75 297.98,-109.17 307.05,-107 387.54,-87.77 481.07,-71.91 544.98,-62.03"/>
<polygon fill="#aabbaa" fill-opacity="0.533333" stroke="#aabbaa" stroke-width="1.3" stroke-opacity="0.533333" points="545.26,-65.53 554.61,-60.56 544.2,-58.61 545.26,-65.53"/>
</g>
<!-- /lib/services/editor_service.dart -->
<g id="node16" class="node">
<title>/lib/services/editor_service.dart</title>
<path fill="Lavender" stroke="black" stroke-width="1.3" d="M412.55,-151C412.55,-151 327.55,-151 327.55,-151 321.55,-151 315.55,-145 315.55,-139 315.55,-139 315.55,-127 315.55,-127 315.55,-121 321.55,-115 327.55,-115 327.55,-115 412.55,-115 412.55,-115 418.55,-115 424.55,-121 424.55,-127 424.55,-127 424.55,-139 424.55,-139 424.55,-145 418.55,-151 412.55,-151"/>
<text xml:space="preserve" text-anchor="middle" x="370.05" y="-127.75" font-family="Arial" font-size="15.00">editor_service</text>
</g>
<!-- /lib/widgets/resizable_splitter.dart -->
<g id="node17" class="node">
<title>/lib/widgets/resizable_splitter.dart</title>
<path fill="Lavender" stroke="black" stroke-width="1.3" d="M408.93,-234C408.93,-234 305.18,-234 305.18,-234 299.18,-234 293.18,-228 293.18,-222 293.18,-222 293.18,-210 293.18,-210 293.18,-204 299.18,-198 305.18,-198 305.18,-198 408.93,-198 408.93,-198 414.93,-198 420.93,-204 420.93,-210 420.93,-210 420.93,-222 420.93,-222 420.93,-228 414.93,-234 408.93,-234"/>
<text xml:space="preserve" text-anchor="middle" x="357.05" y="-210.75" font-family="Arial" font-size="15.00">resizable_splitter</text>
</g>
<!-- /lib/widgets/directory_contents.dart -->
<g id="node18" class="node">
<title>/lib/widgets/directory_contents.dart</title>
<path fill="Lavender" stroke="black" stroke-width="1.3" d="M420.55,-309C420.55,-309 305.55,-309 305.55,-309 299.55,-309 293.55,-303 293.55,-297 293.55,-297 293.55,-285 293.55,-285 293.55,-279 299.55,-273 305.55,-273 305.55,-273 420.55,-273 420.55,-273 426.55,-273 432.55,-279 432.55,-285 432.55,-285 432.55,-297 432.55,-297 432.55,-303 426.55,-309 420.55,-309"/>
<text xml:space="preserve" text-anchor="middle" x="363.05" y="-285.75" font-family="Arial" font-size="15.00">directory_contents</text>
</g>
<!-- /lib/widgets/directory_contents.dart&#45;&gt;/lib/models/file_system_item.dart -->
<g id="edge29" class="edge">
<title>/lib/widgets/directory_contents.dart&#45;&gt;/lib/models/file_system_item.dart</title>
<path fill="none" stroke="#aabbaa" stroke-width="1.3" stroke-opacity="0.533333" d="M433.02,-278.75C449.4,-276.49 466.81,-274.38 483.05,-273 498.17,-271.71 745.48,-275.89 756.05,-265 767.66,-253.04 767.58,-202.04 756.05,-190 742.06,-175.38 588.05,-196.62 574.05,-182 551.01,-157.92 562.65,-138.32 574.05,-107 578.01,-96.14 585.1,-85.92 592.59,-77.26"/>
<polygon fill="#aabbaa" fill-opacity="0.533333" stroke="#aabbaa" stroke-width="1.3" stroke-opacity="0.533333" points="595.14,-79.65 599.4,-69.95 590.02,-74.88 595.14,-79.65"/>
</g>
<!-- /lib/widgets/directory_contents.dart&#45;&gt;/lib/services/git_service.dart -->
<g id="edge28" class="edge">
<title>/lib/widgets/directory_contents.dart&#45;&gt;/lib/services/git_service.dart</title>
<path fill="none" stroke="#aabbaa" stroke-width="1.3" stroke-opacity="0.533333" d="M293.18,-279.32C267.36,-274.73 243.29,-269.41 239.05,-265 215.67,-240.65 251.68,-213.08 227.05,-190 213.21,-177.03 159.42,-189.65 142.05,-182 130.47,-176.9 119.7,-168.24 110.94,-159.67"/>
<polygon fill="#aabbaa" fill-opacity="0.533333" stroke="#aabbaa" stroke-width="1.3" stroke-opacity="0.533333" points="113.69,-157.49 104.25,-152.69 108.64,-162.33 113.69,-157.49"/>
</g>
<!-- /lib/widgets/directory_contents.dart&#45;&gt;/lib/services/file_system_service.dart -->
<g id="edge27" class="edge">
<title>/lib/widgets/directory_contents.dart&#45;&gt;/lib/services/file_system_service.dart</title>
<path fill="none" stroke="#aabbaa" stroke-width="1.3" stroke-opacity="0.533333" d="M293.25,-279.87C284.36,-276.27 275.97,-271.45 269.05,-265 261.35,-257.82 243.11,-199.12 232.37,-162.77"/>
<polygon fill="#aabbaa" fill-opacity="0.533333" stroke="#aabbaa" stroke-width="1.3" stroke-opacity="0.533333" points="235.76,-161.91 229.59,-153.3 229.05,-163.88 235.76,-161.91"/>
</g>
<!-- /lib/widgets/title_bar.dart&#45;&gt;/lib/providers/app_providers.dart -->
<g id="edge30" class="edge">
<title>/lib/widgets/title_bar.dart&#45;&gt;/lib/providers/app_providers.dart</title>
<path fill="none" stroke="#aabbaa" stroke-width="1.3" stroke-opacity="0.533333" d="M435.94,-352.91C385.82,-339.8 298.35,-316.35 285.05,-309 264.12,-297.42 265.56,-285.31 245.05,-273 236.13,-267.64 232.18,-269.99 223.05,-265 211.26,-258.56 199.28,-250.03 188.99,-241.96"/>
<polygon fill="#aabbaa" fill-opacity="0.533333" stroke="#aabbaa" stroke-width="1.3" stroke-opacity="0.533333" points="191.2,-239.25 181.22,-235.68 186.79,-244.69 191.2,-239.25"/>
</g>
<!-- /lib/widgets/title_bar.dart&#45;&gt;/lib/widgets/main_layout.dart -->
<g id="edge31" class="edge">
<title>/lib/widgets/title_bar.dart&#45;&gt;/lib/widgets/main_layout.dart</title>
<path fill="none" stroke="#aabbaa" stroke-width="1.3" stroke-opacity="0.533333" d="M488.11,-344.7C496.01,-336.68 505.57,-326.98 514.32,-318.1"/>
<polygon fill="#aabbaa" fill-opacity="0.533333" stroke="#aabbaa" stroke-width="1.3" stroke-opacity="0.533333" points="516.81,-320.57 521.33,-310.99 511.82,-315.66 516.81,-320.57"/>
</g>
<!-- /lib/widgets/main_layout.dart&#45;&gt;/lib/providers/app_providers.dart -->
<g id="edge33" class="edge">
<title>/lib/widgets/main_layout.dart&#45;&gt;/lib/providers/app_providers.dart</title>
<path fill="none" stroke="#aabbaa" stroke-width="1.3" stroke-opacity="0.533333" d="M491.37,-280.31C475.69,-277.53 458.19,-274.77 442.05,-273 403.8,-268.81 306.52,-273.79 269.05,-265 245.95,-259.58 221.66,-249.37 201.89,-239.76"/>
<polygon fill="#aabbaa" fill-opacity="0.533333" stroke="#aabbaa" stroke-width="1.3" stroke-opacity="0.533333" points="203.67,-236.74 193.16,-235.4 200.54,-243 203.67,-236.74"/>
</g>
<!-- /lib/widgets/main_layout.dart&#45;&gt;/lib/utils/file_type_utils.dart -->
<g id="edge35" class="edge">
<title>/lib/widgets/main_layout.dart&#45;&gt;/lib/utils/file_type_utils.dart</title>
<path fill="none" stroke="#aabbaa" stroke-width="1.3" stroke-opacity="0.533333" d="M588.79,-289.86C731.77,-289.2 1141.33,-285.54 1161.05,-265 1209.7,-214.36 1208.58,-158.7 1161.05,-107 1146.72,-91.4 1085.79,-106.69 1066.05,-99 1052.94,-93.89 1040.31,-85.09 1029.91,-76.4"/>
<polygon fill="#aabbaa" fill-opacity="0.533333" stroke="#aabbaa" stroke-width="1.3" stroke-opacity="0.533333" points="1032.32,-73.86 1022.51,-69.87 1027.69,-79.11 1032.32,-73.86"/>
</g>
<!-- /lib/widgets/main_layout.dart&#45;&gt;/lib/models/file_system_item.dart -->
<g id="edge34" class="edge">
<title>/lib/widgets/main_layout.dart&#45;&gt;/lib/models/file_system_item.dart</title>
<path fill="none" stroke="#aabbaa" stroke-width="1.3" stroke-opacity="0.533333" d="M491.37,-280.36C475.68,-277.57 458.19,-274.8 442.05,-273 433.32,-272.02 290.11,-271.37 284.05,-265 261.09,-240.84 261.05,-214.12 284.05,-190 297.03,-176.4 437.74,-192.9 453.05,-182 482.3,-161.18 457.73,-132.45 483.05,-107 500.14,-89.83 523.2,-77.73 545.57,-69.28"/>
<polygon fill="#aabbaa" fill-opacity="0.533333" stroke="#aabbaa" stroke-width="1.3" stroke-opacity="0.533333" points="546.7,-72.6 554.96,-65.97 544.37,-66 546.7,-72.6"/>
</g>
<!-- /lib/widgets/main_layout.dart&#45;&gt;/lib/screens/editor_screen.dart -->
<g id="edge32" class="edge">
<title>/lib/widgets/main_layout.dart&#45;&gt;/lib/screens/editor_screen.dart</title>
<path fill="none" stroke="#aabbaa" stroke-width="1.3" stroke-opacity="0.533333" d="M588.82,-289.19C714.66,-286.91 1041.84,-279.58 1060.05,-265 1090.31,-240.77 1096.55,-193.65 1097.15,-163.03"/>
<polygon fill="#aabbaa" fill-opacity="0.533333" stroke="#aabbaa" stroke-width="1.3" stroke-opacity="0.533333" points="1100.65,-163.37 1097.12,-153.38 1093.65,-163.39 1100.65,-163.37"/>
</g>
<!-- /lib/widgets/main_layout.dart&#45;&gt;/lib/widgets/resizable_splitter.dart -->
<g id="edge36" class="edge">
<title>/lib/widgets/main_layout.dart&#45;&gt;/lib/widgets/resizable_splitter.dart</title>
<path fill="none" stroke="#aabbaa" stroke-width="1.3" stroke-opacity="0.533333" d="M491.51,-282.85C471.92,-278.98 449.42,-273.25 430.05,-265 415.63,-258.86 400.95,-249.85 388.58,-241.29"/>
<polygon fill="#aabbaa" fill-opacity="0.533333" stroke="#aabbaa" stroke-width="1.3" stroke-opacity="0.533333" points="390.97,-238.7 380.8,-235.73 386.9,-244.39 390.97,-238.7"/>
</g>
<!-- /lib/widgets/left_panel.dart -->
<g id="node23" class="node">
<title>/lib/widgets/left_panel.dart</title>
<path fill="Lavender" stroke="black" stroke-width="1.3" d="M507.3,-234C507.3,-234 450.8,-234 450.8,-234 444.8,-234 438.8,-228 438.8,-222 438.8,-222 438.8,-210 438.8,-210 438.8,-204 444.8,-198 450.8,-198 450.8,-198 507.3,-198 507.3,-198 513.3,-198 519.3,-204 519.3,-210 519.3,-210 519.3,-222 519.3,-222 519.3,-228 513.3,-234 507.3,-234"/>
<text xml:space="preserve" text-anchor="middle" x="479.05" y="-210.75" font-family="Arial" font-size="15.00">left_panel</text>
</g>
<!-- /lib/widgets/main_layout.dart&#45;&gt;/lib/widgets/left_panel.dart -->
<g id="edge37" class="edge">
<title>/lib/widgets/main_layout.dart&#45;&gt;/lib/widgets/left_panel.dart</title>
<path fill="none" stroke="#aabbaa" stroke-width="1.3" stroke-opacity="0.533333" d="M525.6,-272.7C518.28,-263.95 509.24,-253.13 501.09,-243.37"/>
<polygon fill="#aabbaa" fill-opacity="0.533333" stroke="#aabbaa" stroke-width="1.3" stroke-opacity="0.533333" points="503.98,-241.37 494.88,-235.94 498.61,-245.86 503.98,-241.37"/>
</g>
<!-- /lib/widgets/center_panel.dart -->
<g id="node24" class="node">
<title>/lib/widgets/center_panel.dart</title>
<path fill="Lavender" stroke="black" stroke-width="1.3" d="M735.18,-234C735.18,-234 656.93,-234 656.93,-234 650.93,-234 644.93,-228 644.93,-222 644.93,-222 644.93,-210 644.93,-210 644.93,-204 650.93,-198 656.93,-198 656.93,-198 735.18,-198 735.18,-198 741.18,-198 747.18,-204 747.18,-210 747.18,-210 747.18,-222 747.18,-222 747.18,-228 741.18,-234 735.18,-234"/>
<text xml:space="preserve" text-anchor="middle" x="696.05" y="-210.75" font-family="Arial" font-size="15.00">center_panel</text>
</g>
<!-- /lib/widgets/main_layout.dart&#45;&gt;/lib/widgets/center_panel.dart -->
<g id="edge38" class="edge">
<title>/lib/widgets/main_layout.dart&#45;&gt;/lib/widgets/center_panel.dart</title>
<path fill="none" stroke="#aabbaa" stroke-width="1.3" stroke-opacity="0.533333" d="M588.71,-273.87C589.83,-273.57 590.95,-273.28 592.05,-273 611.32,-268.12 617.96,-273.24 636.05,-265 648.29,-259.43 660.19,-250.8 670.12,-242.39"/>
<polygon fill="#aabbaa" fill-opacity="0.533333" stroke="#aabbaa" stroke-width="1.3" stroke-opacity="0.533333" points="672.38,-245.07 677.52,-235.81 667.73,-239.84 672.38,-245.07"/>
</g>
<!-- /lib/widgets/right_panel.dart -->
<g id="node25" class="node">
<title>/lib/widgets/right_panel.dart</title>
<path fill="Lavender" stroke="black" stroke-width="1.3" d="M614.8,-234C614.8,-234 549.3,-234 549.3,-234 543.3,-234 537.3,-228 537.3,-222 537.3,-222 537.3,-210 537.3,-210 537.3,-204 543.3,-198 549.3,-198 549.3,-198 614.8,-198 614.8,-198 620.8,-198 626.8,-204 626.8,-210 626.8,-210 626.8,-222 626.8,-222 626.8,-228 620.8,-234 614.8,-234"/>
<text xml:space="preserve" text-anchor="middle" x="582.05" y="-210.75" font-family="Arial" font-size="15.00">right_panel</text>
</g>
<!-- /lib/widgets/main_layout.dart&#45;&gt;/lib/widgets/right_panel.dart -->
<g id="edge39" class="edge">
<title>/lib/widgets/main_layout.dart&#45;&gt;/lib/widgets/right_panel.dart</title>
<path fill="none" stroke="#aabbaa" stroke-width="1.3" stroke-opacity="0.533333" d="M550.01,-272.7C554.84,-264.31 560.75,-254.02 566.19,-244.58"/>
<polygon fill="#aabbaa" fill-opacity="0.533333" stroke="#aabbaa" stroke-width="1.3" stroke-opacity="0.533333" points="569.09,-246.55 571.04,-236.13 563.02,-243.06 569.09,-246.55"/>
</g>
<!-- /lib/widgets/file_explorer.dart -->
<g id="node21" class="node">
<title>/lib/widgets/file_explorer.dart</title>
<path fill="Lavender" stroke="black" stroke-width="1.3" d="M378.55,-381C378.55,-381 305.55,-381 305.55,-381 299.55,-381 293.55,-375 293.55,-369 293.55,-369 293.55,-357 293.55,-357 293.55,-351 299.55,-345 305.55,-345 305.55,-345 378.55,-345 378.55,-345 384.55,-345 390.55,-351 390.55,-357 390.55,-357 390.55,-369 390.55,-369 390.55,-375 384.55,-381 378.55,-381"/>
<text xml:space="preserve" text-anchor="middle" x="342.05" y="-357.75" font-family="Arial" font-size="15.00">file_explorer</text>
</g>
<!-- /lib/widgets/file_explorer.dart&#45;&gt;/lib/models/file_system_item.dart -->
<g id="edge42" class="edge">
<title>/lib/widgets/file_explorer.dart&#45;&gt;/lib/models/file_system_item.dart</title>
<path fill="none" stroke="#aabbaa" stroke-width="1.3" stroke-opacity="0.533333" d="M293.11,-358.5C223.85,-352.58 102.08,-338.23 70.05,-309 2.64,-247.47 -28.35,-174.53 33.05,-107 66.85,-69.83 393.39,-56.75 544.73,-52.66"/>
<polygon fill="#aabbaa" fill-opacity="0.533333" stroke="#aabbaa" stroke-width="1.3" stroke-opacity="0.533333" points="544.76,-56.16 554.67,-52.4 544.58,-49.17 544.76,-56.16"/>
</g>
<!-- /lib/widgets/file_explorer.dart&#45;&gt;/lib/services/git_service.dart -->
<g id="edge41" class="edge">
<title>/lib/widgets/file_explorer.dart&#45;&gt;/lib/services/git_service.dart</title>
<path fill="none" stroke="#aabbaa" stroke-width="1.3" stroke-opacity="0.533333" d="M293.11,-345.81C292.08,-345.53 291.06,-345.26 290.05,-345 208.98,-323.95 175.37,-354.53 105.05,-309 59.18,-279.3 66.92,-244.19 74.05,-190 75.23,-181.05 77.43,-171.49 79.78,-162.85"/>
<polygon fill="#aabbaa" fill-opacity="0.533333" stroke="#aabbaa" stroke-width="1.3" stroke-opacity="0.533333" points="83.13,-163.89 82.57,-153.31 76.41,-161.92 83.13,-163.89"/>
</g>
<!-- /lib/widgets/file_explorer.dart&#45;&gt;/lib/services/file_system_service.dart -->
<g id="edge40" class="edge">
<title>/lib/widgets/file_explorer.dart&#45;&gt;/lib/services/file_system_service.dart</title>
<path fill="none" stroke="#aabbaa" stroke-width="1.3" stroke-opacity="0.533333" d="M293.16,-344.55C222.35,-319.06 99.01,-273.71 93.05,-265 74.24,-237.48 71.47,-215.4 93.05,-190 107.34,-173.19 121.29,-189.48 142.05,-182 158.66,-176.02 175.72,-166.65 189.94,-157.77"/>
<polygon fill="#aabbaa" fill-opacity="0.533333" stroke="#aabbaa" stroke-width="1.3" stroke-opacity="0.533333" points="191.59,-160.87 198.1,-152.51 187.79,-154.99 191.59,-160.87"/>
</g>
<!-- /lib/widgets/file_explorer.dart&#45;&gt;/lib/widgets/directory_contents.dart -->
<g id="edge43" class="edge">
<title>/lib/widgets/file_explorer.dart&#45;&gt;/lib/widgets/directory_contents.dart</title>
<path fill="none" stroke="#aabbaa" stroke-width="1.3" stroke-opacity="0.533333" d="M347.24,-344.7C349.4,-337.52 351.96,-328.99 354.38,-320.9"/>
<polygon fill="#aabbaa" fill-opacity="0.533333" stroke="#aabbaa" stroke-width="1.3" stroke-opacity="0.533333" points="357.69,-322.06 357.21,-311.48 350.98,-320.05 357.69,-322.06"/>
</g>
<!-- /lib/widgets/left_panel.dart&#45;&gt;/lib/models/file_system_item.dart -->
<g id="edge45" class="edge">
<title>/lib/widgets/left_panel.dart&#45;&gt;/lib/models/file_system_item.dart</title>
<path fill="none" stroke="#aabbaa" stroke-width="1.3" stroke-opacity="0.533333" d="M482.67,-197.42C488.18,-174.37 500.59,-133.7 524.05,-107 535.84,-93.59 551.65,-82.6 567.08,-74.01"/>
<polygon fill="#aabbaa" fill-opacity="0.533333" stroke="#aabbaa" stroke-width="1.3" stroke-opacity="0.533333" points="568.68,-77.12 575.9,-69.37 565.42,-70.92 568.68,-77.12"/>
</g>
<!-- /lib/widgets/left_panel.dart&#45;&gt;/lib/screens/explorer_screen.dart -->
<g id="edge44" class="edge">
<title>/lib/widgets/left_panel.dart&#45;&gt;/lib/screens/explorer_screen.dart</title>
<path fill="none" stroke="#aabbaa" stroke-width="1.3" stroke-opacity="0.533333" d="M490.98,-234.38C501.23,-247.98 517.44,-264.84 537.05,-269 550.91,-271.94 778.2,-271.94 792.05,-269 810.43,-265.1 827.77,-253.57 841.15,-242.25"/>
<polygon fill="#aabbaa" fill-opacity="0.533333" stroke="#aabbaa" stroke-width="1.3" stroke-opacity="0.533333" points="843.16,-245.14 848.27,-235.86 838.49,-239.93 843.16,-245.14"/>
</g>
<!-- /lib/widgets/center_panel.dart&#45;&gt;/lib/models/file_system_item.dart -->
<g id="edge48" class="edge">
<title>/lib/widgets/center_panel.dart&#45;&gt;/lib/models/file_system_item.dart</title>
<path fill="none" stroke="#aabbaa" stroke-width="1.3" stroke-opacity="0.533333" d="M658.54,-197.42C651.21,-194.54 643.49,-191.89 636.05,-190 619.38,-185.76 570.57,-194.78 559.05,-182 536.73,-157.24 545.52,-137.46 559.05,-107 564.37,-95.02 573.66,-84.53 583.45,-75.96"/>
<polygon fill="#aabbaa" fill-opacity="0.533333" stroke="#aabbaa" stroke-width="1.3" stroke-opacity="0.533333" points="585.39,-78.89 590.96,-69.88 580.98,-73.45 585.39,-78.89"/>
</g>
<!-- /lib/widgets/center_panel.dart&#45;&gt;/lib/screens/editor_screen.dart -->
<g id="edge47" class="edge">
<title>/lib/widgets/center_panel.dart&#45;&gt;/lib/screens/editor_screen.dart</title>
<path fill="none" stroke="#aabbaa" stroke-width="1.3" stroke-opacity="0.533333" d="M747.39,-199.24C761.42,-195.56 776.71,-192.1 791.05,-190 817.78,-186.09 1008.64,-191.16 1034.05,-182 1047.39,-177.19 1060.13,-168.36 1070.56,-159.56"/>
<polygon fill="#aabbaa" fill-opacity="0.533333" stroke="#aabbaa" stroke-width="1.3" stroke-opacity="0.533333" points="1072.86,-162.21 1077.97,-152.93 1068.19,-156.99 1072.86,-162.21"/>
</g>
<!-- /lib/widgets/center_panel.dart&#45;&gt;/lib/screens/welcome_screen.dart -->
<g id="edge46" class="edge">
<title>/lib/widgets/center_panel.dart&#45;&gt;/lib/screens/welcome_screen.dart</title>
<path fill="none" stroke="#aabbaa" stroke-width="1.3" stroke-opacity="0.533333" d="M733.16,-197.42C758.48,-185.43 792.24,-169.44 819.53,-156.51"/>
<polygon fill="#aabbaa" fill-opacity="0.533333" stroke="#aabbaa" stroke-width="1.3" stroke-opacity="0.533333" points="820.7,-159.83 828.24,-152.38 817.71,-153.5 820.7,-159.83"/>
</g>
<!-- /lib/widgets/right_panel.dart&#45;&gt;/lib/models/file_system_item.dart -->
<g id="edge50" class="edge">
<title>/lib/widgets/right_panel.dart&#45;&gt;/lib/models/file_system_item.dart</title>
<path fill="none" stroke="#aabbaa" stroke-width="1.3" stroke-opacity="0.533333" d="M551.55,-197.41C546.5,-193.05 541.97,-187.91 539.05,-182 524.31,-152.1 523.49,-136.48 539.05,-107 546.04,-93.77 557.72,-83.07 570.1,-74.71"/>
<polygon fill="#aabbaa" fill-opacity="0.533333" stroke="#aabbaa" stroke-width="1.3" stroke-opacity="0.533333" points="571.78,-77.79 578.43,-69.54 568.09,-71.84 571.78,-77.79"/>
</g>
<!-- /lib/widgets/right_panel.dart&#45;&gt;/lib/screens/outline_panel.dart -->
<g id="edge49" class="edge">
<title>/lib/widgets/right_panel.dart&#45;&gt;/lib/screens/outline_panel.dart</title>
<path fill="none" stroke="#aabbaa" stroke-width="1.3" stroke-opacity="0.533333" d="M595.65,-234.55C607.02,-248.04 624.64,-264.67 645.05,-269 660.49,-272.28 913.62,-272.28 929.05,-269 946.57,-265.28 962.75,-253.81 975.14,-242.49"/>
<polygon fill="#aabbaa" fill-opacity="0.533333" stroke="#aabbaa" stroke-width="1.3" stroke-opacity="0.533333" points="977.32,-245.25 982.04,-235.76 972.43,-240.24 977.32,-245.25"/>
</g>
<!-- /tool/sort_source.dart -->
<g id="node26" class="node">
<title>/tool/sort_source.dart</title>
<path fill="Lavender" stroke="black" stroke-width="1.3" d="M1024.43,-539C1024.43,-539 953.68,-539 953.68,-539 947.68,-539 941.68,-533 941.68,-527 941.68,-527 941.68,-515 941.68,-515 941.68,-509 947.68,-503 953.68,-503 953.68,-503 1024.43,-503 1024.43,-503 1030.43,-503 1036.43,-509 1036.43,-515 1036.43,-515 1036.43,-527 1036.43,-527 1036.43,-533 1030.43,-539 1024.43,-539"/>
<text xml:space="preserve" text-anchor="middle" x="989.05" y="-515.75" font-family="Arial" font-size="15.00">sort_source</text>
</g>
</g>
</svg>
