<?xml version="1.0" encoding="UTF-8" standalone="no"?>
<!DOCTYPE svg PUBLIC "-//W3C//DTD SVG 1.1//EN"
 "http://www.w3.org/Graphics/SVG/1.1/DTD/svg11.dtd">
<!-- Generated by graphviz version 13.1.1 (20250719.2154)
 -->
<!-- Pages: 1 -->
<svg width="782pt" height="631pt"
 viewBox="0.00 0.00 782.00 631.00" xmlns="http://www.w3.org/2000/svg" xmlns:xlink="http://www.w3.org/1999/xlink">
<g id="graph0" class="graph" transform="scale(1 1) rotate(0) translate(4 627)">
<polygon fill="white" stroke="none" points="-4,4 -4,-627 777.69,-627 777.69,4 -4,4"/>
<g id="clust1" class="cluster">
<title>cluster~</title>
<path fill="none" stroke="lightgray" stroke-width="2.6" d="M27.69,-8C27.69,-8 753.69,-8 753.69,-8 759.69,-8 765.69,-14 765.69,-20 765.69,-20 765.69,-603 765.69,-603 765.69,-609 759.69,-615 753.69,-615 753.69,-615 27.69,-615 27.69,-615 21.69,-615 15.69,-609 15.69,-603 15.69,-603 15.69,-20 15.69,-20 15.69,-14 21.69,-8 27.69,-8"/>
<text xml:space="preserve" text-anchor="middle" x="390.69" y="-598.65" font-family="Arial Black" font-size="13.00">fide</text>
</g>
<g id="clust2" class="cluster">
<title>cluster~/test</title>
<path fill="none" stroke="lightgray" stroke-width="2.6" d="M297.69,-509C297.69,-509 381.69,-509 381.69,-509 387.69,-509 393.69,-515 393.69,-521 393.69,-521 393.69,-572 393.69,-572 393.69,-578 387.69,-584 381.69,-584 381.69,-584 297.69,-584 297.69,-584 291.69,-584 285.69,-578 285.69,-572 285.69,-572 285.69,-521 285.69,-521 285.69,-515 291.69,-509 297.69,-509"/>
<text xml:space="preserve" text-anchor="middle" x="339.69" y="-567.65" font-family="Arial Black" font-size="13.00">test</text>
</g>
<g id="clust3" class="cluster">
<title>cluster~/lib</title>
<path fill="none" stroke="lightgray" stroke-width="2.6" d="M35.69,-16C35.69,-16 745.69,-16 745.69,-16 751.69,-16 757.69,-22 757.69,-28 757.69,-28 757.69,-489 757.69,-489 757.69,-495 751.69,-501 745.69,-501 745.69,-501 35.69,-501 35.69,-501 29.69,-501 23.69,-495 23.69,-489 23.69,-489 23.69,-28 23.69,-28 23.69,-22 29.69,-16 35.69,-16"/>
<text xml:space="preserve" text-anchor="middle" x="390.69" y="-484.65" font-family="Arial Black" font-size="13.00">lib</text>
</g>
<g id="clust4" class="cluster">
<title>cluster~/lib/models</title>
<path fill="none" stroke="lightgray" stroke-width="2.6" d="M65.69,-24C65.69,-24 305.69,-24 305.69,-24 311.69,-24 317.69,-30 317.69,-36 317.69,-36 317.69,-87 317.69,-87 317.69,-93 311.69,-99 305.69,-99 305.69,-99 65.69,-99 65.69,-99 59.69,-99 53.69,-93 53.69,-87 53.69,-87 53.69,-36 53.69,-36 53.69,-30 59.69,-24 65.69,-24"/>
<text xml:space="preserve" text-anchor="middle" x="185.69" y="-82.65" font-family="Arial Black" font-size="13.00">models</text>
</g>
<g id="clust5" class="cluster">
<title>cluster~/lib/screens</title>
<path fill="none" stroke="lightgray" stroke-width="2.6" d="M73.69,-312C73.69,-312 609.69,-312 609.69,-312 615.69,-312 621.69,-318 621.69,-324 621.69,-324 621.69,-414 621.69,-414 621.69,-420 615.69,-426 609.69,-426 609.69,-426 73.69,-426 73.69,-426 67.69,-426 61.69,-420 61.69,-414 61.69,-414 61.69,-324 61.69,-324 61.69,-318 67.69,-312 73.69,-312"/>
<text xml:space="preserve" text-anchor="middle" x="341.69" y="-409.65" font-family="Arial Black" font-size="13.00">screens</text>
</g>
<g id="clust6" class="cluster">
<title>cluster~/lib/screens/explorer</title>
<path fill="none" stroke="lightgray" stroke-width="2.6" d="M209.69,-320C209.69,-320 471.69,-320 471.69,-320 477.69,-320 483.69,-326 483.69,-332 483.69,-332 483.69,-383 483.69,-383 483.69,-389 477.69,-395 471.69,-395 471.69,-395 209.69,-395 209.69,-395 203.69,-395 197.69,-389 197.69,-383 197.69,-383 197.69,-332 197.69,-332 197.69,-326 203.69,-320 209.69,-320"/>
<text xml:space="preserve" text-anchor="middle" x="340.69" y="-378.65" font-family="Arial Black" font-size="13.00">explorer</text>
</g>
<g id="clust7" class="cluster">
<title>cluster~/lib/screens/outline</title>
<path fill="none" stroke="lightgray" stroke-width="2.6" d="M81.69,-320C81.69,-320 177.69,-320 177.69,-320 183.69,-320 189.69,-326 189.69,-332 189.69,-332 189.69,-383 189.69,-383 189.69,-389 183.69,-395 177.69,-395 177.69,-395 81.69,-395 81.69,-395 75.69,-395 69.69,-389 69.69,-383 69.69,-383 69.69,-332 69.69,-332 69.69,-326 75.69,-320 81.69,-320"/>
<text xml:space="preserve" text-anchor="middle" x="129.69" y="-378.65" font-family="Arial Black" font-size="13.00">outline</text>
</g>
<g id="clust8" class="cluster">
<title>cluster~/lib/screens/editor</title>
<path fill="none" stroke="lightgray" stroke-width="2.6" d="M503.69,-320C503.69,-320 601.69,-320 601.69,-320 607.69,-320 613.69,-326 613.69,-332 613.69,-332 613.69,-383 613.69,-383 613.69,-389 607.69,-395 601.69,-395 601.69,-395 503.69,-395 503.69,-395 497.69,-395 491.69,-389 491.69,-383 491.69,-383 491.69,-332 491.69,-332 491.69,-326 497.69,-320 503.69,-320"/>
<text xml:space="preserve" text-anchor="middle" x="552.69" y="-378.65" font-family="Arial Black" font-size="13.00">editor</text>
</g>
<g id="clust9" class="cluster">
<title>cluster~/lib/theme</title>
<path fill="none" stroke="lightgray" stroke-width="2.6" d="M641.69,-320C641.69,-320 725.69,-320 725.69,-320 731.69,-320 737.69,-326 737.69,-332 737.69,-332 737.69,-383 737.69,-383 737.69,-389 731.69,-395 725.69,-395 725.69,-395 641.69,-395 641.69,-395 635.69,-395 629.69,-389 629.69,-383 629.69,-383 629.69,-332 629.69,-332 629.69,-326 635.69,-320 641.69,-320"/>
<text xml:space="preserve" text-anchor="middle" x="683.69" y="-378.65" font-family="Arial Black" font-size="13.00">theme</text>
</g>
<g id="clust10" class="cluster">
<title>cluster~/lib/services</title>
<path fill="none" stroke="lightgray" stroke-width="2.6" d="M288.69,-107C288.69,-107 554.69,-107 554.69,-107 560.69,-107 566.69,-113 566.69,-119 566.69,-119 566.69,-170 566.69,-170 566.69,-176 560.69,-182 554.69,-182 554.69,-182 288.69,-182 288.69,-182 282.69,-182 276.69,-176 276.69,-170 276.69,-170 276.69,-119 276.69,-119 276.69,-113 282.69,-107 288.69,-107"/>
<text xml:space="preserve" text-anchor="middle" x="421.69" y="-165.65" font-family="Arial Black" font-size="13.00">services</text>
</g>
<g id="clust11" class="cluster">
<title>cluster~/lib/widgets</title>
<path fill="none" stroke="lightgray" stroke-width="2.6" d="M285.69,-190C285.69,-190 528.69,-190 528.69,-190 534.69,-190 540.69,-196 540.69,-202 540.69,-202 540.69,-292 540.69,-292 540.69,-298 534.69,-304 528.69,-304 528.69,-304 285.69,-304 285.69,-304 279.69,-304 273.69,-298 273.69,-292 273.69,-292 273.69,-202 273.69,-202 273.69,-196 279.69,-190 285.69,-190"/>
<text xml:space="preserve" text-anchor="middle" x="407.19" y="-287.65" font-family="Arial Black" font-size="13.00">widgets</text>
</g>
<g id="clust12" class="cluster">
<title>cluster~/lib/widgets/explorer</title>
<path fill="none" stroke="lightgray" stroke-width="2.6" d="M293.69,-198C293.69,-198 383.69,-198 383.69,-198 389.69,-198 395.69,-204 395.69,-210 395.69,-210 395.69,-261 395.69,-261 395.69,-267 389.69,-273 383.69,-273 383.69,-273 293.69,-273 293.69,-273 287.69,-273 281.69,-267 281.69,-261 281.69,-261 281.69,-210 281.69,-210 281.69,-204 287.69,-198 293.69,-198"/>
<text xml:space="preserve" text-anchor="middle" x="338.69" y="-256.65" font-family="Arial Black" font-size="13.00">explorer</text>
</g>
<g id="clust13" class="cluster">
<title>cluster~/tool</title>
<path fill="none" stroke="lightgray" stroke-width="2.6" d="M572.69,-509C572.69,-509 658.69,-509 658.69,-509 664.69,-509 670.69,-515 670.69,-521 670.69,-521 670.69,-572 670.69,-572 670.69,-578 664.69,-584 658.69,-584 658.69,-584 572.69,-584 572.69,-584 566.69,-584 560.69,-578 560.69,-572 560.69,-572 560.69,-521 560.69,-521 560.69,-515 566.69,-509 572.69,-509"/>
<text xml:space="preserve" text-anchor="middle" x="615.69" y="-567.65" font-family="Arial Black" font-size="13.00">tool</text>
</g>
<!-- /test/widget_test.dart -->
<g id="node1" class="node">
<title>/test/widget_test.dart</title>
<path fill="Lavender" stroke="black" stroke-width="1.3" d="M373.57,-553C373.57,-553 305.82,-553 305.82,-553 299.82,-553 293.82,-547 293.82,-541 293.82,-541 293.82,-529 293.82,-529 293.82,-523 299.82,-517 305.82,-517 305.82,-517 373.57,-517 373.57,-517 379.57,-517 385.57,-523 385.57,-529 385.57,-529 385.57,-541 385.57,-541 385.57,-547 379.57,-553 373.57,-553"/>
<text xml:space="preserve" text-anchor="middle" x="339.69" y="-529.75" font-family="Arial" font-size="15.00">widget_test</text>
</g>
<!-- /lib/main.dart -->
<g id="node8" class="node">
<title>/lib/main.dart</title>
<path fill="Lavender" stroke="black" stroke-width="1.3" d="M354.69,-470C354.69,-470 324.69,-470 324.69,-470 318.69,-470 312.69,-464 312.69,-458 312.69,-458 312.69,-446 312.69,-446 312.69,-440 318.69,-434 324.69,-434 324.69,-434 354.69,-434 354.69,-434 360.69,-434 366.69,-440 366.69,-446 366.69,-446 366.69,-458 366.69,-458 366.69,-464 360.69,-470 354.69,-470"/>
<text xml:space="preserve" text-anchor="middle" x="339.69" y="-446.75" font-family="Arial" font-size="15.00">main</text>
</g>
<!-- /test/widget_test.dart&#45;&gt;/lib/main.dart -->
<g id="edge1" class="edge">
<title>/test/widget_test.dart&#45;&gt;/lib/main.dart</title>
<path fill="none" stroke="#aabbaa" stroke-width="1.3" stroke-opacity="0.533333" d="M339.69,-516.42C339.69,-506.45 339.69,-493.7 339.69,-482.26"/>
<polygon fill="#aabbaa" fill-opacity="0.533333" stroke="#aabbaa" stroke-width="1.3" stroke-opacity="0.533333" points="343.19,-482.51 339.69,-472.51 336.19,-482.51 343.19,-482.51"/>
</g>
<!-- /lib/models/project_node.dart -->
<g id="node2" class="node">
<title>/lib/models/project_node.dart</title>
<path fill="Lavender" stroke="black" stroke-width="1.3" d="M151.82,-68C151.82,-68 73.57,-68 73.57,-68 67.57,-68 61.57,-62 61.57,-56 61.57,-56 61.57,-44 61.57,-44 61.57,-38 67.57,-32 73.57,-32 73.57,-32 151.82,-32 151.82,-32 157.82,-32 163.82,-38 163.82,-44 163.82,-44 163.82,-56 163.82,-56 163.82,-62 157.82,-68 151.82,-68"/>
<text xml:space="preserve" text-anchor="middle" x="112.69" y="-44.75" font-family="Arial" font-size="15.00">project_node</text>
</g>
<!-- /lib/models/file_system_item.dart -->
<g id="node3" class="node">
<title>/lib/models/file_system_item.dart</title>
<path fill="Lavender" stroke="black" stroke-width="1.3" d="M297.57,-68C297.57,-68 193.82,-68 193.82,-68 187.82,-68 181.82,-62 181.82,-56 181.82,-56 181.82,-44 181.82,-44 181.82,-38 187.82,-32 193.82,-32 193.82,-32 297.57,-32 297.57,-32 303.57,-32 309.57,-38 309.57,-44 309.57,-44 309.57,-56 309.57,-56 309.57,-62 303.57,-68 297.57,-68"/>
<text xml:space="preserve" text-anchor="middle" x="245.69" y="-44.75" font-family="Arial" font-size="15.00">file_system_item</text>
</g>
<!-- /lib/screens/explorer/explorer_screen.dart -->
<g id="node4" class="node">
<title>/lib/screens/explorer/explorer_screen.dart</title>
<path fill="Lavender" stroke="black" stroke-width="1.3" d="M317.32,-364C317.32,-364 218.07,-364 218.07,-364 212.07,-364 206.07,-358 206.07,-352 206.07,-352 206.07,-340 206.07,-340 206.07,-334 212.07,-328 218.07,-328 218.07,-328 317.32,-328 317.32,-328 323.32,-328 329.32,-334 329.32,-340 329.32,-340 329.32,-352 329.32,-352 329.32,-358 323.32,-364 317.32,-364"/>
<text xml:space="preserve" text-anchor="middle" x="267.69" y="-340.75" font-family="Arial" font-size="15.00">explorer_screen</text>
</g>
<!-- /lib/screens/explorer/explorer_screen.dart&#45;&gt;/lib/models/project_node.dart -->
<g id="edge2" class="edge">
<title>/lib/screens/explorer/explorer_screen.dart&#45;&gt;/lib/models/project_node.dart</title>
<path fill="none" stroke="#aabbaa" stroke-width="1.3" stroke-opacity="0.533333" d="M258.19,-327.36C254.59,-320.23 250.65,-311.85 247.69,-304 215.65,-219.06 254.72,-174.21 193.69,-107 186.98,-99.61 181.36,-103.96 172.69,-99 161.57,-92.64 150.36,-84.3 140.68,-76.36"/>
<polygon fill="#aabbaa" fill-opacity="0.533333" stroke="#aabbaa" stroke-width="1.3" stroke-opacity="0.533333" points="142.96,-73.71 133.07,-69.92 138.44,-79.05 142.96,-73.71"/>
</g>
<!-- /lib/screens/explorer/explorer_screen.dart&#45;&gt;/lib/models/file_system_item.dart -->
<g id="edge3" class="edge">
<title>/lib/screens/explorer/explorer_screen.dart&#45;&gt;/lib/models/file_system_item.dart</title>
<path fill="none" stroke="#aabbaa" stroke-width="1.3" stroke-opacity="0.533333" d="M265.47,-327.43C261.8,-297.58 254.47,-235.07 250.69,-182 248.21,-147.08 246.9,-106.82 246.26,-80.26"/>
<polygon fill="#aabbaa" fill-opacity="0.533333" stroke="#aabbaa" stroke-width="1.3" stroke-opacity="0.533333" points="249.76,-80.28 246.04,-70.36 242.76,-80.44 249.76,-80.28"/>
</g>
<!-- /lib/widgets/message_widget.dart -->
<g id="node13" class="node">
<title>/lib/widgets/message_widget.dart</title>
<path fill="Lavender" stroke="black" stroke-width="1.3" d="M520.57,-242C520.57,-242 416.82,-242 416.82,-242 410.82,-242 404.82,-236 404.82,-230 404.82,-230 404.82,-218 404.82,-218 404.82,-212 410.82,-206 416.82,-206 416.82,-206 520.57,-206 520.57,-206 526.57,-206 532.57,-212 532.57,-218 532.57,-218 532.57,-230 532.57,-230 532.57,-236 526.57,-242 520.57,-242"/>
<text xml:space="preserve" text-anchor="middle" x="468.69" y="-218.75" font-family="Arial" font-size="15.00">message_widget</text>
</g>
<!-- /lib/screens/explorer/explorer_screen.dart&#45;&gt;/lib/widgets/message_widget.dart -->
<g id="edge4" class="edge">
<title>/lib/screens/explorer/explorer_screen.dart&#45;&gt;/lib/widgets/message_widget.dart</title>
<path fill="none" stroke="#aabbaa" stroke-width="1.3" stroke-opacity="0.533333" d="M300.11,-327.4C311.95,-321.66 325.64,-315.79 338.69,-312 364.95,-304.37 375.59,-316.91 399.69,-304 421.83,-292.14 440.15,-270.13 452.33,-252.35"/>
<polygon fill="#aabbaa" fill-opacity="0.533333" stroke="#aabbaa" stroke-width="1.3" stroke-opacity="0.533333" points="455.16,-254.41 457.7,-244.12 449.3,-250.58 455.16,-254.41"/>
</g>
<!-- /lib/screens/explorer/welcome_screen.dart -->
<g id="node5" class="node">
<title>/lib/screens/explorer/welcome_screen.dart</title>
<path fill="Lavender" stroke="black" stroke-width="1.3" d="M463.57,-364C463.57,-364 359.82,-364 359.82,-364 353.82,-364 347.82,-358 347.82,-352 347.82,-352 347.82,-340 347.82,-340 347.82,-334 353.82,-328 359.82,-328 359.82,-328 463.57,-328 463.57,-328 469.57,-328 475.57,-334 475.57,-340 475.57,-340 475.57,-352 475.57,-352 475.57,-358 469.57,-364 463.57,-364"/>
<text xml:space="preserve" text-anchor="middle" x="411.69" y="-340.75" font-family="Arial" font-size="15.00">welcome_screen</text>
</g>
<!-- /lib/screens/outline/outline_panel.dart -->
<g id="node6" class="node">
<title>/lib/screens/outline/outline_panel.dart</title>
<path fill="Lavender" stroke="black" stroke-width="1.3" d="M169.57,-364C169.57,-364 89.82,-364 89.82,-364 83.82,-364 77.82,-358 77.82,-352 77.82,-352 77.82,-340 77.82,-340 77.82,-334 83.82,-328 89.82,-328 89.82,-328 169.57,-328 169.57,-328 175.57,-328 181.57,-334 181.57,-340 181.57,-340 181.57,-352 181.57,-352 181.57,-358 175.57,-364 169.57,-364"/>
<text xml:space="preserve" text-anchor="middle" x="129.69" y="-340.75" font-family="Arial" font-size="15.00">outline_panel</text>
</g>
<!-- /lib/screens/outline/outline_panel.dart&#45;&gt;/lib/models/file_system_item.dart -->
<g id="edge5" class="edge">
<title>/lib/screens/outline/outline_panel.dart&#45;&gt;/lib/models/file_system_item.dart</title>
<path fill="none" stroke="#aabbaa" stroke-width="1.3" stroke-opacity="0.533333" d="M138.09,-327.56C141.49,-320.32 145.39,-311.8 148.69,-304 182.65,-223.69 218.29,-127.03 235.37,-79.81"/>
<polygon fill="#aabbaa" fill-opacity="0.533333" stroke="#aabbaa" stroke-width="1.3" stroke-opacity="0.533333" points="238.63,-81.09 238.73,-70.5 232.04,-78.72 238.63,-81.09"/>
</g>
<!-- /lib/screens/editor/editor_screen.dart -->
<g id="node7" class="node">
<title>/lib/screens/editor/editor_screen.dart</title>
<path fill="Lavender" stroke="black" stroke-width="1.3" d="M594.07,-364C594.07,-364 511.32,-364 511.32,-364 505.32,-364 499.32,-358 499.32,-352 499.32,-352 499.32,-340 499.32,-340 499.32,-334 505.32,-328 511.32,-328 511.32,-328 594.07,-328 594.07,-328 600.07,-328 606.07,-334 606.07,-340 606.07,-340 606.07,-352 606.07,-352 606.07,-358 600.07,-364 594.07,-364"/>
<text xml:space="preserve" text-anchor="middle" x="552.69" y="-340.75" font-family="Arial" font-size="15.00">editor_screen</text>
</g>
<!-- /lib/screens/editor/editor_screen.dart&#45;&gt;/lib/widgets/message_widget.dart -->
<g id="edge6" class="edge">
<title>/lib/screens/editor/editor_screen.dart&#45;&gt;/lib/widgets/message_widget.dart</title>
<path fill="none" stroke="#aabbaa" stroke-width="1.3" stroke-opacity="0.533333" d="M540.48,-327.55C526.6,-307.73 503.8,-275.15 487.62,-252.04"/>
<polygon fill="#aabbaa" fill-opacity="0.533333" stroke="#aabbaa" stroke-width="1.3" stroke-opacity="0.533333" points="490.65,-250.27 482.05,-244.08 484.92,-254.28 490.65,-250.27"/>
</g>
<!-- /lib/main.dart&#45;&gt;/lib/models/project_node.dart -->
<g id="edge14" class="edge">
<title>/lib/main.dart&#45;&gt;/lib/models/project_node.dart</title>
<path fill="none" stroke="#aabbaa" stroke-width="1.3" stroke-opacity="0.533333" d="M312.25,-450.8C241.31,-449.99 56.09,-445.98 37.69,-426 -54.49,-325.88 49.03,-145.67 93.96,-77.82"/>
<polygon fill="#aabbaa" fill-opacity="0.533333" stroke="#aabbaa" stroke-width="1.3" stroke-opacity="0.533333" points="96.6,-80.17 99.28,-69.92 90.79,-76.26 96.6,-80.17"/>
</g>
<!-- /lib/main.dart&#45;&gt;/lib/models/file_system_item.dart -->
<g id="edge13" class="edge">
<title>/lib/main.dart&#45;&gt;/lib/models/file_system_item.dart</title>
<path fill="none" stroke="#aabbaa" stroke-width="1.3" stroke-opacity="0.533333" d="M312.4,-450.55C246.36,-449.18 82.12,-443.99 65.69,-426 -30.87,-320.23 186.49,-116.41 193.69,-107 201.55,-96.73 210.97,-86.16 219.62,-77.01"/>
<polygon fill="#aabbaa" fill-opacity="0.533333" stroke="#aabbaa" stroke-width="1.3" stroke-opacity="0.533333" points="222.13,-79.44 226.55,-69.81 217.09,-74.58 222.13,-79.44"/>
</g>
<!-- /lib/main.dart&#45;&gt;/lib/screens/explorer/explorer_screen.dart -->
<g id="edge7" class="edge">
<title>/lib/main.dart&#45;&gt;/lib/screens/explorer/explorer_screen.dart</title>
<path fill="none" stroke="#aabbaa" stroke-width="1.3" stroke-opacity="0.533333" d="M327.48,-433.36C316.24,-417.12 299.4,-392.8 286.46,-374.1"/>
<polygon fill="#aabbaa" fill-opacity="0.533333" stroke="#aabbaa" stroke-width="1.3" stroke-opacity="0.533333" points="289.41,-372.23 280.84,-366 283.66,-376.21 289.41,-372.23"/>
</g>
<!-- /lib/main.dart&#45;&gt;/lib/screens/explorer/welcome_screen.dart -->
<g id="edge8" class="edge">
<title>/lib/main.dart&#45;&gt;/lib/screens/explorer/welcome_screen.dart</title>
<path fill="none" stroke="#aabbaa" stroke-width="1.3" stroke-opacity="0.533333" d="M351.9,-433.36C363.14,-417.12 379.98,-392.8 392.93,-374.1"/>
<polygon fill="#aabbaa" fill-opacity="0.533333" stroke="#aabbaa" stroke-width="1.3" stroke-opacity="0.533333" points="395.72,-376.21 398.54,-366 389.97,-372.23 395.72,-376.21"/>
</g>
<!-- /lib/main.dart&#45;&gt;/lib/screens/outline/outline_panel.dart -->
<g id="edge10" class="edge">
<title>/lib/main.dart&#45;&gt;/lib/screens/outline/outline_panel.dart</title>
<path fill="none" stroke="#aabbaa" stroke-width="1.3" stroke-opacity="0.533333" d="M312.18,-451.9C281.29,-451.7 230.64,-447.64 193.69,-426 172.81,-413.77 155.94,-391.98 144.77,-374.38"/>
<polygon fill="#aabbaa" fill-opacity="0.533333" stroke="#aabbaa" stroke-width="1.3" stroke-opacity="0.533333" points="148.05,-373.04 139.89,-366.29 142.06,-376.66 148.05,-373.04"/>
</g>
<!-- /lib/main.dart&#45;&gt;/lib/screens/editor/editor_screen.dart -->
<g id="edge9" class="edge">
<title>/lib/main.dart&#45;&gt;/lib/screens/editor/editor_screen.dart</title>
<path fill="none" stroke="#aabbaa" stroke-width="1.3" stroke-opacity="0.533333" d="M367.26,-451.94C398.52,-451.8 450.03,-447.81 487.69,-426 508.76,-413.8 525.91,-392.01 537.29,-374.4"/>
<polygon fill="#aabbaa" fill-opacity="0.533333" stroke="#aabbaa" stroke-width="1.3" stroke-opacity="0.533333" points="540.01,-376.65 542.28,-366.3 534.05,-372.98 540.01,-376.65"/>
</g>
<!-- /lib/theme/app_theme.dart -->
<g id="node9" class="node">
<title>/lib/theme/app_theme.dart</title>
<path fill="Lavender" stroke="black" stroke-width="1.3" d="M717.19,-364C717.19,-364 650.19,-364 650.19,-364 644.19,-364 638.19,-358 638.19,-352 638.19,-352 638.19,-340 638.19,-340 638.19,-334 644.19,-328 650.19,-328 650.19,-328 717.19,-328 717.19,-328 723.19,-328 729.19,-334 729.19,-340 729.19,-340 729.19,-352 729.19,-352 729.19,-358 723.19,-364 717.19,-364"/>
<text xml:space="preserve" text-anchor="middle" x="683.69" y="-340.75" font-family="Arial" font-size="15.00">app_theme</text>
</g>
<!-- /lib/main.dart&#45;&gt;/lib/theme/app_theme.dart -->
<g id="edge12" class="edge">
<title>/lib/main.dart&#45;&gt;/lib/theme/app_theme.dart</title>
<path fill="none" stroke="#aabbaa" stroke-width="1.3" stroke-opacity="0.533333" d="M367.16,-451.16C428.5,-451.1 574.65,-448.53 617.69,-426 639.56,-414.55 657.04,-392.46 668.51,-374.54"/>
<polygon fill="#aabbaa" fill-opacity="0.533333" stroke="#aabbaa" stroke-width="1.3" stroke-opacity="0.533333" points="671.49,-376.37 673.68,-366.01 665.5,-372.75 671.49,-376.37"/>
</g>
<!-- /lib/services/file_system_service.dart -->
<g id="node10" class="node">
<title>/lib/services/file_system_service.dart</title>
<path fill="Lavender" stroke="black" stroke-width="1.3" d="M418.94,-151C418.94,-151 296.44,-151 296.44,-151 290.44,-151 284.44,-145 284.44,-139 284.44,-139 284.44,-127 284.44,-127 284.44,-121 290.44,-115 296.44,-115 296.44,-115 418.94,-115 418.94,-115 424.94,-115 430.94,-121 430.94,-127 430.94,-127 430.94,-139 430.94,-139 430.94,-145 424.94,-151 418.94,-151"/>
<text xml:space="preserve" text-anchor="middle" x="357.69" y="-127.75" font-family="Arial" font-size="15.00">file_system_service</text>
</g>
<!-- /lib/main.dart&#45;&gt;/lib/services/file_system_service.dart -->
<g id="edge11" class="edge">
<title>/lib/main.dart&#45;&gt;/lib/services/file_system_service.dart</title>
<path fill="none" stroke="#aabbaa" stroke-width="1.3" stroke-opacity="0.533333" d="M367.14,-451.41C453.6,-452.42 716.13,-453.2 741.69,-426 776.39,-389.08 766.34,-356.26 741.69,-312 691.58,-222.03 642.59,-221.97 544.69,-190 500.62,-175.61 484.97,-195.72 440.69,-182 423.42,-176.65 405.86,-167.19 391.37,-158.08"/>
<polygon fill="#aabbaa" fill-opacity="0.533333" stroke="#aabbaa" stroke-width="1.3" stroke-opacity="0.533333" points="393.34,-155.19 383.05,-152.65 389.51,-161.05 393.34,-155.19"/>
</g>
<!-- /lib/services/file_system_service.dart&#45;&gt;/lib/models/file_system_item.dart -->
<g id="edge15" class="edge">
<title>/lib/services/file_system_service.dart&#45;&gt;/lib/models/file_system_item.dart</title>
<path fill="none" stroke="#aabbaa" stroke-width="1.3" stroke-opacity="0.533333" d="M333.39,-114.42C317.54,-102.96 296.63,-87.84 279.21,-75.24"/>
<polygon fill="#aabbaa" fill-opacity="0.533333" stroke="#aabbaa" stroke-width="1.3" stroke-opacity="0.533333" points="281.69,-72.72 271.54,-69.69 277.59,-78.39 281.69,-72.72"/>
</g>
<!-- /lib/services/editor_service.dart -->
<g id="node11" class="node">
<title>/lib/services/editor_service.dart</title>
<path fill="Lavender" stroke="black" stroke-width="1.3" d="M546.19,-151C546.19,-151 461.19,-151 461.19,-151 455.19,-151 449.19,-145 449.19,-139 449.19,-139 449.19,-127 449.19,-127 449.19,-121 455.19,-115 461.19,-115 461.19,-115 546.19,-115 546.19,-115 552.19,-115 558.19,-121 558.19,-127 558.19,-127 558.19,-139 558.19,-139 558.19,-145 552.19,-151 546.19,-151"/>
<text xml:space="preserve" text-anchor="middle" x="503.69" y="-127.75" font-family="Arial" font-size="15.00">editor_service</text>
</g>
<!-- /lib/widgets/explorer/file_explorer.dart -->
<g id="node12" class="node">
<title>/lib/widgets/explorer/file_explorer.dart</title>
<path fill="Lavender" stroke="black" stroke-width="1.3" d="M375.19,-242C375.19,-242 302.19,-242 302.19,-242 296.19,-242 290.19,-236 290.19,-230 290.19,-230 290.19,-218 290.19,-218 290.19,-212 296.19,-206 302.19,-206 302.19,-206 375.19,-206 375.19,-206 381.19,-206 387.19,-212 387.19,-218 387.19,-218 387.19,-230 387.19,-230 387.19,-236 381.19,-242 375.19,-242"/>
<text xml:space="preserve" text-anchor="middle" x="338.69" y="-218.75" font-family="Arial" font-size="15.00">file_explorer</text>
</g>
<!-- /lib/widgets/explorer/file_explorer.dart&#45;&gt;/lib/models/file_system_item.dart -->
<g id="edge17" class="edge">
<title>/lib/widgets/explorer/file_explorer.dart&#45;&gt;/lib/models/file_system_item.dart</title>
<path fill="none" stroke="#aabbaa" stroke-width="1.3" stroke-opacity="0.533333" d="M298.81,-205.36C288.95,-199.26 279.33,-191.51 272.69,-182 261.44,-165.87 253.26,-113.75 249.01,-80.31"/>
<polygon fill="#aabbaa" fill-opacity="0.533333" stroke="#aabbaa" stroke-width="1.3" stroke-opacity="0.533333" points="252.5,-79.99 247.81,-70.48 245.55,-80.83 252.5,-79.99"/>
</g>
<!-- /lib/widgets/explorer/file_explorer.dart&#45;&gt;/lib/services/file_system_service.dart -->
<g id="edge16" class="edge">
<title>/lib/widgets/explorer/file_explorer.dart&#45;&gt;/lib/services/file_system_service.dart</title>
<path fill="none" stroke="#aabbaa" stroke-width="1.3" stroke-opacity="0.533333" d="M342.44,-205.42C345.02,-193.35 348.5,-177.05 351.48,-163.07"/>
<polygon fill="#aabbaa" fill-opacity="0.533333" stroke="#aabbaa" stroke-width="1.3" stroke-opacity="0.533333" points="354.87,-163.98 353.53,-153.47 348.02,-162.52 354.87,-163.98"/>
</g>
<!-- /tool/sort_source.dart -->
<g id="node14" class="node">
<title>/tool/sort_source.dart</title>
<path fill="Lavender" stroke="black" stroke-width="1.3" d="M651.07,-553C651.07,-553 580.32,-553 580.32,-553 574.32,-553 568.32,-547 568.32,-541 568.32,-541 568.32,-529 568.32,-529 568.32,-523 574.32,-517 580.32,-517 580.32,-517 651.07,-517 651.07,-517 657.07,-517 663.07,-523 663.07,-529 663.07,-529 663.07,-541 663.07,-541 663.07,-547 657.07,-553 651.07,-553"/>
<text xml:space="preserve" text-anchor="middle" x="615.69" y="-529.75" font-family="Arial" font-size="15.00">sort_source</text>
</g>
</g>
</svg>
