<?xml version="1.0" encoding="UTF-8" standalone="no"?>
<!DOCTYPE svg PUBLIC "-//W3C//DTD SVG 1.1//EN"
 "http://www.w3.org/Graphics/SVG/1.1/DTD/svg11.dtd">
<!-- Generated by graphviz version 13.1.2 (20250808.2320)
 -->
<!-- Pages: 1 -->
<svg width="2746pt" height="675pt"
 viewBox="0.00 0.00 2746.00 675.00" xmlns="http://www.w3.org/2000/svg" xmlns:xlink="http://www.w3.org/1999/xlink">
<g id="graph0" class="graph" transform="scale(1 1) rotate(0) translate(4 671)">
<polygon fill="white" stroke="none" points="-4,4 -4,-671 2742.1,-671 2742.1,4 -4,4"/>
<g id="clust1" class="cluster">
<title>cluster~</title>
<path fill="none" stroke="lightgray" stroke-width="2.6" d="M37.1,-8C37.1,-8 2718.1,-8 2718.1,-8 2724.1,-8 2730.1,-14 2730.1,-20 2730.1,-20 2730.1,-647 2730.1,-647 2730.1,-653 2724.1,-659 2718.1,-659 2718.1,-659 37.1,-659 37.1,-659 31.1,-659 25.1,-653 25.1,-647 25.1,-647 25.1,-20 25.1,-20 25.1,-14 31.1,-8 37.1,-8"/>
<text xml:space="preserve" text-anchor="middle" x="1377.6" y="-642.65" font-family="Arial Black" font-size="13.00">fide</text>
</g>
<g id="clust2" class="cluster">
<title>cluster~/test</title>
<path fill="none" stroke="lightgray" stroke-width="2.6" d="M2503.1,-553C2503.1,-553 2587.1,-553 2587.1,-553 2593.1,-553 2599.1,-559 2599.1,-565 2599.1,-565 2599.1,-616 2599.1,-616 2599.1,-622 2593.1,-628 2587.1,-628 2587.1,-628 2503.1,-628 2503.1,-628 2497.1,-628 2491.1,-622 2491.1,-616 2491.1,-616 2491.1,-565 2491.1,-565 2491.1,-559 2497.1,-553 2503.1,-553"/>
<text xml:space="preserve" text-anchor="middle" x="2545.1" y="-611.65" font-family="Arial Black" font-size="13.00">test</text>
</g>
<g id="clust3" class="cluster">
<title>cluster~/lib</title>
<path fill="none" stroke="lightgray" stroke-width="2.6" d="M45.1,-16C45.1,-16 2710.1,-16 2710.1,-16 2716.1,-16 2722.1,-22 2722.1,-28 2722.1,-28 2722.1,-533 2722.1,-533 2722.1,-539 2716.1,-545 2710.1,-545 2710.1,-545 45.1,-545 45.1,-545 39.1,-545 33.1,-539 33.1,-533 33.1,-533 33.1,-28 33.1,-28 33.1,-22 39.1,-16 45.1,-16"/>
<text xml:space="preserve" text-anchor="middle" x="1377.6" y="-528.65" font-family="Arial Black" font-size="13.00">lib</text>
</g>
<g id="clust4" class="cluster">
<title>cluster~/lib/providers</title>
<path fill="none" stroke="lightgray" stroke-width="2.6" d="M1079.1,-115C1079.1,-115 1181.1,-115 1181.1,-115 1187.1,-115 1193.1,-121 1193.1,-127 1193.1,-127 1193.1,-178 1193.1,-178 1193.1,-184 1187.1,-190 1181.1,-190 1181.1,-190 1079.1,-190 1079.1,-190 1073.1,-190 1067.1,-184 1067.1,-178 1067.1,-178 1067.1,-127 1067.1,-127 1067.1,-121 1073.1,-115 1079.1,-115"/>
<text xml:space="preserve" text-anchor="middle" x="1130.1" y="-173.65" font-family="Arial Black" font-size="13.00">providers</text>
</g>
<g id="clust5" class="cluster">
<title>cluster~/lib/panels</title>
<path fill="none" stroke="lightgray" stroke-width="2.6" d="M1213.1,-107C1213.1,-107 2120.1,-107 2120.1,-107 2126.1,-107 2132.1,-113 2132.1,-119 2132.1,-119 2132.1,-458 2132.1,-458 2132.1,-464 2126.1,-470 2120.1,-470 2120.1,-470 1213.1,-470 1213.1,-470 1207.1,-470 1201.1,-464 1201.1,-458 1201.1,-458 1201.1,-119 1201.1,-119 1201.1,-113 1207.1,-107 1213.1,-107"/>
<text xml:space="preserve" text-anchor="middle" x="1666.6" y="-453.65" font-family="Arial Black" font-size="13.00">panels</text>
</g>
<g id="clust6" class="cluster">
<title>cluster~/lib/panels/right</title>
<path fill="none" stroke="lightgray" stroke-width="2.6" d="M1221.1,-281C1221.1,-281 1407.1,-281 1407.1,-281 1413.1,-281 1419.1,-287 1419.1,-293 1419.1,-293 1419.1,-427 1419.1,-427 1419.1,-433 1413.1,-439 1407.1,-439 1407.1,-439 1221.1,-439 1221.1,-439 1215.1,-439 1209.1,-433 1209.1,-427 1209.1,-427 1209.1,-293 1209.1,-293 1209.1,-287 1215.1,-281 1221.1,-281"/>
<text xml:space="preserve" text-anchor="middle" x="1314.1" y="-422.65" font-family="Arial Black" font-size="13.00">right</text>
</g>
<g id="clust7" class="cluster">
<title>cluster~/lib/panels/center</title>
<path fill="none" stroke="lightgray" stroke-width="2.6" d="M1882.1,-115C1882.1,-115 2112.1,-115 2112.1,-115 2118.1,-115 2124.1,-121 2124.1,-127 2124.1,-127 2124.1,-344 2124.1,-344 2124.1,-350 2118.1,-356 2112.1,-356 2112.1,-356 1882.1,-356 1882.1,-356 1876.1,-356 1870.1,-350 1870.1,-344 1870.1,-344 1870.1,-127 1870.1,-127 1870.1,-121 1876.1,-115 1882.1,-115"/>
<text xml:space="preserve" text-anchor="middle" x="1997.1" y="-339.65" font-family="Arial Black" font-size="13.00">center</text>
</g>
<g id="clust8" class="cluster">
<title>cluster~/lib/panels/left</title>
<path fill="none" stroke="lightgray" stroke-width="2.6" d="M1439.1,-198C1439.1,-198 1850.1,-198 1850.1,-198 1856.1,-198 1862.1,-204 1862.1,-210 1862.1,-210 1862.1,-427 1862.1,-427 1862.1,-433 1856.1,-439 1850.1,-439 1850.1,-439 1439.1,-439 1439.1,-439 1433.1,-439 1427.1,-433 1427.1,-427 1427.1,-427 1427.1,-210 1427.1,-210 1427.1,-204 1433.1,-198 1439.1,-198"/>
<text xml:space="preserve" text-anchor="middle" x="1644.6" y="-422.65" font-family="Arial Black" font-size="13.00">left</text>
</g>
<g id="clust9" class="cluster">
<title>cluster~/lib/utils</title>
<path fill="none" stroke="lightgray" stroke-width="2.6" d="M1446.1,-24C1446.1,-24 1776.1,-24 1776.1,-24 1782.1,-24 1788.1,-30 1788.1,-36 1788.1,-36 1788.1,-87 1788.1,-87 1788.1,-93 1782.1,-99 1776.1,-99 1776.1,-99 1446.1,-99 1446.1,-99 1440.1,-99 1434.1,-93 1434.1,-87 1434.1,-87 1434.1,-36 1434.1,-36 1434.1,-30 1440.1,-24 1446.1,-24"/>
<text xml:space="preserve" text-anchor="middle" x="1611.1" y="-82.65" font-family="Arial Black" font-size="13.00">utils</text>
</g>
<g id="clust10" class="cluster">
<title>cluster~/lib/models</title>
<path fill="none" stroke="lightgray" stroke-width="2.6" d="M651.1,-24C651.1,-24 1047.1,-24 1047.1,-24 1053.1,-24 1059.1,-30 1059.1,-36 1059.1,-36 1059.1,-178 1059.1,-178 1059.1,-184 1053.1,-190 1047.1,-190 1047.1,-190 651.1,-190 651.1,-190 645.1,-190 639.1,-184 639.1,-178 639.1,-178 639.1,-36 639.1,-36 639.1,-30 645.1,-24 651.1,-24"/>
<text xml:space="preserve" text-anchor="middle" x="849.1" y="-173.65" font-family="Arial Black" font-size="13.00">models</text>
</g>
<g id="clust11" class="cluster">
<title>cluster~/lib/screens</title>
<path fill="none" stroke="lightgray" stroke-width="2.6" d="M2152.1,-364C2152.1,-364 2520.1,-364 2520.1,-364 2526.1,-364 2532.1,-370 2532.1,-376 2532.1,-376 2532.1,-427 2532.1,-427 2532.1,-433 2526.1,-439 2520.1,-439 2520.1,-439 2152.1,-439 2152.1,-439 2146.1,-439 2140.1,-433 2140.1,-427 2140.1,-427 2140.1,-376 2140.1,-376 2140.1,-370 2146.1,-364 2152.1,-364"/>
<text xml:space="preserve" text-anchor="middle" x="2336.1" y="-422.65" font-family="Arial Black" font-size="13.00">screens</text>
</g>
<g id="clust12" class="cluster">
<title>cluster~/lib/theme</title>
<path fill="none" stroke="lightgray" stroke-width="2.6" d="M2566.1,-364C2566.1,-364 2650.1,-364 2650.1,-364 2656.1,-364 2662.1,-370 2662.1,-376 2662.1,-376 2662.1,-427 2662.1,-427 2662.1,-433 2656.1,-439 2650.1,-439 2650.1,-439 2566.1,-439 2566.1,-439 2560.1,-439 2554.1,-433 2554.1,-427 2554.1,-427 2554.1,-376 2554.1,-376 2554.1,-370 2560.1,-364 2566.1,-364"/>
<text xml:space="preserve" text-anchor="middle" x="2608.1" y="-422.65" font-family="Arial Black" font-size="13.00">theme</text>
</g>
<g id="clust13" class="cluster">
<title>cluster~/lib/services</title>
<path fill="none" stroke="lightgray" stroke-width="2.6" d="M245.1,-115C245.1,-115 619.1,-115 619.1,-115 625.1,-115 631.1,-121 631.1,-127 631.1,-127 631.1,-261 631.1,-261 631.1,-267 625.1,-273 619.1,-273 619.1,-273 245.1,-273 245.1,-273 239.1,-273 233.1,-267 233.1,-261 233.1,-261 233.1,-127 233.1,-127 233.1,-121 239.1,-115 245.1,-115"/>
<text xml:space="preserve" text-anchor="middle" x="432.1" y="-256.65" font-family="Arial Black" font-size="13.00">services</text>
</g>
<g id="clust14" class="cluster">
<title>cluster~/lib/widgets</title>
<path fill="none" stroke="lightgray" stroke-width="2.6" d="M2178.1,-115C2178.1,-115 2636.1,-115 2636.1,-115 2642.1,-115 2648.1,-121 2648.1,-127 2648.1,-127 2648.1,-178 2648.1,-178 2648.1,-184 2642.1,-190 2636.1,-190 2636.1,-190 2178.1,-190 2178.1,-190 2172.1,-190 2166.1,-184 2166.1,-178 2166.1,-178 2166.1,-127 2166.1,-127 2166.1,-121 2172.1,-115 2178.1,-115"/>
<text xml:space="preserve" text-anchor="middle" x="2407.1" y="-173.65" font-family="Arial Black" font-size="13.00">widgets</text>
</g>
<g id="clust15" class="cluster">
<title>cluster~/tool</title>
<path fill="none" stroke="lightgray" stroke-width="2.6" d="M2622.1,-553C2622.1,-553 2708.1,-553 2708.1,-553 2714.1,-553 2720.1,-559 2720.1,-565 2720.1,-565 2720.1,-616 2720.1,-616 2720.1,-622 2714.1,-628 2708.1,-628 2708.1,-628 2622.1,-628 2622.1,-628 2616.1,-628 2610.1,-622 2610.1,-616 2610.1,-616 2610.1,-565 2610.1,-565 2610.1,-559 2616.1,-553 2622.1,-553"/>
<text xml:space="preserve" text-anchor="middle" x="2665.1" y="-611.65" font-family="Arial Black" font-size="13.00">tool</text>
</g>
<!-- /test/widget_test.dart -->
<g id="node1" class="node">
<title>/test/widget_test.dart</title>
<path fill="Lavender" stroke="black" stroke-width="1.3" d="M2578.97,-597C2578.97,-597 2511.22,-597 2511.22,-597 2505.22,-597 2499.22,-591 2499.22,-585 2499.22,-585 2499.22,-573 2499.22,-573 2499.22,-567 2505.22,-561 2511.22,-561 2511.22,-561 2578.97,-561 2578.97,-561 2584.97,-561 2590.97,-567 2590.97,-573 2590.97,-573 2590.97,-585 2590.97,-585 2590.97,-591 2584.97,-597 2578.97,-597"/>
<text xml:space="preserve" text-anchor="middle" x="2545.1" y="-573.75" font-family="Arial" font-size="15.00">widget_test</text>
</g>
<!-- /lib/main.dart -->
<g id="node28" class="node">
<title>/lib/main.dart</title>
<path fill="Lavender" stroke="black" stroke-width="1.3" d="M2560.1,-514C2560.1,-514 2530.1,-514 2530.1,-514 2524.1,-514 2518.1,-508 2518.1,-502 2518.1,-502 2518.1,-490 2518.1,-490 2518.1,-484 2524.1,-478 2530.1,-478 2530.1,-478 2560.1,-478 2560.1,-478 2566.1,-478 2572.1,-484 2572.1,-490 2572.1,-490 2572.1,-502 2572.1,-502 2572.1,-508 2566.1,-514 2560.1,-514"/>
<text xml:space="preserve" text-anchor="middle" x="2545.1" y="-490.75" font-family="Arial" font-size="15.00">main</text>
</g>
<!-- /test/widget_test.dart&#45;&gt;/lib/main.dart -->
<g id="edge1" class="edge">
<title>/test/widget_test.dart&#45;&gt;/lib/main.dart</title>
<path fill="none" stroke="#aabbaa" stroke-width="1.3" stroke-opacity="0.533333" d="M2545.1,-560.42C2545.1,-550.45 2545.1,-537.7 2545.1,-526.26"/>
<polygon fill="#aabbaa" fill-opacity="0.533333" stroke="#aabbaa" stroke-width="1.3" stroke-opacity="0.533333" points="2548.6,-526.51 2545.1,-516.51 2541.6,-526.51 2548.6,-526.51"/>
</g>
<!-- /lib/providers/app_providers.dart -->
<g id="node2" class="node">
<title>/lib/providers/app_providers.dart</title>
<path fill="Lavender" stroke="black" stroke-width="1.3" d="M1173.35,-159C1173.35,-159 1086.85,-159 1086.85,-159 1080.85,-159 1074.85,-153 1074.85,-147 1074.85,-147 1074.85,-135 1074.85,-135 1074.85,-129 1080.85,-123 1086.85,-123 1086.85,-123 1173.35,-123 1173.35,-123 1179.35,-123 1185.35,-129 1185.35,-135 1185.35,-135 1185.35,-147 1185.35,-147 1185.35,-153 1179.35,-159 1173.35,-159"/>
<text xml:space="preserve" text-anchor="middle" x="1130.1" y="-135.75" font-family="Arial" font-size="15.00">app_providers</text>
</g>
<!-- /lib/utils/file_type_utils.dart -->
<g id="node20" class="node">
<title>/lib/utils/file_type_utils.dart</title>
<path fill="Lavender" stroke="black" stroke-width="1.3" d="M1768.1,-68C1768.1,-68 1686.1,-68 1686.1,-68 1680.1,-68 1674.1,-62 1674.1,-56 1674.1,-56 1674.1,-44 1674.1,-44 1674.1,-38 1680.1,-32 1686.1,-32 1686.1,-32 1768.1,-32 1768.1,-32 1774.1,-32 1780.1,-38 1780.1,-44 1780.1,-44 1780.1,-56 1780.1,-56 1780.1,-62 1774.1,-68 1768.1,-68"/>
<text xml:space="preserve" text-anchor="middle" x="1727.1" y="-44.75" font-family="Arial" font-size="15.00">file_type_utils</text>
</g>
<!-- /lib/providers/app_providers.dart&#45;&gt;/lib/utils/file_type_utils.dart -->
<g id="edge6" class="edge">
<title>/lib/providers/app_providers.dart&#45;&gt;/lib/utils/file_type_utils.dart</title>
<path fill="none" stroke="#aabbaa" stroke-width="1.3" stroke-opacity="0.533333" d="M1185.88,-139.75C1304.68,-138.58 1578.82,-132.23 1665.1,-99 1678.23,-93.94 1690.86,-85.14 1701.26,-76.45"/>
<polygon fill="#aabbaa" fill-opacity="0.533333" stroke="#aabbaa" stroke-width="1.3" stroke-opacity="0.533333" points="1703.48,-79.16 1708.66,-69.91 1698.85,-73.91 1703.48,-79.16"/>
</g>
<!-- /lib/models/project_node.dart -->
<g id="node22" class="node">
<title>/lib/models/project_node.dart</title>
<path fill="Lavender" stroke="black" stroke-width="1.3" d="M737.22,-159C737.22,-159 658.97,-159 658.97,-159 652.97,-159 646.97,-153 646.97,-147 646.97,-147 646.97,-135 646.97,-135 646.97,-129 652.97,-123 658.97,-123 658.97,-123 737.22,-123 737.22,-123 743.22,-123 749.22,-129 749.22,-135 749.22,-135 749.22,-147 749.22,-147 749.22,-153 743.22,-159 737.22,-159"/>
<text xml:space="preserve" text-anchor="middle" x="698.1" y="-135.75" font-family="Arial" font-size="15.00">project_node</text>
</g>
<!-- /lib/providers/app_providers.dart&#45;&gt;/lib/models/project_node.dart -->
<g id="edge3" class="edge">
<title>/lib/providers/app_providers.dart&#45;&gt;/lib/models/project_node.dart</title>
<path fill="none" stroke="#aabbaa" stroke-width="1.3" stroke-opacity="0.533333" d="M1112.49,-159.52C1098.26,-172.8 1076.91,-189.16 1054.1,-194 1038.5,-197.31 782.69,-197.31 767.1,-194 749.74,-190.32 733.78,-178.85 721.59,-167.52"/>
<polygon fill="#aabbaa" fill-opacity="0.533333" stroke="#aabbaa" stroke-width="1.3" stroke-opacity="0.533333" points="724.38,-165.36 714.81,-160.8 719.45,-170.33 724.38,-165.36"/>
</g>
<!-- /lib/models/document_state.dart -->
<g id="node23" class="node">
<title>/lib/models/document_state.dart</title>
<path fill="Lavender" stroke="black" stroke-width="1.3" d="M878.72,-159C878.72,-159 779.47,-159 779.47,-159 773.47,-159 767.47,-153 767.47,-147 767.47,-147 767.47,-135 767.47,-135 767.47,-129 773.47,-123 779.47,-123 779.47,-123 878.72,-123 878.72,-123 884.72,-123 890.72,-129 890.72,-135 890.72,-135 890.72,-147 890.72,-147 890.72,-153 884.72,-159 878.72,-159"/>
<text xml:space="preserve" text-anchor="middle" x="829.1" y="-135.75" font-family="Arial" font-size="15.00">document_state</text>
</g>
<!-- /lib/providers/app_providers.dart&#45;&gt;/lib/models/document_state.dart -->
<g id="edge4" class="edge">
<title>/lib/providers/app_providers.dart&#45;&gt;/lib/models/document_state.dart</title>
<path fill="none" stroke="#aabbaa" stroke-width="1.3" stroke-opacity="0.533333" d="M1107.36,-159.51C1094.76,-169.27 1078.56,-181.05 1063.1,-190 1059.31,-192.19 1058.38,-193.09 1054.1,-194 1038.34,-197.34 924.86,-197.34 909.1,-194 889.71,-189.89 871.07,-178.15 856.66,-166.77"/>
<polygon fill="#aabbaa" fill-opacity="0.533333" stroke="#aabbaa" stroke-width="1.3" stroke-opacity="0.533333" points="859.28,-164.39 849.36,-160.68 854.8,-169.77 859.28,-164.39"/>
</g>
<!-- /lib/models/file_system_item.dart -->
<g id="node24" class="node">
<title>/lib/models/file_system_item.dart</title>
<path fill="Lavender" stroke="black" stroke-width="1.3" d="M762.97,-68C762.97,-68 659.22,-68 659.22,-68 653.22,-68 647.22,-62 647.22,-56 647.22,-56 647.22,-44 647.22,-44 647.22,-38 653.22,-32 659.22,-32 659.22,-32 762.97,-32 762.97,-32 768.97,-32 774.97,-38 774.97,-44 774.97,-44 774.97,-56 774.97,-56 774.97,-62 768.97,-68 762.97,-68"/>
<text xml:space="preserve" text-anchor="middle" x="711.1" y="-44.75" font-family="Arial" font-size="15.00">file_system_item</text>
</g>
<!-- /lib/providers/app_providers.dart&#45;&gt;/lib/models/file_system_item.dart -->
<g id="edge2" class="edge">
<title>/lib/providers/app_providers.dart&#45;&gt;/lib/models/file_system_item.dart</title>
<path fill="none" stroke="#aabbaa" stroke-width="1.3" stroke-opacity="0.533333" d="M1099.21,-122.38C1088.12,-116.7 1075.33,-110.89 1063.1,-107 970.64,-77.62 859.42,-63.22 787.08,-56.47"/>
<polygon fill="#aabbaa" fill-opacity="0.533333" stroke="#aabbaa" stroke-width="1.3" stroke-opacity="0.533333" points="787.61,-53.01 777.33,-55.59 786.98,-59.98 787.61,-53.01"/>
</g>
<!-- /lib/services/project_service.dart -->
<g id="node30" class="node">
<title>/lib/services/project_service.dart</title>
<path fill="Lavender" stroke="black" stroke-width="1.3" d="M611.35,-242C611.35,-242 518.85,-242 518.85,-242 512.85,-242 506.85,-236 506.85,-230 506.85,-230 506.85,-218 506.85,-218 506.85,-212 512.85,-206 518.85,-206 518.85,-206 611.35,-206 611.35,-206 617.35,-206 623.35,-212 623.35,-218 623.35,-218 623.35,-230 623.35,-230 623.35,-236 617.35,-242 611.35,-242"/>
<text xml:space="preserve" text-anchor="middle" x="565.1" y="-218.75" font-family="Arial" font-size="15.00">project_service</text>
</g>
<!-- /lib/providers/app_providers.dart&#45;&gt;/lib/services/project_service.dart -->
<g id="edge5" class="edge">
<title>/lib/providers/app_providers.dart&#45;&gt;/lib/services/project_service.dart</title>
<path fill="none" stroke="#aabbaa" stroke-width="1.3" stroke-opacity="0.533333" d="M1119.46,-159.43C1108.18,-170.3 1090.42,-183.44 1072.1,-190 994.31,-217.86 756.07,-222.52 635.87,-223.09"/>
<polygon fill="#aabbaa" fill-opacity="0.533333" stroke="#aabbaa" stroke-width="1.3" stroke-opacity="0.533333" points="635.87,-219.59 625.88,-223.13 635.89,-226.59 635.87,-219.59"/>
</g>
<!-- /lib/panels/right/outline_panel.dart -->
<g id="node3" class="node">
<title>/lib/panels/right/outline_panel.dart</title>
<path fill="Lavender" stroke="black" stroke-width="1.3" d="M1398.97,-325C1398.97,-325 1319.22,-325 1319.22,-325 1313.22,-325 1307.22,-319 1307.22,-313 1307.22,-313 1307.22,-301 1307.22,-301 1307.22,-295 1313.22,-289 1319.22,-289 1319.22,-289 1398.97,-289 1398.97,-289 1404.97,-289 1410.97,-295 1410.97,-301 1410.97,-301 1410.97,-313 1410.97,-313 1410.97,-319 1404.97,-325 1398.97,-325"/>
<text xml:space="preserve" text-anchor="middle" x="1359.1" y="-301.75" font-family="Arial" font-size="15.00">outline_panel</text>
</g>
<!-- /lib/panels/center/editor_screen.dart -->
<g id="node7" class="node">
<title>/lib/panels/center/editor_screen.dart</title>
<path fill="Lavender" stroke="black" stroke-width="1.3" d="M2104.47,-242C2104.47,-242 2021.72,-242 2021.72,-242 2015.72,-242 2009.72,-236 2009.72,-230 2009.72,-230 2009.72,-218 2009.72,-218 2009.72,-212 2015.72,-206 2021.72,-206 2021.72,-206 2104.47,-206 2104.47,-206 2110.47,-206 2116.47,-212 2116.47,-218 2116.47,-218 2116.47,-230 2116.47,-230 2116.47,-236 2110.47,-242 2104.47,-242"/>
<text xml:space="preserve" text-anchor="middle" x="2063.1" y="-218.75" font-family="Arial" font-size="15.00">editor_screen</text>
</g>
<!-- /lib/panels/right/outline_panel.dart&#45;&gt;/lib/panels/center/editor_screen.dart -->
<g id="edge8" class="edge">
<title>/lib/panels/right/outline_panel.dart&#45;&gt;/lib/panels/center/editor_screen.dart</title>
<path fill="none" stroke="#aabbaa" stroke-width="1.3" stroke-opacity="0.533333" d="M1397.69,-288.37C1405.92,-285.35 1414.67,-282.65 1423.1,-281 1454.61,-274.84 1970.78,-283.6 2001.1,-273 2014.81,-268.21 2027.87,-259.06 2038.43,-250.04"/>
<polygon fill="#aabbaa" fill-opacity="0.533333" stroke="#aabbaa" stroke-width="1.3" stroke-opacity="0.533333" points="2040.51,-252.87 2045.57,-243.56 2035.81,-247.69 2040.51,-252.87"/>
</g>
<!-- /lib/panels/right/outline_panel.dart&#45;&gt;/lib/models/file_system_item.dart -->
<g id="edge7" class="edge">
<title>/lib/panels/right/outline_panel.dart&#45;&gt;/lib/models/file_system_item.dart</title>
<path fill="none" stroke="#aabbaa" stroke-width="1.3" stroke-opacity="0.533333" d="M1322.71,-288.46C1314.77,-285.38 1306.29,-282.64 1298.1,-281 1282.28,-277.83 148.46,-284.44 137.1,-273 111.1,-246.83 112.31,-134.32 137.1,-107 169.93,-70.81 486.46,-57.25 634.93,-52.85"/>
<polygon fill="#aabbaa" fill-opacity="0.533333" stroke="#aabbaa" stroke-width="1.3" stroke-opacity="0.533333" points="634.75,-56.36 644.65,-52.57 634.55,-49.36 634.75,-56.36"/>
</g>
<!-- /lib/panels/right/ai_panel.dart -->
<g id="node4" class="node">
<title>/lib/panels/right/ai_panel.dart</title>
<path fill="Lavender" stroke="black" stroke-width="1.3" d="M1276.85,-325C1276.85,-325 1229.35,-325 1229.35,-325 1223.35,-325 1217.35,-319 1217.35,-313 1217.35,-313 1217.35,-301 1217.35,-301 1217.35,-295 1223.35,-289 1229.35,-289 1229.35,-289 1276.85,-289 1276.85,-289 1282.85,-289 1288.85,-295 1288.85,-301 1288.85,-301 1288.85,-313 1288.85,-313 1288.85,-319 1282.85,-325 1276.85,-325"/>
<text xml:space="preserve" text-anchor="middle" x="1253.1" y="-301.75" font-family="Arial" font-size="15.00">ai_panel</text>
</g>
<!-- /lib/panels/right/ai_panel.dart&#45;&gt;/lib/models/file_system_item.dart -->
<g id="edge10" class="edge">
<title>/lib/panels/right/ai_panel.dart&#45;&gt;/lib/models/file_system_item.dart</title>
<path fill="none" stroke="#aabbaa" stroke-width="1.3" stroke-opacity="0.533333" d="M1216.76,-305.11C1023.2,-300.38 122,-278.05 117.1,-273 91.39,-246.54 92.27,-134.28 117.1,-107 151.35,-69.37 483.01,-56.51 635.31,-52.57"/>
<polygon fill="#aabbaa" fill-opacity="0.533333" stroke="#aabbaa" stroke-width="1.3" stroke-opacity="0.533333" points="634.97,-56.08 644.87,-52.33 634.79,-49.08 634.97,-56.08"/>
</g>
<!-- /lib/services/ai_service.dart -->
<g id="node33" class="node">
<title>/lib/services/ai_service.dart</title>
<path fill="Lavender" stroke="black" stroke-width="1.3" d="M476.47,-242C476.47,-242 417.72,-242 417.72,-242 411.72,-242 405.72,-236 405.72,-230 405.72,-230 405.72,-218 405.72,-218 405.72,-212 411.72,-206 417.72,-206 417.72,-206 476.47,-206 476.47,-206 482.47,-206 488.47,-212 488.47,-218 488.47,-218 488.47,-230 488.47,-230 488.47,-236 482.47,-242 476.47,-242"/>
<text xml:space="preserve" text-anchor="middle" x="447.1" y="-218.75" font-family="Arial" font-size="15.00">ai_service</text>
</g>
<!-- /lib/panels/right/ai_panel.dart&#45;&gt;/lib/services/ai_service.dart -->
<g id="edge9" class="edge">
<title>/lib/panels/right/ai_panel.dart&#45;&gt;/lib/services/ai_service.dart</title>
<path fill="none" stroke="#aabbaa" stroke-width="1.3" stroke-opacity="0.533333" d="M1216.93,-305.89C1075.54,-305.27 564.65,-301.09 498.1,-273 486.79,-268.23 476.47,-259.76 468.12,-251.25"/>
<polygon fill="#aabbaa" fill-opacity="0.533333" stroke="#aabbaa" stroke-width="1.3" stroke-opacity="0.533333" points="470.81,-249.01 461.49,-243.97 465.64,-253.72 470.81,-249.01"/>
</g>
<!-- /lib/panels/right/right_panel.dart -->
<g id="node5" class="node">
<title>/lib/panels/right/right_panel.dart</title>
<path fill="Lavender" stroke="black" stroke-width="1.3" d="M1342.85,-408C1342.85,-408 1277.35,-408 1277.35,-408 1271.35,-408 1265.35,-402 1265.35,-396 1265.35,-396 1265.35,-384 1265.35,-384 1265.35,-378 1271.35,-372 1277.35,-372 1277.35,-372 1342.85,-372 1342.85,-372 1348.85,-372 1354.85,-378 1354.85,-384 1354.85,-384 1354.85,-396 1354.85,-396 1354.85,-402 1348.85,-408 1342.85,-408"/>
<text xml:space="preserve" text-anchor="middle" x="1310.1" y="-384.75" font-family="Arial" font-size="15.00">right_panel</text>
</g>
<!-- /lib/panels/right/right_panel.dart&#45;&gt;/lib/panels/right/outline_panel.dart -->
<g id="edge11" class="edge">
<title>/lib/panels/right/right_panel.dart&#45;&gt;/lib/panels/right/outline_panel.dart</title>
<path fill="none" stroke="#aabbaa" stroke-width="1.3" stroke-opacity="0.533333" d="M1320.73,-371.42C1327.08,-360.92 1335.3,-347.34 1342.49,-335.44"/>
<polygon fill="#aabbaa" fill-opacity="0.533333" stroke="#aabbaa" stroke-width="1.3" stroke-opacity="0.533333" points="1345.28,-337.59 1347.47,-327.23 1339.29,-333.97 1345.28,-337.59"/>
</g>
<!-- /lib/panels/right/right_panel.dart&#45;&gt;/lib/panels/right/ai_panel.dart -->
<g id="edge12" class="edge">
<title>/lib/panels/right/right_panel.dart&#45;&gt;/lib/panels/right/ai_panel.dart</title>
<path fill="none" stroke="#aabbaa" stroke-width="1.3" stroke-opacity="0.533333" d="M1297.73,-371.42C1290.26,-360.81 1280.58,-347.06 1272.15,-335.08"/>
<polygon fill="#aabbaa" fill-opacity="0.533333" stroke="#aabbaa" stroke-width="1.3" stroke-opacity="0.533333" points="1275.19,-333.31 1266.57,-327.15 1269.46,-337.34 1275.19,-333.31"/>
</g>
<!-- /lib/panels/right/right_panel.dart&#45;&gt;/lib/models/file_system_item.dart -->
<g id="edge13" class="edge">
<title>/lib/panels/right/right_panel.dart&#45;&gt;/lib/models/file_system_item.dart</title>
<path fill="none" stroke="#aabbaa" stroke-width="1.3" stroke-opacity="0.533333" d="M1264.87,-388.67C1042.91,-386.92 78.59,-378.07 57.1,-356 -20.12,-276.72 -17.75,-188.52 57.1,-107 95.51,-65.16 470.81,-54.52 634.92,-51.87"/>
<polygon fill="#aabbaa" fill-opacity="0.533333" stroke="#aabbaa" stroke-width="1.3" stroke-opacity="0.533333" points="634.93,-55.37 644.87,-51.71 634.82,-48.37 634.93,-55.37"/>
</g>
<!-- /lib/panels/center/large_file_message.dart -->
<g id="node6" class="node">
<title>/lib/panels/center/large_file_message.dart</title>
<path fill="Lavender" stroke="black" stroke-width="1.3" d="M2031.6,-159C2031.6,-159 1910.6,-159 1910.6,-159 1904.6,-159 1898.6,-153 1898.6,-147 1898.6,-147 1898.6,-135 1898.6,-135 1898.6,-129 1904.6,-123 1910.6,-123 1910.6,-123 2031.6,-123 2031.6,-123 2037.6,-123 2043.6,-129 2043.6,-135 2043.6,-135 2043.6,-147 2043.6,-147 2043.6,-153 2037.6,-159 2031.6,-159"/>
<text xml:space="preserve" text-anchor="middle" x="1971.1" y="-135.75" font-family="Arial" font-size="15.00">large_file_message</text>
</g>
<!-- /lib/panels/center/editor_screen.dart&#45;&gt;/lib/providers/app_providers.dart -->
<g id="edge15" class="edge">
<title>/lib/panels/center/editor_screen.dart&#45;&gt;/lib/providers/app_providers.dart</title>
<path fill="none" stroke="#aabbaa" stroke-width="1.3" stroke-opacity="0.533333" d="M2025.38,-205.41C2017.51,-202.42 2009.15,-199.73 2001.1,-198 1956.95,-188.53 1843.17,-192.51 1798.1,-190 1578.39,-177.78 1318.46,-157.4 1197.85,-147.6"/>
<polygon fill="#aabbaa" fill-opacity="0.533333" stroke="#aabbaa" stroke-width="1.3" stroke-opacity="0.533333" points="1198.13,-144.11 1187.88,-146.78 1197.56,-151.08 1198.13,-144.11"/>
</g>
<!-- /lib/panels/center/editor_screen.dart&#45;&gt;/lib/panels/center/large_file_message.dart -->
<g id="edge14" class="edge">
<title>/lib/panels/center/editor_screen.dart&#45;&gt;/lib/panels/center/large_file_message.dart</title>
<path fill="none" stroke="#aabbaa" stroke-width="1.3" stroke-opacity="0.533333" d="M2043.13,-205.42C2030.47,-194.28 2013.89,-179.68 1999.83,-167.3"/>
<polygon fill="#aabbaa" fill-opacity="0.533333" stroke="#aabbaa" stroke-width="1.3" stroke-opacity="0.533333" points="2002.31,-164.82 1992.5,-160.84 1997.69,-170.08 2002.31,-164.82"/>
</g>
<!-- /lib/utils/message_helper.dart -->
<g id="node18" class="node">
<title>/lib/utils/message_helper.dart</title>
<path fill="Lavender" stroke="black" stroke-width="1.3" d="M1556.22,-68C1556.22,-68 1453.97,-68 1453.97,-68 1447.97,-68 1441.97,-62 1441.97,-56 1441.97,-56 1441.97,-44 1441.97,-44 1441.97,-38 1447.97,-32 1453.97,-32 1453.97,-32 1556.22,-32 1556.22,-32 1562.22,-32 1568.22,-38 1568.22,-44 1568.22,-44 1568.22,-56 1568.22,-56 1568.22,-62 1562.22,-68 1556.22,-68"/>
<text xml:space="preserve" text-anchor="middle" x="1505.1" y="-44.75" font-family="Arial" font-size="15.00">message_helper</text>
</g>
<!-- /lib/panels/center/editor_screen.dart&#45;&gt;/lib/utils/message_helper.dart -->
<g id="edge16" class="edge">
<title>/lib/panels/center/editor_screen.dart&#45;&gt;/lib/utils/message_helper.dart</title>
<path fill="none" stroke="#aabbaa" stroke-width="1.3" stroke-opacity="0.533333" d="M2067.91,-205.39C2073.77,-179.61 2079.85,-131.96 2053.1,-107 2043.43,-97.98 1589.72,-102.94 1577.1,-99 1561.59,-94.16 1546.34,-84.85 1533.9,-75.71"/>
<polygon fill="#aabbaa" fill-opacity="0.533333" stroke="#aabbaa" stroke-width="1.3" stroke-opacity="0.533333" points="1536.18,-73.05 1526.13,-69.7 1531.9,-78.59 1536.18,-73.05"/>
</g>
<!-- /lib/panels/center/editor_screen.dart&#45;&gt;/lib/utils/file_type_utils.dart -->
<g id="edge17" class="edge">
<title>/lib/panels/center/editor_screen.dart&#45;&gt;/lib/utils/file_type_utils.dart</title>
<path fill="none" stroke="#aabbaa" stroke-width="1.3" stroke-opacity="0.533333" d="M2024.67,-205.36C2017,-202.46 2008.9,-199.81 2001.1,-198 1952.91,-186.84 1935.86,-208.76 1890.1,-190 1830.59,-165.61 1777.1,-110.74 1748.65,-77.7"/>
<polygon fill="#aabbaa" fill-opacity="0.533333" stroke="#aabbaa" stroke-width="1.3" stroke-opacity="0.533333" points="1751.37,-75.5 1742.24,-70.11 1746.02,-80.01 1751.37,-75.5"/>
</g>
<!-- /lib/panels/center/editor_screen.dart&#45;&gt;/lib/models/document_state.dart -->
<g id="edge18" class="edge">
<title>/lib/panels/center/editor_screen.dart&#45;&gt;/lib/models/document_state.dart</title>
<path fill="none" stroke="#aabbaa" stroke-width="1.3" stroke-opacity="0.533333" d="M2026.09,-205.46C2018.02,-202.38 2009.41,-199.64 2001.1,-198 1941.09,-186.13 958.52,-208.13 900.1,-190 884.73,-185.23 869.69,-175.93 857.42,-166.78"/>
<polygon fill="#aabbaa" fill-opacity="0.533333" stroke="#aabbaa" stroke-width="1.3" stroke-opacity="0.533333" points="859.81,-164.2 849.78,-160.77 855.48,-169.7 859.81,-164.2"/>
</g>
<!-- /lib/panels/center/terminal_panel.dart -->
<g id="node8" class="node">
<title>/lib/panels/center/terminal_panel.dart</title>
<path fill="Lavender" stroke="black" stroke-width="1.3" d="M1979.85,-242C1979.85,-242 1890.35,-242 1890.35,-242 1884.35,-242 1878.35,-236 1878.35,-230 1878.35,-230 1878.35,-218 1878.35,-218 1878.35,-212 1884.35,-206 1890.35,-206 1890.35,-206 1979.85,-206 1979.85,-206 1985.85,-206 1991.85,-212 1991.85,-218 1991.85,-218 1991.85,-230 1991.85,-230 1991.85,-236 1985.85,-242 1979.85,-242"/>
<text xml:space="preserve" text-anchor="middle" x="1935.1" y="-218.75" font-family="Arial" font-size="15.00">terminal_panel</text>
</g>
<!-- /lib/panels/center/terminal_panel.dart&#45;&gt;/lib/providers/app_providers.dart -->
<g id="edge19" class="edge">
<title>/lib/panels/center/terminal_panel.dart&#45;&gt;/lib/providers/app_providers.dart</title>
<path fill="none" stroke="#aabbaa" stroke-width="1.3" stroke-opacity="0.533333" d="M1892.19,-205.43C1883.67,-202.52 1874.69,-199.85 1866.1,-198 1833.71,-191.04 1373.5,-158.79 1197.69,-146.64"/>
<polygon fill="#aabbaa" fill-opacity="0.533333" stroke="#aabbaa" stroke-width="1.3" stroke-opacity="0.533333" points="1197.96,-143.15 1187.75,-145.96 1197.48,-150.14 1197.96,-143.15"/>
</g>
<!-- /lib/panels/center/center_panel.dart -->
<g id="node9" class="node">
<title>/lib/panels/center/center_panel.dart</title>
<path fill="Lavender" stroke="black" stroke-width="1.3" d="M2038.22,-325C2038.22,-325 1959.97,-325 1959.97,-325 1953.97,-325 1947.97,-319 1947.97,-313 1947.97,-313 1947.97,-301 1947.97,-301 1947.97,-295 1953.97,-289 1959.97,-289 1959.97,-289 2038.22,-289 2038.22,-289 2044.22,-289 2050.22,-295 2050.22,-301 2050.22,-301 2050.22,-313 2050.22,-313 2050.22,-319 2044.22,-325 2038.22,-325"/>
<text xml:space="preserve" text-anchor="middle" x="1999.1" y="-301.75" font-family="Arial" font-size="15.00">center_panel</text>
</g>
<!-- /lib/panels/center/center_panel.dart&#45;&gt;/lib/providers/app_providers.dart -->
<g id="edge21" class="edge">
<title>/lib/panels/center/center_panel.dart&#45;&gt;/lib/providers/app_providers.dart</title>
<path fill="none" stroke="#aabbaa" stroke-width="1.3" stroke-opacity="0.533333" d="M1947.61,-294.15C1923.07,-289.06 1893.22,-283.68 1866.1,-281 1855.88,-279.99 1134.31,-280.3 1127.1,-273 1100.83,-246.44 1109.49,-200.06 1119.08,-170.21"/>
<polygon fill="#aabbaa" fill-opacity="0.533333" stroke="#aabbaa" stroke-width="1.3" stroke-opacity="0.533333" points="1122.26,-171.73 1122.23,-161.14 1115.64,-169.44 1122.26,-171.73"/>
</g>
<!-- /lib/panels/center/center_panel.dart&#45;&gt;/lib/panels/center/editor_screen.dart -->
<g id="edge23" class="edge">
<title>/lib/panels/center/center_panel.dart&#45;&gt;/lib/panels/center/editor_screen.dart</title>
<path fill="none" stroke="#aabbaa" stroke-width="1.3" stroke-opacity="0.533333" d="M2012.98,-288.42C2021.45,-277.7 2032.45,-263.79 2041.98,-251.72"/>
<polygon fill="#aabbaa" fill-opacity="0.533333" stroke="#aabbaa" stroke-width="1.3" stroke-opacity="0.533333" points="2044.56,-254.1 2048.02,-244.09 2039.07,-249.76 2044.56,-254.1"/>
</g>
<!-- /lib/panels/center/center_panel.dart&#45;&gt;/lib/panels/center/terminal_panel.dart -->
<g id="edge24" class="edge">
<title>/lib/panels/center/center_panel.dart&#45;&gt;/lib/panels/center/terminal_panel.dart</title>
<path fill="none" stroke="#aabbaa" stroke-width="1.3" stroke-opacity="0.533333" d="M1985.21,-288.42C1976.74,-277.7 1965.74,-263.79 1956.21,-251.72"/>
<polygon fill="#aabbaa" fill-opacity="0.533333" stroke="#aabbaa" stroke-width="1.3" stroke-opacity="0.533333" points="1959.12,-249.76 1950.18,-244.09 1953.63,-254.1 1959.12,-249.76"/>
</g>
<!-- /lib/panels/center/center_panel.dart&#45;&gt;/lib/models/document_state.dart -->
<g id="edge20" class="edge">
<title>/lib/panels/center/center_panel.dart&#45;&gt;/lib/models/document_state.dart</title>
<path fill="none" stroke="#aabbaa" stroke-width="1.3" stroke-opacity="0.533333" d="M1947.61,-294.13C1923.07,-289.04 1893.22,-283.66 1866.1,-281 1843.45,-278.78 1068.16,-281.6 1047.1,-273 1002.57,-254.81 1012.59,-218.51 969.1,-198 941.17,-184.83 929.04,-200.73 900.1,-190 885.49,-184.59 870.96,-175.57 858.88,-166.81"/>
<polygon fill="#aabbaa" fill-opacity="0.533333" stroke="#aabbaa" stroke-width="1.3" stroke-opacity="0.533333" points="861.01,-164.04 850.93,-160.78 856.78,-169.61 861.01,-164.04"/>
</g>
<!-- /lib/panels/center/center_panel.dart&#45;&gt;/lib/models/file_system_item.dart -->
<g id="edge26" class="edge">
<title>/lib/panels/center/center_panel.dart&#45;&gt;/lib/models/file_system_item.dart</title>
<path fill="none" stroke="#aabbaa" stroke-width="1.3" stroke-opacity="0.533333" d="M1947.61,-294.08C1923.08,-288.97 1893.23,-283.59 1866.1,-281 1854.78,-279.92 237.11,-281.06 229.1,-273 203.07,-246.85 204.56,-134.55 229.1,-107 255.58,-77.26 505.93,-60.9 634.97,-54.38"/>
<polygon fill="#aabbaa" fill-opacity="0.533333" stroke="#aabbaa" stroke-width="1.3" stroke-opacity="0.533333" points="634.91,-57.89 644.72,-53.9 634.56,-50.9 634.91,-57.89"/>
</g>
<!-- /lib/screens/welcome_screen.dart -->
<g id="node27" class="node">
<title>/lib/screens/welcome_screen.dart</title>
<path fill="Lavender" stroke="black" stroke-width="1.3" d="M2263.97,-408C2263.97,-408 2160.22,-408 2160.22,-408 2154.22,-408 2148.22,-402 2148.22,-396 2148.22,-396 2148.22,-384 2148.22,-384 2148.22,-378 2154.22,-372 2160.22,-372 2160.22,-372 2263.97,-372 2263.97,-372 2269.97,-372 2275.97,-378 2275.97,-384 2275.97,-384 2275.97,-396 2275.97,-396 2275.97,-402 2269.97,-408 2263.97,-408"/>
<text xml:space="preserve" text-anchor="middle" x="2212.1" y="-384.75" font-family="Arial" font-size="15.00">welcome_screen</text>
</g>
<!-- /lib/panels/center/center_panel.dart&#45;&gt;/lib/screens/welcome_screen.dart -->
<g id="edge22" class="edge">
<title>/lib/panels/center/center_panel.dart&#45;&gt;/lib/screens/welcome_screen.dart</title>
<path fill="none" stroke="#aabbaa" stroke-width="1.3" stroke-opacity="0.533333" d="M2045.22,-325.54C2077.44,-337.79 2120.67,-354.23 2155.05,-367.31"/>
<polygon fill="#aabbaa" fill-opacity="0.533333" stroke="#aabbaa" stroke-width="1.3" stroke-opacity="0.533333" points="2153.45,-370.44 2164.04,-370.72 2155.94,-363.9 2153.45,-370.44"/>
</g>
<!-- /lib/widgets/resizable_splitter.dart -->
<g id="node35" class="node">
<title>/lib/widgets/resizable_splitter.dart</title>
<path fill="Lavender" stroke="black" stroke-width="1.3" d="M2393.97,-159C2393.97,-159 2290.22,-159 2290.22,-159 2284.22,-159 2278.22,-153 2278.22,-147 2278.22,-147 2278.22,-135 2278.22,-135 2278.22,-129 2284.22,-123 2290.22,-123 2290.22,-123 2393.97,-123 2393.97,-123 2399.97,-123 2405.97,-129 2405.97,-135 2405.97,-135 2405.97,-147 2405.97,-147 2405.97,-153 2399.97,-159 2393.97,-159"/>
<text xml:space="preserve" text-anchor="middle" x="2342.1" y="-135.75" font-family="Arial" font-size="15.00">resizable_splitter</text>
</g>
<!-- /lib/panels/center/center_panel.dart&#45;&gt;/lib/widgets/resizable_splitter.dart -->
<g id="edge25" class="edge">
<title>/lib/panels/center/center_panel.dart&#45;&gt;/lib/widgets/resizable_splitter.dart</title>
<path fill="none" stroke="#aabbaa" stroke-width="1.3" stroke-opacity="0.533333" d="M2050.68,-295.77C2073.9,-290.34 2101.35,-282.75 2125.1,-273 2193.43,-244.95 2206.21,-228.75 2269.1,-190 2281.38,-182.43 2294.62,-173.86 2306.4,-166.07"/>
<polygon fill="#aabbaa" fill-opacity="0.533333" stroke="#aabbaa" stroke-width="1.3" stroke-opacity="0.533333" points="2308.29,-169.02 2314.68,-160.57 2304.41,-163.19 2308.29,-169.02"/>
</g>
<!-- /lib/panels/left/git_panel.dart -->
<g id="node10" class="node">
<title>/lib/panels/left/git_panel.dart</title>
<path fill="Lavender" stroke="black" stroke-width="1.3" d="M1732.1,-242C1732.1,-242 1680.1,-242 1680.1,-242 1674.1,-242 1668.1,-236 1668.1,-230 1668.1,-230 1668.1,-218 1668.1,-218 1668.1,-212 1674.1,-206 1680.1,-206 1680.1,-206 1732.1,-206 1732.1,-206 1738.1,-206 1744.1,-212 1744.1,-218 1744.1,-218 1744.1,-230 1744.1,-230 1744.1,-236 1738.1,-242 1732.1,-242"/>
<text xml:space="preserve" text-anchor="middle" x="1706.1" y="-218.75" font-family="Arial" font-size="15.00">git_panel</text>
</g>
<!-- /lib/models/file_extension_icon.dart -->
<g id="node21" class="node">
<title>/lib/models/file_extension_icon.dart</title>
<path fill="Lavender" stroke="black" stroke-width="1.3" d="M1039.1,-159C1039.1,-159 921.1,-159 921.1,-159 915.1,-159 909.1,-153 909.1,-147 909.1,-147 909.1,-135 909.1,-135 909.1,-129 915.1,-123 921.1,-123 921.1,-123 1039.1,-123 1039.1,-123 1045.1,-123 1051.1,-129 1051.1,-135 1051.1,-135 1051.1,-147 1051.1,-147 1051.1,-153 1045.1,-159 1039.1,-159"/>
<text xml:space="preserve" text-anchor="middle" x="980.1" y="-135.75" font-family="Arial" font-size="15.00">file_extension_icon</text>
</g>
<!-- /lib/panels/left/git_panel.dart&#45;&gt;/lib/models/file_extension_icon.dart -->
<g id="edge27" class="edge">
<title>/lib/panels/left/git_panel.dart&#45;&gt;/lib/models/file_extension_icon.dart</title>
<path fill="none" stroke="#aabbaa" stroke-width="1.3" stroke-opacity="0.533333" d="M1667.65,-213.2C1643.78,-207.6 1612.36,-201.09 1584.1,-198 1526.54,-191.72 1118.9,-205.43 1063.1,-190 1045.24,-185.06 1027.22,-175.34 1012.55,-165.93"/>
<polygon fill="#aabbaa" fill-opacity="0.533333" stroke="#aabbaa" stroke-width="1.3" stroke-opacity="0.533333" points="1014.87,-163.27 1004.61,-160.63 1010.98,-169.09 1014.87,-163.27"/>
</g>
<!-- /lib/services/git_service.dart -->
<g id="node31" class="node">
<title>/lib/services/git_service.dart</title>
<path fill="Lavender" stroke="black" stroke-width="1.3" d="M610.72,-159C610.72,-159 547.47,-159 547.47,-159 541.47,-159 535.47,-153 535.47,-147 535.47,-147 535.47,-135 535.47,-135 535.47,-129 541.47,-123 547.47,-123 547.47,-123 610.72,-123 610.72,-123 616.72,-123 622.72,-129 622.72,-135 622.72,-135 622.72,-147 622.72,-147 622.72,-153 616.72,-159 610.72,-159"/>
<text xml:space="preserve" text-anchor="middle" x="579.1" y="-135.75" font-family="Arial" font-size="15.00">git_service</text>
</g>
<!-- /lib/panels/left/git_panel.dart&#45;&gt;/lib/services/git_service.dart -->
<g id="edge28" class="edge">
<title>/lib/panels/left/git_panel.dart&#45;&gt;/lib/services/git_service.dart</title>
<path fill="none" stroke="#aabbaa" stroke-width="1.3" stroke-opacity="0.533333" d="M1667.66,-213.13C1643.79,-207.5 1612.37,-200.99 1584.1,-198 1557.88,-195.23 659.78,-199.25 635.1,-190 622.56,-185.3 610.92,-176.43 601.53,-167.58"/>
<polygon fill="#aabbaa" fill-opacity="0.533333" stroke="#aabbaa" stroke-width="1.3" stroke-opacity="0.533333" points="604.18,-165.28 594.66,-160.64 599.21,-170.21 604.18,-165.28"/>
</g>
<!-- /lib/widgets/diff_viewer.dart -->
<g id="node36" class="node">
<title>/lib/widgets/diff_viewer.dart</title>
<path fill="Lavender" stroke="black" stroke-width="1.3" d="M2248.35,-159C2248.35,-159 2185.85,-159 2185.85,-159 2179.85,-159 2173.85,-153 2173.85,-147 2173.85,-147 2173.85,-135 2173.85,-135 2173.85,-129 2179.85,-123 2185.85,-123 2185.85,-123 2248.35,-123 2248.35,-123 2254.35,-123 2260.35,-129 2260.35,-135 2260.35,-135 2260.35,-147 2260.35,-147 2260.35,-153 2254.35,-159 2248.35,-159"/>
<text xml:space="preserve" text-anchor="middle" x="2217.1" y="-135.75" font-family="Arial" font-size="15.00">diff_viewer</text>
</g>
<!-- /lib/panels/left/git_panel.dart&#45;&gt;/lib/widgets/diff_viewer.dart -->
<g id="edge29" class="edge">
<title>/lib/panels/left/git_panel.dart&#45;&gt;/lib/widgets/diff_viewer.dart</title>
<path fill="none" stroke="#aabbaa" stroke-width="1.3" stroke-opacity="0.533333" d="M1744.72,-215.58C1777.03,-209.71 1824.38,-201.88 1866.1,-198 1924.09,-192.6 2071.84,-205.12 2128.1,-190 2147.15,-184.88 2166.62,-175 2182.48,-165.54"/>
<polygon fill="#aabbaa" fill-opacity="0.533333" stroke="#aabbaa" stroke-width="1.3" stroke-opacity="0.533333" points="2184.01,-168.71 2190.67,-160.46 2180.32,-162.76 2184.01,-168.71"/>
</g>
<!-- /lib/panels/left/left_panel_controls.dart -->
<g id="node11" class="node">
<title>/lib/panels/left/left_panel_controls.dart</title>
<path fill="Lavender" stroke="black" stroke-width="1.3" d="M1564.72,-408C1564.72,-408 1447.47,-408 1447.47,-408 1441.47,-408 1435.47,-402 1435.47,-396 1435.47,-396 1435.47,-384 1435.47,-384 1435.47,-378 1441.47,-372 1447.47,-372 1447.47,-372 1564.72,-372 1564.72,-372 1570.72,-372 1576.72,-378 1576.72,-384 1576.72,-384 1576.72,-396 1576.72,-396 1576.72,-402 1570.72,-408 1564.72,-408"/>
<text xml:space="preserve" text-anchor="middle" x="1506.1" y="-384.75" font-family="Arial" font-size="15.00">left_panel_controls</text>
</g>
<!-- /lib/panels/left/directory_contents.dart -->
<g id="node12" class="node">
<title>/lib/panels/left/directory_contents.dart</title>
<path fill="Lavender" stroke="black" stroke-width="1.3" d="M1562.6,-325C1562.6,-325 1447.6,-325 1447.6,-325 1441.6,-325 1435.6,-319 1435.6,-313 1435.6,-313 1435.6,-301 1435.6,-301 1435.6,-295 1441.6,-289 1447.6,-289 1447.6,-289 1562.6,-289 1562.6,-289 1568.6,-289 1574.6,-295 1574.6,-301 1574.6,-301 1574.6,-313 1574.6,-313 1574.6,-319 1568.6,-325 1562.6,-325"/>
<text xml:space="preserve" text-anchor="middle" x="1505.1" y="-301.75" font-family="Arial" font-size="15.00">directory_contents</text>
</g>
<!-- /lib/panels/left/directory_contents.dart&#45;&gt;/lib/models/file_system_item.dart -->
<g id="edge32" class="edge">
<title>/lib/panels/left/directory_contents.dart&#45;&gt;/lib/models/file_system_item.dart</title>
<path fill="none" stroke="#aabbaa" stroke-width="1.3" stroke-opacity="0.533333" d="M1455.76,-288.45C1445.12,-285.37 1433.84,-282.64 1423.1,-281 1405.71,-278.35 169.49,-285.47 157.1,-273 131.09,-246.83 132.36,-134.36 157.1,-107 188.54,-72.21 490.62,-57.99 634.98,-53.14"/>
<polygon fill="#aabbaa" fill-opacity="0.533333" stroke="#aabbaa" stroke-width="1.3" stroke-opacity="0.533333" points="634.93,-56.64 644.81,-52.82 634.7,-49.65 634.93,-56.64"/>
</g>
<!-- /lib/panels/left/directory_contents.dart&#45;&gt;/lib/services/git_service.dart -->
<g id="edge31" class="edge">
<title>/lib/panels/left/directory_contents.dart&#45;&gt;/lib/services/git_service.dart</title>
<path fill="none" stroke="#aabbaa" stroke-width="1.3" stroke-opacity="0.533333" d="M1455.32,-288.38C1444.8,-285.35 1433.68,-282.65 1423.1,-281 1357.11,-270.72 887.33,-287.28 822.1,-273 733.27,-253.55 711.98,-238.55 635.1,-190 624.81,-183.51 614.45,-175.22 605.48,-167.37"/>
<polygon fill="#aabbaa" fill-opacity="0.533333" stroke="#aabbaa" stroke-width="1.3" stroke-opacity="0.533333" points="607.93,-164.86 598.16,-160.76 603.23,-170.06 607.93,-164.86"/>
</g>
<!-- /lib/services/file_system_service.dart -->
<g id="node34" class="node">
<title>/lib/services/file_system_service.dart</title>
<path fill="Lavender" stroke="black" stroke-width="1.3" d="M375.35,-242C375.35,-242 252.85,-242 252.85,-242 246.85,-242 240.85,-236 240.85,-230 240.85,-230 240.85,-218 240.85,-218 240.85,-212 246.85,-206 252.85,-206 252.85,-206 375.35,-206 375.35,-206 381.35,-206 387.35,-212 387.35,-218 387.35,-218 387.35,-230 387.35,-230 387.35,-236 381.35,-242 375.35,-242"/>
<text xml:space="preserve" text-anchor="middle" x="314.1" y="-218.75" font-family="Arial" font-size="15.00">file_system_service</text>
</g>
<!-- /lib/panels/left/directory_contents.dart&#45;&gt;/lib/services/file_system_service.dart -->
<g id="edge30" class="edge">
<title>/lib/panels/left/directory_contents.dart&#45;&gt;/lib/services/file_system_service.dart</title>
<path fill="none" stroke="#aabbaa" stroke-width="1.3" stroke-opacity="0.533333" d="M1455.76,-288.46C1445.12,-285.38 1433.84,-282.64 1423.1,-281 1366.75,-272.38 452.09,-287.99 397.1,-273 379.22,-268.13 361.2,-258.42 346.53,-249"/>
<polygon fill="#aabbaa" fill-opacity="0.533333" stroke="#aabbaa" stroke-width="1.3" stroke-opacity="0.533333" points="348.85,-246.34 338.6,-243.68 344.96,-252.15 348.85,-246.34"/>
</g>
<!-- /lib/panels/left/shared_panel_utils.dart -->
<g id="node13" class="node">
<title>/lib/panels/left/shared_panel_utils.dart</title>
<path fill="Lavender" stroke="black" stroke-width="1.3" d="M1563.35,-242C1563.35,-242 1446.85,-242 1446.85,-242 1440.85,-242 1434.85,-236 1434.85,-230 1434.85,-230 1434.85,-218 1434.85,-218 1434.85,-212 1440.85,-206 1446.85,-206 1446.85,-206 1563.35,-206 1563.35,-206 1569.35,-206 1575.35,-212 1575.35,-218 1575.35,-218 1575.35,-230 1575.35,-230 1575.35,-236 1569.35,-242 1563.35,-242"/>
<text xml:space="preserve" text-anchor="middle" x="1505.1" y="-218.75" font-family="Arial" font-size="15.00">shared_panel_utils</text>
</g>
<!-- /lib/panels/left/shared_panel_utils.dart&#45;&gt;/lib/utils/message_helper.dart -->
<g id="edge37" class="edge">
<title>/lib/panels/left/shared_panel_utils.dart&#45;&gt;/lib/utils/message_helper.dart</title>
<path fill="none" stroke="#aabbaa" stroke-width="1.3" stroke-opacity="0.533333" d="M1505.1,-205.56C1505.1,-176.07 1505.1,-116.06 1505.1,-80.11"/>
<polygon fill="#aabbaa" fill-opacity="0.533333" stroke="#aabbaa" stroke-width="1.3" stroke-opacity="0.533333" points="1508.6,-80.45 1505.1,-70.45 1501.6,-80.45 1508.6,-80.45"/>
</g>
<!-- /lib/panels/left/shared_panel_utils.dart&#45;&gt;/lib/models/file_extension_icon.dart -->
<g id="edge35" class="edge">
<title>/lib/panels/left/shared_panel_utils.dart&#45;&gt;/lib/models/file_extension_icon.dart</title>
<path fill="none" stroke="#aabbaa" stroke-width="1.3" stroke-opacity="0.533333" d="M1460.27,-205.44C1450.77,-202.4 1440.71,-199.69 1431.1,-198 1390.81,-190.93 1102.48,-201.03 1063.1,-190 1045.25,-185 1027.23,-175.28 1012.57,-165.88"/>
<polygon fill="#aabbaa" fill-opacity="0.533333" stroke="#aabbaa" stroke-width="1.3" stroke-opacity="0.533333" points="1014.89,-163.22 1004.63,-160.58 1011,-169.04 1014.89,-163.22"/>
</g>
<!-- /lib/panels/left/shared_panel_utils.dart&#45;&gt;/lib/models/project_node.dart -->
<g id="edge33" class="edge">
<title>/lib/panels/left/shared_panel_utils.dart&#45;&gt;/lib/models/project_node.dart</title>
<path fill="none" stroke="#aabbaa" stroke-width="1.3" stroke-opacity="0.533333" d="M1460.28,-205.36C1450.78,-202.34 1440.72,-199.64 1431.1,-198 1394.24,-191.72 793.31,-202.59 758.1,-190 744.82,-185.26 732.29,-176.25 722.14,-167.31"/>
<polygon fill="#aabbaa" fill-opacity="0.533333" stroke="#aabbaa" stroke-width="1.3" stroke-opacity="0.533333" points="724.66,-164.88 714.97,-160.59 719.87,-169.98 724.66,-164.88"/>
</g>
<!-- /lib/panels/left/shared_panel_utils.dart&#45;&gt;/lib/models/file_system_item.dart -->
<g id="edge34" class="edge">
<title>/lib/panels/left/shared_panel_utils.dart&#45;&gt;/lib/models/file_system_item.dart</title>
<path fill="none" stroke="#aabbaa" stroke-width="1.3" stroke-opacity="0.533333" d="M1467.63,-205.44C1410.58,-179.51 1297.89,-131.4 1197.1,-107 1054.65,-72.53 883.43,-59.08 786.94,-53.98"/>
<polygon fill="#aabbaa" fill-opacity="0.533333" stroke="#aabbaa" stroke-width="1.3" stroke-opacity="0.533333" points="787.4,-50.5 777.23,-53.49 787.04,-57.49 787.4,-50.5"/>
</g>
<!-- /lib/panels/left/shared_panel_utils.dart&#45;&gt;/lib/services/git_service.dart -->
<g id="edge36" class="edge">
<title>/lib/panels/left/shared_panel_utils.dart&#45;&gt;/lib/services/git_service.dart</title>
<path fill="none" stroke="#aabbaa" stroke-width="1.3" stroke-opacity="0.533333" d="M1460.68,-205.48C1451.07,-202.4 1440.86,-199.65 1431.1,-198 1387.49,-190.61 676.5,-205.55 635.1,-190 622.56,-185.29 610.92,-176.42 601.54,-167.57"/>
<polygon fill="#aabbaa" fill-opacity="0.533333" stroke="#aabbaa" stroke-width="1.3" stroke-opacity="0.533333" points="604.19,-165.27 594.66,-160.63 599.21,-170.2 604.19,-165.27"/>
</g>
<!-- /lib/panels/left/folder_panel.dart -->
<g id="node14" class="node">
<title>/lib/panels/left/folder_panel.dart</title>
<path fill="Lavender" stroke="black" stroke-width="1.3" d="M1677.97,-325C1677.97,-325 1604.22,-325 1604.22,-325 1598.22,-325 1592.22,-319 1592.22,-313 1592.22,-313 1592.22,-301 1592.22,-301 1592.22,-295 1598.22,-289 1604.22,-289 1604.22,-289 1677.97,-289 1677.97,-289 1683.97,-289 1689.97,-295 1689.97,-301 1689.97,-301 1689.97,-313 1689.97,-313 1689.97,-319 1683.97,-325 1677.97,-325"/>
<text xml:space="preserve" text-anchor="middle" x="1641.1" y="-301.75" font-family="Arial" font-size="15.00">folder_panel</text>
</g>
<!-- /lib/panels/left/folder_panel.dart&#45;&gt;/lib/providers/app_providers.dart -->
<g id="edge44" class="edge">
<title>/lib/panels/left/folder_panel.dart&#45;&gt;/lib/providers/app_providers.dart</title>
<path fill="none" stroke="#aabbaa" stroke-width="1.3" stroke-opacity="0.533333" d="M1606.87,-288.39C1599.53,-285.36 1591.7,-282.66 1584.1,-281 1570.61,-278.06 1096.78,-282.84 1087.1,-273 1063.72,-249.24 1076.38,-229.56 1087.1,-198 1090.74,-187.26 1097.37,-176.97 1104.35,-168.2"/>
<polygon fill="#aabbaa" fill-opacity="0.533333" stroke="#aabbaa" stroke-width="1.3" stroke-opacity="0.533333" points="1106.81,-170.71 1110.65,-160.84 1101.49,-166.16 1106.81,-170.71"/>
</g>
<!-- /lib/panels/left/folder_panel.dart&#45;&gt;/lib/panels/left/git_panel.dart -->
<g id="edge43" class="edge">
<title>/lib/panels/left/folder_panel.dart&#45;&gt;/lib/panels/left/git_panel.dart</title>
<path fill="none" stroke="#aabbaa" stroke-width="1.3" stroke-opacity="0.533333" d="M1655.2,-288.42C1663.8,-277.7 1674.97,-263.79 1684.65,-251.72"/>
<polygon fill="#aabbaa" fill-opacity="0.533333" stroke="#aabbaa" stroke-width="1.3" stroke-opacity="0.533333" points="1687.26,-254.07 1690.79,-244.08 1681.8,-249.68 1687.26,-254.07"/>
</g>
<!-- /lib/panels/left/folder_panel.dart&#45;&gt;/lib/panels/left/shared_panel_utils.dart -->
<g id="edge42" class="edge">
<title>/lib/panels/left/folder_panel.dart&#45;&gt;/lib/panels/left/shared_panel_utils.dart</title>
<path fill="none" stroke="#aabbaa" stroke-width="1.3" stroke-opacity="0.533333" d="M1611.59,-288.42C1591.98,-276.75 1566.01,-261.28 1544.63,-248.55"/>
<polygon fill="#aabbaa" fill-opacity="0.533333" stroke="#aabbaa" stroke-width="1.3" stroke-opacity="0.533333" points="1546.62,-245.66 1536.24,-243.55 1543.04,-251.67 1546.62,-245.66"/>
</g>
<!-- /lib/panels/left/folder_panel.dart&#45;&gt;/lib/utils/message_helper.dart -->
<g id="edge41" class="edge">
<title>/lib/panels/left/folder_panel.dart&#45;&gt;/lib/utils/message_helper.dart</title>
<path fill="none" stroke="#aabbaa" stroke-width="1.3" stroke-opacity="0.533333" d="M1606.51,-288.47C1599.27,-285.47 1591.56,-282.76 1584.1,-281 1566.99,-276.96 1438.21,-285.74 1426.1,-273 1372.83,-216.97 1441.26,-122.68 1480.74,-77.16"/>
<polygon fill="#aabbaa" fill-opacity="0.533333" stroke="#aabbaa" stroke-width="1.3" stroke-opacity="0.533333" points="1483.12,-79.75 1487.13,-69.94 1477.88,-75.11 1483.12,-79.75"/>
</g>
<!-- /lib/panels/left/folder_panel.dart&#45;&gt;/lib/models/project_node.dart -->
<g id="edge38" class="edge">
<title>/lib/panels/left/folder_panel.dart&#45;&gt;/lib/models/project_node.dart</title>
<path fill="none" stroke="#aabbaa" stroke-width="1.3" stroke-opacity="0.533333" d="M1606.87,-288.37C1599.53,-285.34 1591.7,-282.65 1584.1,-281 1518.28,-266.75 1043.44,-289.26 978.1,-273 907.3,-255.39 901.98,-218.94 832.1,-198 800.41,-188.51 788.68,-202.61 758.1,-190 745.35,-184.74 733.11,-175.91 723.06,-167.24"/>
<polygon fill="#aabbaa" fill-opacity="0.533333" stroke="#aabbaa" stroke-width="1.3" stroke-opacity="0.533333" points="725.69,-164.9 715.93,-160.76 720.97,-170.07 725.69,-164.9"/>
</g>
<!-- /lib/panels/left/folder_panel.dart&#45;&gt;/lib/models/file_system_item.dart -->
<g id="edge39" class="edge">
<title>/lib/panels/left/folder_panel.dart&#45;&gt;/lib/models/file_system_item.dart</title>
<path fill="none" stroke="#aabbaa" stroke-width="1.3" stroke-opacity="0.533333" d="M1607.19,-288.45C1599.76,-285.38 1591.81,-282.64 1584.1,-281 1564.98,-276.94 190.87,-286.86 177.1,-273 151.09,-246.84 152.41,-134.41 177.1,-107 207.16,-73.62 494.7,-58.76 634.93,-53.45"/>
<polygon fill="#aabbaa" fill-opacity="0.533333" stroke="#aabbaa" stroke-width="1.3" stroke-opacity="0.533333" points="634.98,-56.95 644.84,-53.09 634.72,-49.96 634.98,-56.95"/>
</g>
<!-- /lib/panels/left/folder_panel.dart&#45;&gt;/lib/services/git_service.dart -->
<g id="edge40" class="edge">
<title>/lib/panels/left/folder_panel.dart&#45;&gt;/lib/services/git_service.dart</title>
<path fill="none" stroke="#aabbaa" stroke-width="1.3" stroke-opacity="0.533333" d="M1606.87,-288.36C1599.54,-285.33 1591.7,-282.64 1584.1,-281 1543.25,-272.21 871.38,-287.22 832.1,-273 782.49,-255.04 789.09,-217.57 740.1,-198 696.63,-180.64 678.34,-207.89 635.1,-190 622.9,-184.95 611.45,-176.19 602.12,-167.52"/>
<polygon fill="#aabbaa" fill-opacity="0.533333" stroke="#aabbaa" stroke-width="1.3" stroke-opacity="0.533333" points="604.84,-165.29 595.27,-160.75 599.92,-170.27 604.84,-165.29"/>
</g>
<!-- /lib/panels/left/file_explorer.dart -->
<g id="node15" class="node">
<title>/lib/panels/left/file_explorer.dart</title>
<path fill="Lavender" stroke="black" stroke-width="1.3" d="M1679.6,-408C1679.6,-408 1606.6,-408 1606.6,-408 1600.6,-408 1594.6,-402 1594.6,-396 1594.6,-396 1594.6,-384 1594.6,-384 1594.6,-378 1600.6,-372 1606.6,-372 1606.6,-372 1679.6,-372 1679.6,-372 1685.6,-372 1691.6,-378 1691.6,-384 1691.6,-384 1691.6,-396 1691.6,-396 1691.6,-402 1685.6,-408 1679.6,-408"/>
<text xml:space="preserve" text-anchor="middle" x="1643.1" y="-384.75" font-family="Arial" font-size="15.00">file_explorer</text>
</g>
<!-- /lib/panels/left/file_explorer.dart&#45;&gt;/lib/panels/left/directory_contents.dart -->
<g id="edge48" class="edge">
<title>/lib/panels/left/file_explorer.dart&#45;&gt;/lib/panels/left/directory_contents.dart</title>
<path fill="none" stroke="#aabbaa" stroke-width="1.3" stroke-opacity="0.533333" d="M1610.55,-371.48C1601.6,-366.56 1591.93,-361.14 1583.1,-356 1569.76,-348.24 1555.32,-339.46 1542.54,-331.55"/>
<polygon fill="#aabbaa" fill-opacity="0.533333" stroke="#aabbaa" stroke-width="1.3" stroke-opacity="0.533333" points="1544.71,-328.78 1534.37,-326.48 1541.01,-334.73 1544.71,-328.78"/>
</g>
<!-- /lib/panels/left/file_explorer.dart&#45;&gt;/lib/models/file_system_item.dart -->
<g id="edge47" class="edge">
<title>/lib/panels/left/file_explorer.dart&#45;&gt;/lib/models/file_system_item.dart</title>
<path fill="none" stroke="#aabbaa" stroke-width="1.3" stroke-opacity="0.533333" d="M1609.18,-371.46C1601.76,-368.38 1593.81,-365.64 1586.1,-364 1512.68,-348.38 307.91,-374.19 235.1,-356 158.14,-336.77 118.12,-340.89 77.1,-273 38.94,-209.86 27.27,-161.42 77.1,-107 114.13,-66.55 475.03,-55.16 635.19,-52.08"/>
<polygon fill="#aabbaa" fill-opacity="0.533333" stroke="#aabbaa" stroke-width="1.3" stroke-opacity="0.533333" points="634.93,-55.59 644.86,-51.9 634.8,-48.59 634.93,-55.59"/>
</g>
<!-- /lib/panels/left/file_explorer.dart&#45;&gt;/lib/services/git_service.dart -->
<g id="edge46" class="edge">
<title>/lib/panels/left/file_explorer.dart&#45;&gt;/lib/services/git_service.dart</title>
<path fill="none" stroke="#aabbaa" stroke-width="1.3" stroke-opacity="0.533333" d="M1609.18,-371.46C1601.76,-368.39 1593.81,-365.65 1586.1,-364 1523.45,-350.64 495.89,-368.68 433.1,-356 338.36,-336.87 285.84,-353.33 232.1,-273 213.56,-245.29 208.85,-221.89 232.1,-198 243.49,-186.29 510.93,-196.08 526.1,-190 537.85,-185.28 548.65,-176.71 557.39,-168.09"/>
<polygon fill="#aabbaa" fill-opacity="0.533333" stroke="#aabbaa" stroke-width="1.3" stroke-opacity="0.533333" points="559.73,-170.71 564.05,-161.04 554.64,-165.9 559.73,-170.71"/>
</g>
<!-- /lib/panels/left/file_explorer.dart&#45;&gt;/lib/services/file_system_service.dart -->
<g id="edge45" class="edge">
<title>/lib/panels/left/file_explorer.dart&#45;&gt;/lib/services/file_system_service.dart</title>
<path fill="none" stroke="#aabbaa" stroke-width="1.3" stroke-opacity="0.533333" d="M1608.86,-371.42C1601.53,-368.39 1593.69,-365.68 1586.1,-364 1544.75,-354.88 1247.36,-358.61 1205.1,-356 844.78,-333.75 740.52,-384.27 397.1,-273 380.02,-267.47 362.6,-258.08 348.16,-249.07"/>
<polygon fill="#aabbaa" fill-opacity="0.533333" stroke="#aabbaa" stroke-width="1.3" stroke-opacity="0.533333" points="350.17,-246.2 339.87,-243.7 346.37,-252.07 350.17,-246.2"/>
</g>
<!-- /lib/panels/left/left_panel.dart -->
<g id="node16" class="node">
<title>/lib/panels/left/left_panel.dart</title>
<path fill="Lavender" stroke="black" stroke-width="1.3" d="M1799.35,-408C1799.35,-408 1742.85,-408 1742.85,-408 1736.85,-408 1730.85,-402 1730.85,-396 1730.85,-396 1730.85,-384 1730.85,-384 1730.85,-378 1736.85,-372 1742.85,-372 1742.85,-372 1799.35,-372 1799.35,-372 1805.35,-372 1811.35,-378 1811.35,-384 1811.35,-384 1811.35,-396 1811.35,-396 1811.35,-402 1805.35,-408 1799.35,-408"/>
<text xml:space="preserve" text-anchor="middle" x="1771.1" y="-384.75" font-family="Arial" font-size="15.00">left_panel</text>
</g>
<!-- /lib/panels/left/left_panel.dart&#45;&gt;/lib/panels/left/git_panel.dart -->
<g id="edge51" class="edge">
<title>/lib/panels/left/left_panel.dart&#45;&gt;/lib/panels/left/git_panel.dart</title>
<path fill="none" stroke="#aabbaa" stroke-width="1.3" stroke-opacity="0.533333" d="M1811.96,-379.46C1824.06,-374.53 1835.97,-367.11 1843.1,-356 1861.1,-327.95 1861.68,-308.67 1843.1,-281 1823.72,-252.15 1786.59,-238.16 1755.87,-231.37"/>
<polygon fill="#aabbaa" fill-opacity="0.533333" stroke="#aabbaa" stroke-width="1.3" stroke-opacity="0.533333" points="1756.88,-228 1746.39,-229.49 1755.51,-234.87 1756.88,-228"/>
</g>
<!-- /lib/panels/left/left_panel.dart&#45;&gt;/lib/panels/left/folder_panel.dart -->
<g id="edge49" class="edge">
<title>/lib/panels/left/left_panel.dart&#45;&gt;/lib/panels/left/folder_panel.dart</title>
<path fill="none" stroke="#aabbaa" stroke-width="1.3" stroke-opacity="0.533333" d="M1730.51,-372.64C1719.99,-367.8 1708.88,-362.14 1699.1,-356 1688.55,-349.38 1677.82,-341.04 1668.51,-333.18"/>
<polygon fill="#aabbaa" fill-opacity="0.533333" stroke="#aabbaa" stroke-width="1.3" stroke-opacity="0.533333" points="1671.06,-330.76 1661.21,-326.85 1666.47,-336.05 1671.06,-330.76"/>
</g>
<!-- /lib/panels/left/organized_panel.dart -->
<g id="node17" class="node">
<title>/lib/panels/left/organized_panel.dart</title>
<path fill="Lavender" stroke="black" stroke-width="1.3" d="M1821.85,-325C1821.85,-325 1720.35,-325 1720.35,-325 1714.35,-325 1708.35,-319 1708.35,-313 1708.35,-313 1708.35,-301 1708.35,-301 1708.35,-295 1714.35,-289 1720.35,-289 1720.35,-289 1821.85,-289 1821.85,-289 1827.85,-289 1833.85,-295 1833.85,-301 1833.85,-301 1833.85,-313 1833.85,-313 1833.85,-319 1827.85,-325 1821.85,-325"/>
<text xml:space="preserve" text-anchor="middle" x="1771.1" y="-301.75" font-family="Arial" font-size="15.00">organized_panel</text>
</g>
<!-- /lib/panels/left/left_panel.dart&#45;&gt;/lib/panels/left/organized_panel.dart -->
<g id="edge50" class="edge">
<title>/lib/panels/left/left_panel.dart&#45;&gt;/lib/panels/left/organized_panel.dart</title>
<path fill="none" stroke="#aabbaa" stroke-width="1.3" stroke-opacity="0.533333" d="M1771.1,-371.42C1771.1,-361.45 1771.1,-348.7 1771.1,-337.26"/>
<polygon fill="#aabbaa" fill-opacity="0.533333" stroke="#aabbaa" stroke-width="1.3" stroke-opacity="0.533333" points="1774.6,-337.51 1771.1,-327.51 1767.6,-337.51 1774.6,-337.51"/>
</g>
<!-- /lib/panels/left/left_panel.dart&#45;&gt;/lib/models/file_system_item.dart -->
<g id="edge52" class="edge">
<title>/lib/panels/left/left_panel.dart&#45;&gt;/lib/models/file_system_item.dart</title>
<path fill="none" stroke="#aabbaa" stroke-width="1.3" stroke-opacity="0.533333" d="M1730.25,-371.9C1720.83,-368.67 1710.75,-365.75 1701.1,-364 1646.86,-354.16 1260.16,-358.5 1205.1,-356 1197.37,-355.65 99.36,-278.67 94.1,-273 69,-245.96 69.22,-134.24 94.1,-107 129.91,-67.79 477.63,-55.75 634.73,-52.29"/>
<polygon fill="#aabbaa" fill-opacity="0.533333" stroke="#aabbaa" stroke-width="1.3" stroke-opacity="0.533333" points="634.72,-55.8 644.64,-52.08 634.57,-48.8 634.72,-55.8"/>
</g>
<!-- /lib/panels/left/organized_panel.dart&#45;&gt;/lib/providers/app_providers.dart -->
<g id="edge58" class="edge">
<title>/lib/panels/left/organized_panel.dart&#45;&gt;/lib/providers/app_providers.dart</title>
<path fill="none" stroke="#aabbaa" stroke-width="1.3" stroke-opacity="0.533333" d="M1727.52,-288.37C1718.28,-285.35 1708.48,-282.65 1699.1,-281 1682.9,-278.16 1118.65,-284.71 1107.1,-273 1080.38,-245.92 1097.58,-199.43 1113.23,-169.74"/>
<polygon fill="#aabbaa" fill-opacity="0.533333" stroke="#aabbaa" stroke-width="1.3" stroke-opacity="0.533333" points="1116.1,-171.79 1117.89,-161.34 1109.98,-168.39 1116.1,-171.79"/>
</g>
<!-- /lib/panels/left/organized_panel.dart&#45;&gt;/lib/panels/left/git_panel.dart -->
<g id="edge57" class="edge">
<title>/lib/panels/left/organized_panel.dart&#45;&gt;/lib/panels/left/git_panel.dart</title>
<path fill="none" stroke="#aabbaa" stroke-width="1.3" stroke-opacity="0.533333" d="M1756.99,-288.42C1748.39,-277.7 1737.22,-263.79 1727.54,-251.72"/>
<polygon fill="#aabbaa" fill-opacity="0.533333" stroke="#aabbaa" stroke-width="1.3" stroke-opacity="0.533333" points="1730.39,-249.68 1721.4,-244.08 1724.93,-254.07 1730.39,-249.68"/>
</g>
<!-- /lib/panels/left/organized_panel.dart&#45;&gt;/lib/panels/left/shared_panel_utils.dart -->
<g id="edge56" class="edge">
<title>/lib/panels/left/organized_panel.dart&#45;&gt;/lib/panels/left/shared_panel_utils.dart</title>
<path fill="none" stroke="#aabbaa" stroke-width="1.3" stroke-opacity="0.533333" d="M1723.36,-288.4C1715.32,-285.73 1707.01,-283.15 1699.1,-281 1681.6,-276.24 1676.66,-277.48 1659.1,-273 1628.81,-265.27 1595.65,-255.16 1567.89,-246.21"/>
<polygon fill="#aabbaa" fill-opacity="0.533333" stroke="#aabbaa" stroke-width="1.3" stroke-opacity="0.533333" points="1569.21,-242.96 1558.62,-243.19 1567.04,-249.61 1569.21,-242.96"/>
</g>
<!-- /lib/panels/left/organized_panel.dart&#45;&gt;/lib/utils/message_helper.dart -->
<g id="edge55" class="edge">
<title>/lib/panels/left/organized_panel.dart&#45;&gt;/lib/utils/message_helper.dart</title>
<path fill="none" stroke="#aabbaa" stroke-width="1.3" stroke-opacity="0.533333" d="M1727.11,-288.36C1717.99,-285.38 1708.34,-282.7 1699.1,-281 1684.17,-278.26 1436.67,-283.89 1426.1,-273 1372.24,-217.54 1440.95,-122.98 1480.61,-77.28"/>
<polygon fill="#aabbaa" fill-opacity="0.533333" stroke="#aabbaa" stroke-width="1.3" stroke-opacity="0.533333" points="1483.03,-79.83 1487.04,-70.03 1477.79,-75.18 1483.03,-79.83"/>
</g>
<!-- /lib/panels/left/organized_panel.dart&#45;&gt;/lib/models/project_node.dart -->
<g id="edge53" class="edge">
<title>/lib/panels/left/organized_panel.dart&#45;&gt;/lib/models/project_node.dart</title>
<path fill="none" stroke="#aabbaa" stroke-width="1.3" stroke-opacity="0.533333" d="M1727.52,-288.36C1718.28,-285.33 1708.48,-282.64 1699.1,-281 1661.77,-274.48 1053.16,-284.61 1017.1,-273 961.82,-255.2 965,-216.93 910.1,-198 878.12,-186.98 789.71,-202.03 758.1,-190 745.11,-185.06 732.77,-176.2 722.68,-167.42"/>
<polygon fill="#aabbaa" fill-opacity="0.533333" stroke="#aabbaa" stroke-width="1.3" stroke-opacity="0.533333" points="725.28,-165.05 715.56,-160.83 720.53,-170.19 725.28,-165.05"/>
</g>
<!-- /lib/panels/left/organized_panel.dart&#45;&gt;/lib/models/file_system_item.dart -->
<g id="edge54" class="edge">
<title>/lib/panels/left/organized_panel.dart&#45;&gt;/lib/models/file_system_item.dart</title>
<path fill="none" stroke="#aabbaa" stroke-width="1.3" stroke-opacity="0.533333" d="M1727.92,-288.44C1718.56,-285.37 1708.62,-282.63 1699.1,-281 1688.95,-279.26 224.35,-280.3 217.1,-273 165.07,-220.69 167.95,-162.03 217.1,-107 244.41,-76.41 503.47,-60.37 635.1,-54.14"/>
<polygon fill="#aabbaa" fill-opacity="0.533333" stroke="#aabbaa" stroke-width="1.3" stroke-opacity="0.533333" points="635.26,-57.64 645.08,-53.68 634.93,-50.65 635.26,-57.64"/>
</g>
<!-- /lib/widgets/message_widget.dart -->
<g id="node38" class="node">
<title>/lib/widgets/message_widget.dart</title>
<path fill="Lavender" stroke="black" stroke-width="1.3" d="M2627.97,-159C2627.97,-159 2524.22,-159 2524.22,-159 2518.22,-159 2512.22,-153 2512.22,-147 2512.22,-147 2512.22,-135 2512.22,-135 2512.22,-129 2518.22,-123 2524.22,-123 2524.22,-123 2627.97,-123 2627.97,-123 2633.97,-123 2639.97,-129 2639.97,-135 2639.97,-135 2639.97,-147 2639.97,-147 2639.97,-153 2633.97,-159 2627.97,-159"/>
<text xml:space="preserve" text-anchor="middle" x="2576.1" y="-135.75" font-family="Arial" font-size="15.00">message_widget</text>
</g>
<!-- /lib/utils/message_helper.dart&#45;&gt;/lib/widgets/message_widget.dart -->
<g id="edge59" class="edge">
<title>/lib/utils/message_helper.dart&#45;&gt;/lib/widgets/message_widget.dart</title>
<path fill="none" stroke="#aabbaa" stroke-width="1.3" stroke-opacity="0.533333" d="M1524.55,-68.55C1538.19,-79.63 1557.42,-92.95 1577.1,-99 1626.27,-114.12 2452.85,-95.94 2503.1,-107 2513.46,-109.28 2524.13,-113.13 2534,-117.42"/>
<polygon fill="#aabbaa" fill-opacity="0.533333" stroke="#aabbaa" stroke-width="1.3" stroke-opacity="0.533333" points="2532.42,-120.54 2542.96,-121.55 2535.35,-114.18 2532.42,-120.54"/>
</g>
<!-- /lib/utils/file_utils.dart -->
<g id="node19" class="node">
<title>/lib/utils/file_utils.dart</title>
<path fill="Lavender" stroke="black" stroke-width="1.3" d="M1643.72,-68C1643.72,-68 1598.47,-68 1598.47,-68 1592.47,-68 1586.47,-62 1586.47,-56 1586.47,-56 1586.47,-44 1586.47,-44 1586.47,-38 1592.47,-32 1598.47,-32 1598.47,-32 1643.72,-32 1643.72,-32 1649.72,-32 1655.72,-38 1655.72,-44 1655.72,-44 1655.72,-56 1655.72,-56 1655.72,-62 1649.72,-68 1643.72,-68"/>
<text xml:space="preserve" text-anchor="middle" x="1621.1" y="-44.75" font-family="Arial" font-size="15.00">file_utils</text>
</g>
<!-- /lib/models/project_node.dart&#45;&gt;/lib/models/file_system_item.dart -->
<g id="edge60" class="edge">
<title>/lib/models/project_node.dart&#45;&gt;/lib/models/file_system_item.dart</title>
<path fill="none" stroke="#aabbaa" stroke-width="1.3" stroke-opacity="0.533333" d="M700.66,-122.42C702.43,-110.35 704.81,-94.05 706.85,-80.07"/>
<polygon fill="#aabbaa" fill-opacity="0.533333" stroke="#aabbaa" stroke-width="1.3" stroke-opacity="0.533333" points="710.27,-80.89 708.25,-70.49 703.34,-79.88 710.27,-80.89"/>
</g>
<!-- /lib/models/file_system_item.dart&#45;&gt;/lib/utils/file_utils.dart -->
<g id="edge61" class="edge">
<title>/lib/models/file_system_item.dart&#45;&gt;/lib/utils/file_utils.dart</title>
<path fill="none" stroke="#aabbaa" stroke-width="1.3" stroke-opacity="0.533333" d="M775.28,-56.25C902.02,-68.24 1193.41,-94.07 1439.1,-103 1467.74,-104.04 1540.05,-108.95 1568.1,-103 1582.57,-99.93 1594.64,-89.13 1603.59,-78.08"/>
<polygon fill="#aabbaa" fill-opacity="0.533333" stroke="#aabbaa" stroke-width="1.3" stroke-opacity="0.533333" points="1606.37,-80.2 1609.47,-70.07 1600.73,-76.06 1606.37,-80.2"/>
</g>
<!-- /lib/screens/main_layout.dart -->
<g id="node25" class="node">
<title>/lib/screens/main_layout.dart</title>
<path fill="Lavender" stroke="black" stroke-width="1.3" d="M2512.22,-408C2512.22,-408 2439.97,-408 2439.97,-408 2433.97,-408 2427.97,-402 2427.97,-396 2427.97,-396 2427.97,-384 2427.97,-384 2427.97,-378 2433.97,-372 2439.97,-372 2439.97,-372 2512.22,-372 2512.22,-372 2518.22,-372 2524.22,-378 2524.22,-384 2524.22,-384 2524.22,-396 2524.22,-396 2524.22,-402 2518.22,-408 2512.22,-408"/>
<text xml:space="preserve" text-anchor="middle" x="2476.1" y="-384.75" font-family="Arial" font-size="15.00">main_layout</text>
</g>
<!-- /lib/screens/main_layout.dart&#45;&gt;/lib/providers/app_providers.dart -->
<g id="edge63" class="edge">
<title>/lib/screens/main_layout.dart&#45;&gt;/lib/providers/app_providers.dart</title>
<path fill="none" stroke="#aabbaa" stroke-width="1.3" stroke-opacity="0.533333" d="M2441.54,-371.35C2434.3,-368.37 2426.58,-365.69 2419.1,-364 2405.38,-360.9 2177.11,-364.74 2166.1,-356 2139.07,-334.55 2173.34,-302.17 2146.1,-281 2130.24,-268.68 1442.86,-276.57 1423.1,-273 1316.15,-253.68 1288.53,-241.98 1193.1,-190 1181.29,-183.57 1169.31,-175.05 1159.02,-166.98"/>
<polygon fill="#aabbaa" fill-opacity="0.533333" stroke="#aabbaa" stroke-width="1.3" stroke-opacity="0.533333" points="1161.23,-164.26 1151.25,-160.69 1156.83,-169.7 1161.23,-164.26"/>
</g>
<!-- /lib/screens/main_layout.dart&#45;&gt;/lib/panels/right/right_panel.dart -->
<g id="edge71" class="edge">
<title>/lib/screens/main_layout.dart&#45;&gt;/lib/panels/right/right_panel.dart</title>
<path fill="none" stroke="#aabbaa" stroke-width="1.3" stroke-opacity="0.533333" d="M2469.84,-408.27C2460.81,-430.9 2441.66,-467.3 2410.1,-474 2396.81,-476.82 1445.38,-476.82 1432.1,-474 1394.12,-465.94 1358.51,-438.18 1335.68,-416.75"/>
<polygon fill="#aabbaa" fill-opacity="0.533333" stroke="#aabbaa" stroke-width="1.3" stroke-opacity="0.533333" points="1338.32,-414.43 1328.7,-409.98 1333.44,-419.46 1338.32,-414.43"/>
</g>
<!-- /lib/screens/main_layout.dart&#45;&gt;/lib/panels/center/editor_screen.dart -->
<g id="edge62" class="edge">
<title>/lib/screens/main_layout.dart&#45;&gt;/lib/panels/center/editor_screen.dart</title>
<path fill="none" stroke="#aabbaa" stroke-width="1.3" stroke-opacity="0.533333" d="M2441.53,-371.41C2434.28,-368.42 2426.57,-365.73 2419.1,-364 2398.29,-359.18 2246.18,-365.57 2227.1,-356 2188.69,-336.74 2203.17,-302.72 2166.1,-281 2148.19,-270.51 2138.91,-281.76 2120.1,-273 2108.19,-267.45 2096.76,-258.75 2087.3,-250.27"/>
<polygon fill="#aabbaa" fill-opacity="0.533333" stroke="#aabbaa" stroke-width="1.3" stroke-opacity="0.533333" points="2089.99,-248 2080.32,-243.68 2085.18,-253.09 2089.99,-248"/>
</g>
<!-- /lib/screens/main_layout.dart&#45;&gt;/lib/panels/center/center_panel.dart -->
<g id="edge70" class="edge">
<title>/lib/screens/main_layout.dart&#45;&gt;/lib/panels/center/center_panel.dart</title>
<path fill="none" stroke="#aabbaa" stroke-width="1.3" stroke-opacity="0.533333" d="M2441.85,-371.46C2434.52,-368.43 2426.69,-365.7 2419.1,-364 2357.71,-350.22 2197.96,-367.43 2136.1,-356 2106.74,-350.58 2075.21,-339.89 2049.81,-329.98"/>
<polygon fill="#aabbaa" fill-opacity="0.533333" stroke="#aabbaa" stroke-width="1.3" stroke-opacity="0.533333" points="2051.38,-326.84 2040.79,-326.38 2048.78,-333.34 2051.38,-326.84"/>
</g>
<!-- /lib/screens/main_layout.dart&#45;&gt;/lib/panels/left/left_panel.dart -->
<g id="edge69" class="edge">
<title>/lib/screens/main_layout.dart&#45;&gt;/lib/panels/left/left_panel.dart</title>
<path fill="none" stroke="#aabbaa" stroke-width="1.3" stroke-opacity="0.533333" d="M2469.84,-408.27C2460.81,-430.9 2441.66,-467.3 2410.1,-474 2381.29,-480.11 2174.36,-477.25 2145.1,-474 2028.4,-461.06 1894.92,-426.06 1823.21,-405.55"/>
<polygon fill="#aabbaa" fill-opacity="0.533333" stroke="#aabbaa" stroke-width="1.3" stroke-opacity="0.533333" points="1824.29,-402.22 1813.71,-402.81 1822.35,-408.95 1824.29,-402.22"/>
</g>
<!-- /lib/screens/main_layout.dart&#45;&gt;/lib/utils/file_utils.dart -->
<g id="edge67" class="edge">
<title>/lib/screens/main_layout.dart&#45;&gt;/lib/utils/file_utils.dart</title>
<path fill="none" stroke="#aabbaa" stroke-width="1.3" stroke-opacity="0.533333" d="M2500.25,-371.5C2540.86,-340.4 2621.38,-271.09 2652.1,-190 2658.63,-172.75 2665.08,-120.09 2652.1,-107 2642.44,-97.27 1677.62,-104.57 1665.1,-99 1654.89,-94.46 1646.01,-86.27 1638.95,-77.93"/>
<polygon fill="#aabbaa" fill-opacity="0.533333" stroke="#aabbaa" stroke-width="1.3" stroke-opacity="0.533333" points="1641.86,-75.97 1632.98,-70.19 1636.31,-80.25 1641.86,-75.97"/>
</g>
<!-- /lib/screens/main_layout.dart&#45;&gt;/lib/utils/file_type_utils.dart -->
<g id="edge66" class="edge">
<title>/lib/screens/main_layout.dart&#45;&gt;/lib/utils/file_type_utils.dart</title>
<path fill="none" stroke="#aabbaa" stroke-width="1.3" stroke-opacity="0.533333" d="M2522.18,-371.41C2531.32,-368.5 2540.92,-365.84 2550.1,-364 2562.55,-361.5 2655.44,-365.29 2664.1,-356 2739.56,-275.05 2739.98,-187.55 2664.1,-107 2634.22,-75.29 2000.32,-57.48 1792.46,-52.47"/>
<polygon fill="#aabbaa" fill-opacity="0.533333" stroke="#aabbaa" stroke-width="1.3" stroke-opacity="0.533333" points="1792.6,-48.98 1782.52,-52.24 1792.44,-55.98 1792.6,-48.98"/>
</g>
<!-- /lib/screens/main_layout.dart&#45;&gt;/lib/models/document_state.dart -->
<g id="edge65" class="edge">
<title>/lib/screens/main_layout.dart&#45;&gt;/lib/models/document_state.dart</title>
<path fill="none" stroke="#aabbaa" stroke-width="1.3" stroke-opacity="0.533333" d="M2441.85,-371.47C2434.52,-368.43 2426.69,-365.71 2419.1,-364 2404.29,-360.67 2157.87,-365.57 2146.1,-356 2119.49,-334.38 2154.92,-302.34 2128.1,-281 2118.06,-273.02 1217.68,-275.43 1205.1,-273 1115.14,-255.65 1102.47,-218.13 1013.1,-198 963.98,-186.94 947.68,-206.44 900.1,-190 885.11,-184.83 870.31,-175.65 858.12,-166.69"/>
<polygon fill="#aabbaa" fill-opacity="0.533333" stroke="#aabbaa" stroke-width="1.3" stroke-opacity="0.533333" points="860.58,-164.16 850.52,-160.84 856.31,-169.71 860.58,-164.16"/>
</g>
<!-- /lib/screens/main_layout.dart&#45;&gt;/lib/models/file_system_item.dart -->
<g id="edge64" class="edge">
<title>/lib/screens/main_layout.dart&#45;&gt;/lib/models/file_system_item.dart</title>
<path fill="none" stroke="#aabbaa" stroke-width="1.3" stroke-opacity="0.533333" d="M2441.67,-371.41C2432.61,-366.58 2422.9,-361.23 2414.1,-356 2298.77,-287.53 2247.32,-293.56 2162.1,-190 2136.77,-159.22 2161.07,-129.4 2128.1,-107 2120.08,-101.55 1439.78,-99.38 1430.1,-99 1195.53,-89.83 918.54,-68.32 787.34,-57.48"/>
<polygon fill="#aabbaa" fill-opacity="0.533333" stroke="#aabbaa" stroke-width="1.3" stroke-opacity="0.533333" points="787.7,-54 777.44,-56.66 787.12,-60.97 787.7,-54"/>
</g>
<!-- /lib/screens/main_layout.dart&#45;&gt;/lib/widgets/resizable_splitter.dart -->
<g id="edge68" class="edge">
<title>/lib/screens/main_layout.dart&#45;&gt;/lib/widgets/resizable_splitter.dart</title>
<path fill="none" stroke="#aabbaa" stroke-width="1.3" stroke-opacity="0.533333" d="M2466.67,-371.63C2443.75,-329.38 2384.93,-220.95 2357.1,-169.67"/>
<polygon fill="#aabbaa" fill-opacity="0.533333" stroke="#aabbaa" stroke-width="1.3" stroke-opacity="0.533333" points="2360.29,-168.2 2352.45,-161.08 2354.14,-171.54 2360.29,-168.2"/>
</g>
<!-- /lib/screens/loading_screen.dart -->
<g id="node26" class="node">
<title>/lib/screens/loading_screen.dart</title>
<path fill="Lavender" stroke="black" stroke-width="1.3" d="M2398.35,-408C2398.35,-408 2305.85,-408 2305.85,-408 2299.85,-408 2293.85,-402 2293.85,-396 2293.85,-396 2293.85,-384 2293.85,-384 2293.85,-378 2299.85,-372 2305.85,-372 2305.85,-372 2398.35,-372 2398.35,-372 2404.35,-372 2410.35,-378 2410.35,-384 2410.35,-384 2410.35,-396 2410.35,-396 2410.35,-402 2404.35,-408 2398.35,-408"/>
<text xml:space="preserve" text-anchor="middle" x="2352.1" y="-384.75" font-family="Arial" font-size="15.00">loading_screen</text>
</g>
<!-- /lib/main.dart&#45;&gt;/lib/providers/app_providers.dart -->
<g id="edge72" class="edge">
<title>/lib/main.dart&#45;&gt;/lib/providers/app_providers.dart</title>
<path fill="none" stroke="#aabbaa" stroke-width="1.3" stroke-opacity="0.533333" d="M2546.12,-477.36C2547.59,-445.88 2548.86,-381.64 2536.1,-364 2421.32,-205.41 2319.62,-238.52 2128.1,-198 2071.11,-185.94 1924.28,-192.78 1866.1,-190 1619.58,-178.2 1327.08,-156.96 1197.57,-147.18"/>
<polygon fill="#aabbaa" fill-opacity="0.533333" stroke="#aabbaa" stroke-width="1.3" stroke-opacity="0.533333" points="1198.12,-143.72 1187.88,-146.45 1197.59,-150.7 1198.12,-143.72"/>
</g>
<!-- /lib/main.dart&#45;&gt;/lib/panels/center/editor_screen.dart -->
<g id="edge75" class="edge">
<title>/lib/main.dart&#45;&gt;/lib/panels/center/editor_screen.dart</title>
<path fill="none" stroke="#aabbaa" stroke-width="1.3" stroke-opacity="0.533333" d="M2572.67,-493.83C2607.64,-491.7 2664.97,-485.82 2678.1,-470 2708.17,-433.74 2707.81,-400.56 2678.1,-364 2564.11,-223.79 2459.32,-304.03 2280.1,-281 2244.79,-276.46 2153.22,-286.04 2120.1,-273 2107.69,-268.12 2096.03,-259.39 2086.53,-250.7"/>
<polygon fill="#aabbaa" fill-opacity="0.533333" stroke="#aabbaa" stroke-width="1.3" stroke-opacity="0.533333" points="2089.15,-248.36 2079.54,-243.88 2084.26,-253.37 2089.15,-248.36"/>
</g>
<!-- /lib/main.dart&#45;&gt;/lib/screens/main_layout.dart -->
<g id="edge73" class="edge">
<title>/lib/main.dart&#45;&gt;/lib/screens/main_layout.dart</title>
<path fill="none" stroke="#aabbaa" stroke-width="1.3" stroke-opacity="0.533333" d="M2533.17,-477.54C2531.46,-475.01 2529.73,-472.44 2528.1,-470 2516.67,-452.92 2503.99,-433.67 2494.01,-418.44"/>
<polygon fill="#aabbaa" fill-opacity="0.533333" stroke="#aabbaa" stroke-width="1.3" stroke-opacity="0.533333" points="2497.07,-416.72 2488.66,-410.27 2491.21,-420.55 2497.07,-416.72"/>
</g>
<!-- /lib/main.dart&#45;&gt;/lib/screens/loading_screen.dart -->
<g id="edge76" class="edge">
<title>/lib/main.dart&#45;&gt;/lib/screens/loading_screen.dart</title>
<path fill="none" stroke="#aabbaa" stroke-width="1.3" stroke-opacity="0.533333" d="M2517.45,-494.68C2490.6,-493.23 2449.56,-487.92 2419.1,-470 2397.84,-457.5 2380.14,-435.73 2368.28,-418.21"/>
<polygon fill="#aabbaa" fill-opacity="0.533333" stroke="#aabbaa" stroke-width="1.3" stroke-opacity="0.533333" points="2371.42,-416.63 2363.05,-410.13 2365.55,-420.43 2371.42,-416.63"/>
</g>
<!-- /lib/main.dart&#45;&gt;/lib/screens/welcome_screen.dart -->
<g id="edge77" class="edge">
<title>/lib/main.dart&#45;&gt;/lib/screens/welcome_screen.dart</title>
<path fill="none" stroke="#aabbaa" stroke-width="1.3" stroke-opacity="0.533333" d="M2517.74,-494.81C2459.53,-494.01 2325.42,-490 2285.1,-470 2261.77,-458.43 2242.2,-436.04 2229.21,-418.03"/>
<polygon fill="#aabbaa" fill-opacity="0.533333" stroke="#aabbaa" stroke-width="1.3" stroke-opacity="0.533333" points="2232.19,-416.19 2223.64,-409.94 2226.43,-420.16 2232.19,-416.19"/>
</g>
<!-- /lib/theme/app_theme.dart -->
<g id="node29" class="node">
<title>/lib/theme/app_theme.dart</title>
<path fill="Lavender" stroke="black" stroke-width="1.3" d="M2641.6,-408C2641.6,-408 2574.6,-408 2574.6,-408 2568.6,-408 2562.6,-402 2562.6,-396 2562.6,-396 2562.6,-384 2562.6,-384 2562.6,-378 2568.6,-372 2574.6,-372 2574.6,-372 2641.6,-372 2641.6,-372 2647.6,-372 2653.6,-378 2653.6,-384 2653.6,-384 2653.6,-396 2653.6,-396 2653.6,-402 2647.6,-408 2641.6,-408"/>
<text xml:space="preserve" text-anchor="middle" x="2608.1" y="-384.75" font-family="Arial" font-size="15.00">app_theme</text>
</g>
<!-- /lib/main.dart&#45;&gt;/lib/theme/app_theme.dart -->
<g id="edge79" class="edge">
<title>/lib/main.dart&#45;&gt;/lib/theme/app_theme.dart</title>
<path fill="none" stroke="#aabbaa" stroke-width="1.3" stroke-opacity="0.533333" d="M2555.78,-477.36C2565.57,-461.2 2580.21,-437.03 2591.52,-418.36"/>
<polygon fill="#aabbaa" fill-opacity="0.533333" stroke="#aabbaa" stroke-width="1.3" stroke-opacity="0.533333" points="2594.36,-420.43 2596.55,-410.06 2588.37,-416.8 2594.36,-420.43"/>
</g>
<!-- /lib/main.dart&#45;&gt;/lib/services/git_service.dart -->
<g id="edge78" class="edge">
<title>/lib/main.dart&#45;&gt;/lib/services/git_service.dart</title>
<path fill="none" stroke="#aabbaa" stroke-width="1.3" stroke-opacity="0.533333" d="M2572.71,-493.24C2604.71,-490.56 2654.55,-484.18 2666.1,-470 2680.97,-451.74 2682.58,-380.83 2666.1,-364 2651.09,-348.68 2300.93,-361.09 2280.1,-356 2206.91,-338.13 2201.36,-298.53 2128.1,-281 2090,-271.89 1462.18,-275.53 1423.1,-273 1140.83,-254.7 1072.94,-221.92 791.1,-198 756.51,-195.06 667.33,-202.87 635.1,-190 622.84,-185.11 611.38,-176.37 602.05,-167.68"/>
<polygon fill="#aabbaa" fill-opacity="0.533333" stroke="#aabbaa" stroke-width="1.3" stroke-opacity="0.533333" points="604.77,-165.45 595.21,-160.88 599.83,-170.41 604.77,-165.45"/>
</g>
<!-- /lib/widgets/title_bar.dart -->
<g id="node37" class="node">
<title>/lib/widgets/title_bar.dart</title>
<path fill="Lavender" stroke="black" stroke-width="1.3" d="M2481.72,-159C2481.72,-159 2436.47,-159 2436.47,-159 2430.47,-159 2424.47,-153 2424.47,-147 2424.47,-147 2424.47,-135 2424.47,-135 2424.47,-129 2430.47,-123 2436.47,-123 2436.47,-123 2481.72,-123 2481.72,-123 2487.72,-123 2493.72,-129 2493.72,-135 2493.72,-135 2493.72,-147 2493.72,-147 2493.72,-153 2487.72,-159 2481.72,-159"/>
<text xml:space="preserve" text-anchor="middle" x="2459.1" y="-135.75" font-family="Arial" font-size="15.00">title_bar</text>
</g>
<!-- /lib/main.dart&#45;&gt;/lib/widgets/title_bar.dart -->
<g id="edge74" class="edge">
<title>/lib/main.dart&#45;&gt;/lib/widgets/title_bar.dart</title>
<path fill="none" stroke="#aabbaa" stroke-width="1.3" stroke-opacity="0.533333" d="M2572.66,-494.46C2611.38,-493.06 2678.85,-488.02 2694.1,-470 2724.53,-434.04 2713.13,-407.09 2694.1,-364 2647.69,-258.96 2584.42,-271.07 2503.1,-190 2496.12,-183.04 2488.79,-175.25 2482.16,-168.01"/>
<polygon fill="#aabbaa" fill-opacity="0.533333" stroke="#aabbaa" stroke-width="1.3" stroke-opacity="0.533333" points="2484.83,-165.76 2475.53,-160.69 2479.64,-170.45 2484.83,-165.76"/>
</g>
<!-- /lib/services/project_service.dart&#45;&gt;/lib/providers/app_providers.dart -->
<g id="edge84" class="edge">
<title>/lib/services/project_service.dart&#45;&gt;/lib/providers/app_providers.dart</title>
<path fill="none" stroke="#aabbaa" stroke-width="1.3" stroke-opacity="0.533333" d="M623.9,-223.1C736.07,-222.56 975.99,-217.97 1054.1,-190 1068.55,-184.82 1082.66,-175.55 1094.84,-166.53"/>
<polygon fill="#aabbaa" fill-opacity="0.533333" stroke="#aabbaa" stroke-width="1.3" stroke-opacity="0.533333" points="1096.76,-169.46 1102.59,-160.62 1092.52,-163.9 1096.76,-169.46"/>
</g>
<!-- /lib/services/project_service.dart&#45;&gt;/lib/models/project_node.dart -->
<g id="edge80" class="edge">
<title>/lib/services/project_service.dart&#45;&gt;/lib/models/project_node.dart</title>
<path fill="none" stroke="#aabbaa" stroke-width="1.3" stroke-opacity="0.533333" d="M606.2,-205.39C615.88,-200.76 626.02,-195.51 635.1,-190 646.32,-183.18 657.93,-174.78 668.09,-166.91"/>
<polygon fill="#aabbaa" fill-opacity="0.533333" stroke="#aabbaa" stroke-width="1.3" stroke-opacity="0.533333" points="670.1,-169.78 675.77,-160.83 665.76,-164.29 670.1,-169.78"/>
</g>
<!-- /lib/services/project_service.dart&#45;&gt;/lib/models/file_system_item.dart -->
<g id="edge81" class="edge">
<title>/lib/services/project_service.dart&#45;&gt;/lib/models/file_system_item.dart</title>
<path fill="none" stroke="#aabbaa" stroke-width="1.3" stroke-opacity="0.533333" d="M523.22,-205.42C514.71,-202.47 505.72,-199.79 497.1,-198 481.73,-194.81 366.87,-201.41 356.1,-190 330.76,-163.19 332.13,-135.04 356.1,-107 391.19,-65.93 541.23,-54.8 634.66,-51.9"/>
<polygon fill="#aabbaa" fill-opacity="0.533333" stroke="#aabbaa" stroke-width="1.3" stroke-opacity="0.533333" points="634.74,-55.4 644.64,-51.62 634.54,-48.4 634.74,-55.4"/>
</g>
<!-- /lib/services/project_service.dart&#45;&gt;/lib/services/git_service.dart -->
<g id="edge82" class="edge">
<title>/lib/services/project_service.dart&#45;&gt;/lib/services/git_service.dart</title>
<path fill="none" stroke="#aabbaa" stroke-width="1.3" stroke-opacity="0.533333" d="M568.13,-205.42C569.86,-195.45 572.06,-182.7 574.04,-171.26"/>
<polygon fill="#aabbaa" fill-opacity="0.533333" stroke="#aabbaa" stroke-width="1.3" stroke-opacity="0.533333" points="577.47,-171.93 575.73,-161.48 570.58,-170.74 577.47,-171.93"/>
</g>
<!-- /lib/services/file_system_watcher.dart -->
<g id="node32" class="node">
<title>/lib/services/file_system_watcher.dart</title>
<path fill="Lavender" stroke="black" stroke-width="1.3" d="M504.97,-159C504.97,-159 377.22,-159 377.22,-159 371.22,-159 365.22,-153 365.22,-147 365.22,-147 365.22,-135 365.22,-135 365.22,-129 371.22,-123 377.22,-123 377.22,-123 504.97,-123 504.97,-123 510.97,-123 516.97,-129 516.97,-135 516.97,-135 516.97,-147 516.97,-147 516.97,-153 510.97,-159 504.97,-159"/>
<text xml:space="preserve" text-anchor="middle" x="441.1" y="-135.75" font-family="Arial" font-size="15.00">file_system_watcher</text>
</g>
<!-- /lib/services/project_service.dart&#45;&gt;/lib/services/file_system_watcher.dart -->
<g id="edge83" class="edge">
<title>/lib/services/project_service.dart&#45;&gt;/lib/services/file_system_watcher.dart</title>
<path fill="none" stroke="#aabbaa" stroke-width="1.3" stroke-opacity="0.533333" d="M538.19,-205.42C520.56,-193.91 497.28,-178.7 477.94,-166.07"/>
<polygon fill="#aabbaa" fill-opacity="0.533333" stroke="#aabbaa" stroke-width="1.3" stroke-opacity="0.533333" points="479.88,-163.16 469.6,-160.62 476.05,-169.02 479.88,-163.16"/>
</g>
<!-- /lib/services/git_service.dart&#45;&gt;/lib/utils/file_utils.dart -->
<g id="edge85" class="edge">
<title>/lib/services/git_service.dart&#45;&gt;/lib/utils/file_utils.dart</title>
<path fill="none" stroke="#aabbaa" stroke-width="1.3" stroke-opacity="0.533333" d="M602.64,-122.41C612.2,-116.29 623.68,-110.17 635.1,-107 660.31,-100.01 1553.19,-109.64 1577.1,-99 1587.3,-94.46 1596.18,-86.27 1603.24,-77.93"/>
<polygon fill="#aabbaa" fill-opacity="0.533333" stroke="#aabbaa" stroke-width="1.3" stroke-opacity="0.533333" points="1605.88,-80.25 1609.21,-70.19 1600.33,-75.97 1605.88,-80.25"/>
</g>
<!-- /lib/services/file_system_watcher.dart&#45;&gt;/lib/models/project_node.dart -->
<g id="edge86" class="edge">
<title>/lib/services/file_system_watcher.dart&#45;&gt;/lib/models/project_node.dart</title>
<path fill="none" stroke="#aabbaa" stroke-width="1.3" stroke-opacity="0.533333" d="M464.55,-159.61C482.63,-172.55 508.89,-188.44 535.1,-194 554.88,-198.2 606.31,-198.2 626.1,-194 630.38,-193.09 631.34,-192.25 635.1,-190 646.27,-183.31 657.72,-174.93 667.75,-167"/>
<polygon fill="#aabbaa" fill-opacity="0.533333" stroke="#aabbaa" stroke-width="1.3" stroke-opacity="0.533333" points="669.78,-169.86 675.35,-160.85 665.38,-164.42 669.78,-169.86"/>
</g>
<!-- /lib/services/file_system_service.dart&#45;&gt;/lib/models/file_system_item.dart -->
<g id="edge87" class="edge">
<title>/lib/services/file_system_service.dart&#45;&gt;/lib/models/file_system_item.dart</title>
<path fill="none" stroke="#aabbaa" stroke-width="1.3" stroke-opacity="0.533333" d="M311.43,-205.62C308.6,-180.13 307.64,-132.85 334.1,-107 375.61,-66.44 537.27,-55.17 634.91,-52.1"/>
<polygon fill="#aabbaa" fill-opacity="0.533333" stroke="#aabbaa" stroke-width="1.3" stroke-opacity="0.533333" points="634.92,-55.6 644.82,-51.81 634.72,-48.6 634.92,-55.6"/>
</g>
<!-- /lib/widgets/title_bar.dart&#45;&gt;/lib/providers/app_providers.dart -->
<g id="edge88" class="edge">
<title>/lib/widgets/title_bar.dart&#45;&gt;/lib/providers/app_providers.dart</title>
<path fill="none" stroke="#aabbaa" stroke-width="1.3" stroke-opacity="0.533333" d="M2448.63,-159.48C2439.51,-173.14 2424.81,-190.03 2406.1,-194 2377.24,-200.12 1904.58,-195.05 1875.1,-194 1624.71,-185.11 1327.89,-159.45 1197.36,-147.39"/>
<polygon fill="#aabbaa" fill-opacity="0.533333" stroke="#aabbaa" stroke-width="1.3" stroke-opacity="0.533333" points="1197.87,-143.93 1187.59,-146.49 1197.22,-150.9 1197.87,-143.93"/>
</g>
<!-- /tool/sort_source.dart -->
<g id="node39" class="node">
<title>/tool/sort_source.dart</title>
<path fill="Lavender" stroke="black" stroke-width="1.3" d="M2700.47,-597C2700.47,-597 2629.72,-597 2629.72,-597 2623.72,-597 2617.72,-591 2617.72,-585 2617.72,-585 2617.72,-573 2617.72,-573 2617.72,-567 2623.72,-561 2629.72,-561 2629.72,-561 2700.47,-561 2700.47,-561 2706.47,-561 2712.47,-567 2712.47,-573 2712.47,-573 2712.47,-585 2712.47,-585 2712.47,-591 2706.47,-597 2700.47,-597"/>
<text xml:space="preserve" text-anchor="middle" x="2665.1" y="-573.75" font-family="Arial" font-size="15.00">sort_source</text>
</g>
</g>
</svg>
