<?xml version="1.0" encoding="UTF-8" standalone="no"?>
<!DOCTYPE svg PUBLIC "-//W3C//DTD SVG 1.1//EN"
 "http://www.w3.org/Graphics/SVG/1.1/DTD/svg11.dtd">
<!-- Generated by graphviz version 13.1.1 (20250719.2154)
 -->
<!-- Pages: 1 -->
<svg width="1351pt" height="545pt"
 viewBox="0.00 0.00 1351.00 545.00" xmlns="http://www.w3.org/2000/svg" xmlns:xlink="http://www.w3.org/1999/xlink">
<g id="graph0" class="graph" transform="scale(1 1) rotate(0) translate(4 541)">
<polygon fill="white" stroke="none" points="-4,4 -4,-541 1347,-541 1347,4 -4,4"/>
<g id="clust1" class="cluster">
<title>cluster~</title>
<path fill="none" stroke="lightgray" stroke-width="2.6" d="M20,-8C20,-8 1323,-8 1323,-8 1329,-8 1335,-14 1335,-20 1335,-20 1335,-517 1335,-517 1335,-523 1329,-529 1323,-529 1323,-529 20,-529 20,-529 14,-529 8,-523 8,-517 8,-517 8,-20 8,-20 8,-14 14,-8 20,-8"/>
<text xml:space="preserve" text-anchor="middle" x="671.5" y="-512.65" font-family="Arial Black" font-size="13.00">fide</text>
</g>
<g id="clust2" class="cluster">
<title>cluster~/test</title>
<path fill="none" stroke="lightgray" stroke-width="2.6" d="M467,-423C467,-423 551,-423 551,-423 557,-423 563,-429 563,-435 563,-435 563,-486 563,-486 563,-492 557,-498 551,-498 551,-498 467,-498 467,-498 461,-498 455,-492 455,-486 455,-486 455,-435 455,-435 455,-429 461,-423 467,-423"/>
<text xml:space="preserve" text-anchor="middle" x="509" y="-481.65" font-family="Arial Black" font-size="13.00">test</text>
</g>
<g id="clust3" class="cluster">
<title>cluster~/lib</title>
<path fill="none" stroke="lightgray" stroke-width="2.6" d="M28,-16C28,-16 1315,-16 1315,-16 1321,-16 1327,-22 1327,-28 1327,-28 1327,-403 1327,-403 1327,-409 1321,-415 1315,-415 1315,-415 28,-415 28,-415 22,-415 16,-409 16,-403 16,-403 16,-28 16,-28 16,-22 22,-16 28,-16"/>
<text xml:space="preserve" text-anchor="middle" x="671.5" y="-398.65" font-family="Arial Black" font-size="13.00">lib</text>
</g>
<g id="clust4" class="cluster">
<title>cluster~/lib/providers</title>
<path fill="none" stroke="lightgray" stroke-width="2.6" d="M458,-190C458,-190 560,-190 560,-190 566,-190 572,-196 572,-202 572,-202 572,-253 572,-253 572,-259 566,-265 560,-265 560,-265 458,-265 458,-265 452,-265 446,-259 446,-253 446,-253 446,-202 446,-202 446,-196 452,-190 458,-190"/>
<text xml:space="preserve" text-anchor="middle" x="509" y="-248.65" font-family="Arial Black" font-size="13.00">providers</text>
</g>
<g id="clust5" class="cluster">
<title>cluster~/lib/utils</title>
<path fill="none" stroke="lightgray" stroke-width="2.6" d="M266,-24C266,-24 508,-24 508,-24 514,-24 520,-30 520,-36 520,-36 520,-87 520,-87 520,-93 514,-99 508,-99 508,-99 266,-99 266,-99 260,-99 254,-93 254,-87 254,-87 254,-36 254,-36 254,-30 260,-24 266,-24"/>
<text xml:space="preserve" text-anchor="middle" x="387" y="-82.65" font-family="Arial Black" font-size="13.00">utils</text>
</g>
<g id="clust6" class="cluster">
<title>cluster~/lib/models</title>
<path fill="none" stroke="lightgray" stroke-width="2.6" d="M523,-107C523,-107 763,-107 763,-107 769,-107 775,-113 775,-119 775,-119 775,-170 775,-170 775,-176 769,-182 763,-182 763,-182 523,-182 523,-182 517,-182 511,-176 511,-170 511,-170 511,-119 511,-119 511,-113 517,-107 523,-107"/>
<text xml:space="preserve" text-anchor="middle" x="643" y="-165.65" font-family="Arial Black" font-size="13.00">models</text>
</g>
<g id="clust7" class="cluster">
<title>cluster~/lib/screens</title>
<path fill="none" stroke="lightgray" stroke-width="2.6" d="M88,-107C88,-107 426,-107 426,-107 432,-107 438,-113 438,-119 438,-119 438,-253 438,-253 438,-259 432,-265 426,-265 426,-265 88,-265 88,-265 82,-265 76,-259 76,-253 76,-253 76,-119 76,-119 76,-113 82,-107 88,-107"/>
<text xml:space="preserve" text-anchor="middle" x="257" y="-248.65" font-family="Arial Black" font-size="13.00">screens</text>
</g>
<g id="clust8" class="cluster">
<title>cluster~/lib/theme</title>
<path fill="none" stroke="lightgray" stroke-width="2.6" d="M36,-24C36,-24 120,-24 120,-24 126,-24 132,-30 132,-36 132,-36 132,-87 132,-87 132,-93 126,-99 120,-99 120,-99 36,-99 36,-99 30,-99 24,-93 24,-87 24,-87 24,-36 24,-36 24,-30 30,-24 36,-24"/>
<text xml:space="preserve" text-anchor="middle" x="78" y="-82.65" font-family="Arial Black" font-size="13.00">theme</text>
</g>
<g id="clust9" class="cluster">
<title>cluster~/lib/services</title>
<path fill="none" stroke="lightgray" stroke-width="2.6" d="M884,-107C884,-107 1255,-107 1255,-107 1261,-107 1267,-113 1267,-119 1267,-119 1267,-170 1267,-170 1267,-176 1261,-182 1255,-182 1255,-182 884,-182 884,-182 878,-182 872,-176 872,-170 872,-170 872,-119 872,-119 872,-113 878,-107 884,-107"/>
<text xml:space="preserve" text-anchor="middle" x="1069.5" y="-165.65" font-family="Arial Black" font-size="13.00">services</text>
</g>
<g id="clust10" class="cluster">
<title>cluster~/lib/widgets</title>
<path fill="none" stroke="lightgray" stroke-width="2.6" d="M592,-190C592,-190 1195,-190 1195,-190 1201,-190 1207,-196 1207,-202 1207,-202 1207,-328 1207,-328 1207,-334 1201,-340 1195,-340 1195,-340 592,-340 592,-340 586,-340 580,-334 580,-328 580,-328 580,-202 580,-202 580,-196 586,-190 592,-190"/>
<text xml:space="preserve" text-anchor="middle" x="893.5" y="-323.65" font-family="Arial Black" font-size="13.00">widgets</text>
</g>
<g id="clust11" class="cluster">
<title>cluster~/tool</title>
<path fill="none" stroke="lightgray" stroke-width="2.6" d="M906,-423C906,-423 992,-423 992,-423 998,-423 1004,-429 1004,-435 1004,-435 1004,-486 1004,-486 1004,-492 998,-498 992,-498 992,-498 906,-498 906,-498 900,-498 894,-492 894,-486 894,-486 894,-435 894,-435 894,-429 900,-423 906,-423"/>
<text xml:space="preserve" text-anchor="middle" x="949" y="-481.65" font-family="Arial Black" font-size="13.00">tool</text>
</g>
<!-- /test/widget_test.dart -->
<g id="node1" class="node">
<title>/test/widget_test.dart</title>
<path fill="Lavender" stroke="black" stroke-width="1.3" d="M542.88,-467C542.88,-467 475.12,-467 475.12,-467 469.12,-467 463.12,-461 463.12,-455 463.12,-455 463.12,-443 463.12,-443 463.12,-437 469.12,-431 475.12,-431 475.12,-431 542.88,-431 542.88,-431 548.88,-431 554.88,-437 554.88,-443 554.88,-443 554.88,-455 554.88,-455 554.88,-461 548.88,-467 542.88,-467"/>
<text xml:space="preserve" text-anchor="middle" x="509" y="-443.75" font-family="Arial" font-size="15.00">widget_test</text>
</g>
<!-- /lib/main.dart -->
<g id="node12" class="node">
<title>/lib/main.dart</title>
<path fill="Lavender" stroke="black" stroke-width="1.3" d="M524,-384C524,-384 494,-384 494,-384 488,-384 482,-378 482,-372 482,-372 482,-360 482,-360 482,-354 488,-348 494,-348 494,-348 524,-348 524,-348 530,-348 536,-354 536,-360 536,-360 536,-372 536,-372 536,-378 530,-384 524,-384"/>
<text xml:space="preserve" text-anchor="middle" x="509" y="-360.75" font-family="Arial" font-size="15.00">main</text>
</g>
<!-- /test/widget_test.dart&#45;&gt;/lib/main.dart -->
<g id="edge1" class="edge">
<title>/test/widget_test.dart&#45;&gt;/lib/main.dart</title>
<path fill="none" stroke="#aabbaa" stroke-width="1.3" stroke-opacity="0.533333" d="M509,-430.42C509,-420.45 509,-407.7 509,-396.26"/>
<polygon fill="#aabbaa" fill-opacity="0.533333" stroke="#aabbaa" stroke-width="1.3" stroke-opacity="0.533333" points="512.5,-396.51 509,-386.51 505.5,-396.51 512.5,-396.51"/>
</g>
<!-- /lib/providers/app_providers.dart -->
<g id="node2" class="node">
<title>/lib/providers/app_providers.dart</title>
<path fill="Lavender" stroke="black" stroke-width="1.3" d="M552.25,-234C552.25,-234 465.75,-234 465.75,-234 459.75,-234 453.75,-228 453.75,-222 453.75,-222 453.75,-210 453.75,-210 453.75,-204 459.75,-198 465.75,-198 465.75,-198 552.25,-198 552.25,-198 558.25,-198 564.25,-204 564.25,-210 564.25,-210 564.25,-222 564.25,-222 564.25,-228 558.25,-234 552.25,-234"/>
<text xml:space="preserve" text-anchor="middle" x="509" y="-210.75" font-family="Arial" font-size="15.00">app_providers</text>
</g>
<!-- /lib/models/project_node.dart -->
<g id="node5" class="node">
<title>/lib/models/project_node.dart</title>
<path fill="Lavender" stroke="black" stroke-width="1.3" d="M609.12,-151C609.12,-151 530.88,-151 530.88,-151 524.88,-151 518.88,-145 518.88,-139 518.88,-139 518.88,-127 518.88,-127 518.88,-121 524.88,-115 530.88,-115 530.88,-115 609.12,-115 609.12,-115 615.12,-115 621.12,-121 621.12,-127 621.12,-127 621.12,-139 621.12,-139 621.12,-145 615.12,-151 609.12,-151"/>
<text xml:space="preserve" text-anchor="middle" x="570" y="-127.75" font-family="Arial" font-size="15.00">project_node</text>
</g>
<!-- /lib/providers/app_providers.dart&#45;&gt;/lib/models/project_node.dart -->
<g id="edge3" class="edge">
<title>/lib/providers/app_providers.dart&#45;&gt;/lib/models/project_node.dart</title>
<path fill="none" stroke="#aabbaa" stroke-width="1.3" stroke-opacity="0.533333" d="M522.24,-197.42C530.23,-186.81 540.58,-173.06 549.6,-161.08"/>
<polygon fill="#aabbaa" fill-opacity="0.533333" stroke="#aabbaa" stroke-width="1.3" stroke-opacity="0.533333" points="552.39,-163.21 555.61,-153.11 546.79,-159 552.39,-163.21"/>
</g>
<!-- /lib/models/file_system_item.dart -->
<g id="node6" class="node">
<title>/lib/models/file_system_item.dart</title>
<path fill="Lavender" stroke="black" stroke-width="1.3" d="M754.88,-151C754.88,-151 651.12,-151 651.12,-151 645.12,-151 639.12,-145 639.12,-139 639.12,-139 639.12,-127 639.12,-127 639.12,-121 645.12,-115 651.12,-115 651.12,-115 754.88,-115 754.88,-115 760.88,-115 766.88,-121 766.88,-127 766.88,-127 766.88,-139 766.88,-139 766.88,-145 760.88,-151 754.88,-151"/>
<text xml:space="preserve" text-anchor="middle" x="703" y="-127.75" font-family="Arial" font-size="15.00">file_system_item</text>
</g>
<!-- /lib/providers/app_providers.dart&#45;&gt;/lib/models/file_system_item.dart -->
<g id="edge2" class="edge">
<title>/lib/providers/app_providers.dart&#45;&gt;/lib/models/file_system_item.dart</title>
<path fill="none" stroke="#aabbaa" stroke-width="1.3" stroke-opacity="0.533333" d="M552.18,-197.38C560.02,-194.62 568.19,-192.01 576,-190 599.5,-183.95 607.33,-190.65 630,-182 644.87,-176.33 659.82,-167.24 672.28,-158.49"/>
<polygon fill="#aabbaa" fill-opacity="0.533333" stroke="#aabbaa" stroke-width="1.3" stroke-opacity="0.533333" points="674.09,-161.5 680.1,-152.78 669.96,-155.85 674.09,-161.5"/>
</g>
<!-- /lib/utils/message_helper.dart -->
<g id="node3" class="node">
<title>/lib/utils/message_helper.dart</title>
<path fill="Lavender" stroke="black" stroke-width="1.3" d="M500.12,-68C500.12,-68 397.88,-68 397.88,-68 391.88,-68 385.88,-62 385.88,-56 385.88,-56 385.88,-44 385.88,-44 385.88,-38 391.88,-32 397.88,-32 397.88,-32 500.12,-32 500.12,-32 506.12,-32 512.12,-38 512.12,-44 512.12,-44 512.12,-56 512.12,-56 512.12,-62 506.12,-68 500.12,-68"/>
<text xml:space="preserve" text-anchor="middle" x="449" y="-44.75" font-family="Arial" font-size="15.00">message_helper</text>
</g>
<!-- /lib/widgets/message_widget.dart -->
<g id="node21" class="node">
<title>/lib/widgets/message_widget.dart</title>
<path fill="Lavender" stroke="black" stroke-width="1.3" d="M1186.88,-309C1186.88,-309 1083.12,-309 1083.12,-309 1077.12,-309 1071.12,-303 1071.12,-297 1071.12,-297 1071.12,-285 1071.12,-285 1071.12,-279 1077.12,-273 1083.12,-273 1083.12,-273 1186.88,-273 1186.88,-273 1192.88,-273 1198.88,-279 1198.88,-285 1198.88,-285 1198.88,-297 1198.88,-297 1198.88,-303 1192.88,-309 1186.88,-309"/>
<text xml:space="preserve" text-anchor="middle" x="1135" y="-285.75" font-family="Arial" font-size="15.00">message_widget</text>
</g>
<!-- /lib/utils/message_helper.dart&#45;&gt;/lib/widgets/message_widget.dart -->
<g id="edge4" class="edge">
<title>/lib/utils/message_helper.dart&#45;&gt;/lib/widgets/message_widget.dart</title>
<path fill="none" stroke="#aabbaa" stroke-width="1.3" stroke-opacity="0.533333" d="M512.66,-50.4C698.38,-49.33 1229.81,-51.19 1282,-107 1330.93,-159.33 1304.41,-218.38 1250,-265 1243.32,-270.73 1228.11,-275.43 1210.88,-279.15"/>
<polygon fill="#aabbaa" fill-opacity="0.533333" stroke="#aabbaa" stroke-width="1.3" stroke-opacity="0.533333" points="1210.38,-275.68 1201.26,-281.07 1211.75,-282.54 1210.38,-275.68"/>
</g>
<!-- /lib/utils/file_type_utils.dart -->
<g id="node4" class="node">
<title>/lib/utils/file_type_utils.dart</title>
<path fill="Lavender" stroke="black" stroke-width="1.3" d="M356,-68C356,-68 274,-68 274,-68 268,-68 262,-62 262,-56 262,-56 262,-44 262,-44 262,-38 268,-32 274,-32 274,-32 356,-32 356,-32 362,-32 368,-38 368,-44 368,-44 368,-56 368,-56 368,-62 362,-68 356,-68"/>
<text xml:space="preserve" text-anchor="middle" x="315" y="-44.75" font-family="Arial" font-size="15.00">file_type_utils</text>
</g>
<!-- /lib/screens/git_panel.dart -->
<g id="node7" class="node">
<title>/lib/screens/git_panel.dart</title>
<path fill="Lavender" stroke="black" stroke-width="1.3" d="M148,-151C148,-151 96,-151 96,-151 90,-151 84,-145 84,-139 84,-139 84,-127 84,-127 84,-121 90,-115 96,-115 96,-115 148,-115 148,-115 154,-115 160,-121 160,-127 160,-127 160,-139 160,-139 160,-145 154,-151 148,-151"/>
<text xml:space="preserve" text-anchor="middle" x="122" y="-127.75" font-family="Arial" font-size="15.00">git_panel</text>
</g>
<!-- /lib/theme/app_theme.dart -->
<g id="node13" class="node">
<title>/lib/theme/app_theme.dart</title>
<path fill="Lavender" stroke="black" stroke-width="1.3" d="M111.5,-68C111.5,-68 44.5,-68 44.5,-68 38.5,-68 32.5,-62 32.5,-56 32.5,-56 32.5,-44 32.5,-44 32.5,-38 38.5,-32 44.5,-32 44.5,-32 111.5,-32 111.5,-32 117.5,-32 123.5,-38 123.5,-44 123.5,-44 123.5,-56 123.5,-56 123.5,-62 117.5,-68 111.5,-68"/>
<text xml:space="preserve" text-anchor="middle" x="78" y="-44.75" font-family="Arial" font-size="15.00">app_theme</text>
</g>
<!-- /lib/screens/git_panel.dart&#45;&gt;/lib/theme/app_theme.dart -->
<g id="edge5" class="edge">
<title>/lib/screens/git_panel.dart&#45;&gt;/lib/theme/app_theme.dart</title>
<path fill="none" stroke="#aabbaa" stroke-width="1.3" stroke-opacity="0.533333" d="M112.45,-114.42C106.8,-104.02 99.52,-90.61 93.1,-78.8"/>
<polygon fill="#aabbaa" fill-opacity="0.533333" stroke="#aabbaa" stroke-width="1.3" stroke-opacity="0.533333" points="96.32,-77.39 88.47,-70.27 90.17,-80.73 96.32,-77.39"/>
</g>
<!-- /lib/services/git_service.dart -->
<g id="node14" class="node">
<title>/lib/services/git_service.dart</title>
<path fill="Lavender" stroke="black" stroke-width="1.3" d="M1119.62,-151C1119.62,-151 1056.38,-151 1056.38,-151 1050.38,-151 1044.38,-145 1044.38,-139 1044.38,-139 1044.38,-127 1044.38,-127 1044.38,-121 1050.38,-115 1056.38,-115 1056.38,-115 1119.62,-115 1119.62,-115 1125.62,-115 1131.62,-121 1131.62,-127 1131.62,-127 1131.62,-139 1131.62,-139 1131.62,-145 1125.62,-151 1119.62,-151"/>
<text xml:space="preserve" text-anchor="middle" x="1088" y="-127.75" font-family="Arial" font-size="15.00">git_service</text>
</g>
<!-- /lib/screens/git_panel.dart&#45;&gt;/lib/services/git_service.dart -->
<g id="edge6" class="edge">
<title>/lib/screens/git_panel.dart&#45;&gt;/lib/services/git_service.dart</title>
<path fill="none" stroke="#aabbaa" stroke-width="1.3" stroke-opacity="0.533333" d="M133.34,-151.42C143.14,-165.05 158.75,-181.92 178,-186 201.04,-190.89 1002.96,-190.89 1026,-186 1041.96,-182.61 1056.11,-171.54 1066.85,-160.39"/>
<polygon fill="#aabbaa" fill-opacity="0.533333" stroke="#aabbaa" stroke-width="1.3" stroke-opacity="0.533333" points="1069.35,-162.84 1073.39,-153.04 1064.13,-158.18 1069.35,-162.84"/>
</g>
<!-- /lib/screens/explorer_screen.dart -->
<g id="node8" class="node">
<title>/lib/screens/explorer_screen.dart</title>
<path fill="Lavender" stroke="black" stroke-width="1.3" d="M417.62,-234C417.62,-234 318.38,-234 318.38,-234 312.38,-234 306.38,-228 306.38,-222 306.38,-222 306.38,-210 306.38,-210 306.38,-204 312.38,-198 318.38,-198 318.38,-198 417.62,-198 417.62,-198 423.62,-198 429.62,-204 429.62,-210 429.62,-210 429.62,-222 429.62,-222 429.62,-228 423.62,-234 417.62,-234"/>
<text xml:space="preserve" text-anchor="middle" x="368" y="-210.75" font-family="Arial" font-size="15.00">explorer_screen</text>
</g>
<!-- /lib/screens/explorer_screen.dart&#45;&gt;/lib/utils/message_helper.dart -->
<g id="edge9" class="edge">
<title>/lib/screens/explorer_screen.dart&#45;&gt;/lib/utils/message_helper.dart</title>
<path fill="none" stroke="#aabbaa" stroke-width="1.3" stroke-opacity="0.533333" d="M422.36,-197.5C428.83,-193.36 434.66,-188.26 439,-182 459.71,-152.11 458.5,-108.65 454.65,-80.11"/>
<polygon fill="#aabbaa" fill-opacity="0.533333" stroke="#aabbaa" stroke-width="1.3" stroke-opacity="0.533333" points="458.14,-79.79 453.13,-70.46 451.23,-80.88 458.14,-79.79"/>
</g>
<!-- /lib/screens/explorer_screen.dart&#45;&gt;/lib/models/project_node.dart -->
<g id="edge7" class="edge">
<title>/lib/screens/explorer_screen.dart&#45;&gt;/lib/models/project_node.dart</title>
<path fill="none" stroke="#aabbaa" stroke-width="1.3" stroke-opacity="0.533333" d="M414.5,-197.41C427.33,-192.49 441.22,-187.09 454,-182 474.74,-173.73 497.46,-164.39 517.26,-156.16"/>
<polygon fill="#aabbaa" fill-opacity="0.533333" stroke="#aabbaa" stroke-width="1.3" stroke-opacity="0.533333" points="518.53,-159.43 526.41,-152.35 515.83,-152.96 518.53,-159.43"/>
</g>
<!-- /lib/screens/explorer_screen.dart&#45;&gt;/lib/models/file_system_item.dart -->
<g id="edge8" class="edge">
<title>/lib/screens/explorer_screen.dart&#45;&gt;/lib/models/file_system_item.dart</title>
<path fill="none" stroke="#aabbaa" stroke-width="1.3" stroke-opacity="0.533333" d="M413.25,-197.46C422.63,-194.47 432.53,-191.76 442,-190 483.11,-182.34 590.2,-194.84 630,-182 645.49,-177 660.82,-167.76 673.41,-158.71"/>
<polygon fill="#aabbaa" fill-opacity="0.533333" stroke="#aabbaa" stroke-width="1.3" stroke-opacity="0.533333" points="675.41,-161.58 681.29,-152.76 671.2,-155.99 675.41,-161.58"/>
</g>
<!-- /lib/screens/explorer_screen.dart&#45;&gt;/lib/screens/git_panel.dart -->
<g id="edge11" class="edge">
<title>/lib/screens/explorer_screen.dart&#45;&gt;/lib/screens/git_panel.dart</title>
<path fill="none" stroke="#aabbaa" stroke-width="1.3" stroke-opacity="0.533333" d="M324.22,-197.47C315.34,-194.52 305.96,-191.82 297,-190 269.07,-184.32 194.92,-193.86 169,-182 158.41,-177.15 148.93,-168.78 141.3,-160.37"/>
<polygon fill="#aabbaa" fill-opacity="0.533333" stroke="#aabbaa" stroke-width="1.3" stroke-opacity="0.533333" points="144.16,-158.33 135.06,-152.91 138.79,-162.83 144.16,-158.33"/>
</g>
<!-- /lib/screens/welcome_screen.dart -->
<g id="node11" class="node">
<title>/lib/screens/welcome_screen.dart</title>
<path fill="Lavender" stroke="black" stroke-width="1.3" d="M417.88,-151C417.88,-151 314.12,-151 314.12,-151 308.12,-151 302.12,-145 302.12,-139 302.12,-139 302.12,-127 302.12,-127 302.12,-121 308.12,-115 314.12,-115 314.12,-115 417.88,-115 417.88,-115 423.88,-115 429.88,-121 429.88,-127 429.88,-127 429.88,-139 429.88,-139 429.88,-145 423.88,-151 417.88,-151"/>
<text xml:space="preserve" text-anchor="middle" x="366" y="-127.75" font-family="Arial" font-size="15.00">welcome_screen</text>
</g>
<!-- /lib/screens/explorer_screen.dart&#45;&gt;/lib/screens/welcome_screen.dart -->
<g id="edge10" class="edge">
<title>/lib/screens/explorer_screen.dart&#45;&gt;/lib/screens/welcome_screen.dart</title>
<path fill="none" stroke="#aabbaa" stroke-width="1.3" stroke-opacity="0.533333" d="M367.57,-197.42C367.32,-187.45 367,-174.7 366.72,-163.26"/>
<polygon fill="#aabbaa" fill-opacity="0.533333" stroke="#aabbaa" stroke-width="1.3" stroke-opacity="0.533333" points="370.23,-163.42 366.48,-153.51 363.23,-163.59 370.23,-163.42"/>
</g>
<!-- /lib/screens/explorer_screen.dart&#45;&gt;/lib/theme/app_theme.dart -->
<g id="edge12" class="edge">
<title>/lib/screens/explorer_screen.dart&#45;&gt;/lib/theme/app_theme.dart</title>
<path fill="none" stroke="#aabbaa" stroke-width="1.3" stroke-opacity="0.533333" d="M324.64,-197.41C315.64,-194.42 306.12,-191.73 297,-190 284.87,-187.7 83.57,-190.88 75,-182 61.5,-168 67.37,-114.25 72.76,-80.11"/>
<polygon fill="#aabbaa" fill-opacity="0.533333" stroke="#aabbaa" stroke-width="1.3" stroke-opacity="0.533333" points="76.18,-80.9 74.37,-70.46 69.27,-79.75 76.18,-80.9"/>
</g>
<!-- /lib/screens/outline_panel.dart -->
<g id="node9" class="node">
<title>/lib/screens/outline_panel.dart</title>
<path fill="Lavender" stroke="black" stroke-width="1.3" d="M275.88,-234C275.88,-234 196.12,-234 196.12,-234 190.12,-234 184.12,-228 184.12,-222 184.12,-222 184.12,-210 184.12,-210 184.12,-204 190.12,-198 196.12,-198 196.12,-198 275.88,-198 275.88,-198 281.88,-198 287.88,-204 287.88,-210 287.88,-210 287.88,-222 287.88,-222 287.88,-228 281.88,-234 275.88,-234"/>
<text xml:space="preserve" text-anchor="middle" x="236" y="-210.75" font-family="Arial" font-size="15.00">outline_panel</text>
</g>
<!-- /lib/screens/outline_panel.dart&#45;&gt;/lib/models/file_system_item.dart -->
<g id="edge14" class="edge">
<title>/lib/screens/outline_panel.dart&#45;&gt;/lib/models/file_system_item.dart</title>
<path fill="none" stroke="#aabbaa" stroke-width="1.3" stroke-opacity="0.533333" d="M272.74,-197.44C280.58,-194.41 288.93,-191.69 297,-190 333.22,-182.41 594.67,-193.04 630,-182 645.65,-177.11 661.1,-167.79 673.73,-158.65"/>
<polygon fill="#aabbaa" fill-opacity="0.533333" stroke="#aabbaa" stroke-width="1.3" stroke-opacity="0.533333" points="675.79,-161.48 681.63,-152.65 671.55,-155.91 675.79,-161.48"/>
</g>
<!-- /lib/screens/editor_screen.dart -->
<g id="node10" class="node">
<title>/lib/screens/editor_screen.dart</title>
<path fill="Lavender" stroke="black" stroke-width="1.3" d="M272.38,-151C272.38,-151 189.62,-151 189.62,-151 183.62,-151 177.62,-145 177.62,-139 177.62,-139 177.62,-127 177.62,-127 177.62,-121 183.62,-115 189.62,-115 189.62,-115 272.38,-115 272.38,-115 278.38,-115 284.38,-121 284.38,-127 284.38,-127 284.38,-139 284.38,-139 284.38,-145 278.38,-151 272.38,-151"/>
<text xml:space="preserve" text-anchor="middle" x="231" y="-127.75" font-family="Arial" font-size="15.00">editor_screen</text>
</g>
<!-- /lib/screens/outline_panel.dart&#45;&gt;/lib/screens/editor_screen.dart -->
<g id="edge15" class="edge">
<title>/lib/screens/outline_panel.dart&#45;&gt;/lib/screens/editor_screen.dart</title>
<path fill="none" stroke="#aabbaa" stroke-width="1.3" stroke-opacity="0.533333" d="M234.92,-197.42C234.3,-187.45 233.51,-174.7 232.81,-163.26"/>
<polygon fill="#aabbaa" fill-opacity="0.533333" stroke="#aabbaa" stroke-width="1.3" stroke-opacity="0.533333" points="236.31,-163.27 232.2,-153.51 229.33,-163.7 236.31,-163.27"/>
</g>
<!-- /lib/screens/outline_panel.dart&#45;&gt;/lib/theme/app_theme.dart -->
<g id="edge13" class="edge">
<title>/lib/screens/outline_panel.dart&#45;&gt;/lib/theme/app_theme.dart</title>
<path fill="none" stroke="#aabbaa" stroke-width="1.3" stroke-opacity="0.533333" d="M201.73,-197.43C194.7,-194.48 187.23,-191.79 180,-190 167.03,-186.78 69.13,-191.76 60,-182 34.27,-154.5 48.91,-108.45 62.74,-78.92"/>
<polygon fill="#aabbaa" fill-opacity="0.533333" stroke="#aabbaa" stroke-width="1.3" stroke-opacity="0.533333" points="65.74,-80.76 67.04,-70.25 59.47,-77.65 65.74,-80.76"/>
</g>
<!-- /lib/screens/editor_screen.dart&#45;&gt;/lib/utils/message_helper.dart -->
<g id="edge16" class="edge">
<title>/lib/screens/editor_screen.dart&#45;&gt;/lib/utils/message_helper.dart</title>
<path fill="none" stroke="#aabbaa" stroke-width="1.3" stroke-opacity="0.533333" d="M269.79,-114.38C277.36,-111.51 285.33,-108.87 293,-107 329.44,-98.12 341.66,-111.56 377,-99 392.08,-93.64 407.08,-84.43 419.45,-75.5"/>
<polygon fill="#aabbaa" fill-opacity="0.533333" stroke="#aabbaa" stroke-width="1.3" stroke-opacity="0.533333" points="421.31,-78.48 427.19,-69.67 417.1,-72.89 421.31,-78.48"/>
</g>
<!-- /lib/screens/editor_screen.dart&#45;&gt;/lib/utils/file_type_utils.dart -->
<g id="edge17" class="edge">
<title>/lib/screens/editor_screen.dart&#45;&gt;/lib/utils/file_type_utils.dart</title>
<path fill="none" stroke="#aabbaa" stroke-width="1.3" stroke-opacity="0.533333" d="M249.23,-114.42C260.67,-103.39 275.64,-88.96 288.4,-76.65"/>
<polygon fill="#aabbaa" fill-opacity="0.533333" stroke="#aabbaa" stroke-width="1.3" stroke-opacity="0.533333" points="290.62,-79.37 295.39,-69.91 285.76,-74.33 290.62,-79.37"/>
</g>
<!-- /lib/main.dart&#45;&gt;/lib/providers/app_providers.dart -->
<g id="edge18" class="edge">
<title>/lib/main.dart&#45;&gt;/lib/providers/app_providers.dart</title>
<path fill="none" stroke="#aabbaa" stroke-width="1.3" stroke-opacity="0.533333" d="M509,-347.44C509,-322.52 509,-276.56 509,-246.39"/>
<polygon fill="#aabbaa" fill-opacity="0.533333" stroke="#aabbaa" stroke-width="1.3" stroke-opacity="0.533333" points="512.5,-246.5 509,-236.5 505.5,-246.5 512.5,-246.5"/>
</g>
<!-- /lib/main.dart&#45;&gt;/lib/screens/editor_screen.dart -->
<g id="edge20" class="edge">
<title>/lib/main.dart&#45;&gt;/lib/screens/editor_screen.dart</title>
<path fill="none" stroke="#aabbaa" stroke-width="1.3" stroke-opacity="0.533333" d="M481.54,-361.44C405.81,-351.02 196.97,-317.91 157,-265 136.91,-238.4 141.27,-219.39 157,-190 160.02,-184.35 163.8,-185.74 169,-182 179.2,-174.67 190.09,-166.39 199.86,-158.79"/>
<polygon fill="#aabbaa" fill-opacity="0.533333" stroke="#aabbaa" stroke-width="1.3" stroke-opacity="0.533333" points="201.93,-161.62 207.64,-152.7 197.61,-156.11 201.93,-161.62"/>
</g>
<!-- /lib/main.dart&#45;&gt;/lib/theme/app_theme.dart -->
<g id="edge22" class="edge">
<title>/lib/main.dart&#45;&gt;/lib/theme/app_theme.dart</title>
<path fill="none" stroke="#aabbaa" stroke-width="1.3" stroke-opacity="0.533333" d="M481.5,-365.2C409.84,-365.37 218.94,-363.54 161,-340 79.56,-306.9 57.17,-268.59 42,-182 36.25,-149.17 32.61,-138.98 42,-107 45,-96.8 50.49,-86.7 56.3,-77.94"/>
<polygon fill="#aabbaa" fill-opacity="0.533333" stroke="#aabbaa" stroke-width="1.3" stroke-opacity="0.533333" points="59.03,-80.13 61.98,-69.96 53.33,-76.07 59.03,-80.13"/>
</g>
<!-- /lib/main.dart&#45;&gt;/lib/services/git_service.dart -->
<g id="edge21" class="edge">
<title>/lib/main.dart&#45;&gt;/lib/services/git_service.dart</title>
<path fill="none" stroke="#aabbaa" stroke-width="1.3" stroke-opacity="0.533333" d="M536.51,-364.75C662.7,-363.48 1181.41,-357.26 1211,-340 1271.23,-304.86 1304.58,-240.98 1257,-190 1248.18,-180.56 1152.89,-187.06 1141,-182 1129.35,-177.04 1118.57,-168.41 1109.81,-159.83"/>
<polygon fill="#aabbaa" fill-opacity="0.533333" stroke="#aabbaa" stroke-width="1.3" stroke-opacity="0.533333" points="1112.57,-157.64 1103.14,-152.82 1107.5,-162.47 1112.57,-157.64"/>
</g>
<!-- /lib/widgets/main_layout.dart -->
<g id="node19" class="node">
<title>/lib/widgets/main_layout.dart</title>
<path fill="Lavender" stroke="black" stroke-width="1.3" d="M789.12,-309C789.12,-309 716.88,-309 716.88,-309 710.88,-309 704.88,-303 704.88,-297 704.88,-297 704.88,-285 704.88,-285 704.88,-279 710.88,-273 716.88,-273 716.88,-273 789.12,-273 789.12,-273 795.12,-273 801.12,-279 801.12,-285 801.12,-285 801.12,-297 801.12,-297 801.12,-303 795.12,-309 789.12,-309"/>
<text xml:space="preserve" text-anchor="middle" x="753" y="-285.75" font-family="Arial" font-size="15.00">main_layout</text>
</g>
<!-- /lib/main.dart&#45;&gt;/lib/widgets/main_layout.dart -->
<g id="edge19" class="edge">
<title>/lib/main.dart&#45;&gt;/lib/widgets/main_layout.dart</title>
<path fill="none" stroke="#aabbaa" stroke-width="1.3" stroke-opacity="0.533333" d="M536.39,-363.48C582.25,-360.59 672.38,-353.39 701,-340 712.07,-334.82 722.38,-326.42 730.86,-318.09"/>
<polygon fill="#aabbaa" fill-opacity="0.533333" stroke="#aabbaa" stroke-width="1.3" stroke-opacity="0.533333" points="733.27,-320.64 737.63,-310.99 728.2,-315.81 733.27,-320.64"/>
</g>
<!-- /lib/services/file_system_service.dart -->
<g id="node15" class="node">
<title>/lib/services/file_system_service.dart</title>
<path fill="Lavender" stroke="black" stroke-width="1.3" d="M1014.25,-151C1014.25,-151 891.75,-151 891.75,-151 885.75,-151 879.75,-145 879.75,-139 879.75,-139 879.75,-127 879.75,-127 879.75,-121 885.75,-115 891.75,-115 891.75,-115 1014.25,-115 1014.25,-115 1020.25,-115 1026.25,-121 1026.25,-127 1026.25,-127 1026.25,-139 1026.25,-139 1026.25,-145 1020.25,-151 1014.25,-151"/>
<text xml:space="preserve" text-anchor="middle" x="953" y="-127.75" font-family="Arial" font-size="15.00">file_system_service</text>
</g>
<!-- /lib/services/file_system_service.dart&#45;&gt;/lib/models/file_system_item.dart -->
<g id="edge23" class="edge">
<title>/lib/services/file_system_service.dart&#45;&gt;/lib/models/file_system_item.dart</title>
<path fill="none" stroke="#aabbaa" stroke-width="1.3" stroke-opacity="0.533333" d="M879.43,-133C846.04,-133 812.65,-133 779.26,-133"/>
<polygon fill="#aabbaa" fill-opacity="0.533333" stroke="#aabbaa" stroke-width="1.3" stroke-opacity="0.533333" points="779.42,-129.5 769.42,-133 779.42,-136.5 779.42,-129.5"/>
</g>
<!-- /lib/services/editor_service.dart -->
<g id="node16" class="node">
<title>/lib/services/editor_service.dart</title>
<path fill="Lavender" stroke="black" stroke-width="1.3" d="M1246.5,-151C1246.5,-151 1161.5,-151 1161.5,-151 1155.5,-151 1149.5,-145 1149.5,-139 1149.5,-139 1149.5,-127 1149.5,-127 1149.5,-121 1155.5,-115 1161.5,-115 1161.5,-115 1246.5,-115 1246.5,-115 1252.5,-115 1258.5,-121 1258.5,-127 1258.5,-127 1258.5,-139 1258.5,-139 1258.5,-145 1252.5,-151 1246.5,-151"/>
<text xml:space="preserve" text-anchor="middle" x="1204" y="-127.75" font-family="Arial" font-size="15.00">editor_service</text>
</g>
<!-- /lib/widgets/resizable_splitter.dart -->
<g id="node17" class="node">
<title>/lib/widgets/resizable_splitter.dart</title>
<path fill="Lavender" stroke="black" stroke-width="1.3" d="M1029.88,-234C1029.88,-234 926.12,-234 926.12,-234 920.12,-234 914.12,-228 914.12,-222 914.12,-222 914.12,-210 914.12,-210 914.12,-204 920.12,-198 926.12,-198 926.12,-198 1029.88,-198 1029.88,-198 1035.88,-198 1041.88,-204 1041.88,-210 1041.88,-210 1041.88,-222 1041.88,-222 1041.88,-228 1035.88,-234 1029.88,-234"/>
<text xml:space="preserve" text-anchor="middle" x="978" y="-210.75" font-family="Arial" font-size="15.00">resizable_splitter</text>
</g>
<!-- /lib/widgets/directory_contents.dart -->
<g id="node18" class="node">
<title>/lib/widgets/directory_contents.dart</title>
<path fill="Lavender" stroke="black" stroke-width="1.3" d="M1186.5,-234C1186.5,-234 1071.5,-234 1071.5,-234 1065.5,-234 1059.5,-228 1059.5,-222 1059.5,-222 1059.5,-210 1059.5,-210 1059.5,-204 1065.5,-198 1071.5,-198 1071.5,-198 1186.5,-198 1186.5,-198 1192.5,-198 1198.5,-204 1198.5,-210 1198.5,-210 1198.5,-222 1198.5,-222 1198.5,-228 1192.5,-234 1186.5,-234"/>
<text xml:space="preserve" text-anchor="middle" x="1129" y="-210.75" font-family="Arial" font-size="15.00">directory_contents</text>
</g>
<!-- /lib/widgets/directory_contents.dart&#45;&gt;/lib/models/file_system_item.dart -->
<g id="edge25" class="edge">
<title>/lib/widgets/directory_contents.dart&#45;&gt;/lib/models/file_system_item.dart</title>
<path fill="none" stroke="#aabbaa" stroke-width="1.3" stroke-opacity="0.533333" d="M1080.82,-197.36C1071.07,-194.42 1060.8,-191.75 1051,-190 970.86,-175.67 948.33,-195.24 868,-182 832.61,-176.17 794.06,-165.22 763.14,-155.26"/>
<polygon fill="#aabbaa" fill-opacity="0.533333" stroke="#aabbaa" stroke-width="1.3" stroke-opacity="0.533333" points="764.57,-152.04 753.98,-152.26 762.39,-158.7 764.57,-152.04"/>
</g>
<!-- /lib/widgets/directory_contents.dart&#45;&gt;/lib/services/file_system_service.dart -->
<g id="edge24" class="edge">
<title>/lib/widgets/directory_contents.dart&#45;&gt;/lib/services/file_system_service.dart</title>
<path fill="none" stroke="#aabbaa" stroke-width="1.3" stroke-opacity="0.533333" d="M1073.12,-197.37C1060.4,-192.81 1047.09,-187.6 1035,-182 1019.85,-174.99 1003.86,-166.02 990.07,-157.73"/>
<polygon fill="#aabbaa" fill-opacity="0.533333" stroke="#aabbaa" stroke-width="1.3" stroke-opacity="0.533333" points="992.03,-154.83 981.68,-152.6 988.38,-160.8 992.03,-154.83"/>
</g>
<!-- /lib/widgets/main_layout.dart&#45;&gt;/lib/providers/app_providers.dart -->
<g id="edge27" class="edge">
<title>/lib/widgets/main_layout.dart&#45;&gt;/lib/providers/app_providers.dart</title>
<path fill="none" stroke="#aabbaa" stroke-width="1.3" stroke-opacity="0.533333" d="M704.38,-273.7C703.25,-273.45 702.12,-273.22 701,-273 673.67,-267.74 602.22,-274.36 576,-265 561.68,-259.89 547.71,-250.75 536.26,-241.81"/>
<polygon fill="#aabbaa" fill-opacity="0.533333" stroke="#aabbaa" stroke-width="1.3" stroke-opacity="0.533333" points="538.75,-239.33 528.8,-235.69 534.31,-244.74 538.75,-239.33"/>
</g>
<!-- /lib/widgets/main_layout.dart&#45;&gt;/lib/utils/file_type_utils.dart -->
<g id="edge29" class="edge">
<title>/lib/widgets/main_layout.dart&#45;&gt;/lib/utils/file_type_utils.dart</title>
<path fill="none" stroke="#aabbaa" stroke-width="1.3" stroke-opacity="0.533333" d="M801.43,-285C840.85,-281.11 897.96,-275.91 948,-273 963.2,-272.12 1208.89,-272.74 1222,-265 1258.89,-243.22 1259.71,-223.32 1271,-182 1279.78,-149.84 1294.46,-130.68 1271,-107 1262.26,-98.18 388.73,-103.07 377,-99 363.27,-94.24 350.21,-85.1 339.65,-76.07"/>
<polygon fill="#aabbaa" fill-opacity="0.533333" stroke="#aabbaa" stroke-width="1.3" stroke-opacity="0.533333" points="342.28,-73.72 332.52,-69.59 337.57,-78.91 342.28,-73.72"/>
</g>
<!-- /lib/widgets/main_layout.dart&#45;&gt;/lib/models/file_system_item.dart -->
<g id="edge28" class="edge">
<title>/lib/widgets/main_layout.dart&#45;&gt;/lib/models/file_system_item.dart</title>
<path fill="none" stroke="#aabbaa" stroke-width="1.3" stroke-opacity="0.533333" d="M801.43,-285.02C840.85,-281.14 897.96,-275.95 948,-273 962.43,-272.15 1197.94,-275.37 1208,-265 1231.2,-241.07 1231.29,-213.85 1208,-190 1194.8,-176.48 886.67,-184.89 868,-182 832.16,-176.46 793.15,-165.36 762.06,-155.23"/>
<polygon fill="#aabbaa" fill-opacity="0.533333" stroke="#aabbaa" stroke-width="1.3" stroke-opacity="0.533333" points="763.45,-152 752.85,-152.17 761.24,-158.64 763.45,-152"/>
</g>
<!-- /lib/widgets/main_layout.dart&#45;&gt;/lib/screens/editor_screen.dart -->
<g id="edge26" class="edge">
<title>/lib/widgets/main_layout.dart&#45;&gt;/lib/screens/editor_screen.dart</title>
<path fill="none" stroke="#aabbaa" stroke-width="1.3" stroke-opacity="0.533333" d="M704.4,-273.62C703.26,-273.4 702.12,-273.19 701,-273 686.59,-270.59 185.25,-275.41 175,-265 151.61,-241.25 162.24,-220.8 175,-190 179.82,-178.35 188.38,-167.86 197.37,-159.2"/>
<polygon fill="#aabbaa" fill-opacity="0.533333" stroke="#aabbaa" stroke-width="1.3" stroke-opacity="0.533333" points="199.43,-162.06 204.55,-152.78 194.76,-156.84 199.43,-162.06"/>
</g>
<!-- /lib/widgets/main_layout.dart&#45;&gt;/lib/widgets/resizable_splitter.dart -->
<g id="edge30" class="edge">
<title>/lib/widgets/main_layout.dart&#45;&gt;/lib/widgets/resizable_splitter.dart</title>
<path fill="none" stroke="#aabbaa" stroke-width="1.3" stroke-opacity="0.533333" d="M801.6,-287.19C832.14,-284.18 871.87,-277.94 905,-265 919.83,-259.21 934.77,-250.1 947.23,-241.37"/>
<polygon fill="#aabbaa" fill-opacity="0.533333" stroke="#aabbaa" stroke-width="1.3" stroke-opacity="0.533333" points="949.03,-244.38 955.06,-235.67 944.92,-238.72 949.03,-244.38"/>
</g>
<!-- /lib/widgets/left_panel.dart -->
<g id="node22" class="node">
<title>/lib/widgets/left_panel.dart</title>
<path fill="Lavender" stroke="black" stroke-width="1.3" d="M884.25,-234C884.25,-234 827.75,-234 827.75,-234 821.75,-234 815.75,-228 815.75,-222 815.75,-222 815.75,-210 815.75,-210 815.75,-204 821.75,-198 827.75,-198 827.75,-198 884.25,-198 884.25,-198 890.25,-198 896.25,-204 896.25,-210 896.25,-210 896.25,-222 896.25,-222 896.25,-228 890.25,-234 884.25,-234"/>
<text xml:space="preserve" text-anchor="middle" x="856" y="-210.75" font-family="Arial" font-size="15.00">left_panel</text>
</g>
<!-- /lib/widgets/main_layout.dart&#45;&gt;/lib/widgets/left_panel.dart -->
<g id="edge31" class="edge">
<title>/lib/widgets/main_layout.dart&#45;&gt;/lib/widgets/left_panel.dart</title>
<path fill="none" stroke="#aabbaa" stroke-width="1.3" stroke-opacity="0.533333" d="M794.78,-272.43C799.03,-270.13 803.17,-267.64 807,-265 816.21,-258.64 825.26,-250.48 833.03,-242.7"/>
<polygon fill="#aabbaa" fill-opacity="0.533333" stroke="#aabbaa" stroke-width="1.3" stroke-opacity="0.533333" points="835.14,-245.56 839.54,-235.92 830.09,-240.71 835.14,-245.56"/>
</g>
<!-- /lib/widgets/center_panel.dart -->
<g id="node23" class="node">
<title>/lib/widgets/center_panel.dart</title>
<path fill="Lavender" stroke="black" stroke-width="1.3" d="M678.12,-234C678.12,-234 599.88,-234 599.88,-234 593.88,-234 587.88,-228 587.88,-222 587.88,-222 587.88,-210 587.88,-210 587.88,-204 593.88,-198 599.88,-198 599.88,-198 678.12,-198 678.12,-198 684.12,-198 690.12,-204 690.12,-210 690.12,-210 690.12,-222 690.12,-222 690.12,-228 684.12,-234 678.12,-234"/>
<text xml:space="preserve" text-anchor="middle" x="639" y="-210.75" font-family="Arial" font-size="15.00">center_panel</text>
</g>
<!-- /lib/widgets/main_layout.dart&#45;&gt;/lib/widgets/center_panel.dart -->
<g id="edge32" class="edge">
<title>/lib/widgets/main_layout.dart&#45;&gt;/lib/widgets/center_panel.dart</title>
<path fill="none" stroke="#aabbaa" stroke-width="1.3" stroke-opacity="0.533333" d="M712.33,-272.48C707.75,-270.12 703.22,-267.61 699,-265 688.2,-258.31 677.12,-249.96 667.48,-242.1"/>
<polygon fill="#aabbaa" fill-opacity="0.533333" stroke="#aabbaa" stroke-width="1.3" stroke-opacity="0.533333" points="669.8,-239.48 659.89,-235.75 665.31,-244.85 669.8,-239.48"/>
</g>
<!-- /lib/widgets/right_panel.dart -->
<g id="node24" class="node">
<title>/lib/widgets/right_panel.dart</title>
<path fill="Lavender" stroke="black" stroke-width="1.3" d="M785.75,-234C785.75,-234 720.25,-234 720.25,-234 714.25,-234 708.25,-228 708.25,-222 708.25,-222 708.25,-210 708.25,-210 708.25,-204 714.25,-198 720.25,-198 720.25,-198 785.75,-198 785.75,-198 791.75,-198 797.75,-204 797.75,-210 797.75,-210 797.75,-222 797.75,-222 797.75,-228 791.75,-234 785.75,-234"/>
<text xml:space="preserve" text-anchor="middle" x="753" y="-210.75" font-family="Arial" font-size="15.00">right_panel</text>
</g>
<!-- /lib/widgets/main_layout.dart&#45;&gt;/lib/widgets/right_panel.dart -->
<g id="edge33" class="edge">
<title>/lib/widgets/main_layout.dart&#45;&gt;/lib/widgets/right_panel.dart</title>
<path fill="none" stroke="#aabbaa" stroke-width="1.3" stroke-opacity="0.533333" d="M753,-272.7C753,-264.76 753,-255.12 753,-246.11"/>
<polygon fill="#aabbaa" fill-opacity="0.533333" stroke="#aabbaa" stroke-width="1.3" stroke-opacity="0.533333" points="756.5,-246.4 753,-236.4 749.5,-246.4 756.5,-246.4"/>
</g>
<!-- /lib/widgets/file_explorer.dart -->
<g id="node20" class="node">
<title>/lib/widgets/file_explorer.dart</title>
<path fill="Lavender" stroke="black" stroke-width="1.3" d="M1041.5,-309C1041.5,-309 968.5,-309 968.5,-309 962.5,-309 956.5,-303 956.5,-297 956.5,-297 956.5,-285 956.5,-285 956.5,-279 962.5,-273 968.5,-273 968.5,-273 1041.5,-273 1041.5,-273 1047.5,-273 1053.5,-279 1053.5,-285 1053.5,-285 1053.5,-297 1053.5,-297 1053.5,-303 1047.5,-309 1041.5,-309"/>
<text xml:space="preserve" text-anchor="middle" x="1005" y="-285.75" font-family="Arial" font-size="15.00">file_explorer</text>
</g>
<!-- /lib/widgets/file_explorer.dart&#45;&gt;/lib/models/file_system_item.dart -->
<g id="edge35" class="edge">
<title>/lib/widgets/file_explorer.dart&#45;&gt;/lib/models/file_system_item.dart</title>
<path fill="none" stroke="#aabbaa" stroke-width="1.3" stroke-opacity="0.533333" d="M1053.95,-274.59C1056.66,-273.99 1059.35,-273.45 1062,-273 1079.54,-269.99 1209.73,-277.9 1222,-265 1244.97,-240.85 1245.3,-213.84 1222,-190 1215.12,-182.97 877.72,-183.5 868,-182 832.15,-176.48 793.14,-165.38 762.06,-155.24"/>
<polygon fill="#aabbaa" fill-opacity="0.533333" stroke="#aabbaa" stroke-width="1.3" stroke-opacity="0.533333" points="763.45,-152.01 752.85,-152.18 761.24,-158.65 763.45,-152.01"/>
</g>
<!-- /lib/widgets/file_explorer.dart&#45;&gt;/lib/services/file_system_service.dart -->
<g id="edge34" class="edge">
<title>/lib/widgets/file_explorer.dart&#45;&gt;/lib/services/file_system_service.dart</title>
<path fill="none" stroke="#aabbaa" stroke-width="1.3" stroke-opacity="0.533333" d="M1053.94,-274.57C1056.65,-273.98 1059.35,-273.45 1062,-273 1071.93,-271.33 1236.04,-272.27 1243,-265 1266.04,-240.92 1266.11,-214.02 1243,-190 1234.98,-181.67 1046.1,-185.24 1035,-182 1017.67,-176.94 1000.17,-167.44 985.82,-158.21"/>
<polygon fill="#aabbaa" fill-opacity="0.533333" stroke="#aabbaa" stroke-width="1.3" stroke-opacity="0.533333" points="987.86,-155.36 977.6,-152.7 983.96,-161.18 987.86,-155.36"/>
</g>
<!-- /lib/widgets/file_explorer.dart&#45;&gt;/lib/widgets/directory_contents.dart -->
<g id="edge36" class="edge">
<title>/lib/widgets/file_explorer.dart&#45;&gt;/lib/widgets/directory_contents.dart</title>
<path fill="none" stroke="#aabbaa" stroke-width="1.3" stroke-opacity="0.533333" d="M1037.79,-272.46C1042.25,-269.99 1046.75,-267.46 1051,-265 1064.36,-257.27 1078.8,-248.5 1091.58,-240.59"/>
<polygon fill="#aabbaa" fill-opacity="0.533333" stroke="#aabbaa" stroke-width="1.3" stroke-opacity="0.533333" points="1093.11,-243.76 1099.75,-235.51 1089.41,-237.82 1093.11,-243.76"/>
</g>
<!-- /lib/widgets/left_panel.dart&#45;&gt;/lib/models/file_system_item.dart -->
<g id="edge38" class="edge">
<title>/lib/widgets/left_panel.dart&#45;&gt;/lib/models/file_system_item.dart</title>
<path fill="none" stroke="#aabbaa" stroke-width="1.3" stroke-opacity="0.533333" d="M822.8,-197.42C800.45,-185.59 770.74,-169.86 746.49,-157.03"/>
<polygon fill="#aabbaa" fill-opacity="0.533333" stroke="#aabbaa" stroke-width="1.3" stroke-opacity="0.533333" points="748.35,-154.05 737.87,-152.46 745.07,-160.23 748.35,-154.05"/>
</g>
<!-- /lib/widgets/left_panel.dart&#45;&gt;/lib/screens/explorer_screen.dart -->
<g id="edge37" class="edge">
<title>/lib/widgets/left_panel.dart&#45;&gt;/lib/screens/explorer_screen.dart</title>
<path fill="none" stroke="#aabbaa" stroke-width="1.3" stroke-opacity="0.533333" d="M844.08,-234.38C833.83,-247.98 817.61,-264.84 798,-269 779.14,-273 469.86,-273 451,-269 431.24,-264.81 412.05,-253.2 397.1,-241.91"/>
<polygon fill="#aabbaa" fill-opacity="0.533333" stroke="#aabbaa" stroke-width="1.3" stroke-opacity="0.533333" points="399.48,-239.33 389.47,-235.85 395.12,-244.81 399.48,-239.33"/>
</g>
<!-- /lib/widgets/center_panel.dart&#45;&gt;/lib/models/file_system_item.dart -->
<g id="edge41" class="edge">
<title>/lib/widgets/center_panel.dart&#45;&gt;/lib/models/file_system_item.dart</title>
<path fill="none" stroke="#aabbaa" stroke-width="1.3" stroke-opacity="0.533333" d="M652.89,-197.42C661.36,-186.7 672.35,-172.79 681.89,-160.72"/>
<polygon fill="#aabbaa" fill-opacity="0.533333" stroke="#aabbaa" stroke-width="1.3" stroke-opacity="0.533333" points="684.47,-163.1 687.92,-153.09 678.97,-158.76 684.47,-163.1"/>
</g>
<!-- /lib/widgets/center_panel.dart&#45;&gt;/lib/screens/editor_screen.dart -->
<g id="edge40" class="edge">
<title>/lib/widgets/center_panel.dart&#45;&gt;/lib/screens/editor_screen.dart</title>
<path fill="none" stroke="#aabbaa" stroke-width="1.3" stroke-opacity="0.533333" d="M601.01,-197.47C592.91,-194.43 584.3,-191.71 576,-190 545.19,-183.66 322.62,-192.6 293,-182 279.65,-177.23 266.91,-168.39 256.48,-159.6"/>
<polygon fill="#aabbaa" fill-opacity="0.533333" stroke="#aabbaa" stroke-width="1.3" stroke-opacity="0.533333" points="258.85,-157.02 249.07,-152.96 254.18,-162.24 258.85,-157.02"/>
</g>
<!-- /lib/widgets/center_panel.dart&#45;&gt;/lib/screens/welcome_screen.dart -->
<g id="edge39" class="edge">
<title>/lib/widgets/center_panel.dart&#45;&gt;/lib/screens/welcome_screen.dart</title>
<path fill="none" stroke="#aabbaa" stroke-width="1.3" stroke-opacity="0.533333" d="M599.19,-197.39C591.6,-194.55 583.65,-191.92 576,-190 546.06,-182.46 537.12,-188.79 507,-182 477.99,-175.46 446.6,-165.11 420.81,-155.69"/>
<polygon fill="#aabbaa" fill-opacity="0.533333" stroke="#aabbaa" stroke-width="1.3" stroke-opacity="0.533333" points="422.2,-152.48 411.6,-152.28 419.76,-159.04 422.2,-152.48"/>
</g>
<!-- /lib/widgets/right_panel.dart&#45;&gt;/lib/models/file_system_item.dart -->
<g id="edge43" class="edge">
<title>/lib/widgets/right_panel.dart&#45;&gt;/lib/models/file_system_item.dart</title>
<path fill="none" stroke="#aabbaa" stroke-width="1.3" stroke-opacity="0.533333" d="M742.15,-197.42C735.66,-186.92 727.28,-173.34 719.94,-161.44"/>
<polygon fill="#aabbaa" fill-opacity="0.533333" stroke="#aabbaa" stroke-width="1.3" stroke-opacity="0.533333" points="723.09,-159.89 714.86,-153.22 717.14,-163.56 723.09,-159.89"/>
</g>
<!-- /lib/widgets/right_panel.dart&#45;&gt;/lib/screens/outline_panel.dart -->
<g id="edge42" class="edge">
<title>/lib/widgets/right_panel.dart&#45;&gt;/lib/screens/outline_panel.dart</title>
<path fill="none" stroke="#aabbaa" stroke-width="1.3" stroke-opacity="0.533333" d="M739.41,-234.55C728.03,-248.04 710.41,-264.67 690,-269 669.13,-273.43 326.87,-273.43 306,-269 288.48,-265.28 272.3,-253.81 259.92,-242.49"/>
<polygon fill="#aabbaa" fill-opacity="0.533333" stroke="#aabbaa" stroke-width="1.3" stroke-opacity="0.533333" points="262.62,-240.24 253.02,-235.76 257.73,-245.25 262.62,-240.24"/>
</g>
<!-- /tool/sort_source.dart -->
<g id="node25" class="node">
<title>/tool/sort_source.dart</title>
<path fill="Lavender" stroke="black" stroke-width="1.3" d="M984.38,-467C984.38,-467 913.62,-467 913.62,-467 907.62,-467 901.62,-461 901.62,-455 901.62,-455 901.62,-443 901.62,-443 901.62,-437 907.62,-431 913.62,-431 913.62,-431 984.38,-431 984.38,-431 990.38,-431 996.38,-437 996.38,-443 996.38,-443 996.38,-455 996.38,-455 996.38,-461 990.38,-467 984.38,-467"/>
<text xml:space="preserve" text-anchor="middle" x="949" y="-443.75" font-family="Arial" font-size="15.00">sort_source</text>
</g>
</g>
</svg>
