<?xml version="1.0" encoding="UTF-8" standalone="no"?>
<!DOCTYPE svg PUBLIC "-//W3C//DTD SVG 1.1//EN"
 "http://www.w3.org/Graphics/SVG/1.1/DTD/svg11.dtd">
<!-- Generated by graphviz version 13.1.2 (20250808.2320)
 -->
<!-- Pages: 1 -->
<svg width="2201pt" height="747pt"
 viewBox="0.00 0.00 2201.00 747.00" xmlns="http://www.w3.org/2000/svg" xmlns:xlink="http://www.w3.org/1999/xlink">
<g id="graph0" class="graph" transform="scale(1 1) rotate(0) translate(4 743)">
<polygon fill="white" stroke="none" points="-4,4 -4,-743 2196.74,-743 2196.74,4 -4,4"/>
<g id="clust1" class="cluster">
<title>cluster~</title>
<path fill="none" stroke="lightgray" stroke-width="2.6" d="M23.74,-8C23.74,-8 2172.74,-8 2172.74,-8 2178.74,-8 2184.74,-14 2184.74,-20 2184.74,-20 2184.74,-719 2184.74,-719 2184.74,-725 2178.74,-731 2172.74,-731 2172.74,-731 23.74,-731 23.74,-731 17.74,-731 11.74,-725 11.74,-719 11.74,-719 11.74,-20 11.74,-20 11.74,-14 17.74,-8 23.74,-8"/>
<text xml:space="preserve" text-anchor="middle" x="1098.24" y="-714.65" font-family="Arial Black" font-size="13.00">fide</text>
</g>
<g id="clust2" class="cluster">
<title>cluster~/test</title>
<path fill="none" stroke="lightgray" stroke-width="2.6" d="M1852.74,-625C1852.74,-625 1936.74,-625 1936.74,-625 1942.74,-625 1948.74,-631 1948.74,-637 1948.74,-637 1948.74,-688 1948.74,-688 1948.74,-694 1942.74,-700 1936.74,-700 1936.74,-700 1852.74,-700 1852.74,-700 1846.74,-700 1840.74,-694 1840.74,-688 1840.74,-688 1840.74,-637 1840.74,-637 1840.74,-631 1846.74,-625 1852.74,-625"/>
<text xml:space="preserve" text-anchor="middle" x="1894.74" y="-683.65" font-family="Arial Black" font-size="13.00">test</text>
</g>
<g id="clust3" class="cluster">
<title>cluster~/lib</title>
<path fill="none" stroke="lightgray" stroke-width="2.6" d="M31.74,-16C31.74,-16 2164.74,-16 2164.74,-16 2170.74,-16 2176.74,-22 2176.74,-28 2176.74,-28 2176.74,-605 2176.74,-605 2176.74,-611 2170.74,-617 2164.74,-617 2164.74,-617 31.74,-617 31.74,-617 25.74,-617 19.74,-611 19.74,-605 19.74,-605 19.74,-28 19.74,-28 19.74,-22 25.74,-16 31.74,-16"/>
<text xml:space="preserve" text-anchor="middle" x="1098.24" y="-600.65" font-family="Arial Black" font-size="13.00">lib</text>
</g>
<g id="clust4" class="cluster">
<title>cluster~/lib/providers</title>
<path fill="none" stroke="lightgray" stroke-width="2.6" d="M1704.74,-187C1704.74,-187 1806.74,-187 1806.74,-187 1812.74,-187 1818.74,-193 1818.74,-199 1818.74,-199 1818.74,-250 1818.74,-250 1818.74,-256 1812.74,-262 1806.74,-262 1806.74,-262 1704.74,-262 1704.74,-262 1698.74,-262 1692.74,-256 1692.74,-250 1692.74,-250 1692.74,-199 1692.74,-199 1692.74,-193 1698.74,-187 1704.74,-187"/>
<text xml:space="preserve" text-anchor="middle" x="1755.74" y="-245.65" font-family="Arial Black" font-size="13.00">providers</text>
</g>
<g id="clust5" class="cluster">
<title>cluster~/lib/panels</title>
<path fill="none" stroke="lightgray" stroke-width="2.6" d="M765.74,-179C765.74,-179 1672.74,-179 1672.74,-179 1678.74,-179 1684.74,-185 1684.74,-191 1684.74,-191 1684.74,-530 1684.74,-530 1684.74,-536 1678.74,-542 1672.74,-542 1672.74,-542 765.74,-542 765.74,-542 759.74,-542 753.74,-536 753.74,-530 753.74,-530 753.74,-191 753.74,-191 753.74,-185 759.74,-179 765.74,-179"/>
<text xml:space="preserve" text-anchor="middle" x="1219.24" y="-525.65" font-family="Arial Black" font-size="13.00">panels</text>
</g>
<g id="clust6" class="cluster">
<title>cluster~/lib/panels/right</title>
<path fill="none" stroke="lightgray" stroke-width="2.6" d="M773.74,-353C773.74,-353 959.74,-353 959.74,-353 965.74,-353 971.74,-359 971.74,-365 971.74,-365 971.74,-499 971.74,-499 971.74,-505 965.74,-511 959.74,-511 959.74,-511 773.74,-511 773.74,-511 767.74,-511 761.74,-505 761.74,-499 761.74,-499 761.74,-365 761.74,-365 761.74,-359 767.74,-353 773.74,-353"/>
<text xml:space="preserve" text-anchor="middle" x="866.74" y="-494.65" font-family="Arial Black" font-size="13.00">right</text>
</g>
<g id="clust7" class="cluster">
<title>cluster~/lib/panels/center</title>
<path fill="none" stroke="lightgray" stroke-width="2.6" d="M1434.74,-270C1434.74,-270 1664.74,-270 1664.74,-270 1670.74,-270 1676.74,-276 1676.74,-282 1676.74,-282 1676.74,-416 1676.74,-416 1676.74,-422 1670.74,-428 1664.74,-428 1664.74,-428 1434.74,-428 1434.74,-428 1428.74,-428 1422.74,-422 1422.74,-416 1422.74,-416 1422.74,-282 1422.74,-282 1422.74,-276 1428.74,-270 1434.74,-270"/>
<text xml:space="preserve" text-anchor="middle" x="1549.74" y="-411.65" font-family="Arial Black" font-size="13.00">center</text>
</g>
<g id="clust8" class="cluster">
<title>cluster~/lib/panels/left</title>
<path fill="none" stroke="lightgray" stroke-width="2.6" d="M991.74,-187C991.74,-187 1402.74,-187 1402.74,-187 1408.74,-187 1414.74,-193 1414.74,-199 1414.74,-199 1414.74,-499 1414.74,-499 1414.74,-505 1408.74,-511 1402.74,-511 1402.74,-511 991.74,-511 991.74,-511 985.74,-511 979.74,-505 979.74,-499 979.74,-499 979.74,-199 979.74,-199 979.74,-193 985.74,-187 991.74,-187"/>
<text xml:space="preserve" text-anchor="middle" x="1197.24" y="-494.65" font-family="Arial Black" font-size="13.00">left</text>
</g>
<g id="clust9" class="cluster">
<title>cluster~/lib/utils</title>
<path fill="none" stroke="lightgray" stroke-width="2.6" d="M1838.74,-187C1838.74,-187 2080.74,-187 2080.74,-187 2086.74,-187 2092.74,-193 2092.74,-199 2092.74,-199 2092.74,-250 2092.74,-250 2092.74,-256 2086.74,-262 2080.74,-262 2080.74,-262 1838.74,-262 1838.74,-262 1832.74,-262 1826.74,-256 1826.74,-250 1826.74,-250 1826.74,-199 1826.74,-199 1826.74,-193 1832.74,-187 1838.74,-187"/>
<text xml:space="preserve" text-anchor="middle" x="1959.74" y="-245.65" font-family="Arial Black" font-size="13.00">utils</text>
</g>
<g id="clust10" class="cluster">
<title>cluster~/lib/models</title>
<path fill="none" stroke="lightgray" stroke-width="2.6" d="M486.74,-24C486.74,-24 722.74,-24 722.74,-24 728.74,-24 734.74,-30 734.74,-36 734.74,-36 734.74,-159 734.74,-159 734.74,-165 728.74,-171 722.74,-171 722.74,-171 486.74,-171 486.74,-171 480.74,-171 474.74,-165 474.74,-159 474.74,-159 474.74,-36 474.74,-36 474.74,-30 480.74,-24 486.74,-24"/>
<text xml:space="preserve" text-anchor="middle" x="604.74" y="-154.65" font-family="Arial Black" font-size="13.00">models</text>
</g>
<g id="clust11" class="cluster">
<title>cluster~/lib/screens</title>
<path fill="none" stroke="lightgray" stroke-width="2.6" d="M1834.74,-436C1834.74,-436 2068.74,-436 2068.74,-436 2074.74,-436 2080.74,-442 2080.74,-448 2080.74,-448 2080.74,-499 2080.74,-499 2080.74,-505 2074.74,-511 2068.74,-511 2068.74,-511 1834.74,-511 1834.74,-511 1828.74,-511 1822.74,-505 1822.74,-499 1822.74,-499 1822.74,-448 1822.74,-448 1822.74,-442 1828.74,-436 1834.74,-436"/>
<text xml:space="preserve" text-anchor="middle" x="1951.74" y="-494.65" font-family="Arial Black" font-size="13.00">screens</text>
</g>
<g id="clust12" class="cluster">
<title>cluster~/lib/theme</title>
<path fill="none" stroke="lightgray" stroke-width="2.6" d="M1704.74,-436C1704.74,-436 1788.74,-436 1788.74,-436 1794.74,-436 1800.74,-442 1800.74,-448 1800.74,-448 1800.74,-499 1800.74,-499 1800.74,-505 1794.74,-511 1788.74,-511 1788.74,-511 1704.74,-511 1704.74,-511 1698.74,-511 1692.74,-505 1692.74,-499 1692.74,-499 1692.74,-448 1692.74,-448 1692.74,-442 1698.74,-436 1704.74,-436"/>
<text xml:space="preserve" text-anchor="middle" x="1746.74" y="-494.65" font-family="Arial Black" font-size="13.00">theme</text>
</g>
<g id="clust13" class="cluster">
<title>cluster~/lib/services</title>
<path fill="none" stroke="lightgray" stroke-width="2.6" d="M231.74,-187C231.74,-187 733.74,-187 733.74,-187 739.74,-187 745.74,-193 745.74,-199 745.74,-199 745.74,-333 745.74,-333 745.74,-339 739.74,-345 733.74,-345 733.74,-345 231.74,-345 231.74,-345 225.74,-345 219.74,-339 219.74,-333 219.74,-333 219.74,-199 219.74,-199 219.74,-193 225.74,-187 231.74,-187"/>
<text xml:space="preserve" text-anchor="middle" x="482.74" y="-328.65" font-family="Arial Black" font-size="13.00">services</text>
</g>
<g id="clust14" class="cluster">
<title>cluster~/lib/widgets</title>
<path fill="none" stroke="lightgray" stroke-width="2.6" d="M1710.74,-270C1710.74,-270 2064.74,-270 2064.74,-270 2070.74,-270 2076.74,-276 2076.74,-282 2076.74,-282 2076.74,-333 2076.74,-333 2076.74,-339 2070.74,-345 2064.74,-345 2064.74,-345 1710.74,-345 1710.74,-345 1704.74,-345 1698.74,-339 1698.74,-333 1698.74,-333 1698.74,-282 1698.74,-282 1698.74,-276 1704.74,-270 1710.74,-270"/>
<text xml:space="preserve" text-anchor="middle" x="1887.74" y="-328.65" font-family="Arial Black" font-size="13.00">widgets</text>
</g>
<g id="clust15" class="cluster">
<title>cluster~/tool</title>
<path fill="none" stroke="lightgray" stroke-width="2.6" d="M2023.74,-625C2023.74,-625 2109.74,-625 2109.74,-625 2115.74,-625 2121.74,-631 2121.74,-637 2121.74,-637 2121.74,-688 2121.74,-688 2121.74,-694 2115.74,-700 2109.74,-700 2109.74,-700 2023.74,-700 2023.74,-700 2017.74,-700 2011.74,-694 2011.74,-688 2011.74,-688 2011.74,-637 2011.74,-637 2011.74,-631 2017.74,-625 2023.74,-625"/>
<text xml:space="preserve" text-anchor="middle" x="2066.74" y="-683.65" font-family="Arial Black" font-size="13.00">tool</text>
</g>
<!-- /test/widget_test.dart -->
<g id="node1" class="node">
<title>/test/widget_test.dart</title>
<path fill="Lavender" stroke="black" stroke-width="1.3" d="M1928.62,-669C1928.62,-669 1860.87,-669 1860.87,-669 1854.87,-669 1848.87,-663 1848.87,-657 1848.87,-657 1848.87,-645 1848.87,-645 1848.87,-639 1854.87,-633 1860.87,-633 1860.87,-633 1928.62,-633 1928.62,-633 1934.62,-633 1940.62,-639 1940.62,-645 1940.62,-645 1940.62,-657 1940.62,-657 1940.62,-663 1934.62,-669 1928.62,-669"/>
<text xml:space="preserve" text-anchor="middle" x="1894.74" y="-645.75" font-family="Arial" font-size="15.00">widget_test</text>
</g>
<!-- /lib/main.dart -->
<g id="node24" class="node">
<title>/lib/main.dart</title>
<path fill="Lavender" stroke="black" stroke-width="1.3" d="M1909.74,-586C1909.74,-586 1879.74,-586 1879.74,-586 1873.74,-586 1867.74,-580 1867.74,-574 1867.74,-574 1867.74,-562 1867.74,-562 1867.74,-556 1873.74,-550 1879.74,-550 1879.74,-550 1909.74,-550 1909.74,-550 1915.74,-550 1921.74,-556 1921.74,-562 1921.74,-562 1921.74,-574 1921.74,-574 1921.74,-580 1915.74,-586 1909.74,-586"/>
<text xml:space="preserve" text-anchor="middle" x="1894.74" y="-562.75" font-family="Arial" font-size="15.00">main</text>
</g>
<!-- /test/widget_test.dart&#45;&gt;/lib/main.dart -->
<g id="edge1" class="edge">
<title>/test/widget_test.dart&#45;&gt;/lib/main.dart</title>
<path fill="none" stroke="#aabbaa" stroke-width="1.3" stroke-opacity="0.533333" d="M1894.74,-632.42C1894.74,-622.45 1894.74,-609.7 1894.74,-598.26"/>
<polygon fill="#aabbaa" fill-opacity="0.533333" stroke="#aabbaa" stroke-width="1.3" stroke-opacity="0.533333" points="1898.24,-598.51 1894.74,-588.51 1891.24,-598.51 1898.24,-598.51"/>
</g>
<!-- /lib/providers/app_providers.dart -->
<g id="node2" class="node">
<title>/lib/providers/app_providers.dart</title>
<path fill="Lavender" stroke="black" stroke-width="1.3" d="M1798.99,-231C1798.99,-231 1712.49,-231 1712.49,-231 1706.49,-231 1700.49,-225 1700.49,-219 1700.49,-219 1700.49,-207 1700.49,-207 1700.49,-201 1706.49,-195 1712.49,-195 1712.49,-195 1798.99,-195 1798.99,-195 1804.99,-195 1810.99,-201 1810.99,-207 1810.99,-207 1810.99,-219 1810.99,-219 1810.99,-225 1804.99,-231 1798.99,-231"/>
<text xml:space="preserve" text-anchor="middle" x="1755.74" y="-207.75" font-family="Arial" font-size="15.00">app_providers</text>
</g>
<!-- /lib/utils/file_type_utils.dart -->
<g id="node18" class="node">
<title>/lib/utils/file_type_utils.dart</title>
<path fill="Lavender" stroke="black" stroke-width="1.3" d="M2072.74,-231C2072.74,-231 1990.74,-231 1990.74,-231 1984.74,-231 1978.74,-225 1978.74,-219 1978.74,-219 1978.74,-207 1978.74,-207 1978.74,-201 1984.74,-195 1990.74,-195 1990.74,-195 2072.74,-195 2072.74,-195 2078.74,-195 2084.74,-201 2084.74,-207 2084.74,-207 2084.74,-219 2084.74,-219 2084.74,-225 2078.74,-231 2072.74,-231"/>
<text xml:space="preserve" text-anchor="middle" x="2031.74" y="-207.75" font-family="Arial" font-size="15.00">file_type_utils</text>
</g>
<!-- /lib/providers/app_providers.dart&#45;&gt;/lib/utils/file_type_utils.dart -->
<g id="edge6" class="edge">
<title>/lib/providers/app_providers.dart&#45;&gt;/lib/utils/file_type_utils.dart</title>
<path fill="none" stroke="#aabbaa" stroke-width="1.3" stroke-opacity="0.533333" d="M1773.35,-231.52C1787.58,-244.8 1808.93,-261.16 1831.74,-266 1845.76,-268.98 1946.72,-268.98 1960.74,-266 1965.03,-265.09 1966,-264.26 1969.74,-262 1980.78,-255.33 1992.07,-246.96 2001.93,-239.03"/>
<polygon fill="#aabbaa" fill-opacity="0.533333" stroke="#aabbaa" stroke-width="1.3" stroke-opacity="0.533333" points="2003.9,-241.94 2009.39,-232.88 1999.44,-236.54 2003.9,-241.94"/>
</g>
<!-- /lib/models/project_node.dart -->
<g id="node19" class="node">
<title>/lib/models/project_node.dart</title>
<path fill="Lavender" stroke="black" stroke-width="1.3" d="M572.87,-140C572.87,-140 494.62,-140 494.62,-140 488.62,-140 482.62,-134 482.62,-128 482.62,-128 482.62,-116 482.62,-116 482.62,-110 488.62,-104 494.62,-104 494.62,-104 572.87,-104 572.87,-104 578.87,-104 584.87,-110 584.87,-116 584.87,-116 584.87,-128 584.87,-128 584.87,-134 578.87,-140 572.87,-140"/>
<text xml:space="preserve" text-anchor="middle" x="533.74" y="-116.75" font-family="Arial" font-size="15.00">project_node</text>
</g>
<!-- /lib/providers/app_providers.dart&#45;&gt;/lib/models/project_node.dart -->
<g id="edge3" class="edge">
<title>/lib/providers/app_providers.dart&#45;&gt;/lib/models/project_node.dart</title>
<path fill="none" stroke="#aabbaa" stroke-width="1.3" stroke-opacity="0.533333" d="M1700.1,-205.04C1633.38,-197.04 1518.1,-184.34 1418.74,-179 1395.86,-177.77 615.33,-178.69 593.74,-171 580.47,-166.27 567.93,-157.27 557.78,-148.33"/>
<polygon fill="#aabbaa" fill-opacity="0.533333" stroke="#aabbaa" stroke-width="1.3" stroke-opacity="0.533333" points="560.3,-145.89 550.62,-141.6 555.51,-151 560.3,-145.89"/>
</g>
<!-- /lib/models/document_state.dart -->
<g id="node20" class="node">
<title>/lib/models/document_state.dart</title>
<path fill="Lavender" stroke="black" stroke-width="1.3" d="M714.37,-140C714.37,-140 615.12,-140 615.12,-140 609.12,-140 603.12,-134 603.12,-128 603.12,-128 603.12,-116 603.12,-116 603.12,-110 609.12,-104 615.12,-104 615.12,-104 714.37,-104 714.37,-104 720.37,-104 726.37,-110 726.37,-116 726.37,-116 726.37,-128 726.37,-128 726.37,-134 720.37,-140 714.37,-140"/>
<text xml:space="preserve" text-anchor="middle" x="664.74" y="-116.75" font-family="Arial" font-size="15.00">document_state</text>
</g>
<!-- /lib/providers/app_providers.dart&#45;&gt;/lib/models/document_state.dart -->
<g id="edge4" class="edge">
<title>/lib/providers/app_providers.dart&#45;&gt;/lib/models/document_state.dart</title>
<path fill="none" stroke="#aabbaa" stroke-width="1.3" stroke-opacity="0.533333" d="M1700.03,-206.14C1633.23,-199.21 1517.87,-187.53 1418.74,-179 1169.61,-157.55 873.73,-137.02 738.64,-127.91"/>
<polygon fill="#aabbaa" fill-opacity="0.533333" stroke="#aabbaa" stroke-width="1.3" stroke-opacity="0.533333" points="739.02,-124.43 728.81,-127.25 738.55,-131.41 739.02,-124.43"/>
</g>
<!-- /lib/models/file_system_item.dart -->
<g id="node21" class="node">
<title>/lib/models/file_system_item.dart</title>
<path fill="Lavender" stroke="black" stroke-width="1.3" d="M598.62,-68C598.62,-68 494.87,-68 494.87,-68 488.87,-68 482.87,-62 482.87,-56 482.87,-56 482.87,-44 482.87,-44 482.87,-38 488.87,-32 494.87,-32 494.87,-32 598.62,-32 598.62,-32 604.62,-32 610.62,-38 610.62,-44 610.62,-44 610.62,-56 610.62,-56 610.62,-62 604.62,-68 598.62,-68"/>
<text xml:space="preserve" text-anchor="middle" x="546.74" y="-44.75" font-family="Arial" font-size="15.00">file_system_item</text>
</g>
<!-- /lib/providers/app_providers.dart&#45;&gt;/lib/models/file_system_item.dart -->
<g id="edge2" class="edge">
<title>/lib/providers/app_providers.dart&#45;&gt;/lib/models/file_system_item.dart</title>
<path fill="none" stroke="#aabbaa" stroke-width="1.3" stroke-opacity="0.533333" d="M1699.95,-199.06C1600.03,-176.36 1383.67,-129.37 1198.74,-104 991.31,-75.55 744.5,-60.59 622.61,-54.44"/>
<polygon fill="#aabbaa" fill-opacity="0.533333" stroke="#aabbaa" stroke-width="1.3" stroke-opacity="0.533333" points="622.98,-50.96 612.82,-53.96 622.63,-57.95 622.98,-50.96"/>
</g>
<!-- /lib/services/project_service.dart -->
<g id="node26" class="node">
<title>/lib/services/project_service.dart</title>
<path fill="Lavender" stroke="black" stroke-width="1.3" d="M597.99,-314C597.99,-314 505.49,-314 505.49,-314 499.49,-314 493.49,-308 493.49,-302 493.49,-302 493.49,-290 493.49,-290 493.49,-284 499.49,-278 505.49,-278 505.49,-278 597.99,-278 597.99,-278 603.99,-278 609.99,-284 609.99,-290 609.99,-290 609.99,-302 609.99,-302 609.99,-308 603.99,-314 597.99,-314"/>
<text xml:space="preserve" text-anchor="middle" x="551.74" y="-290.75" font-family="Arial" font-size="15.00">project_service</text>
</g>
<!-- /lib/providers/app_providers.dart&#45;&gt;/lib/services/project_service.dart -->
<g id="edge5" class="edge">
<title>/lib/providers/app_providers.dart&#45;&gt;/lib/services/project_service.dart</title>
<path fill="none" stroke="#aabbaa" stroke-width="1.3" stroke-opacity="0.533333" d="M1699.94,-225.41C1634.83,-237.14 1524.09,-254.69 1427.74,-262 1339.22,-268.72 716.07,-254 628.74,-270 623.38,-270.98 617.89,-272.35 612.41,-273.94"/>
<polygon fill="#aabbaa" fill-opacity="0.533333" stroke="#aabbaa" stroke-width="1.3" stroke-opacity="0.533333" points="611.61,-270.52 603.13,-276.88 613.72,-277.2 611.61,-270.52"/>
</g>
<!-- /lib/panels/right/outline_panel.dart -->
<g id="node3" class="node">
<title>/lib/panels/right/outline_panel.dart</title>
<path fill="Lavender" stroke="black" stroke-width="1.3" d="M951.62,-397C951.62,-397 871.87,-397 871.87,-397 865.87,-397 859.87,-391 859.87,-385 859.87,-385 859.87,-373 859.87,-373 859.87,-367 865.87,-361 871.87,-361 871.87,-361 951.62,-361 951.62,-361 957.62,-361 963.62,-367 963.62,-373 963.62,-373 963.62,-385 963.62,-385 963.62,-391 957.62,-397 951.62,-397"/>
<text xml:space="preserve" text-anchor="middle" x="911.74" y="-373.75" font-family="Arial" font-size="15.00">outline_panel</text>
</g>
<!-- /lib/panels/center/editor_screen.dart -->
<g id="node6" class="node">
<title>/lib/panels/center/editor_screen.dart</title>
<path fill="Lavender" stroke="black" stroke-width="1.3" d="M1657.12,-314C1657.12,-314 1574.37,-314 1574.37,-314 1568.37,-314 1562.37,-308 1562.37,-302 1562.37,-302 1562.37,-290 1562.37,-290 1562.37,-284 1568.37,-278 1574.37,-278 1574.37,-278 1657.12,-278 1657.12,-278 1663.12,-278 1669.12,-284 1669.12,-290 1669.12,-290 1669.12,-302 1669.12,-302 1669.12,-308 1663.12,-314 1657.12,-314"/>
<text xml:space="preserve" text-anchor="middle" x="1615.74" y="-290.75" font-family="Arial" font-size="15.00">editor_screen</text>
</g>
<!-- /lib/panels/right/outline_panel.dart&#45;&gt;/lib/panels/center/editor_screen.dart -->
<g id="edge8" class="edge">
<title>/lib/panels/right/outline_panel.dart&#45;&gt;/lib/panels/center/editor_screen.dart</title>
<path fill="none" stroke="#aabbaa" stroke-width="1.3" stroke-opacity="0.533333" d="M950.34,-360.37C958.56,-357.35 967.31,-354.65 975.74,-353 1007.26,-346.84 1523.43,-355.6 1553.74,-345 1567.46,-340.21 1580.52,-331.06 1591.08,-322.04"/>
<polygon fill="#aabbaa" fill-opacity="0.533333" stroke="#aabbaa" stroke-width="1.3" stroke-opacity="0.533333" points="1593.16,-324.87 1598.21,-315.56 1588.46,-319.69 1593.16,-324.87"/>
</g>
<!-- /lib/panels/right/outline_panel.dart&#45;&gt;/lib/models/file_system_item.dart -->
<g id="edge7" class="edge">
<title>/lib/panels/right/outline_panel.dart&#45;&gt;/lib/models/file_system_item.dart</title>
<path fill="none" stroke="#aabbaa" stroke-width="1.3" stroke-opacity="0.533333" d="M875.02,-360.36C867.18,-357.33 858.82,-354.64 850.74,-353 831.5,-349.1 157.55,-358.97 143.74,-345 106.09,-306.92 108.43,-144.26 143.74,-104 164.93,-79.85 359.92,-63.24 470.71,-55.66"/>
<polygon fill="#aabbaa" fill-opacity="0.533333" stroke="#aabbaa" stroke-width="1.3" stroke-opacity="0.533333" points="470.76,-59.16 480.51,-55 470.29,-52.18 470.76,-59.16"/>
</g>
<!-- /lib/panels/right/ai_panel.dart -->
<g id="node4" class="node">
<title>/lib/panels/right/ai_panel.dart</title>
<path fill="Lavender" stroke="black" stroke-width="1.3" d="M829.49,-397C829.49,-397 781.99,-397 781.99,-397 775.99,-397 769.99,-391 769.99,-385 769.99,-385 769.99,-373 769.99,-373 769.99,-367 775.99,-361 781.99,-361 781.99,-361 829.49,-361 829.49,-361 835.49,-361 841.49,-367 841.49,-373 841.49,-373 841.49,-385 841.49,-385 841.49,-391 835.49,-397 829.49,-397"/>
<text xml:space="preserve" text-anchor="middle" x="805.74" y="-373.75" font-family="Arial" font-size="15.00">ai_panel</text>
</g>
<!-- /lib/panels/right/ai_panel.dart&#45;&gt;/lib/models/file_system_item.dart -->
<g id="edge10" class="edge">
<title>/lib/panels/right/ai_panel.dart&#45;&gt;/lib/models/file_system_item.dart</title>
<path fill="none" stroke="#aabbaa" stroke-width="1.3" stroke-opacity="0.533333" d="M769.72,-376.42C629.35,-370.25 126.56,-347.95 123.74,-345 86.8,-306.23 88.31,-144.15 123.74,-104 146.27,-78.48 354.91,-62.26 470.51,-55.16"/>
<polygon fill="#aabbaa" fill-opacity="0.533333" stroke="#aabbaa" stroke-width="1.3" stroke-opacity="0.533333" points="470.69,-58.66 480.46,-54.56 470.26,-51.67 470.69,-58.66"/>
</g>
<!-- /lib/services/ai_service.dart -->
<g id="node29" class="node">
<title>/lib/services/ai_service.dart</title>
<path fill="Lavender" stroke="black" stroke-width="1.3" d="M298.12,-314C298.12,-314 239.37,-314 239.37,-314 233.37,-314 227.37,-308 227.37,-302 227.37,-302 227.37,-290 227.37,-290 227.37,-284 233.37,-278 239.37,-278 239.37,-278 298.12,-278 298.12,-278 304.12,-278 310.12,-284 310.12,-290 310.12,-290 310.12,-302 310.12,-302 310.12,-308 304.12,-314 298.12,-314"/>
<text xml:space="preserve" text-anchor="middle" x="268.74" y="-290.75" font-family="Arial" font-size="15.00">ai_service</text>
</g>
<!-- /lib/panels/right/ai_panel.dart&#45;&gt;/lib/services/ai_service.dart -->
<g id="edge9" class="edge">
<title>/lib/panels/right/ai_panel.dart&#45;&gt;/lib/services/ai_service.dart</title>
<path fill="none" stroke="#aabbaa" stroke-width="1.3" stroke-opacity="0.533333" d="M769.39,-376.94C663.56,-373.66 360.58,-362.82 319.74,-345 308.5,-340.09 298.19,-331.59 289.83,-323.1"/>
<polygon fill="#aabbaa" fill-opacity="0.533333" stroke="#aabbaa" stroke-width="1.3" stroke-opacity="0.533333" points="292.53,-320.86 283.19,-315.84 287.36,-325.59 292.53,-320.86"/>
</g>
<!-- /lib/panels/right/right_panel.dart -->
<g id="node5" class="node">
<title>/lib/panels/right/right_panel.dart</title>
<path fill="Lavender" stroke="black" stroke-width="1.3" d="M895.49,-480C895.49,-480 829.99,-480 829.99,-480 823.99,-480 817.99,-474 817.99,-468 817.99,-468 817.99,-456 817.99,-456 817.99,-450 823.99,-444 829.99,-444 829.99,-444 895.49,-444 895.49,-444 901.49,-444 907.49,-450 907.49,-456 907.49,-456 907.49,-468 907.49,-468 907.49,-474 901.49,-480 895.49,-480"/>
<text xml:space="preserve" text-anchor="middle" x="862.74" y="-456.75" font-family="Arial" font-size="15.00">right_panel</text>
</g>
<!-- /lib/panels/right/right_panel.dart&#45;&gt;/lib/panels/right/outline_panel.dart -->
<g id="edge11" class="edge">
<title>/lib/panels/right/right_panel.dart&#45;&gt;/lib/panels/right/outline_panel.dart</title>
<path fill="none" stroke="#aabbaa" stroke-width="1.3" stroke-opacity="0.533333" d="M873.38,-443.42C879.73,-432.92 887.95,-419.34 895.14,-407.44"/>
<polygon fill="#aabbaa" fill-opacity="0.533333" stroke="#aabbaa" stroke-width="1.3" stroke-opacity="0.533333" points="897.93,-409.59 900.11,-399.23 891.94,-405.97 897.93,-409.59"/>
</g>
<!-- /lib/panels/right/right_panel.dart&#45;&gt;/lib/panels/right/ai_panel.dart -->
<g id="edge12" class="edge">
<title>/lib/panels/right/right_panel.dart&#45;&gt;/lib/panels/right/ai_panel.dart</title>
<path fill="none" stroke="#aabbaa" stroke-width="1.3" stroke-opacity="0.533333" d="M850.38,-443.42C842.91,-432.81 833.23,-419.06 824.8,-407.08"/>
<polygon fill="#aabbaa" fill-opacity="0.533333" stroke="#aabbaa" stroke-width="1.3" stroke-opacity="0.533333" points="827.84,-405.31 819.22,-399.15 822.11,-409.34 827.84,-405.31"/>
</g>
<!-- /lib/panels/right/right_panel.dart&#45;&gt;/lib/models/file_system_item.dart -->
<g id="edge13" class="edge">
<title>/lib/panels/right/right_panel.dart&#45;&gt;/lib/models/file_system_item.dart</title>
<path fill="none" stroke="#aabbaa" stroke-width="1.3" stroke-opacity="0.533333" d="M817.37,-460.62C652.46,-459.07 92.99,-452.03 63.74,-428 -11.3,-366.34 -21.98,-177.01 43.74,-104 71.76,-72.88 337.27,-58.71 470.81,-53.51"/>
<polygon fill="#aabbaa" fill-opacity="0.533333" stroke="#aabbaa" stroke-width="1.3" stroke-opacity="0.533333" points="470.71,-57.02 480.57,-53.14 470.44,-50.02 470.71,-57.02"/>
</g>
<!-- /lib/panels/center/editor_screen.dart&#45;&gt;/lib/providers/app_providers.dart -->
<g id="edge14" class="edge">
<title>/lib/panels/center/editor_screen.dart&#45;&gt;/lib/providers/app_providers.dart</title>
<path fill="none" stroke="#aabbaa" stroke-width="1.3" stroke-opacity="0.533333" d="M1646.12,-277.42C1666.39,-265.7 1693.28,-250.14 1715.35,-237.37"/>
<polygon fill="#aabbaa" fill-opacity="0.533333" stroke="#aabbaa" stroke-width="1.3" stroke-opacity="0.533333" points="1716.82,-240.56 1723.72,-232.53 1713.31,-234.51 1716.82,-240.56"/>
</g>
<!-- /lib/utils/message_helper.dart -->
<g id="node17" class="node">
<title>/lib/utils/message_helper.dart</title>
<path fill="Lavender" stroke="black" stroke-width="1.3" d="M1948.87,-231C1948.87,-231 1846.62,-231 1846.62,-231 1840.62,-231 1834.62,-225 1834.62,-219 1834.62,-219 1834.62,-207 1834.62,-207 1834.62,-201 1840.62,-195 1846.62,-195 1846.62,-195 1948.87,-195 1948.87,-195 1954.87,-195 1960.87,-201 1960.87,-207 1960.87,-207 1960.87,-219 1960.87,-219 1960.87,-225 1954.87,-231 1948.87,-231"/>
<text xml:space="preserve" text-anchor="middle" x="1897.74" y="-207.75" font-family="Arial" font-size="15.00">message_helper</text>
</g>
<!-- /lib/panels/center/editor_screen.dart&#45;&gt;/lib/utils/message_helper.dart -->
<g id="edge15" class="edge">
<title>/lib/panels/center/editor_screen.dart&#45;&gt;/lib/utils/message_helper.dart</title>
<path fill="none" stroke="#aabbaa" stroke-width="1.3" stroke-opacity="0.533333" d="M1665,-277.38C1674.75,-274.48 1684.99,-271.82 1694.74,-270 1750.78,-259.55 1768.56,-279.71 1822.74,-262 1838.67,-256.8 1854.55,-247.4 1867.57,-238.28"/>
<polygon fill="#aabbaa" fill-opacity="0.533333" stroke="#aabbaa" stroke-width="1.3" stroke-opacity="0.533333" points="1869.33,-241.34 1875.34,-232.61 1865.2,-235.68 1869.33,-241.34"/>
</g>
<!-- /lib/panels/center/editor_screen.dart&#45;&gt;/lib/utils/file_type_utils.dart -->
<g id="edge16" class="edge">
<title>/lib/panels/center/editor_screen.dart&#45;&gt;/lib/utils/file_type_utils.dart</title>
<path fill="none" stroke="#aabbaa" stroke-width="1.3" stroke-opacity="0.533333" d="M1664.11,-277.37C1674.11,-274.39 1684.67,-271.71 1694.74,-270 1724.88,-264.9 1940.97,-272.31 1969.74,-262 1983.09,-257.22 1995.83,-248.39 2006.26,-239.59"/>
<polygon fill="#aabbaa" fill-opacity="0.533333" stroke="#aabbaa" stroke-width="1.3" stroke-opacity="0.533333" points="2008.56,-242.23 2013.67,-232.95 2003.89,-237.02 2008.56,-242.23"/>
</g>
<!-- /lib/panels/center/editor_screen.dart&#45;&gt;/lib/models/document_state.dart -->
<g id="edge17" class="edge">
<title>/lib/panels/center/editor_screen.dart&#45;&gt;/lib/models/document_state.dart</title>
<path fill="none" stroke="#aabbaa" stroke-width="1.3" stroke-opacity="0.533333" d="M1578.39,-277.37C1570.42,-274.35 1561.94,-271.65 1553.74,-270 1538,-266.83 988.56,-271.67 975.74,-262 944.98,-238.81 979.3,-204.86 950.74,-179 920.17,-151.32 812.55,-136.18 738.41,-128.84"/>
<polygon fill="#aabbaa" fill-opacity="0.533333" stroke="#aabbaa" stroke-width="1.3" stroke-opacity="0.533333" points="739.07,-125.39 728.78,-127.92 738.4,-132.36 739.07,-125.39"/>
</g>
<!-- /lib/panels/center/terminal_panel.dart -->
<g id="node7" class="node">
<title>/lib/panels/center/terminal_panel.dart</title>
<path fill="Lavender" stroke="black" stroke-width="1.3" d="M1532.49,-314C1532.49,-314 1442.99,-314 1442.99,-314 1436.99,-314 1430.99,-308 1430.99,-302 1430.99,-302 1430.99,-290 1430.99,-290 1430.99,-284 1436.99,-278 1442.99,-278 1442.99,-278 1532.49,-278 1532.49,-278 1538.49,-278 1544.49,-284 1544.49,-290 1544.49,-290 1544.49,-302 1544.49,-302 1544.49,-308 1538.49,-314 1532.49,-314"/>
<text xml:space="preserve" text-anchor="middle" x="1487.74" y="-290.75" font-family="Arial" font-size="15.00">terminal_panel</text>
</g>
<!-- /lib/panels/center/terminal_panel.dart&#45;&gt;/lib/providers/app_providers.dart -->
<g id="edge18" class="edge">
<title>/lib/panels/center/terminal_panel.dart&#45;&gt;/lib/providers/app_providers.dart</title>
<path fill="none" stroke="#aabbaa" stroke-width="1.3" stroke-opacity="0.533333" d="M1532.64,-277.37C1539.66,-274.79 1546.87,-272.25 1553.74,-270 1598.29,-255.42 1649.14,-241.34 1688.67,-230.94"/>
<polygon fill="#aabbaa" fill-opacity="0.533333" stroke="#aabbaa" stroke-width="1.3" stroke-opacity="0.533333" points="1689.34,-234.39 1698.13,-228.47 1687.57,-227.61 1689.34,-234.39"/>
</g>
<!-- /lib/panels/center/center_panel.dart -->
<g id="node8" class="node">
<title>/lib/panels/center/center_panel.dart</title>
<path fill="Lavender" stroke="black" stroke-width="1.3" d="M1656.87,-397C1656.87,-397 1578.62,-397 1578.62,-397 1572.62,-397 1566.62,-391 1566.62,-385 1566.62,-385 1566.62,-373 1566.62,-373 1566.62,-367 1572.62,-361 1578.62,-361 1578.62,-361 1656.87,-361 1656.87,-361 1662.87,-361 1668.87,-367 1668.87,-373 1668.87,-373 1668.87,-385 1668.87,-385 1668.87,-391 1662.87,-397 1656.87,-397"/>
<text xml:space="preserve" text-anchor="middle" x="1617.74" y="-373.75" font-family="Arial" font-size="15.00">center_panel</text>
</g>
<!-- /lib/panels/center/center_panel.dart&#45;&gt;/lib/providers/app_providers.dart -->
<g id="edge19" class="edge">
<title>/lib/panels/center/center_panel.dart&#45;&gt;/lib/providers/app_providers.dart</title>
<path fill="none" stroke="#aabbaa" stroke-width="1.3" stroke-opacity="0.533333" d="M1660.65,-360.41C1667.13,-356.18 1673.17,-351.08 1677.74,-345 1698.3,-317.7 1677.6,-299.57 1694.74,-270 1701.48,-258.38 1711.42,-247.79 1721.33,-239.02"/>
<polygon fill="#aabbaa" fill-opacity="0.533333" stroke="#aabbaa" stroke-width="1.3" stroke-opacity="0.533333" points="1723.39,-241.86 1728.82,-232.76 1718.9,-236.48 1723.39,-241.86"/>
</g>
<!-- /lib/panels/center/center_panel.dart&#45;&gt;/lib/panels/center/editor_screen.dart -->
<g id="edge21" class="edge">
<title>/lib/panels/center/center_panel.dart&#45;&gt;/lib/panels/center/editor_screen.dart</title>
<path fill="none" stroke="#aabbaa" stroke-width="1.3" stroke-opacity="0.533333" d="M1617.31,-360.42C1617.06,-350.45 1616.75,-337.7 1616.47,-326.26"/>
<polygon fill="#aabbaa" fill-opacity="0.533333" stroke="#aabbaa" stroke-width="1.3" stroke-opacity="0.533333" points="1619.97,-326.42 1616.23,-316.51 1612.97,-326.59 1619.97,-326.42"/>
</g>
<!-- /lib/panels/center/center_panel.dart&#45;&gt;/lib/panels/center/terminal_panel.dart -->
<g id="edge22" class="edge">
<title>/lib/panels/center/center_panel.dart&#45;&gt;/lib/panels/center/terminal_panel.dart</title>
<path fill="none" stroke="#aabbaa" stroke-width="1.3" stroke-opacity="0.533333" d="M1581.33,-360.44C1572.17,-355.7 1562.47,-350.38 1553.74,-345 1542.2,-337.88 1530.06,-329.38 1519.39,-321.52"/>
<polygon fill="#aabbaa" fill-opacity="0.533333" stroke="#aabbaa" stroke-width="1.3" stroke-opacity="0.533333" points="1521.74,-318.91 1511.64,-315.72 1517.55,-324.51 1521.74,-318.91"/>
</g>
<!-- /lib/panels/center/center_panel.dart&#45;&gt;/lib/models/file_system_item.dart -->
<g id="edge24" class="edge">
<title>/lib/panels/center/center_panel.dart&#45;&gt;/lib/models/file_system_item.dart</title>
<path fill="none" stroke="#aabbaa" stroke-width="1.3" stroke-opacity="0.533333" d="M1566.36,-369.85C1526.27,-363.9 1469.12,-356.32 1418.74,-353 1410.41,-352.45 221.63,-350.93 215.74,-345 163.75,-292.66 174.58,-240.23 215.74,-179 271.98,-95.35 391.52,-66.34 470.49,-56.29"/>
<polygon fill="#aabbaa" fill-opacity="0.533333" stroke="#aabbaa" stroke-width="1.3" stroke-opacity="0.533333" points="470.84,-59.78 480.36,-55.12 470.02,-52.83 470.84,-59.78"/>
</g>
<!-- /lib/screens/welcome_screen.dart -->
<g id="node23" class="node">
<title>/lib/screens/welcome_screen.dart</title>
<path fill="Lavender" stroke="black" stroke-width="1.3" d="M1946.62,-480C1946.62,-480 1842.87,-480 1842.87,-480 1836.87,-480 1830.87,-474 1830.87,-468 1830.87,-468 1830.87,-456 1830.87,-456 1830.87,-450 1836.87,-444 1842.87,-444 1842.87,-444 1946.62,-444 1946.62,-444 1952.62,-444 1958.62,-450 1958.62,-456 1958.62,-456 1958.62,-468 1958.62,-468 1958.62,-474 1952.62,-480 1946.62,-480"/>
<text xml:space="preserve" text-anchor="middle" x="1894.74" y="-456.75" font-family="Arial" font-size="15.00">welcome_screen</text>
</g>
<!-- /lib/panels/center/center_panel.dart&#45;&gt;/lib/screens/welcome_screen.dart -->
<g id="edge20" class="edge">
<title>/lib/panels/center/center_panel.dart&#45;&gt;/lib/screens/welcome_screen.dart</title>
<path fill="none" stroke="#aabbaa" stroke-width="1.3" stroke-opacity="0.533333" d="M1669.35,-395.09C1712.73,-407.78 1775.18,-426.04 1823.35,-440.12"/>
<polygon fill="#aabbaa" fill-opacity="0.533333" stroke="#aabbaa" stroke-width="1.3" stroke-opacity="0.533333" points="1822.17,-443.42 1832.75,-442.87 1824.13,-436.71 1822.17,-443.42"/>
</g>
<!-- /lib/widgets/resizable_splitter.dart -->
<g id="node32" class="node">
<title>/lib/widgets/resizable_splitter.dart</title>
<path fill="Lavender" stroke="black" stroke-width="1.3" d="M1822.62,-314C1822.62,-314 1718.87,-314 1718.87,-314 1712.87,-314 1706.87,-308 1706.87,-302 1706.87,-302 1706.87,-290 1706.87,-290 1706.87,-284 1712.87,-278 1718.87,-278 1718.87,-278 1822.62,-278 1822.62,-278 1828.62,-278 1834.62,-284 1834.62,-290 1834.62,-290 1834.62,-302 1834.62,-302 1834.62,-308 1828.62,-314 1822.62,-314"/>
<text xml:space="preserve" text-anchor="middle" x="1770.74" y="-290.75" font-family="Arial" font-size="15.00">resizable_splitter</text>
</g>
<!-- /lib/panels/center/center_panel.dart&#45;&gt;/lib/widgets/resizable_splitter.dart -->
<g id="edge23" class="edge">
<title>/lib/panels/center/center_panel.dart&#45;&gt;/lib/widgets/resizable_splitter.dart</title>
<path fill="none" stroke="#aabbaa" stroke-width="1.3" stroke-opacity="0.533333" d="M1660.27,-360.5C1671.01,-355.75 1682.41,-350.42 1692.74,-345 1706.63,-337.72 1721.4,-328.92 1734.3,-320.86"/>
<polygon fill="#aabbaa" fill-opacity="0.533333" stroke="#aabbaa" stroke-width="1.3" stroke-opacity="0.533333" points="1735.96,-323.95 1742.54,-315.64 1732.22,-318.03 1735.96,-323.95"/>
</g>
<!-- /lib/panels/left/git_panel.dart -->
<g id="node9" class="node">
<title>/lib/panels/left/git_panel.dart</title>
<path fill="Lavender" stroke="black" stroke-width="1.3" d="M1162.74,-231C1162.74,-231 1110.74,-231 1110.74,-231 1104.74,-231 1098.74,-225 1098.74,-219 1098.74,-219 1098.74,-207 1098.74,-207 1098.74,-201 1104.74,-195 1110.74,-195 1110.74,-195 1162.74,-195 1162.74,-195 1168.74,-195 1174.74,-201 1174.74,-207 1174.74,-207 1174.74,-219 1174.74,-219 1174.74,-225 1168.74,-231 1162.74,-231"/>
<text xml:space="preserve" text-anchor="middle" x="1136.74" y="-207.75" font-family="Arial" font-size="15.00">git_panel</text>
</g>
<!-- /lib/services/git_service.dart -->
<g id="node27" class="node">
<title>/lib/services/git_service.dart</title>
<path fill="Lavender" stroke="black" stroke-width="1.3" d="M725.37,-231C725.37,-231 662.12,-231 662.12,-231 656.12,-231 650.12,-225 650.12,-219 650.12,-219 650.12,-207 650.12,-207 650.12,-201 656.12,-195 662.12,-195 662.12,-195 725.37,-195 725.37,-195 731.37,-195 737.37,-201 737.37,-207 737.37,-207 737.37,-219 737.37,-219 737.37,-225 731.37,-231 725.37,-231"/>
<text xml:space="preserve" text-anchor="middle" x="693.74" y="-207.75" font-family="Arial" font-size="15.00">git_service</text>
</g>
<!-- /lib/panels/left/git_panel.dart&#45;&gt;/lib/services/git_service.dart -->
<g id="edge25" class="edge">
<title>/lib/panels/left/git_panel.dart&#45;&gt;/lib/services/git_service.dart</title>
<path fill="none" stroke="#aabbaa" stroke-width="1.3" stroke-opacity="0.533333" d="M1098.18,-213C982.07,-213 865.95,-213 749.83,-213"/>
<polygon fill="#aabbaa" fill-opacity="0.533333" stroke="#aabbaa" stroke-width="1.3" stroke-opacity="0.533333" points="749.84,-209.5 739.84,-213 749.84,-216.5 749.84,-209.5"/>
</g>
<!-- /lib/panels/left/left_panel_controls.dart -->
<g id="node10" class="node">
<title>/lib/panels/left/left_panel_controls.dart</title>
<path fill="Lavender" stroke="black" stroke-width="1.3" d="M1117.37,-480C1117.37,-480 1000.12,-480 1000.12,-480 994.12,-480 988.12,-474 988.12,-468 988.12,-468 988.12,-456 988.12,-456 988.12,-450 994.12,-444 1000.12,-444 1000.12,-444 1117.37,-444 1117.37,-444 1123.37,-444 1129.37,-450 1129.37,-456 1129.37,-456 1129.37,-468 1129.37,-468 1129.37,-474 1123.37,-480 1117.37,-480"/>
<text xml:space="preserve" text-anchor="middle" x="1058.74" y="-456.75" font-family="Arial" font-size="15.00">left_panel_controls</text>
</g>
<!-- /lib/panels/left/base_panel.dart -->
<g id="node11" class="node">
<title>/lib/panels/left/base_panel.dart</title>
<path fill="Lavender" stroke="black" stroke-width="1.3" d="M1227.99,-314C1227.99,-314 1159.49,-314 1159.49,-314 1153.49,-314 1147.49,-308 1147.49,-302 1147.49,-302 1147.49,-290 1147.49,-290 1147.49,-284 1153.49,-278 1159.49,-278 1159.49,-278 1227.99,-278 1227.99,-278 1233.99,-278 1239.99,-284 1239.99,-290 1239.99,-290 1239.99,-302 1239.99,-302 1239.99,-308 1233.99,-314 1227.99,-314"/>
<text xml:space="preserve" text-anchor="middle" x="1193.74" y="-290.75" font-family="Arial" font-size="15.00">base_panel</text>
</g>
<!-- /lib/panels/left/base_panel.dart&#45;&gt;/lib/providers/app_providers.dart -->
<g id="edge31" class="edge">
<title>/lib/panels/left/base_panel.dart&#45;&gt;/lib/providers/app_providers.dart</title>
<path fill="none" stroke="#aabbaa" stroke-width="1.3" stroke-opacity="0.533333" d="M1240.21,-288.3C1339.53,-273.99 1572.79,-240.37 1688.38,-223.71"/>
<polygon fill="#aabbaa" fill-opacity="0.533333" stroke="#aabbaa" stroke-width="1.3" stroke-opacity="0.533333" points="1688.86,-227.18 1698.26,-222.29 1687.86,-220.25 1688.86,-227.18"/>
</g>
<!-- /lib/panels/left/base_panel.dart&#45;&gt;/lib/panels/left/git_panel.dart -->
<g id="edge30" class="edge">
<title>/lib/panels/left/base_panel.dart&#45;&gt;/lib/panels/left/git_panel.dart</title>
<path fill="none" stroke="#aabbaa" stroke-width="1.3" stroke-opacity="0.533333" d="M1181.38,-277.42C1173.91,-266.81 1164.23,-253.06 1155.8,-241.08"/>
<polygon fill="#aabbaa" fill-opacity="0.533333" stroke="#aabbaa" stroke-width="1.3" stroke-opacity="0.533333" points="1158.84,-239.31 1150.22,-233.15 1153.11,-243.34 1158.84,-239.31"/>
</g>
<!-- /lib/panels/left/base_panel.dart&#45;&gt;/lib/utils/message_helper.dart -->
<g id="edge29" class="edge">
<title>/lib/panels/left/base_panel.dart&#45;&gt;/lib/utils/message_helper.dart</title>
<path fill="none" stroke="#aabbaa" stroke-width="1.3" stroke-opacity="0.533333" d="M1240.61,-288.54C1286.04,-282.57 1356.97,-274.03 1418.74,-270 1463.55,-267.07 1779.78,-275.03 1822.74,-262 1838.89,-257.1 1854.91,-247.65 1867.97,-238.42"/>
<polygon fill="#aabbaa" fill-opacity="0.533333" stroke="#aabbaa" stroke-width="1.3" stroke-opacity="0.533333" points="1869.8,-241.42 1875.75,-232.66 1865.63,-235.8 1869.8,-241.42"/>
</g>
<!-- /lib/panels/left/base_panel.dart&#45;&gt;/lib/models/project_node.dart -->
<g id="edge26" class="edge">
<title>/lib/panels/left/base_panel.dart&#45;&gt;/lib/models/project_node.dart</title>
<path fill="none" stroke="#aabbaa" stroke-width="1.3" stroke-opacity="0.533333" d="M1146.91,-293.58C1088.15,-290.91 991.68,-283.33 963.74,-262 931.78,-237.6 961.09,-201.46 927.74,-179 912.35,-168.63 611.18,-177.35 593.74,-171 580.5,-166.18 567.97,-157.16 557.82,-148.23"/>
<polygon fill="#aabbaa" fill-opacity="0.533333" stroke="#aabbaa" stroke-width="1.3" stroke-opacity="0.533333" points="560.34,-145.8 550.65,-141.52 555.56,-150.91 560.34,-145.8"/>
</g>
<!-- /lib/panels/left/base_panel.dart&#45;&gt;/lib/models/file_system_item.dart -->
<g id="edge27" class="edge">
<title>/lib/panels/left/base_panel.dart&#45;&gt;/lib/models/file_system_item.dart</title>
<path fill="none" stroke="#aabbaa" stroke-width="1.3" stroke-opacity="0.533333" d="M1198.03,-277.57C1203.08,-252.46 1207.99,-206.13 1183.74,-179 1109.99,-96.46 774.93,-65.25 622.57,-55.17"/>
<polygon fill="#aabbaa" fill-opacity="0.533333" stroke="#aabbaa" stroke-width="1.3" stroke-opacity="0.533333" points="623.21,-51.71 613,-54.56 622.76,-58.69 623.21,-51.71"/>
</g>
<!-- /lib/panels/left/base_panel.dart&#45;&gt;/lib/services/git_service.dart -->
<g id="edge28" class="edge">
<title>/lib/panels/left/base_panel.dart&#45;&gt;/lib/services/git_service.dart</title>
<path fill="none" stroke="#aabbaa" stroke-width="1.3" stroke-opacity="0.533333" d="M1147.17,-289.76C1096.51,-283.87 1013.17,-273.58 941.74,-262 875.42,-251.25 799.65,-236.17 749.5,-225.8"/>
<polygon fill="#aabbaa" fill-opacity="0.533333" stroke="#aabbaa" stroke-width="1.3" stroke-opacity="0.533333" points="750.38,-222.41 739.88,-223.8 748.96,-229.26 750.38,-222.41"/>
</g>
<!-- /lib/panels/left/directory_contents.dart -->
<g id="node12" class="node">
<title>/lib/panels/left/directory_contents.dart</title>
<path fill="Lavender" stroke="black" stroke-width="1.3" d="M1115.24,-397C1115.24,-397 1000.24,-397 1000.24,-397 994.24,-397 988.24,-391 988.24,-385 988.24,-385 988.24,-373 988.24,-373 988.24,-367 994.24,-361 1000.24,-361 1000.24,-361 1115.24,-361 1115.24,-361 1121.24,-361 1127.24,-367 1127.24,-373 1127.24,-373 1127.24,-385 1127.24,-385 1127.24,-391 1121.24,-397 1115.24,-397"/>
<text xml:space="preserve" text-anchor="middle" x="1057.74" y="-373.75" font-family="Arial" font-size="15.00">directory_contents</text>
</g>
<!-- /lib/panels/left/directory_contents.dart&#45;&gt;/lib/models/file_system_item.dart -->
<g id="edge34" class="edge">
<title>/lib/panels/left/directory_contents.dart&#45;&gt;/lib/models/file_system_item.dart</title>
<path fill="none" stroke="#aabbaa" stroke-width="1.3" stroke-opacity="0.533333" d="M1008.41,-360.48C997.76,-357.4 986.48,-354.65 975.74,-353 964.6,-351.28 171.68,-353.01 163.74,-345 126.06,-306.94 128.57,-144.38 163.74,-104 202.72,-59.25 370.56,-51.03 470.67,-50.23"/>
<polygon fill="#aabbaa" fill-opacity="0.533333" stroke="#aabbaa" stroke-width="1.3" stroke-opacity="0.533333" points="470.57,-53.73 480.56,-50.18 470.54,-46.73 470.57,-53.73"/>
</g>
<!-- /lib/panels/left/directory_contents.dart&#45;&gt;/lib/services/git_service.dart -->
<g id="edge33" class="edge">
<title>/lib/panels/left/directory_contents.dart&#45;&gt;/lib/services/git_service.dart</title>
<path fill="none" stroke="#aabbaa" stroke-width="1.3" stroke-opacity="0.533333" d="M1006.57,-360.44C996.46,-357.52 985.84,-354.85 975.74,-353 949.68,-348.22 881.43,-354.64 856.74,-345 826.53,-333.21 759.09,-274.06 721.1,-239.41"/>
<polygon fill="#aabbaa" fill-opacity="0.533333" stroke="#aabbaa" stroke-width="1.3" stroke-opacity="0.533333" points="723.76,-237.09 714.02,-232.91 719.02,-242.25 723.76,-237.09"/>
</g>
<!-- /lib/services/file_system_service.dart -->
<g id="node30" class="node">
<title>/lib/services/file_system_service.dart</title>
<path fill="Lavender" stroke="black" stroke-width="1.3" d="M462.99,-314C462.99,-314 340.49,-314 340.49,-314 334.49,-314 328.49,-308 328.49,-302 328.49,-302 328.49,-290 328.49,-290 328.49,-284 334.49,-278 340.49,-278 340.49,-278 462.99,-278 462.99,-278 468.99,-278 474.99,-284 474.99,-290 474.99,-290 474.99,-302 474.99,-302 474.99,-308 468.99,-314 462.99,-314"/>
<text xml:space="preserve" text-anchor="middle" x="401.74" y="-290.75" font-family="Arial" font-size="15.00">file_system_service</text>
</g>
<!-- /lib/panels/left/directory_contents.dart&#45;&gt;/lib/services/file_system_service.dart -->
<g id="edge32" class="edge">
<title>/lib/panels/left/directory_contents.dart&#45;&gt;/lib/services/file_system_service.dart</title>
<path fill="none" stroke="#aabbaa" stroke-width="1.3" stroke-opacity="0.533333" d="M1007.96,-360.4C997.45,-357.37 986.33,-354.67 975.74,-353 921.84,-344.52 537.33,-359.57 484.74,-345 466.89,-340.05 448.87,-330.33 434.2,-320.93"/>
<polygon fill="#aabbaa" fill-opacity="0.533333" stroke="#aabbaa" stroke-width="1.3" stroke-opacity="0.533333" points="436.52,-318.27 426.26,-315.62 432.63,-324.09 436.52,-318.27"/>
</g>
<!-- /lib/panels/left/folder_panel.dart -->
<g id="node13" class="node">
<title>/lib/panels/left/folder_panel.dart</title>
<path fill="Lavender" stroke="black" stroke-width="1.3" d="M1230.62,-397C1230.62,-397 1156.87,-397 1156.87,-397 1150.87,-397 1144.87,-391 1144.87,-385 1144.87,-385 1144.87,-373 1144.87,-373 1144.87,-367 1150.87,-361 1156.87,-361 1156.87,-361 1230.62,-361 1230.62,-361 1236.62,-361 1242.62,-367 1242.62,-373 1242.62,-373 1242.62,-385 1242.62,-385 1242.62,-391 1236.62,-397 1230.62,-397"/>
<text xml:space="preserve" text-anchor="middle" x="1193.74" y="-373.75" font-family="Arial" font-size="15.00">folder_panel</text>
</g>
<!-- /lib/panels/left/folder_panel.dart&#45;&gt;/lib/panels/left/base_panel.dart -->
<g id="edge38" class="edge">
<title>/lib/panels/left/folder_panel.dart&#45;&gt;/lib/panels/left/base_panel.dart</title>
<path fill="none" stroke="#aabbaa" stroke-width="1.3" stroke-opacity="0.533333" d="M1193.74,-360.42C1193.74,-350.45 1193.74,-337.7 1193.74,-326.26"/>
<polygon fill="#aabbaa" fill-opacity="0.533333" stroke="#aabbaa" stroke-width="1.3" stroke-opacity="0.533333" points="1197.24,-326.51 1193.74,-316.51 1190.24,-326.51 1197.24,-326.51"/>
</g>
<!-- /lib/panels/left/folder_panel.dart&#45;&gt;/lib/models/project_node.dart -->
<g id="edge35" class="edge">
<title>/lib/panels/left/folder_panel.dart&#45;&gt;/lib/models/project_node.dart</title>
<path fill="none" stroke="#aabbaa" stroke-width="1.3" stroke-opacity="0.533333" d="M1159.18,-360.38C1151.94,-357.4 1144.22,-354.71 1136.74,-353 1113.01,-347.57 939.54,-355.86 917.74,-345 879.29,-325.84 886.79,-300.71 856.74,-270 813.09,-225.37 807.76,-202.04 749.74,-179 717.48,-166.19 626.19,-183.33 593.74,-171 580.76,-166.07 568.41,-157.21 558.33,-148.43"/>
<polygon fill="#aabbaa" fill-opacity="0.533333" stroke="#aabbaa" stroke-width="1.3" stroke-opacity="0.533333" points="560.92,-146.06 551.2,-141.84 556.17,-151.2 560.92,-146.06"/>
</g>
<!-- /lib/panels/left/folder_panel.dart&#45;&gt;/lib/models/file_system_item.dart -->
<g id="edge36" class="edge">
<title>/lib/panels/left/folder_panel.dart&#45;&gt;/lib/models/file_system_item.dart</title>
<path fill="none" stroke="#aabbaa" stroke-width="1.3" stroke-opacity="0.533333" d="M1159.83,-360.47C1152.41,-357.39 1144.46,-354.65 1136.74,-353 1123.8,-350.23 193.06,-354.4 183.74,-345 146.03,-306.97 148.72,-144.51 183.74,-104 220.04,-62.01 375.18,-52.63 470.51,-50.92"/>
<polygon fill="#aabbaa" fill-opacity="0.533333" stroke="#aabbaa" stroke-width="1.3" stroke-opacity="0.533333" points="470.49,-54.42 480.43,-50.77 470.38,-47.42 470.49,-54.42"/>
</g>
<!-- /lib/panels/left/folder_panel.dart&#45;&gt;/lib/services/git_service.dart -->
<g id="edge37" class="edge">
<title>/lib/panels/left/folder_panel.dart&#45;&gt;/lib/services/git_service.dart</title>
<path fill="none" stroke="#aabbaa" stroke-width="1.3" stroke-opacity="0.533333" d="M1159.19,-360.36C1151.94,-357.37 1144.23,-354.7 1136.74,-353 1110.07,-346.95 915.94,-355.63 890.74,-345 846.43,-326.31 852.36,-297.27 812.74,-270 793.13,-256.5 769.76,-244.71 748.94,-235.47"/>
<polygon fill="#aabbaa" fill-opacity="0.533333" stroke="#aabbaa" stroke-width="1.3" stroke-opacity="0.533333" points="750.37,-232.28 739.8,-231.53 747.59,-238.71 750.37,-232.28"/>
</g>
<!-- /lib/panels/left/file_explorer.dart -->
<g id="node14" class="node">
<title>/lib/panels/left/file_explorer.dart</title>
<path fill="Lavender" stroke="black" stroke-width="1.3" d="M1232.24,-480C1232.24,-480 1159.24,-480 1159.24,-480 1153.24,-480 1147.24,-474 1147.24,-468 1147.24,-468 1147.24,-456 1147.24,-456 1147.24,-450 1153.24,-444 1159.24,-444 1159.24,-444 1232.24,-444 1232.24,-444 1238.24,-444 1244.24,-450 1244.24,-456 1244.24,-456 1244.24,-468 1244.24,-468 1244.24,-474 1238.24,-480 1232.24,-480"/>
<text xml:space="preserve" text-anchor="middle" x="1195.74" y="-456.75" font-family="Arial" font-size="15.00">file_explorer</text>
</g>
<!-- /lib/panels/left/file_explorer.dart&#45;&gt;/lib/panels/left/directory_contents.dart -->
<g id="edge42" class="edge">
<title>/lib/panels/left/file_explorer.dart&#45;&gt;/lib/panels/left/directory_contents.dart</title>
<path fill="none" stroke="#aabbaa" stroke-width="1.3" stroke-opacity="0.533333" d="M1163.2,-443.48C1154.25,-438.56 1144.58,-433.14 1135.74,-428 1122.41,-420.24 1107.97,-411.46 1095.19,-403.55"/>
<polygon fill="#aabbaa" fill-opacity="0.533333" stroke="#aabbaa" stroke-width="1.3" stroke-opacity="0.533333" points="1097.35,-400.78 1087.01,-398.48 1093.66,-406.73 1097.35,-400.78"/>
</g>
<!-- /lib/panels/left/file_explorer.dart&#45;&gt;/lib/models/file_system_item.dart -->
<g id="edge41" class="edge">
<title>/lib/panels/left/file_explorer.dart&#45;&gt;/lib/models/file_system_item.dart</title>
<path fill="none" stroke="#aabbaa" stroke-width="1.3" stroke-opacity="0.533333" d="M1161.83,-443.47C1154.41,-440.4 1146.46,-437.65 1138.74,-436 1088.93,-425.33 270.77,-441.84 221.74,-428 152.86,-408.56 118.97,-407.3 83.74,-345 31.02,-251.76 12.44,-183.93 83.74,-104 109.02,-75.67 346.12,-60.39 470.85,-54.26"/>
<polygon fill="#aabbaa" fill-opacity="0.533333" stroke="#aabbaa" stroke-width="1.3" stroke-opacity="0.533333" points="470.77,-57.76 480.59,-53.78 470.43,-50.77 470.77,-57.76"/>
</g>
<!-- /lib/panels/left/file_explorer.dart&#45;&gt;/lib/services/git_service.dart -->
<g id="edge40" class="edge">
<title>/lib/panels/left/file_explorer.dart&#45;&gt;/lib/services/git_service.dart</title>
<path fill="none" stroke="#aabbaa" stroke-width="1.3" stroke-opacity="0.533333" d="M1161.52,-443.37C1154.18,-440.34 1146.35,-437.64 1138.74,-436 1069.45,-421.02 570.85,-438.55 500.74,-428 371.55,-408.55 297.01,-449.62 218.74,-345 208.76,-331.65 207.07,-281.9 218.74,-270 235.17,-253.26 618.95,-270.64 640.74,-262 652.69,-257.26 663.64,-248.51 672.44,-239.77"/>
<polygon fill="#aabbaa" fill-opacity="0.533333" stroke="#aabbaa" stroke-width="1.3" stroke-opacity="0.533333" points="674.87,-242.3 679.15,-232.61 669.76,-237.51 674.87,-242.3"/>
</g>
<!-- /lib/panels/left/file_explorer.dart&#45;&gt;/lib/services/file_system_service.dart -->
<g id="edge39" class="edge">
<title>/lib/panels/left/file_explorer.dart&#45;&gt;/lib/services/file_system_service.dart</title>
<path fill="none" stroke="#aabbaa" stroke-width="1.3" stroke-opacity="0.533333" d="M1161.51,-443.42C1154.17,-440.39 1146.34,-437.68 1138.74,-436 1056.05,-417.75 841.37,-441.33 757.74,-428 632.51,-408.04 601.06,-395.52 484.74,-345 469.02,-338.17 452.51,-329.07 438.4,-320.62"/>
<polygon fill="#aabbaa" fill-opacity="0.533333" stroke="#aabbaa" stroke-width="1.3" stroke-opacity="0.533333" points="440.62,-317.88 430.27,-315.66 436.98,-323.86 440.62,-317.88"/>
</g>
<!-- /lib/panels/left/left_panel.dart -->
<g id="node15" class="node">
<title>/lib/panels/left/left_panel.dart</title>
<path fill="Lavender" stroke="black" stroke-width="1.3" d="M1351.99,-480C1351.99,-480 1295.49,-480 1295.49,-480 1289.49,-480 1283.49,-474 1283.49,-468 1283.49,-468 1283.49,-456 1283.49,-456 1283.49,-450 1289.49,-444 1295.49,-444 1295.49,-444 1351.99,-444 1351.99,-444 1357.99,-444 1363.99,-450 1363.99,-456 1363.99,-456 1363.99,-468 1363.99,-468 1363.99,-474 1357.99,-480 1351.99,-480"/>
<text xml:space="preserve" text-anchor="middle" x="1323.74" y="-456.75" font-family="Arial" font-size="15.00">left_panel</text>
</g>
<!-- /lib/panels/left/left_panel.dart&#45;&gt;/lib/panels/left/git_panel.dart -->
<g id="edge45" class="edge">
<title>/lib/panels/left/left_panel.dart&#45;&gt;/lib/panels/left/git_panel.dart</title>
<path fill="none" stroke="#aabbaa" stroke-width="1.3" stroke-opacity="0.533333" d="M1364.61,-451.46C1376.71,-446.53 1388.61,-439.11 1395.74,-428 1413.75,-399.95 1412.55,-381.79 1395.74,-353 1351.15,-276.61 1248.21,-239.94 1186.38,-224.23"/>
<polygon fill="#aabbaa" fill-opacity="0.533333" stroke="#aabbaa" stroke-width="1.3" stroke-opacity="0.533333" points="1187.42,-220.88 1176.87,-221.91 1185.76,-227.68 1187.42,-220.88"/>
</g>
<!-- /lib/panels/left/left_panel.dart&#45;&gt;/lib/panels/left/folder_panel.dart -->
<g id="edge43" class="edge">
<title>/lib/panels/left/left_panel.dart&#45;&gt;/lib/panels/left/folder_panel.dart</title>
<path fill="none" stroke="#aabbaa" stroke-width="1.3" stroke-opacity="0.533333" d="M1283.16,-444.64C1272.64,-439.8 1261.53,-434.14 1251.74,-428 1241.2,-421.38 1230.47,-413.04 1221.16,-405.18"/>
<polygon fill="#aabbaa" fill-opacity="0.533333" stroke="#aabbaa" stroke-width="1.3" stroke-opacity="0.533333" points="1223.71,-402.76 1213.86,-398.85 1219.12,-408.05 1223.71,-402.76"/>
</g>
<!-- /lib/panels/left/organized_panel.dart -->
<g id="node16" class="node">
<title>/lib/panels/left/organized_panel.dart</title>
<path fill="Lavender" stroke="black" stroke-width="1.3" d="M1374.49,-397C1374.49,-397 1272.99,-397 1272.99,-397 1266.99,-397 1260.99,-391 1260.99,-385 1260.99,-385 1260.99,-373 1260.99,-373 1260.99,-367 1266.99,-361 1272.99,-361 1272.99,-361 1374.49,-361 1374.49,-361 1380.49,-361 1386.49,-367 1386.49,-373 1386.49,-373 1386.49,-385 1386.49,-385 1386.49,-391 1380.49,-397 1374.49,-397"/>
<text xml:space="preserve" text-anchor="middle" x="1323.74" y="-373.75" font-family="Arial" font-size="15.00">organized_panel</text>
</g>
<!-- /lib/panels/left/left_panel.dart&#45;&gt;/lib/panels/left/organized_panel.dart -->
<g id="edge44" class="edge">
<title>/lib/panels/left/left_panel.dart&#45;&gt;/lib/panels/left/organized_panel.dart</title>
<path fill="none" stroke="#aabbaa" stroke-width="1.3" stroke-opacity="0.533333" d="M1323.74,-443.42C1323.74,-433.45 1323.74,-420.7 1323.74,-409.26"/>
<polygon fill="#aabbaa" fill-opacity="0.533333" stroke="#aabbaa" stroke-width="1.3" stroke-opacity="0.533333" points="1327.24,-409.51 1323.74,-399.51 1320.24,-409.51 1327.24,-409.51"/>
</g>
<!-- /lib/panels/left/left_panel.dart&#45;&gt;/lib/models/file_system_item.dart -->
<g id="edge46" class="edge">
<title>/lib/panels/left/left_panel.dart&#45;&gt;/lib/models/file_system_item.dart</title>
<path fill="none" stroke="#aabbaa" stroke-width="1.3" stroke-opacity="0.533333" d="M1282.9,-443.9C1273.48,-440.67 1263.39,-437.75 1253.74,-436 1199.51,-426.16 812.73,-431.88 757.74,-428 490.55,-409.15 425.56,-386.03 159.74,-353 145.3,-351.21 104.45,-355.84 94.74,-345 59.02,-305.1 60.36,-143.31 96.74,-104 121.66,-77.08 349.2,-61.25 470.84,-54.64"/>
<polygon fill="#aabbaa" fill-opacity="0.533333" stroke="#aabbaa" stroke-width="1.3" stroke-opacity="0.533333" points="470.86,-58.15 480.66,-54.12 470.49,-51.16 470.86,-58.15"/>
</g>
<!-- /lib/panels/left/organized_panel.dart&#45;&gt;/lib/panels/left/base_panel.dart -->
<g id="edge48" class="edge">
<title>/lib/panels/left/organized_panel.dart&#45;&gt;/lib/panels/left/base_panel.dart</title>
<path fill="none" stroke="#aabbaa" stroke-width="1.3" stroke-opacity="0.533333" d="M1295.54,-360.42C1276.88,-348.8 1252.2,-333.42 1231.81,-320.72"/>
<polygon fill="#aabbaa" fill-opacity="0.533333" stroke="#aabbaa" stroke-width="1.3" stroke-opacity="0.533333" points="1233.9,-317.9 1223.57,-315.58 1230.2,-323.84 1233.9,-317.9"/>
</g>
<!-- /lib/panels/left/organized_panel.dart&#45;&gt;/lib/models/project_node.dart -->
<g id="edge47" class="edge">
<title>/lib/panels/left/organized_panel.dart&#45;&gt;/lib/models/project_node.dart</title>
<path fill="none" stroke="#aabbaa" stroke-width="1.3" stroke-opacity="0.533333" d="M1278.93,-360.41C1270.04,-357.5 1260.69,-354.84 1251.74,-353 1202.42,-342.88 1187.85,-356.12 1138.74,-345 1040.46,-322.74 1017.02,-308.74 927.74,-262 868.99,-231.24 866.82,-199.48 803.74,-179 759.33,-164.58 637.51,-187.29 593.74,-171 580.73,-166.15 568.37,-157.31 558.3,-148.52"/>
<polygon fill="#aabbaa" fill-opacity="0.533333" stroke="#aabbaa" stroke-width="1.3" stroke-opacity="0.533333" points="560.88,-146.15 551.17,-141.92 556.13,-151.28 560.88,-146.15"/>
</g>
<!-- /lib/widgets/message_widget.dart -->
<g id="node34" class="node">
<title>/lib/widgets/message_widget.dart</title>
<path fill="Lavender" stroke="black" stroke-width="1.3" d="M2056.62,-314C2056.62,-314 1952.87,-314 1952.87,-314 1946.87,-314 1940.87,-308 1940.87,-302 1940.87,-302 1940.87,-290 1940.87,-290 1940.87,-284 1946.87,-278 1952.87,-278 1952.87,-278 2056.62,-278 2056.62,-278 2062.62,-278 2068.62,-284 2068.62,-290 2068.62,-290 2068.62,-302 2068.62,-302 2068.62,-308 2062.62,-314 2056.62,-314"/>
<text xml:space="preserve" text-anchor="middle" x="2004.74" y="-290.75" font-family="Arial" font-size="15.00">message_widget</text>
</g>
<!-- /lib/utils/message_helper.dart&#45;&gt;/lib/widgets/message_widget.dart -->
<g id="edge49" class="edge">
<title>/lib/utils/message_helper.dart&#45;&gt;/lib/widgets/message_widget.dart</title>
<path fill="none" stroke="#aabbaa" stroke-width="1.3" stroke-opacity="0.533333" d="M1920.92,-231.54C1935.91,-242.89 1955.65,-257.83 1972.21,-270.37"/>
<polygon fill="#aabbaa" fill-opacity="0.533333" stroke="#aabbaa" stroke-width="1.3" stroke-opacity="0.533333" points="1969.87,-272.99 1979.96,-276.24 1974.1,-267.41 1969.87,-272.99"/>
</g>
<!-- /lib/models/project_node.dart&#45;&gt;/lib/models/file_system_item.dart -->
<g id="edge50" class="edge">
<title>/lib/models/project_node.dart&#45;&gt;/lib/models/file_system_item.dart</title>
<path fill="none" stroke="#aabbaa" stroke-width="1.3" stroke-opacity="0.533333" d="M536.96,-103.7C538.28,-96.6 539.84,-88.18 541.32,-80.18"/>
<polygon fill="#aabbaa" fill-opacity="0.533333" stroke="#aabbaa" stroke-width="1.3" stroke-opacity="0.533333" points="544.73,-81 543.12,-70.53 537.85,-79.72 544.73,-81"/>
</g>
<!-- /lib/screens/main_layout.dart -->
<g id="node22" class="node">
<title>/lib/screens/main_layout.dart</title>
<path fill="Lavender" stroke="black" stroke-width="1.3" d="M2060.87,-480C2060.87,-480 1988.62,-480 1988.62,-480 1982.62,-480 1976.62,-474 1976.62,-468 1976.62,-468 1976.62,-456 1976.62,-456 1976.62,-450 1982.62,-444 1988.62,-444 1988.62,-444 2060.87,-444 2060.87,-444 2066.87,-444 2072.87,-450 2072.87,-456 2072.87,-456 2072.87,-468 2072.87,-468 2072.87,-474 2066.87,-480 2060.87,-480"/>
<text xml:space="preserve" text-anchor="middle" x="2024.74" y="-456.75" font-family="Arial" font-size="15.00">main_layout</text>
</g>
<!-- /lib/screens/main_layout.dart&#45;&gt;/lib/providers/app_providers.dart -->
<g id="edge52" class="edge">
<title>/lib/screens/main_layout.dart&#45;&gt;/lib/providers/app_providers.dart</title>
<path fill="none" stroke="#aabbaa" stroke-width="1.3" stroke-opacity="0.533333" d="M2030.27,-443.53C2037.79,-421.3 2052.65,-382.26 2072.74,-353 2075.59,-348.86 2078.82,-349.65 2080.74,-345 2087.12,-329.6 2092.34,-281.97 2080.74,-270 2070.76,-259.7 1836.33,-266.6 1822.74,-262 1808.34,-257.13 1794.35,-248.03 1782.92,-239.06"/>
<polygon fill="#aabbaa" fill-opacity="0.533333" stroke="#aabbaa" stroke-width="1.3" stroke-opacity="0.533333" points="1785.41,-236.57 1775.47,-232.9 1780.95,-241.97 1785.41,-236.57"/>
</g>
<!-- /lib/screens/main_layout.dart&#45;&gt;/lib/panels/right/right_panel.dart -->
<g id="edge59" class="edge">
<title>/lib/screens/main_layout.dart&#45;&gt;/lib/panels/right/right_panel.dart</title>
<path fill="none" stroke="#aabbaa" stroke-width="1.3" stroke-opacity="0.533333" d="M2018.48,-480.27C2009.46,-502.9 1990.31,-539.3 1958.74,-546 1945.51,-548.81 997.98,-548.81 984.74,-546 946.77,-537.94 911.16,-510.18 888.33,-488.75"/>
<polygon fill="#aabbaa" fill-opacity="0.533333" stroke="#aabbaa" stroke-width="1.3" stroke-opacity="0.533333" points="890.96,-486.43 881.35,-481.98 886.09,-491.46 890.96,-486.43"/>
</g>
<!-- /lib/screens/main_layout.dart&#45;&gt;/lib/panels/center/editor_screen.dart -->
<g id="edge51" class="edge">
<title>/lib/screens/main_layout.dart&#45;&gt;/lib/panels/center/editor_screen.dart</title>
<path fill="none" stroke="#aabbaa" stroke-width="1.3" stroke-opacity="0.533333" d="M1989.49,-443.45C1982.43,-440.53 1974.96,-437.86 1967.74,-436 1948.73,-431.1 1893.92,-441.59 1879.74,-428 1855.47,-404.72 1894.53,-375.72 1869.74,-353 1855.4,-339.85 1713.36,-350.67 1694.74,-345 1677.94,-339.88 1661.07,-330.37 1647.26,-321.15"/>
<polygon fill="#aabbaa" fill-opacity="0.533333" stroke="#aabbaa" stroke-width="1.3" stroke-opacity="0.533333" points="1649.61,-318.52 1639.4,-315.68 1645.61,-324.27 1649.61,-318.52"/>
</g>
<!-- /lib/screens/main_layout.dart&#45;&gt;/lib/panels/center/center_panel.dart -->
<g id="edge58" class="edge">
<title>/lib/screens/main_layout.dart&#45;&gt;/lib/panels/center/center_panel.dart</title>
<path fill="none" stroke="#aabbaa" stroke-width="1.3" stroke-opacity="0.533333" d="M1989.51,-443.39C1982.45,-440.48 1974.97,-437.83 1967.74,-436 1925.37,-425.3 1913.05,-433.87 1869.74,-428 1804.85,-419.2 1731.36,-404.67 1680.56,-393.9"/>
<polygon fill="#aabbaa" fill-opacity="0.533333" stroke="#aabbaa" stroke-width="1.3" stroke-opacity="0.533333" points="1681.56,-390.53 1671.05,-391.87 1680.09,-397.38 1681.56,-390.53"/>
</g>
<!-- /lib/screens/main_layout.dart&#45;&gt;/lib/panels/left/left_panel.dart -->
<g id="edge57" class="edge">
<title>/lib/screens/main_layout.dart&#45;&gt;/lib/panels/left/left_panel.dart</title>
<path fill="none" stroke="#aabbaa" stroke-width="1.3" stroke-opacity="0.533333" d="M2018.48,-480.27C2009.46,-502.9 1990.31,-539.3 1958.74,-546 1930.38,-552.02 1726.57,-549.2 1697.74,-546 1581.05,-533.06 1447.57,-498.06 1375.86,-477.55"/>
<polygon fill="#aabbaa" fill-opacity="0.533333" stroke="#aabbaa" stroke-width="1.3" stroke-opacity="0.533333" points="1376.94,-474.22 1366.36,-474.81 1375,-480.95 1376.94,-474.22"/>
</g>
<!-- /lib/screens/main_layout.dart&#45;&gt;/lib/utils/file_type_utils.dart -->
<g id="edge55" class="edge">
<title>/lib/screens/main_layout.dart&#45;&gt;/lib/utils/file_type_utils.dart</title>
<path fill="none" stroke="#aabbaa" stroke-width="1.3" stroke-opacity="0.533333" d="M2057.09,-443.66C2063.02,-439.23 2068.62,-434 2072.74,-428 2094.25,-396.74 2088.27,-382.68 2092.74,-345 2096.68,-311.9 2106.15,-300.52 2092.74,-270 2087.47,-258.01 2078.23,-247.46 2068.51,-238.85"/>
<polygon fill="#aabbaa" fill-opacity="0.533333" stroke="#aabbaa" stroke-width="1.3" stroke-opacity="0.533333" points="2071.01,-236.38 2061.06,-232.74 2066.57,-241.79 2071.01,-236.38"/>
</g>
<!-- /lib/screens/main_layout.dart&#45;&gt;/lib/models/document_state.dart -->
<g id="edge54" class="edge">
<title>/lib/screens/main_layout.dart&#45;&gt;/lib/models/document_state.dart</title>
<path fill="none" stroke="#aabbaa" stroke-width="1.3" stroke-opacity="0.533333" d="M2061.62,-443.38C2074.29,-437.01 2085.8,-430.71 2087.74,-428 2152.25,-337.99 2175.24,-257.11 2096.74,-179 2048.23,-130.72 1024.71,-124.06 738.51,-123.15"/>
<polygon fill="#aabbaa" fill-opacity="0.533333" stroke="#aabbaa" stroke-width="1.3" stroke-opacity="0.533333" points="738.62,-119.65 728.61,-123.12 738.6,-126.65 738.62,-119.65"/>
</g>
<!-- /lib/screens/main_layout.dart&#45;&gt;/lib/models/file_system_item.dart -->
<g id="edge53" class="edge">
<title>/lib/screens/main_layout.dart&#45;&gt;/lib/models/file_system_item.dart</title>
<path fill="none" stroke="#aabbaa" stroke-width="1.3" stroke-opacity="0.533333" d="M2073.31,-451.15C2087.79,-446.22 2102.72,-438.88 2113.74,-428 2192.59,-350.16 2208.45,-252.72 2125.74,-179 2012.54,-78.1 922.39,-56.05 622.67,-51.88"/>
<polygon fill="#aabbaa" fill-opacity="0.533333" stroke="#aabbaa" stroke-width="1.3" stroke-opacity="0.533333" points="623.1,-48.38 613.05,-51.75 623,-55.38 623.1,-48.38"/>
</g>
<!-- /lib/screens/main_layout.dart&#45;&gt;/lib/widgets/resizable_splitter.dart -->
<g id="edge56" class="edge">
<title>/lib/screens/main_layout.dart&#45;&gt;/lib/widgets/resizable_splitter.dart</title>
<path fill="none" stroke="#aabbaa" stroke-width="1.3" stroke-opacity="0.533333" d="M2006.71,-443.51C1980.8,-419.39 1930.54,-376.26 1879.74,-353 1864.84,-346.18 1858.84,-351.39 1843.74,-345 1829.3,-338.89 1814.62,-329.89 1802.25,-321.33"/>
<polygon fill="#aabbaa" fill-opacity="0.533333" stroke="#aabbaa" stroke-width="1.3" stroke-opacity="0.533333" points="1804.64,-318.74 1794.47,-315.76 1800.57,-324.43 1804.64,-318.74"/>
</g>
<!-- /lib/main.dart&#45;&gt;/lib/providers/app_providers.dart -->
<g id="edge60" class="edge">
<title>/lib/main.dart&#45;&gt;/lib/providers/app_providers.dart</title>
<path fill="none" stroke="#aabbaa" stroke-width="1.3" stroke-opacity="0.533333" d="M1922.14,-565.65C1975.28,-562.74 2088.16,-555.09 2099.74,-542 2126.12,-512.21 2112.36,-292.77 2088.74,-270 2078.1,-259.74 1836.75,-266.73 1822.74,-262 1808.34,-257.13 1794.35,-248.04 1782.91,-239.06"/>
<polygon fill="#aabbaa" fill-opacity="0.533333" stroke="#aabbaa" stroke-width="1.3" stroke-opacity="0.533333" points="1785.41,-236.58 1775.47,-232.9 1780.94,-241.97 1785.41,-236.58"/>
</g>
<!-- /lib/main.dart&#45;&gt;/lib/panels/center/editor_screen.dart -->
<g id="edge63" class="edge">
<title>/lib/main.dart&#45;&gt;/lib/panels/center/editor_screen.dart</title>
<path fill="none" stroke="#aabbaa" stroke-width="1.3" stroke-opacity="0.533333" d="M1867.13,-565.08C1850.59,-562.41 1830.53,-556.22 1818.74,-542 1788.42,-505.42 1828.93,-476.9 1804.74,-436 1786.6,-405.31 1704.9,-351.6 1655.04,-320.7"/>
<polygon fill="#aabbaa" fill-opacity="0.533333" stroke="#aabbaa" stroke-width="1.3" stroke-opacity="0.533333" points="1656.95,-317.76 1646.6,-315.5 1653.28,-323.73 1656.95,-317.76"/>
</g>
<!-- /lib/main.dart&#45;&gt;/lib/screens/main_layout.dart -->
<g id="edge61" class="edge">
<title>/lib/main.dart&#45;&gt;/lib/screens/main_layout.dart</title>
<path fill="none" stroke="#aabbaa" stroke-width="1.3" stroke-opacity="0.533333" d="M1922.31,-561.8C1936.85,-558.07 1954.4,-551.89 1967.74,-542 1985.8,-528.62 2000.47,-507.84 2010.4,-490.95"/>
<polygon fill="#aabbaa" fill-opacity="0.533333" stroke="#aabbaa" stroke-width="1.3" stroke-opacity="0.533333" points="2013.44,-492.69 2015.27,-482.25 2007.34,-489.27 2013.44,-492.69"/>
</g>
<!-- /lib/main.dart&#45;&gt;/lib/screens/welcome_screen.dart -->
<g id="edge64" class="edge">
<title>/lib/main.dart&#45;&gt;/lib/screens/welcome_screen.dart</title>
<path fill="none" stroke="#aabbaa" stroke-width="1.3" stroke-opacity="0.533333" d="M1894.74,-549.36C1894.74,-533.73 1894.74,-510.59 1894.74,-492.2"/>
<polygon fill="#aabbaa" fill-opacity="0.533333" stroke="#aabbaa" stroke-width="1.3" stroke-opacity="0.533333" points="1898.24,-492.35 1894.74,-482.35 1891.24,-492.35 1898.24,-492.35"/>
</g>
<!-- /lib/theme/app_theme.dart -->
<g id="node25" class="node">
<title>/lib/theme/app_theme.dart</title>
<path fill="Lavender" stroke="black" stroke-width="1.3" d="M1780.24,-480C1780.24,-480 1713.24,-480 1713.24,-480 1707.24,-480 1701.24,-474 1701.24,-468 1701.24,-468 1701.24,-456 1701.24,-456 1701.24,-450 1707.24,-444 1713.24,-444 1713.24,-444 1780.24,-444 1780.24,-444 1786.24,-444 1792.24,-450 1792.24,-456 1792.24,-456 1792.24,-468 1792.24,-468 1792.24,-474 1786.24,-480 1780.24,-480"/>
<text xml:space="preserve" text-anchor="middle" x="1746.74" y="-456.75" font-family="Arial" font-size="15.00">app_theme</text>
</g>
<!-- /lib/main.dart&#45;&gt;/lib/theme/app_theme.dart -->
<g id="edge66" class="edge">
<title>/lib/main.dart&#45;&gt;/lib/theme/app_theme.dart</title>
<path fill="none" stroke="#aabbaa" stroke-width="1.3" stroke-opacity="0.533333" d="M1867.5,-565.46C1846.44,-563.08 1817.49,-557.06 1796.74,-542 1779.18,-529.25 1766.33,-508.26 1758.05,-491.13"/>
<polygon fill="#aabbaa" fill-opacity="0.533333" stroke="#aabbaa" stroke-width="1.3" stroke-opacity="0.533333" points="1761.39,-490.01 1754.08,-482.34 1755.01,-492.89 1761.39,-490.01"/>
</g>
<!-- /lib/main.dart&#45;&gt;/lib/services/git_service.dart -->
<g id="edge65" class="edge">
<title>/lib/main.dart&#45;&gt;/lib/services/git_service.dart</title>
<path fill="none" stroke="#aabbaa" stroke-width="1.3" stroke-opacity="0.533333" d="M1867.46,-567.09C1716.52,-567.51 982.55,-568.14 757.74,-542 515.82,-513.87 391.29,-602.85 221.74,-428 172.64,-377.36 157.33,-320.34 206.74,-270 223.64,-252.79 618.32,-270.88 640.74,-262 652.69,-257.27 663.64,-248.52 672.45,-239.77"/>
<polygon fill="#aabbaa" fill-opacity="0.533333" stroke="#aabbaa" stroke-width="1.3" stroke-opacity="0.533333" points="674.87,-242.3 679.15,-232.61 669.76,-237.52 674.87,-242.3"/>
</g>
<!-- /lib/widgets/title_bar.dart -->
<g id="node33" class="node">
<title>/lib/widgets/title_bar.dart</title>
<path fill="Lavender" stroke="black" stroke-width="1.3" d="M1910.37,-314C1910.37,-314 1865.12,-314 1865.12,-314 1859.12,-314 1853.12,-308 1853.12,-302 1853.12,-302 1853.12,-290 1853.12,-290 1853.12,-284 1859.12,-278 1865.12,-278 1865.12,-278 1910.37,-278 1910.37,-278 1916.37,-278 1922.37,-284 1922.37,-290 1922.37,-290 1922.37,-302 1922.37,-302 1922.37,-308 1916.37,-314 1910.37,-314"/>
<text xml:space="preserve" text-anchor="middle" x="1887.74" y="-290.75" font-family="Arial" font-size="15.00">title_bar</text>
</g>
<!-- /lib/main.dart&#45;&gt;/lib/widgets/title_bar.dart -->
<g id="edge62" class="edge">
<title>/lib/main.dart&#45;&gt;/lib/widgets/title_bar.dart</title>
<path fill="none" stroke="#aabbaa" stroke-width="1.3" stroke-opacity="0.533333" d="M1922.34,-567.61C1969.83,-568.01 2063.96,-565.7 2084.74,-542 2115.81,-506.58 2108.03,-476.95 2084.74,-436 2045.63,-367.23 1993.13,-394.92 1931.74,-345 1923.8,-338.54 1915.97,-330.64 1909.17,-323.14"/>
<polygon fill="#aabbaa" fill-opacity="0.533333" stroke="#aabbaa" stroke-width="1.3" stroke-opacity="0.533333" points="1912.22,-321.31 1903.01,-316.09 1906.96,-325.92 1912.22,-321.31"/>
</g>
<!-- /lib/services/project_service.dart&#45;&gt;/lib/providers/app_providers.dart -->
<g id="edge71" class="edge">
<title>/lib/services/project_service.dart&#45;&gt;/lib/providers/app_providers.dart</title>
<path fill="none" stroke="#aabbaa" stroke-width="1.3" stroke-opacity="0.533333" d="M583.67,-277.48C592.3,-274.4 601.71,-271.65 610.74,-270 698.07,-254 1321.22,-268.72 1409.74,-262 1506.81,-254.63 1618.49,-236.87 1688.18,-225.15"/>
<polygon fill="#aabbaa" fill-opacity="0.533333" stroke="#aabbaa" stroke-width="1.3" stroke-opacity="0.533333" points="1688.63,-228.62 1697.91,-223.5 1687.46,-221.72 1688.63,-228.62"/>
</g>
<!-- /lib/services/project_service.dart&#45;&gt;/lib/models/project_node.dart -->
<g id="edge67" class="edge">
<title>/lib/services/project_service.dart&#45;&gt;/lib/models/project_node.dart</title>
<path fill="none" stroke="#aabbaa" stroke-width="1.3" stroke-opacity="0.533333" d="M502.32,-277.38C486.73,-271.34 472.95,-265.28 470.74,-262 450.16,-231.39 455.63,-212.65 470.74,-179 476.16,-166.94 485.6,-156.42 495.55,-147.85"/>
<polygon fill="#aabbaa" fill-opacity="0.533333" stroke="#aabbaa" stroke-width="1.3" stroke-opacity="0.533333" points="497.54,-150.73 503.19,-141.77 493.18,-145.26 497.54,-150.73"/>
</g>
<!-- /lib/services/project_service.dart&#45;&gt;/lib/models/file_system_item.dart -->
<g id="edge68" class="edge">
<title>/lib/services/project_service.dart&#45;&gt;/lib/models/file_system_item.dart</title>
<path fill="none" stroke="#aabbaa" stroke-width="1.3" stroke-opacity="0.533333" d="M505.85,-277.48C498.5,-274.86 490.94,-272.28 483.74,-270 470.59,-265.84 462.15,-272.94 453.74,-262 410.62,-205.87 433.68,-162.35 473.74,-104 481.49,-92.72 492.46,-82.96 503.54,-75"/>
<polygon fill="#aabbaa" fill-opacity="0.533333" stroke="#aabbaa" stroke-width="1.3" stroke-opacity="0.533333" points="505.26,-78.07 511.6,-69.58 501.35,-72.26 505.26,-78.07"/>
</g>
<!-- /lib/services/project_service.dart&#45;&gt;/lib/services/git_service.dart -->
<g id="edge69" class="edge">
<title>/lib/services/project_service.dart&#45;&gt;/lib/services/git_service.dart</title>
<path fill="none" stroke="#aabbaa" stroke-width="1.3" stroke-opacity="0.533333" d="M599.45,-277.42C620.3,-269.71 640.21,-262.32 640.74,-262 650.98,-255.79 661.03,-247.44 669.58,-239.45"/>
<polygon fill="#aabbaa" fill-opacity="0.533333" stroke="#aabbaa" stroke-width="1.3" stroke-opacity="0.533333" points="671.76,-242.21 676.48,-232.73 666.88,-237.2 671.76,-242.21"/>
</g>
<!-- /lib/services/file_system_watcher.dart -->
<g id="node28" class="node">
<title>/lib/services/file_system_watcher.dart</title>
<path fill="Lavender" stroke="black" stroke-width="1.3" d="M619.62,-231C619.62,-231 491.87,-231 491.87,-231 485.87,-231 479.87,-225 479.87,-219 479.87,-219 479.87,-207 479.87,-207 479.87,-201 485.87,-195 491.87,-195 491.87,-195 619.62,-195 619.62,-195 625.62,-195 631.62,-201 631.62,-207 631.62,-207 631.62,-219 631.62,-219 631.62,-225 625.62,-231 619.62,-231"/>
<text xml:space="preserve" text-anchor="middle" x="555.74" y="-207.75" font-family="Arial" font-size="15.00">file_system_watcher</text>
</g>
<!-- /lib/services/project_service.dart&#45;&gt;/lib/services/file_system_watcher.dart -->
<g id="edge70" class="edge">
<title>/lib/services/project_service.dart&#45;&gt;/lib/services/file_system_watcher.dart</title>
<path fill="none" stroke="#aabbaa" stroke-width="1.3" stroke-opacity="0.533333" d="M552.61,-277.42C553.1,-267.45 553.73,-254.7 554.3,-243.26"/>
<polygon fill="#aabbaa" fill-opacity="0.533333" stroke="#aabbaa" stroke-width="1.3" stroke-opacity="0.533333" points="557.78,-243.67 554.78,-233.51 550.79,-243.32 557.78,-243.67"/>
</g>
<!-- /lib/services/file_system_watcher.dart&#45;&gt;/lib/models/project_node.dart -->
<g id="edge72" class="edge">
<title>/lib/services/file_system_watcher.dart&#45;&gt;/lib/models/project_node.dart</title>
<path fill="none" stroke="#aabbaa" stroke-width="1.3" stroke-opacity="0.533333" d="M551.4,-194.42C548.41,-182.35 544.39,-166.05 540.93,-152.07"/>
<polygon fill="#aabbaa" fill-opacity="0.533333" stroke="#aabbaa" stroke-width="1.3" stroke-opacity="0.533333" points="544.35,-151.33 538.55,-142.46 537.56,-153 544.35,-151.33"/>
</g>
<!-- /lib/services/file_system_service.dart&#45;&gt;/lib/models/file_system_item.dart -->
<g id="edge73" class="edge">
<title>/lib/services/file_system_service.dart&#45;&gt;/lib/models/file_system_item.dart</title>
<path fill="none" stroke="#aabbaa" stroke-width="1.3" stroke-opacity="0.533333" d="M399.41,-277.37C395.58,-240.99 391.97,-156.61 431.74,-104 441.98,-90.46 456.49,-80.27 471.78,-72.64"/>
<polygon fill="#aabbaa" fill-opacity="0.533333" stroke="#aabbaa" stroke-width="1.3" stroke-opacity="0.533333" points="473.02,-75.92 480.66,-68.57 470.11,-69.56 473.02,-75.92"/>
</g>
<!-- /lib/services/editor_service.dart -->
<g id="node31" class="node">
<title>/lib/services/editor_service.dart</title>
<path fill="Lavender" stroke="black" stroke-width="1.3" d="M725.24,-314C725.24,-314 640.24,-314 640.24,-314 634.24,-314 628.24,-308 628.24,-302 628.24,-302 628.24,-290 628.24,-290 628.24,-284 634.24,-278 640.24,-278 640.24,-278 725.24,-278 725.24,-278 731.24,-278 737.24,-284 737.24,-290 737.24,-290 737.24,-302 737.24,-302 737.24,-308 731.24,-314 725.24,-314"/>
<text xml:space="preserve" text-anchor="middle" x="682.74" y="-290.75" font-family="Arial" font-size="15.00">editor_service</text>
</g>
<!-- /lib/widgets/title_bar.dart&#45;&gt;/lib/providers/app_providers.dart -->
<g id="edge74" class="edge">
<title>/lib/widgets/title_bar.dart&#45;&gt;/lib/providers/app_providers.dart</title>
<path fill="none" stroke="#aabbaa" stroke-width="1.3" stroke-opacity="0.533333" d="M1858.25,-277.43C1853.46,-274.81 1848.51,-272.25 1843.74,-270 1834.71,-265.74 1831.54,-266.73 1822.74,-262 1810.39,-255.37 1797.68,-246.78 1786.69,-238.7"/>
<polygon fill="#aabbaa" fill-opacity="0.533333" stroke="#aabbaa" stroke-width="1.3" stroke-opacity="0.533333" points="1788.8,-235.91 1778.71,-232.69 1784.59,-241.5 1788.8,-235.91"/>
</g>
<!-- /tool/sort_source.dart -->
<g id="node35" class="node">
<title>/tool/sort_source.dart</title>
<path fill="Lavender" stroke="black" stroke-width="1.3" d="M2102.12,-669C2102.12,-669 2031.37,-669 2031.37,-669 2025.37,-669 2019.37,-663 2019.37,-657 2019.37,-657 2019.37,-645 2019.37,-645 2019.37,-639 2025.37,-633 2031.37,-633 2031.37,-633 2102.12,-633 2102.12,-633 2108.12,-633 2114.12,-639 2114.12,-645 2114.12,-645 2114.12,-657 2114.12,-657 2114.12,-663 2108.12,-669 2102.12,-669"/>
<text xml:space="preserve" text-anchor="middle" x="2066.74" y="-645.75" font-family="Arial" font-size="15.00">sort_source</text>
</g>
</g>
</svg>
