<?xml version="1.0" encoding="UTF-8" standalone="no"?>
<!DOCTYPE svg PUBLIC "-//W3C//DTD SVG 1.1//EN"
 "http://www.w3.org/Graphics/SVG/1.1/DTD/svg11.dtd">
<!-- Generated by graphviz version 13.1.2 (20250808.2320)
 -->
<!-- Pages: 1 -->
<svg width="1916pt" height="592pt"
 viewBox="0.00 0.00 1916.00 592.00" xmlns="http://www.w3.org/2000/svg" xmlns:xlink="http://www.w3.org/1999/xlink">
<g id="graph0" class="graph" transform="scale(1 1) rotate(0) translate(4 588)">
<polygon fill="white" stroke="none" points="-4,4 -4,-588 1912,-588 1912,4 -4,4"/>
<g id="clust1" class="cluster">
<title>cluster~</title>
<path fill="none" stroke="lightgray" stroke-width="2.6" d="M20,-8C20,-8 1888,-8 1888,-8 1894,-8 1900,-14 1900,-20 1900,-20 1900,-564 1900,-564 1900,-570 1894,-576 1888,-576 1888,-576 20,-576 20,-576 14,-576 8,-570 8,-564 8,-564 8,-20 8,-20 8,-14 14,-8 20,-8"/>
<text xml:space="preserve" text-anchor="middle" x="954" y="-559.65" font-family="Arial Black" font-size="13.00">fide</text>
</g>
<g id="clust2" class="cluster">
<title>cluster~/test</title>
<path fill="none" stroke="lightgray" stroke-width="2.6" d="M1602,-470C1602,-470 1686,-470 1686,-470 1692,-470 1698,-476 1698,-482 1698,-482 1698,-533 1698,-533 1698,-539 1692,-545 1686,-545 1686,-545 1602,-545 1602,-545 1596,-545 1590,-539 1590,-533 1590,-533 1590,-482 1590,-482 1590,-476 1596,-470 1602,-470"/>
<text xml:space="preserve" text-anchor="middle" x="1644" y="-528.65" font-family="Arial Black" font-size="13.00">test</text>
</g>
<g id="clust3" class="cluster">
<title>cluster~/lib</title>
<path fill="none" stroke="lightgray" stroke-width="2.6" d="M28,-16C28,-16 1880,-16 1880,-16 1886,-16 1892,-22 1892,-28 1892,-28 1892,-450 1892,-450 1892,-456 1886,-462 1880,-462 1880,-462 28,-462 28,-462 22,-462 16,-456 16,-450 16,-450 16,-28 16,-28 16,-22 22,-16 28,-16"/>
<text xml:space="preserve" text-anchor="middle" x="954" y="-445.65" font-family="Arial Black" font-size="13.00">lib</text>
</g>
<g id="clust4" class="cluster">
<title>cluster~/lib/providers</title>
<path fill="none" stroke="lightgray" stroke-width="2.6" d="M1466,-198C1466,-198 1568,-198 1568,-198 1574,-198 1580,-204 1580,-210 1580,-210 1580,-261 1580,-261 1580,-267 1574,-273 1568,-273 1568,-273 1466,-273 1466,-273 1460,-273 1454,-267 1454,-261 1454,-261 1454,-210 1454,-210 1454,-204 1460,-198 1466,-198"/>
<text xml:space="preserve" text-anchor="middle" x="1517" y="-256.65" font-family="Arial Black" font-size="13.00">providers</text>
</g>
<g id="clust5" class="cluster">
<title>cluster~/lib/panels</title>
<path fill="none" stroke="lightgray" stroke-width="2.6" d="M692,-107C692,-107 1422,-107 1422,-107 1428,-107 1434,-113 1434,-119 1434,-119 1434,-375 1434,-375 1434,-381 1428,-387 1422,-387 1422,-387 692,-387 692,-387 686,-387 680,-381 680,-375 680,-375 680,-119 680,-119 680,-113 686,-107 692,-107"/>
<text xml:space="preserve" text-anchor="middle" x="1057" y="-370.65" font-family="Arial Black" font-size="13.00">panels</text>
</g>
<g id="clust6" class="cluster">
<title>cluster~/lib/panels/right</title>
<path fill="none" stroke="lightgray" stroke-width="2.6" d="M1056,-198C1056,-198 1152,-198 1152,-198 1158,-198 1164,-204 1164,-210 1164,-210 1164,-344 1164,-344 1164,-350 1158,-356 1152,-356 1152,-356 1056,-356 1056,-356 1050,-356 1044,-350 1044,-344 1044,-344 1044,-210 1044,-210 1044,-204 1050,-198 1056,-198"/>
<text xml:space="preserve" text-anchor="middle" x="1104" y="-339.65" font-family="Arial Black" font-size="13.00">right</text>
</g>
<g id="clust7" class="cluster">
<title>cluster~/lib/panels/center</title>
<path fill="none" stroke="lightgray" stroke-width="2.6" d="M1184,-115C1184,-115 1414,-115 1414,-115 1420,-115 1426,-121 1426,-127 1426,-127 1426,-261 1426,-261 1426,-267 1420,-273 1414,-273 1414,-273 1184,-273 1184,-273 1178,-273 1172,-267 1172,-261 1172,-261 1172,-127 1172,-127 1172,-121 1178,-115 1184,-115"/>
<text xml:space="preserve" text-anchor="middle" x="1299" y="-256.65" font-family="Arial Black" font-size="13.00">center</text>
</g>
<g id="clust8" class="cluster">
<title>cluster~/lib/panels/left</title>
<path fill="none" stroke="lightgray" stroke-width="2.6" d="M700,-115C700,-115 1024,-115 1024,-115 1030,-115 1036,-121 1036,-127 1036,-127 1036,-344 1036,-344 1036,-350 1030,-356 1024,-356 1024,-356 700,-356 700,-356 694,-356 688,-350 688,-344 688,-344 688,-127 688,-127 688,-121 694,-115 700,-115"/>
<text xml:space="preserve" text-anchor="middle" x="862" y="-339.65" font-family="Arial Black" font-size="13.00">left</text>
</g>
<g id="clust9" class="cluster">
<title>cluster~/lib/utils</title>
<path fill="none" stroke="lightgray" stroke-width="2.6" d="M1298,-24C1298,-24 1540,-24 1540,-24 1546,-24 1552,-30 1552,-36 1552,-36 1552,-87 1552,-87 1552,-93 1546,-99 1540,-99 1540,-99 1298,-99 1298,-99 1292,-99 1286,-93 1286,-87 1286,-87 1286,-36 1286,-36 1286,-30 1292,-24 1298,-24"/>
<text xml:space="preserve" text-anchor="middle" x="1419" y="-82.65" font-family="Arial Black" font-size="13.00">utils</text>
</g>
<g id="clust10" class="cluster">
<title>cluster~/lib/models</title>
<path fill="none" stroke="lightgray" stroke-width="2.6" d="M540,-24C540,-24 660,-24 660,-24 666,-24 672,-30 672,-36 672,-36 672,-178 672,-178 672,-184 666,-190 660,-190 660,-190 540,-190 540,-190 534,-190 528,-184 528,-178 528,-178 528,-36 528,-36 528,-30 534,-24 540,-24"/>
<text xml:space="preserve" text-anchor="middle" x="600" y="-173.65" font-family="Arial Black" font-size="13.00">models</text>
</g>
<g id="clust11" class="cluster">
<title>cluster~/lib/screens</title>
<path fill="none" stroke="lightgray" stroke-width="2.6" d="M1454,-281C1454,-281 1688,-281 1688,-281 1694,-281 1700,-287 1700,-293 1700,-293 1700,-344 1700,-344 1700,-350 1694,-356 1688,-356 1688,-356 1454,-356 1454,-356 1448,-356 1442,-350 1442,-344 1442,-344 1442,-293 1442,-293 1442,-287 1448,-281 1454,-281"/>
<text xml:space="preserve" text-anchor="middle" x="1571" y="-339.65" font-family="Arial Black" font-size="13.00">screens</text>
</g>
<g id="clust12" class="cluster">
<title>cluster~/lib/theme</title>
<path fill="none" stroke="lightgray" stroke-width="2.6" d="M48,-198C48,-198 132,-198 132,-198 138,-198 144,-204 144,-210 144,-210 144,-261 144,-261 144,-267 138,-273 132,-273 132,-273 48,-273 48,-273 42,-273 36,-267 36,-261 36,-261 36,-210 36,-210 36,-204 42,-198 48,-198"/>
<text xml:space="preserve" text-anchor="middle" x="90" y="-256.65" font-family="Arial Black" font-size="13.00">theme</text>
</g>
<g id="clust13" class="cluster">
<title>cluster~/lib/services</title>
<path fill="none" stroke="lightgray" stroke-width="2.6" d="M88,-115C88,-115 460,-115 460,-115 466,-115 472,-121 472,-127 472,-127 472,-178 472,-178 472,-184 466,-190 460,-190 460,-190 88,-190 88,-190 82,-190 76,-184 76,-178 76,-178 76,-127 76,-127 76,-121 82,-115 88,-115"/>
<text xml:space="preserve" text-anchor="middle" x="274" y="-173.65" font-family="Arial Black" font-size="13.00">services</text>
</g>
<g id="clust14" class="cluster">
<title>cluster~/lib/widgets</title>
<path fill="none" stroke="lightgray" stroke-width="2.6" d="M1506,-115C1506,-115 1860,-115 1860,-115 1866,-115 1872,-121 1872,-127 1872,-127 1872,-178 1872,-178 1872,-184 1866,-190 1860,-190 1860,-190 1506,-190 1506,-190 1500,-190 1494,-184 1494,-178 1494,-178 1494,-127 1494,-127 1494,-121 1500,-115 1506,-115"/>
<text xml:space="preserve" text-anchor="middle" x="1683" y="-173.65" font-family="Arial Black" font-size="13.00">widgets</text>
</g>
<g id="clust15" class="cluster">
<title>cluster~/tool</title>
<path fill="none" stroke="lightgray" stroke-width="2.6" d="M1756,-470C1756,-470 1842,-470 1842,-470 1848,-470 1854,-476 1854,-482 1854,-482 1854,-533 1854,-533 1854,-539 1848,-545 1842,-545 1842,-545 1756,-545 1756,-545 1750,-545 1744,-539 1744,-533 1744,-533 1744,-482 1744,-482 1744,-476 1750,-470 1756,-470"/>
<text xml:space="preserve" text-anchor="middle" x="1799" y="-528.65" font-family="Arial Black" font-size="13.00">tool</text>
</g>
<!-- /test/widget_test.dart -->
<g id="node1" class="node">
<title>/test/widget_test.dart</title>
<path fill="Lavender" stroke="black" stroke-width="1.3" d="M1677.88,-514C1677.88,-514 1610.12,-514 1610.12,-514 1604.12,-514 1598.12,-508 1598.12,-502 1598.12,-502 1598.12,-490 1598.12,-490 1598.12,-484 1604.12,-478 1610.12,-478 1610.12,-478 1677.88,-478 1677.88,-478 1683.88,-478 1689.88,-484 1689.88,-490 1689.88,-490 1689.88,-502 1689.88,-502 1689.88,-508 1683.88,-514 1677.88,-514"/>
<text xml:space="preserve" text-anchor="middle" x="1644" y="-490.75" font-family="Arial" font-size="15.00">widget_test</text>
</g>
<!-- /lib/main.dart -->
<g id="node20" class="node">
<title>/lib/main.dart</title>
<path fill="Lavender" stroke="black" stroke-width="1.3" d="M1659,-431C1659,-431 1629,-431 1629,-431 1623,-431 1617,-425 1617,-419 1617,-419 1617,-407 1617,-407 1617,-401 1623,-395 1629,-395 1629,-395 1659,-395 1659,-395 1665,-395 1671,-401 1671,-407 1671,-407 1671,-419 1671,-419 1671,-425 1665,-431 1659,-431"/>
<text xml:space="preserve" text-anchor="middle" x="1644" y="-407.75" font-family="Arial" font-size="15.00">main</text>
</g>
<!-- /test/widget_test.dart&#45;&gt;/lib/main.dart -->
<g id="edge1" class="edge">
<title>/test/widget_test.dart&#45;&gt;/lib/main.dart</title>
<path fill="none" stroke="#aabbaa" stroke-width="1.3" stroke-opacity="0.533333" d="M1644,-477.42C1644,-467.45 1644,-454.7 1644,-443.26"/>
<polygon fill="#aabbaa" fill-opacity="0.533333" stroke="#aabbaa" stroke-width="1.3" stroke-opacity="0.533333" points="1647.5,-443.51 1644,-433.51 1640.5,-443.51 1647.5,-443.51"/>
</g>
<!-- /lib/providers/app_providers.dart -->
<g id="node2" class="node">
<title>/lib/providers/app_providers.dart</title>
<path fill="Lavender" stroke="black" stroke-width="1.3" d="M1560.25,-242C1560.25,-242 1473.75,-242 1473.75,-242 1467.75,-242 1461.75,-236 1461.75,-230 1461.75,-230 1461.75,-218 1461.75,-218 1461.75,-212 1467.75,-206 1473.75,-206 1473.75,-206 1560.25,-206 1560.25,-206 1566.25,-206 1572.25,-212 1572.25,-218 1572.25,-218 1572.25,-230 1572.25,-230 1572.25,-236 1566.25,-242 1560.25,-242"/>
<text xml:space="preserve" text-anchor="middle" x="1517" y="-218.75" font-family="Arial" font-size="15.00">app_providers</text>
</g>
<!-- /lib/utils/file_type_utils.dart -->
<g id="node15" class="node">
<title>/lib/utils/file_type_utils.dart</title>
<path fill="Lavender" stroke="black" stroke-width="1.3" d="M1532,-68C1532,-68 1450,-68 1450,-68 1444,-68 1438,-62 1438,-56 1438,-56 1438,-44 1438,-44 1438,-38 1444,-32 1450,-32 1450,-32 1532,-32 1532,-32 1538,-32 1544,-38 1544,-44 1544,-44 1544,-56 1544,-56 1544,-62 1538,-68 1532,-68"/>
<text xml:space="preserve" text-anchor="middle" x="1491" y="-44.75" font-family="Arial" font-size="15.00">file_type_utils</text>
</g>
<!-- /lib/providers/app_providers.dart&#45;&gt;/lib/utils/file_type_utils.dart -->
<g id="edge4" class="edge">
<title>/lib/providers/app_providers.dart&#45;&gt;/lib/utils/file_type_utils.dart</title>
<path fill="none" stroke="#aabbaa" stroke-width="1.3" stroke-opacity="0.533333" d="M1499.09,-205.56C1495.37,-200.89 1491.99,-195.58 1490,-190 1477.07,-153.77 1480.63,-108.76 1485.16,-79.96"/>
<polygon fill="#aabbaa" fill-opacity="0.533333" stroke="#aabbaa" stroke-width="1.3" stroke-opacity="0.533333" points="1488.58,-80.71 1486.84,-70.25 1481.68,-79.51 1488.58,-80.71"/>
</g>
<!-- /lib/models/project_node.dart -->
<g id="node16" class="node">
<title>/lib/models/project_node.dart</title>
<path fill="Lavender" stroke="black" stroke-width="1.3" d="M652.12,-159C652.12,-159 573.88,-159 573.88,-159 567.88,-159 561.88,-153 561.88,-147 561.88,-147 561.88,-135 561.88,-135 561.88,-129 567.88,-123 573.88,-123 573.88,-123 652.12,-123 652.12,-123 658.12,-123 664.12,-129 664.12,-135 664.12,-135 664.12,-147 664.12,-147 664.12,-153 658.12,-159 652.12,-159"/>
<text xml:space="preserve" text-anchor="middle" x="613" y="-135.75" font-family="Arial" font-size="15.00">project_node</text>
</g>
<!-- /lib/providers/app_providers.dart&#45;&gt;/lib/models/project_node.dart -->
<g id="edge3" class="edge">
<title>/lib/providers/app_providers.dart&#45;&gt;/lib/models/project_node.dart</title>
<path fill="none" stroke="#aabbaa" stroke-width="1.3" stroke-opacity="0.533333" d="M1464.13,-205.36C1452.98,-202.33 1441.2,-199.64 1430,-198 1388.99,-192 723.56,-202.35 684,-190 668.65,-185.21 653.6,-175.9 641.34,-166.75"/>
<polygon fill="#aabbaa" fill-opacity="0.533333" stroke="#aabbaa" stroke-width="1.3" stroke-opacity="0.533333" points="643.72,-164.17 633.7,-160.75 639.4,-169.68 643.72,-164.17"/>
</g>
<!-- /lib/models/file_system_item.dart -->
<g id="node17" class="node">
<title>/lib/models/file_system_item.dart</title>
<path fill="Lavender" stroke="black" stroke-width="1.3" d="M651.88,-68C651.88,-68 548.12,-68 548.12,-68 542.12,-68 536.12,-62 536.12,-56 536.12,-56 536.12,-44 536.12,-44 536.12,-38 542.12,-32 548.12,-32 548.12,-32 651.88,-32 651.88,-32 657.88,-32 663.88,-38 663.88,-44 663.88,-44 663.88,-56 663.88,-56 663.88,-62 657.88,-68 651.88,-68"/>
<text xml:space="preserve" text-anchor="middle" x="600" y="-44.75" font-family="Arial" font-size="15.00">file_system_item</text>
</g>
<!-- /lib/providers/app_providers.dart&#45;&gt;/lib/models/file_system_item.dart -->
<g id="edge2" class="edge">
<title>/lib/providers/app_providers.dart&#45;&gt;/lib/models/file_system_item.dart</title>
<path fill="none" stroke="#aabbaa" stroke-width="1.3" stroke-opacity="0.533333" d="M1491.7,-205.68C1486.3,-201.08 1481.01,-195.76 1477,-190 1454.66,-157.94 1479.31,-130.38 1448,-107 1433.2,-95.95 1300.43,-100.09 1282,-99 1061.9,-85.95 802.13,-66.57 676.15,-56.91"/>
<polygon fill="#aabbaa" fill-opacity="0.533333" stroke="#aabbaa" stroke-width="1.3" stroke-opacity="0.533333" points="676.58,-53.43 666.34,-56.16 676.04,-60.41 676.58,-53.43"/>
</g>
<!-- /lib/panels/right/outline_panel.dart -->
<g id="node3" class="node">
<title>/lib/panels/right/outline_panel.dart</title>
<path fill="Lavender" stroke="black" stroke-width="1.3" d="M1143.88,-242C1143.88,-242 1064.12,-242 1064.12,-242 1058.12,-242 1052.12,-236 1052.12,-230 1052.12,-230 1052.12,-218 1052.12,-218 1052.12,-212 1058.12,-206 1064.12,-206 1064.12,-206 1143.88,-206 1143.88,-206 1149.88,-206 1155.88,-212 1155.88,-218 1155.88,-218 1155.88,-230 1155.88,-230 1155.88,-236 1149.88,-242 1143.88,-242"/>
<text xml:space="preserve" text-anchor="middle" x="1104" y="-218.75" font-family="Arial" font-size="15.00">outline_panel</text>
</g>
<!-- /lib/panels/center/editor_screen.dart -->
<g id="node5" class="node">
<title>/lib/panels/center/editor_screen.dart</title>
<path fill="Lavender" stroke="black" stroke-width="1.3" d="M1406.38,-159C1406.38,-159 1323.62,-159 1323.62,-159 1317.62,-159 1311.62,-153 1311.62,-147 1311.62,-147 1311.62,-135 1311.62,-135 1311.62,-129 1317.62,-123 1323.62,-123 1323.62,-123 1406.38,-123 1406.38,-123 1412.38,-123 1418.38,-129 1418.38,-135 1418.38,-135 1418.38,-147 1418.38,-147 1418.38,-153 1412.38,-159 1406.38,-159"/>
<text xml:space="preserve" text-anchor="middle" x="1365" y="-135.75" font-family="Arial" font-size="15.00">editor_screen</text>
</g>
<!-- /lib/panels/right/outline_panel.dart&#45;&gt;/lib/panels/center/editor_screen.dart -->
<g id="edge6" class="edge">
<title>/lib/panels/right/outline_panel.dart&#45;&gt;/lib/panels/center/editor_screen.dart</title>
<path fill="none" stroke="#aabbaa" stroke-width="1.3" stroke-opacity="0.533333" d="M1143.34,-205.42C1151.36,-202.47 1159.84,-199.79 1168,-198 1197.36,-191.57 1274.86,-200.56 1303,-190 1316.27,-185.02 1329,-176.15 1339.44,-167.38"/>
<polygon fill="#aabbaa" fill-opacity="0.533333" stroke="#aabbaa" stroke-width="1.3" stroke-opacity="0.533333" points="1341.72,-170.04 1346.86,-160.77 1337.06,-164.81 1341.72,-170.04"/>
</g>
<!-- /lib/panels/right/outline_panel.dart&#45;&gt;/lib/models/file_system_item.dart -->
<g id="edge5" class="edge">
<title>/lib/panels/right/outline_panel.dart&#45;&gt;/lib/models/file_system_item.dart</title>
<path fill="none" stroke="#aabbaa" stroke-width="1.3" stroke-opacity="0.533333" d="M1065.4,-205.39C1057.18,-202.36 1048.43,-199.66 1040,-198 1026.32,-195.31 547.78,-199.94 538,-190 512.12,-163.71 523.02,-140.71 538,-107 543.32,-95.02 552.61,-84.53 562.4,-75.96"/>
<polygon fill="#aabbaa" fill-opacity="0.533333" stroke="#aabbaa" stroke-width="1.3" stroke-opacity="0.533333" points="564.34,-78.89 569.9,-69.88 559.93,-73.45 564.34,-78.89"/>
</g>
<!-- /lib/panels/right/right_panel.dart -->
<g id="node4" class="node">
<title>/lib/panels/right/right_panel.dart</title>
<path fill="Lavender" stroke="black" stroke-width="1.3" d="M1136.75,-325C1136.75,-325 1071.25,-325 1071.25,-325 1065.25,-325 1059.25,-319 1059.25,-313 1059.25,-313 1059.25,-301 1059.25,-301 1059.25,-295 1065.25,-289 1071.25,-289 1071.25,-289 1136.75,-289 1136.75,-289 1142.75,-289 1148.75,-295 1148.75,-301 1148.75,-301 1148.75,-313 1148.75,-313 1148.75,-319 1142.75,-325 1136.75,-325"/>
<text xml:space="preserve" text-anchor="middle" x="1104" y="-301.75" font-family="Arial" font-size="15.00">right_panel</text>
</g>
<!-- /lib/panels/right/right_panel.dart&#45;&gt;/lib/panels/right/outline_panel.dart -->
<g id="edge7" class="edge">
<title>/lib/panels/right/right_panel.dart&#45;&gt;/lib/panels/right/outline_panel.dart</title>
<path fill="none" stroke="#aabbaa" stroke-width="1.3" stroke-opacity="0.533333" d="M1104,-288.42C1104,-278.45 1104,-265.7 1104,-254.26"/>
<polygon fill="#aabbaa" fill-opacity="0.533333" stroke="#aabbaa" stroke-width="1.3" stroke-opacity="0.533333" points="1107.5,-254.51 1104,-244.51 1100.5,-254.51 1107.5,-254.51"/>
</g>
<!-- /lib/panels/right/right_panel.dart&#45;&gt;/lib/models/file_system_item.dart -->
<g id="edge8" class="edge">
<title>/lib/panels/right/right_panel.dart&#45;&gt;/lib/models/file_system_item.dart</title>
<path fill="none" stroke="#aabbaa" stroke-width="1.3" stroke-opacity="0.533333" d="M1065.39,-288.43C1057.17,-285.4 1048.42,-282.68 1040,-281 962.41,-265.48 762.78,-280.44 684,-273 483.01,-254.02 436.72,-219.62 236,-198 226.93,-197.02 78.29,-196.61 72,-190 59.28,-176.64 59.66,-120.71 72,-107 101.65,-74.04 384.95,-58.99 523.9,-53.55"/>
<polygon fill="#aabbaa" fill-opacity="0.533333" stroke="#aabbaa" stroke-width="1.3" stroke-opacity="0.533333" points="523.85,-57.05 533.71,-53.17 523.58,-50.06 523.85,-57.05"/>
</g>
<!-- /lib/utils/message_helper.dart -->
<g id="node14" class="node">
<title>/lib/utils/message_helper.dart</title>
<path fill="Lavender" stroke="black" stroke-width="1.3" d="M1408.12,-68C1408.12,-68 1305.88,-68 1305.88,-68 1299.88,-68 1293.88,-62 1293.88,-56 1293.88,-56 1293.88,-44 1293.88,-44 1293.88,-38 1299.88,-32 1305.88,-32 1305.88,-32 1408.12,-32 1408.12,-32 1414.12,-32 1420.12,-38 1420.12,-44 1420.12,-44 1420.12,-56 1420.12,-56 1420.12,-62 1414.12,-68 1408.12,-68"/>
<text xml:space="preserve" text-anchor="middle" x="1357" y="-44.75" font-family="Arial" font-size="15.00">message_helper</text>
</g>
<!-- /lib/panels/center/editor_screen.dart&#45;&gt;/lib/utils/message_helper.dart -->
<g id="edge9" class="edge">
<title>/lib/panels/center/editor_screen.dart&#45;&gt;/lib/utils/message_helper.dart</title>
<path fill="none" stroke="#aabbaa" stroke-width="1.3" stroke-opacity="0.533333" d="M1363.42,-122.42C1362.33,-110.35 1360.87,-94.05 1359.61,-80.07"/>
<polygon fill="#aabbaa" fill-opacity="0.533333" stroke="#aabbaa" stroke-width="1.3" stroke-opacity="0.533333" points="1363.13,-80.15 1358.75,-70.51 1356.16,-80.78 1363.13,-80.15"/>
</g>
<!-- /lib/panels/center/editor_screen.dart&#45;&gt;/lib/utils/file_type_utils.dart -->
<g id="edge10" class="edge">
<title>/lib/panels/center/editor_screen.dart&#45;&gt;/lib/utils/file_type_utils.dart</title>
<path fill="none" stroke="#aabbaa" stroke-width="1.3" stroke-opacity="0.533333" d="M1393.71,-122.37C1404.88,-115.32 1417.68,-106.99 1429,-99 1439.26,-91.76 1450.18,-83.51 1459.95,-75.91"/>
<polygon fill="#aabbaa" fill-opacity="0.533333" stroke="#aabbaa" stroke-width="1.3" stroke-opacity="0.533333" points="1462.01,-78.74 1467.72,-69.81 1457.69,-73.23 1462.01,-78.74"/>
</g>
<!-- /lib/panels/center/terminal_panel.dart -->
<g id="node6" class="node">
<title>/lib/panels/center/terminal_panel.dart</title>
<path fill="Lavender" stroke="black" stroke-width="1.3" d="M1281.75,-159C1281.75,-159 1192.25,-159 1192.25,-159 1186.25,-159 1180.25,-153 1180.25,-147 1180.25,-147 1180.25,-135 1180.25,-135 1180.25,-129 1186.25,-123 1192.25,-123 1192.25,-123 1281.75,-123 1281.75,-123 1287.75,-123 1293.75,-129 1293.75,-135 1293.75,-135 1293.75,-147 1293.75,-147 1293.75,-153 1287.75,-159 1281.75,-159"/>
<text xml:space="preserve" text-anchor="middle" x="1237" y="-135.75" font-family="Arial" font-size="15.00">terminal_panel</text>
</g>
<!-- /lib/panels/center/center_panel.dart -->
<g id="node7" class="node">
<title>/lib/panels/center/center_panel.dart</title>
<path fill="Lavender" stroke="black" stroke-width="1.3" d="M1392.12,-242C1392.12,-242 1313.88,-242 1313.88,-242 1307.88,-242 1301.88,-236 1301.88,-230 1301.88,-230 1301.88,-218 1301.88,-218 1301.88,-212 1307.88,-206 1313.88,-206 1313.88,-206 1392.12,-206 1392.12,-206 1398.12,-206 1404.12,-212 1404.12,-218 1404.12,-218 1404.12,-230 1404.12,-230 1404.12,-236 1398.12,-242 1392.12,-242"/>
<text xml:space="preserve" text-anchor="middle" x="1353" y="-218.75" font-family="Arial" font-size="15.00">center_panel</text>
</g>
<!-- /lib/panels/center/center_panel.dart&#45;&gt;/lib/panels/center/editor_screen.dart -->
<g id="edge12" class="edge">
<title>/lib/panels/center/center_panel.dart&#45;&gt;/lib/panels/center/editor_screen.dart</title>
<path fill="none" stroke="#aabbaa" stroke-width="1.3" stroke-opacity="0.533333" d="M1355.6,-205.42C1357.08,-195.45 1358.97,-182.7 1360.67,-171.26"/>
<polygon fill="#aabbaa" fill-opacity="0.533333" stroke="#aabbaa" stroke-width="1.3" stroke-opacity="0.533333" points="1364.11,-171.89 1362.11,-161.49 1357.19,-170.87 1364.11,-171.89"/>
</g>
<!-- /lib/panels/center/center_panel.dart&#45;&gt;/lib/panels/center/terminal_panel.dart -->
<g id="edge13" class="edge">
<title>/lib/panels/center/center_panel.dart&#45;&gt;/lib/panels/center/terminal_panel.dart</title>
<path fill="none" stroke="#aabbaa" stroke-width="1.3" stroke-opacity="0.533333" d="M1325.86,-205.41C1318.41,-200.49 1310.35,-195.1 1303,-190 1292.23,-182.54 1280.64,-174.21 1270.21,-166.6"/>
<polygon fill="#aabbaa" fill-opacity="0.533333" stroke="#aabbaa" stroke-width="1.3" stroke-opacity="0.533333" points="1272.36,-163.84 1262.23,-160.76 1268.23,-169.49 1272.36,-163.84"/>
</g>
<!-- /lib/panels/center/center_panel.dart&#45;&gt;/lib/models/file_system_item.dart -->
<g id="edge15" class="edge">
<title>/lib/panels/center/center_panel.dart&#45;&gt;/lib/models/file_system_item.dart</title>
<path fill="none" stroke="#aabbaa" stroke-width="1.3" stroke-opacity="0.533333" d="M1301.34,-214.31C1264.34,-208.5 1213.25,-201.34 1168,-198 1159.48,-197.37 559,-196.08 553,-190 527.09,-163.75 540.38,-141.66 553,-107 556.95,-96.14 564.04,-85.92 571.53,-77.26"/>
<polygon fill="#aabbaa" fill-opacity="0.533333" stroke="#aabbaa" stroke-width="1.3" stroke-opacity="0.533333" points="574.09,-79.65 578.35,-69.95 568.97,-74.88 574.09,-79.65"/>
</g>
<!-- /lib/screens/welcome_screen.dart -->
<g id="node19" class="node">
<title>/lib/screens/welcome_screen.dart</title>
<path fill="Lavender" stroke="black" stroke-width="1.3" d="M1565.88,-325C1565.88,-325 1462.12,-325 1462.12,-325 1456.12,-325 1450.12,-319 1450.12,-313 1450.12,-313 1450.12,-301 1450.12,-301 1450.12,-295 1456.12,-289 1462.12,-289 1462.12,-289 1565.88,-289 1565.88,-289 1571.88,-289 1577.88,-295 1577.88,-301 1577.88,-301 1577.88,-313 1577.88,-313 1577.88,-319 1571.88,-325 1565.88,-325"/>
<text xml:space="preserve" text-anchor="middle" x="1514" y="-301.75" font-family="Arial" font-size="15.00">welcome_screen</text>
</g>
<!-- /lib/panels/center/center_panel.dart&#45;&gt;/lib/screens/welcome_screen.dart -->
<g id="edge11" class="edge">
<title>/lib/panels/center/center_panel.dart&#45;&gt;/lib/screens/welcome_screen.dart</title>
<path fill="none" stroke="#aabbaa" stroke-width="1.3" stroke-opacity="0.533333" d="M1373.29,-242.51C1385.6,-252.46 1401.98,-264.59 1418,-273 1425.76,-277.07 1434.12,-280.81 1442.57,-284.19"/>
<polygon fill="#aabbaa" fill-opacity="0.533333" stroke="#aabbaa" stroke-width="1.3" stroke-opacity="0.533333" points="1441.24,-287.43 1451.83,-287.71 1443.73,-280.88 1441.24,-287.43"/>
</g>
<!-- /lib/widgets/resizable_splitter.dart -->
<g id="node25" class="node">
<title>/lib/widgets/resizable_splitter.dart</title>
<path fill="Lavender" stroke="black" stroke-width="1.3" d="M1617.88,-159C1617.88,-159 1514.12,-159 1514.12,-159 1508.12,-159 1502.12,-153 1502.12,-147 1502.12,-147 1502.12,-135 1502.12,-135 1502.12,-129 1508.12,-123 1514.12,-123 1514.12,-123 1617.88,-123 1617.88,-123 1623.88,-123 1629.88,-129 1629.88,-135 1629.88,-135 1629.88,-147 1629.88,-147 1629.88,-153 1623.88,-159 1617.88,-159"/>
<text xml:space="preserve" text-anchor="middle" x="1566" y="-135.75" font-family="Arial" font-size="15.00">resizable_splitter</text>
</g>
<!-- /lib/panels/center/center_panel.dart&#45;&gt;/lib/widgets/resizable_splitter.dart -->
<g id="edge14" class="edge">
<title>/lib/panels/center/center_panel.dart&#45;&gt;/lib/widgets/resizable_splitter.dart</title>
<path fill="none" stroke="#aabbaa" stroke-width="1.3" stroke-opacity="0.533333" d="M1399.22,-205.42C1431.46,-193.16 1474.68,-176.73 1509.05,-163.66"/>
<polygon fill="#aabbaa" fill-opacity="0.533333" stroke="#aabbaa" stroke-width="1.3" stroke-opacity="0.533333" points="1509.93,-167.07 1518.03,-160.24 1507.44,-160.52 1509.93,-167.07"/>
</g>
<!-- /lib/panels/left/git_panel.dart -->
<g id="node8" class="node">
<title>/lib/panels/left/git_panel.dart</title>
<path fill="Lavender" stroke="black" stroke-width="1.3" d="M760,-242C760,-242 708,-242 708,-242 702,-242 696,-236 696,-230 696,-230 696,-218 696,-218 696,-212 702,-206 708,-206 708,-206 760,-206 760,-206 766,-206 772,-212 772,-218 772,-218 772,-230 772,-230 772,-236 766,-242 760,-242"/>
<text xml:space="preserve" text-anchor="middle" x="734" y="-218.75" font-family="Arial" font-size="15.00">git_panel</text>
</g>
<!-- /lib/services/git_service.dart -->
<g id="node22" class="node">
<title>/lib/services/git_service.dart</title>
<path fill="Lavender" stroke="black" stroke-width="1.3" d="M159.62,-159C159.62,-159 96.38,-159 96.38,-159 90.38,-159 84.38,-153 84.38,-147 84.38,-147 84.38,-135 84.38,-135 84.38,-129 90.38,-123 96.38,-123 96.38,-123 159.62,-123 159.62,-123 165.62,-123 171.62,-129 171.62,-135 171.62,-135 171.62,-147 171.62,-147 171.62,-153 165.62,-159 159.62,-159"/>
<text xml:space="preserve" text-anchor="middle" x="128" y="-135.75" font-family="Arial" font-size="15.00">git_service</text>
</g>
<!-- /lib/panels/left/git_panel.dart&#45;&gt;/lib/services/git_service.dart -->
<g id="edge16" class="edge">
<title>/lib/panels/left/git_panel.dart&#45;&gt;/lib/services/git_service.dart</title>
<path fill="none" stroke="#aabbaa" stroke-width="1.3" stroke-opacity="0.533333" d="M702.9,-205.39C696.2,-202.36 689.02,-199.66 682,-198 654.91,-191.6 206.89,-200.22 181,-190 169.05,-185.28 158.1,-176.53 149.29,-167.78"/>
<polygon fill="#aabbaa" fill-opacity="0.533333" stroke="#aabbaa" stroke-width="1.3" stroke-opacity="0.533333" points="151.98,-165.53 142.59,-160.62 146.87,-170.31 151.98,-165.53"/>
</g>
<!-- /lib/panels/left/left_panel_controls.dart -->
<g id="node9" class="node">
<title>/lib/panels/left/left_panel_controls.dart</title>
<path fill="Lavender" stroke="black" stroke-width="1.3" d="M1015.62,-159C1015.62,-159 898.38,-159 898.38,-159 892.38,-159 886.38,-153 886.38,-147 886.38,-147 886.38,-135 886.38,-135 886.38,-129 892.38,-123 898.38,-123 898.38,-123 1015.62,-123 1015.62,-123 1021.62,-123 1027.62,-129 1027.62,-135 1027.62,-135 1027.62,-147 1027.62,-147 1027.62,-153 1021.62,-159 1015.62,-159"/>
<text xml:space="preserve" text-anchor="middle" x="957" y="-135.75" font-family="Arial" font-size="15.00">left_panel_controls</text>
</g>
<!-- /lib/panels/left/directory_contents.dart -->
<g id="node10" class="node">
<title>/lib/panels/left/directory_contents.dart</title>
<path fill="Lavender" stroke="black" stroke-width="1.3" d="M917.5,-242C917.5,-242 802.5,-242 802.5,-242 796.5,-242 790.5,-236 790.5,-230 790.5,-230 790.5,-218 790.5,-218 790.5,-212 796.5,-206 802.5,-206 802.5,-206 917.5,-206 917.5,-206 923.5,-206 929.5,-212 929.5,-218 929.5,-218 929.5,-230 929.5,-230 929.5,-236 923.5,-242 917.5,-242"/>
<text xml:space="preserve" text-anchor="middle" x="860" y="-218.75" font-family="Arial" font-size="15.00">directory_contents</text>
</g>
<!-- /lib/panels/left/directory_contents.dart&#45;&gt;/lib/models/file_system_item.dart -->
<g id="edge19" class="edge">
<title>/lib/panels/left/directory_contents.dart&#45;&gt;/lib/models/file_system_item.dart</title>
<path fill="none" stroke="#aabbaa" stroke-width="1.3" stroke-opacity="0.533333" d="M811.64,-205.37C801.63,-202.38 791.07,-199.7 781,-198 765.49,-195.38 508.96,-201.28 498,-190 472.29,-163.55 479.21,-138.75 498,-107 506.32,-92.94 519.56,-82.17 533.79,-74.03"/>
<polygon fill="#aabbaa" fill-opacity="0.533333" stroke="#aabbaa" stroke-width="1.3" stroke-opacity="0.533333" points="535.28,-77.19 542.52,-69.46 532.04,-70.99 535.28,-77.19"/>
</g>
<!-- /lib/panels/left/directory_contents.dart&#45;&gt;/lib/services/git_service.dart -->
<g id="edge18" class="edge">
<title>/lib/panels/left/directory_contents.dart&#45;&gt;/lib/services/git_service.dart</title>
<path fill="none" stroke="#aabbaa" stroke-width="1.3" stroke-opacity="0.533333" d="M812.08,-205.38C801.95,-202.35 791.23,-199.65 781,-198 748.09,-192.69 212.02,-202.2 181,-190 169.04,-185.3 158.09,-176.55 149.29,-167.8"/>
<polygon fill="#aabbaa" fill-opacity="0.533333" stroke="#aabbaa" stroke-width="1.3" stroke-opacity="0.533333" points="151.97,-165.55 142.58,-160.63 146.86,-170.33 151.97,-165.55"/>
</g>
<!-- /lib/services/file_system_service.dart -->
<g id="node23" class="node">
<title>/lib/services/file_system_service.dart</title>
<path fill="Lavender" stroke="black" stroke-width="1.3" d="M324.25,-159C324.25,-159 201.75,-159 201.75,-159 195.75,-159 189.75,-153 189.75,-147 189.75,-147 189.75,-135 189.75,-135 189.75,-129 195.75,-123 201.75,-123 201.75,-123 324.25,-123 324.25,-123 330.25,-123 336.25,-129 336.25,-135 336.25,-135 336.25,-147 336.25,-147 336.25,-153 330.25,-159 324.25,-159"/>
<text xml:space="preserve" text-anchor="middle" x="263" y="-135.75" font-family="Arial" font-size="15.00">file_system_service</text>
</g>
<!-- /lib/panels/left/directory_contents.dart&#45;&gt;/lib/services/file_system_service.dart -->
<g id="edge17" class="edge">
<title>/lib/panels/left/directory_contents.dart&#45;&gt;/lib/services/file_system_service.dart</title>
<path fill="none" stroke="#aabbaa" stroke-width="1.3" stroke-opacity="0.533333" d="M812.07,-205.42C801.94,-202.39 791.22,-199.68 781,-198 733.29,-190.18 392.57,-202.96 346,-190 328.15,-185.03 310.13,-175.31 295.46,-165.91"/>
<polygon fill="#aabbaa" fill-opacity="0.533333" stroke="#aabbaa" stroke-width="1.3" stroke-opacity="0.533333" points="297.78,-163.25 287.52,-160.6 293.89,-169.07 297.78,-163.25"/>
</g>
<!-- /lib/panels/left/folder_panel.dart -->
<g id="node11" class="node">
<title>/lib/panels/left/folder_panel.dart</title>
<path fill="Lavender" stroke="black" stroke-width="1.3" d="M896.88,-325C896.88,-325 823.12,-325 823.12,-325 817.12,-325 811.12,-319 811.12,-313 811.12,-313 811.12,-301 811.12,-301 811.12,-295 817.12,-289 823.12,-289 823.12,-289 896.88,-289 896.88,-289 902.88,-289 908.88,-295 908.88,-301 908.88,-301 908.88,-313 908.88,-313 908.88,-319 902.88,-325 896.88,-325"/>
<text xml:space="preserve" text-anchor="middle" x="860" y="-301.75" font-family="Arial" font-size="15.00">folder_panel</text>
</g>
<!-- /lib/panels/left/folder_panel.dart&#45;&gt;/lib/providers/app_providers.dart -->
<g id="edge27" class="edge">
<title>/lib/panels/left/folder_panel.dart&#45;&gt;/lib/providers/app_providers.dart</title>
<path fill="none" stroke="#aabbaa" stroke-width="1.3" stroke-opacity="0.533333" d="M909.49,-297.53C945.55,-291.75 995.65,-284.52 1040,-281 1083.21,-277.57 1388.14,-284.24 1430,-273 1448.55,-268.02 1467.41,-258.3 1482.81,-248.89"/>
<polygon fill="#aabbaa" fill-opacity="0.533333" stroke="#aabbaa" stroke-width="1.3" stroke-opacity="0.533333" points="1484.65,-251.87 1491.22,-243.56 1480.9,-245.96 1484.65,-251.87"/>
</g>
<!-- /lib/panels/left/folder_panel.dart&#45;&gt;/lib/panels/left/git_panel.dart -->
<g id="edge24" class="edge">
<title>/lib/panels/left/folder_panel.dart&#45;&gt;/lib/panels/left/git_panel.dart</title>
<path fill="none" stroke="#aabbaa" stroke-width="1.3" stroke-opacity="0.533333" d="M820.55,-288.4C814.69,-285.87 808.7,-283.33 803,-281 793.76,-277.22 790.38,-278.43 782,-273 772.66,-266.95 763.67,-258.83 756.06,-250.99"/>
<polygon fill="#aabbaa" fill-opacity="0.533333" stroke="#aabbaa" stroke-width="1.3" stroke-opacity="0.533333" points="758.79,-248.79 749.43,-243.83 753.65,-253.55 758.79,-248.79"/>
</g>
<!-- /lib/panels/left/left_panel.dart -->
<g id="node13" class="node">
<title>/lib/panels/left/left_panel.dart</title>
<path fill="Lavender" stroke="black" stroke-width="1.3" d="M1016.25,-242C1016.25,-242 959.75,-242 959.75,-242 953.75,-242 947.75,-236 947.75,-230 947.75,-230 947.75,-218 947.75,-218 947.75,-212 953.75,-206 959.75,-206 959.75,-206 1016.25,-206 1016.25,-206 1022.25,-206 1028.25,-212 1028.25,-218 1028.25,-218 1028.25,-230 1028.25,-230 1028.25,-236 1022.25,-242 1016.25,-242"/>
<text xml:space="preserve" text-anchor="middle" x="988" y="-218.75" font-family="Arial" font-size="15.00">left_panel</text>
</g>
<!-- /lib/panels/left/folder_panel.dart&#45;&gt;/lib/panels/left/left_panel.dart -->
<g id="edge26" class="edge">
<title>/lib/panels/left/folder_panel.dart&#45;&gt;/lib/panels/left/left_panel.dart</title>
<path fill="none" stroke="#aabbaa" stroke-width="1.3" stroke-opacity="0.533333" d="M901.14,-288.53C910.93,-284.11 921.08,-278.91 930,-273 939.58,-266.65 948.9,-258.27 957.27,-250.29"/>
<polygon fill="#aabbaa" fill-opacity="0.533333" stroke="#aabbaa" stroke-width="1.3" stroke-opacity="0.533333" points="959.45,-253.05 964.21,-243.59 954.59,-248.01 959.45,-253.05"/>
</g>
<!-- /lib/panels/left/folder_panel.dart&#45;&gt;/lib/utils/message_helper.dart -->
<g id="edge23" class="edge">
<title>/lib/panels/left/folder_panel.dart&#45;&gt;/lib/utils/message_helper.dart</title>
<path fill="none" stroke="#aabbaa" stroke-width="1.3" stroke-opacity="0.533333" d="M825.09,-288.45C817.94,-285.49 810.35,-282.81 803,-281 790.45,-277.92 695.82,-282.44 687,-273 664.26,-248.63 669.24,-226.21 687,-198 736.9,-118.77 787.05,-133 877,-107 1016.13,-66.78 1185.87,-55.34 1281.68,-52.15"/>
<polygon fill="#aabbaa" fill-opacity="0.533333" stroke="#aabbaa" stroke-width="1.3" stroke-opacity="0.533333" points="1281.71,-55.65 1291.6,-51.85 1281.49,-48.66 1281.71,-55.65"/>
</g>
<!-- /lib/panels/left/folder_panel.dart&#45;&gt;/lib/models/project_node.dart -->
<g id="edge20" class="edge">
<title>/lib/panels/left/folder_panel.dart&#45;&gt;/lib/models/project_node.dart</title>
<path fill="none" stroke="#aabbaa" stroke-width="1.3" stroke-opacity="0.533333" d="M825.11,-288.35C817.96,-285.41 810.36,-282.75 803,-281 786.65,-277.12 665.2,-283.4 652,-273 621.36,-248.87 613.99,-201.73 612.64,-171.07"/>
<polygon fill="#aabbaa" fill-opacity="0.533333" stroke="#aabbaa" stroke-width="1.3" stroke-opacity="0.533333" points="616.14,-171.32 612.42,-161.4 609.15,-171.48 616.14,-171.32"/>
</g>
<!-- /lib/panels/left/folder_panel.dart&#45;&gt;/lib/models/file_system_item.dart -->
<g id="edge21" class="edge">
<title>/lib/panels/left/folder_panel.dart&#45;&gt;/lib/models/file_system_item.dart</title>
<path fill="none" stroke="#aabbaa" stroke-width="1.3" stroke-opacity="0.533333" d="M825.77,-288.39C818.44,-285.36 810.6,-282.66 803,-281 748.06,-269.03 351.27,-287.71 297,-273 231.5,-255.25 228.93,-217.74 164,-198 152.91,-194.63 67.87,-198.5 60,-190 34.94,-162.93 35.3,-134.4 60,-107 90.48,-73.19 382.5,-58.52 523.94,-53.35"/>
<polygon fill="#aabbaa" fill-opacity="0.533333" stroke="#aabbaa" stroke-width="1.3" stroke-opacity="0.533333" points="523.67,-56.87 533.54,-53.01 523.42,-49.87 523.67,-56.87"/>
</g>
<!-- /lib/theme/app_theme.dart -->
<g id="node21" class="node">
<title>/lib/theme/app_theme.dart</title>
<path fill="Lavender" stroke="black" stroke-width="1.3" d="M123.5,-242C123.5,-242 56.5,-242 56.5,-242 50.5,-242 44.5,-236 44.5,-230 44.5,-230 44.5,-218 44.5,-218 44.5,-212 50.5,-206 56.5,-206 56.5,-206 123.5,-206 123.5,-206 129.5,-206 135.5,-212 135.5,-218 135.5,-218 135.5,-230 135.5,-230 135.5,-236 129.5,-242 123.5,-242"/>
<text xml:space="preserve" text-anchor="middle" x="90" y="-218.75" font-family="Arial" font-size="15.00">app_theme</text>
</g>
<!-- /lib/panels/left/folder_panel.dart&#45;&gt;/lib/theme/app_theme.dart -->
<g id="edge25" class="edge">
<title>/lib/panels/left/folder_panel.dart&#45;&gt;/lib/theme/app_theme.dart</title>
<path fill="none" stroke="#aabbaa" stroke-width="1.3" stroke-opacity="0.533333" d="M825.78,-288.37C818.44,-285.34 810.6,-282.64 803,-281 734.25,-266.13 237.67,-292.2 170,-273 152.82,-268.12 135.6,-258.55 121.56,-249.22"/>
<polygon fill="#aabbaa" fill-opacity="0.533333" stroke="#aabbaa" stroke-width="1.3" stroke-opacity="0.533333" points="123.78,-246.5 113.57,-243.67 119.78,-252.25 123.78,-246.5"/>
</g>
<!-- /lib/panels/left/folder_panel.dart&#45;&gt;/lib/services/git_service.dart -->
<g id="edge22" class="edge">
<title>/lib/panels/left/folder_panel.dart&#45;&gt;/lib/services/git_service.dart</title>
<path fill="none" stroke="#aabbaa" stroke-width="1.3" stroke-opacity="0.533333" d="M825.43,-288.41C818.19,-285.42 810.47,-282.73 803,-281 720.23,-261.83 696.14,-284.79 612,-273 471.19,-253.26 441.55,-219.47 301,-198 274.58,-193.96 205.6,-200.44 181,-190 169.34,-185.05 158.56,-176.43 149.81,-167.84"/>
<polygon fill="#aabbaa" fill-opacity="0.533333" stroke="#aabbaa" stroke-width="1.3" stroke-opacity="0.533333" points="152.56,-165.66 143.13,-160.83 147.49,-170.49 152.56,-165.66"/>
</g>
<!-- /lib/panels/left/file_explorer.dart -->
<g id="node12" class="node">
<title>/lib/panels/left/file_explorer.dart</title>
<path fill="Lavender" stroke="black" stroke-width="1.3" d="M781.5,-325C781.5,-325 708.5,-325 708.5,-325 702.5,-325 696.5,-319 696.5,-313 696.5,-313 696.5,-301 696.5,-301 696.5,-295 702.5,-289 708.5,-289 708.5,-289 781.5,-289 781.5,-289 787.5,-289 793.5,-295 793.5,-301 793.5,-301 793.5,-313 793.5,-313 793.5,-319 787.5,-325 781.5,-325"/>
<text xml:space="preserve" text-anchor="middle" x="745" y="-301.75" font-family="Arial" font-size="15.00">file_explorer</text>
</g>
<!-- /lib/panels/left/file_explorer.dart&#45;&gt;/lib/panels/left/directory_contents.dart -->
<g id="edge31" class="edge">
<title>/lib/panels/left/file_explorer.dart&#45;&gt;/lib/panels/left/directory_contents.dart</title>
<path fill="none" stroke="#aabbaa" stroke-width="1.3" stroke-opacity="0.533333" d="M769.95,-288.42C786.23,-276.96 807.69,-261.84 825.58,-249.24"/>
<polygon fill="#aabbaa" fill-opacity="0.533333" stroke="#aabbaa" stroke-width="1.3" stroke-opacity="0.533333" points="827.33,-252.29 833.49,-243.67 823.3,-246.57 827.33,-252.29"/>
</g>
<!-- /lib/panels/left/file_explorer.dart&#45;&gt;/lib/models/file_system_item.dart -->
<g id="edge30" class="edge">
<title>/lib/panels/left/file_explorer.dart&#45;&gt;/lib/models/file_system_item.dart</title>
<path fill="none" stroke="#aabbaa" stroke-width="1.3" stroke-opacity="0.533333" d="M713.9,-288.39C707.2,-285.36 700.02,-282.66 693,-281 678.86,-277.66 181.56,-281.8 170,-273 142.35,-251.97 175.02,-219.83 148,-198 129.28,-182.87 56.38,-207.63 40,-190 14.9,-162.97 15.25,-134.35 40,-107 71.84,-71.81 377.91,-57.78 523.61,-53.06"/>
<polygon fill="#aabbaa" fill-opacity="0.533333" stroke="#aabbaa" stroke-width="1.3" stroke-opacity="0.533333" points="523.66,-56.56 533.55,-52.75 523.44,-49.56 523.66,-56.56"/>
</g>
<!-- /lib/panels/left/file_explorer.dart&#45;&gt;/lib/services/git_service.dart -->
<g id="edge29" class="edge">
<title>/lib/panels/left/file_explorer.dart&#45;&gt;/lib/services/git_service.dart</title>
<path fill="none" stroke="#aabbaa" stroke-width="1.3" stroke-opacity="0.533333" d="M713.89,-288.45C707.19,-285.42 700.01,-282.7 693,-281 628.83,-265.46 460.74,-285.97 396,-273 295.57,-252.88 268.21,-243.73 181,-190 170.91,-183.78 160.97,-175.53 152.48,-167.62"/>
<polygon fill="#aabbaa" fill-opacity="0.533333" stroke="#aabbaa" stroke-width="1.3" stroke-opacity="0.533333" points="154.92,-165.11 145.31,-160.66 150.05,-170.13 154.92,-165.11"/>
</g>
<!-- /lib/panels/left/file_explorer.dart&#45;&gt;/lib/services/file_system_service.dart -->
<g id="edge28" class="edge">
<title>/lib/panels/left/file_explorer.dart&#45;&gt;/lib/services/file_system_service.dart</title>
<path fill="none" stroke="#aabbaa" stroke-width="1.3" stroke-opacity="0.533333" d="M712.95,-288.46C706.5,-285.54 699.66,-282.87 693,-281 658.17,-271.24 647.45,-280.21 612,-273 502.49,-250.73 478.74,-231.1 372,-198 360.45,-194.42 357.08,-194.83 346,-190 330.29,-183.14 313.78,-174.03 299.66,-165.59"/>
<polygon fill="#aabbaa" fill-opacity="0.533333" stroke="#aabbaa" stroke-width="1.3" stroke-opacity="0.533333" points="301.89,-162.85 291.53,-160.63 298.25,-168.83 301.89,-162.85"/>
</g>
<!-- /lib/panels/left/left_panel.dart&#45;&gt;/lib/panels/left/left_panel_controls.dart -->
<g id="edge33" class="edge">
<title>/lib/panels/left/left_panel.dart&#45;&gt;/lib/panels/left/left_panel_controls.dart</title>
<path fill="none" stroke="#aabbaa" stroke-width="1.3" stroke-opacity="0.533333" d="M981.27,-205.42C977.37,-195.23 972.37,-182.16 967.92,-170.53"/>
<polygon fill="#aabbaa" fill-opacity="0.533333" stroke="#aabbaa" stroke-width="1.3" stroke-opacity="0.533333" points="971.26,-169.47 964.42,-161.38 964.72,-171.97 971.26,-169.47"/>
</g>
<!-- /lib/panels/left/left_panel.dart&#45;&gt;/lib/panels/left/folder_panel.dart -->
<g id="edge32" class="edge">
<title>/lib/panels/left/left_panel.dart&#45;&gt;/lib/panels/left/folder_panel.dart</title>
<path fill="none" stroke="#aabbaa" stroke-width="1.3" stroke-opacity="0.533333" d="M981.27,-242.22C973.34,-252.2 960.9,-264.45 948,-273 939.54,-278.61 929.97,-283.57 920.31,-287.84"/>
<polygon fill="#aabbaa" fill-opacity="0.533333" stroke="#aabbaa" stroke-width="1.3" stroke-opacity="0.533333" points="919.14,-284.54 911.25,-291.6 921.83,-291 919.14,-284.54"/>
</g>
<!-- /lib/panels/left/left_panel.dart&#45;&gt;/lib/models/file_system_item.dart -->
<g id="edge34" class="edge">
<title>/lib/panels/left/left_panel.dart&#45;&gt;/lib/models/file_system_item.dart</title>
<path fill="none" stroke="#aabbaa" stroke-width="1.3" stroke-opacity="0.533333" d="M958.79,-205.41C952.46,-202.38 945.67,-199.67 939,-198 927.65,-195.16 526.19,-198.35 518,-190 492.16,-163.67 500.78,-139.62 518,-107 524.99,-93.77 536.66,-83.07 549.04,-74.71"/>
<polygon fill="#aabbaa" fill-opacity="0.533333" stroke="#aabbaa" stroke-width="1.3" stroke-opacity="0.533333" points="550.72,-77.79 557.38,-69.54 547.03,-71.84 550.72,-77.79"/>
</g>
<!-- /lib/widgets/message_widget.dart -->
<g id="node27" class="node">
<title>/lib/widgets/message_widget.dart</title>
<path fill="Lavender" stroke="black" stroke-width="1.3" d="M1851.88,-159C1851.88,-159 1748.12,-159 1748.12,-159 1742.12,-159 1736.12,-153 1736.12,-147 1736.12,-147 1736.12,-135 1736.12,-135 1736.12,-129 1742.12,-123 1748.12,-123 1748.12,-123 1851.88,-123 1851.88,-123 1857.88,-123 1863.88,-129 1863.88,-135 1863.88,-135 1863.88,-147 1863.88,-147 1863.88,-153 1857.88,-159 1851.88,-159"/>
<text xml:space="preserve" text-anchor="middle" x="1800" y="-135.75" font-family="Arial" font-size="15.00">message_widget</text>
</g>
<!-- /lib/utils/message_helper.dart&#45;&gt;/lib/widgets/message_widget.dart -->
<g id="edge35" class="edge">
<title>/lib/utils/message_helper.dart&#45;&gt;/lib/widgets/message_widget.dart</title>
<path fill="none" stroke="#aabbaa" stroke-width="1.3" stroke-opacity="0.533333" d="M1376.49,-68.44C1390.14,-79.46 1409.38,-92.77 1429,-99 1492.14,-119.05 1662.43,-92.17 1727,-107 1737.34,-109.37 1748,-113.26 1757.87,-117.56"/>
<polygon fill="#aabbaa" fill-opacity="0.533333" stroke="#aabbaa" stroke-width="1.3" stroke-opacity="0.533333" points="1756.29,-120.68 1766.84,-121.69 1759.22,-114.32 1756.29,-120.68"/>
</g>
<!-- /lib/models/project_node.dart&#45;&gt;/lib/models/file_system_item.dart -->
<g id="edge36" class="edge">
<title>/lib/models/project_node.dart&#45;&gt;/lib/models/file_system_item.dart</title>
<path fill="none" stroke="#aabbaa" stroke-width="1.3" stroke-opacity="0.533333" d="M610.43,-122.42C608.67,-110.35 606.29,-94.05 604.25,-80.07"/>
<polygon fill="#aabbaa" fill-opacity="0.533333" stroke="#aabbaa" stroke-width="1.3" stroke-opacity="0.533333" points="607.76,-79.88 602.85,-70.49 600.83,-80.89 607.76,-79.88"/>
</g>
<!-- /lib/screens/main_layout.dart -->
<g id="node18" class="node">
<title>/lib/screens/main_layout.dart</title>
<path fill="Lavender" stroke="black" stroke-width="1.3" d="M1680.12,-325C1680.12,-325 1607.88,-325 1607.88,-325 1601.88,-325 1595.88,-319 1595.88,-313 1595.88,-313 1595.88,-301 1595.88,-301 1595.88,-295 1601.88,-289 1607.88,-289 1607.88,-289 1680.12,-289 1680.12,-289 1686.12,-289 1692.12,-295 1692.12,-301 1692.12,-301 1692.12,-313 1692.12,-313 1692.12,-319 1686.12,-325 1680.12,-325"/>
<text xml:space="preserve" text-anchor="middle" x="1644" y="-301.75" font-family="Arial" font-size="15.00">main_layout</text>
</g>
<!-- /lib/screens/main_layout.dart&#45;&gt;/lib/providers/app_providers.dart -->
<g id="edge38" class="edge">
<title>/lib/screens/main_layout.dart&#45;&gt;/lib/providers/app_providers.dart</title>
<path fill="none" stroke="#aabbaa" stroke-width="1.3" stroke-opacity="0.533333" d="M1616.44,-288.42C1598.3,-276.85 1574.33,-261.56 1554.46,-248.89"/>
<polygon fill="#aabbaa" fill-opacity="0.533333" stroke="#aabbaa" stroke-width="1.3" stroke-opacity="0.533333" points="1556.48,-246.03 1546.16,-243.6 1552.71,-251.93 1556.48,-246.03"/>
</g>
<!-- /lib/screens/main_layout.dart&#45;&gt;/lib/panels/right/right_panel.dart -->
<g id="edge44" class="edge">
<title>/lib/screens/main_layout.dart&#45;&gt;/lib/panels/right/right_panel.dart</title>
<path fill="none" stroke="#aabbaa" stroke-width="1.3" stroke-opacity="0.533333" d="M1637.74,-325.27C1628.71,-347.9 1609.57,-384.3 1578,-391 1549.52,-397.04 1475.9,-394.49 1447,-391 1344.15,-378.59 1227.64,-345.97 1160.31,-325.22"/>
<polygon fill="#aabbaa" fill-opacity="0.533333" stroke="#aabbaa" stroke-width="1.3" stroke-opacity="0.533333" points="1161.6,-321.95 1151.01,-322.33 1159.52,-328.64 1161.6,-321.95"/>
</g>
<!-- /lib/screens/main_layout.dart&#45;&gt;/lib/panels/center/editor_screen.dart -->
<g id="edge37" class="edge">
<title>/lib/screens/main_layout.dart&#45;&gt;/lib/panels/center/editor_screen.dart</title>
<path fill="none" stroke="#aabbaa" stroke-width="1.3" stroke-opacity="0.533333" d="M1609.11,-288.36C1601.96,-285.41 1594.36,-282.75 1587,-281 1570.87,-277.16 1451.19,-283.05 1438,-273 1410.06,-251.7 1430.31,-228.58 1413,-198 1407.01,-187.41 1398.85,-176.97 1390.96,-168.03"/>
<polygon fill="#aabbaa" fill-opacity="0.533333" stroke="#aabbaa" stroke-width="1.3" stroke-opacity="0.533333" points="1393.62,-165.74 1384.28,-160.75 1388.47,-170.48 1393.62,-165.74"/>
</g>
<!-- /lib/screens/main_layout.dart&#45;&gt;/lib/panels/center/center_panel.dart -->
<g id="edge43" class="edge">
<title>/lib/screens/main_layout.dart&#45;&gt;/lib/panels/center/center_panel.dart</title>
<path fill="none" stroke="#aabbaa" stroke-width="1.3" stroke-opacity="0.533333" d="M1609.42,-288.45C1602.18,-285.45 1594.47,-282.75 1587,-281 1550.4,-272.42 1453.42,-285.6 1418,-273 1404.1,-268.06 1390.65,-259.07 1379.62,-250.2"/>
<polygon fill="#aabbaa" fill-opacity="0.533333" stroke="#aabbaa" stroke-width="1.3" stroke-opacity="0.533333" points="1381.99,-247.62 1372.11,-243.81 1377.46,-252.96 1381.99,-247.62"/>
</g>
<!-- /lib/screens/main_layout.dart&#45;&gt;/lib/panels/left/left_panel.dart -->
<g id="edge42" class="edge">
<title>/lib/screens/main_layout.dart&#45;&gt;/lib/panels/left/left_panel.dart</title>
<path fill="none" stroke="#aabbaa" stroke-width="1.3" stroke-opacity="0.533333" d="M1609.77,-288.38C1602.44,-285.35 1594.6,-282.65 1587,-281 1557.3,-274.55 1068.22,-284.27 1040,-273 1028.19,-268.28 1017.43,-259.53 1008.8,-250.78"/>
<polygon fill="#aabbaa" fill-opacity="0.533333" stroke="#aabbaa" stroke-width="1.3" stroke-opacity="0.533333" points="1011.59,-248.64 1002.25,-243.64 1006.43,-253.37 1011.59,-248.64"/>
</g>
<!-- /lib/screens/main_layout.dart&#45;&gt;/lib/utils/file_type_utils.dart -->
<g id="edge40" class="edge">
<title>/lib/screens/main_layout.dart&#45;&gt;/lib/utils/file_type_utils.dart</title>
<path fill="none" stroke="#aabbaa" stroke-width="1.3" stroke-opacity="0.533333" d="M1692.31,-297.34C1747.7,-284.56 1835.99,-254.74 1876,-190 1895.39,-158.62 1900.13,-134.9 1876,-107 1835.44,-60.11 1655.04,-51.67 1556.24,-50.65"/>
<polygon fill="#aabbaa" fill-opacity="0.533333" stroke="#aabbaa" stroke-width="1.3" stroke-opacity="0.533333" points="1556.31,-47.15 1546.29,-50.58 1556.26,-54.15 1556.31,-47.15"/>
</g>
<!-- /lib/screens/main_layout.dart&#45;&gt;/lib/models/file_system_item.dart -->
<g id="edge39" class="edge">
<title>/lib/screens/main_layout.dart&#45;&gt;/lib/models/file_system_item.dart</title>
<path fill="none" stroke="#aabbaa" stroke-width="1.3" stroke-opacity="0.533333" d="M1609.1,-288.38C1601.95,-285.44 1594.35,-282.77 1587,-281 1572.17,-277.44 1461.11,-283.45 1450,-273 1422.93,-247.55 1457.12,-132.39 1430,-107 1417.98,-95.75 1298.44,-100.02 1282,-99 1061.94,-85.31 802.15,-66.21 676.16,-56.77"/>
<polygon fill="#aabbaa" fill-opacity="0.533333" stroke="#aabbaa" stroke-width="1.3" stroke-opacity="0.533333" points="676.58,-53.29 666.35,-56.03 676.06,-60.27 676.58,-53.29"/>
</g>
<!-- /lib/screens/main_layout.dart&#45;&gt;/lib/widgets/resizable_splitter.dart -->
<g id="edge41" class="edge">
<title>/lib/screens/main_layout.dart&#45;&gt;/lib/widgets/resizable_splitter.dart</title>
<path fill="none" stroke="#aabbaa" stroke-width="1.3" stroke-opacity="0.533333" d="M1635.65,-288.45C1622.16,-260.09 1595.46,-203.95 1579.32,-170.01"/>
<polygon fill="#aabbaa" fill-opacity="0.533333" stroke="#aabbaa" stroke-width="1.3" stroke-opacity="0.533333" points="1582.59,-168.73 1575.13,-161.2 1576.27,-171.74 1582.59,-168.73"/>
</g>
<!-- /lib/main.dart&#45;&gt;/lib/providers/app_providers.dart -->
<g id="edge45" class="edge">
<title>/lib/main.dart&#45;&gt;/lib/providers/app_providers.dart</title>
<path fill="none" stroke="#aabbaa" stroke-width="1.3" stroke-opacity="0.533333" d="M1671.38,-407.61C1683.51,-404.15 1696.68,-397.99 1704,-387 1730.13,-347.8 1736.26,-315.34 1704,-281 1694.24,-270.61 1589.27,-278.19 1576,-273 1563.33,-268.04 1551.29,-259.3 1541.44,-250.62"/>
<polygon fill="#aabbaa" fill-opacity="0.533333" stroke="#aabbaa" stroke-width="1.3" stroke-opacity="0.533333" points="1543.84,-248.07 1534.15,-243.79 1539.05,-253.18 1543.84,-248.07"/>
</g>
<!-- /lib/main.dart&#45;&gt;/lib/panels/center/editor_screen.dart -->
<g id="edge48" class="edge">
<title>/lib/main.dart&#45;&gt;/lib/panels/center/editor_screen.dart</title>
<path fill="none" stroke="#aabbaa" stroke-width="1.3" stroke-opacity="0.533333" d="M1671.52,-410.71C1688.47,-408.31 1709.01,-402.19 1720,-387 1733.81,-367.92 1731.53,-301.54 1720,-281 1685.34,-219.25 1651.3,-220.03 1584,-198 1544.15,-184.95 1530.86,-199.39 1490,-190 1463.91,-184.01 1436,-173.69 1413.18,-164.16"/>
<polygon fill="#aabbaa" fill-opacity="0.533333" stroke="#aabbaa" stroke-width="1.3" stroke-opacity="0.533333" points="1414.8,-161.04 1404.23,-160.34 1412.05,-167.48 1414.8,-161.04"/>
</g>
<!-- /lib/main.dart&#45;&gt;/lib/screens/main_layout.dart -->
<g id="edge46" class="edge">
<title>/lib/main.dart&#45;&gt;/lib/screens/main_layout.dart</title>
<path fill="none" stroke="#aabbaa" stroke-width="1.3" stroke-opacity="0.533333" d="M1644,-394.36C1644,-378.73 1644,-355.59 1644,-337.2"/>
<polygon fill="#aabbaa" fill-opacity="0.533333" stroke="#aabbaa" stroke-width="1.3" stroke-opacity="0.533333" points="1647.5,-337.35 1644,-327.35 1640.5,-337.35 1647.5,-337.35"/>
</g>
<!-- /lib/main.dart&#45;&gt;/lib/screens/welcome_screen.dart -->
<g id="edge49" class="edge">
<title>/lib/main.dart&#45;&gt;/lib/screens/welcome_screen.dart</title>
<path fill="none" stroke="#aabbaa" stroke-width="1.3" stroke-opacity="0.533333" d="M1616.39,-402.57C1606.64,-398.56 1595.89,-393.33 1587,-387 1566.53,-372.42 1547.41,-351.33 1533.87,-334.61"/>
<polygon fill="#aabbaa" fill-opacity="0.533333" stroke="#aabbaa" stroke-width="1.3" stroke-opacity="0.533333" points="1536.74,-332.59 1527.8,-326.9 1531.24,-336.92 1536.74,-332.59"/>
</g>
<!-- /lib/main.dart&#45;&gt;/lib/theme/app_theme.dart -->
<g id="edge51" class="edge">
<title>/lib/main.dart&#45;&gt;/lib/theme/app_theme.dart</title>
<path fill="none" stroke="#aabbaa" stroke-width="1.3" stroke-opacity="0.533333" d="M1616.62,-411.97C1480.05,-411.71 871.7,-409.29 684,-387 443.01,-358.39 369.3,-376.92 150,-273 137.94,-267.29 126.15,-258.71 116.25,-250.38"/>
<polygon fill="#aabbaa" fill-opacity="0.533333" stroke="#aabbaa" stroke-width="1.3" stroke-opacity="0.533333" points="118.68,-247.86 108.87,-243.87 114.05,-253.11 118.68,-247.86"/>
</g>
<!-- /lib/main.dart&#45;&gt;/lib/services/git_service.dart -->
<g id="edge50" class="edge">
<title>/lib/main.dart&#45;&gt;/lib/services/git_service.dart</title>
<path fill="none" stroke="#aabbaa" stroke-width="1.3" stroke-opacity="0.533333" d="M1616.4,-412.04C1420.21,-412.29 242.41,-412.72 172,-387 96.63,-359.47 66.45,-345.47 32,-273 17.69,-242.89 15.4,-226.9 32,-198 41.22,-181.94 57.02,-170.05 73.17,-161.46"/>
<polygon fill="#aabbaa" fill-opacity="0.533333" stroke="#aabbaa" stroke-width="1.3" stroke-opacity="0.533333" points="74.56,-164.69 82,-157.15 71.48,-158.4 74.56,-164.69"/>
</g>
<!-- /lib/widgets/title_bar.dart -->
<g id="node26" class="node">
<title>/lib/widgets/title_bar.dart</title>
<path fill="Lavender" stroke="black" stroke-width="1.3" d="M1705.62,-159C1705.62,-159 1660.38,-159 1660.38,-159 1654.38,-159 1648.38,-153 1648.38,-147 1648.38,-147 1648.38,-135 1648.38,-135 1648.38,-129 1654.38,-123 1660.38,-123 1660.38,-123 1705.62,-123 1705.62,-123 1711.62,-123 1717.62,-129 1717.62,-135 1717.62,-135 1717.62,-147 1717.62,-147 1717.62,-153 1711.62,-159 1705.62,-159"/>
<text xml:space="preserve" text-anchor="middle" x="1683" y="-135.75" font-family="Arial" font-size="15.00">title_bar</text>
</g>
<!-- /lib/main.dart&#45;&gt;/lib/widgets/title_bar.dart -->
<g id="edge47" class="edge">
<title>/lib/main.dart&#45;&gt;/lib/widgets/title_bar.dart</title>
<path fill="none" stroke="#aabbaa" stroke-width="1.3" stroke-opacity="0.533333" d="M1671.36,-412.8C1692.7,-411.78 1721.12,-406.46 1736,-387 1787.02,-320.27 1770.41,-274.63 1736,-198 1733.81,-193.12 1730.81,-193.76 1727,-190 1719.98,-183.08 1712.63,-175.31 1706,-168.07"/>
<polygon fill="#aabbaa" fill-opacity="0.533333" stroke="#aabbaa" stroke-width="1.3" stroke-opacity="0.533333" points="1708.68,-165.81 1699.38,-160.74 1703.49,-170.51 1708.68,-165.81"/>
</g>
<!-- /lib/services/file_system_service.dart&#45;&gt;/lib/models/file_system_item.dart -->
<g id="edge52" class="edge">
<title>/lib/services/file_system_service.dart&#45;&gt;/lib/models/file_system_item.dart</title>
<path fill="none" stroke="#aabbaa" stroke-width="1.3" stroke-opacity="0.533333" d="M303.48,-122.39C316.86,-116.98 331.92,-111.32 346,-107 404.87,-88.94 473.1,-74.23 524.01,-64.42"/>
<polygon fill="#aabbaa" fill-opacity="0.533333" stroke="#aabbaa" stroke-width="1.3" stroke-opacity="0.533333" points="524.48,-67.9 533.65,-62.59 523.17,-61.02 524.48,-67.9"/>
</g>
<!-- /lib/services/editor_service.dart -->
<g id="node24" class="node">
<title>/lib/services/editor_service.dart</title>
<path fill="Lavender" stroke="black" stroke-width="1.3" d="M451.5,-159C451.5,-159 366.5,-159 366.5,-159 360.5,-159 354.5,-153 354.5,-147 354.5,-147 354.5,-135 354.5,-135 354.5,-129 360.5,-123 366.5,-123 366.5,-123 451.5,-123 451.5,-123 457.5,-123 463.5,-129 463.5,-135 463.5,-135 463.5,-147 463.5,-147 463.5,-153 457.5,-159 451.5,-159"/>
<text xml:space="preserve" text-anchor="middle" x="409" y="-135.75" font-family="Arial" font-size="15.00">editor_service</text>
</g>
<!-- /lib/widgets/title_bar.dart&#45;&gt;/lib/providers/app_providers.dart -->
<g id="edge53" class="edge">
<title>/lib/widgets/title_bar.dart&#45;&gt;/lib/providers/app_providers.dart</title>
<path fill="none" stroke="#aabbaa" stroke-width="1.3" stroke-opacity="0.533333" d="M1671,-159.42C1663.05,-169.73 1651.75,-182.24 1639,-190 1622.47,-200.06 1602.85,-207.1 1584.23,-212.02"/>
<polygon fill="#aabbaa" fill-opacity="0.533333" stroke="#aabbaa" stroke-width="1.3" stroke-opacity="0.533333" points="1583.59,-208.57 1574.71,-214.34 1585.26,-215.37 1583.59,-208.57"/>
</g>
<!-- /tool/sort_source.dart -->
<g id="node28" class="node">
<title>/tool/sort_source.dart</title>
<path fill="Lavender" stroke="black" stroke-width="1.3" d="M1834.38,-514C1834.38,-514 1763.62,-514 1763.62,-514 1757.62,-514 1751.62,-508 1751.62,-502 1751.62,-502 1751.62,-490 1751.62,-490 1751.62,-484 1757.62,-478 1763.62,-478 1763.62,-478 1834.38,-478 1834.38,-478 1840.38,-478 1846.38,-484 1846.38,-490 1846.38,-490 1846.38,-502 1846.38,-502 1846.38,-508 1840.38,-514 1834.38,-514"/>
<text xml:space="preserve" text-anchor="middle" x="1799" y="-490.75" font-family="Arial" font-size="15.00">sort_source</text>
</g>
</g>
</svg>
