<?xml version="1.0" encoding="UTF-8" standalone="no"?>
<!DOCTYPE svg PUBLIC "-//W3C//DTD SVG 1.1//EN"
 "http://www.w3.org/Graphics/SVG/1.1/DTD/svg11.dtd">
<!-- Generated by graphviz version 13.1.2 (20250808.2320)
 -->
<!-- Pages: 1 -->
<svg width="2829pt" height="747pt"
 viewBox="0.00 0.00 2829.00 747.00" xmlns="http://www.w3.org/2000/svg" xmlns:xlink="http://www.w3.org/1999/xlink">
<g id="graph0" class="graph" transform="scale(1 1) rotate(0) translate(4 743)">
<polygon fill="white" stroke="none" points="-4,4 -4,-743 2825.04,-743 2825.04,4 -4,4"/>
<g id="clust1" class="cluster">
<title>cluster~</title>
<path fill="none" stroke="lightgray" stroke-width="2.6" d="M55.04,-8C55.04,-8 2801.04,-8 2801.04,-8 2807.04,-8 2813.04,-14 2813.04,-20 2813.04,-20 2813.04,-719 2813.04,-719 2813.04,-725 2807.04,-731 2801.04,-731 2801.04,-731 55.04,-731 55.04,-731 49.04,-731 43.04,-725 43.04,-719 43.04,-719 43.04,-20 43.04,-20 43.04,-14 49.04,-8 55.04,-8"/>
<text xml:space="preserve" text-anchor="middle" x="1428.04" y="-714.65" font-family="Arial Black" font-size="13.00">fide</text>
</g>
<g id="clust2" class="cluster">
<title>cluster~/test</title>
<path fill="none" stroke="lightgray" stroke-width="2.6" d="M2237.04,-625C2237.04,-625 2321.04,-625 2321.04,-625 2327.04,-625 2333.04,-631 2333.04,-637 2333.04,-637 2333.04,-688 2333.04,-688 2333.04,-694 2327.04,-700 2321.04,-700 2321.04,-700 2237.04,-700 2237.04,-700 2231.04,-700 2225.04,-694 2225.04,-688 2225.04,-688 2225.04,-637 2225.04,-637 2225.04,-631 2231.04,-625 2237.04,-625"/>
<text xml:space="preserve" text-anchor="middle" x="2279.04" y="-683.65" font-family="Arial Black" font-size="13.00">test</text>
</g>
<g id="clust3" class="cluster">
<title>cluster~/lib</title>
<path fill="none" stroke="lightgray" stroke-width="2.6" d="M63.04,-16C63.04,-16 2793.04,-16 2793.04,-16 2799.04,-16 2805.04,-22 2805.04,-28 2805.04,-28 2805.04,-605 2805.04,-605 2805.04,-611 2799.04,-617 2793.04,-617 2793.04,-617 63.04,-617 63.04,-617 57.04,-617 51.04,-611 51.04,-605 51.04,-605 51.04,-28 51.04,-28 51.04,-22 57.04,-16 63.04,-16"/>
<text xml:space="preserve" text-anchor="middle" x="1428.04" y="-600.65" font-family="Arial Black" font-size="13.00">lib</text>
</g>
<g id="clust4" class="cluster">
<title>cluster~/lib/providers</title>
<path fill="none" stroke="lightgray" stroke-width="2.6" d="M2451.04,-187C2451.04,-187 2553.04,-187 2553.04,-187 2559.04,-187 2565.04,-193 2565.04,-199 2565.04,-199 2565.04,-250 2565.04,-250 2565.04,-256 2559.04,-262 2553.04,-262 2553.04,-262 2451.04,-262 2451.04,-262 2445.04,-262 2439.04,-256 2439.04,-250 2439.04,-250 2439.04,-199 2439.04,-199 2439.04,-193 2445.04,-187 2451.04,-187"/>
<text xml:space="preserve" text-anchor="middle" x="2502.04" y="-245.65" font-family="Arial Black" font-size="13.00">providers</text>
</g>
<g id="clust5" class="cluster">
<title>cluster~/lib/panels</title>
<path fill="none" stroke="lightgray" stroke-width="2.6" d="M895.04,-179C895.04,-179 2001.04,-179 2001.04,-179 2007.04,-179 2013.04,-185 2013.04,-191 2013.04,-191 2013.04,-530 2013.04,-530 2013.04,-536 2007.04,-542 2001.04,-542 2001.04,-542 895.04,-542 895.04,-542 889.04,-542 883.04,-536 883.04,-530 883.04,-530 883.04,-191 883.04,-191 883.04,-185 889.04,-179 895.04,-179"/>
<text xml:space="preserve" text-anchor="middle" x="1448.04" y="-525.65" font-family="Arial Black" font-size="13.00">panels</text>
</g>
<g id="clust6" class="cluster">
<title>cluster~/lib/panels/right</title>
<path fill="none" stroke="lightgray" stroke-width="2.6" d="M1807.04,-353C1807.04,-353 1993.04,-353 1993.04,-353 1999.04,-353 2005.04,-359 2005.04,-365 2005.04,-365 2005.04,-499 2005.04,-499 2005.04,-505 1999.04,-511 1993.04,-511 1993.04,-511 1807.04,-511 1807.04,-511 1801.04,-511 1795.04,-505 1795.04,-499 1795.04,-499 1795.04,-365 1795.04,-365 1795.04,-359 1801.04,-353 1807.04,-353"/>
<text xml:space="preserve" text-anchor="middle" x="1900.04" y="-494.65" font-family="Arial Black" font-size="13.00">right</text>
</g>
<g id="clust7" class="cluster">
<title>cluster~/lib/panels/center</title>
<path fill="none" stroke="lightgray" stroke-width="2.6" d="M1545.04,-187C1545.04,-187 1775.04,-187 1775.04,-187 1781.04,-187 1787.04,-193 1787.04,-199 1787.04,-199 1787.04,-416 1787.04,-416 1787.04,-422 1781.04,-428 1775.04,-428 1775.04,-428 1545.04,-428 1545.04,-428 1539.04,-428 1533.04,-422 1533.04,-416 1533.04,-416 1533.04,-199 1533.04,-199 1533.04,-193 1539.04,-187 1545.04,-187"/>
<text xml:space="preserve" text-anchor="middle" x="1660.04" y="-411.65" font-family="Arial Black" font-size="13.00">center</text>
</g>
<g id="clust8" class="cluster">
<title>cluster~/lib/panels/left</title>
<path fill="none" stroke="lightgray" stroke-width="2.6" d="M903.04,-270C903.04,-270 1513.04,-270 1513.04,-270 1519.04,-270 1525.04,-276 1525.04,-282 1525.04,-282 1525.04,-499 1525.04,-499 1525.04,-505 1519.04,-511 1513.04,-511 1513.04,-511 903.04,-511 903.04,-511 897.04,-511 891.04,-505 891.04,-499 891.04,-499 891.04,-282 891.04,-282 891.04,-276 897.04,-270 903.04,-270"/>
<text xml:space="preserve" text-anchor="middle" x="1208.04" y="-494.65" font-family="Arial Black" font-size="13.00">left</text>
</g>
<g id="clust9" class="cluster">
<title>cluster~/lib/utils</title>
<path fill="none" stroke="lightgray" stroke-width="2.6" d="M1757.04,-96C1757.04,-96 2087.04,-96 2087.04,-96 2093.04,-96 2099.04,-102 2099.04,-108 2099.04,-108 2099.04,-159 2099.04,-159 2099.04,-165 2093.04,-171 2087.04,-171 2087.04,-171 1757.04,-171 1757.04,-171 1751.04,-171 1745.04,-165 1745.04,-159 1745.04,-159 1745.04,-108 1745.04,-108 1745.04,-102 1751.04,-96 1757.04,-96"/>
<text xml:space="preserve" text-anchor="middle" x="1922.04" y="-154.65" font-family="Arial Black" font-size="13.00">utils</text>
</g>
<g id="clust10" class="cluster">
<title>cluster~/lib/models</title>
<path fill="none" stroke="lightgray" stroke-width="2.6" d="M1130.04,-24C1130.04,-24 1526.04,-24 1526.04,-24 1532.04,-24 1538.04,-30 1538.04,-36 1538.04,-36 1538.04,-159 1538.04,-159 1538.04,-165 1532.04,-171 1526.04,-171 1526.04,-171 1130.04,-171 1130.04,-171 1124.04,-171 1118.04,-165 1118.04,-159 1118.04,-159 1118.04,-36 1118.04,-36 1118.04,-30 1124.04,-24 1130.04,-24"/>
<text xml:space="preserve" text-anchor="middle" x="1328.04" y="-154.65" font-family="Arial Black" font-size="13.00">models</text>
</g>
<g id="clust11" class="cluster">
<title>cluster~/lib/screens</title>
<path fill="none" stroke="lightgray" stroke-width="2.6" d="M2149.04,-436C2149.04,-436 2517.04,-436 2517.04,-436 2523.04,-436 2529.04,-442 2529.04,-448 2529.04,-448 2529.04,-499 2529.04,-499 2529.04,-505 2523.04,-511 2517.04,-511 2517.04,-511 2149.04,-511 2149.04,-511 2143.04,-511 2137.04,-505 2137.04,-499 2137.04,-499 2137.04,-448 2137.04,-448 2137.04,-442 2143.04,-436 2149.04,-436"/>
<text xml:space="preserve" text-anchor="middle" x="2333.04" y="-494.65" font-family="Arial Black" font-size="13.00">screens</text>
</g>
<g id="clust12" class="cluster">
<title>cluster~/lib/theme</title>
<path fill="none" stroke="lightgray" stroke-width="2.6" d="M2033.04,-436C2033.04,-436 2117.04,-436 2117.04,-436 2123.04,-436 2129.04,-442 2129.04,-448 2129.04,-448 2129.04,-499 2129.04,-499 2129.04,-505 2123.04,-511 2117.04,-511 2117.04,-511 2033.04,-511 2033.04,-511 2027.04,-511 2021.04,-505 2021.04,-499 2021.04,-499 2021.04,-448 2021.04,-448 2021.04,-442 2027.04,-436 2033.04,-436"/>
<text xml:space="preserve" text-anchor="middle" x="2075.04" y="-494.65" font-family="Arial Black" font-size="13.00">theme</text>
</g>
<g id="clust13" class="cluster">
<title>cluster~/lib/services</title>
<path fill="none" stroke="lightgray" stroke-width="2.6" d="M2045.04,-187C2045.04,-187 2419.04,-187 2419.04,-187 2425.04,-187 2431.04,-193 2431.04,-199 2431.04,-199 2431.04,-333 2431.04,-333 2431.04,-339 2425.04,-345 2419.04,-345 2419.04,-345 2045.04,-345 2045.04,-345 2039.04,-345 2033.04,-339 2033.04,-333 2033.04,-333 2033.04,-199 2033.04,-199 2033.04,-193 2039.04,-187 2045.04,-187"/>
<text xml:space="preserve" text-anchor="middle" x="2232.04" y="-328.65" font-family="Arial Black" font-size="13.00">services</text>
</g>
<g id="clust14" class="cluster">
<title>cluster~/lib/widgets</title>
<path fill="none" stroke="lightgray" stroke-width="2.6" d="M263.04,-187C263.04,-187 863.04,-187 863.04,-187 869.04,-187 875.04,-193 875.04,-199 875.04,-199 875.04,-250 875.04,-250 875.04,-256 869.04,-262 863.04,-262 863.04,-262 263.04,-262 263.04,-262 257.04,-262 251.04,-256 251.04,-250 251.04,-250 251.04,-199 251.04,-199 251.04,-193 257.04,-187 263.04,-187"/>
<text xml:space="preserve" text-anchor="middle" x="563.04" y="-245.65" font-family="Arial Black" font-size="13.00">widgets</text>
</g>
<g id="clust15" class="cluster">
<title>cluster~/tool</title>
<path fill="none" stroke="lightgray" stroke-width="2.6" d="M2565.04,-625C2565.04,-625 2651.04,-625 2651.04,-625 2657.04,-625 2663.04,-631 2663.04,-637 2663.04,-637 2663.04,-688 2663.04,-688 2663.04,-694 2657.04,-700 2651.04,-700 2651.04,-700 2565.04,-700 2565.04,-700 2559.04,-700 2553.04,-694 2553.04,-688 2553.04,-688 2553.04,-637 2553.04,-637 2553.04,-631 2559.04,-625 2565.04,-625"/>
<text xml:space="preserve" text-anchor="middle" x="2608.04" y="-683.65" font-family="Arial Black" font-size="13.00">tool</text>
</g>
<!-- /test/widget_test.dart -->
<g id="node1" class="node">
<title>/test/widget_test.dart</title>
<path fill="Lavender" stroke="black" stroke-width="1.3" d="M2312.92,-669C2312.92,-669 2245.17,-669 2245.17,-669 2239.17,-669 2233.17,-663 2233.17,-657 2233.17,-657 2233.17,-645 2233.17,-645 2233.17,-639 2239.17,-633 2245.17,-633 2245.17,-633 2312.92,-633 2312.92,-633 2318.92,-633 2324.92,-639 2324.92,-645 2324.92,-645 2324.92,-657 2324.92,-657 2324.92,-663 2318.92,-669 2312.92,-669"/>
<text xml:space="preserve" text-anchor="middle" x="2279.04" y="-645.75" font-family="Arial" font-size="15.00">widget_test</text>
</g>
<!-- /lib/main.dart -->
<g id="node29" class="node">
<title>/lib/main.dart</title>
<path fill="Lavender" stroke="black" stroke-width="1.3" d="M2294.04,-586C2294.04,-586 2264.04,-586 2264.04,-586 2258.04,-586 2252.04,-580 2252.04,-574 2252.04,-574 2252.04,-562 2252.04,-562 2252.04,-556 2258.04,-550 2264.04,-550 2264.04,-550 2294.04,-550 2294.04,-550 2300.04,-550 2306.04,-556 2306.04,-562 2306.04,-562 2306.04,-574 2306.04,-574 2306.04,-580 2300.04,-586 2294.04,-586"/>
<text xml:space="preserve" text-anchor="middle" x="2279.04" y="-562.75" font-family="Arial" font-size="15.00">main</text>
</g>
<!-- /test/widget_test.dart&#45;&gt;/lib/main.dart -->
<g id="edge1" class="edge">
<title>/test/widget_test.dart&#45;&gt;/lib/main.dart</title>
<path fill="none" stroke="#aabbaa" stroke-width="1.3" stroke-opacity="0.533333" d="M2279.04,-632.42C2279.04,-622.45 2279.04,-609.7 2279.04,-598.26"/>
<polygon fill="#aabbaa" fill-opacity="0.533333" stroke="#aabbaa" stroke-width="1.3" stroke-opacity="0.533333" points="2282.54,-598.51 2279.04,-588.51 2275.54,-598.51 2282.54,-598.51"/>
</g>
<!-- /lib/providers/app_providers.dart -->
<g id="node2" class="node">
<title>/lib/providers/app_providers.dart</title>
<path fill="Lavender" stroke="black" stroke-width="1.3" d="M2545.29,-231C2545.29,-231 2458.79,-231 2458.79,-231 2452.79,-231 2446.79,-225 2446.79,-219 2446.79,-219 2446.79,-207 2446.79,-207 2446.79,-201 2452.79,-195 2458.79,-195 2458.79,-195 2545.29,-195 2545.29,-195 2551.29,-195 2557.29,-201 2557.29,-207 2557.29,-207 2557.29,-219 2557.29,-219 2557.29,-225 2551.29,-231 2545.29,-231"/>
<text xml:space="preserve" text-anchor="middle" x="2502.04" y="-207.75" font-family="Arial" font-size="15.00">app_providers</text>
</g>
<!-- /lib/utils/file_type_utils.dart -->
<g id="node21" class="node">
<title>/lib/utils/file_type_utils.dart</title>
<path fill="Lavender" stroke="black" stroke-width="1.3" d="M1991.04,-140C1991.04,-140 1909.04,-140 1909.04,-140 1903.04,-140 1897.04,-134 1897.04,-128 1897.04,-128 1897.04,-116 1897.04,-116 1897.04,-110 1903.04,-104 1909.04,-104 1909.04,-104 1991.04,-104 1991.04,-104 1997.04,-104 2003.04,-110 2003.04,-116 2003.04,-116 2003.04,-128 2003.04,-128 2003.04,-134 1997.04,-140 1991.04,-140"/>
<text xml:space="preserve" text-anchor="middle" x="1950.04" y="-116.75" font-family="Arial" font-size="15.00">file_type_utils</text>
</g>
<!-- /lib/providers/app_providers.dart&#45;&gt;/lib/utils/file_type_utils.dart -->
<g id="edge6" class="edge">
<title>/lib/providers/app_providers.dart&#45;&gt;/lib/utils/file_type_utils.dart</title>
<path fill="none" stroke="#aabbaa" stroke-width="1.3" stroke-opacity="0.533333" d="M2473.42,-194.45C2461.92,-188.34 2448.27,-182.21 2435.04,-179 2389.36,-167.9 2056.38,-186.63 2012.04,-171 1998.34,-166.17 1985.28,-157.02 1974.72,-148"/>
<polygon fill="#aabbaa" fill-opacity="0.533333" stroke="#aabbaa" stroke-width="1.3" stroke-opacity="0.533333" points="1977.34,-145.65 1967.58,-141.53 1972.64,-150.84 1977.34,-145.65"/>
</g>
<!-- /lib/models/project_node.dart -->
<g id="node23" class="node">
<title>/lib/models/project_node.dart</title>
<path fill="Lavender" stroke="black" stroke-width="1.3" d="M1518.17,-140C1518.17,-140 1439.92,-140 1439.92,-140 1433.92,-140 1427.92,-134 1427.92,-128 1427.92,-128 1427.92,-116 1427.92,-116 1427.92,-110 1433.92,-104 1439.92,-104 1439.92,-104 1518.17,-104 1518.17,-104 1524.17,-104 1530.17,-110 1530.17,-116 1530.17,-116 1530.17,-128 1530.17,-128 1530.17,-134 1524.17,-140 1518.17,-140"/>
<text xml:space="preserve" text-anchor="middle" x="1479.04" y="-116.75" font-family="Arial" font-size="15.00">project_node</text>
</g>
<!-- /lib/providers/app_providers.dart&#45;&gt;/lib/models/project_node.dart -->
<g id="edge3" class="edge">
<title>/lib/providers/app_providers.dart&#45;&gt;/lib/models/project_node.dart</title>
<path fill="none" stroke="#aabbaa" stroke-width="1.3" stroke-opacity="0.533333" d="M2473.43,-194.4C2461.93,-188.28 2448.28,-182.16 2435.04,-179 2397.54,-170.04 1779.42,-174.71 1741.04,-171 1672.36,-164.36 1594.73,-149.15 1541.92,-137.62"/>
<polygon fill="#aabbaa" fill-opacity="0.533333" stroke="#aabbaa" stroke-width="1.3" stroke-opacity="0.533333" points="1542.82,-134.24 1532.3,-135.5 1541.31,-141.07 1542.82,-134.24"/>
</g>
<!-- /lib/models/document_state.dart -->
<g id="node24" class="node">
<title>/lib/models/document_state.dart</title>
<path fill="Lavender" stroke="black" stroke-width="1.3" d="M1397.67,-140C1397.67,-140 1298.42,-140 1298.42,-140 1292.42,-140 1286.42,-134 1286.42,-128 1286.42,-128 1286.42,-116 1286.42,-116 1286.42,-110 1292.42,-104 1298.42,-104 1298.42,-104 1397.67,-104 1397.67,-104 1403.67,-104 1409.67,-110 1409.67,-116 1409.67,-116 1409.67,-128 1409.67,-128 1409.67,-134 1403.67,-140 1397.67,-140"/>
<text xml:space="preserve" text-anchor="middle" x="1348.04" y="-116.75" font-family="Arial" font-size="15.00">document_state</text>
</g>
<!-- /lib/providers/app_providers.dart&#45;&gt;/lib/models/document_state.dart -->
<g id="edge4" class="edge">
<title>/lib/providers/app_providers.dart&#45;&gt;/lib/models/document_state.dart</title>
<path fill="none" stroke="#aabbaa" stroke-width="1.3" stroke-opacity="0.533333" d="M2473.44,-194.38C2461.94,-188.26 2448.29,-182.14 2435.04,-179 2380.12,-165.98 1472.95,-187.74 1419.04,-171 1403.68,-166.23 1388.63,-156.93 1376.37,-147.77"/>
<polygon fill="#aabbaa" fill-opacity="0.533333" stroke="#aabbaa" stroke-width="1.3" stroke-opacity="0.533333" points="1378.76,-145.2 1368.73,-141.77 1374.43,-150.7 1378.76,-145.2"/>
</g>
<!-- /lib/models/file_system_item.dart -->
<g id="node25" class="node">
<title>/lib/models/file_system_item.dart</title>
<path fill="Lavender" stroke="black" stroke-width="1.3" d="M1517.92,-68C1517.92,-68 1414.17,-68 1414.17,-68 1408.17,-68 1402.17,-62 1402.17,-56 1402.17,-56 1402.17,-44 1402.17,-44 1402.17,-38 1408.17,-32 1414.17,-32 1414.17,-32 1517.92,-32 1517.92,-32 1523.92,-32 1529.92,-38 1529.92,-44 1529.92,-44 1529.92,-56 1529.92,-56 1529.92,-62 1523.92,-68 1517.92,-68"/>
<text xml:space="preserve" text-anchor="middle" x="1466.04" y="-44.75" font-family="Arial" font-size="15.00">file_system_item</text>
</g>
<!-- /lib/providers/app_providers.dart&#45;&gt;/lib/models/file_system_item.dart -->
<g id="edge2" class="edge">
<title>/lib/providers/app_providers.dart&#45;&gt;/lib/models/file_system_item.dart</title>
<path fill="none" stroke="#aabbaa" stroke-width="1.3" stroke-opacity="0.533333" d="M2485.45,-194.62C2458.51,-167.75 2402.3,-117.01 2343.04,-96 2268.72,-69.64 1741.69,-56.5 1542.25,-52.42"/>
<polygon fill="#aabbaa" fill-opacity="0.533333" stroke="#aabbaa" stroke-width="1.3" stroke-opacity="0.533333" points="1542.48,-48.93 1532.42,-52.22 1542.34,-55.93 1542.48,-48.93"/>
</g>
<!-- /lib/services/project_service.dart -->
<g id="node31" class="node">
<title>/lib/services/project_service.dart</title>
<path fill="Lavender" stroke="black" stroke-width="1.3" d="M2145.29,-314C2145.29,-314 2052.79,-314 2052.79,-314 2046.79,-314 2040.79,-308 2040.79,-302 2040.79,-302 2040.79,-290 2040.79,-290 2040.79,-284 2046.79,-278 2052.79,-278 2052.79,-278 2145.29,-278 2145.29,-278 2151.29,-278 2157.29,-284 2157.29,-290 2157.29,-290 2157.29,-302 2157.29,-302 2157.29,-308 2151.29,-314 2145.29,-314"/>
<text xml:space="preserve" text-anchor="middle" x="2099.04" y="-290.75" font-family="Arial" font-size="15.00">project_service</text>
</g>
<!-- /lib/providers/app_providers.dart&#45;&gt;/lib/services/project_service.dart -->
<g id="edge5" class="edge">
<title>/lib/providers/app_providers.dart&#45;&gt;/lib/services/project_service.dart</title>
<path fill="none" stroke="#aabbaa" stroke-width="1.3" stroke-opacity="0.533333" d="M2491.48,-231.65C2480.24,-242.61 2462.48,-255.77 2444.04,-262 2415.82,-271.53 2205.29,-264.34 2176.04,-270 2170.97,-270.98 2165.78,-272.29 2160.6,-273.8"/>
<polygon fill="#aabbaa" fill-opacity="0.533333" stroke="#aabbaa" stroke-width="1.3" stroke-opacity="0.533333" points="2159.68,-270.42 2151.2,-276.77 2161.79,-277.09 2159.68,-270.42"/>
</g>
<!-- /lib/panels/right/outline_panel.dart -->
<g id="node3" class="node">
<title>/lib/panels/right/outline_panel.dart</title>
<path fill="Lavender" stroke="black" stroke-width="1.3" d="M1894.92,-397C1894.92,-397 1815.17,-397 1815.17,-397 1809.17,-397 1803.17,-391 1803.17,-385 1803.17,-385 1803.17,-373 1803.17,-373 1803.17,-367 1809.17,-361 1815.17,-361 1815.17,-361 1894.92,-361 1894.92,-361 1900.92,-361 1906.92,-367 1906.92,-373 1906.92,-373 1906.92,-385 1906.92,-385 1906.92,-391 1900.92,-397 1894.92,-397"/>
<text xml:space="preserve" text-anchor="middle" x="1855.04" y="-373.75" font-family="Arial" font-size="15.00">outline_panel</text>
</g>
<!-- /lib/panels/center/editor_screen.dart -->
<g id="node7" class="node">
<title>/lib/panels/center/editor_screen.dart</title>
<path fill="Lavender" stroke="black" stroke-width="1.3" d="M1635.42,-314C1635.42,-314 1552.67,-314 1552.67,-314 1546.67,-314 1540.67,-308 1540.67,-302 1540.67,-302 1540.67,-290 1540.67,-290 1540.67,-284 1546.67,-278 1552.67,-278 1552.67,-278 1635.42,-278 1635.42,-278 1641.42,-278 1647.42,-284 1647.42,-290 1647.42,-290 1647.42,-302 1647.42,-302 1647.42,-308 1641.42,-314 1635.42,-314"/>
<text xml:space="preserve" text-anchor="middle" x="1594.04" y="-290.75" font-family="Arial" font-size="15.00">editor_screen</text>
</g>
<!-- /lib/panels/right/outline_panel.dart&#45;&gt;/lib/panels/center/editor_screen.dart -->
<g id="edge8" class="edge">
<title>/lib/panels/right/outline_panel.dart&#45;&gt;/lib/panels/center/editor_screen.dart</title>
<path fill="none" stroke="#aabbaa" stroke-width="1.3" stroke-opacity="0.533333" d="M1815.7,-360.42C1807.68,-357.47 1799.2,-354.79 1791.04,-353 1761.69,-346.57 1684.18,-355.56 1656.04,-345 1642.77,-340.02 1630.04,-331.15 1619.6,-322.38"/>
<polygon fill="#aabbaa" fill-opacity="0.533333" stroke="#aabbaa" stroke-width="1.3" stroke-opacity="0.533333" points="1621.98,-319.81 1612.18,-315.77 1617.33,-325.04 1621.98,-319.81"/>
</g>
<!-- /lib/panels/right/outline_panel.dart&#45;&gt;/lib/models/file_system_item.dart -->
<g id="edge7" class="edge">
<title>/lib/panels/right/outline_panel.dart&#45;&gt;/lib/models/file_system_item.dart</title>
<path fill="none" stroke="#aabbaa" stroke-width="1.3" stroke-opacity="0.533333" d="M1891.76,-360.35C1899.61,-357.33 1907.97,-354.63 1916.04,-353 1936.9,-348.78 2663.52,-355.48 2682.04,-345 2719.72,-323.67 2721.04,-303.6 2733.04,-262 2753.5,-191.11 2785.28,-149.09 2734.04,-96 2692.54,-53 1810,-50.57 1542.33,-50.82"/>
<polygon fill="#aabbaa" fill-opacity="0.533333" stroke="#aabbaa" stroke-width="1.3" stroke-opacity="0.533333" points="1542.39,-47.32 1532.39,-50.83 1542.4,-54.32 1542.39,-47.32"/>
</g>
<!-- /lib/panels/right/ai_panel.dart -->
<g id="node4" class="node">
<title>/lib/panels/right/ai_panel.dart</title>
<path fill="Lavender" stroke="black" stroke-width="1.3" d="M1984.79,-397C1984.79,-397 1937.29,-397 1937.29,-397 1931.29,-397 1925.29,-391 1925.29,-385 1925.29,-385 1925.29,-373 1925.29,-373 1925.29,-367 1931.29,-361 1937.29,-361 1937.29,-361 1984.79,-361 1984.79,-361 1990.79,-361 1996.79,-367 1996.79,-373 1996.79,-373 1996.79,-385 1996.79,-385 1996.79,-391 1990.79,-397 1984.79,-397"/>
<text xml:space="preserve" text-anchor="middle" x="1961.04" y="-373.75" font-family="Arial" font-size="15.00">ai_panel</text>
</g>
<!-- /lib/panels/right/ai_panel.dart&#45;&gt;/lib/models/file_system_item.dart -->
<g id="edge10" class="edge">
<title>/lib/panels/right/ai_panel.dart&#45;&gt;/lib/models/file_system_item.dart</title>
<path fill="none" stroke="#aabbaa" stroke-width="1.3" stroke-opacity="0.533333" d="M1997.09,-377.44C2142.67,-375.04 2680.95,-364.84 2711.04,-345 2757.89,-314.11 2792.02,-136.37 2753.04,-96 2710.84,-52.3 1812.22,-50.37 1542.15,-50.78"/>
<polygon fill="#aabbaa" fill-opacity="0.533333" stroke="#aabbaa" stroke-width="1.3" stroke-opacity="0.533333" points="1542.48,-47.28 1532.49,-50.8 1542.5,-54.28 1542.48,-47.28"/>
</g>
<!-- /lib/services/ai_service.dart -->
<g id="node34" class="node">
<title>/lib/services/ai_service.dart</title>
<path fill="Lavender" stroke="black" stroke-width="1.3" d="M2246.42,-314C2246.42,-314 2187.67,-314 2187.67,-314 2181.67,-314 2175.67,-308 2175.67,-302 2175.67,-302 2175.67,-290 2175.67,-290 2175.67,-284 2181.67,-278 2187.67,-278 2187.67,-278 2246.42,-278 2246.42,-278 2252.42,-278 2258.42,-284 2258.42,-290 2258.42,-290 2258.42,-302 2258.42,-302 2258.42,-308 2252.42,-314 2246.42,-314"/>
<text xml:space="preserve" text-anchor="middle" x="2217.04" y="-290.75" font-family="Arial" font-size="15.00">ai_service</text>
</g>
<!-- /lib/panels/right/ai_panel.dart&#45;&gt;/lib/services/ai_service.dart -->
<g id="edge9" class="edge">
<title>/lib/panels/right/ai_panel.dart&#45;&gt;/lib/services/ai_service.dart</title>
<path fill="none" stroke="#aabbaa" stroke-width="1.3" stroke-opacity="0.533333" d="M1997.42,-378.47C2039.97,-377.63 2111.54,-371.82 2166.04,-345 2176.89,-339.66 2187.01,-331.23 2195.32,-322.91"/>
<polygon fill="#aabbaa" fill-opacity="0.533333" stroke="#aabbaa" stroke-width="1.3" stroke-opacity="0.533333" points="2197.66,-325.53 2201.95,-315.85 2192.55,-320.74 2197.66,-325.53"/>
</g>
<!-- /lib/panels/right/right_panel.dart -->
<g id="node5" class="node">
<title>/lib/panels/right/right_panel.dart</title>
<path fill="Lavender" stroke="black" stroke-width="1.3" d="M1935.79,-480C1935.79,-480 1870.29,-480 1870.29,-480 1864.29,-480 1858.29,-474 1858.29,-468 1858.29,-468 1858.29,-456 1858.29,-456 1858.29,-450 1864.29,-444 1870.29,-444 1870.29,-444 1935.79,-444 1935.79,-444 1941.79,-444 1947.79,-450 1947.79,-456 1947.79,-456 1947.79,-468 1947.79,-468 1947.79,-474 1941.79,-480 1935.79,-480"/>
<text xml:space="preserve" text-anchor="middle" x="1903.04" y="-456.75" font-family="Arial" font-size="15.00">right_panel</text>
</g>
<!-- /lib/panels/right/right_panel.dart&#45;&gt;/lib/panels/right/outline_panel.dart -->
<g id="edge11" class="edge">
<title>/lib/panels/right/right_panel.dart&#45;&gt;/lib/panels/right/outline_panel.dart</title>
<path fill="none" stroke="#aabbaa" stroke-width="1.3" stroke-opacity="0.533333" d="M1892.63,-443.42C1886.46,-433.02 1878.52,-419.61 1871.52,-407.8"/>
<polygon fill="#aabbaa" fill-opacity="0.533333" stroke="#aabbaa" stroke-width="1.3" stroke-opacity="0.533333" points="1874.55,-406.05 1866.44,-399.23 1868.53,-409.62 1874.55,-406.05"/>
</g>
<!-- /lib/panels/right/right_panel.dart&#45;&gt;/lib/panels/right/ai_panel.dart -->
<g id="edge12" class="edge">
<title>/lib/panels/right/right_panel.dart&#45;&gt;/lib/panels/right/ai_panel.dart</title>
<path fill="none" stroke="#aabbaa" stroke-width="1.3" stroke-opacity="0.533333" d="M1915.63,-443.42C1923.23,-432.81 1933.07,-419.06 1941.65,-407.08"/>
<polygon fill="#aabbaa" fill-opacity="0.533333" stroke="#aabbaa" stroke-width="1.3" stroke-opacity="0.533333" points="1944.36,-409.31 1947.34,-399.14 1938.67,-405.23 1944.36,-409.31"/>
</g>
<!-- /lib/panels/right/right_panel.dart&#45;&gt;/lib/models/file_system_item.dart -->
<g id="edge13" class="edge">
<title>/lib/panels/right/right_panel.dart&#45;&gt;/lib/models/file_system_item.dart</title>
<path fill="none" stroke="#aabbaa" stroke-width="1.3" stroke-opacity="0.533333" d="M1857.9,-457.09C1787.65,-451.22 1647.89,-440.33 1529.04,-436 1510.79,-435.34 229.79,-437.25 214.04,-428 177.48,-406.54 179.56,-385.5 167.04,-345 134.36,-239.24 89.63,-169.9 172.04,-96 217.55,-55.2 1119.92,-51.24 1390.19,-50.98"/>
<polygon fill="#aabbaa" fill-opacity="0.533333" stroke="#aabbaa" stroke-width="1.3" stroke-opacity="0.533333" points="1389.86,-54.48 1399.86,-50.97 1389.85,-47.48 1389.86,-54.48"/>
</g>
<!-- /lib/panels/center/large_file_message.dart -->
<g id="node6" class="node">
<title>/lib/panels/center/large_file_message.dart</title>
<path fill="Lavender" stroke="black" stroke-width="1.3" d="M1696.54,-231C1696.54,-231 1575.54,-231 1575.54,-231 1569.54,-231 1563.54,-225 1563.54,-219 1563.54,-219 1563.54,-207 1563.54,-207 1563.54,-201 1569.54,-195 1575.54,-195 1575.54,-195 1696.54,-195 1696.54,-195 1702.54,-195 1708.54,-201 1708.54,-207 1708.54,-207 1708.54,-219 1708.54,-219 1708.54,-225 1702.54,-231 1696.54,-231"/>
<text xml:space="preserve" text-anchor="middle" x="1636.04" y="-207.75" font-family="Arial" font-size="15.00">large_file_message</text>
</g>
<!-- /lib/panels/center/editor_screen.dart&#45;&gt;/lib/providers/app_providers.dart -->
<g id="edge15" class="edge">
<title>/lib/panels/center/editor_screen.dart&#45;&gt;/lib/providers/app_providers.dart</title>
<path fill="none" stroke="#aabbaa" stroke-width="1.3" stroke-opacity="0.533333" d="M1631.39,-277.35C1639.36,-274.33 1647.85,-271.63 1656.04,-270 1698.49,-261.54 2393.9,-275.45 2435.04,-262 2449.6,-257.24 2463.7,-248.07 2475.17,-239.01"/>
<polygon fill="#aabbaa" fill-opacity="0.533333" stroke="#aabbaa" stroke-width="1.3" stroke-opacity="0.533333" points="2477.2,-241.88 2482.64,-232.78 2472.72,-236.5 2477.2,-241.88"/>
</g>
<!-- /lib/panels/center/editor_screen.dart&#45;&gt;/lib/panels/center/large_file_message.dart -->
<g id="edge14" class="edge">
<title>/lib/panels/center/editor_screen.dart&#45;&gt;/lib/panels/center/large_file_message.dart</title>
<path fill="none" stroke="#aabbaa" stroke-width="1.3" stroke-opacity="0.533333" d="M1603.16,-277.42C1608.49,-267.13 1615.36,-253.89 1621.44,-242.17"/>
<polygon fill="#aabbaa" fill-opacity="0.533333" stroke="#aabbaa" stroke-width="1.3" stroke-opacity="0.533333" points="1624.54,-243.78 1626.04,-233.29 1618.33,-240.55 1624.54,-243.78"/>
</g>
<!-- /lib/utils/message_helper.dart -->
<g id="node19" class="node">
<title>/lib/utils/message_helper.dart</title>
<path fill="Lavender" stroke="black" stroke-width="1.3" d="M1867.17,-140C1867.17,-140 1764.92,-140 1764.92,-140 1758.92,-140 1752.92,-134 1752.92,-128 1752.92,-128 1752.92,-116 1752.92,-116 1752.92,-110 1758.92,-104 1764.92,-104 1764.92,-104 1867.17,-104 1867.17,-104 1873.17,-104 1879.17,-110 1879.17,-116 1879.17,-116 1879.17,-128 1879.17,-128 1879.17,-134 1873.17,-140 1867.17,-140"/>
<text xml:space="preserve" text-anchor="middle" x="1816.04" y="-116.75" font-family="Arial" font-size="15.00">message_helper</text>
</g>
<!-- /lib/panels/center/editor_screen.dart&#45;&gt;/lib/utils/message_helper.dart -->
<g id="edge16" class="edge">
<title>/lib/panels/center/editor_screen.dart&#45;&gt;/lib/utils/message_helper.dart</title>
<path fill="none" stroke="#aabbaa" stroke-width="1.3" stroke-opacity="0.533333" d="M1632.11,-277.38C1639.88,-274.44 1648.11,-271.77 1656.04,-270 1671.79,-266.49 1789.34,-273.11 1801.04,-262 1830.26,-234.27 1827.9,-184.07 1822.62,-152.19"/>
<polygon fill="#aabbaa" fill-opacity="0.533333" stroke="#aabbaa" stroke-width="1.3" stroke-opacity="0.533333" points="1826.09,-151.68 1820.8,-142.5 1819.21,-152.97 1826.09,-151.68"/>
</g>
<!-- /lib/panels/center/editor_screen.dart&#45;&gt;/lib/utils/file_type_utils.dart -->
<g id="edge17" class="edge">
<title>/lib/panels/center/editor_screen.dart&#45;&gt;/lib/utils/file_type_utils.dart</title>
<path fill="none" stroke="#aabbaa" stroke-width="1.3" stroke-opacity="0.533333" d="M1631.77,-277.47C1639.64,-274.48 1647.99,-271.77 1656.04,-270 1691.25,-262.26 1785.28,-277.03 1818.04,-262 1870.17,-238.08 1911.94,-183.36 1933.67,-150.16"/>
<polygon fill="#aabbaa" fill-opacity="0.533333" stroke="#aabbaa" stroke-width="1.3" stroke-opacity="0.533333" points="1936.53,-152.18 1938.95,-141.86 1930.63,-148.42 1936.53,-152.18"/>
</g>
<!-- /lib/panels/center/editor_screen.dart&#45;&gt;/lib/models/document_state.dart -->
<g id="edge18" class="edge">
<title>/lib/panels/center/editor_screen.dart&#45;&gt;/lib/models/document_state.dart</title>
<path fill="none" stroke="#aabbaa" stroke-width="1.3" stroke-opacity="0.533333" d="M1569.1,-277.56C1524.99,-246.72 1433.13,-182.49 1382.83,-147.32"/>
<polygon fill="#aabbaa" fill-opacity="0.533333" stroke="#aabbaa" stroke-width="1.3" stroke-opacity="0.533333" points="1384.86,-144.47 1374.66,-141.61 1380.85,-150.21 1384.86,-144.47"/>
</g>
<!-- /lib/panels/center/terminal_panel.dart -->
<g id="node8" class="node">
<title>/lib/panels/center/terminal_panel.dart</title>
<path fill="Lavender" stroke="black" stroke-width="1.3" d="M1766.79,-314C1766.79,-314 1677.29,-314 1677.29,-314 1671.29,-314 1665.29,-308 1665.29,-302 1665.29,-302 1665.29,-290 1665.29,-290 1665.29,-284 1671.29,-278 1677.29,-278 1677.29,-278 1766.79,-278 1766.79,-278 1772.79,-278 1778.79,-284 1778.79,-290 1778.79,-290 1778.79,-302 1778.79,-302 1778.79,-308 1772.79,-314 1766.79,-314"/>
<text xml:space="preserve" text-anchor="middle" x="1722.04" y="-290.75" font-family="Arial" font-size="15.00">terminal_panel</text>
</g>
<!-- /lib/panels/center/terminal_panel.dart&#45;&gt;/lib/providers/app_providers.dart -->
<g id="edge19" class="edge">
<title>/lib/panels/center/terminal_panel.dart&#45;&gt;/lib/providers/app_providers.dart</title>
<path fill="none" stroke="#aabbaa" stroke-width="1.3" stroke-opacity="0.533333" d="M1779.4,-289.27C1841.02,-283.36 1941.86,-274.4 2029.04,-270 2051.57,-268.86 2413.63,-269.11 2435.04,-262 2449.58,-257.17 2463.67,-247.99 2475.15,-238.94"/>
<polygon fill="#aabbaa" fill-opacity="0.533333" stroke="#aabbaa" stroke-width="1.3" stroke-opacity="0.533333" points="2477.17,-241.81 2482.62,-232.73 2472.69,-236.43 2477.17,-241.81"/>
</g>
<!-- /lib/panels/center/center_panel.dart -->
<g id="node9" class="node">
<title>/lib/panels/center/center_panel.dart</title>
<path fill="Lavender" stroke="black" stroke-width="1.3" d="M1764.17,-397C1764.17,-397 1685.92,-397 1685.92,-397 1679.92,-397 1673.92,-391 1673.92,-385 1673.92,-385 1673.92,-373 1673.92,-373 1673.92,-367 1679.92,-361 1685.92,-361 1685.92,-361 1764.17,-361 1764.17,-361 1770.17,-361 1776.17,-367 1776.17,-373 1776.17,-373 1776.17,-385 1776.17,-385 1776.17,-391 1770.17,-397 1764.17,-397"/>
<text xml:space="preserve" text-anchor="middle" x="1725.04" y="-373.75" font-family="Arial" font-size="15.00">center_panel</text>
</g>
<!-- /lib/panels/center/center_panel.dart&#45;&gt;/lib/providers/app_providers.dart -->
<g id="edge21" class="edge">
<title>/lib/panels/center/center_panel.dart&#45;&gt;/lib/providers/app_providers.dart</title>
<path fill="none" stroke="#aabbaa" stroke-width="1.3" stroke-opacity="0.533333" d="M1764.88,-360.36C1773.36,-357.33 1782.37,-354.64 1791.04,-353 1810.42,-349.34 2487.12,-358.97 2501.04,-345 2527.29,-318.66 2520.42,-272.54 2512.03,-242.64"/>
<polygon fill="#aabbaa" fill-opacity="0.533333" stroke="#aabbaa" stroke-width="1.3" stroke-opacity="0.533333" points="2515.41,-241.72 2509.13,-233.19 2508.71,-243.77 2515.41,-241.72"/>
</g>
<!-- /lib/panels/center/center_panel.dart&#45;&gt;/lib/panels/center/editor_screen.dart -->
<g id="edge23" class="edge">
<title>/lib/panels/center/center_panel.dart&#45;&gt;/lib/panels/center/editor_screen.dart</title>
<path fill="none" stroke="#aabbaa" stroke-width="1.3" stroke-opacity="0.533333" d="M1684.51,-360.38C1674.96,-355.76 1664.97,-350.51 1656.04,-345 1644.98,-338.18 1633.54,-329.77 1623.55,-321.9"/>
<polygon fill="#aabbaa" fill-opacity="0.533333" stroke="#aabbaa" stroke-width="1.3" stroke-opacity="0.533333" points="1625.99,-319.37 1616.01,-315.83 1621.6,-324.83 1625.99,-319.37"/>
</g>
<!-- /lib/panels/center/center_panel.dart&#45;&gt;/lib/panels/center/terminal_panel.dart -->
<g id="edge24" class="edge">
<title>/lib/panels/center/center_panel.dart&#45;&gt;/lib/panels/center/terminal_panel.dart</title>
<path fill="none" stroke="#aabbaa" stroke-width="1.3" stroke-opacity="0.533333" d="M1724.39,-360.42C1724.02,-350.45 1723.55,-337.7 1723.13,-326.26"/>
<polygon fill="#aabbaa" fill-opacity="0.533333" stroke="#aabbaa" stroke-width="1.3" stroke-opacity="0.533333" points="1726.63,-326.37 1722.76,-316.51 1719.64,-326.63 1726.63,-326.37"/>
</g>
<!-- /lib/panels/center/center_panel.dart&#45;&gt;/lib/models/document_state.dart -->
<g id="edge20" class="edge">
<title>/lib/panels/center/center_panel.dart&#45;&gt;/lib/models/document_state.dart</title>
<path fill="none" stroke="#aabbaa" stroke-width="1.3" stroke-opacity="0.533333" d="M1673.62,-369.74C1634.18,-363.82 1578.33,-356.32 1529.04,-353 1472,-349.15 556.46,-354.24 500.04,-345 383.26,-325.87 316.47,-357.84 247.04,-262 225.4,-232.13 221.06,-205.19 247.04,-179 257.12,-168.84 1263.38,-175.24 1277.04,-171 1292.4,-166.23 1307.45,-156.93 1319.71,-147.77"/>
<polygon fill="#aabbaa" fill-opacity="0.533333" stroke="#aabbaa" stroke-width="1.3" stroke-opacity="0.533333" points="1321.65,-150.7 1327.35,-141.77 1317.33,-145.2 1321.65,-150.7"/>
</g>
<!-- /lib/panels/center/center_panel.dart&#45;&gt;/lib/models/file_system_item.dart -->
<g id="edge26" class="edge">
<title>/lib/panels/center/center_panel.dart&#45;&gt;/lib/models/file_system_item.dart</title>
<path fill="none" stroke="#aabbaa" stroke-width="1.3" stroke-opacity="0.533333" d="M1764.53,-360.47C1773.11,-357.39 1782.25,-354.65 1791.04,-353 1814.3,-348.63 2621.59,-355 2643.04,-345 2687.04,-324.49 2697.22,-307.54 2714.04,-262 2739.6,-192.79 2765.26,-149.1 2714.04,-96 2673.25,-53.71 1806.54,-50.78 1542.02,-50.87"/>
<polygon fill="#aabbaa" fill-opacity="0.533333" stroke="#aabbaa" stroke-width="1.3" stroke-opacity="0.533333" points="1542.22,-47.37 1532.23,-50.87 1542.23,-54.37 1542.22,-47.37"/>
</g>
<!-- /lib/screens/welcome_screen.dart -->
<g id="node28" class="node">
<title>/lib/screens/welcome_screen.dart</title>
<path fill="Lavender" stroke="black" stroke-width="1.3" d="M2260.92,-480C2260.92,-480 2157.17,-480 2157.17,-480 2151.17,-480 2145.17,-474 2145.17,-468 2145.17,-468 2145.17,-456 2145.17,-456 2145.17,-450 2151.17,-444 2157.17,-444 2157.17,-444 2260.92,-444 2260.92,-444 2266.92,-444 2272.92,-450 2272.92,-456 2272.92,-456 2272.92,-468 2272.92,-468 2272.92,-474 2266.92,-480 2260.92,-480"/>
<text xml:space="preserve" text-anchor="middle" x="2209.04" y="-456.75" font-family="Arial" font-size="15.00">welcome_screen</text>
</g>
<!-- /lib/panels/center/center_panel.dart&#45;&gt;/lib/screens/welcome_screen.dart -->
<g id="edge22" class="edge">
<title>/lib/panels/center/center_panel.dart&#45;&gt;/lib/screens/welcome_screen.dart</title>
<path fill="none" stroke="#aabbaa" stroke-width="1.3" stroke-opacity="0.533333" d="M1742.65,-397.44C1755.05,-408.47 1772.65,-421.78 1791.04,-428 1827.05,-440.18 2095.58,-429.55 2133.04,-436 2139.2,-437.06 2145.54,-438.52 2151.82,-440.21"/>
<polygon fill="#aabbaa" fill-opacity="0.533333" stroke="#aabbaa" stroke-width="1.3" stroke-opacity="0.533333" points="2150.5,-443.47 2161.08,-442.9 2152.46,-436.75 2150.5,-443.47"/>
</g>
<!-- /lib/widgets/resizable_splitter.dart -->
<g id="node36" class="node">
<title>/lib/widgets/resizable_splitter.dart</title>
<path fill="Lavender" stroke="black" stroke-width="1.3" d="M462.92,-231C462.92,-231 359.17,-231 359.17,-231 353.17,-231 347.17,-225 347.17,-219 347.17,-219 347.17,-207 347.17,-207 347.17,-201 353.17,-195 359.17,-195 359.17,-195 462.92,-195 462.92,-195 468.92,-195 474.92,-201 474.92,-207 474.92,-207 474.92,-219 474.92,-219 474.92,-225 468.92,-231 462.92,-231"/>
<text xml:space="preserve" text-anchor="middle" x="411.04" y="-207.75" font-family="Arial" font-size="15.00">resizable_splitter</text>
</g>
<!-- /lib/panels/center/center_panel.dart&#45;&gt;/lib/widgets/resizable_splitter.dart -->
<g id="edge25" class="edge">
<title>/lib/panels/center/center_panel.dart&#45;&gt;/lib/widgets/resizable_splitter.dart</title>
<path fill="none" stroke="#aabbaa" stroke-width="1.3" stroke-opacity="0.533333" d="M1673.62,-369.81C1634.18,-363.92 1578.32,-356.44 1529.04,-353 1386.71,-343.07 1028.89,-360.35 887.04,-345 705.23,-325.33 653.01,-331.93 484.04,-262 469.44,-255.96 454.64,-246.89 442.22,-238.25"/>
<polygon fill="#aabbaa" fill-opacity="0.533333" stroke="#aabbaa" stroke-width="1.3" stroke-opacity="0.533333" points="444.57,-235.63 434.41,-232.64 440.48,-241.32 444.57,-235.63"/>
</g>
<!-- /lib/panels/left/git_panel.dart -->
<g id="node10" class="node">
<title>/lib/panels/left/git_panel.dart</title>
<path fill="Lavender" stroke="black" stroke-width="1.3" d="M1347.04,-397C1347.04,-397 1295.04,-397 1295.04,-397 1289.04,-397 1283.04,-391 1283.04,-385 1283.04,-385 1283.04,-373 1283.04,-373 1283.04,-367 1289.04,-361 1295.04,-361 1295.04,-361 1347.04,-361 1347.04,-361 1353.04,-361 1359.04,-367 1359.04,-373 1359.04,-373 1359.04,-385 1359.04,-385 1359.04,-391 1353.04,-397 1347.04,-397"/>
<text xml:space="preserve" text-anchor="middle" x="1321.04" y="-373.75" font-family="Arial" font-size="15.00">git_panel</text>
</g>
<!-- /lib/panels/left/git_panel.dart&#45;&gt;/lib/models/file_system_item.dart -->
<g id="edge29" class="edge">
<title>/lib/panels/left/git_panel.dart&#45;&gt;/lib/models/file_system_item.dart</title>
<path fill="none" stroke="#aabbaa" stroke-width="1.3" stroke-opacity="0.533333" d="M1349.35,-360.47C1355.62,-357.4 1362.39,-354.65 1369.04,-353 1400.64,-345.15 2513.18,-361.85 2541.04,-345 2573.37,-325.45 2549.45,-290.71 2581.04,-270 2599.69,-257.78 2665.92,-278.38 2681.04,-262 2706.07,-234.9 2706.64,-122.56 2681.04,-96 2641.46,-54.92 1802.21,-51.13 1542.17,-50.95"/>
<polygon fill="#aabbaa" fill-opacity="0.533333" stroke="#aabbaa" stroke-width="1.3" stroke-opacity="0.533333" points="1542.2,-47.45 1532.19,-50.94 1542.19,-54.45 1542.2,-47.45"/>
</g>
<!-- /lib/services/git_service.dart -->
<g id="node32" class="node">
<title>/lib/services/git_service.dart</title>
<path fill="Lavender" stroke="black" stroke-width="1.3" d="M2116.67,-231C2116.67,-231 2053.42,-231 2053.42,-231 2047.42,-231 2041.42,-225 2041.42,-219 2041.42,-219 2041.42,-207 2041.42,-207 2041.42,-201 2047.42,-195 2053.42,-195 2053.42,-195 2116.67,-195 2116.67,-195 2122.67,-195 2128.67,-201 2128.67,-207 2128.67,-207 2128.67,-219 2128.67,-219 2128.67,-225 2122.67,-231 2116.67,-231"/>
<text xml:space="preserve" text-anchor="middle" x="2085.04" y="-207.75" font-family="Arial" font-size="15.00">git_service</text>
</g>
<!-- /lib/panels/left/git_panel.dart&#45;&gt;/lib/services/git_service.dart -->
<g id="edge27" class="edge">
<title>/lib/panels/left/git_panel.dart&#45;&gt;/lib/services/git_service.dart</title>
<path fill="none" stroke="#aabbaa" stroke-width="1.3" stroke-opacity="0.533333" d="M1349.63,-360.4C1355.82,-357.37 1362.49,-354.67 1369.04,-353 1417.72,-340.62 1773.87,-362.26 1821.04,-345 1870.58,-326.87 1866.73,-295.26 1913.04,-270 1949.7,-250 1994.68,-235.67 2029.45,-226.52"/>
<polygon fill="#aabbaa" fill-opacity="0.533333" stroke="#aabbaa" stroke-width="1.3" stroke-opacity="0.533333" points="2030.09,-229.96 2038.91,-224.09 2028.36,-223.18 2030.09,-229.96"/>
</g>
<!-- /lib/widgets/diff_viewer.dart -->
<g id="node37" class="node">
<title>/lib/widgets/diff_viewer.dart</title>
<path fill="Lavender" stroke="black" stroke-width="1.3" d="M855.29,-231C855.29,-231 792.79,-231 792.79,-231 786.79,-231 780.79,-225 780.79,-219 780.79,-219 780.79,-207 780.79,-207 780.79,-201 786.79,-195 792.79,-195 792.79,-195 855.29,-195 855.29,-195 861.29,-195 867.29,-201 867.29,-207 867.29,-207 867.29,-219 867.29,-219 867.29,-225 861.29,-231 855.29,-231"/>
<text xml:space="preserve" text-anchor="middle" x="824.04" y="-207.75" font-family="Arial" font-size="15.00">diff_viewer</text>
</g>
<!-- /lib/panels/left/git_panel.dart&#45;&gt;/lib/widgets/diff_viewer.dart -->
<g id="edge28" class="edge">
<title>/lib/panels/left/git_panel.dart&#45;&gt;/lib/widgets/diff_viewer.dart</title>
<path fill="none" stroke="#aabbaa" stroke-width="1.3" stroke-opacity="0.533333" d="M1289.84,-360.35C1284.64,-357.72 1279.25,-355.17 1274.04,-353 1135.96,-295.56 965.49,-249.25 879.39,-227.48"/>
<polygon fill="#aabbaa" fill-opacity="0.533333" stroke="#aabbaa" stroke-width="1.3" stroke-opacity="0.533333" points="880.27,-224.09 869.72,-225.05 878.57,-230.88 880.27,-224.09"/>
</g>
<!-- /lib/widgets/filename_widget.dart -->
<g id="node40" class="node">
<title>/lib/widgets/filename_widget.dart</title>
<path fill="Lavender" stroke="black" stroke-width="1.3" d="M604.67,-231C604.67,-231 505.42,-231 505.42,-231 499.42,-231 493.42,-225 493.42,-219 493.42,-219 493.42,-207 493.42,-207 493.42,-201 499.42,-195 505.42,-195 505.42,-195 604.67,-195 604.67,-195 610.67,-195 616.67,-201 616.67,-207 616.67,-207 616.67,-219 616.67,-219 616.67,-225 610.67,-231 604.67,-231"/>
<text xml:space="preserve" text-anchor="middle" x="555.04" y="-207.75" font-family="Arial" font-size="15.00">filename_widget</text>
</g>
<!-- /lib/panels/left/git_panel.dart&#45;&gt;/lib/widgets/filename_widget.dart -->
<g id="edge30" class="edge">
<title>/lib/panels/left/git_panel.dart&#45;&gt;/lib/widgets/filename_widget.dart</title>
<path fill="none" stroke="#aabbaa" stroke-width="1.3" stroke-opacity="0.533333" d="M1293.09,-360.38C1287.03,-357.35 1280.49,-354.65 1274.04,-353 1241.75,-344.72 704.44,-358.7 674.04,-345 626.47,-323.57 589.65,-272.93 570.25,-241.26"/>
<polygon fill="#aabbaa" fill-opacity="0.533333" stroke="#aabbaa" stroke-width="1.3" stroke-opacity="0.533333" points="573.47,-239.82 565.35,-233.01 567.45,-243.4 573.47,-239.82"/>
</g>
<!-- /lib/panels/left/left_panel_controls.dart -->
<g id="node11" class="node">
<title>/lib/panels/left/left_panel_controls.dart</title>
<path fill="Lavender" stroke="black" stroke-width="1.3" d="M1057.67,-480C1057.67,-480 940.42,-480 940.42,-480 934.42,-480 928.42,-474 928.42,-468 928.42,-468 928.42,-456 928.42,-456 928.42,-450 934.42,-444 940.42,-444 940.42,-444 1057.67,-444 1057.67,-444 1063.67,-444 1069.67,-450 1069.67,-456 1069.67,-456 1069.67,-468 1069.67,-468 1069.67,-474 1063.67,-480 1057.67,-480"/>
<text xml:space="preserve" text-anchor="middle" x="999.04" y="-456.75" font-family="Arial" font-size="15.00">left_panel_controls</text>
</g>
<!-- /lib/panels/left/search_panel.dart -->
<g id="node12" class="node">
<title>/lib/panels/left/search_panel.dart</title>
<path fill="Lavender" stroke="black" stroke-width="1.3" d="M1252.67,-397C1252.67,-397 1171.42,-397 1171.42,-397 1165.42,-397 1159.42,-391 1159.42,-385 1159.42,-385 1159.42,-373 1159.42,-373 1159.42,-367 1165.42,-361 1171.42,-361 1171.42,-361 1252.67,-361 1252.67,-361 1258.67,-361 1264.67,-367 1264.67,-373 1264.67,-373 1264.67,-385 1264.67,-385 1264.67,-391 1258.67,-397 1252.67,-397"/>
<text xml:space="preserve" text-anchor="middle" x="1212.04" y="-373.75" font-family="Arial" font-size="15.00">search_panel</text>
</g>
<!-- /lib/panels/left/search_panel.dart&#45;&gt;/lib/models/project_node.dart -->
<g id="edge31" class="edge">
<title>/lib/panels/left/search_panel.dart&#45;&gt;/lib/models/project_node.dart</title>
<path fill="none" stroke="#aabbaa" stroke-width="1.3" stroke-opacity="0.533333" d="M1174.69,-360.38C1166.72,-357.35 1158.23,-354.65 1150.04,-353 1088.6,-340.63 648.19,-353.07 586.04,-345 449.32,-327.24 419.41,-300.87 285.04,-270 268.22,-266.14 257.92,-275.4 247.04,-262 223.8,-233.35 221.05,-205.17 247.04,-179 258.51,-167.45 1403.7,-176.44 1419.04,-171 1432.33,-166.29 1444.87,-157.29 1455.01,-148.35"/>
<polygon fill="#aabbaa" fill-opacity="0.533333" stroke="#aabbaa" stroke-width="1.3" stroke-opacity="0.533333" points="1457.28,-151.02 1462.18,-141.62 1452.49,-145.91 1457.28,-151.02"/>
</g>
<!-- /lib/panels/left/search_panel.dart&#45;&gt;/lib/models/file_system_item.dart -->
<g id="edge32" class="edge">
<title>/lib/panels/left/search_panel.dart&#45;&gt;/lib/models/file_system_item.dart</title>
<path fill="none" stroke="#aabbaa" stroke-width="1.3" stroke-opacity="0.533333" d="M1249.05,-360.45C1257.12,-357.38 1265.73,-354.64 1274.04,-353 1290.9,-349.67 2496.85,-354.68 2511.04,-345 2540.71,-324.78 2512.87,-292.26 2541.04,-270 2560.08,-254.96 2579.19,-280.37 2595.04,-262 2652.07,-195.9 2571.85,-126.46 2490.04,-96 2402.13,-63.27 1764.26,-53.93 1542.1,-51.65"/>
<polygon fill="#aabbaa" fill-opacity="0.533333" stroke="#aabbaa" stroke-width="1.3" stroke-opacity="0.533333" points="1542.26,-48.15 1532.23,-51.55 1542.19,-55.15 1542.26,-48.15"/>
</g>
<!-- /lib/panels/left/directory_contents.dart -->
<g id="node13" class="node">
<title>/lib/panels/left/directory_contents.dart</title>
<path fill="Lavender" stroke="black" stroke-width="1.3" d="M1504.54,-397C1504.54,-397 1389.54,-397 1389.54,-397 1383.54,-397 1377.54,-391 1377.54,-385 1377.54,-385 1377.54,-373 1377.54,-373 1377.54,-367 1383.54,-361 1389.54,-361 1389.54,-361 1504.54,-361 1504.54,-361 1510.54,-361 1516.54,-367 1516.54,-373 1516.54,-373 1516.54,-385 1516.54,-385 1516.54,-391 1510.54,-397 1504.54,-397"/>
<text xml:space="preserve" text-anchor="middle" x="1447.04" y="-373.75" font-family="Arial" font-size="15.00">directory_contents</text>
</g>
<!-- /lib/panels/left/directory_contents.dart&#45;&gt;/lib/models/file_system_item.dart -->
<g id="edge36" class="edge">
<title>/lib/panels/left/directory_contents.dart&#45;&gt;/lib/models/file_system_item.dart</title>
<path fill="none" stroke="#aabbaa" stroke-width="1.3" stroke-opacity="0.533333" d="M1496.38,-360.46C1507.02,-357.38 1518.3,-354.64 1529.04,-353 1586.82,-344.16 2525.32,-362.63 2581.04,-345 2642.87,-325.44 2670.93,-319.43 2701.04,-262 2718.17,-229.33 2726.65,-122.56 2701.04,-96 2660.73,-54.19 1804.95,-50.92 1542.13,-50.9"/>
<polygon fill="#aabbaa" fill-opacity="0.533333" stroke="#aabbaa" stroke-width="1.3" stroke-opacity="0.533333" points="1542.4,-47.4 1532.4,-50.9 1542.4,-54.4 1542.4,-47.4"/>
</g>
<!-- /lib/panels/left/directory_contents.dart&#45;&gt;/lib/services/git_service.dart -->
<g id="edge35" class="edge">
<title>/lib/panels/left/directory_contents.dart&#45;&gt;/lib/services/git_service.dart</title>
<path fill="none" stroke="#aabbaa" stroke-width="1.3" stroke-opacity="0.533333" d="M1496.83,-360.44C1507.34,-357.41 1518.46,-354.69 1529.04,-353 1571.18,-346.27 1873.33,-360.62 1913.04,-345 1959.62,-326.68 1957.13,-300.2 1997.04,-270 2012.2,-258.53 2029.73,-247.04 2045.14,-237.49"/>
<polygon fill="#aabbaa" fill-opacity="0.533333" stroke="#aabbaa" stroke-width="1.3" stroke-opacity="0.533333" points="2046.53,-240.74 2053.23,-232.54 2042.87,-234.77 2046.53,-240.74"/>
</g>
<!-- /lib/services/file_system_service.dart -->
<g id="node35" class="node">
<title>/lib/services/file_system_service.dart</title>
<path fill="Lavender" stroke="black" stroke-width="1.3" d="M2411.29,-314C2411.29,-314 2288.79,-314 2288.79,-314 2282.79,-314 2276.79,-308 2276.79,-302 2276.79,-302 2276.79,-290 2276.79,-290 2276.79,-284 2282.79,-278 2288.79,-278 2288.79,-278 2411.29,-278 2411.29,-278 2417.29,-278 2423.29,-284 2423.29,-290 2423.29,-290 2423.29,-302 2423.29,-302 2423.29,-308 2417.29,-314 2411.29,-314"/>
<text xml:space="preserve" text-anchor="middle" x="2350.04" y="-290.75" font-family="Arial" font-size="15.00">file_system_service</text>
</g>
<!-- /lib/panels/left/directory_contents.dart&#45;&gt;/lib/services/file_system_service.dart -->
<g id="edge34" class="edge">
<title>/lib/panels/left/directory_contents.dart&#45;&gt;/lib/services/file_system_service.dart</title>
<path fill="none" stroke="#aabbaa" stroke-width="1.3" stroke-opacity="0.533333" d="M1496.82,-360.36C1507.33,-357.33 1518.45,-354.64 1529.04,-353 1569.56,-346.74 2227.5,-355.84 2267.04,-345 2284.91,-340.1 2302.93,-330.39 2317.6,-320.97"/>
<polygon fill="#aabbaa" fill-opacity="0.533333" stroke="#aabbaa" stroke-width="1.3" stroke-opacity="0.533333" points="2319.17,-324.13 2325.53,-315.66 2315.28,-318.31 2319.17,-324.13"/>
</g>
<!-- /lib/panels/left/directory_contents.dart&#45;&gt;/lib/widgets/filename_widget.dart -->
<g id="edge33" class="edge">
<title>/lib/panels/left/directory_contents.dart&#45;&gt;/lib/widgets/filename_widget.dart</title>
<path fill="none" stroke="#aabbaa" stroke-width="1.3" stroke-opacity="0.533333" d="M1396.42,-360.46C1387.06,-357.66 1377.32,-355.02 1368.04,-353 1043.39,-282.36 937.2,-378.5 626.04,-262 611.45,-256.54 596.92,-247.52 584.84,-238.76"/>
<polygon fill="#aabbaa" fill-opacity="0.533333" stroke="#aabbaa" stroke-width="1.3" stroke-opacity="0.533333" points="586.98,-235.99 576.89,-232.74 582.75,-241.57 586.98,-235.99"/>
</g>
<!-- /lib/panels/left/shared_panel_utils.dart -->
<g id="node14" class="node">
<title>/lib/panels/left/shared_panel_utils.dart</title>
<path fill="Lavender" stroke="black" stroke-width="1.3" d="M1505.29,-314C1505.29,-314 1388.79,-314 1388.79,-314 1382.79,-314 1376.79,-308 1376.79,-302 1376.79,-302 1376.79,-290 1376.79,-290 1376.79,-284 1382.79,-278 1388.79,-278 1388.79,-278 1505.29,-278 1505.29,-278 1511.29,-278 1517.29,-284 1517.29,-290 1517.29,-290 1517.29,-302 1517.29,-302 1517.29,-308 1511.29,-314 1505.29,-314"/>
<text xml:space="preserve" text-anchor="middle" x="1447.04" y="-290.75" font-family="Arial" font-size="15.00">shared_panel_utils</text>
</g>
<!-- /lib/panels/left/shared_panel_utils.dart&#45;&gt;/lib/utils/message_helper.dart -->
<g id="edge41" class="edge">
<title>/lib/panels/left/shared_panel_utils.dart&#45;&gt;/lib/utils/message_helper.dart</title>
<path fill="none" stroke="#aabbaa" stroke-width="1.3" stroke-opacity="0.533333" d="M1497.28,-277.39C1507.67,-274.4 1518.62,-271.72 1529.04,-270 1543.41,-267.63 1780.3,-271.83 1791.04,-262 1804.75,-249.46 1797.52,-197.24 1801.04,-179 1802.75,-170.13 1805.11,-160.6 1807.45,-151.96"/>
<polygon fill="#aabbaa" fill-opacity="0.533333" stroke="#aabbaa" stroke-width="1.3" stroke-opacity="0.533333" points="1810.8,-152.97 1810.13,-142.4 1804.06,-151.08 1810.8,-152.97"/>
</g>
<!-- /lib/panels/left/shared_panel_utils.dart&#45;&gt;/lib/models/project_node.dart -->
<g id="edge38" class="edge">
<title>/lib/panels/left/shared_panel_utils.dart&#45;&gt;/lib/models/project_node.dart</title>
<path fill="none" stroke="#aabbaa" stroke-width="1.3" stroke-opacity="0.533333" d="M1450.29,-277.56C1455.77,-248.07 1466.94,-188.06 1473.63,-152.11"/>
<polygon fill="#aabbaa" fill-opacity="0.533333" stroke="#aabbaa" stroke-width="1.3" stroke-opacity="0.533333" points="1477.04,-152.89 1475.43,-142.42 1470.16,-151.61 1477.04,-152.89"/>
</g>
<!-- /lib/panels/left/shared_panel_utils.dart&#45;&gt;/lib/models/file_system_item.dart -->
<g id="edge39" class="edge">
<title>/lib/panels/left/shared_panel_utils.dart&#45;&gt;/lib/models/file_system_item.dart</title>
<path fill="none" stroke="#aabbaa" stroke-width="1.3" stroke-opacity="0.533333" d="M1457.34,-277.35C1471.68,-253.57 1499.27,-210.59 1529.04,-179 1532.95,-174.86 1536.58,-176.13 1539.04,-171 1553.48,-140.96 1555.29,-125.1 1539.04,-96 1534.4,-87.68 1527.52,-80.71 1519.8,-74.93"/>
<polygon fill="#aabbaa" fill-opacity="0.533333" stroke="#aabbaa" stroke-width="1.3" stroke-opacity="0.533333" points="1521.98,-72.18 1511.72,-69.56 1518.11,-78.01 1521.98,-72.18"/>
</g>
<!-- /lib/panels/left/shared_panel_utils.dart&#45;&gt;/lib/services/git_service.dart -->
<g id="edge40" class="edge">
<title>/lib/panels/left/shared_panel_utils.dart&#45;&gt;/lib/services/git_service.dart</title>
<path fill="none" stroke="#aabbaa" stroke-width="1.3" stroke-opacity="0.533333" d="M1497.28,-277.38C1507.66,-274.4 1518.61,-271.71 1529.04,-270 1588.71,-260.21 1740.86,-267.94 1801.04,-262 1880.95,-254.11 1972.35,-237.23 2029.39,-225.75"/>
<polygon fill="#aabbaa" fill-opacity="0.533333" stroke="#aabbaa" stroke-width="1.3" stroke-opacity="0.533333" points="2029.99,-229.2 2039.1,-223.77 2028.6,-222.34 2029.99,-229.2"/>
</g>
<!-- /lib/panels/left/shared_panel_utils.dart&#45;&gt;/lib/widgets/filename_widget.dart -->
<g id="edge37" class="edge">
<title>/lib/panels/left/shared_panel_utils.dart&#45;&gt;/lib/widgets/filename_widget.dart</title>
<path fill="none" stroke="#aabbaa" stroke-width="1.3" stroke-opacity="0.533333" d="M1376.38,-293.21C1183.75,-288.19 661.36,-273.6 626.04,-262 610.87,-257.02 595.94,-247.78 583.72,-238.73"/>
<polygon fill="#aabbaa" fill-opacity="0.533333" stroke="#aabbaa" stroke-width="1.3" stroke-opacity="0.533333" points="586.14,-236.17 576.1,-232.8 581.84,-241.7 586.14,-236.17"/>
</g>
<!-- /lib/panels/left/folder_panel.dart -->
<g id="node15" class="node">
<title>/lib/panels/left/folder_panel.dart</title>
<path fill="Lavender" stroke="black" stroke-width="1.3" d="M1128.92,-397C1128.92,-397 1055.17,-397 1055.17,-397 1049.17,-397 1043.17,-391 1043.17,-385 1043.17,-385 1043.17,-373 1043.17,-373 1043.17,-367 1049.17,-361 1055.17,-361 1055.17,-361 1128.92,-361 1128.92,-361 1134.92,-361 1140.92,-367 1140.92,-373 1140.92,-373 1140.92,-385 1140.92,-385 1140.92,-391 1134.92,-397 1128.92,-397"/>
<text xml:space="preserve" text-anchor="middle" x="1092.04" y="-373.75" font-family="Arial" font-size="15.00">folder_panel</text>
</g>
<!-- /lib/panels/left/folder_panel.dart&#45;&gt;/lib/providers/app_providers.dart -->
<g id="edge47" class="edge">
<title>/lib/panels/left/folder_panel.dart&#45;&gt;/lib/providers/app_providers.dart</title>
<path fill="none" stroke="#aabbaa" stroke-width="1.3" stroke-opacity="0.533333" d="M1126.57,-360.46C1134.13,-357.38 1142.21,-354.64 1150.04,-353 1167.77,-349.29 2439.23,-355.42 2454.04,-345 2486.78,-321.98 2497.25,-274.1 2500.57,-243.04"/>
<polygon fill="#aabbaa" fill-opacity="0.533333" stroke="#aabbaa" stroke-width="1.3" stroke-opacity="0.533333" points="2504.04,-243.5 2501.4,-233.23 2497.07,-242.9 2504.04,-243.5"/>
</g>
<!-- /lib/panels/left/folder_panel.dart&#45;&gt;/lib/panels/left/shared_panel_utils.dart -->
<g id="edge46" class="edge">
<title>/lib/panels/left/folder_panel.dart&#45;&gt;/lib/panels/left/shared_panel_utils.dart</title>
<path fill="none" stroke="#aabbaa" stroke-width="1.3" stroke-opacity="0.533333" d="M1129.65,-360.37C1136.35,-357.64 1143.33,-355.05 1150.04,-353 1221.08,-331.29 1304.37,-316.46 1364.64,-307.55"/>
<polygon fill="#aabbaa" fill-opacity="0.533333" stroke="#aabbaa" stroke-width="1.3" stroke-opacity="0.533333" points="1365.04,-311.03 1374.43,-306.13 1364.03,-304.1 1365.04,-311.03"/>
</g>
<!-- /lib/panels/left/folder_panel.dart&#45;&gt;/lib/utils/message_helper.dart -->
<g id="edge45" class="edge">
<title>/lib/panels/left/folder_panel.dart&#45;&gt;/lib/utils/message_helper.dart</title>
<path fill="none" stroke="#aabbaa" stroke-width="1.3" stroke-opacity="0.533333" d="M1126.57,-360.46C1134.13,-357.38 1142.21,-354.64 1150.04,-353 1168.12,-349.21 2463.74,-353.69 2480.04,-345 2515.61,-326.04 2497.02,-291.62 2531.04,-270 2550.04,-257.93 2566.44,-279.12 2581.04,-262 2604.98,-233.93 2606.98,-205.23 2581.04,-179 2567.51,-165.31 1906.44,-176.68 1888.04,-171 1872.53,-166.2 1857.28,-156.9 1844.83,-147.75"/>
<polygon fill="#aabbaa" fill-opacity="0.533333" stroke="#aabbaa" stroke-width="1.3" stroke-opacity="0.533333" points="1847.11,-145.09 1837.06,-141.74 1842.83,-150.62 1847.11,-145.09"/>
</g>
<!-- /lib/panels/left/folder_panel.dart&#45;&gt;/lib/models/project_node.dart -->
<g id="edge42" class="edge">
<title>/lib/panels/left/folder_panel.dart&#45;&gt;/lib/models/project_node.dart</title>
<path fill="none" stroke="#aabbaa" stroke-width="1.3" stroke-opacity="0.533333" d="M1057.19,-360.36C1049.73,-357.33 1041.77,-354.64 1034.04,-353 1013.69,-348.69 303.52,-354.57 285.04,-345 244.62,-324.07 239.06,-305.31 225.04,-262 213.69,-226.9 199.05,-205.17 225.04,-179 236.73,-167.23 1403.41,-176.54 1419.04,-171 1432.33,-166.29 1444.87,-157.29 1455.01,-148.35"/>
<polygon fill="#aabbaa" fill-opacity="0.533333" stroke="#aabbaa" stroke-width="1.3" stroke-opacity="0.533333" points="1457.28,-151.02 1462.18,-141.62 1452.49,-145.91 1457.28,-151.02"/>
</g>
<!-- /lib/panels/left/folder_panel.dart&#45;&gt;/lib/models/file_system_item.dart -->
<g id="edge43" class="edge">
<title>/lib/panels/left/folder_panel.dart&#45;&gt;/lib/models/file_system_item.dart</title>
<path fill="none" stroke="#aabbaa" stroke-width="1.3" stroke-opacity="0.533333" d="M1057.2,-360.35C1049.73,-357.33 1041.77,-354.63 1034.04,-353 1023.04,-350.67 231.96,-352.99 224.04,-345 217.39,-338.28 218.67,-186.6 225.04,-179 300.18,-89.41 1131.61,-59.88 1389.93,-52.84"/>
<polygon fill="#aabbaa" fill-opacity="0.533333" stroke="#aabbaa" stroke-width="1.3" stroke-opacity="0.533333" points="1389.93,-56.34 1399.83,-52.57 1389.74,-49.34 1389.93,-56.34"/>
</g>
<!-- /lib/panels/left/folder_panel.dart&#45;&gt;/lib/services/git_service.dart -->
<g id="edge44" class="edge">
<title>/lib/panels/left/folder_panel.dart&#45;&gt;/lib/services/git_service.dart</title>
<path fill="none" stroke="#aabbaa" stroke-width="1.3" stroke-opacity="0.533333" d="M1126.89,-360.37C1134.35,-357.34 1142.32,-354.64 1150.04,-353 1167.46,-349.29 1776.36,-355.07 1791.04,-345 1820.64,-324.69 1793,-292.42 1821.04,-270 1838.62,-255.95 1848.94,-266.24 1871.04,-262 1925.16,-251.61 1986.49,-237.63 2029.57,-227.43"/>
<polygon fill="#aabbaa" fill-opacity="0.533333" stroke="#aabbaa" stroke-width="1.3" stroke-opacity="0.533333" points="2030.11,-230.9 2039.03,-225.19 2028.49,-224.09 2030.11,-230.9"/>
</g>
<!-- /lib/panels/left/file_explorer.dart -->
<g id="node16" class="node">
<title>/lib/panels/left/file_explorer.dart</title>
<path fill="Lavender" stroke="black" stroke-width="1.3" d="M1483.54,-480C1483.54,-480 1410.54,-480 1410.54,-480 1404.54,-480 1398.54,-474 1398.54,-468 1398.54,-468 1398.54,-456 1398.54,-456 1398.54,-450 1404.54,-444 1410.54,-444 1410.54,-444 1483.54,-444 1483.54,-444 1489.54,-444 1495.54,-450 1495.54,-456 1495.54,-456 1495.54,-468 1495.54,-468 1495.54,-474 1489.54,-480 1483.54,-480"/>
<text xml:space="preserve" text-anchor="middle" x="1447.04" y="-456.75" font-family="Arial" font-size="15.00">file_explorer</text>
</g>
<!-- /lib/panels/left/file_explorer.dart&#45;&gt;/lib/panels/left/directory_contents.dart -->
<g id="edge52" class="edge">
<title>/lib/panels/left/file_explorer.dart&#45;&gt;/lib/panels/left/directory_contents.dart</title>
<path fill="none" stroke="#aabbaa" stroke-width="1.3" stroke-opacity="0.533333" d="M1447.04,-443.42C1447.04,-433.45 1447.04,-420.7 1447.04,-409.26"/>
<polygon fill="#aabbaa" fill-opacity="0.533333" stroke="#aabbaa" stroke-width="1.3" stroke-opacity="0.533333" points="1450.54,-409.51 1447.04,-399.51 1443.54,-409.51 1450.54,-409.51"/>
</g>
<!-- /lib/panels/left/file_explorer.dart&#45;&gt;/lib/models/file_system_item.dart -->
<g id="edge51" class="edge">
<title>/lib/panels/left/file_explorer.dart&#45;&gt;/lib/models/file_system_item.dart</title>
<path fill="none" stroke="#aabbaa" stroke-width="1.3" stroke-opacity="0.533333" d="M1398.02,-454.55C1349.21,-448.45 1272.1,-439.71 1205.04,-436 1190.2,-435.18 147.6,-435.95 135.04,-428 100.45,-406.09 104.16,-384.92 95.04,-345 82.72,-291.06 56.56,-135.76 95.04,-96 140.32,-49.21 1109.12,-49.52 1390.22,-50.61"/>
<polygon fill="#aabbaa" fill-opacity="0.533333" stroke="#aabbaa" stroke-width="1.3" stroke-opacity="0.533333" points="1389.92,-54.11 1399.93,-50.65 1389.95,-47.11 1389.92,-54.11"/>
</g>
<!-- /lib/panels/left/file_explorer.dart&#45;&gt;/lib/services/git_service.dart -->
<g id="edge50" class="edge">
<title>/lib/panels/left/file_explorer.dart&#45;&gt;/lib/services/git_service.dart</title>
<path fill="none" stroke="#aabbaa" stroke-width="1.3" stroke-opacity="0.533333" d="M1496,-456.89C1562.68,-451.41 1685.81,-441.75 1791.04,-436 1803.14,-435.34 2000.63,-436.73 2009.04,-428 2032.18,-404 2013.12,-386.08 2009.04,-353 2008.59,-349.36 2007.49,-348.64 2007.04,-345 2002.97,-311.92 1991.83,-299.66 2007.04,-270 2013.77,-256.89 2025.15,-246.16 2037.16,-237.73"/>
<polygon fill="#aabbaa" fill-opacity="0.533333" stroke="#aabbaa" stroke-width="1.3" stroke-opacity="0.533333" points="2038.71,-240.89 2045.21,-232.52 2034.91,-235.02 2038.71,-240.89"/>
</g>
<!-- /lib/panels/left/file_explorer.dart&#45;&gt;/lib/services/file_system_service.dart -->
<g id="edge49" class="edge">
<title>/lib/panels/left/file_explorer.dart&#45;&gt;/lib/services/file_system_service.dart</title>
<path fill="none" stroke="#aabbaa" stroke-width="1.3" stroke-opacity="0.533333" d="M1496,-456.86C1562.68,-451.35 1685.81,-441.65 1791.04,-436 1842.11,-433.26 1970.73,-437.16 2021.04,-428 2134.57,-407.33 2161.91,-392.56 2267.04,-345 2282.39,-338.06 2298.58,-329.1 2312.54,-320.81"/>
<polygon fill="#aabbaa" fill-opacity="0.533333" stroke="#aabbaa" stroke-width="1.3" stroke-opacity="0.533333" points="2314.3,-323.83 2321.04,-315.66 2310.68,-317.84 2314.3,-323.83"/>
</g>
<!-- /lib/panels/left/file_explorer.dart&#45;&gt;/lib/widgets/filename_widget.dart -->
<g id="edge48" class="edge">
<title>/lib/panels/left/file_explorer.dart&#45;&gt;/lib/widgets/filename_widget.dart</title>
<path fill="none" stroke="#aabbaa" stroke-width="1.3" stroke-opacity="0.533333" d="M1398.01,-454.81C1349.18,-448.91 1272.06,-440.31 1205.04,-436 1065.29,-427.02 1029.62,-439.45 890.04,-428 756.77,-417.06 381.84,-445.87 294.04,-345 272.16,-319.86 270.97,-294.06 294.04,-270 308.67,-254.75 463.97,-268.61 484.04,-262 499.21,-257 514.13,-247.76 526.36,-238.71"/>
<polygon fill="#aabbaa" fill-opacity="0.533333" stroke="#aabbaa" stroke-width="1.3" stroke-opacity="0.533333" points="528.23,-241.69 533.98,-232.79 523.94,-236.16 528.23,-241.69"/>
</g>
<!-- /lib/panels/left/left_panel.dart -->
<g id="node17" class="node">
<title>/lib/panels/left/left_panel.dart</title>
<path fill="Lavender" stroke="black" stroke-width="1.3" d="M1184.29,-480C1184.29,-480 1127.79,-480 1127.79,-480 1121.79,-480 1115.79,-474 1115.79,-468 1115.79,-468 1115.79,-456 1115.79,-456 1115.79,-450 1121.79,-444 1127.79,-444 1127.79,-444 1184.29,-444 1184.29,-444 1190.29,-444 1196.29,-450 1196.29,-456 1196.29,-456 1196.29,-468 1196.29,-468 1196.29,-474 1190.29,-480 1184.29,-480"/>
<text xml:space="preserve" text-anchor="middle" x="1156.04" y="-456.75" font-family="Arial" font-size="15.00">left_panel</text>
</g>
<!-- /lib/panels/left/left_panel.dart&#45;&gt;/lib/panels/left/git_panel.dart -->
<g id="edge56" class="edge">
<title>/lib/panels/left/left_panel.dart&#45;&gt;/lib/panels/left/git_panel.dart</title>
<path fill="none" stroke="#aabbaa" stroke-width="1.3" stroke-opacity="0.533333" d="M1196.91,-455.01C1220.65,-450.24 1250.43,-441.97 1274.04,-428 1283.67,-422.3 1292.68,-414.14 1300.18,-406.15"/>
<polygon fill="#aabbaa" fill-opacity="0.533333" stroke="#aabbaa" stroke-width="1.3" stroke-opacity="0.533333" points="1302.66,-408.64 1306.67,-398.83 1297.42,-404 1302.66,-408.64"/>
</g>
<!-- /lib/panels/left/left_panel.dart&#45;&gt;/lib/panels/left/search_panel.dart -->
<g id="edge53" class="edge">
<title>/lib/panels/left/left_panel.dart&#45;&gt;/lib/panels/left/search_panel.dart</title>
<path fill="none" stroke="#aabbaa" stroke-width="1.3" stroke-opacity="0.533333" d="M1168.19,-443.42C1175.53,-432.81 1185.04,-419.06 1193.32,-407.08"/>
<polygon fill="#aabbaa" fill-opacity="0.533333" stroke="#aabbaa" stroke-width="1.3" stroke-opacity="0.533333" points="1195.99,-409.38 1198.8,-399.16 1190.23,-405.4 1195.99,-409.38"/>
</g>
<!-- /lib/panels/left/left_panel.dart&#45;&gt;/lib/panels/left/folder_panel.dart -->
<g id="edge54" class="edge">
<title>/lib/panels/left/left_panel.dart&#45;&gt;/lib/panels/left/folder_panel.dart</title>
<path fill="none" stroke="#aabbaa" stroke-width="1.3" stroke-opacity="0.533333" d="M1142.16,-443.42C1133.68,-432.7 1122.69,-418.79 1113.16,-406.72"/>
<polygon fill="#aabbaa" fill-opacity="0.533333" stroke="#aabbaa" stroke-width="1.3" stroke-opacity="0.533333" points="1116.07,-404.76 1107.12,-399.09 1110.58,-409.1 1116.07,-404.76"/>
</g>
<!-- /lib/panels/left/organized_panel.dart -->
<g id="node18" class="node">
<title>/lib/panels/left/organized_panel.dart</title>
<path fill="Lavender" stroke="black" stroke-width="1.3" d="M1012.79,-397C1012.79,-397 911.29,-397 911.29,-397 905.29,-397 899.29,-391 899.29,-385 899.29,-385 899.29,-373 899.29,-373 899.29,-367 905.29,-361 911.29,-361 911.29,-361 1012.79,-361 1012.79,-361 1018.79,-361 1024.79,-367 1024.79,-373 1024.79,-373 1024.79,-385 1024.79,-385 1024.79,-391 1018.79,-397 1012.79,-397"/>
<text xml:space="preserve" text-anchor="middle" x="962.04" y="-373.75" font-family="Arial" font-size="15.00">organized_panel</text>
</g>
<!-- /lib/panels/left/left_panel.dart&#45;&gt;/lib/panels/left/organized_panel.dart -->
<g id="edge55" class="edge">
<title>/lib/panels/left/left_panel.dart&#45;&gt;/lib/panels/left/organized_panel.dart</title>
<path fill="none" stroke="#aabbaa" stroke-width="1.3" stroke-opacity="0.533333" d="M1115.19,-446.58C1103.6,-442.8 1090.91,-438.97 1079.04,-436 1059.34,-431.07 1052.89,-435.57 1034.04,-428 1019.41,-422.12 1004.68,-413 992.38,-404.28"/>
<polygon fill="#aabbaa" fill-opacity="0.533333" stroke="#aabbaa" stroke-width="1.3" stroke-opacity="0.533333" points="994.81,-401.71 984.68,-398.6 990.66,-407.35 994.81,-401.71"/>
</g>
<!-- /lib/panels/left/left_panel.dart&#45;&gt;/lib/models/file_system_item.dart -->
<g id="edge57" class="edge">
<title>/lib/panels/left/left_panel.dart&#45;&gt;/lib/models/file_system_item.dart</title>
<path fill="none" stroke="#aabbaa" stroke-width="1.3" stroke-opacity="0.533333" d="M1115.46,-445.26C1103.87,-441.48 1091.11,-437.96 1079.04,-436 1065.52,-433.8 103.52,-436.82 93.04,-428 -20.06,-332.73 -31.82,-202.24 71.04,-96 117.18,-48.35 1105.1,-49.29 1389.86,-50.56"/>
<polygon fill="#aabbaa" fill-opacity="0.533333" stroke="#aabbaa" stroke-width="1.3" stroke-opacity="0.533333" points="1389.7,-54.06 1399.72,-50.61 1389.74,-47.06 1389.7,-54.06"/>
</g>
<!-- /lib/panels/left/organized_panel.dart&#45;&gt;/lib/providers/app_providers.dart -->
<g id="edge62" class="edge">
<title>/lib/panels/left/organized_panel.dart&#45;&gt;/lib/providers/app_providers.dart</title>
<path fill="none" stroke="#aabbaa" stroke-width="1.3" stroke-opacity="0.533333" d="M1005.22,-360.44C1014.58,-357.37 1024.52,-354.63 1034.04,-353 1053.22,-349.71 2418.6,-355.41 2435.04,-345 2466.28,-325.22 2454.08,-302.85 2471.04,-270 2475.83,-260.73 2481.27,-250.74 2486.24,-241.79"/>
<polygon fill="#aabbaa" fill-opacity="0.533333" stroke="#aabbaa" stroke-width="1.3" stroke-opacity="0.533333" points="2489.2,-243.66 2491.04,-233.23 2483.1,-240.24 2489.2,-243.66"/>
</g>
<!-- /lib/panels/left/organized_panel.dart&#45;&gt;/lib/panels/left/shared_panel_utils.dart -->
<g id="edge61" class="edge">
<title>/lib/panels/left/organized_panel.dart&#45;&gt;/lib/panels/left/shared_panel_utils.dart</title>
<path fill="none" stroke="#aabbaa" stroke-width="1.3" stroke-opacity="0.533333" d="M1008.5,-360.35C1016.92,-357.59 1025.68,-355 1034.04,-353 1147.02,-326.01 1280.7,-310.85 1364.7,-303.3"/>
<polygon fill="#aabbaa" fill-opacity="0.533333" stroke="#aabbaa" stroke-width="1.3" stroke-opacity="0.533333" points="1364.86,-306.8 1374.51,-302.43 1364.24,-299.82 1364.86,-306.8"/>
</g>
<!-- /lib/panels/left/organized_panel.dart&#45;&gt;/lib/utils/message_helper.dart -->
<g id="edge60" class="edge">
<title>/lib/panels/left/organized_panel.dart&#45;&gt;/lib/utils/message_helper.dart</title>
<path fill="none" stroke="#aabbaa" stroke-width="1.3" stroke-opacity="0.533333" d="M1005.22,-360.44C1014.58,-357.37 1024.52,-354.63 1034.04,-353 1053.54,-349.66 2442.17,-356.8 2458.04,-345 2486.02,-324.19 2453.97,-291.98 2481.04,-270 2496.29,-257.62 2555.8,-276.5 2569.04,-262 2581.48,-248.38 2582.01,-192.12 2569.04,-179 2555.74,-165.54 1906.12,-176.59 1888.04,-171 1872.53,-166.2 1857.28,-156.9 1844.83,-147.75"/>
<polygon fill="#aabbaa" fill-opacity="0.533333" stroke="#aabbaa" stroke-width="1.3" stroke-opacity="0.533333" points="1847.11,-145.09 1837.06,-141.74 1842.83,-150.62 1847.11,-145.09"/>
</g>
<!-- /lib/panels/left/organized_panel.dart&#45;&gt;/lib/models/project_node.dart -->
<g id="edge58" class="edge">
<title>/lib/panels/left/organized_panel.dart&#45;&gt;/lib/models/project_node.dart</title>
<path fill="none" stroke="#aabbaa" stroke-width="1.3" stroke-opacity="0.533333" d="M898.73,-377.36C742.77,-375.43 348.69,-368.28 294.04,-345 217.22,-312.27 147.19,-238.24 206.04,-179 217.92,-167.05 1403.16,-176.63 1419.04,-171 1432.33,-166.29 1444.87,-157.29 1455.01,-148.35"/>
<polygon fill="#aabbaa" fill-opacity="0.533333" stroke="#aabbaa" stroke-width="1.3" stroke-opacity="0.533333" points="1457.28,-151.02 1462.18,-141.62 1452.49,-145.91 1457.28,-151.02"/>
</g>
<!-- /lib/panels/left/organized_panel.dart&#45;&gt;/lib/models/file_system_item.dart -->
<g id="edge59" class="edge">
<title>/lib/panels/left/organized_panel.dart&#45;&gt;/lib/models/file_system_item.dart</title>
<path fill="none" stroke="#aabbaa" stroke-width="1.3" stroke-opacity="0.533333" d="M898.84,-377.55C723.02,-376 239.48,-369.5 216.04,-345 139.36,-264.85 148.39,-167.68 233.04,-96 277.27,-58.55 1127.95,-52.26 1389.92,-51.21"/>
<polygon fill="#aabbaa" fill-opacity="0.533333" stroke="#aabbaa" stroke-width="1.3" stroke-opacity="0.533333" points="1389.62,-54.71 1399.61,-51.17 1389.6,-47.71 1389.62,-54.71"/>
</g>
<!-- /lib/panels/left/organized_panel.dart&#45;&gt;/lib/widgets/filename_widget.dart -->
<g id="edge63" class="edge">
<title>/lib/panels/left/organized_panel.dart&#45;&gt;/lib/widgets/filename_widget.dart</title>
<path fill="none" stroke="#aabbaa" stroke-width="1.3" stroke-opacity="0.533333" d="M898.77,-377.1C739.81,-374.53 334.94,-365.94 315.04,-345 292.08,-320.84 292.04,-294.12 315.04,-270 328.02,-256.4 466.2,-267.93 484.04,-262 499.19,-256.96 514.12,-247.72 526.35,-238.67"/>
<polygon fill="#aabbaa" fill-opacity="0.533333" stroke="#aabbaa" stroke-width="1.3" stroke-opacity="0.533333" points="528.22,-241.65 533.97,-232.75 523.92,-236.12 528.22,-241.65"/>
</g>
<!-- /lib/widgets/message_widget.dart -->
<g id="node39" class="node">
<title>/lib/widgets/message_widget.dart</title>
<path fill="Lavender" stroke="black" stroke-width="1.3" d="M750.92,-231C750.92,-231 647.17,-231 647.17,-231 641.17,-231 635.17,-225 635.17,-219 635.17,-219 635.17,-207 635.17,-207 635.17,-201 641.17,-195 647.17,-195 647.17,-195 750.92,-195 750.92,-195 756.92,-195 762.92,-201 762.92,-207 762.92,-207 762.92,-219 762.92,-219 762.92,-225 756.92,-231 750.92,-231"/>
<text xml:space="preserve" text-anchor="middle" x="699.04" y="-207.75" font-family="Arial" font-size="15.00">message_widget</text>
</g>
<!-- /lib/utils/message_helper.dart&#45;&gt;/lib/widgets/message_widget.dart -->
<g id="edge64" class="edge">
<title>/lib/utils/message_helper.dart&#45;&gt;/lib/widgets/message_widget.dart</title>
<path fill="none" stroke="#aabbaa" stroke-width="1.3" stroke-opacity="0.533333" d="M1752.49,-137.17C1697.21,-148.76 1614.78,-164.3 1542.04,-171 1499.44,-174.93 813.81,-169.77 772.04,-179 761.68,-181.29 751.01,-185.14 741.14,-189.43"/>
<polygon fill="#aabbaa" fill-opacity="0.533333" stroke="#aabbaa" stroke-width="1.3" stroke-opacity="0.533333" points="739.79,-186.2 732.18,-193.57 742.72,-192.55 739.79,-186.2"/>
</g>
<!-- /lib/utils/file_utils.dart -->
<g id="node20" class="node">
<title>/lib/utils/file_utils.dart</title>
<path fill="Lavender" stroke="black" stroke-width="1.3" d="M2078.67,-140C2078.67,-140 2033.42,-140 2033.42,-140 2027.42,-140 2021.42,-134 2021.42,-128 2021.42,-128 2021.42,-116 2021.42,-116 2021.42,-110 2027.42,-104 2033.42,-104 2033.42,-104 2078.67,-104 2078.67,-104 2084.67,-104 2090.67,-110 2090.67,-116 2090.67,-116 2090.67,-128 2090.67,-128 2090.67,-134 2084.67,-140 2078.67,-140"/>
<text xml:space="preserve" text-anchor="middle" x="2056.04" y="-116.75" font-family="Arial" font-size="15.00">file_utils</text>
</g>
<!-- /lib/utils/file_type_utils.dart&#45;&gt;/lib/models/file_system_item.dart -->
<g id="edge65" class="edge">
<title>/lib/utils/file_type_utils.dart&#45;&gt;/lib/models/file_system_item.dart</title>
<path fill="none" stroke="#aabbaa" stroke-width="1.3" stroke-opacity="0.533333" d="M1911.23,-103.45C1903.66,-100.57 1895.7,-97.91 1888.04,-96 1769.54,-66.4 1627.55,-56.27 1542.19,-52.8"/>
<polygon fill="#aabbaa" fill-opacity="0.533333" stroke="#aabbaa" stroke-width="1.3" stroke-opacity="0.533333" points="1542.37,-49.3 1532.24,-52.42 1542.1,-56.3 1542.37,-49.3"/>
</g>
<!-- /lib/models/file_extension_icon.dart -->
<g id="node22" class="node">
<title>/lib/models/file_extension_icon.dart</title>
<path fill="Lavender" stroke="black" stroke-width="1.3" d="M1256.04,-140C1256.04,-140 1138.04,-140 1138.04,-140 1132.04,-140 1126.04,-134 1126.04,-128 1126.04,-128 1126.04,-116 1126.04,-116 1126.04,-110 1132.04,-104 1138.04,-104 1138.04,-104 1256.04,-104 1256.04,-104 1262.04,-104 1268.04,-110 1268.04,-116 1268.04,-116 1268.04,-128 1268.04,-128 1268.04,-134 1262.04,-140 1256.04,-140"/>
<text xml:space="preserve" text-anchor="middle" x="1197.04" y="-116.75" font-family="Arial" font-size="15.00">file_extension_icon</text>
</g>
<!-- /lib/models/project_node.dart&#45;&gt;/lib/models/file_system_item.dart -->
<g id="edge66" class="edge">
<title>/lib/models/project_node.dart&#45;&gt;/lib/models/file_system_item.dart</title>
<path fill="none" stroke="#aabbaa" stroke-width="1.3" stroke-opacity="0.533333" d="M1475.83,-103.7C1474.51,-96.6 1472.95,-88.18 1471.46,-80.18"/>
<polygon fill="#aabbaa" fill-opacity="0.533333" stroke="#aabbaa" stroke-width="1.3" stroke-opacity="0.533333" points="1474.94,-79.72 1469.67,-70.53 1468.05,-81 1474.94,-79.72"/>
</g>
<!-- /lib/models/file_system_item.dart&#45;&gt;/lib/utils/file_utils.dart -->
<g id="edge67" class="edge">
<title>/lib/models/file_system_item.dart&#45;&gt;/lib/utils/file_utils.dart</title>
<path fill="none" stroke="#aabbaa" stroke-width="1.3" stroke-opacity="0.533333" d="M1530.13,-52.82C1654.4,-56.91 1923.66,-68.71 2012.04,-96 2014.25,-96.68 2016.46,-97.48 2018.66,-98.38"/>
<polygon fill="#aabbaa" fill-opacity="0.533333" stroke="#aabbaa" stroke-width="1.3" stroke-opacity="0.533333" points="2017.1,-101.51 2027.64,-102.62 2020.09,-95.18 2017.1,-101.51"/>
</g>
<!-- /lib/screens/main_layout.dart -->
<g id="node26" class="node">
<title>/lib/screens/main_layout.dart</title>
<path fill="Lavender" stroke="black" stroke-width="1.3" d="M2509.17,-480C2509.17,-480 2436.92,-480 2436.92,-480 2430.92,-480 2424.92,-474 2424.92,-468 2424.92,-468 2424.92,-456 2424.92,-456 2424.92,-450 2430.92,-444 2436.92,-444 2436.92,-444 2509.17,-444 2509.17,-444 2515.17,-444 2521.17,-450 2521.17,-456 2521.17,-456 2521.17,-468 2521.17,-468 2521.17,-474 2515.17,-480 2509.17,-480"/>
<text xml:space="preserve" text-anchor="middle" x="2473.04" y="-456.75" font-family="Arial" font-size="15.00">main_layout</text>
</g>
<!-- /lib/screens/main_layout.dart&#45;&gt;/lib/providers/app_providers.dart -->
<g id="edge69" class="edge">
<title>/lib/screens/main_layout.dart&#45;&gt;/lib/providers/app_providers.dart</title>
<path fill="none" stroke="#aabbaa" stroke-width="1.3" stroke-opacity="0.533333" d="M2481.58,-443.45C2491.9,-421.18 2508.68,-381.29 2515.04,-345 2520.8,-312.17 2518.84,-303.12 2515.04,-270 2514.02,-261.1 2512.12,-251.56 2510.08,-242.93"/>
<polygon fill="#aabbaa" fill-opacity="0.533333" stroke="#aabbaa" stroke-width="1.3" stroke-opacity="0.533333" points="2513.51,-242.22 2507.67,-233.38 2506.73,-243.94 2513.51,-242.22"/>
</g>
<!-- /lib/screens/main_layout.dart&#45;&gt;/lib/panels/right/right_panel.dart -->
<g id="edge77" class="edge">
<title>/lib/screens/main_layout.dart&#45;&gt;/lib/panels/right/right_panel.dart</title>
<path fill="none" stroke="#aabbaa" stroke-width="1.3" stroke-opacity="0.533333" d="M2466.78,-480.27C2457.76,-502.9 2438.61,-539.3 2407.04,-546 2386.34,-550.39 2046.75,-550.39 2026.04,-546 1987.86,-537.9 1951.93,-510.14 1928.89,-488.73"/>
<polygon fill="#aabbaa" fill-opacity="0.533333" stroke="#aabbaa" stroke-width="1.3" stroke-opacity="0.533333" points="1931.47,-486.36 1921.83,-481.96 1926.62,-491.41 1931.47,-486.36"/>
</g>
<!-- /lib/screens/main_layout.dart&#45;&gt;/lib/panels/center/editor_screen.dart -->
<g id="edge68" class="edge">
<title>/lib/screens/main_layout.dart&#45;&gt;/lib/panels/center/editor_screen.dart</title>
<path fill="none" stroke="#aabbaa" stroke-width="1.3" stroke-opacity="0.533333" d="M2436.07,-443.44C2429.49,-440.7 2422.63,-438.09 2416.04,-436 2240.08,-380.17 2192.5,-373.62 2009.04,-353 1970.06,-348.62 1693.02,-358.11 1656.04,-345 1642.35,-340.14 1629.3,-330.99 1618.73,-321.97"/>
<polygon fill="#aabbaa" fill-opacity="0.533333" stroke="#aabbaa" stroke-width="1.3" stroke-opacity="0.533333" points="1621.35,-319.63 1611.59,-315.51 1616.66,-324.82 1621.35,-319.63"/>
</g>
<!-- /lib/screens/main_layout.dart&#45;&gt;/lib/panels/center/center_panel.dart -->
<g id="edge76" class="edge">
<title>/lib/screens/main_layout.dart&#45;&gt;/lib/panels/center/center_panel.dart</title>
<path fill="none" stroke="#aabbaa" stroke-width="1.3" stroke-opacity="0.533333" d="M2438.82,-443.37C2431.48,-440.34 2423.65,-437.65 2416.04,-436 2382.1,-428.66 1824,-438.95 1791.04,-428 1776.65,-423.22 1762.76,-414.04 1751.46,-404.99"/>
<polygon fill="#aabbaa" fill-opacity="0.533333" stroke="#aabbaa" stroke-width="1.3" stroke-opacity="0.533333" points="1754.02,-402.57 1744.13,-398.78 1749.5,-407.91 1754.02,-402.57"/>
</g>
<!-- /lib/screens/main_layout.dart&#45;&gt;/lib/panels/left/left_panel.dart -->
<g id="edge75" class="edge">
<title>/lib/screens/main_layout.dart&#45;&gt;/lib/panels/left/left_panel.dart</title>
<path fill="none" stroke="#aabbaa" stroke-width="1.3" stroke-opacity="0.533333" d="M2466.78,-480.27C2457.76,-502.9 2438.61,-539.3 2407.04,-546 2379.65,-551.81 1426.66,-550.64 1399.04,-546 1330.43,-534.48 1255.29,-505.85 1207.01,-485.21"/>
<polygon fill="#aabbaa" fill-opacity="0.533333" stroke="#aabbaa" stroke-width="1.3" stroke-opacity="0.533333" points="1208.6,-482.09 1198.03,-481.33 1205.82,-488.51 1208.6,-482.09"/>
</g>
<!-- /lib/screens/main_layout.dart&#45;&gt;/lib/utils/file_utils.dart -->
<g id="edge73" class="edge">
<title>/lib/screens/main_layout.dart&#45;&gt;/lib/utils/file_utils.dart</title>
<path fill="none" stroke="#aabbaa" stroke-width="1.3" stroke-opacity="0.533333" d="M2505.07,-443.37C2511.52,-440.47 2518.37,-437.81 2525.04,-436 2545.7,-430.38 2604.79,-441.93 2621.04,-428 2670.8,-385.34 2652.33,-191.42 2641.04,-179 2605.07,-139.42 2235.49,-127.11 2102.99,-123.95"/>
<polygon fill="#aabbaa" fill-opacity="0.533333" stroke="#aabbaa" stroke-width="1.3" stroke-opacity="0.533333" points="2103.34,-120.46 2093.26,-123.72 2103.18,-127.45 2103.34,-120.46"/>
</g>
<!-- /lib/screens/main_layout.dart&#45;&gt;/lib/utils/file_type_utils.dart -->
<g id="edge72" class="edge">
<title>/lib/screens/main_layout.dart&#45;&gt;/lib/utils/file_type_utils.dart</title>
<path fill="none" stroke="#aabbaa" stroke-width="1.3" stroke-opacity="0.533333" d="M2492.15,-443.66C2543.1,-395.44 2673.15,-258.18 2595.04,-179 2583.67,-167.47 2027.33,-176.34 2012.04,-171 1998.33,-166.21 1985.27,-157.07 1974.71,-148.04"/>
<polygon fill="#aabbaa" fill-opacity="0.533333" stroke="#aabbaa" stroke-width="1.3" stroke-opacity="0.533333" points="1977.33,-145.69 1967.57,-141.56 1972.63,-150.87 1977.33,-145.69"/>
</g>
<!-- /lib/screens/main_layout.dart&#45;&gt;/lib/models/document_state.dart -->
<g id="edge71" class="edge">
<title>/lib/screens/main_layout.dart&#45;&gt;/lib/models/document_state.dart</title>
<path fill="none" stroke="#aabbaa" stroke-width="1.3" stroke-opacity="0.533333" d="M2439.13,-443.44C2431.71,-440.37 2423.76,-437.63 2416.04,-436 2401.65,-432.95 310.34,-436.06 298.04,-428 201.59,-364.79 143.81,-260.86 225.04,-179 235.33,-168.63 1263.09,-175.33 1277.04,-171 1292.4,-166.23 1307.45,-156.93 1319.71,-147.78"/>
<polygon fill="#aabbaa" fill-opacity="0.533333" stroke="#aabbaa" stroke-width="1.3" stroke-opacity="0.533333" points="1321.65,-150.7 1327.35,-141.77 1317.33,-145.2 1321.65,-150.7"/>
</g>
<!-- /lib/screens/main_layout.dart&#45;&gt;/lib/models/file_system_item.dart -->
<g id="edge70" class="edge">
<title>/lib/screens/main_layout.dart&#45;&gt;/lib/models/file_system_item.dart</title>
<path fill="none" stroke="#aabbaa" stroke-width="1.3" stroke-opacity="0.533333" d="M2521.53,-457.97C2556.03,-454.29 2602.68,-446.11 2640.04,-428 2691.1,-403.25 2704.53,-391.5 2737.04,-345 2800.89,-253.69 2844.41,-175.19 2766.04,-96 2722.83,-52.33 1813.5,-50.39 1541.95,-50.79"/>
<polygon fill="#aabbaa" fill-opacity="0.533333" stroke="#aabbaa" stroke-width="1.3" stroke-opacity="0.533333" points="1542.23,-47.29 1532.24,-50.8 1542.24,-54.29 1542.23,-47.29"/>
</g>
<!-- /lib/screens/main_layout.dart&#45;&gt;/lib/widgets/resizable_splitter.dart -->
<g id="edge74" class="edge">
<title>/lib/screens/main_layout.dart&#45;&gt;/lib/widgets/resizable_splitter.dart</title>
<path fill="none" stroke="#aabbaa" stroke-width="1.3" stroke-opacity="0.533333" d="M2439.13,-443.45C2431.71,-440.38 2423.76,-437.64 2416.04,-436 2374.5,-427.18 929.4,-431.06 887.04,-428 754.33,-418.41 381.37,-445.4 294.04,-345 272.17,-319.85 272.68,-295.59 294.04,-270 306.78,-254.74 319.59,-269.39 338.04,-262 352.71,-256.13 367.53,-247.09 379.94,-238.43"/>
<polygon fill="#aabbaa" fill-opacity="0.533333" stroke="#aabbaa" stroke-width="1.3" stroke-opacity="0.533333" points="381.69,-241.49 387.74,-232.79 377.59,-235.82 381.69,-241.49"/>
</g>
<!-- /lib/screens/loading_screen.dart -->
<g id="node27" class="node">
<title>/lib/screens/loading_screen.dart</title>
<path fill="Lavender" stroke="black" stroke-width="1.3" d="M2395.29,-480C2395.29,-480 2302.79,-480 2302.79,-480 2296.79,-480 2290.79,-474 2290.79,-468 2290.79,-468 2290.79,-456 2290.79,-456 2290.79,-450 2296.79,-444 2302.79,-444 2302.79,-444 2395.29,-444 2395.29,-444 2401.29,-444 2407.29,-450 2407.29,-456 2407.29,-456 2407.29,-468 2407.29,-468 2407.29,-474 2401.29,-480 2395.29,-480"/>
<text xml:space="preserve" text-anchor="middle" x="2349.04" y="-456.75" font-family="Arial" font-size="15.00">loading_screen</text>
</g>
<!-- /lib/main.dart&#45;&gt;/lib/providers/app_providers.dart -->
<g id="edge78" class="edge">
<title>/lib/main.dart&#45;&gt;/lib/providers/app_providers.dart</title>
<path fill="none" stroke="#aabbaa" stroke-width="1.3" stroke-opacity="0.533333" d="M2306.42,-566.51C2371.81,-565.06 2532.91,-559.7 2549.04,-542 2626.74,-456.78 2553.93,-303.9 2518.69,-241.58"/>
<polygon fill="#aabbaa" fill-opacity="0.533333" stroke="#aabbaa" stroke-width="1.3" stroke-opacity="0.533333" points="2521.8,-239.98 2513.77,-233.07 2515.74,-243.48 2521.8,-239.98"/>
</g>
<!-- /lib/main.dart&#45;&gt;/lib/panels/center/editor_screen.dart -->
<g id="edge81" class="edge">
<title>/lib/main.dart&#45;&gt;/lib/panels/center/editor_screen.dart</title>
<path fill="none" stroke="#aabbaa" stroke-width="1.3" stroke-opacity="0.533333" d="M2251.45,-567.04C2057.99,-567.22 911.85,-567.26 887.04,-542 828.18,-482.07 828.02,-412.77 887.04,-353 899.57,-340.31 1512.14,-350.68 1529.04,-345 1543.13,-340.26 1556.69,-331.23 1567.75,-322.26"/>
<polygon fill="#aabbaa" fill-opacity="0.533333" stroke="#aabbaa" stroke-width="1.3" stroke-opacity="0.533333" points="1569.98,-324.96 1575.28,-315.79 1565.42,-319.65 1569.98,-324.96"/>
</g>
<!-- /lib/main.dart&#45;&gt;/lib/screens/main_layout.dart -->
<g id="edge79" class="edge">
<title>/lib/main.dart&#45;&gt;/lib/screens/main_layout.dart</title>
<path fill="none" stroke="#aabbaa" stroke-width="1.3" stroke-opacity="0.533333" d="M2306.68,-567.83C2336,-567.45 2382.62,-563.1 2416.04,-542 2435.46,-529.74 2450.32,-508.25 2459.99,-490.78"/>
<polygon fill="#aabbaa" fill-opacity="0.533333" stroke="#aabbaa" stroke-width="1.3" stroke-opacity="0.533333" points="2462.9,-492.77 2464.43,-482.28 2456.7,-489.53 2462.9,-492.77"/>
</g>
<!-- /lib/main.dart&#45;&gt;/lib/screens/loading_screen.dart -->
<g id="edge82" class="edge">
<title>/lib/main.dart&#45;&gt;/lib/screens/loading_screen.dart</title>
<path fill="none" stroke="#aabbaa" stroke-width="1.3" stroke-opacity="0.533333" d="M2290.92,-549.36C2301.84,-533.12 2318.21,-508.8 2330.8,-490.1"/>
<polygon fill="#aabbaa" fill-opacity="0.533333" stroke="#aabbaa" stroke-width="1.3" stroke-opacity="0.533333" points="2333.56,-492.26 2336.24,-482.01 2327.76,-488.36 2333.56,-492.26"/>
</g>
<!-- /lib/main.dart&#45;&gt;/lib/screens/welcome_screen.dart -->
<g id="edge83" class="edge">
<title>/lib/main.dart&#45;&gt;/lib/screens/welcome_screen.dart</title>
<path fill="none" stroke="#aabbaa" stroke-width="1.3" stroke-opacity="0.533333" d="M2267.17,-549.36C2256.24,-533.12 2239.87,-508.8 2227.29,-490.1"/>
<polygon fill="#aabbaa" fill-opacity="0.533333" stroke="#aabbaa" stroke-width="1.3" stroke-opacity="0.533333" points="2230.33,-488.36 2221.84,-482.01 2224.52,-492.26 2230.33,-488.36"/>
</g>
<!-- /lib/theme/app_theme.dart -->
<g id="node30" class="node">
<title>/lib/theme/app_theme.dart</title>
<path fill="Lavender" stroke="black" stroke-width="1.3" d="M2108.54,-480C2108.54,-480 2041.54,-480 2041.54,-480 2035.54,-480 2029.54,-474 2029.54,-468 2029.54,-468 2029.54,-456 2029.54,-456 2029.54,-450 2035.54,-444 2041.54,-444 2041.54,-444 2108.54,-444 2108.54,-444 2114.54,-444 2120.54,-450 2120.54,-456 2120.54,-456 2120.54,-468 2120.54,-468 2120.54,-474 2114.54,-480 2108.54,-480"/>
<text xml:space="preserve" text-anchor="middle" x="2075.04" y="-456.75" font-family="Arial" font-size="15.00">app_theme</text>
</g>
<!-- /lib/main.dart&#45;&gt;/lib/theme/app_theme.dart -->
<g id="edge85" class="edge">
<title>/lib/main.dart&#45;&gt;/lib/theme/app_theme.dart</title>
<path fill="none" stroke="#aabbaa" stroke-width="1.3" stroke-opacity="0.533333" d="M2251.44,-564.75C2214.79,-561.34 2152.4,-553.96 2133.04,-542 2113.38,-529.85 2098.26,-508.36 2088.39,-490.86"/>
<polygon fill="#aabbaa" fill-opacity="0.533333" stroke="#aabbaa" stroke-width="1.3" stroke-opacity="0.533333" points="2091.64,-489.51 2083.86,-482.33 2085.46,-492.8 2091.64,-489.51"/>
</g>
<!-- /lib/main.dart&#45;&gt;/lib/services/git_service.dart -->
<g id="edge84" class="edge">
<title>/lib/main.dart&#45;&gt;/lib/services/git_service.dart</title>
<path fill="none" stroke="#aabbaa" stroke-width="1.3" stroke-opacity="0.533333" d="M2306.64,-566.33C2369.3,-564.53 2518.05,-558.54 2533.04,-542 2564.68,-507.09 2562.02,-473.14 2533.04,-436 2439.75,-316.42 2352.09,-375.12 2202.04,-353 2192.69,-351.62 2038.57,-351.84 2032.04,-345 2009.03,-320.88 2019.71,-300.97 2032.04,-270 2036.57,-258.62 2044.64,-248.22 2053.13,-239.56"/>
<polygon fill="#aabbaa" fill-opacity="0.533333" stroke="#aabbaa" stroke-width="1.3" stroke-opacity="0.533333" points="2055.36,-242.26 2060.22,-232.85 2050.55,-237.18 2055.36,-242.26"/>
</g>
<!-- /lib/widgets/title_bar.dart -->
<g id="node38" class="node">
<title>/lib/widgets/title_bar.dart</title>
<path fill="Lavender" stroke="black" stroke-width="1.3" d="M316.67,-231C316.67,-231 271.42,-231 271.42,-231 265.42,-231 259.42,-225 259.42,-219 259.42,-219 259.42,-207 259.42,-207 259.42,-201 265.42,-195 271.42,-195 271.42,-195 316.67,-195 316.67,-195 322.67,-195 328.67,-201 328.67,-207 328.67,-207 328.67,-219 328.67,-219 328.67,-225 322.67,-231 316.67,-231"/>
<text xml:space="preserve" text-anchor="middle" x="294.04" y="-207.75" font-family="Arial" font-size="15.00">title_bar</text>
</g>
<!-- /lib/main.dart&#45;&gt;/lib/widgets/title_bar.dart -->
<g id="edge80" class="edge">
<title>/lib/main.dart&#45;&gt;/lib/widgets/title_bar.dart</title>
<path fill="none" stroke="#aabbaa" stroke-width="1.3" stroke-opacity="0.533333" d="M2251.56,-567.05C2064.61,-567.3 982.89,-567.65 839.04,-542 577.23,-495.32 428.05,-561.8 274.04,-345 252.52,-314.7 266.13,-270.47 279.1,-241.96"/>
<polygon fill="#aabbaa" fill-opacity="0.533333" stroke="#aabbaa" stroke-width="1.3" stroke-opacity="0.533333" points="282.09,-243.81 283.29,-233.28 275.79,-240.76 282.09,-243.81"/>
</g>
<!-- /lib/services/project_service.dart&#45;&gt;/lib/providers/app_providers.dart -->
<g id="edge90" class="edge">
<title>/lib/services/project_service.dart&#45;&gt;/lib/providers/app_providers.dart</title>
<path fill="none" stroke="#aabbaa" stroke-width="1.3" stroke-opacity="0.533333" d="M2131.71,-277.36C2140.14,-274.37 2149.27,-271.7 2158.04,-270 2187.29,-264.34 2397.82,-271.53 2426.04,-262 2440.59,-257.09 2454.71,-247.86 2466.88,-238.79"/>
<polygon fill="#aabbaa" fill-opacity="0.533333" stroke="#aabbaa" stroke-width="1.3" stroke-opacity="0.533333" points="2468.82,-241.71 2474.62,-232.85 2464.56,-236.16 2468.82,-241.71"/>
</g>
<!-- /lib/services/project_service.dart&#45;&gt;/lib/models/project_node.dart -->
<g id="edge86" class="edge">
<title>/lib/services/project_service.dart&#45;&gt;/lib/models/project_node.dart</title>
<path fill="none" stroke="#aabbaa" stroke-width="1.3" stroke-opacity="0.533333" d="M2140.92,-277.42C2149.43,-274.47 2158.42,-271.79 2167.04,-270 2182.41,-266.81 2297.27,-273.41 2308.04,-262 2333.38,-235.19 2333.94,-205.27 2308.04,-179 2296.98,-167.78 1756.72,-172.54 1741.04,-171 1672.37,-164.27 1594.74,-149.08 1541.93,-137.58"/>
<polygon fill="#aabbaa" fill-opacity="0.533333" stroke="#aabbaa" stroke-width="1.3" stroke-opacity="0.533333" points="1542.82,-134.19 1532.3,-135.46 1541.32,-141.03 1542.82,-134.19"/>
</g>
<!-- /lib/services/project_service.dart&#45;&gt;/lib/models/file_system_item.dart -->
<g id="edge87" class="edge">
<title>/lib/services/project_service.dart&#45;&gt;/lib/models/file_system_item.dart</title>
<path fill="none" stroke="#aabbaa" stroke-width="1.3" stroke-opacity="0.533333" d="M2140.91,-277.38C2149.42,-274.43 2158.42,-271.76 2167.04,-270 2184.05,-266.52 2311.09,-274.58 2323.04,-262 2348.45,-235.26 2344.02,-209.34 2323.04,-179 2263.6,-93.05 2205.13,-118.36 2103.04,-96 1998.17,-73.03 1687.37,-59.06 1542.27,-53.62"/>
<polygon fill="#aabbaa" fill-opacity="0.533333" stroke="#aabbaa" stroke-width="1.3" stroke-opacity="0.533333" points="1542.52,-50.12 1532.4,-53.25 1542.26,-57.12 1542.52,-50.12"/>
</g>
<!-- /lib/services/project_service.dart&#45;&gt;/lib/services/git_service.dart -->
<g id="edge88" class="edge">
<title>/lib/services/project_service.dart&#45;&gt;/lib/services/git_service.dart</title>
<path fill="none" stroke="#aabbaa" stroke-width="1.3" stroke-opacity="0.533333" d="M2096,-277.42C2094.28,-267.45 2092.08,-254.7 2090.1,-243.26"/>
<polygon fill="#aabbaa" fill-opacity="0.533333" stroke="#aabbaa" stroke-width="1.3" stroke-opacity="0.533333" points="2093.56,-242.74 2088.41,-233.48 2086.66,-243.93 2093.56,-242.74"/>
</g>
<!-- /lib/services/file_system_watcher.dart -->
<g id="node33" class="node">
<title>/lib/services/file_system_watcher.dart</title>
<path fill="Lavender" stroke="black" stroke-width="1.3" d="M2286.92,-231C2286.92,-231 2159.17,-231 2159.17,-231 2153.17,-231 2147.17,-225 2147.17,-219 2147.17,-219 2147.17,-207 2147.17,-207 2147.17,-201 2153.17,-195 2159.17,-195 2159.17,-195 2286.92,-195 2286.92,-195 2292.92,-195 2298.92,-201 2298.92,-207 2298.92,-207 2298.92,-219 2298.92,-219 2298.92,-225 2292.92,-231 2286.92,-231"/>
<text xml:space="preserve" text-anchor="middle" x="2223.04" y="-207.75" font-family="Arial" font-size="15.00">file_system_watcher</text>
</g>
<!-- /lib/services/project_service.dart&#45;&gt;/lib/services/file_system_watcher.dart -->
<g id="edge89" class="edge">
<title>/lib/services/project_service.dart&#45;&gt;/lib/services/file_system_watcher.dart</title>
<path fill="none" stroke="#aabbaa" stroke-width="1.3" stroke-opacity="0.533333" d="M2125.95,-277.42C2143.58,-265.91 2166.85,-250.7 2186.2,-238.07"/>
<polygon fill="#aabbaa" fill-opacity="0.533333" stroke="#aabbaa" stroke-width="1.3" stroke-opacity="0.533333" points="2188.08,-241.02 2194.54,-232.62 2184.26,-235.16 2188.08,-241.02"/>
</g>
<!-- /lib/services/git_service.dart&#45;&gt;/lib/utils/file_utils.dart -->
<g id="edge91" class="edge">
<title>/lib/services/git_service.dart&#45;&gt;/lib/utils/file_utils.dart</title>
<path fill="none" stroke="#aabbaa" stroke-width="1.3" stroke-opacity="0.533333" d="M2079.31,-194.42C2075.34,-182.23 2069.96,-165.72 2065.38,-151.65"/>
<polygon fill="#aabbaa" fill-opacity="0.533333" stroke="#aabbaa" stroke-width="1.3" stroke-opacity="0.533333" points="2068.8,-150.84 2062.37,-142.42 2062.14,-153.01 2068.8,-150.84"/>
</g>
<!-- /lib/services/file_system_watcher.dart&#45;&gt;/lib/models/project_node.dart -->
<g id="edge92" class="edge">
<title>/lib/services/file_system_watcher.dart&#45;&gt;/lib/models/project_node.dart</title>
<path fill="none" stroke="#aabbaa" stroke-width="1.3" stroke-opacity="0.533333" d="M2186.23,-194.47C2171.58,-188.36 2154.35,-182.22 2138.04,-179 2051.48,-161.88 1828.84,-179.87 1741.04,-171 1672.39,-164.07 1594.76,-148.91 1541.94,-137.47"/>
<polygon fill="#aabbaa" fill-opacity="0.533333" stroke="#aabbaa" stroke-width="1.3" stroke-opacity="0.533333" points="1542.83,-134.08 1532.31,-135.36 1541.34,-140.92 1542.83,-134.08"/>
</g>
<!-- /lib/services/file_system_service.dart&#45;&gt;/lib/models/file_system_item.dart -->
<g id="edge93" class="edge">
<title>/lib/services/file_system_service.dart&#45;&gt;/lib/models/file_system_item.dart</title>
<path fill="none" stroke="#aabbaa" stroke-width="1.3" stroke-opacity="0.533333" d="M2423.67,-285.05C2486.33,-276.4 2566.6,-264.83 2569.04,-262 2593.11,-234.04 2588.28,-210.47 2569.04,-179 2526.85,-109.97 2485.21,-116.85 2407.04,-96 2244.61,-52.68 1736.26,-49.92 1542.29,-50.51"/>
<polygon fill="#aabbaa" fill-opacity="0.533333" stroke="#aabbaa" stroke-width="1.3" stroke-opacity="0.533333" points="1542.48,-47.01 1532.5,-50.54 1542.51,-54.01 1542.48,-47.01"/>
</g>
<!-- /lib/widgets/title_bar.dart&#45;&gt;/lib/providers/app_providers.dart -->
<g id="edge94" class="edge">
<title>/lib/widgets/title_bar.dart&#45;&gt;/lib/providers/app_providers.dart</title>
<path fill="none" stroke="#aabbaa" stroke-width="1.3" stroke-opacity="0.533333" d="M304.51,-231.48C313.63,-245.14 328.33,-262.03 347.04,-266 361.17,-269 2411.92,-269 2426.04,-266 2444.58,-262.07 2462.15,-250.53 2475.72,-239.22"/>
<polygon fill="#aabbaa" fill-opacity="0.533333" stroke="#aabbaa" stroke-width="1.3" stroke-opacity="0.533333" points="2477.78,-242.07 2482.96,-232.82 2473.15,-236.82 2477.78,-242.07"/>
</g>
<!-- /lib/widgets/filename_widget.dart&#45;&gt;/lib/utils/file_type_utils.dart -->
<g id="edge97" class="edge">
<title>/lib/widgets/filename_widget.dart&#45;&gt;/lib/utils/file_type_utils.dart</title>
<path fill="none" stroke="#aabbaa" stroke-width="1.3" stroke-opacity="0.533333" d="M585.47,-194.36C597.67,-188.24 612.12,-182.12 626.04,-179 660.25,-171.33 1854.91,-182.45 1888.04,-171 1901.78,-166.26 1914.83,-157.12 1925.39,-148.09"/>
<polygon fill="#aabbaa" fill-opacity="0.533333" stroke="#aabbaa" stroke-width="1.3" stroke-opacity="0.533333" points="1927.48,-150.92 1932.53,-141.61 1922.77,-145.74 1927.48,-150.92"/>
</g>
<!-- /lib/widgets/filename_widget.dart&#45;&gt;/lib/models/file_extension_icon.dart -->
<g id="edge95" class="edge">
<title>/lib/widgets/filename_widget.dart&#45;&gt;/lib/models/file_extension_icon.dart</title>
<path fill="none" stroke="#aabbaa" stroke-width="1.3" stroke-opacity="0.533333" d="M585.88,-194.44C598.01,-188.4 612.3,-182.33 626.04,-179 668.62,-168.68 779.38,-174.68 823.04,-171 923.35,-162.54 1038.1,-146.93 1113.74,-135.8"/>
<polygon fill="#aabbaa" fill-opacity="0.533333" stroke="#aabbaa" stroke-width="1.3" stroke-opacity="0.533333" points="1114.21,-139.27 1123.59,-134.35 1113.19,-132.35 1114.21,-139.27"/>
</g>
<!-- /lib/widgets/filename_widget.dart&#45;&gt;/lib/models/file_system_item.dart -->
<g id="edge96" class="edge">
<title>/lib/widgets/filename_widget.dart&#45;&gt;/lib/models/file_system_item.dart</title>
<path fill="none" stroke="#aabbaa" stroke-width="1.3" stroke-opacity="0.533333" d="M587.9,-194.49C599.66,-188.83 613.19,-182.99 626.04,-179 899.16,-94.13 1240.37,-64.4 1389.9,-54.96"/>
<polygon fill="#aabbaa" fill-opacity="0.533333" stroke="#aabbaa" stroke-width="1.3" stroke-opacity="0.533333" points="1389.89,-58.47 1399.65,-54.36 1389.46,-51.48 1389.89,-58.47"/>
</g>
<!-- /tool/sort_source.dart -->
<g id="node41" class="node">
<title>/tool/sort_source.dart</title>
<path fill="Lavender" stroke="black" stroke-width="1.3" d="M2643.42,-669C2643.42,-669 2572.67,-669 2572.67,-669 2566.67,-669 2560.67,-663 2560.67,-657 2560.67,-657 2560.67,-645 2560.67,-645 2560.67,-639 2566.67,-633 2572.67,-633 2572.67,-633 2643.42,-633 2643.42,-633 2649.42,-633 2655.42,-639 2655.42,-645 2655.42,-645 2655.42,-657 2655.42,-657 2655.42,-663 2649.42,-669 2643.42,-669"/>
<text xml:space="preserve" text-anchor="middle" x="2608.04" y="-645.75" font-family="Arial" font-size="15.00">sort_source</text>
</g>
</g>
</svg>
