<?xml version="1.0" encoding="UTF-8" standalone="no"?>
<!DOCTYPE svg PUBLIC "-//W3C//DTD SVG 1.1//EN"
 "http://www.w3.org/Graphics/SVG/1.1/DTD/svg11.dtd">
<!-- Generated by graphviz version 13.1.1 (20250719.2154)
 -->
<!-- Pages: 1 -->
<svg width="783pt" height="631pt"
 viewBox="0.00 0.00 783.00 631.00" xmlns="http://www.w3.org/2000/svg" xmlns:xlink="http://www.w3.org/1999/xlink">
<g id="graph0" class="graph" transform="scale(1 1) rotate(0) translate(4 627)">
<polygon fill="white" stroke="none" points="-4,4 -4,-627 778.56,-627 778.56,4 -4,4"/>
<g id="clust1" class="cluster">
<title>cluster~</title>
<path fill="none" stroke="lightgray" stroke-width="2.6" d="M28.56,-8C28.56,-8 754.56,-8 754.56,-8 760.56,-8 766.56,-14 766.56,-20 766.56,-20 766.56,-603 766.56,-603 766.56,-609 760.56,-615 754.56,-615 754.56,-615 28.56,-615 28.56,-615 22.56,-615 16.56,-609 16.56,-603 16.56,-603 16.56,-20 16.56,-20 16.56,-14 22.56,-8 28.56,-8"/>
<text xml:space="preserve" text-anchor="middle" x="391.56" y="-598.65" font-family="Arial Black" font-size="13.00">fide</text>
</g>
<g id="clust2" class="cluster">
<title>cluster~/test</title>
<path fill="none" stroke="lightgray" stroke-width="2.6" d="M298.56,-509C298.56,-509 382.56,-509 382.56,-509 388.56,-509 394.56,-515 394.56,-521 394.56,-521 394.56,-572 394.56,-572 394.56,-578 388.56,-584 382.56,-584 382.56,-584 298.56,-584 298.56,-584 292.56,-584 286.56,-578 286.56,-572 286.56,-572 286.56,-521 286.56,-521 286.56,-515 292.56,-509 298.56,-509"/>
<text xml:space="preserve" text-anchor="middle" x="340.56" y="-567.65" font-family="Arial Black" font-size="13.00">test</text>
</g>
<g id="clust3" class="cluster">
<title>cluster~/lib</title>
<path fill="none" stroke="lightgray" stroke-width="2.6" d="M36.56,-16C36.56,-16 746.56,-16 746.56,-16 752.56,-16 758.56,-22 758.56,-28 758.56,-28 758.56,-489 758.56,-489 758.56,-495 752.56,-501 746.56,-501 746.56,-501 36.56,-501 36.56,-501 30.56,-501 24.56,-495 24.56,-489 24.56,-489 24.56,-28 24.56,-28 24.56,-22 30.56,-16 36.56,-16"/>
<text xml:space="preserve" text-anchor="middle" x="391.56" y="-484.65" font-family="Arial Black" font-size="13.00">lib</text>
</g>
<g id="clust4" class="cluster">
<title>cluster~/lib/models</title>
<path fill="none" stroke="lightgray" stroke-width="2.6" d="M44.56,-24C44.56,-24 284.56,-24 284.56,-24 290.56,-24 296.56,-30 296.56,-36 296.56,-36 296.56,-87 296.56,-87 296.56,-93 290.56,-99 284.56,-99 284.56,-99 44.56,-99 44.56,-99 38.56,-99 32.56,-93 32.56,-87 32.56,-87 32.56,-36 32.56,-36 32.56,-30 38.56,-24 44.56,-24"/>
<text xml:space="preserve" text-anchor="middle" x="164.56" y="-82.65" font-family="Arial Black" font-size="13.00">models</text>
</g>
<g id="clust5" class="cluster">
<title>cluster~/lib/screens</title>
<path fill="none" stroke="lightgray" stroke-width="2.6" d="M74.56,-312C74.56,-312 610.56,-312 610.56,-312 616.56,-312 622.56,-318 622.56,-324 622.56,-324 622.56,-414 622.56,-414 622.56,-420 616.56,-426 610.56,-426 610.56,-426 74.56,-426 74.56,-426 68.56,-426 62.56,-420 62.56,-414 62.56,-414 62.56,-324 62.56,-324 62.56,-318 68.56,-312 74.56,-312"/>
<text xml:space="preserve" text-anchor="middle" x="342.56" y="-409.65" font-family="Arial Black" font-size="13.00">screens</text>
</g>
<g id="clust6" class="cluster">
<title>cluster~/lib/screens/explorer</title>
<path fill="none" stroke="lightgray" stroke-width="2.6" d="M210.56,-320C210.56,-320 472.56,-320 472.56,-320 478.56,-320 484.56,-326 484.56,-332 484.56,-332 484.56,-383 484.56,-383 484.56,-389 478.56,-395 472.56,-395 472.56,-395 210.56,-395 210.56,-395 204.56,-395 198.56,-389 198.56,-383 198.56,-383 198.56,-332 198.56,-332 198.56,-326 204.56,-320 210.56,-320"/>
<text xml:space="preserve" text-anchor="middle" x="341.56" y="-378.65" font-family="Arial Black" font-size="13.00">explorer</text>
</g>
<g id="clust7" class="cluster">
<title>cluster~/lib/screens/outline</title>
<path fill="none" stroke="lightgray" stroke-width="2.6" d="M82.56,-320C82.56,-320 178.56,-320 178.56,-320 184.56,-320 190.56,-326 190.56,-332 190.56,-332 190.56,-383 190.56,-383 190.56,-389 184.56,-395 178.56,-395 178.56,-395 82.56,-395 82.56,-395 76.56,-395 70.56,-389 70.56,-383 70.56,-383 70.56,-332 70.56,-332 70.56,-326 76.56,-320 82.56,-320"/>
<text xml:space="preserve" text-anchor="middle" x="130.56" y="-378.65" font-family="Arial Black" font-size="13.00">outline</text>
</g>
<g id="clust8" class="cluster">
<title>cluster~/lib/screens/editor</title>
<path fill="none" stroke="lightgray" stroke-width="2.6" d="M504.56,-320C504.56,-320 602.56,-320 602.56,-320 608.56,-320 614.56,-326 614.56,-332 614.56,-332 614.56,-383 614.56,-383 614.56,-389 608.56,-395 602.56,-395 602.56,-395 504.56,-395 504.56,-395 498.56,-395 492.56,-389 492.56,-383 492.56,-383 492.56,-332 492.56,-332 492.56,-326 498.56,-320 504.56,-320"/>
<text xml:space="preserve" text-anchor="middle" x="553.56" y="-378.65" font-family="Arial Black" font-size="13.00">editor</text>
</g>
<g id="clust9" class="cluster">
<title>cluster~/lib/theme</title>
<path fill="none" stroke="lightgray" stroke-width="2.6" d="M642.56,-320C642.56,-320 726.56,-320 726.56,-320 732.56,-320 738.56,-326 738.56,-332 738.56,-332 738.56,-383 738.56,-383 738.56,-389 732.56,-395 726.56,-395 726.56,-395 642.56,-395 642.56,-395 636.56,-395 630.56,-389 630.56,-383 630.56,-383 630.56,-332 630.56,-332 630.56,-326 636.56,-320 642.56,-320"/>
<text xml:space="preserve" text-anchor="middle" x="684.56" y="-378.65" font-family="Arial Black" font-size="13.00">theme</text>
</g>
<g id="clust10" class="cluster">
<title>cluster~/lib/services</title>
<path fill="none" stroke="lightgray" stroke-width="2.6" d="M252.56,-107C252.56,-107 518.56,-107 518.56,-107 524.56,-107 530.56,-113 530.56,-119 530.56,-119 530.56,-170 530.56,-170 530.56,-176 524.56,-182 518.56,-182 518.56,-182 252.56,-182 252.56,-182 246.56,-182 240.56,-176 240.56,-170 240.56,-170 240.56,-119 240.56,-119 240.56,-113 246.56,-107 252.56,-107"/>
<text xml:space="preserve" text-anchor="middle" x="385.56" y="-165.65" font-family="Arial Black" font-size="13.00">services</text>
</g>
<g id="clust11" class="cluster">
<title>cluster~/lib/widgets</title>
<path fill="none" stroke="lightgray" stroke-width="2.6" d="M230.56,-190C230.56,-190 613.56,-190 613.56,-190 619.56,-190 625.56,-196 625.56,-202 625.56,-202 625.56,-292 625.56,-292 625.56,-298 619.56,-304 613.56,-304 613.56,-304 230.56,-304 230.56,-304 224.56,-304 218.56,-298 218.56,-292 218.56,-292 218.56,-202 218.56,-202 218.56,-196 224.56,-190 230.56,-190"/>
<text xml:space="preserve" text-anchor="middle" x="422.06" y="-287.65" font-family="Arial Black" font-size="13.00">widgets</text>
</g>
<g id="clust12" class="cluster">
<title>cluster~/lib/widgets/explorer</title>
<path fill="none" stroke="lightgray" stroke-width="2.6" d="M238.56,-198C238.56,-198 328.56,-198 328.56,-198 334.56,-198 340.56,-204 340.56,-210 340.56,-210 340.56,-261 340.56,-261 340.56,-267 334.56,-273 328.56,-273 328.56,-273 238.56,-273 238.56,-273 232.56,-273 226.56,-267 226.56,-261 226.56,-261 226.56,-210 226.56,-210 226.56,-204 232.56,-198 238.56,-198"/>
<text xml:space="preserve" text-anchor="middle" x="283.56" y="-256.65" font-family="Arial Black" font-size="13.00">explorer</text>
</g>
<g id="clust13" class="cluster">
<title>cluster~/tool</title>
<path fill="none" stroke="lightgray" stroke-width="2.6" d="M573.56,-509C573.56,-509 659.56,-509 659.56,-509 665.56,-509 671.56,-515 671.56,-521 671.56,-521 671.56,-572 671.56,-572 671.56,-578 665.56,-584 659.56,-584 659.56,-584 573.56,-584 573.56,-584 567.56,-584 561.56,-578 561.56,-572 561.56,-572 561.56,-521 561.56,-521 561.56,-515 567.56,-509 573.56,-509"/>
<text xml:space="preserve" text-anchor="middle" x="616.56" y="-567.65" font-family="Arial Black" font-size="13.00">tool</text>
</g>
<!-- /test/widget_test.dart -->
<g id="node1" class="node">
<title>/test/widget_test.dart</title>
<path fill="Lavender" stroke="black" stroke-width="1.3" d="M374.43,-553C374.43,-553 306.68,-553 306.68,-553 300.68,-553 294.68,-547 294.68,-541 294.68,-541 294.68,-529 294.68,-529 294.68,-523 300.68,-517 306.68,-517 306.68,-517 374.43,-517 374.43,-517 380.43,-517 386.43,-523 386.43,-529 386.43,-529 386.43,-541 386.43,-541 386.43,-547 380.43,-553 374.43,-553"/>
<text xml:space="preserve" text-anchor="middle" x="340.56" y="-529.75" font-family="Arial" font-size="15.00">widget_test</text>
</g>
<!-- /lib/main.dart -->
<g id="node8" class="node">
<title>/lib/main.dart</title>
<path fill="Lavender" stroke="black" stroke-width="1.3" d="M355.56,-470C355.56,-470 325.56,-470 325.56,-470 319.56,-470 313.56,-464 313.56,-458 313.56,-458 313.56,-446 313.56,-446 313.56,-440 319.56,-434 325.56,-434 325.56,-434 355.56,-434 355.56,-434 361.56,-434 367.56,-440 367.56,-446 367.56,-446 367.56,-458 367.56,-458 367.56,-464 361.56,-470 355.56,-470"/>
<text xml:space="preserve" text-anchor="middle" x="340.56" y="-446.75" font-family="Arial" font-size="15.00">main</text>
</g>
<!-- /test/widget_test.dart&#45;&gt;/lib/main.dart -->
<g id="edge1" class="edge">
<title>/test/widget_test.dart&#45;&gt;/lib/main.dart</title>
<path fill="none" stroke="#aabbaa" stroke-width="1.3" stroke-opacity="0.533333" d="M340.56,-516.42C340.56,-506.45 340.56,-493.7 340.56,-482.26"/>
<polygon fill="#aabbaa" fill-opacity="0.533333" stroke="#aabbaa" stroke-width="1.3" stroke-opacity="0.533333" points="344.06,-482.51 340.56,-472.51 337.06,-482.51 344.06,-482.51"/>
</g>
<!-- /lib/models/project_node.dart -->
<g id="node2" class="node">
<title>/lib/models/project_node.dart</title>
<path fill="Lavender" stroke="black" stroke-width="1.3" d="M130.68,-68C130.68,-68 52.43,-68 52.43,-68 46.43,-68 40.43,-62 40.43,-56 40.43,-56 40.43,-44 40.43,-44 40.43,-38 46.43,-32 52.43,-32 52.43,-32 130.68,-32 130.68,-32 136.68,-32 142.68,-38 142.68,-44 142.68,-44 142.68,-56 142.68,-56 142.68,-62 136.68,-68 130.68,-68"/>
<text xml:space="preserve" text-anchor="middle" x="91.56" y="-44.75" font-family="Arial" font-size="15.00">project_node</text>
</g>
<!-- /lib/models/file_system_item.dart -->
<g id="node3" class="node">
<title>/lib/models/file_system_item.dart</title>
<path fill="Lavender" stroke="black" stroke-width="1.3" d="M276.43,-68C276.43,-68 172.68,-68 172.68,-68 166.68,-68 160.68,-62 160.68,-56 160.68,-56 160.68,-44 160.68,-44 160.68,-38 166.68,-32 172.68,-32 172.68,-32 276.43,-32 276.43,-32 282.43,-32 288.43,-38 288.43,-44 288.43,-44 288.43,-56 288.43,-56 288.43,-62 282.43,-68 276.43,-68"/>
<text xml:space="preserve" text-anchor="middle" x="224.56" y="-44.75" font-family="Arial" font-size="15.00">file_system_item</text>
</g>
<!-- /lib/screens/explorer/explorer_screen.dart -->
<g id="node4" class="node">
<title>/lib/screens/explorer/explorer_screen.dart</title>
<path fill="Lavender" stroke="black" stroke-width="1.3" d="M318.18,-364C318.18,-364 218.93,-364 218.93,-364 212.93,-364 206.93,-358 206.93,-352 206.93,-352 206.93,-340 206.93,-340 206.93,-334 212.93,-328 218.93,-328 218.93,-328 318.18,-328 318.18,-328 324.18,-328 330.18,-334 330.18,-340 330.18,-340 330.18,-352 330.18,-352 330.18,-358 324.18,-364 318.18,-364"/>
<text xml:space="preserve" text-anchor="middle" x="268.56" y="-340.75" font-family="Arial" font-size="15.00">explorer_screen</text>
</g>
<!-- /lib/screens/explorer/explorer_screen.dart&#45;&gt;/lib/models/project_node.dart -->
<g id="edge2" class="edge">
<title>/lib/screens/explorer/explorer_screen.dart&#45;&gt;/lib/models/project_node.dart</title>
<path fill="none" stroke="#aabbaa" stroke-width="1.3" stroke-opacity="0.533333" d="M224.3,-327.46C214.09,-321.45 204.27,-313.72 197.56,-304 147.17,-230.99 216.11,-179.89 165.56,-107 161.47,-101.11 157.48,-103.03 151.56,-99 141.21,-91.97 130.4,-83.65 120.85,-75.93"/>
<polygon fill="#aabbaa" fill-opacity="0.533333" stroke="#aabbaa" stroke-width="1.3" stroke-opacity="0.533333" points="123.25,-73.37 113.3,-69.73 118.8,-78.78 123.25,-73.37"/>
</g>
<!-- /lib/screens/explorer/explorer_screen.dart&#45;&gt;/lib/models/file_system_item.dart -->
<g id="edge3" class="edge">
<title>/lib/screens/explorer/explorer_screen.dart&#45;&gt;/lib/models/file_system_item.dart</title>
<path fill="none" stroke="#aabbaa" stroke-width="1.3" stroke-opacity="0.533333" d="M241.82,-327.42C234.25,-321.01 226.89,-313.07 222.56,-304 187.09,-229.81 204.56,-128.84 216.52,-79.92"/>
<polygon fill="#aabbaa" fill-opacity="0.533333" stroke="#aabbaa" stroke-width="1.3" stroke-opacity="0.533333" points="219.89,-80.84 218.99,-70.29 213.11,-79.11 219.89,-80.84"/>
</g>
<!-- /lib/widgets/message_widget.dart -->
<g id="node14" class="node">
<title>/lib/widgets/message_widget.dart</title>
<path fill="Lavender" stroke="black" stroke-width="1.3" d="M605.43,-242C605.43,-242 501.68,-242 501.68,-242 495.68,-242 489.68,-236 489.68,-230 489.68,-230 489.68,-218 489.68,-218 489.68,-212 495.68,-206 501.68,-206 501.68,-206 605.43,-206 605.43,-206 611.43,-206 617.43,-212 617.43,-218 617.43,-218 617.43,-230 617.43,-230 617.43,-236 611.43,-242 605.43,-242"/>
<text xml:space="preserve" text-anchor="middle" x="553.56" y="-218.75" font-family="Arial" font-size="15.00">message_widget</text>
</g>
<!-- /lib/screens/explorer/explorer_screen.dart&#45;&gt;/lib/widgets/message_widget.dart -->
<g id="edge4" class="edge">
<title>/lib/screens/explorer/explorer_screen.dart&#45;&gt;/lib/widgets/message_widget.dart</title>
<path fill="none" stroke="#aabbaa" stroke-width="1.3" stroke-opacity="0.533333" d="M299.77,-327.38C311.83,-321.42 325.98,-315.41 339.56,-312 370,-304.36 452.17,-317.39 480.56,-304 504.1,-292.89 523.65,-270.45 536.58,-252.32"/>
<polygon fill="#aabbaa" fill-opacity="0.533333" stroke="#aabbaa" stroke-width="1.3" stroke-opacity="0.533333" points="539.4,-254.39 542.12,-244.15 533.61,-250.46 539.4,-254.39"/>
</g>
<!-- /lib/screens/explorer/welcome_screen.dart -->
<g id="node5" class="node">
<title>/lib/screens/explorer/welcome_screen.dart</title>
<path fill="Lavender" stroke="black" stroke-width="1.3" d="M464.43,-364C464.43,-364 360.68,-364 360.68,-364 354.68,-364 348.68,-358 348.68,-352 348.68,-352 348.68,-340 348.68,-340 348.68,-334 354.68,-328 360.68,-328 360.68,-328 464.43,-328 464.43,-328 470.43,-328 476.43,-334 476.43,-340 476.43,-340 476.43,-352 476.43,-352 476.43,-358 470.43,-364 464.43,-364"/>
<text xml:space="preserve" text-anchor="middle" x="412.56" y="-340.75" font-family="Arial" font-size="15.00">welcome_screen</text>
</g>
<!-- /lib/screens/outline/outline_panel.dart -->
<g id="node6" class="node">
<title>/lib/screens/outline/outline_panel.dart</title>
<path fill="Lavender" stroke="black" stroke-width="1.3" d="M170.43,-364C170.43,-364 90.68,-364 90.68,-364 84.68,-364 78.68,-358 78.68,-352 78.68,-352 78.68,-340 78.68,-340 78.68,-334 84.68,-328 90.68,-328 90.68,-328 170.43,-328 170.43,-328 176.43,-328 182.43,-334 182.43,-340 182.43,-340 182.43,-352 182.43,-352 182.43,-358 176.43,-364 170.43,-364"/>
<text xml:space="preserve" text-anchor="middle" x="130.56" y="-340.75" font-family="Arial" font-size="15.00">outline_panel</text>
</g>
<!-- /lib/screens/outline/outline_panel.dart&#45;&gt;/lib/models/file_system_item.dart -->
<g id="edge5" class="edge">
<title>/lib/screens/outline/outline_panel.dart&#45;&gt;/lib/models/file_system_item.dart</title>
<path fill="none" stroke="#aabbaa" stroke-width="1.3" stroke-opacity="0.533333" d="M134.34,-327.64C143.25,-287.89 167.09,-187.49 197.56,-107 201.1,-97.63 205.63,-87.69 209.95,-78.83"/>
<polygon fill="#aabbaa" fill-opacity="0.533333" stroke="#aabbaa" stroke-width="1.3" stroke-opacity="0.533333" points="213,-80.57 214.36,-70.07 206.74,-77.43 213,-80.57"/>
</g>
<!-- /lib/screens/editor/editor_screen.dart -->
<g id="node7" class="node">
<title>/lib/screens/editor/editor_screen.dart</title>
<path fill="Lavender" stroke="black" stroke-width="1.3" d="M594.93,-364C594.93,-364 512.18,-364 512.18,-364 506.18,-364 500.18,-358 500.18,-352 500.18,-352 500.18,-340 500.18,-340 500.18,-334 506.18,-328 512.18,-328 512.18,-328 594.93,-328 594.93,-328 600.93,-328 606.93,-334 606.93,-340 606.93,-340 606.93,-352 606.93,-352 606.93,-358 600.93,-364 594.93,-364"/>
<text xml:space="preserve" text-anchor="middle" x="553.56" y="-340.75" font-family="Arial" font-size="15.00">editor_screen</text>
</g>
<!-- /lib/screens/editor/editor_screen.dart&#45;&gt;/lib/widgets/message_widget.dart -->
<g id="edge6" class="edge">
<title>/lib/screens/editor/editor_screen.dart&#45;&gt;/lib/widgets/message_widget.dart</title>
<path fill="none" stroke="#aabbaa" stroke-width="1.3" stroke-opacity="0.533333" d="M553.56,-327.55C553.56,-308.35 553.56,-277.19 553.56,-254.24"/>
<polygon fill="#aabbaa" fill-opacity="0.533333" stroke="#aabbaa" stroke-width="1.3" stroke-opacity="0.533333" points="557.06,-254.44 553.56,-244.44 550.06,-254.44 557.06,-254.44"/>
</g>
<!-- /lib/main.dart&#45;&gt;/lib/models/project_node.dart -->
<g id="edge14" class="edge">
<title>/lib/main.dart&#45;&gt;/lib/models/project_node.dart</title>
<path fill="none" stroke="#aabbaa" stroke-width="1.3" stroke-opacity="0.533333" d="M313.04,-450.78C242.38,-449.94 58.8,-445.83 40.56,-426 -50.45,-327.1 36.54,-146.82 75.18,-78.36"/>
<polygon fill="#aabbaa" fill-opacity="0.533333" stroke="#aabbaa" stroke-width="1.3" stroke-opacity="0.533333" points="78,-80.48 79.95,-70.07 71.93,-76.99 78,-80.48"/>
</g>
<!-- /lib/main.dart&#45;&gt;/lib/models/file_system_item.dart -->
<g id="edge13" class="edge">
<title>/lib/main.dart&#45;&gt;/lib/models/file_system_item.dart</title>
<path fill="none" stroke="#aabbaa" stroke-width="1.3" stroke-opacity="0.533333" d="M313.27,-450.55C247.22,-449.18 82.98,-443.99 66.56,-426 -15.86,-335.72 161.59,-116.68 168.56,-107 176.28,-96.26 186.12,-85.68 195.38,-76.66"/>
<polygon fill="#aabbaa" fill-opacity="0.533333" stroke="#aabbaa" stroke-width="1.3" stroke-opacity="0.533333" points="197.69,-79.29 202.56,-69.88 192.89,-74.19 197.69,-79.29"/>
</g>
<!-- /lib/main.dart&#45;&gt;/lib/screens/explorer/explorer_screen.dart -->
<g id="edge7" class="edge">
<title>/lib/main.dart&#45;&gt;/lib/screens/explorer/explorer_screen.dart</title>
<path fill="none" stroke="#aabbaa" stroke-width="1.3" stroke-opacity="0.533333" d="M328.34,-433.36C317.1,-417.12 300.27,-392.8 287.32,-374.1"/>
<polygon fill="#aabbaa" fill-opacity="0.533333" stroke="#aabbaa" stroke-width="1.3" stroke-opacity="0.533333" points="290.28,-372.23 281.71,-366 284.52,-376.21 290.28,-372.23"/>
</g>
<!-- /lib/main.dart&#45;&gt;/lib/screens/explorer/welcome_screen.dart -->
<g id="edge8" class="edge">
<title>/lib/main.dart&#45;&gt;/lib/screens/explorer/welcome_screen.dart</title>
<path fill="none" stroke="#aabbaa" stroke-width="1.3" stroke-opacity="0.533333" d="M352.77,-433.36C364.01,-417.12 380.85,-392.8 393.79,-374.1"/>
<polygon fill="#aabbaa" fill-opacity="0.533333" stroke="#aabbaa" stroke-width="1.3" stroke-opacity="0.533333" points="396.59,-376.21 399.4,-366 390.83,-372.23 396.59,-376.21"/>
</g>
<!-- /lib/main.dart&#45;&gt;/lib/screens/outline/outline_panel.dart -->
<g id="edge10" class="edge">
<title>/lib/main.dart&#45;&gt;/lib/screens/outline/outline_panel.dart</title>
<path fill="none" stroke="#aabbaa" stroke-width="1.3" stroke-opacity="0.533333" d="M313.05,-451.9C282.15,-451.7 231.51,-447.64 194.56,-426 173.67,-413.77 156.8,-391.98 145.64,-374.38"/>
<polygon fill="#aabbaa" fill-opacity="0.533333" stroke="#aabbaa" stroke-width="1.3" stroke-opacity="0.533333" points="148.92,-373.04 140.75,-366.29 142.92,-376.66 148.92,-373.04"/>
</g>
<!-- /lib/main.dart&#45;&gt;/lib/screens/editor/editor_screen.dart -->
<g id="edge9" class="edge">
<title>/lib/main.dart&#45;&gt;/lib/screens/editor/editor_screen.dart</title>
<path fill="none" stroke="#aabbaa" stroke-width="1.3" stroke-opacity="0.533333" d="M368.13,-451.94C399.39,-451.8 450.9,-447.81 488.56,-426 509.63,-413.8 526.77,-392.01 538.15,-374.4"/>
<polygon fill="#aabbaa" fill-opacity="0.533333" stroke="#aabbaa" stroke-width="1.3" stroke-opacity="0.533333" points="540.88,-376.65 543.14,-366.3 534.92,-372.98 540.88,-376.65"/>
</g>
<!-- /lib/theme/app_theme.dart -->
<g id="node9" class="node">
<title>/lib/theme/app_theme.dart</title>
<path fill="Lavender" stroke="black" stroke-width="1.3" d="M718.06,-364C718.06,-364 651.06,-364 651.06,-364 645.06,-364 639.06,-358 639.06,-352 639.06,-352 639.06,-340 639.06,-340 639.06,-334 645.06,-328 651.06,-328 651.06,-328 718.06,-328 718.06,-328 724.06,-328 730.06,-334 730.06,-340 730.06,-340 730.06,-352 730.06,-352 730.06,-358 724.06,-364 718.06,-364"/>
<text xml:space="preserve" text-anchor="middle" x="684.56" y="-340.75" font-family="Arial" font-size="15.00">app_theme</text>
</g>
<!-- /lib/main.dart&#45;&gt;/lib/theme/app_theme.dart -->
<g id="edge12" class="edge">
<title>/lib/main.dart&#45;&gt;/lib/theme/app_theme.dart</title>
<path fill="none" stroke="#aabbaa" stroke-width="1.3" stroke-opacity="0.533333" d="M368.02,-451.16C429.37,-451.1 575.52,-448.53 618.56,-426 640.43,-414.55 657.91,-392.46 669.37,-374.54"/>
<polygon fill="#aabbaa" fill-opacity="0.533333" stroke="#aabbaa" stroke-width="1.3" stroke-opacity="0.533333" points="672.36,-376.37 674.55,-366.01 666.37,-372.75 672.36,-376.37"/>
</g>
<!-- /lib/services/file_system_service.dart -->
<g id="node10" class="node">
<title>/lib/services/file_system_service.dart</title>
<path fill="Lavender" stroke="black" stroke-width="1.3" d="M382.81,-151C382.81,-151 260.31,-151 260.31,-151 254.31,-151 248.31,-145 248.31,-139 248.31,-139 248.31,-127 248.31,-127 248.31,-121 254.31,-115 260.31,-115 260.31,-115 382.81,-115 382.81,-115 388.81,-115 394.81,-121 394.81,-127 394.81,-127 394.81,-139 394.81,-139 394.81,-145 388.81,-151 382.81,-151"/>
<text xml:space="preserve" text-anchor="middle" x="321.56" y="-127.75" font-family="Arial" font-size="15.00">file_system_service</text>
</g>
<!-- /lib/main.dart&#45;&gt;/lib/services/file_system_service.dart -->
<g id="edge11" class="edge">
<title>/lib/main.dart&#45;&gt;/lib/services/file_system_service.dart</title>
<path fill="none" stroke="#aabbaa" stroke-width="1.3" stroke-opacity="0.533333" d="M368,-451.41C454.47,-452.42 717,-453.2 742.56,-426 822.2,-341.26 735.28,-238.44 629.56,-190 606.81,-179.58 428.6,-188.91 404.56,-182 387.05,-176.97 369.34,-167.47 354.81,-158.24"/>
<polygon fill="#aabbaa" fill-opacity="0.533333" stroke="#aabbaa" stroke-width="1.3" stroke-opacity="0.533333" points="356.74,-155.32 346.47,-152.72 352.88,-161.16 356.74,-155.32"/>
</g>
<!-- /lib/services/file_system_service.dart&#45;&gt;/lib/models/file_system_item.dart -->
<g id="edge15" class="edge">
<title>/lib/services/file_system_service.dart&#45;&gt;/lib/models/file_system_item.dart</title>
<path fill="none" stroke="#aabbaa" stroke-width="1.3" stroke-opacity="0.533333" d="M300.51,-114.42C287.04,-103.17 269.35,-88.4 254.43,-75.95"/>
<polygon fill="#aabbaa" fill-opacity="0.533333" stroke="#aabbaa" stroke-width="1.3" stroke-opacity="0.533333" points="256.99,-73.53 247.07,-69.8 252.51,-78.9 256.99,-73.53"/>
</g>
<!-- /lib/services/editor_service.dart -->
<g id="node11" class="node">
<title>/lib/services/editor_service.dart</title>
<path fill="Lavender" stroke="black" stroke-width="1.3" d="M510.06,-151C510.06,-151 425.06,-151 425.06,-151 419.06,-151 413.06,-145 413.06,-139 413.06,-139 413.06,-127 413.06,-127 413.06,-121 419.06,-115 425.06,-115 425.06,-115 510.06,-115 510.06,-115 516.06,-115 522.06,-121 522.06,-127 522.06,-127 522.06,-139 522.06,-139 522.06,-145 516.06,-151 510.06,-151"/>
<text xml:space="preserve" text-anchor="middle" x="467.56" y="-127.75" font-family="Arial" font-size="15.00">editor_service</text>
</g>
<!-- /lib/widgets/save_file_dialog.dart -->
<g id="node12" class="node">
<title>/lib/widgets/save_file_dialog.dart</title>
<path fill="Lavender" stroke="black" stroke-width="1.3" d="M459.43,-242C459.43,-242 361.68,-242 361.68,-242 355.68,-242 349.68,-236 349.68,-230 349.68,-230 349.68,-218 349.68,-218 349.68,-212 355.68,-206 361.68,-206 361.68,-206 459.43,-206 459.43,-206 465.43,-206 471.43,-212 471.43,-218 471.43,-218 471.43,-230 471.43,-230 471.43,-236 465.43,-242 459.43,-242"/>
<text xml:space="preserve" text-anchor="middle" x="410.56" y="-218.75" font-family="Arial" font-size="15.00">save_file_dialog</text>
</g>
<!-- /lib/widgets/explorer/file_explorer.dart -->
<g id="node13" class="node">
<title>/lib/widgets/explorer/file_explorer.dart</title>
<path fill="Lavender" stroke="black" stroke-width="1.3" d="M320.06,-242C320.06,-242 247.06,-242 247.06,-242 241.06,-242 235.06,-236 235.06,-230 235.06,-230 235.06,-218 235.06,-218 235.06,-212 241.06,-206 247.06,-206 247.06,-206 320.06,-206 320.06,-206 326.06,-206 332.06,-212 332.06,-218 332.06,-218 332.06,-230 332.06,-230 332.06,-236 326.06,-242 320.06,-242"/>
<text xml:space="preserve" text-anchor="middle" x="283.56" y="-218.75" font-family="Arial" font-size="15.00">file_explorer</text>
</g>
<!-- /lib/widgets/explorer/file_explorer.dart&#45;&gt;/lib/models/file_system_item.dart -->
<g id="edge17" class="edge">
<title>/lib/widgets/explorer/file_explorer.dart&#45;&gt;/lib/models/file_system_item.dart</title>
<path fill="none" stroke="#aabbaa" stroke-width="1.3" stroke-opacity="0.533333" d="M256.48,-205.41C248.76,-199 241.19,-191.06 236.56,-182 220.15,-149.9 219.42,-107.59 221.26,-79.86"/>
<polygon fill="#aabbaa" fill-opacity="0.533333" stroke="#aabbaa" stroke-width="1.3" stroke-opacity="0.533333" points="224.72,-80.45 222.08,-70.19 217.75,-79.86 224.72,-80.45"/>
</g>
<!-- /lib/widgets/explorer/file_explorer.dart&#45;&gt;/lib/services/file_system_service.dart -->
<g id="edge16" class="edge">
<title>/lib/widgets/explorer/file_explorer.dart&#45;&gt;/lib/services/file_system_service.dart</title>
<path fill="none" stroke="#aabbaa" stroke-width="1.3" stroke-opacity="0.533333" d="M291.06,-205.42C296.32,-193.1 303.46,-176.39 309.51,-162.23"/>
<polygon fill="#aabbaa" fill-opacity="0.533333" stroke="#aabbaa" stroke-width="1.3" stroke-opacity="0.533333" points="312.58,-163.93 313.29,-153.36 306.15,-161.18 312.58,-163.93"/>
</g>
<!-- /tool/sort_source.dart -->
<g id="node15" class="node">
<title>/tool/sort_source.dart</title>
<path fill="Lavender" stroke="black" stroke-width="1.3" d="M651.93,-553C651.93,-553 581.18,-553 581.18,-553 575.18,-553 569.18,-547 569.18,-541 569.18,-541 569.18,-529 569.18,-529 569.18,-523 575.18,-517 581.18,-517 581.18,-517 651.93,-517 651.93,-517 657.93,-517 663.93,-523 663.93,-529 663.93,-529 663.93,-541 663.93,-541 663.93,-547 657.93,-553 651.93,-553"/>
<text xml:space="preserve" text-anchor="middle" x="616.56" y="-529.75" font-family="Arial" font-size="15.00">sort_source</text>
</g>
</g>
</svg>
