<?xml version="1.0" encoding="UTF-8" standalone="no"?>
<!DOCTYPE svg PUBLIC "-//W3C//DTD SVG 1.1//EN"
 "http://www.w3.org/Graphics/SVG/1.1/DTD/svg11.dtd">
<!-- Generated by graphviz version 13.1.2 (20250808.2320)
 -->
<!-- Pages: 1 -->
<svg width="2317pt" height="747pt"
 viewBox="0.00 0.00 2317.00 747.00" xmlns="http://www.w3.org/2000/svg" xmlns:xlink="http://www.w3.org/1999/xlink">
<g id="graph0" class="graph" transform="scale(1 1) rotate(0) translate(4 743)">
<polygon fill="white" stroke="none" points="-4,4 -4,-743 2313,-743 2313,4 -4,4"/>
<g id="clust1" class="cluster">
<title>cluster~</title>
<path fill="none" stroke="lightgray" stroke-width="2.6" d="M20,-8C20,-8 2289,-8 2289,-8 2295,-8 2301,-14 2301,-20 2301,-20 2301,-719 2301,-719 2301,-725 2295,-731 2289,-731 2289,-731 20,-731 20,-731 14,-731 8,-725 8,-719 8,-719 8,-20 8,-20 8,-14 14,-8 20,-8"/>
<text xml:space="preserve" text-anchor="middle" x="1154.5" y="-714.65" font-family="Arial Black" font-size="13.00">fide</text>
</g>
<g id="clust2" class="cluster">
<title>cluster~/test</title>
<path fill="none" stroke="lightgray" stroke-width="2.6" d="M1895,-625C1895,-625 1979,-625 1979,-625 1985,-625 1991,-631 1991,-637 1991,-637 1991,-688 1991,-688 1991,-694 1985,-700 1979,-700 1979,-700 1895,-700 1895,-700 1889,-700 1883,-694 1883,-688 1883,-688 1883,-637 1883,-637 1883,-631 1889,-625 1895,-625"/>
<text xml:space="preserve" text-anchor="middle" x="1937" y="-683.65" font-family="Arial Black" font-size="13.00">test</text>
</g>
<g id="clust3" class="cluster">
<title>cluster~/lib</title>
<path fill="none" stroke="lightgray" stroke-width="2.6" d="M28,-16C28,-16 2281,-16 2281,-16 2287,-16 2293,-22 2293,-28 2293,-28 2293,-605 2293,-605 2293,-611 2287,-617 2281,-617 2281,-617 28,-617 28,-617 22,-617 16,-611 16,-605 16,-605 16,-28 16,-28 16,-22 22,-16 28,-16"/>
<text xml:space="preserve" text-anchor="middle" x="1154.5" y="-600.65" font-family="Arial Black" font-size="13.00">lib</text>
</g>
<g id="clust4" class="cluster">
<title>cluster~/lib/providers</title>
<path fill="none" stroke="lightgray" stroke-width="2.6" d="M2049,-187C2049,-187 2151,-187 2151,-187 2157,-187 2163,-193 2163,-199 2163,-199 2163,-250 2163,-250 2163,-256 2157,-262 2151,-262 2151,-262 2049,-262 2049,-262 2043,-262 2037,-256 2037,-250 2037,-250 2037,-199 2037,-199 2037,-193 2043,-187 2049,-187"/>
<text xml:space="preserve" text-anchor="middle" x="2100" y="-245.65" font-family="Arial Black" font-size="13.00">providers</text>
</g>
<g id="clust5" class="cluster">
<title>cluster~/lib/panels</title>
<path fill="none" stroke="lightgray" stroke-width="2.6" d="M822,-179C822,-179 1729,-179 1729,-179 1735,-179 1741,-185 1741,-191 1741,-191 1741,-530 1741,-530 1741,-536 1735,-542 1729,-542 1729,-542 822,-542 822,-542 816,-542 810,-536 810,-530 810,-530 810,-191 810,-191 810,-185 816,-179 822,-179"/>
<text xml:space="preserve" text-anchor="middle" x="1275.5" y="-525.65" font-family="Arial Black" font-size="13.00">panels</text>
</g>
<g id="clust6" class="cluster">
<title>cluster~/lib/panels/right</title>
<path fill="none" stroke="lightgray" stroke-width="2.6" d="M830,-353C830,-353 1016,-353 1016,-353 1022,-353 1028,-359 1028,-365 1028,-365 1028,-499 1028,-499 1028,-505 1022,-511 1016,-511 1016,-511 830,-511 830,-511 824,-511 818,-505 818,-499 818,-499 818,-365 818,-365 818,-359 824,-353 830,-353"/>
<text xml:space="preserve" text-anchor="middle" x="923" y="-494.65" font-family="Arial Black" font-size="13.00">right</text>
</g>
<g id="clust7" class="cluster">
<title>cluster~/lib/panels/center</title>
<path fill="none" stroke="lightgray" stroke-width="2.6" d="M1491,-270C1491,-270 1721,-270 1721,-270 1727,-270 1733,-276 1733,-282 1733,-282 1733,-416 1733,-416 1733,-422 1727,-428 1721,-428 1721,-428 1491,-428 1491,-428 1485,-428 1479,-422 1479,-416 1479,-416 1479,-282 1479,-282 1479,-276 1485,-270 1491,-270"/>
<text xml:space="preserve" text-anchor="middle" x="1606" y="-411.65" font-family="Arial Black" font-size="13.00">center</text>
</g>
<g id="clust8" class="cluster">
<title>cluster~/lib/panels/left</title>
<path fill="none" stroke="lightgray" stroke-width="2.6" d="M1048,-187C1048,-187 1459,-187 1459,-187 1465,-187 1471,-193 1471,-199 1471,-199 1471,-499 1471,-499 1471,-505 1465,-511 1459,-511 1459,-511 1048,-511 1048,-511 1042,-511 1036,-505 1036,-499 1036,-499 1036,-199 1036,-199 1036,-193 1042,-187 1048,-187"/>
<text xml:space="preserve" text-anchor="middle" x="1253.5" y="-494.65" font-family="Arial Black" font-size="13.00">left</text>
</g>
<g id="clust9" class="cluster">
<title>cluster~/lib/utils</title>
<path fill="none" stroke="lightgray" stroke-width="2.6" d="M1761,-187C1761,-187 2003,-187 2003,-187 2009,-187 2015,-193 2015,-199 2015,-199 2015,-250 2015,-250 2015,-256 2009,-262 2003,-262 2003,-262 1761,-262 1761,-262 1755,-262 1749,-256 1749,-250 1749,-250 1749,-199 1749,-199 1749,-193 1755,-187 1761,-187"/>
<text xml:space="preserve" text-anchor="middle" x="1882" y="-245.65" font-family="Arial Black" font-size="13.00">utils</text>
</g>
<g id="clust10" class="cluster">
<title>cluster~/lib/models</title>
<path fill="none" stroke="lightgray" stroke-width="2.6" d="M1164,-24C1164,-24 1400,-24 1400,-24 1406,-24 1412,-30 1412,-36 1412,-36 1412,-159 1412,-159 1412,-165 1406,-171 1400,-171 1400,-171 1164,-171 1164,-171 1158,-171 1152,-165 1152,-159 1152,-159 1152,-36 1152,-36 1152,-30 1158,-24 1164,-24"/>
<text xml:space="preserve" text-anchor="middle" x="1282" y="-154.65" font-family="Arial Black" font-size="13.00">models</text>
</g>
<g id="clust11" class="cluster">
<title>cluster~/lib/screens</title>
<path fill="none" stroke="lightgray" stroke-width="2.6" d="M1877,-436C1877,-436 2111,-436 2111,-436 2117,-436 2123,-442 2123,-448 2123,-448 2123,-499 2123,-499 2123,-505 2117,-511 2111,-511 2111,-511 1877,-511 1877,-511 1871,-511 1865,-505 1865,-499 1865,-499 1865,-448 1865,-448 1865,-442 1871,-436 1877,-436"/>
<text xml:space="preserve" text-anchor="middle" x="1994" y="-494.65" font-family="Arial Black" font-size="13.00">screens</text>
</g>
<g id="clust12" class="cluster">
<title>cluster~/lib/theme</title>
<path fill="none" stroke="lightgray" stroke-width="2.6" d="M1761,-436C1761,-436 1845,-436 1845,-436 1851,-436 1857,-442 1857,-448 1857,-448 1857,-499 1857,-499 1857,-505 1851,-511 1845,-511 1845,-511 1761,-511 1761,-511 1755,-511 1749,-505 1749,-499 1749,-499 1749,-448 1749,-448 1749,-442 1755,-436 1761,-436"/>
<text xml:space="preserve" text-anchor="middle" x="1803" y="-494.65" font-family="Arial Black" font-size="13.00">theme</text>
</g>
<g id="clust13" class="cluster">
<title>cluster~/lib/services</title>
<path fill="none" stroke="lightgray" stroke-width="2.6" d="M148,-187C148,-187 790,-187 790,-187 796,-187 802,-193 802,-199 802,-199 802,-250 802,-250 802,-256 796,-262 790,-262 790,-262 148,-262 148,-262 142,-262 136,-256 136,-250 136,-250 136,-199 136,-199 136,-193 142,-187 148,-187"/>
<text xml:space="preserve" text-anchor="middle" x="469" y="-245.65" font-family="Arial Black" font-size="13.00">services</text>
</g>
<g id="clust14" class="cluster">
<title>cluster~/lib/widgets</title>
<path fill="none" stroke="lightgray" stroke-width="2.6" d="M1827,-270C1827,-270 2181,-270 2181,-270 2187,-270 2193,-276 2193,-282 2193,-282 2193,-333 2193,-333 2193,-339 2187,-345 2181,-345 2181,-345 1827,-345 1827,-345 1821,-345 1815,-339 1815,-333 1815,-333 1815,-282 1815,-282 1815,-276 1821,-270 1827,-270"/>
<text xml:space="preserve" text-anchor="middle" x="2004" y="-328.65" font-family="Arial Black" font-size="13.00">widgets</text>
</g>
<g id="clust15" class="cluster">
<title>cluster~/tool</title>
<path fill="none" stroke="lightgray" stroke-width="2.6" d="M2103,-625C2103,-625 2189,-625 2189,-625 2195,-625 2201,-631 2201,-637 2201,-637 2201,-688 2201,-688 2201,-694 2195,-700 2189,-700 2189,-700 2103,-700 2103,-700 2097,-700 2091,-694 2091,-688 2091,-688 2091,-637 2091,-637 2091,-631 2097,-625 2103,-625"/>
<text xml:space="preserve" text-anchor="middle" x="2146" y="-683.65" font-family="Arial Black" font-size="13.00">tool</text>
</g>
<!-- /test/widget_test.dart -->
<g id="node1" class="node">
<title>/test/widget_test.dart</title>
<path fill="Lavender" stroke="black" stroke-width="1.3" d="M1970.88,-669C1970.88,-669 1903.12,-669 1903.12,-669 1897.12,-669 1891.12,-663 1891.12,-657 1891.12,-657 1891.12,-645 1891.12,-645 1891.12,-639 1897.12,-633 1903.12,-633 1903.12,-633 1970.88,-633 1970.88,-633 1976.88,-633 1982.88,-639 1982.88,-645 1982.88,-645 1982.88,-657 1982.88,-657 1982.88,-663 1976.88,-669 1970.88,-669"/>
<text xml:space="preserve" text-anchor="middle" x="1937" y="-645.75" font-family="Arial" font-size="15.00">widget_test</text>
</g>
<!-- /lib/main.dart -->
<g id="node24" class="node">
<title>/lib/main.dart</title>
<path fill="Lavender" stroke="black" stroke-width="1.3" d="M1952,-586C1952,-586 1922,-586 1922,-586 1916,-586 1910,-580 1910,-574 1910,-574 1910,-562 1910,-562 1910,-556 1916,-550 1922,-550 1922,-550 1952,-550 1952,-550 1958,-550 1964,-556 1964,-562 1964,-562 1964,-574 1964,-574 1964,-580 1958,-586 1952,-586"/>
<text xml:space="preserve" text-anchor="middle" x="1937" y="-562.75" font-family="Arial" font-size="15.00">main</text>
</g>
<!-- /test/widget_test.dart&#45;&gt;/lib/main.dart -->
<g id="edge1" class="edge">
<title>/test/widget_test.dart&#45;&gt;/lib/main.dart</title>
<path fill="none" stroke="#aabbaa" stroke-width="1.3" stroke-opacity="0.533333" d="M1937,-632.42C1937,-622.45 1937,-609.7 1937,-598.26"/>
<polygon fill="#aabbaa" fill-opacity="0.533333" stroke="#aabbaa" stroke-width="1.3" stroke-opacity="0.533333" points="1940.5,-598.51 1937,-588.51 1933.5,-598.51 1940.5,-598.51"/>
</g>
<!-- /lib/providers/app_providers.dart -->
<g id="node2" class="node">
<title>/lib/providers/app_providers.dart</title>
<path fill="Lavender" stroke="black" stroke-width="1.3" d="M2143.25,-231C2143.25,-231 2056.75,-231 2056.75,-231 2050.75,-231 2044.75,-225 2044.75,-219 2044.75,-219 2044.75,-207 2044.75,-207 2044.75,-201 2050.75,-195 2056.75,-195 2056.75,-195 2143.25,-195 2143.25,-195 2149.25,-195 2155.25,-201 2155.25,-207 2155.25,-207 2155.25,-219 2155.25,-219 2155.25,-225 2149.25,-231 2143.25,-231"/>
<text xml:space="preserve" text-anchor="middle" x="2100" y="-207.75" font-family="Arial" font-size="15.00">app_providers</text>
</g>
<!-- /lib/utils/file_type_utils.dart -->
<g id="node18" class="node">
<title>/lib/utils/file_type_utils.dart</title>
<path fill="Lavender" stroke="black" stroke-width="1.3" d="M1995,-231C1995,-231 1913,-231 1913,-231 1907,-231 1901,-225 1901,-219 1901,-219 1901,-207 1901,-207 1901,-201 1907,-195 1913,-195 1913,-195 1995,-195 1995,-195 2001,-195 2007,-201 2007,-207 2007,-207 2007,-219 2007,-219 2007,-225 2001,-231 1995,-231"/>
<text xml:space="preserve" text-anchor="middle" x="1954" y="-207.75" font-family="Arial" font-size="15.00">file_type_utils</text>
</g>
<!-- /lib/providers/app_providers.dart&#45;&gt;/lib/utils/file_type_utils.dart -->
<g id="edge5" class="edge">
<title>/lib/providers/app_providers.dart&#45;&gt;/lib/utils/file_type_utils.dart</title>
<path fill="none" stroke="#aabbaa" stroke-width="1.3" stroke-opacity="0.533333" d="M2044.42,-213C2036.08,-213 2027.74,-213 2019.4,-213"/>
<polygon fill="#aabbaa" fill-opacity="0.533333" stroke="#aabbaa" stroke-width="1.3" stroke-opacity="0.533333" points="2019.58,-209.5 2009.58,-213 2019.58,-216.5 2019.58,-209.5"/>
</g>
<!-- /lib/models/project_node.dart -->
<g id="node19" class="node">
<title>/lib/models/project_node.dart</title>
<path fill="Lavender" stroke="black" stroke-width="1.3" d="M1250.12,-140C1250.12,-140 1171.88,-140 1171.88,-140 1165.88,-140 1159.88,-134 1159.88,-128 1159.88,-128 1159.88,-116 1159.88,-116 1159.88,-110 1165.88,-104 1171.88,-104 1171.88,-104 1250.12,-104 1250.12,-104 1256.12,-104 1262.12,-110 1262.12,-116 1262.12,-116 1262.12,-128 1262.12,-128 1262.12,-134 1256.12,-140 1250.12,-140"/>
<text xml:space="preserve" text-anchor="middle" x="1211" y="-116.75" font-family="Arial" font-size="15.00">project_node</text>
</g>
<!-- /lib/providers/app_providers.dart&#45;&gt;/lib/models/project_node.dart -->
<g id="edge3" class="edge">
<title>/lib/providers/app_providers.dart&#45;&gt;/lib/models/project_node.dart</title>
<path fill="none" stroke="#aabbaa" stroke-width="1.3" stroke-opacity="0.533333" d="M2070.48,-194.39C2058.63,-188.27 2044.58,-182.16 2031,-179 1989.87,-169.44 1310.77,-185.19 1271,-171 1257.72,-166.26 1245.19,-157.26 1235.04,-148.32"/>
<polygon fill="#aabbaa" fill-opacity="0.533333" stroke="#aabbaa" stroke-width="1.3" stroke-opacity="0.533333" points="1237.56,-145.89 1227.87,-141.6 1232.77,-150.99 1237.56,-145.89"/>
</g>
<!-- /lib/models/document_state.dart -->
<g id="node20" class="node">
<title>/lib/models/document_state.dart</title>
<path fill="Lavender" stroke="black" stroke-width="1.3" d="M1391.62,-140C1391.62,-140 1292.38,-140 1292.38,-140 1286.38,-140 1280.38,-134 1280.38,-128 1280.38,-128 1280.38,-116 1280.38,-116 1280.38,-110 1286.38,-104 1292.38,-104 1292.38,-104 1391.62,-104 1391.62,-104 1397.62,-104 1403.62,-110 1403.62,-116 1403.62,-116 1403.62,-128 1403.62,-128 1403.62,-134 1397.62,-140 1391.62,-140"/>
<text xml:space="preserve" text-anchor="middle" x="1342" y="-116.75" font-family="Arial" font-size="15.00">document_state</text>
</g>
<!-- /lib/providers/app_providers.dart&#45;&gt;/lib/models/document_state.dart -->
<g id="edge4" class="edge">
<title>/lib/providers/app_providers.dart&#45;&gt;/lib/models/document_state.dart</title>
<path fill="none" stroke="#aabbaa" stroke-width="1.3" stroke-opacity="0.533333" d="M2070.11,-194.35C2058.33,-188.31 2044.42,-182.25 2031,-179 1971.8,-164.66 1817.76,-175.39 1757,-171 1637.2,-162.34 1498.73,-144.8 1415.88,-133.49"/>
<polygon fill="#aabbaa" fill-opacity="0.533333" stroke="#aabbaa" stroke-width="1.3" stroke-opacity="0.533333" points="1416.4,-130.03 1406.02,-132.13 1415.45,-136.96 1416.4,-130.03"/>
</g>
<!-- /lib/models/file_system_item.dart -->
<g id="node21" class="node">
<title>/lib/models/file_system_item.dart</title>
<path fill="Lavender" stroke="black" stroke-width="1.3" d="M1275.88,-68C1275.88,-68 1172.12,-68 1172.12,-68 1166.12,-68 1160.12,-62 1160.12,-56 1160.12,-56 1160.12,-44 1160.12,-44 1160.12,-38 1166.12,-32 1172.12,-32 1172.12,-32 1275.88,-32 1275.88,-32 1281.88,-32 1287.88,-38 1287.88,-44 1287.88,-44 1287.88,-56 1287.88,-56 1287.88,-62 1281.88,-68 1275.88,-68"/>
<text xml:space="preserve" text-anchor="middle" x="1224" y="-44.75" font-family="Arial" font-size="15.00">file_system_item</text>
</g>
<!-- /lib/providers/app_providers.dart&#45;&gt;/lib/models/file_system_item.dart -->
<g id="edge2" class="edge">
<title>/lib/providers/app_providers.dart&#45;&gt;/lib/models/file_system_item.dart</title>
<path fill="none" stroke="#aabbaa" stroke-width="1.3" stroke-opacity="0.533333" d="M2068.14,-194.4C2056.72,-188.73 2043.55,-182.91 2031,-179 1770.31,-97.87 1445.47,-66.38 1300.28,-55.75"/>
<polygon fill="#aabbaa" fill-opacity="0.533333" stroke="#aabbaa" stroke-width="1.3" stroke-opacity="0.533333" points="1300.65,-52.27 1290.43,-55.04 1300.15,-59.25 1300.65,-52.27"/>
</g>
<!-- /lib/panels/right/outline_panel.dart -->
<g id="node3" class="node">
<title>/lib/panels/right/outline_panel.dart</title>
<path fill="Lavender" stroke="black" stroke-width="1.3" d="M1007.88,-397C1007.88,-397 928.12,-397 928.12,-397 922.12,-397 916.12,-391 916.12,-385 916.12,-385 916.12,-373 916.12,-373 916.12,-367 922.12,-361 928.12,-361 928.12,-361 1007.88,-361 1007.88,-361 1013.88,-361 1019.88,-367 1019.88,-373 1019.88,-373 1019.88,-385 1019.88,-385 1019.88,-391 1013.88,-397 1007.88,-397"/>
<text xml:space="preserve" text-anchor="middle" x="968" y="-373.75" font-family="Arial" font-size="15.00">outline_panel</text>
</g>
<!-- /lib/panels/center/editor_screen.dart -->
<g id="node6" class="node">
<title>/lib/panels/center/editor_screen.dart</title>
<path fill="Lavender" stroke="black" stroke-width="1.3" d="M1581.38,-314C1581.38,-314 1498.62,-314 1498.62,-314 1492.62,-314 1486.62,-308 1486.62,-302 1486.62,-302 1486.62,-290 1486.62,-290 1486.62,-284 1492.62,-278 1498.62,-278 1498.62,-278 1581.38,-278 1581.38,-278 1587.38,-278 1593.38,-284 1593.38,-290 1593.38,-290 1593.38,-302 1593.38,-302 1593.38,-308 1587.38,-314 1581.38,-314"/>
<text xml:space="preserve" text-anchor="middle" x="1540" y="-290.75" font-family="Arial" font-size="15.00">editor_screen</text>
</g>
<!-- /lib/panels/right/outline_panel.dart&#45;&gt;/lib/panels/center/editor_screen.dart -->
<g id="edge7" class="edge">
<title>/lib/panels/right/outline_panel.dart&#45;&gt;/lib/panels/center/editor_screen.dart</title>
<path fill="none" stroke="#aabbaa" stroke-width="1.3" stroke-opacity="0.533333" d="M1006.6,-360.4C1014.83,-357.37 1023.57,-354.67 1032,-353 1080.3,-343.45 1428.38,-360.82 1475,-345 1489.08,-340.22 1502.64,-331.18 1513.69,-322.22"/>
<polygon fill="#aabbaa" fill-opacity="0.533333" stroke="#aabbaa" stroke-width="1.3" stroke-opacity="0.533333" points="1515.92,-324.92 1521.23,-315.75 1511.36,-319.61 1515.92,-324.92"/>
</g>
<!-- /lib/panels/right/outline_panel.dart&#45;&gt;/lib/models/file_system_item.dart -->
<g id="edge6" class="edge">
<title>/lib/panels/right/outline_panel.dart&#45;&gt;/lib/models/file_system_item.dart</title>
<path fill="none" stroke="#aabbaa" stroke-width="1.3" stroke-opacity="0.533333" d="M931.27,-360.37C923.43,-357.35 915.07,-354.65 907,-353 842.65,-339.87 380.27,-358.5 316,-345 223.42,-325.55 172.25,-340.86 120,-262 100.61,-232.73 95.78,-129.42 120,-104 155.44,-66.82 904.03,-54.76 1147.92,-51.81"/>
<polygon fill="#aabbaa" fill-opacity="0.533333" stroke="#aabbaa" stroke-width="1.3" stroke-opacity="0.533333" points="1147.91,-55.31 1157.87,-51.69 1147.83,-48.31 1147.91,-55.31"/>
</g>
<!-- /lib/panels/right/ai_panel.dart -->
<g id="node4" class="node">
<title>/lib/panels/right/ai_panel.dart</title>
<path fill="Lavender" stroke="black" stroke-width="1.3" d="M885.75,-397C885.75,-397 838.25,-397 838.25,-397 832.25,-397 826.25,-391 826.25,-385 826.25,-385 826.25,-373 826.25,-373 826.25,-367 832.25,-361 838.25,-361 838.25,-361 885.75,-361 885.75,-361 891.75,-361 897.75,-367 897.75,-373 897.75,-373 897.75,-385 897.75,-385 897.75,-391 891.75,-397 885.75,-397"/>
<text xml:space="preserve" text-anchor="middle" x="862" y="-373.75" font-family="Arial" font-size="15.00">ai_panel</text>
</g>
<!-- /lib/panels/right/ai_panel.dart&#45;&gt;/lib/models/file_system_item.dart -->
<g id="edge9" class="edge">
<title>/lib/panels/right/ai_panel.dart&#45;&gt;/lib/models/file_system_item.dart</title>
<path fill="none" stroke="#aabbaa" stroke-width="1.3" stroke-opacity="0.533333" d="M825.61,-378.32C744.17,-378.43 541.32,-375.33 375,-345 249.4,-322.09 176.12,-364.49 100,-262 79.06,-233.81 75.76,-129.41 100,-104 136.15,-66.1 900.75,-54.5 1147.77,-51.74"/>
<polygon fill="#aabbaa" fill-opacity="0.533333" stroke="#aabbaa" stroke-width="1.3" stroke-opacity="0.533333" points="1147.56,-55.24 1157.52,-51.63 1147.48,-48.24 1147.56,-55.24"/>
</g>
<!-- /lib/services/ai_service.dart -->
<g id="node28" class="node">
<title>/lib/services/ai_service.dart</title>
<path fill="Lavender" stroke="black" stroke-width="1.3" d="M379.38,-231C379.38,-231 320.62,-231 320.62,-231 314.62,-231 308.62,-225 308.62,-219 308.62,-219 308.62,-207 308.62,-207 308.62,-201 314.62,-195 320.62,-195 320.62,-195 379.38,-195 379.38,-195 385.38,-195 391.38,-201 391.38,-207 391.38,-207 391.38,-219 391.38,-219 391.38,-225 385.38,-231 379.38,-231"/>
<text xml:space="preserve" text-anchor="middle" x="350" y="-207.75" font-family="Arial" font-size="15.00">ai_service</text>
</g>
<!-- /lib/panels/right/ai_panel.dart&#45;&gt;/lib/services/ai_service.dart -->
<g id="edge8" class="edge">
<title>/lib/panels/right/ai_panel.dart&#45;&gt;/lib/services/ai_service.dart</title>
<path fill="none" stroke="#aabbaa" stroke-width="1.3" stroke-opacity="0.533333" d="M825.9,-376.82C731.19,-373.47 480.67,-363.02 448,-345 406.36,-322.03 377.26,-273.07 362.12,-241.94"/>
<polygon fill="#aabbaa" fill-opacity="0.533333" stroke="#aabbaa" stroke-width="1.3" stroke-opacity="0.533333" points="365.41,-240.72 358.01,-233.14 359.07,-243.68 365.41,-240.72"/>
</g>
<!-- /lib/panels/right/right_panel.dart -->
<g id="node5" class="node">
<title>/lib/panels/right/right_panel.dart</title>
<path fill="Lavender" stroke="black" stroke-width="1.3" d="M951.75,-480C951.75,-480 886.25,-480 886.25,-480 880.25,-480 874.25,-474 874.25,-468 874.25,-468 874.25,-456 874.25,-456 874.25,-450 880.25,-444 886.25,-444 886.25,-444 951.75,-444 951.75,-444 957.75,-444 963.75,-450 963.75,-456 963.75,-456 963.75,-468 963.75,-468 963.75,-474 957.75,-480 951.75,-480"/>
<text xml:space="preserve" text-anchor="middle" x="919" y="-456.75" font-family="Arial" font-size="15.00">right_panel</text>
</g>
<!-- /lib/panels/right/right_panel.dart&#45;&gt;/lib/panels/right/outline_panel.dart -->
<g id="edge10" class="edge">
<title>/lib/panels/right/right_panel.dart&#45;&gt;/lib/panels/right/outline_panel.dart</title>
<path fill="none" stroke="#aabbaa" stroke-width="1.3" stroke-opacity="0.533333" d="M929.63,-443.42C935.99,-432.92 944.2,-419.34 951.4,-407.44"/>
<polygon fill="#aabbaa" fill-opacity="0.533333" stroke="#aabbaa" stroke-width="1.3" stroke-opacity="0.533333" points="954.19,-409.59 956.37,-399.23 948.2,-405.97 954.19,-409.59"/>
</g>
<!-- /lib/panels/right/right_panel.dart&#45;&gt;/lib/panels/right/ai_panel.dart -->
<g id="edge11" class="edge">
<title>/lib/panels/right/right_panel.dart&#45;&gt;/lib/panels/right/ai_panel.dart</title>
<path fill="none" stroke="#aabbaa" stroke-width="1.3" stroke-opacity="0.533333" d="M906.63,-443.42C899.16,-432.81 889.49,-419.06 881.06,-407.08"/>
<polygon fill="#aabbaa" fill-opacity="0.533333" stroke="#aabbaa" stroke-width="1.3" stroke-opacity="0.533333" points="884.09,-405.31 875.48,-399.15 878.37,-409.34 884.09,-405.31"/>
</g>
<!-- /lib/panels/right/right_panel.dart&#45;&gt;/lib/models/file_system_item.dart -->
<g id="edge12" class="edge">
<title>/lib/panels/right/right_panel.dart&#45;&gt;/lib/models/file_system_item.dart</title>
<path fill="none" stroke="#aabbaa" stroke-width="1.3" stroke-opacity="0.533333" d="M873.79,-460.79C700.35,-459.81 85.69,-454.45 54,-428 8.22,-389.79 25,-356.63 25,-297 25,-297 25,-297 25,-212 25,-163.79 0.11,-137.26 35,-104 75.32,-65.56 891.82,-54.27 1147.88,-51.67"/>
<polygon fill="#aabbaa" fill-opacity="0.533333" stroke="#aabbaa" stroke-width="1.3" stroke-opacity="0.533333" points="1147.72,-55.17 1157.68,-51.57 1147.65,-48.17 1147.72,-55.17"/>
</g>
<!-- /lib/panels/center/editor_screen.dart&#45;&gt;/lib/providers/app_providers.dart -->
<g id="edge13" class="edge">
<title>/lib/panels/center/editor_screen.dart&#45;&gt;/lib/providers/app_providers.dart</title>
<path fill="none" stroke="#aabbaa" stroke-width="1.3" stroke-opacity="0.533333" d="M1577.36,-277.41C1585.33,-274.38 1593.81,-271.67 1602,-270 1647.41,-260.74 1974.43,-274.68 2019,-262 2036.33,-257.07 2053.76,-247.49 2067.98,-238.17"/>
<polygon fill="#aabbaa" fill-opacity="0.533333" stroke="#aabbaa" stroke-width="1.3" stroke-opacity="0.533333" points="2069.83,-241.15 2076.1,-232.61 2065.87,-235.37 2069.83,-241.15"/>
</g>
<!-- /lib/utils/message_helper.dart -->
<g id="node17" class="node">
<title>/lib/utils/message_helper.dart</title>
<path fill="Lavender" stroke="black" stroke-width="1.3" d="M1871.12,-231C1871.12,-231 1768.88,-231 1768.88,-231 1762.88,-231 1756.88,-225 1756.88,-219 1756.88,-219 1756.88,-207 1756.88,-207 1756.88,-201 1762.88,-195 1768.88,-195 1768.88,-195 1871.12,-195 1871.12,-195 1877.12,-195 1883.12,-201 1883.12,-207 1883.12,-207 1883.12,-219 1883.12,-219 1883.12,-225 1877.12,-231 1871.12,-231"/>
<text xml:space="preserve" text-anchor="middle" x="1820" y="-207.75" font-family="Arial" font-size="15.00">message_helper</text>
</g>
<!-- /lib/panels/center/editor_screen.dart&#45;&gt;/lib/utils/message_helper.dart -->
<g id="edge14" class="edge">
<title>/lib/panels/center/editor_screen.dart&#45;&gt;/lib/utils/message_helper.dart</title>
<path fill="none" stroke="#aabbaa" stroke-width="1.3" stroke-opacity="0.533333" d="M1581.41,-277.43C1588.23,-274.79 1595.27,-272.21 1602,-270 1648.83,-254.62 1702.44,-240.8 1744.77,-230.74"/>
<polygon fill="#aabbaa" fill-opacity="0.533333" stroke="#aabbaa" stroke-width="1.3" stroke-opacity="0.533333" points="1745.55,-234.15 1754.49,-228.45 1743.95,-227.33 1745.55,-234.15"/>
</g>
<!-- /lib/panels/center/editor_screen.dart&#45;&gt;/lib/utils/file_type_utils.dart -->
<g id="edge15" class="edge">
<title>/lib/panels/center/editor_screen.dart&#45;&gt;/lib/utils/file_type_utils.dart</title>
<path fill="none" stroke="#aabbaa" stroke-width="1.3" stroke-opacity="0.533333" d="M1577.37,-277.46C1585.34,-274.43 1593.82,-271.7 1602,-270 1633.56,-263.42 1861.65,-272.85 1892,-262 1905.35,-257.23 1918.09,-248.4 1928.52,-239.6"/>
<polygon fill="#aabbaa" fill-opacity="0.533333" stroke="#aabbaa" stroke-width="1.3" stroke-opacity="0.533333" points="1930.82,-242.24 1935.93,-232.96 1926.15,-237.03 1930.82,-242.24"/>
</g>
<!-- /lib/panels/center/editor_screen.dart&#45;&gt;/lib/models/document_state.dart -->
<g id="edge16" class="edge">
<title>/lib/panels/center/editor_screen.dart&#45;&gt;/lib/models/document_state.dart</title>
<path fill="none" stroke="#aabbaa" stroke-width="1.3" stroke-opacity="0.533333" d="M1500.77,-277.4C1492.42,-274.37 1483.54,-271.67 1475,-270 1462.92,-267.64 1040.62,-270.78 1032,-262 1019.08,-248.84 1019.18,-192.26 1032,-179 1041.24,-169.45 1258.36,-175.1 1271,-171 1286.19,-166.07 1301.12,-156.84 1313.34,-147.78"/>
<polygon fill="#aabbaa" fill-opacity="0.533333" stroke="#aabbaa" stroke-width="1.3" stroke-opacity="0.533333" points="1315.22,-150.75 1320.96,-141.84 1310.92,-145.23 1315.22,-150.75"/>
</g>
<!-- /lib/panels/center/terminal_panel.dart -->
<g id="node7" class="node">
<title>/lib/panels/center/terminal_panel.dart</title>
<path fill="Lavender" stroke="black" stroke-width="1.3" d="M1712.75,-314C1712.75,-314 1623.25,-314 1623.25,-314 1617.25,-314 1611.25,-308 1611.25,-302 1611.25,-302 1611.25,-290 1611.25,-290 1611.25,-284 1617.25,-278 1623.25,-278 1623.25,-278 1712.75,-278 1712.75,-278 1718.75,-278 1724.75,-284 1724.75,-290 1724.75,-290 1724.75,-302 1724.75,-302 1724.75,-308 1718.75,-314 1712.75,-314"/>
<text xml:space="preserve" text-anchor="middle" x="1668" y="-290.75" font-family="Arial" font-size="15.00">terminal_panel</text>
</g>
<!-- /lib/panels/center/terminal_panel.dart&#45;&gt;/lib/providers/app_providers.dart -->
<g id="edge17" class="edge">
<title>/lib/panels/center/terminal_panel.dart&#45;&gt;/lib/providers/app_providers.dart</title>
<path fill="none" stroke="#aabbaa" stroke-width="1.3" stroke-opacity="0.533333" d="M1725.24,-279.95C1742.41,-276.02 1761.37,-272.26 1779,-270 1831.93,-263.22 1967.78,-276.96 2019,-262 2036.17,-256.99 2053.46,-247.49 2067.64,-238.25"/>
<polygon fill="#aabbaa" fill-opacity="0.533333" stroke="#aabbaa" stroke-width="1.3" stroke-opacity="0.533333" points="2069.43,-241.27 2075.73,-232.75 2065.49,-235.48 2069.43,-241.27"/>
</g>
<!-- /lib/panels/center/center_panel.dart -->
<g id="node8" class="node">
<title>/lib/panels/center/center_panel.dart</title>
<path fill="Lavender" stroke="black" stroke-width="1.3" d="M1700.12,-397C1700.12,-397 1621.88,-397 1621.88,-397 1615.88,-397 1609.88,-391 1609.88,-385 1609.88,-385 1609.88,-373 1609.88,-373 1609.88,-367 1615.88,-361 1621.88,-361 1621.88,-361 1700.12,-361 1700.12,-361 1706.12,-361 1712.12,-367 1712.12,-373 1712.12,-373 1712.12,-385 1712.12,-385 1712.12,-391 1706.12,-397 1700.12,-397"/>
<text xml:space="preserve" text-anchor="middle" x="1661" y="-373.75" font-family="Arial" font-size="15.00">center_panel</text>
</g>
<!-- /lib/panels/center/center_panel.dart&#45;&gt;/lib/providers/app_providers.dart -->
<g id="edge18" class="edge">
<title>/lib/panels/center/center_panel.dart&#45;&gt;/lib/providers/app_providers.dart</title>
<path fill="none" stroke="#aabbaa" stroke-width="1.3" stroke-opacity="0.533333" d="M1712.6,-363.75C1725.16,-358.94 1738.11,-352.77 1749,-345 1784.21,-319.89 1772.21,-289.13 1811,-270 1832.94,-259.18 2007.8,-269.74 2031,-262 2045.71,-257.09 2060.09,-247.99 2071.89,-239.02"/>
<polygon fill="#aabbaa" fill-opacity="0.533333" stroke="#aabbaa" stroke-width="1.3" stroke-opacity="0.533333" points="2073.99,-241.82 2079.6,-232.84 2069.61,-236.36 2073.99,-241.82"/>
</g>
<!-- /lib/panels/center/center_panel.dart&#45;&gt;/lib/panels/center/editor_screen.dart -->
<g id="edge20" class="edge">
<title>/lib/panels/center/center_panel.dart&#45;&gt;/lib/panels/center/editor_screen.dart</title>
<path fill="none" stroke="#aabbaa" stroke-width="1.3" stroke-opacity="0.533333" d="M1627.72,-360.52C1619.18,-355.73 1610.12,-350.37 1602,-345 1591.25,-337.89 1579.96,-329.46 1570.01,-321.68"/>
<polygon fill="#aabbaa" fill-opacity="0.533333" stroke="#aabbaa" stroke-width="1.3" stroke-opacity="0.533333" points="1572.49,-319.18 1562.48,-315.69 1568.13,-324.66 1572.49,-319.18"/>
</g>
<!-- /lib/panels/center/center_panel.dart&#45;&gt;/lib/panels/center/terminal_panel.dart -->
<g id="edge21" class="edge">
<title>/lib/panels/center/center_panel.dart&#45;&gt;/lib/panels/center/terminal_panel.dart</title>
<path fill="none" stroke="#aabbaa" stroke-width="1.3" stroke-opacity="0.533333" d="M1662.52,-360.42C1663.38,-350.45 1664.48,-337.7 1665.47,-326.26"/>
<polygon fill="#aabbaa" fill-opacity="0.533333" stroke="#aabbaa" stroke-width="1.3" stroke-opacity="0.533333" points="1668.94,-326.77 1666.31,-316.5 1661.97,-326.16 1668.94,-326.77"/>
</g>
<!-- /lib/panels/center/center_panel.dart&#45;&gt;/lib/models/file_system_item.dart -->
<g id="edge23" class="edge">
<title>/lib/panels/center/center_panel.dart&#45;&gt;/lib/models/file_system_item.dart</title>
<path fill="none" stroke="#aabbaa" stroke-width="1.3" stroke-opacity="0.533333" d="M1609.45,-369.44C1572.21,-363.66 1520.65,-356.47 1475,-353 1278.64,-338.08 1228.62,-355.91 1032,-345 672.78,-325.07 584.35,-301.92 226,-270 215.56,-269.07 139.09,-269.72 132,-262 119.52,-248.42 121.34,-194.05 132,-179 190,-97.09 246.62,-123.88 345,-104 497.59,-73.17 963.68,-57.85 1147.91,-52.87"/>
<polygon fill="#aabbaa" fill-opacity="0.533333" stroke="#aabbaa" stroke-width="1.3" stroke-opacity="0.533333" points="1147.76,-56.38 1157.67,-52.61 1147.58,-49.38 1147.76,-56.38"/>
</g>
<!-- /lib/screens/welcome_screen.dart -->
<g id="node23" class="node">
<title>/lib/screens/welcome_screen.dart</title>
<path fill="Lavender" stroke="black" stroke-width="1.3" d="M1988.88,-480C1988.88,-480 1885.12,-480 1885.12,-480 1879.12,-480 1873.12,-474 1873.12,-468 1873.12,-468 1873.12,-456 1873.12,-456 1873.12,-450 1879.12,-444 1885.12,-444 1885.12,-444 1988.88,-444 1988.88,-444 1994.88,-444 2000.88,-450 2000.88,-456 2000.88,-456 2000.88,-468 2000.88,-468 2000.88,-474 1994.88,-480 1988.88,-480"/>
<text xml:space="preserve" text-anchor="middle" x="1937" y="-456.75" font-family="Arial" font-size="15.00">welcome_screen</text>
</g>
<!-- /lib/panels/center/center_panel.dart&#45;&gt;/lib/screens/welcome_screen.dart -->
<g id="edge19" class="edge">
<title>/lib/panels/center/center_panel.dart&#45;&gt;/lib/screens/welcome_screen.dart</title>
<path fill="none" stroke="#aabbaa" stroke-width="1.3" stroke-opacity="0.533333" d="M1685.33,-397.62C1701.65,-408.43 1724.09,-421.42 1746,-428 1795.07,-442.74 1810.72,-426.14 1861,-436 1866.73,-437.12 1872.63,-438.55 1878.49,-440.16"/>
<polygon fill="#aabbaa" fill-opacity="0.533333" stroke="#aabbaa" stroke-width="1.3" stroke-opacity="0.533333" points="1877.17,-443.42 1887.75,-442.87 1879.14,-436.7 1877.17,-443.42"/>
</g>
<!-- /lib/widgets/resizable_splitter.dart -->
<g id="node31" class="node">
<title>/lib/widgets/resizable_splitter.dart</title>
<path fill="Lavender" stroke="black" stroke-width="1.3" d="M1938.88,-314C1938.88,-314 1835.12,-314 1835.12,-314 1829.12,-314 1823.12,-308 1823.12,-302 1823.12,-302 1823.12,-290 1823.12,-290 1823.12,-284 1829.12,-278 1835.12,-278 1835.12,-278 1938.88,-278 1938.88,-278 1944.88,-278 1950.88,-284 1950.88,-290 1950.88,-290 1950.88,-302 1950.88,-302 1950.88,-308 1944.88,-314 1938.88,-314"/>
<text xml:space="preserve" text-anchor="middle" x="1887" y="-290.75" font-family="Arial" font-size="15.00">resizable_splitter</text>
</g>
<!-- /lib/panels/center/center_panel.dart&#45;&gt;/lib/widgets/resizable_splitter.dart -->
<g id="edge22" class="edge">
<title>/lib/panels/center/center_panel.dart&#45;&gt;/lib/widgets/resizable_splitter.dart</title>
<path fill="none" stroke="#aabbaa" stroke-width="1.3" stroke-opacity="0.533333" d="M1712.61,-370.82C1741.64,-365.73 1778.14,-357.52 1809,-345 1824.38,-338.76 1840.19,-329.63 1853.52,-321"/>
<polygon fill="#aabbaa" fill-opacity="0.533333" stroke="#aabbaa" stroke-width="1.3" stroke-opacity="0.533333" points="1855.16,-324.11 1861.54,-315.65 1851.28,-318.28 1855.16,-324.11"/>
</g>
<!-- /lib/panels/left/git_panel.dart -->
<g id="node9" class="node">
<title>/lib/panels/left/git_panel.dart</title>
<path fill="Lavender" stroke="black" stroke-width="1.3" d="M1110,-231C1110,-231 1058,-231 1058,-231 1052,-231 1046,-225 1046,-219 1046,-219 1046,-207 1046,-207 1046,-201 1052,-195 1058,-195 1058,-195 1110,-195 1110,-195 1116,-195 1122,-201 1122,-207 1122,-207 1122,-219 1122,-219 1122,-225 1116,-231 1110,-231"/>
<text xml:space="preserve" text-anchor="middle" x="1084" y="-207.75" font-family="Arial" font-size="15.00">git_panel</text>
</g>
<!-- /lib/services/git_service.dart -->
<g id="node26" class="node">
<title>/lib/services/git_service.dart</title>
<path fill="Lavender" stroke="black" stroke-width="1.3" d="M484.62,-231C484.62,-231 421.38,-231 421.38,-231 415.38,-231 409.38,-225 409.38,-219 409.38,-219 409.38,-207 409.38,-207 409.38,-201 415.38,-195 421.38,-195 421.38,-195 484.62,-195 484.62,-195 490.62,-195 496.62,-201 496.62,-207 496.62,-207 496.62,-219 496.62,-219 496.62,-225 490.62,-231 484.62,-231"/>
<text xml:space="preserve" text-anchor="middle" x="453" y="-207.75" font-family="Arial" font-size="15.00">git_service</text>
</g>
<!-- /lib/panels/left/git_panel.dart&#45;&gt;/lib/services/git_service.dart -->
<g id="edge24" class="edge">
<title>/lib/panels/left/git_panel.dart&#45;&gt;/lib/services/git_service.dart</title>
<path fill="none" stroke="#aabbaa" stroke-width="1.3" stroke-opacity="0.533333" d="M1070.99,-231.59C1060.06,-245.11 1043.04,-261.75 1023,-266 1009.2,-268.93 528.8,-268.93 515,-266 499.04,-262.61 484.89,-251.54 474.15,-240.39"/>
<polygon fill="#aabbaa" fill-opacity="0.533333" stroke="#aabbaa" stroke-width="1.3" stroke-opacity="0.533333" points="476.87,-238.18 467.61,-233.04 471.65,-242.84 476.87,-238.18"/>
</g>
<!-- /lib/panels/left/left_panel_controls.dart -->
<g id="node10" class="node">
<title>/lib/panels/left/left_panel_controls.dart</title>
<path fill="Lavender" stroke="black" stroke-width="1.3" d="M1173.62,-480C1173.62,-480 1056.38,-480 1056.38,-480 1050.38,-480 1044.38,-474 1044.38,-468 1044.38,-468 1044.38,-456 1044.38,-456 1044.38,-450 1050.38,-444 1056.38,-444 1056.38,-444 1173.62,-444 1173.62,-444 1179.62,-444 1185.62,-450 1185.62,-456 1185.62,-456 1185.62,-468 1185.62,-468 1185.62,-474 1179.62,-480 1173.62,-480"/>
<text xml:space="preserve" text-anchor="middle" x="1115" y="-456.75" font-family="Arial" font-size="15.00">left_panel_controls</text>
</g>
<!-- /lib/panels/left/base_panel.dart -->
<g id="node11" class="node">
<title>/lib/panels/left/base_panel.dart</title>
<path fill="Lavender" stroke="black" stroke-width="1.3" d="M1350.25,-314C1350.25,-314 1281.75,-314 1281.75,-314 1275.75,-314 1269.75,-308 1269.75,-302 1269.75,-302 1269.75,-290 1269.75,-290 1269.75,-284 1275.75,-278 1281.75,-278 1281.75,-278 1350.25,-278 1350.25,-278 1356.25,-278 1362.25,-284 1362.25,-290 1362.25,-290 1362.25,-302 1362.25,-302 1362.25,-308 1356.25,-314 1350.25,-314"/>
<text xml:space="preserve" text-anchor="middle" x="1316" y="-290.75" font-family="Arial" font-size="15.00">base_panel</text>
</g>
<!-- /lib/panels/left/base_panel.dart&#45;&gt;/lib/providers/app_providers.dart -->
<g id="edge31" class="edge">
<title>/lib/panels/left/base_panel.dart&#45;&gt;/lib/providers/app_providers.dart</title>
<path fill="none" stroke="#aabbaa" stroke-width="1.3" stroke-opacity="0.533333" d="M1362.75,-285.87C1394.32,-280.14 1437,-273.25 1475,-270 1505.12,-267.42 1989.91,-270.2 2019,-262 2036.34,-257.11 2053.77,-247.53 2067.99,-238.21"/>
<polygon fill="#aabbaa" fill-opacity="0.533333" stroke="#aabbaa" stroke-width="1.3" stroke-opacity="0.533333" points="2069.84,-241.18 2076.11,-232.65 2065.88,-235.41 2069.84,-241.18"/>
</g>
<!-- /lib/panels/left/base_panel.dart&#45;&gt;/lib/panels/left/git_panel.dart -->
<g id="edge30" class="edge">
<title>/lib/panels/left/base_panel.dart&#45;&gt;/lib/panels/left/git_panel.dart</title>
<path fill="none" stroke="#aabbaa" stroke-width="1.3" stroke-opacity="0.533333" d="M1279.18,-277.45C1271.66,-274.49 1263.69,-271.81 1256,-270 1229.98,-263.89 1160.55,-272.55 1136,-262 1124.61,-257.1 1114.11,-248.6 1105.58,-240.11"/>
<polygon fill="#aabbaa" fill-opacity="0.533333" stroke="#aabbaa" stroke-width="1.3" stroke-opacity="0.533333" points="1108.18,-237.76 1098.79,-232.84 1103.06,-242.54 1108.18,-237.76"/>
</g>
<!-- /lib/panels/left/base_panel.dart&#45;&gt;/lib/utils/message_helper.dart -->
<g id="edge29" class="edge">
<title>/lib/panels/left/base_panel.dart&#45;&gt;/lib/utils/message_helper.dart</title>
<path fill="none" stroke="#aabbaa" stroke-width="1.3" stroke-opacity="0.533333" d="M1362.51,-287.52C1449.89,-273.48 1639.25,-243.05 1744.9,-226.07"/>
<polygon fill="#aabbaa" fill-opacity="0.533333" stroke="#aabbaa" stroke-width="1.3" stroke-opacity="0.533333" points="1745.16,-229.57 1754.48,-224.53 1744.05,-222.66 1745.16,-229.57"/>
</g>
<!-- /lib/panels/left/base_panel.dart&#45;&gt;/lib/models/project_node.dart -->
<g id="edge25" class="edge">
<title>/lib/panels/left/base_panel.dart&#45;&gt;/lib/models/project_node.dart</title>
<path fill="none" stroke="#aabbaa" stroke-width="1.3" stroke-opacity="0.533333" d="M1269.14,-293.11C1190.31,-289.43 1038.15,-280.07 1022,-262 997.41,-234.5 999.93,-208.56 1022,-179 1037.31,-158.5 1099.2,-142.84 1148.05,-133.37"/>
<polygon fill="#aabbaa" fill-opacity="0.533333" stroke="#aabbaa" stroke-width="1.3" stroke-opacity="0.533333" points="1148.4,-136.86 1157.58,-131.57 1147.1,-129.98 1148.4,-136.86"/>
</g>
<!-- /lib/panels/left/base_panel.dart&#45;&gt;/lib/models/file_system_item.dart -->
<g id="edge26" class="edge">
<title>/lib/panels/left/base_panel.dart&#45;&gt;/lib/models/file_system_item.dart</title>
<path fill="none" stroke="#aabbaa" stroke-width="1.3" stroke-opacity="0.533333" d="M1274.6,-277.4C1234.66,-257.91 1176.62,-222.29 1151,-171 1137.7,-144.36 1137.48,-130.53 1151,-104 1156.88,-92.46 1166.58,-82.85 1177.01,-75.12"/>
<polygon fill="#aabbaa" fill-opacity="0.533333" stroke="#aabbaa" stroke-width="1.3" stroke-opacity="0.533333" points="1178.77,-78.16 1185.09,-69.65 1174.85,-72.36 1178.77,-78.16"/>
</g>
<!-- /lib/panels/left/base_panel.dart&#45;&gt;/lib/services/git_service.dart -->
<g id="edge27" class="edge">
<title>/lib/panels/left/base_panel.dart&#45;&gt;/lib/services/git_service.dart</title>
<path fill="none" stroke="#aabbaa" stroke-width="1.3" stroke-opacity="0.533333" d="M1269.31,-292.86C1170.66,-288.38 933.74,-277.75 735,-270 709.56,-269.01 529.59,-271.57 506,-262 494.27,-257.24 483.47,-248.65 474.72,-240.04"/>
<polygon fill="#aabbaa" fill-opacity="0.533333" stroke="#aabbaa" stroke-width="1.3" stroke-opacity="0.533333" points="477.47,-237.86 468.06,-233 472.39,-242.67 477.47,-237.86"/>
</g>
<!-- /lib/services/file_system_watcher.dart -->
<g id="node27" class="node">
<title>/lib/services/file_system_watcher.dart</title>
<path fill="Lavender" stroke="black" stroke-width="1.3" d="M654.88,-231C654.88,-231 527.12,-231 527.12,-231 521.12,-231 515.12,-225 515.12,-219 515.12,-219 515.12,-207 515.12,-207 515.12,-201 521.12,-195 527.12,-195 527.12,-195 654.88,-195 654.88,-195 660.88,-195 666.88,-201 666.88,-207 666.88,-207 666.88,-219 666.88,-219 666.88,-225 660.88,-231 654.88,-231"/>
<text xml:space="preserve" text-anchor="middle" x="591" y="-207.75" font-family="Arial" font-size="15.00">file_system_watcher</text>
</g>
<!-- /lib/panels/left/base_panel.dart&#45;&gt;/lib/services/file_system_watcher.dart -->
<g id="edge28" class="edge">
<title>/lib/panels/left/base_panel.dart&#45;&gt;/lib/services/file_system_watcher.dart</title>
<path fill="none" stroke="#aabbaa" stroke-width="1.3" stroke-opacity="0.533333" d="M1269.3,-293.18C1126.62,-287.54 704.38,-270.25 676,-262 658.02,-256.77 639.72,-247.12 624.73,-237.83"/>
<polygon fill="#aabbaa" fill-opacity="0.533333" stroke="#aabbaa" stroke-width="1.3" stroke-opacity="0.533333" points="626.89,-235.05 616.59,-232.58 623.1,-240.94 626.89,-235.05"/>
</g>
<!-- /lib/panels/left/directory_contents.dart -->
<g id="node12" class="node">
<title>/lib/panels/left/directory_contents.dart</title>
<path fill="Lavender" stroke="black" stroke-width="1.3" d="M1171.5,-397C1171.5,-397 1056.5,-397 1056.5,-397 1050.5,-397 1044.5,-391 1044.5,-385 1044.5,-385 1044.5,-373 1044.5,-373 1044.5,-367 1050.5,-361 1056.5,-361 1056.5,-361 1171.5,-361 1171.5,-361 1177.5,-361 1183.5,-367 1183.5,-373 1183.5,-373 1183.5,-385 1183.5,-385 1183.5,-391 1177.5,-397 1171.5,-397"/>
<text xml:space="preserve" text-anchor="middle" x="1114" y="-373.75" font-family="Arial" font-size="15.00">directory_contents</text>
</g>
<!-- /lib/panels/left/directory_contents.dart&#45;&gt;/lib/models/file_system_item.dart -->
<g id="edge34" class="edge">
<title>/lib/panels/left/directory_contents.dart&#45;&gt;/lib/models/file_system_item.dart</title>
<path fill="none" stroke="#aabbaa" stroke-width="1.3" stroke-opacity="0.533333" d="M1161.3,-360.39C1171.31,-357.36 1181.9,-354.66 1192,-353 1221.88,-348.1 1709.15,-356.89 1737,-345 1780.07,-326.62 1768,-288.55 1811,-270 1829.16,-262.16 2153.17,-276.14 2167,-262 2192.79,-235.62 2189.76,-208.03 2167,-179 2080.88,-69.14 1999.77,-126.52 1862,-104 1660.77,-71.11 1420.32,-58.14 1300.2,-53.43"/>
<polygon fill="#aabbaa" fill-opacity="0.533333" stroke="#aabbaa" stroke-width="1.3" stroke-opacity="0.533333" points="1300.34,-49.94 1290.22,-53.05 1300.08,-56.93 1300.34,-49.94"/>
</g>
<!-- /lib/panels/left/directory_contents.dart&#45;&gt;/lib/services/git_service.dart -->
<g id="edge33" class="edge">
<title>/lib/panels/left/directory_contents.dart&#45;&gt;/lib/services/git_service.dart</title>
<path fill="none" stroke="#aabbaa" stroke-width="1.3" stroke-opacity="0.533333" d="M1063.76,-360.36C1053.38,-357.37 1042.43,-354.69 1032,-353 964.64,-342.06 791.96,-358.17 725,-345 622.87,-324.92 594.79,-316.33 506,-262 495.78,-255.75 485.74,-247.39 477.19,-239.4"/>
<polygon fill="#aabbaa" fill-opacity="0.533333" stroke="#aabbaa" stroke-width="1.3" stroke-opacity="0.533333" points="479.89,-237.15 470.29,-232.69 475.01,-242.17 479.89,-237.15"/>
</g>
<!-- /lib/services/file_system_service.dart -->
<g id="node29" class="node">
<title>/lib/services/file_system_service.dart</title>
<path fill="Lavender" stroke="black" stroke-width="1.3" d="M278.25,-231C278.25,-231 155.75,-231 155.75,-231 149.75,-231 143.75,-225 143.75,-219 143.75,-219 143.75,-207 143.75,-207 143.75,-201 149.75,-195 155.75,-195 155.75,-195 278.25,-195 278.25,-195 284.25,-195 290.25,-201 290.25,-207 290.25,-207 290.25,-219 290.25,-219 290.25,-225 284.25,-231 278.25,-231"/>
<text xml:space="preserve" text-anchor="middle" x="217" y="-207.75" font-family="Arial" font-size="15.00">file_system_service</text>
</g>
<!-- /lib/panels/left/directory_contents.dart&#45;&gt;/lib/services/file_system_service.dart -->
<g id="edge32" class="edge">
<title>/lib/panels/left/directory_contents.dart&#45;&gt;/lib/services/file_system_service.dart</title>
<path fill="none" stroke="#aabbaa" stroke-width="1.3" stroke-opacity="0.533333" d="M1064.22,-360.4C1053.7,-357.37 1042.59,-354.66 1032,-353 918.93,-335.25 629.39,-366.66 517,-345 417.39,-325.8 310.84,-269.69 255.45,-237.47"/>
<polygon fill="#aabbaa" fill-opacity="0.533333" stroke="#aabbaa" stroke-width="1.3" stroke-opacity="0.533333" points="257.49,-234.61 247.09,-232.55 253.94,-240.64 257.49,-234.61"/>
</g>
<!-- /lib/panels/left/folder_panel.dart -->
<g id="node13" class="node">
<title>/lib/panels/left/folder_panel.dart</title>
<path fill="Lavender" stroke="black" stroke-width="1.3" d="M1286.88,-397C1286.88,-397 1213.12,-397 1213.12,-397 1207.12,-397 1201.12,-391 1201.12,-385 1201.12,-385 1201.12,-373 1201.12,-373 1201.12,-367 1207.12,-361 1213.12,-361 1213.12,-361 1286.88,-361 1286.88,-361 1292.88,-361 1298.88,-367 1298.88,-373 1298.88,-373 1298.88,-385 1298.88,-385 1298.88,-391 1292.88,-397 1286.88,-397"/>
<text xml:space="preserve" text-anchor="middle" x="1250" y="-373.75" font-family="Arial" font-size="15.00">folder_panel</text>
</g>
<!-- /lib/panels/left/folder_panel.dart&#45;&gt;/lib/panels/left/base_panel.dart -->
<g id="edge38" class="edge">
<title>/lib/panels/left/folder_panel.dart&#45;&gt;/lib/panels/left/base_panel.dart</title>
<path fill="none" stroke="#aabbaa" stroke-width="1.3" stroke-opacity="0.533333" d="M1264.32,-360.42C1273.06,-349.7 1284.4,-335.79 1294.23,-323.72"/>
<polygon fill="#aabbaa" fill-opacity="0.533333" stroke="#aabbaa" stroke-width="1.3" stroke-opacity="0.533333" points="1296.86,-326.03 1300.46,-316.07 1291.43,-321.61 1296.86,-326.03"/>
</g>
<!-- /lib/panels/left/folder_panel.dart&#45;&gt;/lib/models/project_node.dart -->
<g id="edge35" class="edge">
<title>/lib/panels/left/folder_panel.dart&#45;&gt;/lib/models/project_node.dart</title>
<path fill="none" stroke="#aabbaa" stroke-width="1.3" stroke-opacity="0.533333" d="M1210.7,-360.42C1141.09,-329.18 1003.08,-266.82 1000,-262 980.15,-230.91 977.51,-208.24 1000,-179 1018.04,-155.55 1092.57,-139.87 1147.97,-131.21"/>
<polygon fill="#aabbaa" fill-opacity="0.533333" stroke="#aabbaa" stroke-width="1.3" stroke-opacity="0.533333" points="1148.16,-134.72 1157.53,-129.76 1147.12,-127.8 1148.16,-134.72"/>
</g>
<!-- /lib/panels/left/folder_panel.dart&#45;&gt;/lib/models/file_system_item.dart -->
<g id="edge36" class="edge">
<title>/lib/panels/left/folder_panel.dart&#45;&gt;/lib/models/file_system_item.dart</title>
<path fill="none" stroke="#aabbaa" stroke-width="1.3" stroke-opacity="0.533333" d="M1296.88,-360.47C1307.01,-357.39 1317.75,-354.65 1328,-353 1339.92,-351.08 2188.5,-353.57 2197,-345 2233.6,-308.06 2232.89,-155.13 2179,-104 2147.27,-73.89 1520.57,-57.44 1300,-52.56"/>
<polygon fill="#aabbaa" fill-opacity="0.533333" stroke="#aabbaa" stroke-width="1.3" stroke-opacity="0.533333" points="1300.28,-49.07 1290.21,-52.35 1300.13,-56.06 1300.28,-49.07"/>
</g>
<!-- /lib/panels/left/folder_panel.dart&#45;&gt;/lib/services/git_service.dart -->
<g id="edge37" class="edge">
<title>/lib/panels/left/folder_panel.dart&#45;&gt;/lib/services/git_service.dart</title>
<path fill="none" stroke="#aabbaa" stroke-width="1.3" stroke-opacity="0.533333" d="M1215.44,-360.39C1208.19,-357.4 1200.48,-354.72 1193,-353 1147.27,-342.5 1028.57,-350.77 982,-345 822.4,-325.21 787.32,-291.98 628,-270 601.09,-266.29 531.02,-272.6 506,-262 494.34,-257.06 483.56,-248.44 474.81,-239.85"/>
<polygon fill="#aabbaa" fill-opacity="0.533333" stroke="#aabbaa" stroke-width="1.3" stroke-opacity="0.533333" points="477.56,-237.67 468.13,-232.84 472.49,-242.49 477.56,-237.67"/>
</g>
<!-- /lib/panels/left/file_explorer.dart -->
<g id="node14" class="node">
<title>/lib/panels/left/file_explorer.dart</title>
<path fill="Lavender" stroke="black" stroke-width="1.3" d="M1288.5,-480C1288.5,-480 1215.5,-480 1215.5,-480 1209.5,-480 1203.5,-474 1203.5,-468 1203.5,-468 1203.5,-456 1203.5,-456 1203.5,-450 1209.5,-444 1215.5,-444 1215.5,-444 1288.5,-444 1288.5,-444 1294.5,-444 1300.5,-450 1300.5,-456 1300.5,-456 1300.5,-468 1300.5,-468 1300.5,-474 1294.5,-480 1288.5,-480"/>
<text xml:space="preserve" text-anchor="middle" x="1252" y="-456.75" font-family="Arial" font-size="15.00">file_explorer</text>
</g>
<!-- /lib/panels/left/file_explorer.dart&#45;&gt;/lib/panels/left/directory_contents.dart -->
<g id="edge42" class="edge">
<title>/lib/panels/left/file_explorer.dart&#45;&gt;/lib/panels/left/directory_contents.dart</title>
<path fill="none" stroke="#aabbaa" stroke-width="1.3" stroke-opacity="0.533333" d="M1219.45,-443.48C1210.51,-438.56 1200.84,-433.14 1192,-428 1178.66,-420.24 1164.23,-411.46 1151.44,-403.55"/>
<polygon fill="#aabbaa" fill-opacity="0.533333" stroke="#aabbaa" stroke-width="1.3" stroke-opacity="0.533333" points="1153.61,-400.78 1143.27,-398.48 1149.92,-406.73 1153.61,-400.78"/>
</g>
<!-- /lib/panels/left/file_explorer.dart&#45;&gt;/lib/models/file_system_item.dart -->
<g id="edge41" class="edge">
<title>/lib/panels/left/file_explorer.dart&#45;&gt;/lib/models/file_system_item.dart</title>
<path fill="none" stroke="#aabbaa" stroke-width="1.3" stroke-opacity="0.533333" d="M1217.78,-443.35C1210.44,-440.33 1202.61,-437.63 1195,-436 1105.59,-416.8 461.71,-445.75 372,-428 218.42,-397.61 45,-453.56 45,-297 45,-297 45,-297 45,-212 45,-163.54 24.19,-136.65 60,-104 100.22,-67.34 895.55,-54.86 1147.88,-51.82"/>
<polygon fill="#aabbaa" fill-opacity="0.533333" stroke="#aabbaa" stroke-width="1.3" stroke-opacity="0.533333" points="1147.91,-55.32 1157.87,-51.7 1147.83,-48.32 1147.91,-55.32"/>
</g>
<!-- /lib/panels/left/file_explorer.dart&#45;&gt;/lib/services/git_service.dart -->
<g id="edge40" class="edge">
<title>/lib/panels/left/file_explorer.dart&#45;&gt;/lib/services/git_service.dart</title>
<path fill="none" stroke="#aabbaa" stroke-width="1.3" stroke-opacity="0.533333" d="M1217.76,-443.42C1210.43,-440.39 1202.6,-437.68 1195,-436 1112.3,-417.75 897.78,-440.38 814,-428 678.42,-407.96 622.32,-432.71 517,-345 485.2,-318.52 467.92,-272.44 459.58,-242.59"/>
<polygon fill="#aabbaa" fill-opacity="0.533333" stroke="#aabbaa" stroke-width="1.3" stroke-opacity="0.533333" points="463.03,-241.97 457.12,-233.17 456.26,-243.73 463.03,-241.97"/>
</g>
<!-- /lib/panels/left/file_explorer.dart&#45;&gt;/lib/services/file_system_service.dart -->
<g id="edge39" class="edge">
<title>/lib/panels/left/file_explorer.dart&#45;&gt;/lib/services/file_system_service.dart</title>
<path fill="none" stroke="#aabbaa" stroke-width="1.3" stroke-opacity="0.533333" d="M1217.78,-443.36C1210.44,-440.34 1202.6,-437.64 1195,-436 1122.34,-420.31 597.89,-446.92 526,-428 403.62,-395.8 289.33,-289.58 241.1,-239.96"/>
<polygon fill="#aabbaa" fill-opacity="0.533333" stroke="#aabbaa" stroke-width="1.3" stroke-opacity="0.533333" points="243.69,-237.6 234.24,-232.81 238.64,-242.45 243.69,-237.6"/>
</g>
<!-- /lib/panels/left/left_panel.dart -->
<g id="node15" class="node">
<title>/lib/panels/left/left_panel.dart</title>
<path fill="Lavender" stroke="black" stroke-width="1.3" d="M1387.25,-480C1387.25,-480 1330.75,-480 1330.75,-480 1324.75,-480 1318.75,-474 1318.75,-468 1318.75,-468 1318.75,-456 1318.75,-456 1318.75,-450 1324.75,-444 1330.75,-444 1330.75,-444 1387.25,-444 1387.25,-444 1393.25,-444 1399.25,-450 1399.25,-456 1399.25,-456 1399.25,-468 1399.25,-468 1399.25,-474 1393.25,-480 1387.25,-480"/>
<text xml:space="preserve" text-anchor="middle" x="1359" y="-456.75" font-family="Arial" font-size="15.00">left_panel</text>
</g>
<!-- /lib/panels/left/left_panel.dart&#45;&gt;/lib/panels/left/git_panel.dart -->
<g id="edge45" class="edge">
<title>/lib/panels/left/left_panel.dart&#45;&gt;/lib/panels/left/git_panel.dart</title>
<path fill="none" stroke="#aabbaa" stroke-width="1.3" stroke-opacity="0.533333" d="M1339.52,-443.45C1335.23,-438.78 1331.06,-433.5 1328,-428 1311.24,-397.85 1333.49,-376.25 1308,-353 1292.34,-338.72 1280.49,-353.31 1261,-345 1200.89,-319.38 1142.14,-269.57 1109.73,-239.3"/>
<polygon fill="#aabbaa" fill-opacity="0.533333" stroke="#aabbaa" stroke-width="1.3" stroke-opacity="0.533333" points="1112.4,-237.01 1102.74,-232.67 1107.59,-242.09 1112.4,-237.01"/>
</g>
<!-- /lib/panels/left/left_panel.dart&#45;&gt;/lib/panels/left/folder_panel.dart -->
<g id="edge43" class="edge">
<title>/lib/panels/left/left_panel.dart&#45;&gt;/lib/panels/left/folder_panel.dart</title>
<path fill="none" stroke="#aabbaa" stroke-width="1.3" stroke-opacity="0.533333" d="M1334.55,-443.66C1327.56,-438.65 1319.95,-433.14 1313,-428 1302.88,-420.52 1291.95,-412.25 1282.08,-404.72"/>
<polygon fill="#aabbaa" fill-opacity="0.533333" stroke="#aabbaa" stroke-width="1.3" stroke-opacity="0.533333" points="1284.26,-401.98 1274.19,-398.68 1280,-407.54 1284.26,-401.98"/>
</g>
<!-- /lib/panels/left/organized_panel.dart -->
<g id="node16" class="node">
<title>/lib/panels/left/organized_panel.dart</title>
<path fill="Lavender" stroke="black" stroke-width="1.3" d="M1450.75,-397C1450.75,-397 1349.25,-397 1349.25,-397 1343.25,-397 1337.25,-391 1337.25,-385 1337.25,-385 1337.25,-373 1337.25,-373 1337.25,-367 1343.25,-361 1349.25,-361 1349.25,-361 1450.75,-361 1450.75,-361 1456.75,-361 1462.75,-367 1462.75,-373 1462.75,-373 1462.75,-385 1462.75,-385 1462.75,-391 1456.75,-397 1450.75,-397"/>
<text xml:space="preserve" text-anchor="middle" x="1400" y="-373.75" font-family="Arial" font-size="15.00">organized_panel</text>
</g>
<!-- /lib/panels/left/left_panel.dart&#45;&gt;/lib/panels/left/organized_panel.dart -->
<g id="edge44" class="edge">
<title>/lib/panels/left/left_panel.dart&#45;&gt;/lib/panels/left/organized_panel.dart</title>
<path fill="none" stroke="#aabbaa" stroke-width="1.3" stroke-opacity="0.533333" d="M1367.9,-443.42C1373.11,-433.13 1379.81,-419.89 1385.74,-408.17"/>
<polygon fill="#aabbaa" fill-opacity="0.533333" stroke="#aabbaa" stroke-width="1.3" stroke-opacity="0.533333" points="1388.84,-409.8 1390.23,-399.3 1382.59,-406.64 1388.84,-409.8"/>
</g>
<!-- /lib/panels/left/left_panel.dart&#45;&gt;/lib/models/file_system_item.dart -->
<g id="edge46" class="edge">
<title>/lib/panels/left/left_panel.dart&#45;&gt;/lib/models/file_system_item.dart</title>
<path fill="none" stroke="#aabbaa" stroke-width="1.3" stroke-opacity="0.533333" d="M1329.79,-443.39C1323.47,-440.37 1316.67,-437.66 1310,-436 1256.51,-422.69 868.98,-431.9 814,-428 548.57,-409.16 484.84,-378.83 220,-353 207.14,-351.75 114.1,-353.06 104,-345 73.89,-320.97 84.62,-300.11 79,-262 68.76,-192.53 30.51,-154.79 79,-104 115.91,-65.34 897.4,-54.24 1147.64,-51.67"/>
<polygon fill="#aabbaa" fill-opacity="0.533333" stroke="#aabbaa" stroke-width="1.3" stroke-opacity="0.533333" points="1147.57,-55.17 1157.53,-51.57 1147.5,-48.17 1147.57,-55.17"/>
</g>
<!-- /lib/panels/left/organized_panel.dart&#45;&gt;/lib/panels/left/base_panel.dart -->
<g id="edge48" class="edge">
<title>/lib/panels/left/organized_panel.dart&#45;&gt;/lib/panels/left/base_panel.dart</title>
<path fill="none" stroke="#aabbaa" stroke-width="1.3" stroke-opacity="0.533333" d="M1381.77,-360.42C1370.33,-349.39 1355.36,-334.96 1342.6,-322.65"/>
<polygon fill="#aabbaa" fill-opacity="0.533333" stroke="#aabbaa" stroke-width="1.3" stroke-opacity="0.533333" points="1345.24,-320.33 1335.61,-315.91 1340.38,-325.37 1345.24,-320.33"/>
</g>
<!-- /lib/panels/left/organized_panel.dart&#45;&gt;/lib/models/project_node.dart -->
<g id="edge47" class="edge">
<title>/lib/panels/left/organized_panel.dart&#45;&gt;/lib/models/project_node.dart</title>
<path fill="none" stroke="#aabbaa" stroke-width="1.3" stroke-opacity="0.533333" d="M1445.86,-360.38C1455.36,-357.39 1465.41,-354.71 1475,-353 1489.34,-350.45 1726.06,-354.62 1737,-345 1762.35,-322.71 1723.64,-292.28 1749,-270 1771.55,-250.19 1998.09,-283.53 2019,-262 2031.85,-248.77 2031.97,-192.11 2019,-179 2004.39,-164.23 1290.57,-177.98 1271,-171 1257.73,-166.26 1245.19,-157.26 1235.04,-148.32"/>
<polygon fill="#aabbaa" fill-opacity="0.533333" stroke="#aabbaa" stroke-width="1.3" stroke-opacity="0.533333" points="1237.56,-145.89 1227.88,-141.6 1232.77,-150.99 1237.56,-145.89"/>
</g>
<!-- /lib/widgets/message_widget.dart -->
<g id="node33" class="node">
<title>/lib/widgets/message_widget.dart</title>
<path fill="Lavender" stroke="black" stroke-width="1.3" d="M2084.88,-314C2084.88,-314 1981.12,-314 1981.12,-314 1975.12,-314 1969.12,-308 1969.12,-302 1969.12,-302 1969.12,-290 1969.12,-290 1969.12,-284 1975.12,-278 1981.12,-278 1981.12,-278 2084.88,-278 2084.88,-278 2090.88,-278 2096.88,-284 2096.88,-290 2096.88,-290 2096.88,-302 2096.88,-302 2096.88,-308 2090.88,-314 2084.88,-314"/>
<text xml:space="preserve" text-anchor="middle" x="2033" y="-290.75" font-family="Arial" font-size="15.00">message_widget</text>
</g>
<!-- /lib/utils/message_helper.dart&#45;&gt;/lib/widgets/message_widget.dart -->
<g id="edge49" class="edge">
<title>/lib/utils/message_helper.dart&#45;&gt;/lib/widgets/message_widget.dart</title>
<path fill="none" stroke="#aabbaa" stroke-width="1.3" stroke-opacity="0.533333" d="M1840.6,-231.58C1854.27,-242.22 1873.11,-255.05 1892,-262 1920.56,-272.51 1930.33,-263.25 1960,-270 1964.98,-271.13 1970.1,-272.48 1975.21,-273.96"/>
<polygon fill="#aabbaa" fill-opacity="0.533333" stroke="#aabbaa" stroke-width="1.3" stroke-opacity="0.533333" points="1973.83,-277.2 1984.42,-276.79 1975.89,-270.51 1973.83,-277.2"/>
</g>
<!-- /lib/models/project_node.dart&#45;&gt;/lib/models/file_system_item.dart -->
<g id="edge50" class="edge">
<title>/lib/models/project_node.dart&#45;&gt;/lib/models/file_system_item.dart</title>
<path fill="none" stroke="#aabbaa" stroke-width="1.3" stroke-opacity="0.533333" d="M1214.21,-103.7C1215.53,-96.6 1217.09,-88.18 1218.58,-80.18"/>
<polygon fill="#aabbaa" fill-opacity="0.533333" stroke="#aabbaa" stroke-width="1.3" stroke-opacity="0.533333" points="1221.99,-81 1220.37,-70.53 1215.11,-79.72 1221.99,-81"/>
</g>
<!-- /lib/screens/main_layout.dart -->
<g id="node22" class="node">
<title>/lib/screens/main_layout.dart</title>
<path fill="Lavender" stroke="black" stroke-width="1.3" d="M2103.12,-480C2103.12,-480 2030.88,-480 2030.88,-480 2024.88,-480 2018.88,-474 2018.88,-468 2018.88,-468 2018.88,-456 2018.88,-456 2018.88,-450 2024.88,-444 2030.88,-444 2030.88,-444 2103.12,-444 2103.12,-444 2109.12,-444 2115.12,-450 2115.12,-456 2115.12,-456 2115.12,-468 2115.12,-468 2115.12,-474 2109.12,-480 2103.12,-480"/>
<text xml:space="preserve" text-anchor="middle" x="2067" y="-456.75" font-family="Arial" font-size="15.00">main_layout</text>
</g>
<!-- /lib/screens/main_layout.dart&#45;&gt;/lib/providers/app_providers.dart -->
<g id="edge52" class="edge">
<title>/lib/screens/main_layout.dart&#45;&gt;/lib/providers/app_providers.dart</title>
<path fill="none" stroke="#aabbaa" stroke-width="1.3" stroke-opacity="0.533333" d="M2098.9,-443.47C2130.52,-424.08 2177.03,-389.58 2197,-345 2210.63,-314.58 2213.67,-298.87 2197,-270 2188.98,-256.11 2176.06,-245.36 2162.23,-237.16"/>
<polygon fill="#aabbaa" fill-opacity="0.533333" stroke="#aabbaa" stroke-width="1.3" stroke-opacity="0.533333" points="2164.24,-234.27 2153.78,-232.58 2160.9,-240.42 2164.24,-234.27"/>
</g>
<!-- /lib/screens/main_layout.dart&#45;&gt;/lib/panels/right/right_panel.dart -->
<g id="edge59" class="edge">
<title>/lib/screens/main_layout.dart&#45;&gt;/lib/panels/right/right_panel.dart</title>
<path fill="none" stroke="#aabbaa" stroke-width="1.3" stroke-opacity="0.533333" d="M2060.74,-480.27C2051.71,-502.9 2032.57,-539.3 2001,-546 1987.96,-548.77 1054.04,-548.77 1041,-546 1003.03,-537.94 967.41,-510.18 944.58,-488.75"/>
<polygon fill="#aabbaa" fill-opacity="0.533333" stroke="#aabbaa" stroke-width="1.3" stroke-opacity="0.533333" points="947.22,-486.43 937.6,-481.98 942.35,-491.46 947.22,-486.43"/>
</g>
<!-- /lib/screens/main_layout.dart&#45;&gt;/lib/panels/center/editor_screen.dart -->
<g id="edge51" class="edge">
<title>/lib/screens/main_layout.dart&#45;&gt;/lib/panels/center/editor_screen.dart</title>
<path fill="none" stroke="#aabbaa" stroke-width="1.3" stroke-opacity="0.533333" d="M2032.44,-443.36C2025.2,-440.38 2017.48,-437.7 2010,-436 1996.77,-433 1776.62,-436.44 1766,-428 1738.99,-406.54 1772.76,-374.77 1746,-353 1733.57,-342.89 1617.01,-350.6 1602,-345 1588.72,-340.04 1575.99,-331.18 1565.55,-322.4"/>
<polygon fill="#aabbaa" fill-opacity="0.533333" stroke="#aabbaa" stroke-width="1.3" stroke-opacity="0.533333" points="1567.93,-319.83 1558.13,-315.8 1563.27,-325.06 1567.93,-319.83"/>
</g>
<!-- /lib/screens/main_layout.dart&#45;&gt;/lib/panels/center/center_panel.dart -->
<g id="edge58" class="edge">
<title>/lib/screens/main_layout.dart&#45;&gt;/lib/panels/center/center_panel.dart</title>
<path fill="none" stroke="#aabbaa" stroke-width="1.3" stroke-opacity="0.533333" d="M2032.75,-443.47C2025.42,-440.44 2017.59,-437.71 2010,-436 1952.74,-423.09 1802.53,-443.78 1746,-428 1727.83,-422.93 1709.39,-413.19 1694.35,-403.81"/>
<polygon fill="#aabbaa" fill-opacity="0.533333" stroke="#aabbaa" stroke-width="1.3" stroke-opacity="0.533333" points="1696.47,-401.01 1686.18,-398.5 1692.66,-406.88 1696.47,-401.01"/>
</g>
<!-- /lib/screens/main_layout.dart&#45;&gt;/lib/panels/left/left_panel.dart -->
<g id="edge57" class="edge">
<title>/lib/screens/main_layout.dart&#45;&gt;/lib/panels/left/left_panel.dart</title>
<path fill="none" stroke="#aabbaa" stroke-width="1.3" stroke-opacity="0.533333" d="M2060.74,-480.27C2051.71,-502.9 2032.57,-539.3 2001,-546 1985,-549.4 1428,-549.4 1412,-546 1387.12,-540.72 1373.32,-513.64 1366.08,-491.63"/>
<polygon fill="#aabbaa" fill-opacity="0.533333" stroke="#aabbaa" stroke-width="1.3" stroke-opacity="0.533333" points="1369.52,-490.92 1363.35,-482.31 1362.8,-492.89 1369.52,-490.92"/>
</g>
<!-- /lib/screens/main_layout.dart&#45;&gt;/lib/utils/file_type_utils.dart -->
<g id="edge55" class="edge">
<title>/lib/screens/main_layout.dart&#45;&gt;/lib/utils/file_type_utils.dart</title>
<path fill="none" stroke="#aabbaa" stroke-width="1.3" stroke-opacity="0.533333" d="M2031.08,-443.39C2024.21,-440.55 2016.98,-437.92 2010,-436 1982.36,-428.39 1973.05,-437.5 1946,-428 1879.55,-404.66 1845.37,-406.48 1811,-345 1794.73,-315.9 1788.62,-294.7 1811,-270 1823.15,-256.6 1875.19,-268.69 1892,-262 1905.07,-256.8 1917.7,-247.97 1928.1,-239.3"/>
<polygon fill="#aabbaa" fill-opacity="0.533333" stroke="#aabbaa" stroke-width="1.3" stroke-opacity="0.533333" points="1930.31,-242.01 1935.51,-232.78 1925.69,-236.76 1930.31,-242.01"/>
</g>
<!-- /lib/screens/main_layout.dart&#45;&gt;/lib/models/document_state.dart -->
<g id="edge54" class="edge">
<title>/lib/screens/main_layout.dart&#45;&gt;/lib/models/document_state.dart</title>
<path fill="none" stroke="#aabbaa" stroke-width="1.3" stroke-opacity="0.533333" d="M2115.51,-451.86C2131.96,-446.91 2149.55,-439.39 2163,-428 2195.03,-400.89 2197.68,-385.67 2208,-345 2226.68,-271.34 2229.39,-222.39 2167,-179 2106.17,-136.7 1606.92,-126.2 1415.93,-123.73"/>
<polygon fill="#aabbaa" fill-opacity="0.533333" stroke="#aabbaa" stroke-width="1.3" stroke-opacity="0.533333" points="1416.08,-120.23 1406.04,-123.6 1415.99,-127.23 1416.08,-120.23"/>
</g>
<!-- /lib/screens/main_layout.dart&#45;&gt;/lib/models/file_system_item.dart -->
<g id="edge53" class="edge">
<title>/lib/screens/main_layout.dart&#45;&gt;/lib/models/file_system_item.dart</title>
<path fill="none" stroke="#aabbaa" stroke-width="1.3" stroke-opacity="0.533333" d="M2115.49,-458.33C2140.2,-454.61 2169.14,-446.28 2189,-428 2295.02,-330.4 2305.6,-203.11 2201,-104 2168.44,-73.15 1524.4,-57.13 1300.18,-52.46"/>
<polygon fill="#aabbaa" fill-opacity="0.533333" stroke="#aabbaa" stroke-width="1.3" stroke-opacity="0.533333" points="1300.27,-48.97 1290.2,-52.26 1300.13,-55.96 1300.27,-48.97"/>
</g>
<!-- /lib/screens/main_layout.dart&#45;&gt;/lib/widgets/resizable_splitter.dart -->
<g id="edge56" class="edge">
<title>/lib/screens/main_layout.dart&#45;&gt;/lib/widgets/resizable_splitter.dart</title>
<path fill="none" stroke="#aabbaa" stroke-width="1.3" stroke-opacity="0.533333" d="M2047.74,-443.45C2015.8,-414.35 1951.75,-356 1914.88,-322.4"/>
<polygon fill="#aabbaa" fill-opacity="0.533333" stroke="#aabbaa" stroke-width="1.3" stroke-opacity="0.533333" points="1917.33,-319.9 1907.58,-315.75 1912.61,-325.07 1917.33,-319.9"/>
</g>
<!-- /lib/main.dart&#45;&gt;/lib/providers/app_providers.dart -->
<g id="edge60" class="edge">
<title>/lib/main.dart&#45;&gt;/lib/providers/app_providers.dart</title>
<path fill="none" stroke="#aabbaa" stroke-width="1.3" stroke-opacity="0.533333" d="M1964.64,-567.47C2016.2,-567.77 2124.38,-565.49 2152,-542 2246.02,-462.04 2272.11,-375.47 2208,-270 2198.46,-254.31 2182.94,-242.81 2166.6,-234.48"/>
<polygon fill="#aabbaa" fill-opacity="0.533333" stroke="#aabbaa" stroke-width="1.3" stroke-opacity="0.533333" points="2168.13,-231.33 2157.59,-230.28 2165.17,-237.67 2168.13,-231.33"/>
</g>
<!-- /lib/main.dart&#45;&gt;/lib/panels/center/editor_screen.dart -->
<g id="edge63" class="edge">
<title>/lib/main.dart&#45;&gt;/lib/panels/center/editor_screen.dart</title>
<path fill="none" stroke="#aabbaa" stroke-width="1.3" stroke-opacity="0.533333" d="M1909.42,-567.38C1861.89,-567.42 1767.49,-564.56 1745,-542 1715.11,-512.02 1751.81,-382.04 1721,-353 1711.36,-343.91 1614.39,-349.71 1602,-345 1588.75,-339.97 1576.02,-331.09 1565.58,-322.32"/>
<polygon fill="#aabbaa" fill-opacity="0.533333" stroke="#aabbaa" stroke-width="1.3" stroke-opacity="0.533333" points="1567.96,-319.75 1558.16,-315.73 1563.31,-324.99 1567.96,-319.75"/>
</g>
<!-- /lib/main.dart&#45;&gt;/lib/screens/main_layout.dart -->
<g id="edge61" class="edge">
<title>/lib/main.dart&#45;&gt;/lib/screens/main_layout.dart</title>
<path fill="none" stroke="#aabbaa" stroke-width="1.3" stroke-opacity="0.533333" d="M1964.57,-561.8C1979.11,-558.07 1996.65,-551.89 2010,-542 2028.06,-528.62 2042.73,-507.84 2052.66,-490.95"/>
<polygon fill="#aabbaa" fill-opacity="0.533333" stroke="#aabbaa" stroke-width="1.3" stroke-opacity="0.533333" points="2055.7,-492.69 2057.53,-482.25 2049.59,-489.27 2055.7,-492.69"/>
</g>
<!-- /lib/main.dart&#45;&gt;/lib/screens/welcome_screen.dart -->
<g id="edge64" class="edge">
<title>/lib/main.dart&#45;&gt;/lib/screens/welcome_screen.dart</title>
<path fill="none" stroke="#aabbaa" stroke-width="1.3" stroke-opacity="0.533333" d="M1937,-549.36C1937,-533.73 1937,-510.59 1937,-492.2"/>
<polygon fill="#aabbaa" fill-opacity="0.533333" stroke="#aabbaa" stroke-width="1.3" stroke-opacity="0.533333" points="1940.5,-492.35 1937,-482.35 1933.5,-492.35 1940.5,-492.35"/>
</g>
<!-- /lib/theme/app_theme.dart -->
<g id="node25" class="node">
<title>/lib/theme/app_theme.dart</title>
<path fill="Lavender" stroke="black" stroke-width="1.3" d="M1836.5,-480C1836.5,-480 1769.5,-480 1769.5,-480 1763.5,-480 1757.5,-474 1757.5,-468 1757.5,-468 1757.5,-456 1757.5,-456 1757.5,-450 1763.5,-444 1769.5,-444 1769.5,-444 1836.5,-444 1836.5,-444 1842.5,-444 1848.5,-450 1848.5,-456 1848.5,-456 1848.5,-468 1848.5,-468 1848.5,-474 1842.5,-480 1836.5,-480"/>
<text xml:space="preserve" text-anchor="middle" x="1803" y="-456.75" font-family="Arial" font-size="15.00">app_theme</text>
</g>
<!-- /lib/main.dart&#45;&gt;/lib/theme/app_theme.dart -->
<g id="edge66" class="edge">
<title>/lib/main.dart&#45;&gt;/lib/theme/app_theme.dart</title>
<path fill="none" stroke="#aabbaa" stroke-width="1.3" stroke-opacity="0.533333" d="M1909.43,-562.24C1894.09,-558.59 1875.28,-552.36 1861,-542 1842.52,-528.6 1827.48,-507.54 1817.35,-490.54"/>
<polygon fill="#aabbaa" fill-opacity="0.533333" stroke="#aabbaa" stroke-width="1.3" stroke-opacity="0.533333" points="1820.65,-489.26 1812.67,-482.3 1814.56,-492.72 1820.65,-489.26"/>
</g>
<!-- /lib/main.dart&#45;&gt;/lib/services/git_service.dart -->
<g id="edge65" class="edge">
<title>/lib/main.dart&#45;&gt;/lib/services/git_service.dart</title>
<path fill="none" stroke="#aabbaa" stroke-width="1.3" stroke-opacity="0.533333" d="M1909.6,-566.97C1748.15,-566.71 924.27,-564.3 814,-542 679.07,-514.71 635.01,-512.07 526,-428 489.75,-400.04 481.24,-387.8 465,-345 452.41,-311.82 450.69,-270.65 451.27,-243.42"/>
<polygon fill="#aabbaa" fill-opacity="0.533333" stroke="#aabbaa" stroke-width="1.3" stroke-opacity="0.533333" points="454.76,-243.7 451.62,-233.59 447.77,-243.46 454.76,-243.7"/>
</g>
<!-- /lib/widgets/title_bar.dart -->
<g id="node32" class="node">
<title>/lib/widgets/title_bar.dart</title>
<path fill="Lavender" stroke="black" stroke-width="1.3" d="M2172.62,-314C2172.62,-314 2127.38,-314 2127.38,-314 2121.38,-314 2115.38,-308 2115.38,-302 2115.38,-302 2115.38,-290 2115.38,-290 2115.38,-284 2121.38,-278 2127.38,-278 2127.38,-278 2172.62,-278 2172.62,-278 2178.62,-278 2184.62,-284 2184.62,-290 2184.62,-290 2184.62,-302 2184.62,-302 2184.62,-308 2178.62,-314 2172.62,-314"/>
<text xml:space="preserve" text-anchor="middle" x="2150" y="-290.75" font-family="Arial" font-size="15.00">title_bar</text>
</g>
<!-- /lib/main.dart&#45;&gt;/lib/widgets/title_bar.dart -->
<g id="edge62" class="edge">
<title>/lib/main.dart&#45;&gt;/lib/widgets/title_bar.dart</title>
<path fill="none" stroke="#aabbaa" stroke-width="1.3" stroke-opacity="0.533333" d="M1964.37,-567.41C2011.53,-567.49 2105.13,-564.7 2127,-542 2183.27,-483.59 2168.73,-377.07 2157.46,-325.92"/>
<polygon fill="#aabbaa" fill-opacity="0.533333" stroke="#aabbaa" stroke-width="1.3" stroke-opacity="0.533333" points="2160.91,-325.32 2155.23,-316.38 2154.1,-326.91 2160.91,-325.32"/>
</g>
<!-- /lib/services/file_system_watcher.dart&#45;&gt;/lib/models/project_node.dart -->
<g id="edge67" class="edge">
<title>/lib/services/file_system_watcher.dart&#45;&gt;/lib/models/project_node.dart</title>
<path fill="none" stroke="#aabbaa" stroke-width="1.3" stroke-opacity="0.533333" d="M629.66,-194.49C643.95,-188.69 660.46,-182.76 676,-179 843.04,-138.6 1046.37,-127.34 1147.51,-124.21"/>
<polygon fill="#aabbaa" fill-opacity="0.533333" stroke="#aabbaa" stroke-width="1.3" stroke-opacity="0.533333" points="1147.47,-127.71 1157.36,-123.92 1147.27,-120.72 1147.47,-127.71"/>
</g>
<!-- /lib/services/file_system_service.dart&#45;&gt;/lib/models/file_system_item.dart -->
<g id="edge68" class="edge">
<title>/lib/services/file_system_service.dart&#45;&gt;/lib/models/file_system_item.dart</title>
<path fill="none" stroke="#aabbaa" stroke-width="1.3" stroke-opacity="0.533333" d="M255.61,-194.41C269.38,-188.74 285.16,-182.92 300,-179 608.2,-97.66 988.68,-65.73 1148.11,-55.32"/>
<polygon fill="#aabbaa" fill-opacity="0.533333" stroke="#aabbaa" stroke-width="1.3" stroke-opacity="0.533333" points="1147.94,-58.84 1157.7,-54.7 1147.5,-51.85 1147.94,-58.84"/>
</g>
<!-- /lib/services/editor_service.dart -->
<g id="node30" class="node">
<title>/lib/services/editor_service.dart</title>
<path fill="Lavender" stroke="black" stroke-width="1.3" d="M781.5,-231C781.5,-231 696.5,-231 696.5,-231 690.5,-231 684.5,-225 684.5,-219 684.5,-219 684.5,-207 684.5,-207 684.5,-201 690.5,-195 696.5,-195 696.5,-195 781.5,-195 781.5,-195 787.5,-195 793.5,-201 793.5,-207 793.5,-207 793.5,-219 793.5,-219 793.5,-225 787.5,-231 781.5,-231"/>
<text xml:space="preserve" text-anchor="middle" x="739" y="-207.75" font-family="Arial" font-size="15.00">editor_service</text>
</g>
<!-- /lib/widgets/title_bar.dart&#45;&gt;/lib/providers/app_providers.dart -->
<g id="edge69" class="edge">
<title>/lib/widgets/title_bar.dart&#45;&gt;/lib/providers/app_providers.dart</title>
<path fill="none" stroke="#aabbaa" stroke-width="1.3" stroke-opacity="0.533333" d="M2139.15,-277.42C2132.66,-266.92 2124.28,-253.34 2116.94,-241.44"/>
<polygon fill="#aabbaa" fill-opacity="0.533333" stroke="#aabbaa" stroke-width="1.3" stroke-opacity="0.533333" points="2120.09,-239.89 2111.86,-233.22 2114.14,-243.56 2120.09,-239.89"/>
</g>
<!-- /tool/sort_source.dart -->
<g id="node34" class="node">
<title>/tool/sort_source.dart</title>
<path fill="Lavender" stroke="black" stroke-width="1.3" d="M2181.38,-669C2181.38,-669 2110.62,-669 2110.62,-669 2104.62,-669 2098.62,-663 2098.62,-657 2098.62,-657 2098.62,-645 2098.62,-645 2098.62,-639 2104.62,-633 2110.62,-633 2110.62,-633 2181.38,-633 2181.38,-633 2187.38,-633 2193.38,-639 2193.38,-645 2193.38,-645 2193.38,-657 2193.38,-657 2193.38,-663 2187.38,-669 2181.38,-669"/>
<text xml:space="preserve" text-anchor="middle" x="2146" y="-645.75" font-family="Arial" font-size="15.00">sort_source</text>
</g>
</g>
</svg>
