<?xml version="1.0" encoding="UTF-8" standalone="no"?>
<!DOCTYPE svg PUBLIC "-//W3C//DTD SVG 1.1//EN"
 "http://www.w3.org/Graphics/SVG/1.1/DTD/svg11.dtd">
<!-- Generated by graphviz version 13.1.1 (20250719.2154)
 -->
<!-- Pages: 1 -->
<svg width="705pt" height="714pt"
 viewBox="0.00 0.00 705.00 714.00" xmlns="http://www.w3.org/2000/svg" xmlns:xlink="http://www.w3.org/1999/xlink">
<g id="graph0" class="graph" transform="scale(1 1) rotate(0) translate(4 710)">
<polygon fill="white" stroke="none" points="-4,4 -4,-710 701,-710 701,4 -4,4"/>
<g id="clust1" class="cluster">
<title>cluster~</title>
<path fill="none" stroke="lightgray" stroke-width="2.6" d="M20,-8C20,-8 677,-8 677,-8 683,-8 689,-14 689,-20 689,-20 689,-686 689,-686 689,-692 683,-698 677,-698 677,-698 20,-698 20,-698 14,-698 8,-692 8,-686 8,-686 8,-20 8,-20 8,-14 14,-8 20,-8"/>
<text xml:space="preserve" text-anchor="middle" x="348.5" y="-681.65" font-family="Arial Black" font-size="13.00">fide</text>
</g>
<g id="clust2" class="cluster">
<title>cluster~/test</title>
<path fill="none" stroke="lightgray" stroke-width="2.6" d="M467,-592C467,-592 551,-592 551,-592 557,-592 563,-598 563,-604 563,-604 563,-655 563,-655 563,-661 557,-667 551,-667 551,-667 467,-667 467,-667 461,-667 455,-661 455,-655 455,-655 455,-604 455,-604 455,-598 461,-592 467,-592"/>
<text xml:space="preserve" text-anchor="middle" x="509" y="-650.65" font-family="Arial Black" font-size="13.00">test</text>
</g>
<g id="clust3" class="cluster">
<title>cluster~/lib</title>
<path fill="none" stroke="lightgray" stroke-width="2.6" d="M28,-16C28,-16 669,-16 669,-16 675,-16 681,-22 681,-28 681,-28 681,-572 681,-572 681,-578 675,-584 669,-584 669,-584 28,-584 28,-584 22,-584 16,-578 16,-572 16,-572 16,-28 16,-28 16,-22 22,-16 28,-16"/>
<text xml:space="preserve" text-anchor="middle" x="348.5" y="-567.65" font-family="Arial Black" font-size="13.00">lib</text>
</g>
<g id="clust4" class="cluster">
<title>cluster~/lib/utils</title>
<path fill="none" stroke="lightgray" stroke-width="2.6" d="M88,-198C88,-198 186,-198 186,-198 192,-198 198,-204 198,-210 198,-210 198,-261 198,-261 198,-267 192,-273 186,-273 186,-273 88,-273 88,-273 82,-273 76,-267 76,-261 76,-261 76,-210 76,-210 76,-204 82,-198 88,-198"/>
<text xml:space="preserve" text-anchor="middle" x="137" y="-256.65" font-family="Arial Black" font-size="13.00">utils</text>
</g>
<g id="clust5" class="cluster">
<title>cluster~/lib/models</title>
<path fill="none" stroke="lightgray" stroke-width="2.6" d="M36,-24C36,-24 276,-24 276,-24 282,-24 288,-30 288,-36 288,-36 288,-87 288,-87 288,-93 282,-99 276,-99 276,-99 36,-99 36,-99 30,-99 24,-93 24,-87 24,-87 24,-36 24,-36 24,-30 30,-24 36,-24"/>
<text xml:space="preserve" text-anchor="middle" x="156" y="-82.65" font-family="Arial Black" font-size="13.00">models</text>
</g>
<g id="clust6" class="cluster">
<title>cluster~/lib/screens</title>
<path fill="none" stroke="lightgray" stroke-width="2.6" d="M213,-312C213,-312 579,-312 579,-312 585,-312 591,-318 591,-324 591,-324 591,-497 591,-497 591,-503 585,-509 579,-509 579,-509 213,-509 213,-509 207,-509 201,-503 201,-497 201,-497 201,-324 201,-324 201,-318 207,-312 213,-312"/>
<text xml:space="preserve" text-anchor="middle" x="396" y="-492.65" font-family="Arial Black" font-size="13.00">screens</text>
</g>
<g id="clust7" class="cluster">
<title>cluster~/lib/screens/explorer</title>
<path fill="none" stroke="lightgray" stroke-width="2.6" d="M451,-320C451,-320 571,-320 571,-320 577,-320 583,-326 583,-332 583,-332 583,-466 583,-466 583,-472 577,-478 571,-478 571,-478 451,-478 451,-478 445,-478 439,-472 439,-466 439,-466 439,-332 439,-332 439,-326 445,-320 451,-320"/>
<text xml:space="preserve" text-anchor="middle" x="511" y="-461.65" font-family="Arial Black" font-size="13.00">explorer</text>
</g>
<g id="clust8" class="cluster">
<title>cluster~/lib/screens/outline</title>
<path fill="none" stroke="lightgray" stroke-width="2.6" d="M222,-403C222,-403 318,-403 318,-403 324,-403 330,-409 330,-415 330,-415 330,-466 330,-466 330,-472 324,-478 318,-478 318,-478 222,-478 222,-478 216,-478 210,-472 210,-466 210,-466 210,-415 210,-415 210,-409 216,-403 222,-403"/>
<text xml:space="preserve" text-anchor="middle" x="270" y="-461.65" font-family="Arial Black" font-size="13.00">outline</text>
</g>
<g id="clust9" class="cluster">
<title>cluster~/lib/screens/editor</title>
<path fill="none" stroke="lightgray" stroke-width="2.6" d="M221,-320C221,-320 319,-320 319,-320 325,-320 331,-326 331,-332 331,-332 331,-383 331,-383 331,-389 325,-395 319,-395 319,-395 221,-395 221,-395 215,-395 209,-389 209,-383 209,-383 209,-332 209,-332 209,-326 215,-320 221,-320"/>
<text xml:space="preserve" text-anchor="middle" x="270" y="-378.65" font-family="Arial Black" font-size="13.00">editor</text>
</g>
<g id="clust10" class="cluster">
<title>cluster~/lib/screens/git</title>
<path fill="none" stroke="lightgray" stroke-width="2.6" d="M351,-320C351,-320 419,-320 419,-320 425,-320 431,-326 431,-332 431,-332 431,-383 431,-383 431,-389 425,-395 419,-395 419,-395 351,-395 351,-395 345,-395 339,-389 339,-383 339,-383 339,-332 339,-332 339,-326 345,-320 351,-320"/>
<text xml:space="preserve" text-anchor="middle" x="385" y="-378.65" font-family="Arial Black" font-size="13.00">git</text>
</g>
<g id="clust11" class="cluster">
<title>cluster~/lib/theme</title>
<path fill="none" stroke="lightgray" stroke-width="2.6" d="M525,-198C525,-198 609,-198 609,-198 615,-198 621,-204 621,-210 621,-210 621,-261 621,-261 621,-267 615,-273 609,-273 609,-273 525,-273 525,-273 519,-273 513,-267 513,-261 513,-261 513,-210 513,-210 513,-204 519,-198 525,-198"/>
<text xml:space="preserve" text-anchor="middle" x="567" y="-256.65" font-family="Arial Black" font-size="13.00">theme</text>
</g>
<g id="clust12" class="cluster">
<title>cluster~/lib/services</title>
<path fill="none" stroke="lightgray" stroke-width="2.6" d="M290,-107C290,-107 661,-107 661,-107 667,-107 673,-113 673,-119 673,-119 673,-170 673,-170 673,-176 667,-182 661,-182 661,-182 290,-182 290,-182 284,-182 278,-176 278,-170 278,-170 278,-119 278,-119 278,-113 284,-107 290,-107"/>
<text xml:space="preserve" text-anchor="middle" x="475.5" y="-165.65" font-family="Arial Black" font-size="13.00">services</text>
</g>
<g id="clust13" class="cluster">
<title>cluster~/lib/widgets</title>
<path fill="none" stroke="lightgray" stroke-width="2.6" d="M250,-190C250,-190 493,-190 493,-190 499,-190 505,-196 505,-202 505,-202 505,-292 505,-292 505,-298 499,-304 493,-304 493,-304 250,-304 250,-304 244,-304 238,-298 238,-292 238,-292 238,-202 238,-202 238,-196 244,-190 250,-190"/>
<text xml:space="preserve" text-anchor="middle" x="371.5" y="-287.65" font-family="Arial Black" font-size="13.00">widgets</text>
</g>
<g id="clust14" class="cluster">
<title>cluster~/lib/widgets/explorer</title>
<path fill="none" stroke="lightgray" stroke-width="2.6" d="M258,-198C258,-198 348,-198 348,-198 354,-198 360,-204 360,-210 360,-210 360,-261 360,-261 360,-267 354,-273 348,-273 348,-273 258,-273 258,-273 252,-273 246,-267 246,-261 246,-261 246,-210 246,-210 246,-204 252,-198 258,-198"/>
<text xml:space="preserve" text-anchor="middle" x="303" y="-256.65" font-family="Arial Black" font-size="13.00">explorer</text>
</g>
<g id="clust15" class="cluster">
<title>cluster~/tool</title>
<path fill="none" stroke="lightgray" stroke-width="2.6" d="M583,-592C583,-592 669,-592 669,-592 675,-592 681,-598 681,-604 681,-604 681,-655 681,-655 681,-661 675,-667 669,-667 669,-667 583,-667 583,-667 577,-667 571,-661 571,-655 571,-655 571,-604 571,-604 571,-598 577,-592 583,-592"/>
<text xml:space="preserve" text-anchor="middle" x="626" y="-650.65" font-family="Arial Black" font-size="13.00">tool</text>
</g>
<!-- /test/widget_test.dart -->
<g id="node1" class="node">
<title>/test/widget_test.dart</title>
<path fill="Lavender" stroke="black" stroke-width="1.3" d="M542.88,-636C542.88,-636 475.12,-636 475.12,-636 469.12,-636 463.12,-630 463.12,-624 463.12,-624 463.12,-612 463.12,-612 463.12,-606 469.12,-600 475.12,-600 475.12,-600 542.88,-600 542.88,-600 548.88,-600 554.88,-606 554.88,-612 554.88,-612 554.88,-624 554.88,-624 554.88,-630 548.88,-636 542.88,-636"/>
<text xml:space="preserve" text-anchor="middle" x="509" y="-612.75" font-family="Arial" font-size="15.00">widget_test</text>
</g>
<!-- /lib/main.dart -->
<g id="node10" class="node">
<title>/lib/main.dart</title>
<path fill="Lavender" stroke="black" stroke-width="1.3" d="M524,-553C524,-553 494,-553 494,-553 488,-553 482,-547 482,-541 482,-541 482,-529 482,-529 482,-523 488,-517 494,-517 494,-517 524,-517 524,-517 530,-517 536,-523 536,-529 536,-529 536,-541 536,-541 536,-547 530,-553 524,-553"/>
<text xml:space="preserve" text-anchor="middle" x="509" y="-529.75" font-family="Arial" font-size="15.00">main</text>
</g>
<!-- /test/widget_test.dart&#45;&gt;/lib/main.dart -->
<g id="edge1" class="edge">
<title>/test/widget_test.dart&#45;&gt;/lib/main.dart</title>
<path fill="none" stroke="#aabbaa" stroke-width="1.3" stroke-opacity="0.533333" d="M509,-599.42C509,-589.45 509,-576.7 509,-565.26"/>
<polygon fill="#aabbaa" fill-opacity="0.533333" stroke="#aabbaa" stroke-width="1.3" stroke-opacity="0.533333" points="512.5,-565.51 509,-555.51 505.5,-565.51 512.5,-565.51"/>
</g>
<!-- /lib/utils/file_type_utils.dart -->
<g id="node2" class="node">
<title>/lib/utils/file_type_utils.dart</title>
<path fill="Lavender" stroke="black" stroke-width="1.3" d="M178,-242C178,-242 96,-242 96,-242 90,-242 84,-236 84,-230 84,-230 84,-218 84,-218 84,-212 90,-206 96,-206 96,-206 178,-206 178,-206 184,-206 190,-212 190,-218 190,-218 190,-230 190,-230 190,-236 184,-242 178,-242"/>
<text xml:space="preserve" text-anchor="middle" x="137" y="-218.75" font-family="Arial" font-size="15.00">file_type_utils</text>
</g>
<!-- /lib/models/project_node.dart -->
<g id="node3" class="node">
<title>/lib/models/project_node.dart</title>
<path fill="Lavender" stroke="black" stroke-width="1.3" d="M122.12,-68C122.12,-68 43.88,-68 43.88,-68 37.88,-68 31.88,-62 31.88,-56 31.88,-56 31.88,-44 31.88,-44 31.88,-38 37.88,-32 43.88,-32 43.88,-32 122.12,-32 122.12,-32 128.12,-32 134.12,-38 134.12,-44 134.12,-44 134.12,-56 134.12,-56 134.12,-62 128.12,-68 122.12,-68"/>
<text xml:space="preserve" text-anchor="middle" x="83" y="-44.75" font-family="Arial" font-size="15.00">project_node</text>
</g>
<!-- /lib/models/file_system_item.dart -->
<g id="node4" class="node">
<title>/lib/models/file_system_item.dart</title>
<path fill="Lavender" stroke="black" stroke-width="1.3" d="M267.88,-68C267.88,-68 164.12,-68 164.12,-68 158.12,-68 152.12,-62 152.12,-56 152.12,-56 152.12,-44 152.12,-44 152.12,-38 158.12,-32 164.12,-32 164.12,-32 267.88,-32 267.88,-32 273.88,-32 279.88,-38 279.88,-44 279.88,-44 279.88,-56 279.88,-56 279.88,-62 273.88,-68 267.88,-68"/>
<text xml:space="preserve" text-anchor="middle" x="216" y="-44.75" font-family="Arial" font-size="15.00">file_system_item</text>
</g>
<!-- /lib/screens/explorer/explorer_screen.dart -->
<g id="node5" class="node">
<title>/lib/screens/explorer/explorer_screen.dart</title>
<path fill="Lavender" stroke="black" stroke-width="1.3" d="M558.62,-447C558.62,-447 459.38,-447 459.38,-447 453.38,-447 447.38,-441 447.38,-435 447.38,-435 447.38,-423 447.38,-423 447.38,-417 453.38,-411 459.38,-411 459.38,-411 558.62,-411 558.62,-411 564.62,-411 570.62,-417 570.62,-423 570.62,-423 570.62,-435 570.62,-435 570.62,-441 564.62,-447 558.62,-447"/>
<text xml:space="preserve" text-anchor="middle" x="509" y="-423.75" font-family="Arial" font-size="15.00">explorer_screen</text>
</g>
<!-- /lib/screens/explorer/explorer_screen.dart&#45;&gt;/lib/models/project_node.dart -->
<g id="edge2" class="edge">
<title>/lib/screens/explorer/explorer_screen.dart&#45;&gt;/lib/models/project_node.dart</title>
<path fill="none" stroke="#aabbaa" stroke-width="1.3" stroke-opacity="0.533333" d="M446.82,-417.55C413.46,-412.34 371.59,-406.44 334,-403 312.07,-401 155.33,-405.54 136,-395 46.36,-346.13 59.1,-283.69 50,-182 47.03,-148.8 41.23,-139.16 50,-107 52.7,-97.09 57.65,-87.15 62.91,-78.46"/>
<polygon fill="#aabbaa" fill-opacity="0.533333" stroke="#aabbaa" stroke-width="1.3" stroke-opacity="0.533333" points="65.76,-80.49 68.28,-70.2 59.89,-76.68 65.76,-80.49"/>
</g>
<!-- /lib/screens/explorer/explorer_screen.dart&#45;&gt;/lib/models/file_system_item.dart -->
<g id="edge3" class="edge">
<title>/lib/screens/explorer/explorer_screen.dart&#45;&gt;/lib/models/file_system_item.dart</title>
<path fill="none" stroke="#aabbaa" stroke-width="1.3" stroke-opacity="0.533333" d="M446.81,-417.63C413.45,-412.44 371.58,-406.54 334,-403 324.31,-402.09 165.72,-402.04 159,-395 133.52,-368.33 134.73,-339.78 159,-312 176.41,-292.07 200.11,-323.5 218,-304 247.25,-272.13 230.3,-139.5 220.93,-80.05"/>
<polygon fill="#aabbaa" fill-opacity="0.533333" stroke="#aabbaa" stroke-width="1.3" stroke-opacity="0.533333" points="224.44,-79.79 219.38,-70.48 217.53,-80.91 224.44,-79.79"/>
</g>
<!-- /lib/screens/explorer/welcome_screen.dart -->
<g id="node6" class="node">
<title>/lib/screens/explorer/welcome_screen.dart</title>
<path fill="Lavender" stroke="black" stroke-width="1.3" d="M562.88,-364C562.88,-364 459.12,-364 459.12,-364 453.12,-364 447.12,-358 447.12,-352 447.12,-352 447.12,-340 447.12,-340 447.12,-334 453.12,-328 459.12,-328 459.12,-328 562.88,-328 562.88,-328 568.88,-328 574.88,-334 574.88,-340 574.88,-340 574.88,-352 574.88,-352 574.88,-358 568.88,-364 562.88,-364"/>
<text xml:space="preserve" text-anchor="middle" x="511" y="-340.75" font-family="Arial" font-size="15.00">welcome_screen</text>
</g>
<!-- /lib/screens/explorer/explorer_screen.dart&#45;&gt;/lib/screens/explorer/welcome_screen.dart -->
<g id="edge5" class="edge">
<title>/lib/screens/explorer/explorer_screen.dart&#45;&gt;/lib/screens/explorer/welcome_screen.dart</title>
<path fill="none" stroke="#aabbaa" stroke-width="1.3" stroke-opacity="0.533333" d="M509.43,-410.42C509.68,-400.45 510,-387.7 510.28,-376.26"/>
<polygon fill="#aabbaa" fill-opacity="0.533333" stroke="#aabbaa" stroke-width="1.3" stroke-opacity="0.533333" points="513.77,-376.59 510.52,-366.51 506.77,-376.42 513.77,-376.59"/>
</g>
<!-- /lib/screens/git/git_panel.dart -->
<g id="node9" class="node">
<title>/lib/screens/git/git_panel.dart</title>
<path fill="Lavender" stroke="black" stroke-width="1.3" d="M411,-364C411,-364 359,-364 359,-364 353,-364 347,-358 347,-352 347,-352 347,-340 347,-340 347,-334 353,-328 359,-328 359,-328 411,-328 411,-328 417,-328 423,-334 423,-340 423,-340 423,-352 423,-352 423,-358 417,-364 411,-364"/>
<text xml:space="preserve" text-anchor="middle" x="385" y="-340.75" font-family="Arial" font-size="15.00">git_panel</text>
</g>
<!-- /lib/screens/explorer/explorer_screen.dart&#45;&gt;/lib/screens/git/git_panel.dart -->
<g id="edge6" class="edge">
<title>/lib/screens/explorer/explorer_screen.dart&#45;&gt;/lib/screens/git/git_panel.dart</title>
<path fill="none" stroke="#aabbaa" stroke-width="1.3" stroke-opacity="0.533333" d="M463.07,-410.49C453.46,-406.02 443.64,-400.81 435,-395 425.72,-388.75 416.58,-380.71 408.71,-373"/>
<polygon fill="#aabbaa" fill-opacity="0.533333" stroke="#aabbaa" stroke-width="1.3" stroke-opacity="0.533333" points="411.3,-370.64 401.79,-365.96 406.3,-375.55 411.3,-370.64"/>
</g>
<!-- /lib/theme/app_theme.dart -->
<g id="node11" class="node">
<title>/lib/theme/app_theme.dart</title>
<path fill="Lavender" stroke="black" stroke-width="1.3" d="M600.5,-242C600.5,-242 533.5,-242 533.5,-242 527.5,-242 521.5,-236 521.5,-230 521.5,-230 521.5,-218 521.5,-218 521.5,-212 527.5,-206 533.5,-206 533.5,-206 600.5,-206 600.5,-206 606.5,-206 612.5,-212 612.5,-218 612.5,-218 612.5,-230 612.5,-230 612.5,-236 606.5,-242 600.5,-242"/>
<text xml:space="preserve" text-anchor="middle" x="567" y="-218.75" font-family="Arial" font-size="15.00">app_theme</text>
</g>
<!-- /lib/screens/explorer/explorer_screen.dart&#45;&gt;/lib/theme/app_theme.dart -->
<g id="edge7" class="edge">
<title>/lib/screens/explorer/explorer_screen.dart&#45;&gt;/lib/theme/app_theme.dart</title>
<path fill="none" stroke="#aabbaa" stroke-width="1.3" stroke-opacity="0.533333" d="M446.78,-417.88C413.42,-412.76 371.55,-406.84 334,-403 319.71,-401.54 214.84,-405.46 205,-395 179.74,-368.12 179.26,-338.43 205,-312 216.79,-299.9 494.03,-311.83 509,-304 529.73,-293.16 544.92,-271.18 554.54,-253.15"/>
<polygon fill="#aabbaa" fill-opacity="0.533333" stroke="#aabbaa" stroke-width="1.3" stroke-opacity="0.533333" points="557.61,-254.85 558.94,-244.33 551.34,-251.72 557.61,-254.85"/>
</g>
<!-- /lib/widgets/message_widget.dart -->
<g id="node16" class="node">
<title>/lib/widgets/message_widget.dart</title>
<path fill="Lavender" stroke="black" stroke-width="1.3" d="M484.88,-242C484.88,-242 381.12,-242 381.12,-242 375.12,-242 369.12,-236 369.12,-230 369.12,-230 369.12,-218 369.12,-218 369.12,-212 375.12,-206 381.12,-206 381.12,-206 484.88,-206 484.88,-206 490.88,-206 496.88,-212 496.88,-218 496.88,-218 496.88,-230 496.88,-230 496.88,-236 490.88,-242 484.88,-242"/>
<text xml:space="preserve" text-anchor="middle" x="433" y="-218.75" font-family="Arial" font-size="15.00">message_widget</text>
</g>
<!-- /lib/screens/explorer/explorer_screen.dart&#45;&gt;/lib/widgets/message_widget.dart -->
<g id="edge4" class="edge">
<title>/lib/screens/explorer/explorer_screen.dart&#45;&gt;/lib/widgets/message_widget.dart</title>
<path fill="none" stroke="#aabbaa" stroke-width="1.3" stroke-opacity="0.533333" d="M446.8,-417.74C413.44,-412.58 371.57,-406.66 334,-403 325.58,-402.18 187.82,-401.13 182,-395 156.61,-368.24 156.49,-338.65 182,-312 196,-297.38 345.76,-312.78 364,-304 386.77,-293.05 405.13,-270.75 417.17,-252.64"/>
<polygon fill="#aabbaa" fill-opacity="0.533333" stroke="#aabbaa" stroke-width="1.3" stroke-opacity="0.533333" points="420.09,-254.56 422.46,-244.23 414.17,-250.83 420.09,-254.56"/>
</g>
<!-- /lib/screens/outline/outline_panel.dart -->
<g id="node7" class="node">
<title>/lib/screens/outline/outline_panel.dart</title>
<path fill="Lavender" stroke="black" stroke-width="1.3" d="M309.88,-447C309.88,-447 230.12,-447 230.12,-447 224.12,-447 218.12,-441 218.12,-435 218.12,-435 218.12,-423 218.12,-423 218.12,-417 224.12,-411 230.12,-411 230.12,-411 309.88,-411 309.88,-411 315.88,-411 321.88,-417 321.88,-423 321.88,-423 321.88,-435 321.88,-435 321.88,-441 315.88,-447 309.88,-447"/>
<text xml:space="preserve" text-anchor="middle" x="270" y="-423.75" font-family="Arial" font-size="15.00">outline_panel</text>
</g>
<!-- /lib/screens/outline/outline_panel.dart&#45;&gt;/lib/models/file_system_item.dart -->
<g id="edge9" class="edge">
<title>/lib/screens/outline/outline_panel.dart&#45;&gt;/lib/models/file_system_item.dart</title>
<path fill="none" stroke="#aabbaa" stroke-width="1.3" stroke-opacity="0.533333" d="M235.08,-410.36C228.23,-407.49 221,-404.86 214,-403 196.52,-398.36 145.15,-408.4 133,-395 108.23,-367.66 108.46,-339.55 133,-312 153.53,-288.95 180.84,-326.48 202,-304 231.64,-272.52 224.02,-140.21 218.88,-80.48"/>
<polygon fill="#aabbaa" fill-opacity="0.533333" stroke="#aabbaa" stroke-width="1.3" stroke-opacity="0.533333" points="222.37,-80.18 217.98,-70.53 215.39,-80.81 222.37,-80.18"/>
</g>
<!-- /lib/screens/editor/editor_screen.dart -->
<g id="node8" class="node">
<title>/lib/screens/editor/editor_screen.dart</title>
<path fill="Lavender" stroke="black" stroke-width="1.3" d="M311.38,-364C311.38,-364 228.62,-364 228.62,-364 222.62,-364 216.62,-358 216.62,-352 216.62,-352 216.62,-340 216.62,-340 216.62,-334 222.62,-328 228.62,-328 228.62,-328 311.38,-328 311.38,-328 317.38,-328 323.38,-334 323.38,-340 323.38,-340 323.38,-352 323.38,-352 323.38,-358 317.38,-364 311.38,-364"/>
<text xml:space="preserve" text-anchor="middle" x="270" y="-340.75" font-family="Arial" font-size="15.00">editor_screen</text>
</g>
<!-- /lib/screens/outline/outline_panel.dart&#45;&gt;/lib/screens/editor/editor_screen.dart -->
<g id="edge10" class="edge">
<title>/lib/screens/outline/outline_panel.dart&#45;&gt;/lib/screens/editor/editor_screen.dart</title>
<path fill="none" stroke="#aabbaa" stroke-width="1.3" stroke-opacity="0.533333" d="M270,-410.42C270,-400.45 270,-387.7 270,-376.26"/>
<polygon fill="#aabbaa" fill-opacity="0.533333" stroke="#aabbaa" stroke-width="1.3" stroke-opacity="0.533333" points="273.5,-376.51 270,-366.51 266.5,-376.51 273.5,-376.51"/>
</g>
<!-- /lib/screens/outline/outline_panel.dart&#45;&gt;/lib/theme/app_theme.dart -->
<g id="edge8" class="edge">
<title>/lib/screens/outline/outline_panel.dart&#45;&gt;/lib/theme/app_theme.dart</title>
<path fill="none" stroke="#aabbaa" stroke-width="1.3" stroke-opacity="0.533333" d="M233,-410.44C226.73,-407.77 220.23,-405.18 214,-403 200.57,-398.31 191.71,-406.25 183,-395 160.41,-365.84 157.24,-338.4 183,-312 195.65,-299.03 492.94,-312.38 509,-304 529.74,-293.18 544.93,-271.2 554.55,-253.16"/>
<polygon fill="#aabbaa" fill-opacity="0.533333" stroke="#aabbaa" stroke-width="1.3" stroke-opacity="0.533333" points="557.62,-254.85 558.94,-244.34 551.35,-251.73 557.62,-254.85"/>
</g>
<!-- /lib/screens/editor/editor_screen.dart&#45;&gt;/lib/utils/file_type_utils.dart -->
<g id="edge12" class="edge">
<title>/lib/screens/editor/editor_screen.dart&#45;&gt;/lib/utils/file_type_utils.dart</title>
<path fill="none" stroke="#aabbaa" stroke-width="1.3" stroke-opacity="0.533333" d="M250.66,-327.55C228.1,-307.2 190.63,-273.39 164.92,-250.19"/>
<polygon fill="#aabbaa" fill-opacity="0.533333" stroke="#aabbaa" stroke-width="1.3" stroke-opacity="0.533333" points="167.59,-247.89 157.82,-243.79 162.9,-253.09 167.59,-247.89"/>
</g>
<!-- /lib/screens/editor/editor_screen.dart&#45;&gt;/lib/widgets/message_widget.dart -->
<g id="edge11" class="edge">
<title>/lib/screens/editor/editor_screen.dart&#45;&gt;/lib/widgets/message_widget.dart</title>
<path fill="none" stroke="#aabbaa" stroke-width="1.3" stroke-opacity="0.533333" d="M301.49,-327.41C311.95,-322.01 323.79,-316.34 335,-312 347.47,-307.17 352.68,-311.11 364,-304 385.01,-290.8 403.2,-269.27 415.62,-252.02"/>
<polygon fill="#aabbaa" fill-opacity="0.533333" stroke="#aabbaa" stroke-width="1.3" stroke-opacity="0.533333" points="418.31,-254.28 421.13,-244.07 412.56,-250.3 418.31,-254.28"/>
</g>
<!-- /lib/screens/git/git_panel.dart&#45;&gt;/lib/theme/app_theme.dart -->
<g id="edge13" class="edge">
<title>/lib/screens/git/git_panel.dart&#45;&gt;/lib/theme/app_theme.dart</title>
<path fill="none" stroke="#aabbaa" stroke-width="1.3" stroke-opacity="0.533333" d="M406.68,-327.44C415.05,-321.56 425.02,-315.59 435,-312 466.13,-300.8 480.33,-320.51 509,-304 529.15,-292.4 544.31,-270.67 554.07,-252.94"/>
<polygon fill="#aabbaa" fill-opacity="0.533333" stroke="#aabbaa" stroke-width="1.3" stroke-opacity="0.533333" points="557.06,-254.78 558.54,-244.29 550.84,-251.56 557.06,-254.78"/>
</g>
<!-- /lib/services/git_service.dart -->
<g id="node12" class="node">
<title>/lib/services/git_service.dart</title>
<path fill="Lavender" stroke="black" stroke-width="1.3" d="M525.62,-151C525.62,-151 462.38,-151 462.38,-151 456.38,-151 450.38,-145 450.38,-139 450.38,-139 450.38,-127 450.38,-127 450.38,-121 456.38,-115 462.38,-115 462.38,-115 525.62,-115 525.62,-115 531.62,-115 537.62,-121 537.62,-127 537.62,-127 537.62,-139 537.62,-139 537.62,-145 531.62,-151 525.62,-151"/>
<text xml:space="preserve" text-anchor="middle" x="494" y="-127.75" font-family="Arial" font-size="15.00">git_service</text>
</g>
<!-- /lib/screens/git/git_panel.dart&#45;&gt;/lib/services/git_service.dart -->
<g id="edge14" class="edge">
<title>/lib/screens/git/git_panel.dart&#45;&gt;/lib/services/git_service.dart</title>
<path fill="none" stroke="#aabbaa" stroke-width="1.3" stroke-opacity="0.533333" d="M406.06,-327.43C414.53,-321.4 424.71,-315.33 435,-312 455.1,-305.5 610.38,-319.25 625,-304 660.07,-267.43 658.95,-227.61 625,-190 613.32,-177.07 562.92,-189.09 547,-182 535.43,-176.85 524.67,-168.18 515.91,-159.62"/>
<polygon fill="#aabbaa" fill-opacity="0.533333" stroke="#aabbaa" stroke-width="1.3" stroke-opacity="0.533333" points="518.66,-157.44 509.22,-152.64 513.61,-162.28 518.66,-157.44"/>
</g>
<!-- /lib/main.dart&#45;&gt;/lib/utils/file_type_utils.dart -->
<g id="edge24" class="edge">
<title>/lib/main.dart&#45;&gt;/lib/utils/file_type_utils.dart</title>
<path fill="none" stroke="#aabbaa" stroke-width="1.3" stroke-opacity="0.533333" d="M481.51,-534.44C416.16,-535.05 253.41,-533.95 206,-509 148.14,-478.55 134.94,-456.6 113,-395 96,-347.28 112.15,-287.99 124.93,-253.53"/>
<polygon fill="#aabbaa" fill-opacity="0.533333" stroke="#aabbaa" stroke-width="1.3" stroke-opacity="0.533333" points="128.17,-254.86 128.53,-244.27 121.65,-252.32 128.17,-254.86"/>
</g>
<!-- /lib/main.dart&#45;&gt;/lib/models/project_node.dart -->
<g id="edge23" class="edge">
<title>/lib/main.dart&#45;&gt;/lib/models/project_node.dart</title>
<path fill="none" stroke="#aabbaa" stroke-width="1.3" stroke-opacity="0.533333" d="M481.57,-534.37C388.98,-535.36 92.02,-536.35 60,-509 3.99,-461.16 25,-420.66 25,-347 25,-347 25,-347 25,-223 25,-170.96 21.2,-155.13 41,-107 45.35,-96.44 52.16,-86.08 59.05,-77.2"/>
<polygon fill="#aabbaa" fill-opacity="0.533333" stroke="#aabbaa" stroke-width="1.3" stroke-opacity="0.533333" points="61.55,-79.68 65.19,-69.73 56.14,-75.24 61.55,-79.68"/>
</g>
<!-- /lib/main.dart&#45;&gt;/lib/models/file_system_item.dart -->
<g id="edge22" class="edge">
<title>/lib/main.dart&#45;&gt;/lib/models/file_system_item.dart</title>
<path fill="none" stroke="#aabbaa" stroke-width="1.3" stroke-opacity="0.533333" d="M481.36,-534.06C396.18,-533.98 141.65,-531.84 113,-509 54.27,-462.2 65,-422.09 65,-347 65,-347 65,-347 65,-223 65,-208.01 64.73,-203.11 72,-190 98.6,-142.01 147.17,-100.33 180.49,-75.44"/>
<polygon fill="#aabbaa" fill-opacity="0.533333" stroke="#aabbaa" stroke-width="1.3" stroke-opacity="0.533333" points="182.29,-78.47 188.29,-69.74 178.15,-72.82 182.29,-78.47"/>
</g>
<!-- /lib/main.dart&#45;&gt;/lib/screens/explorer/explorer_screen.dart -->
<g id="edge15" class="edge">
<title>/lib/main.dart&#45;&gt;/lib/screens/explorer/explorer_screen.dart</title>
<path fill="none" stroke="#aabbaa" stroke-width="1.3" stroke-opacity="0.533333" d="M509,-516.36C509,-500.73 509,-477.59 509,-459.2"/>
<polygon fill="#aabbaa" fill-opacity="0.533333" stroke="#aabbaa" stroke-width="1.3" stroke-opacity="0.533333" points="512.5,-459.35 509,-449.35 505.5,-459.35 512.5,-459.35"/>
</g>
<!-- /lib/main.dart&#45;&gt;/lib/screens/explorer/welcome_screen.dart -->
<g id="edge16" class="edge">
<title>/lib/main.dart&#45;&gt;/lib/screens/explorer/welcome_screen.dart</title>
<path fill="none" stroke="#aabbaa" stroke-width="1.3" stroke-opacity="0.533333" d="M536.46,-534.34C556.73,-532.96 583.12,-527.38 597,-509 625.4,-471.41 622.67,-442.5 597,-403 592.23,-395.66 586.61,-399.32 579,-395 566.88,-388.12 554.24,-379.6 543.19,-371.67"/>
<polygon fill="#aabbaa" fill-opacity="0.533333" stroke="#aabbaa" stroke-width="1.3" stroke-opacity="0.533333" points="545.27,-368.86 535.14,-365.77 541.13,-374.5 545.27,-368.86"/>
</g>
<!-- /lib/main.dart&#45;&gt;/lib/screens/outline/outline_panel.dart -->
<g id="edge18" class="edge">
<title>/lib/main.dart&#45;&gt;/lib/screens/outline/outline_panel.dart</title>
<path fill="none" stroke="#aabbaa" stroke-width="1.3" stroke-opacity="0.533333" d="M481.65,-525.63C467.56,-521.1 450.2,-515.18 435,-509 393.24,-492.02 347.06,-469.58 314.2,-452.96"/>
<polygon fill="#aabbaa" fill-opacity="0.533333" stroke="#aabbaa" stroke-width="1.3" stroke-opacity="0.533333" points="315.84,-449.87 305.34,-448.45 312.67,-456.11 315.84,-449.87"/>
</g>
<!-- /lib/main.dart&#45;&gt;/lib/screens/editor/editor_screen.dart -->
<g id="edge17" class="edge">
<title>/lib/main.dart&#45;&gt;/lib/screens/editor/editor_screen.dart</title>
<path fill="none" stroke="#aabbaa" stroke-width="1.3" stroke-opacity="0.533333" d="M536.45,-533.02C553.99,-530.79 575.52,-524.74 587,-509 593.94,-499.49 595.19,-411.46 587,-403 577.25,-392.94 348.23,-399.59 335,-395 321.06,-390.16 307.6,-381.2 296.58,-372.31"/>
<polygon fill="#aabbaa" fill-opacity="0.533333" stroke="#aabbaa" stroke-width="1.3" stroke-opacity="0.533333" points="298.95,-369.73 289.07,-365.91 294.41,-375.06 298.95,-369.73"/>
</g>
<!-- /lib/main.dart&#45;&gt;/lib/theme/app_theme.dart -->
<g id="edge21" class="edge">
<title>/lib/main.dart&#45;&gt;/lib/theme/app_theme.dart</title>
<path fill="none" stroke="#aabbaa" stroke-width="1.3" stroke-opacity="0.533333" d="M536.48,-531.13C563.75,-527.66 602.76,-520.75 612,-509 672.17,-432.48 614.57,-307.75 583.7,-252.66"/>
<polygon fill="#aabbaa" fill-opacity="0.533333" stroke="#aabbaa" stroke-width="1.3" stroke-opacity="0.533333" points="586.92,-251.24 578.9,-244.31 580.85,-254.72 586.92,-251.24"/>
</g>
<!-- /lib/main.dart&#45;&gt;/lib/services/git_service.dart -->
<g id="edge20" class="edge">
<title>/lib/main.dart&#45;&gt;/lib/services/git_service.dart</title>
<path fill="none" stroke="#aabbaa" stroke-width="1.3" stroke-opacity="0.533333" d="M536.38,-533.43C574.84,-531.99 641.86,-526.91 657,-509 713.52,-442.13 662,-399.41 657,-312 653.88,-257.51 682.19,-227.99 643,-190 627.63,-175.1 566.64,-190.52 547,-182 535.38,-176.96 524.61,-168.31 515.85,-159.74"/>
<polygon fill="#aabbaa" fill-opacity="0.533333" stroke="#aabbaa" stroke-width="1.3" stroke-opacity="0.533333" points="518.61,-157.56 509.17,-152.74 513.55,-162.39 518.61,-157.56"/>
</g>
<!-- /lib/services/file_system_service.dart -->
<g id="node13" class="node">
<title>/lib/services/file_system_service.dart</title>
<path fill="Lavender" stroke="black" stroke-width="1.3" d="M420.25,-151C420.25,-151 297.75,-151 297.75,-151 291.75,-151 285.75,-145 285.75,-139 285.75,-139 285.75,-127 285.75,-127 285.75,-121 291.75,-115 297.75,-115 297.75,-115 420.25,-115 420.25,-115 426.25,-115 432.25,-121 432.25,-127 432.25,-127 432.25,-139 432.25,-139 432.25,-145 426.25,-151 420.25,-151"/>
<text xml:space="preserve" text-anchor="middle" x="359" y="-127.75" font-family="Arial" font-size="15.00">file_system_service</text>
</g>
<!-- /lib/main.dart&#45;&gt;/lib/services/file_system_service.dart -->
<g id="edge19" class="edge">
<title>/lib/main.dart&#45;&gt;/lib/services/file_system_service.dart</title>
<path fill="none" stroke="#aabbaa" stroke-width="1.3" stroke-opacity="0.533333" d="M536.61,-532.24C568.61,-529.56 618.45,-523.18 630,-509 641.19,-495.26 637.52,-202.55 625,-190 610.55,-175.51 460.63,-187.78 441,-182 423.68,-176.9 406.19,-167.39 391.83,-158.17"/>
<polygon fill="#aabbaa" fill-opacity="0.533333" stroke="#aabbaa" stroke-width="1.3" stroke-opacity="0.533333" points="393.87,-155.32 383.61,-152.67 389.98,-161.14 393.87,-155.32"/>
</g>
<!-- /lib/services/file_system_service.dart&#45;&gt;/lib/models/file_system_item.dart -->
<g id="edge25" class="edge">
<title>/lib/services/file_system_service.dart&#45;&gt;/lib/models/file_system_item.dart</title>
<path fill="none" stroke="#aabbaa" stroke-width="1.3" stroke-opacity="0.533333" d="M327.97,-114.42C307.26,-102.7 279.81,-87.14 257.26,-74.37"/>
<polygon fill="#aabbaa" fill-opacity="0.533333" stroke="#aabbaa" stroke-width="1.3" stroke-opacity="0.533333" points="259.11,-71.39 248.68,-69.51 255.66,-77.49 259.11,-71.39"/>
</g>
<!-- /lib/services/editor_service.dart -->
<g id="node14" class="node">
<title>/lib/services/editor_service.dart</title>
<path fill="Lavender" stroke="black" stroke-width="1.3" d="M652.5,-151C652.5,-151 567.5,-151 567.5,-151 561.5,-151 555.5,-145 555.5,-139 555.5,-139 555.5,-127 555.5,-127 555.5,-121 561.5,-115 567.5,-115 567.5,-115 652.5,-115 652.5,-115 658.5,-115 664.5,-121 664.5,-127 664.5,-127 664.5,-139 664.5,-139 664.5,-145 658.5,-151 652.5,-151"/>
<text xml:space="preserve" text-anchor="middle" x="610" y="-127.75" font-family="Arial" font-size="15.00">editor_service</text>
</g>
<!-- /lib/widgets/explorer/file_explorer.dart -->
<g id="node15" class="node">
<title>/lib/widgets/explorer/file_explorer.dart</title>
<path fill="Lavender" stroke="black" stroke-width="1.3" d="M339.5,-242C339.5,-242 266.5,-242 266.5,-242 260.5,-242 254.5,-236 254.5,-230 254.5,-230 254.5,-218 254.5,-218 254.5,-212 260.5,-206 266.5,-206 266.5,-206 339.5,-206 339.5,-206 345.5,-206 351.5,-212 351.5,-218 351.5,-218 351.5,-230 351.5,-230 351.5,-236 345.5,-242 339.5,-242"/>
<text xml:space="preserve" text-anchor="middle" x="303" y="-218.75" font-family="Arial" font-size="15.00">file_explorer</text>
</g>
<!-- /lib/widgets/explorer/file_explorer.dart&#45;&gt;/lib/models/file_system_item.dart -->
<g id="edge27" class="edge">
<title>/lib/widgets/explorer/file_explorer.dart&#45;&gt;/lib/models/file_system_item.dart</title>
<path fill="none" stroke="#aabbaa" stroke-width="1.3" stroke-opacity="0.533333" d="M289.5,-205.55C284.32,-198.45 278.56,-190.04 274,-182 254.75,-148.08 237.32,-106.57 226.71,-79.49"/>
<polygon fill="#aabbaa" fill-opacity="0.533333" stroke="#aabbaa" stroke-width="1.3" stroke-opacity="0.533333" points="230.03,-78.39 223.17,-70.32 223.5,-80.91 230.03,-78.39"/>
</g>
<!-- /lib/widgets/explorer/file_explorer.dart&#45;&gt;/lib/services/file_system_service.dart -->
<g id="edge26" class="edge">
<title>/lib/widgets/explorer/file_explorer.dart&#45;&gt;/lib/services/file_system_service.dart</title>
<path fill="none" stroke="#aabbaa" stroke-width="1.3" stroke-opacity="0.533333" d="M314.06,-205.42C321.96,-192.86 332.75,-175.73 341.77,-161.39"/>
<polygon fill="#aabbaa" fill-opacity="0.533333" stroke="#aabbaa" stroke-width="1.3" stroke-opacity="0.533333" points="344.55,-163.54 346.91,-153.21 338.62,-159.81 344.55,-163.54"/>
</g>
<!-- /tool/sort_source.dart -->
<g id="node17" class="node">
<title>/tool/sort_source.dart</title>
<path fill="Lavender" stroke="black" stroke-width="1.3" d="M661.38,-636C661.38,-636 590.62,-636 590.62,-636 584.62,-636 578.62,-630 578.62,-624 578.62,-624 578.62,-612 578.62,-612 578.62,-606 584.62,-600 590.62,-600 590.62,-600 661.38,-600 661.38,-600 667.38,-600 673.38,-606 673.38,-612 673.38,-612 673.38,-624 673.38,-624 673.38,-630 667.38,-636 661.38,-636"/>
<text xml:space="preserve" text-anchor="middle" x="626" y="-612.75" font-family="Arial" font-size="15.00">sort_source</text>
</g>
</g>
</svg>
