<?xml version="1.0" encoding="UTF-8" standalone="no"?>
<!DOCTYPE svg PUBLIC "-//W3C//DTD SVG 1.1//EN"
 "http://www.w3.org/Graphics/SVG/1.1/DTD/svg11.dtd">
<!-- Generated by graphviz version 13.1.1 (20250719.2154)
 -->
<!-- Pages: 1 -->
<svg width="1068pt" height="542pt"
 viewBox="0.00 0.00 1068.00 542.00" xmlns="http://www.w3.org/2000/svg" xmlns:xlink="http://www.w3.org/1999/xlink">
<g id="graph0" class="graph" transform="scale(1 1) rotate(0) translate(4 538)">
<polygon fill="white" stroke="none" points="-4,4 -4,-538 1064,-538 1064,4 -4,4"/>
<g id="clust1" class="cluster">
<title>cluster~</title>
<path fill="none" stroke="lightgray" stroke-width="2.6" d="M20,-8C20,-8 1040,-8 1040,-8 1046,-8 1052,-14 1052,-20 1052,-20 1052,-514 1052,-514 1052,-520 1046,-526 1040,-526 1040,-526 20,-526 20,-526 14,-526 8,-520 8,-514 8,-514 8,-20 8,-20 8,-14 14,-8 20,-8"/>
<text xml:space="preserve" text-anchor="middle" x="530" y="-509.65" font-family="Arial Black" font-size="13.00">fide</text>
</g>
<g id="clust2" class="cluster">
<title>cluster~/test</title>
<path fill="none" stroke="lightgray" stroke-width="2.6" d="M507,-420C507,-420 591,-420 591,-420 597,-420 603,-426 603,-432 603,-432 603,-483 603,-483 603,-489 597,-495 591,-495 591,-495 507,-495 507,-495 501,-495 495,-489 495,-483 495,-483 495,-432 495,-432 495,-426 501,-420 507,-420"/>
<text xml:space="preserve" text-anchor="middle" x="549" y="-478.65" font-family="Arial Black" font-size="13.00">test</text>
</g>
<g id="clust3" class="cluster">
<title>cluster~/lib</title>
<path fill="none" stroke="lightgray" stroke-width="2.6" d="M28,-16C28,-16 1032,-16 1032,-16 1038,-16 1044,-22 1044,-28 1044,-28 1044,-400 1044,-400 1044,-406 1038,-412 1032,-412 1032,-412 28,-412 28,-412 22,-412 16,-406 16,-400 16,-400 16,-28 16,-28 16,-22 22,-16 28,-16"/>
<text xml:space="preserve" text-anchor="middle" x="530" y="-395.65" font-family="Arial Black" font-size="13.00">lib</text>
</g>
<g id="clust4" class="cluster">
<title>cluster~/lib/providers</title>
<path fill="none" stroke="lightgray" stroke-width="2.6" d="M910,-107C910,-107 1012,-107 1012,-107 1018,-107 1024,-113 1024,-119 1024,-119 1024,-170 1024,-170 1024,-176 1018,-182 1012,-182 1012,-182 910,-182 910,-182 904,-182 898,-176 898,-170 898,-170 898,-119 898,-119 898,-113 904,-107 910,-107"/>
<text xml:space="preserve" text-anchor="middle" x="961" y="-165.65" font-family="Arial Black" font-size="13.00">providers</text>
</g>
<g id="clust5" class="cluster">
<title>cluster~/lib/utils</title>
<path fill="none" stroke="lightgray" stroke-width="2.6" d="M204,-107C204,-107 446,-107 446,-107 452,-107 458,-113 458,-119 458,-119 458,-170 458,-170 458,-176 452,-182 446,-182 446,-182 204,-182 204,-182 198,-182 192,-176 192,-170 192,-170 192,-119 192,-119 192,-113 198,-107 204,-107"/>
<text xml:space="preserve" text-anchor="middle" x="325" y="-165.65" font-family="Arial Black" font-size="13.00">utils</text>
</g>
<g id="clust6" class="cluster">
<title>cluster~/lib/models</title>
<path fill="none" stroke="lightgray" stroke-width="2.6" d="M487,-24C487,-24 727,-24 727,-24 733,-24 739,-30 739,-36 739,-36 739,-87 739,-87 739,-93 733,-99 727,-99 727,-99 487,-99 487,-99 481,-99 475,-93 475,-87 475,-87 475,-36 475,-36 475,-30 481,-24 487,-24"/>
<text xml:space="preserve" text-anchor="middle" x="607" y="-82.65" font-family="Arial Black" font-size="13.00">models</text>
</g>
<g id="clust7" class="cluster">
<title>cluster~/lib/screens</title>
<path fill="none" stroke="lightgray" stroke-width="2.6" d="M148,-190C148,-190 486,-190 486,-190 492,-190 498,-196 498,-202 498,-202 498,-325 498,-325 498,-331 492,-337 486,-337 486,-337 148,-337 148,-337 142,-337 136,-331 136,-325 136,-325 136,-202 136,-202 136,-196 142,-190 148,-190"/>
<text xml:space="preserve" text-anchor="middle" x="317" y="-320.65" font-family="Arial Black" font-size="13.00">screens</text>
</g>
<g id="clust8" class="cluster">
<title>cluster~/lib/theme</title>
<path fill="none" stroke="lightgray" stroke-width="2.6" d="M88,-107C88,-107 172,-107 172,-107 178,-107 184,-113 184,-119 184,-119 184,-170 184,-170 184,-176 178,-182 172,-182 172,-182 88,-182 88,-182 82,-182 76,-176 76,-170 76,-170 76,-119 76,-119 76,-113 82,-107 88,-107"/>
<text xml:space="preserve" text-anchor="middle" x="130" y="-165.65" font-family="Arial Black" font-size="13.00">theme</text>
</g>
<g id="clust9" class="cluster">
<title>cluster~/lib/services</title>
<path fill="none" stroke="lightgray" stroke-width="2.6" d="M492,-107C492,-107 864,-107 864,-107 870,-107 876,-113 876,-119 876,-119 876,-170 876,-170 876,-176 870,-182 864,-182 864,-182 492,-182 492,-182 486,-182 480,-176 480,-170 480,-170 480,-119 480,-119 480,-113 486,-107 492,-107"/>
<text xml:space="preserve" text-anchor="middle" x="678" y="-165.65" font-family="Arial Black" font-size="13.00">services</text>
</g>
<g id="clust10" class="cluster">
<title>cluster~/lib/widgets</title>
<path fill="none" stroke="lightgray" stroke-width="2.6" d="M599,-190C599,-190 949,-190 949,-190 955,-190 961,-196 961,-202 961,-202 961,-325 961,-325 961,-331 955,-337 949,-337 949,-337 599,-337 599,-337 593,-337 587,-331 587,-325 587,-325 587,-202 587,-202 587,-196 593,-190 599,-190"/>
<text xml:space="preserve" text-anchor="middle" x="774" y="-320.65" font-family="Arial Black" font-size="13.00">widgets</text>
</g>
<g id="clust11" class="cluster">
<title>cluster~/tool</title>
<path fill="none" stroke="lightgray" stroke-width="2.6" d="M784,-420C784,-420 870,-420 870,-420 876,-420 882,-426 882,-432 882,-432 882,-483 882,-483 882,-489 876,-495 870,-495 870,-495 784,-495 784,-495 778,-495 772,-489 772,-483 772,-483 772,-432 772,-432 772,-426 778,-420 784,-420"/>
<text xml:space="preserve" text-anchor="middle" x="827" y="-478.65" font-family="Arial Black" font-size="13.00">tool</text>
</g>
<!-- /test/widget_test.dart -->
<g id="node1" class="node">
<title>/test/widget_test.dart</title>
<path fill="Lavender" stroke="black" stroke-width="1.3" d="M582.88,-464C582.88,-464 515.12,-464 515.12,-464 509.12,-464 503.12,-458 503.12,-452 503.12,-452 503.12,-440 503.12,-440 503.12,-434 509.12,-428 515.12,-428 515.12,-428 582.88,-428 582.88,-428 588.88,-428 594.88,-434 594.88,-440 594.88,-440 594.88,-452 594.88,-452 594.88,-458 588.88,-464 582.88,-464"/>
<text xml:space="preserve" text-anchor="middle" x="549" y="-440.75" font-family="Arial" font-size="15.00">widget_test</text>
</g>
<!-- /lib/main.dart -->
<g id="node12" class="node">
<title>/lib/main.dart</title>
<path fill="Lavender" stroke="black" stroke-width="1.3" d="M564,-381C564,-381 534,-381 534,-381 528,-381 522,-375 522,-369 522,-369 522,-357 522,-357 522,-351 528,-345 534,-345 534,-345 564,-345 564,-345 570,-345 576,-351 576,-357 576,-357 576,-369 576,-369 576,-375 570,-381 564,-381"/>
<text xml:space="preserve" text-anchor="middle" x="549" y="-357.75" font-family="Arial" font-size="15.00">main</text>
</g>
<!-- /test/widget_test.dart&#45;&gt;/lib/main.dart -->
<g id="edge1" class="edge">
<title>/test/widget_test.dart&#45;&gt;/lib/main.dart</title>
<path fill="none" stroke="#aabbaa" stroke-width="1.3" stroke-opacity="0.533333" d="M549,-427.42C549,-417.45 549,-404.7 549,-393.26"/>
<polygon fill="#aabbaa" fill-opacity="0.533333" stroke="#aabbaa" stroke-width="1.3" stroke-opacity="0.533333" points="552.5,-393.51 549,-383.51 545.5,-393.51 552.5,-393.51"/>
</g>
<!-- /lib/providers/app_providers.dart -->
<g id="node2" class="node">
<title>/lib/providers/app_providers.dart</title>
<path fill="Lavender" stroke="black" stroke-width="1.3" d="M1004.25,-151C1004.25,-151 917.75,-151 917.75,-151 911.75,-151 905.75,-145 905.75,-139 905.75,-139 905.75,-127 905.75,-127 905.75,-121 911.75,-115 917.75,-115 917.75,-115 1004.25,-115 1004.25,-115 1010.25,-115 1016.25,-121 1016.25,-127 1016.25,-127 1016.25,-139 1016.25,-139 1016.25,-145 1010.25,-151 1004.25,-151"/>
<text xml:space="preserve" text-anchor="middle" x="961" y="-127.75" font-family="Arial" font-size="15.00">app_providers</text>
</g>
<!-- /lib/models/project_node.dart -->
<g id="node5" class="node">
<title>/lib/models/project_node.dart</title>
<path fill="Lavender" stroke="black" stroke-width="1.3" d="M573.12,-68C573.12,-68 494.88,-68 494.88,-68 488.88,-68 482.88,-62 482.88,-56 482.88,-56 482.88,-44 482.88,-44 482.88,-38 488.88,-32 494.88,-32 494.88,-32 573.12,-32 573.12,-32 579.12,-32 585.12,-38 585.12,-44 585.12,-44 585.12,-56 585.12,-56 585.12,-62 579.12,-68 573.12,-68"/>
<text xml:space="preserve" text-anchor="middle" x="534" y="-44.75" font-family="Arial" font-size="15.00">project_node</text>
</g>
<!-- /lib/providers/app_providers.dart&#45;&gt;/lib/models/project_node.dart -->
<g id="edge3" class="edge">
<title>/lib/providers/app_providers.dart&#45;&gt;/lib/models/project_node.dart</title>
<path fill="none" stroke="#aabbaa" stroke-width="1.3" stroke-opacity="0.533333" d="M911.39,-114.37C901.13,-111.38 890.31,-108.7 880,-107 848.63,-101.82 623.85,-109.94 594,-99 580.96,-94.22 568.6,-85.39 558.53,-76.59"/>
<polygon fill="#aabbaa" fill-opacity="0.533333" stroke="#aabbaa" stroke-width="1.3" stroke-opacity="0.533333" points="561.11,-74.22 551.4,-69.98 556.35,-79.35 561.11,-74.22"/>
</g>
<!-- /lib/models/file_system_item.dart -->
<g id="node6" class="node">
<title>/lib/models/file_system_item.dart</title>
<path fill="Lavender" stroke="black" stroke-width="1.3" d="M718.88,-68C718.88,-68 615.12,-68 615.12,-68 609.12,-68 603.12,-62 603.12,-56 603.12,-56 603.12,-44 603.12,-44 603.12,-38 609.12,-32 615.12,-32 615.12,-32 718.88,-32 718.88,-32 724.88,-32 730.88,-38 730.88,-44 730.88,-44 730.88,-56 730.88,-56 730.88,-62 724.88,-68 718.88,-68"/>
<text xml:space="preserve" text-anchor="middle" x="667" y="-44.75" font-family="Arial" font-size="15.00">file_system_item</text>
</g>
<!-- /lib/providers/app_providers.dart&#45;&gt;/lib/models/file_system_item.dart -->
<g id="edge2" class="edge">
<title>/lib/providers/app_providers.dart&#45;&gt;/lib/models/file_system_item.dart</title>
<path fill="none" stroke="#aabbaa" stroke-width="1.3" stroke-opacity="0.533333" d="M914.45,-114.39C906.99,-111.79 899.31,-109.23 892,-107 842.87,-92.03 786.82,-78.07 742.95,-67.83"/>
<polygon fill="#aabbaa" fill-opacity="0.533333" stroke="#aabbaa" stroke-width="1.3" stroke-opacity="0.533333" points="743.94,-64.47 733.41,-65.62 742.36,-71.29 743.94,-64.47"/>
</g>
<!-- /lib/utils/message_helper.dart -->
<g id="node3" class="node">
<title>/lib/utils/message_helper.dart</title>
<path fill="Lavender" stroke="black" stroke-width="1.3" d="M314.12,-151C314.12,-151 211.88,-151 211.88,-151 205.88,-151 199.88,-145 199.88,-139 199.88,-139 199.88,-127 199.88,-127 199.88,-121 205.88,-115 211.88,-115 211.88,-115 314.12,-115 314.12,-115 320.12,-115 326.12,-121 326.12,-127 326.12,-127 326.12,-139 326.12,-139 326.12,-145 320.12,-151 314.12,-151"/>
<text xml:space="preserve" text-anchor="middle" x="263" y="-127.75" font-family="Arial" font-size="15.00">message_helper</text>
</g>
<!-- /lib/widgets/message_widget.dart -->
<g id="node21" class="node">
<title>/lib/widgets/message_widget.dart</title>
<path fill="Lavender" stroke="black" stroke-width="1.3" d="M710.88,-306C710.88,-306 607.12,-306 607.12,-306 601.12,-306 595.12,-300 595.12,-294 595.12,-294 595.12,-282 595.12,-282 595.12,-276 601.12,-270 607.12,-270 607.12,-270 710.88,-270 710.88,-270 716.88,-270 722.88,-276 722.88,-282 722.88,-282 722.88,-294 722.88,-294 722.88,-300 716.88,-306 710.88,-306"/>
<text xml:space="preserve" text-anchor="middle" x="659" y="-282.75" font-family="Arial" font-size="15.00">message_widget</text>
</g>
<!-- /lib/utils/message_helper.dart&#45;&gt;/lib/widgets/message_widget.dart -->
<g id="edge4" class="edge">
<title>/lib/utils/message_helper.dart&#45;&gt;/lib/widgets/message_widget.dart</title>
<path fill="none" stroke="#aabbaa" stroke-width="1.3" stroke-opacity="0.533333" d="M282.82,-151.58C296.47,-162.52 315.57,-175.67 335,-182 354.98,-188.52 507.85,-176.54 524,-190 539.41,-202.84 521.13,-218.62 534,-234 542.54,-244.2 567.85,-255.71 593.48,-265.39"/>
<polygon fill="#aabbaa" fill-opacity="0.533333" stroke="#aabbaa" stroke-width="1.3" stroke-opacity="0.533333" points="591.99,-268.58 602.59,-268.74 594.41,-262.01 591.99,-268.58"/>
</g>
<!-- /lib/utils/file_type_utils.dart -->
<g id="node4" class="node">
<title>/lib/utils/file_type_utils.dart</title>
<path fill="Lavender" stroke="black" stroke-width="1.3" d="M438,-151C438,-151 356,-151 356,-151 350,-151 344,-145 344,-139 344,-139 344,-127 344,-127 344,-121 350,-115 356,-115 356,-115 438,-115 438,-115 444,-115 450,-121 450,-127 450,-127 450,-139 450,-139 450,-145 444,-151 438,-151"/>
<text xml:space="preserve" text-anchor="middle" x="397" y="-127.75" font-family="Arial" font-size="15.00">file_type_utils</text>
</g>
<!-- /lib/screens/git_panel.dart -->
<g id="node7" class="node">
<title>/lib/screens/git_panel.dart</title>
<path fill="Lavender" stroke="black" stroke-width="1.3" d="M208,-234C208,-234 156,-234 156,-234 150,-234 144,-228 144,-222 144,-222 144,-210 144,-210 144,-204 150,-198 156,-198 156,-198 208,-198 208,-198 214,-198 220,-204 220,-210 220,-210 220,-222 220,-222 220,-228 214,-234 208,-234"/>
<text xml:space="preserve" text-anchor="middle" x="182" y="-210.75" font-family="Arial" font-size="15.00">git_panel</text>
</g>
<!-- /lib/theme/app_theme.dart -->
<g id="node13" class="node">
<title>/lib/theme/app_theme.dart</title>
<path fill="Lavender" stroke="black" stroke-width="1.3" d="M163.5,-151C163.5,-151 96.5,-151 96.5,-151 90.5,-151 84.5,-145 84.5,-139 84.5,-139 84.5,-127 84.5,-127 84.5,-121 90.5,-115 96.5,-115 96.5,-115 163.5,-115 163.5,-115 169.5,-115 175.5,-121 175.5,-127 175.5,-127 175.5,-139 175.5,-139 175.5,-145 169.5,-151 163.5,-151"/>
<text xml:space="preserve" text-anchor="middle" x="130" y="-127.75" font-family="Arial" font-size="15.00">app_theme</text>
</g>
<!-- /lib/screens/git_panel.dart&#45;&gt;/lib/theme/app_theme.dart -->
<g id="edge5" class="edge">
<title>/lib/screens/git_panel.dart&#45;&gt;/lib/theme/app_theme.dart</title>
<path fill="none" stroke="#aabbaa" stroke-width="1.3" stroke-opacity="0.533333" d="M170.72,-197.42C163.97,-186.92 155.25,-173.34 147.62,-161.44"/>
<polygon fill="#aabbaa" fill-opacity="0.533333" stroke="#aabbaa" stroke-width="1.3" stroke-opacity="0.533333" points="150.67,-159.72 142.32,-153.2 144.78,-163.5 150.67,-159.72"/>
</g>
<!-- /lib/services/git_service.dart -->
<g id="node14" class="node">
<title>/lib/services/git_service.dart</title>
<path fill="Lavender" stroke="black" stroke-width="1.3" d="M563.62,-151C563.62,-151 500.38,-151 500.38,-151 494.38,-151 488.38,-145 488.38,-139 488.38,-139 488.38,-127 488.38,-127 488.38,-121 494.38,-115 500.38,-115 500.38,-115 563.62,-115 563.62,-115 569.62,-115 575.62,-121 575.62,-127 575.62,-127 575.62,-139 575.62,-139 575.62,-145 569.62,-151 563.62,-151"/>
<text xml:space="preserve" text-anchor="middle" x="532" y="-127.75" font-family="Arial" font-size="15.00">git_service</text>
</g>
<!-- /lib/screens/git_panel.dart&#45;&gt;/lib/services/git_service.dart -->
<g id="edge6" class="edge">
<title>/lib/screens/git_panel.dart&#45;&gt;/lib/services/git_service.dart</title>
<path fill="none" stroke="#aabbaa" stroke-width="1.3" stroke-opacity="0.533333" d="M210.23,-197.36C216.22,-194.38 222.66,-191.7 229,-190 279.05,-176.6 412.78,-198.18 462,-182 476.87,-177.11 491.46,-168.01 503.43,-159.04"/>
<polygon fill="#aabbaa" fill-opacity="0.533333" stroke="#aabbaa" stroke-width="1.3" stroke-opacity="0.533333" points="505.6,-161.79 511.28,-152.85 501.26,-156.29 505.6,-161.79"/>
</g>
<!-- /lib/screens/explorer_screen.dart -->
<g id="node8" class="node">
<title>/lib/screens/explorer_screen.dart</title>
<path fill="Lavender" stroke="black" stroke-width="1.3" d="M377.62,-306C377.62,-306 278.38,-306 278.38,-306 272.38,-306 266.38,-300 266.38,-294 266.38,-294 266.38,-282 266.38,-282 266.38,-276 272.38,-270 278.38,-270 278.38,-270 377.62,-270 377.62,-270 383.62,-270 389.62,-276 389.62,-282 389.62,-282 389.62,-294 389.62,-294 389.62,-300 383.62,-306 377.62,-306"/>
<text xml:space="preserve" text-anchor="middle" x="328" y="-282.75" font-family="Arial" font-size="15.00">explorer_screen</text>
</g>
<!-- /lib/screens/explorer_screen.dart&#45;&gt;/lib/utils/message_helper.dart -->
<g id="edge9" class="edge">
<title>/lib/screens/explorer_screen.dart&#45;&gt;/lib/utils/message_helper.dart</title>
<path fill="none" stroke="#aabbaa" stroke-width="1.3" stroke-opacity="0.533333" d="M265.85,-271.85C211.02,-258.19 139.14,-239.43 135,-234 123.14,-218.45 122.25,-204.82 135,-190 142.77,-180.97 176.85,-186.19 188,-182 203.19,-176.29 218.53,-167.2 231.34,-158.45"/>
<polygon fill="#aabbaa" fill-opacity="0.533333" stroke="#aabbaa" stroke-width="1.3" stroke-opacity="0.533333" points="233.29,-161.36 239.42,-152.72 229.24,-155.65 233.29,-161.36"/>
</g>
<!-- /lib/screens/explorer_screen.dart&#45;&gt;/lib/models/project_node.dart -->
<g id="edge7" class="edge">
<title>/lib/screens/explorer_screen.dart&#45;&gt;/lib/models/project_node.dart</title>
<path fill="none" stroke="#aabbaa" stroke-width="1.3" stroke-opacity="0.533333" d="M266.07,-272.04C263.01,-271.34 259.97,-270.66 257,-270 178.62,-252.65 141.29,-285.85 80,-234 36.38,-197.1 22.04,-149.71 60,-107 86.84,-76.81 347.83,-60.12 470.67,-53.88"/>
<polygon fill="#aabbaa" fill-opacity="0.533333" stroke="#aabbaa" stroke-width="1.3" stroke-opacity="0.533333" points="470.69,-57.38 480.5,-53.39 470.34,-50.39 470.69,-57.38"/>
</g>
<!-- /lib/screens/explorer_screen.dart&#45;&gt;/lib/models/file_system_item.dart -->
<g id="edge8" class="edge">
<title>/lib/screens/explorer_screen.dart&#45;&gt;/lib/models/file_system_item.dart</title>
<path fill="none" stroke="#aabbaa" stroke-width="1.3" stroke-opacity="0.533333" d="M265.99,-272.13C201.08,-256.55 108.42,-234.29 108,-234 84.81,-218.11 80.38,-208.83 72,-182 62.06,-150.18 48.61,-130.75 72,-107 82.18,-96.67 580.14,-103.26 594,-99 609.67,-94.18 625.12,-84.87 637.75,-75.72"/>
<polygon fill="#aabbaa" fill-opacity="0.533333" stroke="#aabbaa" stroke-width="1.3" stroke-opacity="0.533333" points="639.82,-78.55 645.65,-69.7 635.58,-72.98 639.82,-78.55"/>
</g>
<!-- /lib/screens/explorer_screen.dart&#45;&gt;/lib/screens/git_panel.dart -->
<g id="edge11" class="edge">
<title>/lib/screens/explorer_screen.dart&#45;&gt;/lib/screens/git_panel.dart</title>
<path fill="none" stroke="#aabbaa" stroke-width="1.3" stroke-opacity="0.533333" d="M291.53,-269.52C272.71,-260.49 249.51,-249.37 229.31,-239.68"/>
<polygon fill="#aabbaa" fill-opacity="0.533333" stroke="#aabbaa" stroke-width="1.3" stroke-opacity="0.533333" points="231.06,-236.64 220.53,-235.48 228.04,-242.95 231.06,-236.64"/>
</g>
<!-- /lib/screens/welcome_screen.dart -->
<g id="node11" class="node">
<title>/lib/screens/welcome_screen.dart</title>
<path fill="Lavender" stroke="black" stroke-width="1.3" d="M477.88,-234C477.88,-234 374.12,-234 374.12,-234 368.12,-234 362.12,-228 362.12,-222 362.12,-222 362.12,-210 362.12,-210 362.12,-204 368.12,-198 374.12,-198 374.12,-198 477.88,-198 477.88,-198 483.88,-198 489.88,-204 489.88,-210 489.88,-210 489.88,-222 489.88,-222 489.88,-228 483.88,-234 477.88,-234"/>
<text xml:space="preserve" text-anchor="middle" x="426" y="-210.75" font-family="Arial" font-size="15.00">welcome_screen</text>
</g>
<!-- /lib/screens/explorer_screen.dart&#45;&gt;/lib/screens/welcome_screen.dart -->
<g id="edge10" class="edge">
<title>/lib/screens/explorer_screen.dart&#45;&gt;/lib/screens/welcome_screen.dart</title>
<path fill="none" stroke="#aabbaa" stroke-width="1.3" stroke-opacity="0.533333" d="M352.48,-269.52C364.4,-261 378.94,-250.61 391.93,-241.33"/>
<polygon fill="#aabbaa" fill-opacity="0.533333" stroke="#aabbaa" stroke-width="1.3" stroke-opacity="0.533333" points="393.79,-244.31 399.89,-235.65 389.72,-238.61 393.79,-244.31"/>
</g>
<!-- /lib/screens/explorer_screen.dart&#45;&gt;/lib/theme/app_theme.dart -->
<g id="edge12" class="edge">
<title>/lib/screens/explorer_screen.dart&#45;&gt;/lib/theme/app_theme.dart</title>
<path fill="none" stroke="#aabbaa" stroke-width="1.3" stroke-opacity="0.533333" d="M266,-272.01C206.18,-257.39 124.29,-236.95 122,-234 106.51,-214.02 111.16,-184.56 118.08,-162.78"/>
<polygon fill="#aabbaa" fill-opacity="0.533333" stroke="#aabbaa" stroke-width="1.3" stroke-opacity="0.533333" points="121.35,-164.04 121.4,-153.44 114.75,-161.7 121.35,-164.04"/>
</g>
<!-- /lib/screens/outline_panel.dart -->
<g id="node9" class="node">
<title>/lib/screens/outline_panel.dart</title>
<path fill="Lavender" stroke="black" stroke-width="1.3" d="M235.88,-306C235.88,-306 156.12,-306 156.12,-306 150.12,-306 144.12,-300 144.12,-294 144.12,-294 144.12,-282 144.12,-282 144.12,-276 150.12,-270 156.12,-270 156.12,-270 235.88,-270 235.88,-270 241.88,-270 247.88,-276 247.88,-282 247.88,-282 247.88,-294 247.88,-294 247.88,-300 241.88,-306 235.88,-306"/>
<text xml:space="preserve" text-anchor="middle" x="196" y="-282.75" font-family="Arial" font-size="15.00">outline_panel</text>
</g>
<!-- /lib/screens/outline_panel.dart&#45;&gt;/lib/models/file_system_item.dart -->
<g id="edge14" class="edge">
<title>/lib/screens/outline_panel.dart&#45;&gt;/lib/models/file_system_item.dart</title>
<path fill="none" stroke="#aabbaa" stroke-width="1.3" stroke-opacity="0.533333" d="M148.22,-269.41C128.76,-260.72 106.92,-248.87 90,-234 46.02,-195.35 13.91,-148.71 55,-107 65.51,-96.33 579.69,-103.4 594,-99 609.67,-94.18 625.13,-84.87 637.75,-75.73"/>
<polygon fill="#aabbaa" fill-opacity="0.533333" stroke="#aabbaa" stroke-width="1.3" stroke-opacity="0.533333" points="639.82,-78.55 645.65,-69.71 635.58,-72.98 639.82,-78.55"/>
</g>
<!-- /lib/screens/editor_screen.dart -->
<g id="node10" class="node">
<title>/lib/screens/editor_screen.dart</title>
<path fill="Lavender" stroke="black" stroke-width="1.3" d="M332.38,-234C332.38,-234 249.62,-234 249.62,-234 243.62,-234 237.62,-228 237.62,-222 237.62,-222 237.62,-210 237.62,-210 237.62,-204 243.62,-198 249.62,-198 249.62,-198 332.38,-198 332.38,-198 338.38,-198 344.38,-204 344.38,-210 344.38,-210 344.38,-222 344.38,-222 344.38,-228 338.38,-234 332.38,-234"/>
<text xml:space="preserve" text-anchor="middle" x="291" y="-210.75" font-family="Arial" font-size="15.00">editor_screen</text>
</g>
<!-- /lib/screens/outline_panel.dart&#45;&gt;/lib/screens/editor_screen.dart -->
<g id="edge15" class="edge">
<title>/lib/screens/outline_panel.dart&#45;&gt;/lib/screens/editor_screen.dart</title>
<path fill="none" stroke="#aabbaa" stroke-width="1.3" stroke-opacity="0.533333" d="M219.48,-269.7C231.04,-261.18 245.18,-250.76 257.82,-241.45"/>
<polygon fill="#aabbaa" fill-opacity="0.533333" stroke="#aabbaa" stroke-width="1.3" stroke-opacity="0.533333" points="259.57,-244.51 265.54,-235.76 255.42,-238.87 259.57,-244.51"/>
</g>
<!-- /lib/screens/outline_panel.dart&#45;&gt;/lib/theme/app_theme.dart -->
<g id="edge13" class="edge">
<title>/lib/screens/outline_panel.dart&#45;&gt;/lib/theme/app_theme.dart</title>
<path fill="none" stroke="#aabbaa" stroke-width="1.3" stroke-opacity="0.533333" d="M143.53,-270.33C126.61,-262.19 109.72,-250.48 100,-234 86.6,-211.3 98.11,-182.12 110.55,-161.15"/>
<polygon fill="#aabbaa" fill-opacity="0.533333" stroke="#aabbaa" stroke-width="1.3" stroke-opacity="0.533333" points="113.35,-163.27 115.76,-152.95 107.44,-159.51 113.35,-163.27"/>
</g>
<!-- /lib/screens/editor_screen.dart&#45;&gt;/lib/utils/message_helper.dart -->
<g id="edge16" class="edge">
<title>/lib/screens/editor_screen.dart&#45;&gt;/lib/utils/message_helper.dart</title>
<path fill="none" stroke="#aabbaa" stroke-width="1.3" stroke-opacity="0.533333" d="M284.92,-197.42C281.4,-187.23 276.88,-174.16 272.86,-162.53"/>
<polygon fill="#aabbaa" fill-opacity="0.533333" stroke="#aabbaa" stroke-width="1.3" stroke-opacity="0.533333" points="276.28,-161.71 269.71,-153.4 269.67,-164 276.28,-161.71"/>
</g>
<!-- /lib/screens/editor_screen.dart&#45;&gt;/lib/utils/file_type_utils.dart -->
<g id="edge17" class="edge">
<title>/lib/screens/editor_screen.dart&#45;&gt;/lib/utils/file_type_utils.dart</title>
<path fill="none" stroke="#aabbaa" stroke-width="1.3" stroke-opacity="0.533333" d="M314.34,-197.6C321.03,-192.58 328.32,-187.09 335,-182 344.83,-174.51 355.48,-166.3 365.13,-158.82"/>
<polygon fill="#aabbaa" fill-opacity="0.533333" stroke="#aabbaa" stroke-width="1.3" stroke-opacity="0.533333" points="367.08,-161.74 372.83,-152.84 362.79,-156.21 367.08,-161.74"/>
</g>
<!-- /lib/main.dart&#45;&gt;/lib/providers/app_providers.dart -->
<g id="edge18" class="edge">
<title>/lib/main.dart&#45;&gt;/lib/providers/app_providers.dart</title>
<path fill="none" stroke="#aabbaa" stroke-width="1.3" stroke-opacity="0.533333" d="M576.57,-361.37C667.31,-359.17 951.67,-351.16 965,-337 1009.27,-289.99 988.13,-206.3 972.53,-162.5"/>
<polygon fill="#aabbaa" fill-opacity="0.533333" stroke="#aabbaa" stroke-width="1.3" stroke-opacity="0.533333" points="975.89,-161.51 969.12,-153.37 969.33,-163.96 975.89,-161.51"/>
</g>
<!-- /lib/main.dart&#45;&gt;/lib/screens/editor_screen.dart -->
<g id="edge20" class="edge">
<title>/lib/main.dart&#45;&gt;/lib/screens/editor_screen.dart</title>
<path fill="none" stroke="#aabbaa" stroke-width="1.3" stroke-opacity="0.533333" d="M521.72,-347.19C515.84,-343.9 509.68,-340.39 504,-337 456.45,-308.66 447.26,-297.13 399,-270 380.13,-259.39 358.83,-248.68 340.17,-239.7"/>
<polygon fill="#aabbaa" fill-opacity="0.533333" stroke="#aabbaa" stroke-width="1.3" stroke-opacity="0.533333" points="341.83,-236.61 331.3,-235.47 338.82,-242.93 341.83,-236.61"/>
</g>
<!-- /lib/main.dart&#45;&gt;/lib/theme/app_theme.dart -->
<g id="edge22" class="edge">
<title>/lib/main.dart&#45;&gt;/lib/theme/app_theme.dart</title>
<path fill="none" stroke="#aabbaa" stroke-width="1.3" stroke-opacity="0.533333" d="M540.8,-344.4C539.79,-341.94 538.82,-339.42 538,-337 532.59,-321.08 515.1,-200.55 502,-190 488.41,-179.05 204.34,-188.12 188,-182 175.39,-177.27 163.53,-168.57 153.86,-159.87"/>
<polygon fill="#aabbaa" fill-opacity="0.533333" stroke="#aabbaa" stroke-width="1.3" stroke-opacity="0.533333" points="156.36,-157.42 146.73,-153.01 151.51,-162.46 156.36,-157.42"/>
</g>
<!-- /lib/main.dart&#45;&gt;/lib/services/git_service.dart -->
<g id="edge21" class="edge">
<title>/lib/main.dart&#45;&gt;/lib/services/git_service.dart</title>
<path fill="none" stroke="#aabbaa" stroke-width="1.3" stroke-opacity="0.533333" d="M547.69,-344.49C544.79,-305.53 537.77,-211.35 534.18,-163.28"/>
<polygon fill="#aabbaa" fill-opacity="0.533333" stroke="#aabbaa" stroke-width="1.3" stroke-opacity="0.533333" points="537.69,-163.25 533.46,-153.53 530.71,-163.77 537.69,-163.25"/>
</g>
<!-- /lib/widgets/main_layout.dart -->
<g id="node19" class="node">
<title>/lib/widgets/main_layout.dart</title>
<path fill="Lavender" stroke="black" stroke-width="1.3" d="M825.12,-306C825.12,-306 752.88,-306 752.88,-306 746.88,-306 740.88,-300 740.88,-294 740.88,-294 740.88,-282 740.88,-282 740.88,-276 746.88,-270 752.88,-270 752.88,-270 825.12,-270 825.12,-270 831.12,-270 837.12,-276 837.12,-282 837.12,-282 837.12,-294 837.12,-294 837.12,-300 831.12,-306 825.12,-306"/>
<text xml:space="preserve" text-anchor="middle" x="789" y="-282.75" font-family="Arial" font-size="15.00">main_layout</text>
</g>
<!-- /lib/main.dart&#45;&gt;/lib/widgets/main_layout.dart -->
<g id="edge19" class="edge">
<title>/lib/main.dart&#45;&gt;/lib/widgets/main_layout.dart</title>
<path fill="none" stroke="#aabbaa" stroke-width="1.3" stroke-opacity="0.533333" d="M576.65,-362.91C613.65,-363.11 680.57,-359.84 732,-337 744.01,-331.67 755.46,-323.01 764.9,-314.51"/>
<polygon fill="#aabbaa" fill-opacity="0.533333" stroke="#aabbaa" stroke-width="1.3" stroke-opacity="0.533333" points="767.04,-317.31 771.87,-307.88 762.22,-312.24 767.04,-317.31"/>
</g>
<!-- /lib/services/file_system_service.dart -->
<g id="node15" class="node">
<title>/lib/services/file_system_service.dart</title>
<path fill="Lavender" stroke="black" stroke-width="1.3" d="M728.25,-151C728.25,-151 605.75,-151 605.75,-151 599.75,-151 593.75,-145 593.75,-139 593.75,-139 593.75,-127 593.75,-127 593.75,-121 599.75,-115 605.75,-115 605.75,-115 728.25,-115 728.25,-115 734.25,-115 740.25,-121 740.25,-127 740.25,-127 740.25,-139 740.25,-139 740.25,-145 734.25,-151 728.25,-151"/>
<text xml:space="preserve" text-anchor="middle" x="667" y="-127.75" font-family="Arial" font-size="15.00">file_system_service</text>
</g>
<!-- /lib/services/file_system_service.dart&#45;&gt;/lib/models/file_system_item.dart -->
<g id="edge23" class="edge">
<title>/lib/services/file_system_service.dart&#45;&gt;/lib/models/file_system_item.dart</title>
<path fill="none" stroke="#aabbaa" stroke-width="1.3" stroke-opacity="0.533333" d="M667,-114.42C667,-104.45 667,-91.7 667,-80.26"/>
<polygon fill="#aabbaa" fill-opacity="0.533333" stroke="#aabbaa" stroke-width="1.3" stroke-opacity="0.533333" points="670.5,-80.51 667,-70.51 663.5,-80.51 670.5,-80.51"/>
</g>
<!-- /lib/services/editor_service.dart -->
<g id="node16" class="node">
<title>/lib/services/editor_service.dart</title>
<path fill="Lavender" stroke="black" stroke-width="1.3" d="M855.5,-151C855.5,-151 770.5,-151 770.5,-151 764.5,-151 758.5,-145 758.5,-139 758.5,-139 758.5,-127 758.5,-127 758.5,-121 764.5,-115 770.5,-115 770.5,-115 855.5,-115 855.5,-115 861.5,-115 867.5,-121 867.5,-127 867.5,-127 867.5,-139 867.5,-139 867.5,-145 861.5,-151 855.5,-151"/>
<text xml:space="preserve" text-anchor="middle" x="813" y="-127.75" font-family="Arial" font-size="15.00">editor_service</text>
</g>
<!-- /lib/widgets/resizable_splitter.dart -->
<g id="node17" class="node">
<title>/lib/widgets/resizable_splitter.dart</title>
<path fill="Lavender" stroke="black" stroke-width="1.3" d="M783.88,-234C783.88,-234 680.12,-234 680.12,-234 674.12,-234 668.12,-228 668.12,-222 668.12,-222 668.12,-210 668.12,-210 668.12,-204 674.12,-198 680.12,-198 680.12,-198 783.88,-198 783.88,-198 789.88,-198 795.88,-204 795.88,-210 795.88,-210 795.88,-222 795.88,-222 795.88,-228 789.88,-234 783.88,-234"/>
<text xml:space="preserve" text-anchor="middle" x="732" y="-210.75" font-family="Arial" font-size="15.00">resizable_splitter</text>
</g>
<!-- /lib/widgets/directory_contents.dart -->
<g id="node18" class="node">
<title>/lib/widgets/directory_contents.dart</title>
<path fill="Lavender" stroke="black" stroke-width="1.3" d="M940.5,-234C940.5,-234 825.5,-234 825.5,-234 819.5,-234 813.5,-228 813.5,-222 813.5,-222 813.5,-210 813.5,-210 813.5,-204 819.5,-198 825.5,-198 825.5,-198 940.5,-198 940.5,-198 946.5,-198 952.5,-204 952.5,-210 952.5,-210 952.5,-222 952.5,-222 952.5,-228 946.5,-234 940.5,-234"/>
<text xml:space="preserve" text-anchor="middle" x="883" y="-210.75" font-family="Arial" font-size="15.00">directory_contents</text>
</g>
<!-- /lib/widgets/directory_contents.dart&#45;&gt;/lib/models/file_system_item.dart -->
<g id="edge25" class="edge">
<title>/lib/widgets/directory_contents.dart&#45;&gt;/lib/models/file_system_item.dart</title>
<path fill="none" stroke="#aabbaa" stroke-width="1.3" stroke-opacity="0.533333" d="M952.92,-207.4C985.06,-202.32 1018.22,-194.26 1028,-182 1048.79,-155.95 1049.69,-132.31 1028,-107 992.09,-65.09 838.13,-54.28 743.25,-51.66"/>
<polygon fill="#aabbaa" fill-opacity="0.533333" stroke="#aabbaa" stroke-width="1.3" stroke-opacity="0.533333" points="743.46,-48.16 733.38,-51.41 743.29,-55.16 743.46,-48.16"/>
</g>
<!-- /lib/widgets/directory_contents.dart&#45;&gt;/lib/services/file_system_service.dart -->
<g id="edge24" class="edge">
<title>/lib/widgets/directory_contents.dart&#45;&gt;/lib/services/file_system_service.dart</title>
<path fill="none" stroke="#aabbaa" stroke-width="1.3" stroke-opacity="0.533333" d="M832.15,-197.37C823.18,-194.64 813.87,-192.05 805,-190 780.93,-184.43 773.33,-190.11 750,-182 733.17,-176.15 715.91,-166.81 701.51,-157.91"/>
<polygon fill="#aabbaa" fill-opacity="0.533333" stroke="#aabbaa" stroke-width="1.3" stroke-opacity="0.533333" points="703.56,-155.06 693.24,-152.62 699.79,-160.96 703.56,-155.06"/>
</g>
<!-- /lib/widgets/main_layout.dart&#45;&gt;/lib/providers/app_providers.dart -->
<g id="edge26" class="edge">
<title>/lib/widgets/main_layout.dart&#45;&gt;/lib/providers/app_providers.dart</title>
<path fill="none" stroke="#aabbaa" stroke-width="1.3" stroke-opacity="0.533333" d="M740.37,-270.14C705.55,-257.58 663.96,-241.38 659,-234 648.09,-217.77 645.42,-204.08 659,-190 667.53,-181.16 868.21,-185.46 880,-182 897.16,-176.96 914.46,-167.46 928.63,-158.23"/>
<polygon fill="#aabbaa" fill-opacity="0.533333" stroke="#aabbaa" stroke-width="1.3" stroke-opacity="0.533333" points="930.42,-161.24 936.72,-152.73 926.49,-155.45 930.42,-161.24"/>
</g>
<!-- /lib/widgets/main_layout.dart&#45;&gt;/lib/utils/file_type_utils.dart -->
<g id="edge32" class="edge">
<title>/lib/widgets/main_layout.dart&#45;&gt;/lib/utils/file_type_utils.dart</title>
<path fill="none" stroke="#aabbaa" stroke-width="1.3" stroke-opacity="0.533333" d="M740.23,-272.28C737.45,-271.49 734.69,-270.73 732,-270 666.65,-252.32 644.04,-265.27 584,-234 557.75,-220.33 561.06,-202.01 534,-190 505.38,-177.3 493.22,-193.26 464,-182 450.16,-176.67 436.55,-167.79 425.24,-159.1"/>
<polygon fill="#aabbaa" fill-opacity="0.533333" stroke="#aabbaa" stroke-width="1.3" stroke-opacity="0.533333" points="427.47,-156.4 417.49,-152.85 423.08,-161.85 427.47,-156.4"/>
</g>
<!-- /lib/widgets/main_layout.dart&#45;&gt;/lib/models/file_system_item.dart -->
<g id="edge31" class="edge">
<title>/lib/widgets/main_layout.dart&#45;&gt;/lib/models/file_system_item.dart</title>
<path fill="none" stroke="#aabbaa" stroke-width="1.3" stroke-opacity="0.533333" d="M740.34,-270.84C712.36,-261.08 676.77,-247.88 646,-234 608.3,-217 603.61,-201.89 564,-190 545.19,-184.36 489.24,-196.5 476,-182 464.76,-169.69 464.62,-119.18 476,-107 484.97,-97.4 581.55,-103.19 594,-99 609.43,-93.81 624.75,-84.53 637.34,-75.51"/>
<polygon fill="#aabbaa" fill-opacity="0.533333" stroke="#aabbaa" stroke-width="1.3" stroke-opacity="0.533333" points="639.33,-78.4 645.23,-69.6 635.13,-72.8 639.33,-78.4"/>
</g>
<!-- /lib/widgets/main_layout.dart&#45;&gt;/lib/screens/explorer_screen.dart -->
<g id="edge27" class="edge">
<title>/lib/widgets/main_layout.dart&#45;&gt;/lib/screens/explorer_screen.dart</title>
<path fill="none" stroke="#aabbaa" stroke-width="1.3" stroke-opacity="0.533333" d="M774.54,-306.48C762.5,-319.93 743.99,-336.55 723,-341 705.61,-344.69 420.39,-344.69 403,-341 384.63,-337.1 367.28,-325.57 353.91,-314.25"/>
<polygon fill="#aabbaa" fill-opacity="0.533333" stroke="#aabbaa" stroke-width="1.3" stroke-opacity="0.533333" points="356.56,-311.93 346.78,-307.86 351.89,-317.14 356.56,-311.93"/>
</g>
<!-- /lib/widgets/main_layout.dart&#45;&gt;/lib/screens/outline_panel.dart -->
<g id="edge30" class="edge">
<title>/lib/widgets/main_layout.dart&#45;&gt;/lib/screens/outline_panel.dart</title>
<path fill="none" stroke="#aabbaa" stroke-width="1.3" stroke-opacity="0.533333" d="M774.54,-306.48C762.5,-319.93 743.99,-336.55 723,-341 698.16,-346.27 290.84,-346.27 266,-341 248.48,-337.28 232.3,-325.81 219.92,-314.49"/>
<polygon fill="#aabbaa" fill-opacity="0.533333" stroke="#aabbaa" stroke-width="1.3" stroke-opacity="0.533333" points="222.62,-312.24 213.02,-307.76 217.73,-317.25 222.62,-312.24"/>
</g>
<!-- /lib/widgets/main_layout.dart&#45;&gt;/lib/screens/editor_screen.dart -->
<g id="edge29" class="edge">
<title>/lib/widgets/main_layout.dart&#45;&gt;/lib/screens/editor_screen.dart</title>
<path fill="none" stroke="#aabbaa" stroke-width="1.3" stroke-opacity="0.533333" d="M740.34,-271.81C737.53,-271.14 734.74,-270.53 732,-270 569.65,-238.39 521.58,-263.31 356.54,-234.47"/>
<polygon fill="#aabbaa" fill-opacity="0.533333" stroke="#aabbaa" stroke-width="1.3" stroke-opacity="0.533333" points="357.37,-231.06 346.91,-232.74 356.14,-237.95 357.37,-231.06"/>
</g>
<!-- /lib/widgets/main_layout.dart&#45;&gt;/lib/screens/welcome_screen.dart -->
<g id="edge28" class="edge">
<title>/lib/widgets/main_layout.dart&#45;&gt;/lib/screens/welcome_screen.dart</title>
<path fill="none" stroke="#aabbaa" stroke-width="1.3" stroke-opacity="0.533333" d="M740.28,-272.06C737.49,-271.33 734.71,-270.64 732,-270 654.34,-251.76 564.23,-236.9 502,-227.61"/>
<polygon fill="#aabbaa" fill-opacity="0.533333" stroke="#aabbaa" stroke-width="1.3" stroke-opacity="0.533333" points="502.68,-224.17 492.27,-226.17 501.65,-231.09 502.68,-224.17"/>
</g>
<!-- /lib/widgets/main_layout.dart&#45;&gt;/lib/widgets/resizable_splitter.dart -->
<g id="edge33" class="edge">
<title>/lib/widgets/main_layout.dart&#45;&gt;/lib/widgets/resizable_splitter.dart</title>
<path fill="none" stroke="#aabbaa" stroke-width="1.3" stroke-opacity="0.533333" d="M774.91,-269.7C768.52,-261.85 760.81,-252.39 753.71,-243.66"/>
<polygon fill="#aabbaa" fill-opacity="0.533333" stroke="#aabbaa" stroke-width="1.3" stroke-opacity="0.533333" points="756.59,-241.66 747.57,-236.12 751.17,-246.08 756.59,-241.66"/>
</g>
<!-- /lib/widgets/file_explorer.dart -->
<g id="node20" class="node">
<title>/lib/widgets/file_explorer.dart</title>
<path fill="Lavender" stroke="black" stroke-width="1.3" d="M940.5,-306C940.5,-306 867.5,-306 867.5,-306 861.5,-306 855.5,-300 855.5,-294 855.5,-294 855.5,-282 855.5,-282 855.5,-276 861.5,-270 867.5,-270 867.5,-270 940.5,-270 940.5,-270 946.5,-270 952.5,-276 952.5,-282 952.5,-282 952.5,-294 952.5,-294 952.5,-300 946.5,-306 940.5,-306"/>
<text xml:space="preserve" text-anchor="middle" x="904" y="-282.75" font-family="Arial" font-size="15.00">file_explorer</text>
</g>
<!-- /lib/widgets/file_explorer.dart&#45;&gt;/lib/models/file_system_item.dart -->
<g id="edge35" class="edge">
<title>/lib/widgets/file_explorer.dart&#45;&gt;/lib/models/file_system_item.dart</title>
<path fill="none" stroke="#aabbaa" stroke-width="1.3" stroke-opacity="0.533333" d="M855.04,-272.29C851.99,-271.49 848.96,-270.72 846,-270 763.74,-250.07 712.89,-299.26 659,-234 646.55,-218.92 645.42,-204.08 659,-190 676.06,-172.31 862.94,-199.69 880,-182 891.57,-170 890.18,-120.2 880,-107 863.09,-85.07 797.11,-70.02 743.01,-61.1"/>
<polygon fill="#aabbaa" fill-opacity="0.533333" stroke="#aabbaa" stroke-width="1.3" stroke-opacity="0.533333" points="743.68,-57.66 733.26,-59.54 742.58,-64.57 743.68,-57.66"/>
</g>
<!-- /lib/widgets/file_explorer.dart&#45;&gt;/lib/services/file_system_service.dart -->
<g id="edge34" class="edge">
<title>/lib/widgets/file_explorer.dart&#45;&gt;/lib/services/file_system_service.dart</title>
<path fill="none" stroke="#aabbaa" stroke-width="1.3" stroke-opacity="0.533333" d="M855.05,-272.25C852,-271.45 848.96,-270.7 846,-270 801.61,-259.57 673.28,-268.96 644,-234 627.17,-213.9 637.28,-183.87 648.93,-161.97"/>
<polygon fill="#aabbaa" fill-opacity="0.533333" stroke="#aabbaa" stroke-width="1.3" stroke-opacity="0.533333" points="651.93,-163.77 653.86,-153.35 645.86,-160.29 651.93,-163.77"/>
</g>
<!-- /lib/widgets/file_explorer.dart&#45;&gt;/lib/widgets/directory_contents.dart -->
<g id="edge36" class="edge">
<title>/lib/widgets/file_explorer.dart&#45;&gt;/lib/widgets/directory_contents.dart</title>
<path fill="none" stroke="#aabbaa" stroke-width="1.3" stroke-opacity="0.533333" d="M898.81,-269.7C896.65,-262.52 894.1,-253.99 891.67,-245.9"/>
<polygon fill="#aabbaa" fill-opacity="0.533333" stroke="#aabbaa" stroke-width="1.3" stroke-opacity="0.533333" points="895.07,-245.05 888.84,-236.48 888.36,-247.06 895.07,-245.05"/>
</g>
<!-- /tool/sort_source.dart -->
<g id="node22" class="node">
<title>/tool/sort_source.dart</title>
<path fill="Lavender" stroke="black" stroke-width="1.3" d="M862.38,-464C862.38,-464 791.62,-464 791.62,-464 785.62,-464 779.62,-458 779.62,-452 779.62,-452 779.62,-440 779.62,-440 779.62,-434 785.62,-428 791.62,-428 791.62,-428 862.38,-428 862.38,-428 868.38,-428 874.38,-434 874.38,-440 874.38,-440 874.38,-452 874.38,-452 874.38,-458 868.38,-464 862.38,-464"/>
<text xml:space="preserve" text-anchor="middle" x="827" y="-440.75" font-family="Arial" font-size="15.00">sort_source</text>
</g>
</g>
</svg>
