<?xml version="1.0" encoding="UTF-8" standalone="no"?>
<!DOCTYPE svg PUBLIC "-//W3C//DTD SVG 1.1//EN"
 "http://www.w3.org/Graphics/SVG/1.1/DTD/svg11.dtd">
<!-- Generated by graphviz version 12.2.1 (20241206.2353)
 -->
<!-- Pages: 1 -->
<svg width="1221pt" height="623pt"
 viewBox="0.00 0.00 1221.26 623.00" xmlns="http://www.w3.org/2000/svg" xmlns:xlink="http://www.w3.org/1999/xlink">
<g id="graph0" class="graph" transform="scale(1 1) rotate(0) translate(4 619)">
<polygon fill="white" stroke="none" points="-4,4 -4,-619 1217.26,-619 1217.26,4 -4,4"/>
<g id="clust1" class="cluster">
<title>cluster~</title>
<path fill="none" stroke="lightgray" stroke-width="2.6" d="M20,-8C20,-8 1181,-8 1181,-8 1187,-8 1193,-14 1193,-20 1193,-20 1193,-595 1193,-595 1193,-601 1187,-607 1181,-607 1181,-607 20,-607 20,-607 14,-607 8,-601 8,-595 8,-595 8,-20 8,-20 8,-14 14,-8 20,-8"/>
<text text-anchor="middle" x="600.5" y="-590.65" font-family="Arial Black" font-size="13.00">FIDE</text>
</g>
<g id="clust2" class="cluster">
<title>cluster~/test</title>
<path fill="none" stroke="lightgray" stroke-width="2.6" d="M827,-501C827,-501 911,-501 911,-501 917,-501 923,-507 923,-513 923,-513 923,-564 923,-564 923,-570 917,-576 911,-576 911,-576 827,-576 827,-576 821,-576 815,-570 815,-564 815,-564 815,-513 815,-513 815,-507 821,-501 827,-501"/>
<text text-anchor="middle" x="869" y="-559.65" font-family="Arial Black" font-size="13.00">test</text>
</g>
<g id="clust3" class="cluster">
<title>cluster~/lib</title>
<path fill="none" stroke="lightgray" stroke-width="2.6" d="M28,-16C28,-16 1173,-16 1173,-16 1179,-16 1185,-22 1185,-28 1185,-28 1185,-481 1185,-481 1185,-487 1179,-493 1173,-493 1173,-493 28,-493 28,-493 22,-493 16,-487 16,-481 16,-481 16,-28 16,-28 16,-22 22,-16 28,-16"/>
<text text-anchor="middle" x="600.5" y="-476.65" font-family="Arial Black" font-size="13.00">lib</text>
</g>
<g id="clust4" class="cluster">
<title>cluster~/lib/models</title>
<path fill="none" stroke="lightgray" stroke-width="2.6" d="M36,-24C36,-24 276,-24 276,-24 282,-24 288,-30 288,-36 288,-36 288,-87 288,-87 288,-93 282,-99 276,-99 276,-99 36,-99 36,-99 30,-99 24,-93 24,-87 24,-87 24,-36 24,-36 24,-30 30,-24 36,-24"/>
<text text-anchor="middle" x="156" y="-82.65" font-family="Arial Black" font-size="13.00">models</text>
</g>
<g id="clust5" class="cluster">
<title>cluster~/lib/screens</title>
<path fill="none" stroke="lightgray" stroke-width="2.6" d="M521,-190C521,-190 1015,-190 1015,-190 1021,-190 1027,-196 1027,-202 1027,-202 1027,-406 1027,-406 1027,-412 1021,-418 1015,-418 1015,-418 521,-418 521,-418 515,-418 509,-412 509,-406 509,-406 509,-202 509,-202 509,-196 515,-190 521,-190"/>
<text text-anchor="middle" x="768" y="-401.65" font-family="Arial Black" font-size="13.00">screens</text>
</g>
<g id="clust6" class="cluster">
<title>cluster~/lib/screens/explorer</title>
<path fill="none" stroke="lightgray" stroke-width="2.6" d="M887,-198C887,-198 1007,-198 1007,-198 1013,-198 1019,-204 1019,-210 1019,-210 1019,-375 1019,-375 1019,-381 1013,-387 1007,-387 1007,-387 887,-387 887,-387 881,-387 875,-381 875,-375 875,-375 875,-210 875,-210 875,-204 881,-198 887,-198"/>
<text text-anchor="middle" x="947" y="-370.65" font-family="Arial Black" font-size="13.00">explorer</text>
</g>
<g id="clust7" class="cluster">
<title>cluster~/lib/screens/outline</title>
<path fill="none" stroke="lightgray" stroke-width="2.6" d="M659,-312C659,-312 755,-312 755,-312 761,-312 767,-318 767,-324 767,-324 767,-375 767,-375 767,-381 761,-387 755,-387 755,-387 659,-387 659,-387 653,-387 647,-381 647,-375 647,-375 647,-324 647,-324 647,-318 653,-312 659,-312"/>
<text text-anchor="middle" x="707" y="-370.65" font-family="Arial Black" font-size="13.00">outline</text>
</g>
<g id="clust8" class="cluster">
<title>cluster~/lib/screens/editor</title>
<path fill="none" stroke="lightgray" stroke-width="2.6" d="M529,-312C529,-312 627,-312 627,-312 633,-312 639,-318 639,-324 639,-324 639,-375 639,-375 639,-381 633,-387 627,-387 627,-387 529,-387 529,-387 523,-387 517,-381 517,-375 517,-375 517,-324 517,-324 517,-318 523,-312 529,-312"/>
<text text-anchor="middle" x="578" y="-370.65" font-family="Arial Black" font-size="13.00">editor</text>
</g>
<g id="clust9" class="cluster">
<title>cluster~/lib/screens/git</title>
<path fill="none" stroke="lightgray" stroke-width="2.6" d="M787,-312C787,-312 855,-312 855,-312 861,-312 867,-318 867,-324 867,-324 867,-375 867,-375 867,-381 861,-387 855,-387 855,-387 787,-387 787,-387 781,-387 775,-381 775,-375 775,-375 775,-324 775,-324 775,-318 781,-312 787,-312"/>
<text text-anchor="middle" x="821" y="-370.65" font-family="Arial Black" font-size="13.00">git</text>
</g>
<g id="clust10" class="cluster">
<title>cluster~/lib/theme</title>
<path fill="none" stroke="lightgray" stroke-width="2.6" d="M1049,-312C1049,-312 1133,-312 1133,-312 1139,-312 1145,-318 1145,-324 1145,-324 1145,-375 1145,-375 1145,-381 1139,-387 1133,-387 1133,-387 1049,-387 1049,-387 1043,-387 1037,-381 1037,-375 1037,-375 1037,-324 1037,-324 1037,-318 1043,-312 1049,-312"/>
<text text-anchor="middle" x="1091" y="-370.65" font-family="Arial Black" font-size="13.00">theme</text>
</g>
<g id="clust11" class="cluster">
<title>cluster~/lib/services</title>
<path fill="none" stroke="lightgray" stroke-width="2.6" d="M617,-107C617,-107 988,-107 988,-107 994,-107 1000,-113 1000,-119 1000,-119 1000,-170 1000,-170 1000,-176 994,-182 988,-182 988,-182 617,-182 617,-182 611,-182 605,-176 605,-170 605,-170 605,-119 605,-119 605,-113 611,-107 617,-107"/>
<text text-anchor="middle" x="802.5" y="-165.65" font-family="Arial Black" font-size="13.00">services</text>
</g>
<g id="clust12" class="cluster">
<title>cluster~/lib/widgets</title>
<path fill="none" stroke="lightgray" stroke-width="2.6" d="M106,-190C106,-190 489,-190 489,-190 495,-190 501,-196 501,-202 501,-202 501,-292 501,-292 501,-298 495,-304 489,-304 489,-304 106,-304 106,-304 100,-304 94,-298 94,-292 94,-292 94,-202 94,-202 94,-196 100,-190 106,-190"/>
<text text-anchor="middle" x="297.5" y="-287.65" font-family="Arial Black" font-size="13.00">widgets</text>
</g>
<g id="clust13" class="cluster">
<title>cluster~/lib/widgets/explorer</title>
<path fill="none" stroke="lightgray" stroke-width="2.6" d="M114,-198C114,-198 204,-198 204,-198 210,-198 216,-204 216,-210 216,-210 216,-261 216,-261 216,-267 210,-273 204,-273 204,-273 114,-273 114,-273 108,-273 102,-267 102,-261 102,-261 102,-210 102,-210 102,-204 108,-198 114,-198"/>
<text text-anchor="middle" x="159" y="-256.65" font-family="Arial Black" font-size="13.00">explorer</text>
</g>
<g id="clust14" class="cluster">
<title>cluster~/tool</title>
<path fill="none" stroke="lightgray" stroke-width="2.6" d="M1039,-501C1039,-501 1125,-501 1125,-501 1131,-501 1137,-507 1137,-513 1137,-513 1137,-564 1137,-564 1137,-570 1131,-576 1125,-576 1125,-576 1039,-576 1039,-576 1033,-576 1027,-570 1027,-564 1027,-564 1027,-513 1027,-513 1027,-507 1033,-501 1039,-501"/>
<text text-anchor="middle" x="1082" y="-559.65" font-family="Arial Black" font-size="13.00">tool</text>
</g>
<!-- /test/widget_test.dart -->
<g id="node1" class="node">
<title>/test/widget_test.dart</title>
<path fill="Lavender" stroke="black" stroke-width="1.3" d="M902.88,-545C902.88,-545 835.12,-545 835.12,-545 829.12,-545 823.12,-539 823.12,-533 823.12,-533 823.12,-521 823.12,-521 823.12,-515 829.12,-509 835.12,-509 835.12,-509 902.88,-509 902.88,-509 908.88,-509 914.88,-515 914.88,-521 914.88,-521 914.88,-533 914.88,-533 914.88,-539 908.88,-545 902.88,-545"/>
<text text-anchor="middle" x="869" y="-521.75" font-family="Arial" font-size="15.00">widget_test</text>
</g>
<!-- /lib/main.dart -->
<g id="node9" class="node">
<title>/lib/main.dart</title>
<path fill="Lavender" stroke="black" stroke-width="1.3" d="M884,-462C884,-462 854,-462 854,-462 848,-462 842,-456 842,-450 842,-450 842,-438 842,-438 842,-432 848,-426 854,-426 854,-426 884,-426 884,-426 890,-426 896,-432 896,-438 896,-438 896,-450 896,-450 896,-456 890,-462 884,-462"/>
<text text-anchor="middle" x="869" y="-438.75" font-family="Arial" font-size="15.00">main</text>
</g>
<!-- /test/widget_test.dart&#45;&gt;/lib/main.dart -->
<g id="edge1" class="edge">
<title>/test/widget_test.dart&#45;&gt;/lib/main.dart</title>
<path fill="none" stroke="#aabbaa" stroke-width="1.3" stroke-opacity="0.533333" d="M869,-508.82C869,-498.8 869,-485.88 869,-474.29"/>
<polygon fill="#aabbaa" fill-opacity="0.533333" stroke="#aabbaa" stroke-width="1.3" stroke-opacity="0.533333" points="872.5,-474.4 869,-464.4 865.5,-474.4 872.5,-474.4"/>
</g>
<!-- /lib/models/project_node.dart -->
<g id="node2" class="node">
<title>/lib/models/project_node.dart</title>
<path fill="Lavender" stroke="black" stroke-width="1.3" d="M122.12,-68C122.12,-68 43.88,-68 43.88,-68 37.88,-68 31.88,-62 31.88,-56 31.88,-56 31.88,-44 31.88,-44 31.88,-38 37.88,-32 43.88,-32 43.88,-32 122.12,-32 122.12,-32 128.12,-32 134.12,-38 134.12,-44 134.12,-44 134.12,-56 134.12,-56 134.12,-62 128.12,-68 122.12,-68"/>
<text text-anchor="middle" x="83" y="-44.75" font-family="Arial" font-size="15.00">project_node</text>
</g>
<!-- /lib/models/file_system_item.dart -->
<g id="node3" class="node">
<title>/lib/models/file_system_item.dart</title>
<path fill="Lavender" stroke="black" stroke-width="1.3" d="M267.88,-68C267.88,-68 164.12,-68 164.12,-68 158.12,-68 152.12,-62 152.12,-56 152.12,-56 152.12,-44 152.12,-44 152.12,-38 158.12,-32 164.12,-32 164.12,-32 267.88,-32 267.88,-32 273.88,-32 279.88,-38 279.88,-44 279.88,-44 279.88,-56 279.88,-56 279.88,-62 273.88,-68 267.88,-68"/>
<text text-anchor="middle" x="216" y="-44.75" font-family="Arial" font-size="15.00">file_system_item</text>
</g>
<!-- /lib/screens/explorer/explorer_screen.dart -->
<g id="node4" class="node">
<title>/lib/screens/explorer/explorer_screen.dart</title>
<path fill="Lavender" stroke="black" stroke-width="1.3" d="M994.62,-356C994.62,-356 895.38,-356 895.38,-356 889.38,-356 883.38,-350 883.38,-344 883.38,-344 883.38,-332 883.38,-332 883.38,-326 889.38,-320 895.38,-320 895.38,-320 994.62,-320 994.62,-320 1000.62,-320 1006.62,-326 1006.62,-332 1006.62,-332 1006.62,-344 1006.62,-344 1006.62,-350 1000.62,-356 994.62,-356"/>
<text text-anchor="middle" x="945" y="-332.75" font-family="Arial" font-size="15.00">explorer_screen</text>
</g>
<!-- /lib/screens/explorer/explorer_screen.dart&#45;&gt;/lib/models/project_node.dart -->
<g id="edge2" class="edge">
<title>/lib/screens/explorer/explorer_screen.dart&#45;&gt;/lib/models/project_node.dart</title>
<path fill="none" stroke="#aabbaa" stroke-width="1.3" stroke-opacity="0.533333" d="M900.98,-319.6C891.25,-316.47 880.89,-313.68 871,-312 860.06,-310.15 79.81,-311.89 72,-304 56.55,-288.4 71.91,-143.13 79.4,-80.03"/>
<polygon fill="#aabbaa" fill-opacity="0.533333" stroke="#aabbaa" stroke-width="1.3" stroke-opacity="0.533333" points="82.87,-80.53 80.59,-70.18 75.92,-79.69 82.87,-80.53"/>
</g>
<!-- /lib/screens/explorer/explorer_screen.dart&#45;&gt;/lib/models/file_system_item.dart -->
<g id="edge3" class="edge">
<title>/lib/screens/explorer/explorer_screen.dart&#45;&gt;/lib/models/file_system_item.dart</title>
<path fill="none" stroke="#aabbaa" stroke-width="1.3" stroke-opacity="0.533333" d="M900.98,-319.6C891.25,-316.48 880.89,-313.68 871,-312 860.41,-310.2 105.55,-311.63 98,-304 31.77,-237.08 134,-126.04 187.17,-76.37"/>
<polygon fill="#aabbaa" fill-opacity="0.533333" stroke="#aabbaa" stroke-width="1.3" stroke-opacity="0.533333" points="189.41,-79.06 194.41,-69.72 184.68,-73.91 189.41,-79.06"/>
</g>
<!-- /lib/screens/explorer/welcome_screen.dart -->
<g id="node5" class="node">
<title>/lib/screens/explorer/welcome_screen.dart</title>
<path fill="Lavender" stroke="black" stroke-width="1.3" d="M998.88,-242C998.88,-242 895.12,-242 895.12,-242 889.12,-242 883.12,-236 883.12,-230 883.12,-230 883.12,-218 883.12,-218 883.12,-212 889.12,-206 895.12,-206 895.12,-206 998.88,-206 998.88,-206 1004.88,-206 1010.88,-212 1010.88,-218 1010.88,-218 1010.88,-230 1010.88,-230 1010.88,-236 1004.88,-242 998.88,-242"/>
<text text-anchor="middle" x="947" y="-218.75" font-family="Arial" font-size="15.00">welcome_screen</text>
</g>
<!-- /lib/screens/explorer/explorer_screen.dart&#45;&gt;/lib/screens/explorer/welcome_screen.dart -->
<g id="edge5" class="edge">
<title>/lib/screens/explorer/explorer_screen.dart&#45;&gt;/lib/screens/explorer/welcome_screen.dart</title>
<path fill="none" stroke="#aabbaa" stroke-width="1.3" stroke-opacity="0.533333" d="M945.31,-319.5C945.62,-302.08 946.11,-275.01 946.48,-254.31"/>
<polygon fill="#aabbaa" fill-opacity="0.533333" stroke="#aabbaa" stroke-width="1.3" stroke-opacity="0.533333" points="949.98,-254.41 946.65,-244.34 942.98,-254.28 949.98,-254.41"/>
</g>
<!-- /lib/widgets/message_widget.dart -->
<g id="node16" class="node">
<title>/lib/widgets/message_widget.dart</title>
<path fill="Lavender" stroke="black" stroke-width="1.3" d="M480.88,-242C480.88,-242 377.12,-242 377.12,-242 371.12,-242 365.12,-236 365.12,-230 365.12,-230 365.12,-218 365.12,-218 365.12,-212 371.12,-206 377.12,-206 377.12,-206 480.88,-206 480.88,-206 486.88,-206 492.88,-212 492.88,-218 492.88,-218 492.88,-230 492.88,-230 492.88,-236 486.88,-242 480.88,-242"/>
<text text-anchor="middle" x="429" y="-218.75" font-family="Arial" font-size="15.00">message_widget</text>
</g>
<!-- /lib/screens/explorer/explorer_screen.dart&#45;&gt;/lib/widgets/message_widget.dart -->
<g id="edge4" class="edge">
<title>/lib/screens/explorer/explorer_screen.dart&#45;&gt;/lib/widgets/message_widget.dart</title>
<path fill="none" stroke="#aabbaa" stroke-width="1.3" stroke-opacity="0.533333" d="M896.32,-319.54C887.93,-316.83 879.26,-314.2 871,-312 744.06,-278.22 593.43,-251.32 504.83,-236.81"/>
<polygon fill="#aabbaa" fill-opacity="0.533333" stroke="#aabbaa" stroke-width="1.3" stroke-opacity="0.533333" points="505.66,-233.39 495.22,-235.24 504.53,-240.3 505.66,-233.39"/>
</g>
<!-- /lib/screens/outline/outline_panel.dart -->
<g id="node6" class="node">
<title>/lib/screens/outline/outline_panel.dart</title>
<path fill="Lavender" stroke="black" stroke-width="1.3" d="M746.88,-356C746.88,-356 667.12,-356 667.12,-356 661.12,-356 655.12,-350 655.12,-344 655.12,-344 655.12,-332 655.12,-332 655.12,-326 661.12,-320 667.12,-320 667.12,-320 746.88,-320 746.88,-320 752.88,-320 758.88,-326 758.88,-332 758.88,-332 758.88,-344 758.88,-344 758.88,-350 752.88,-356 746.88,-356"/>
<text text-anchor="middle" x="707" y="-332.75" font-family="Arial" font-size="15.00">outline_panel</text>
</g>
<!-- /lib/screens/outline/outline_panel.dart&#45;&gt;/lib/models/file_system_item.dart -->
<g id="edge6" class="edge">
<title>/lib/screens/outline/outline_panel.dart&#45;&gt;/lib/models/file_system_item.dart</title>
<path fill="none" stroke="#aabbaa" stroke-width="1.3" stroke-opacity="0.533333" d="M685.77,-319.56C649.91,-290.55 574.43,-231.5 505,-190 425.76,-142.64 327.92,-98.32 268.83,-72.97"/>
<polygon fill="#aabbaa" fill-opacity="0.533333" stroke="#aabbaa" stroke-width="1.3" stroke-opacity="0.533333" points="270.28,-69.78 259.71,-69.08 267.53,-76.22 270.28,-69.78"/>
</g>
<!-- /lib/screens/editor/editor_screen.dart -->
<g id="node7" class="node">
<title>/lib/screens/editor/editor_screen.dart</title>
<path fill="Lavender" stroke="black" stroke-width="1.3" d="M619.38,-356C619.38,-356 536.62,-356 536.62,-356 530.62,-356 524.62,-350 524.62,-344 524.62,-344 524.62,-332 524.62,-332 524.62,-326 530.62,-320 536.62,-320 536.62,-320 619.38,-320 619.38,-320 625.38,-320 631.38,-326 631.38,-332 631.38,-332 631.38,-344 631.38,-344 631.38,-350 625.38,-356 619.38,-356"/>
<text text-anchor="middle" x="578" y="-332.75" font-family="Arial" font-size="15.00">editor_screen</text>
</g>
<!-- /lib/screens/editor/editor_screen.dart&#45;&gt;/lib/widgets/message_widget.dart -->
<g id="edge7" class="edge">
<title>/lib/screens/editor/editor_screen.dart&#45;&gt;/lib/widgets/message_widget.dart</title>
<path fill="none" stroke="#aabbaa" stroke-width="1.3" stroke-opacity="0.533333" d="M554.72,-319.5C529.68,-300.68 489.68,-270.61 461.53,-249.46"/>
<polygon fill="#aabbaa" fill-opacity="0.533333" stroke="#aabbaa" stroke-width="1.3" stroke-opacity="0.533333" points="463.79,-246.77 453.69,-243.56 459.58,-252.37 463.79,-246.77"/>
</g>
<!-- /lib/screens/git/git_panel.dart -->
<g id="node8" class="node">
<title>/lib/screens/git/git_panel.dart</title>
<path fill="Lavender" stroke="black" stroke-width="1.3" d="M847,-356C847,-356 795,-356 795,-356 789,-356 783,-350 783,-344 783,-344 783,-332 783,-332 783,-326 789,-320 795,-320 795,-320 847,-320 847,-320 853,-320 859,-326 859,-332 859,-332 859,-344 859,-344 859,-350 853,-356 847,-356"/>
<text text-anchor="middle" x="821" y="-332.75" font-family="Arial" font-size="15.00">git_panel</text>
</g>
<!-- /lib/services/git_service.dart -->
<g id="node11" class="node">
<title>/lib/services/git_service.dart</title>
<path fill="Lavender" stroke="black" stroke-width="1.3" d="M852.62,-151C852.62,-151 789.38,-151 789.38,-151 783.38,-151 777.38,-145 777.38,-139 777.38,-139 777.38,-127 777.38,-127 777.38,-121 783.38,-115 789.38,-115 789.38,-115 852.62,-115 852.62,-115 858.62,-115 864.62,-121 864.62,-127 864.62,-127 864.62,-139 864.62,-139 864.62,-145 858.62,-151 852.62,-151"/>
<text text-anchor="middle" x="821" y="-127.75" font-family="Arial" font-size="15.00">git_service</text>
</g>
<!-- /lib/screens/git/git_panel.dart&#45;&gt;/lib/services/git_service.dart -->
<g id="edge8" class="edge">
<title>/lib/screens/git/git_panel.dart&#45;&gt;/lib/services/git_service.dart</title>
<path fill="none" stroke="#aabbaa" stroke-width="1.3" stroke-opacity="0.533333" d="M821,-319.69C821,-284.86 821,-205.97 821,-163.08"/>
<polygon fill="#aabbaa" fill-opacity="0.533333" stroke="#aabbaa" stroke-width="1.3" stroke-opacity="0.533333" points="824.5,-163.23 821,-153.23 817.5,-163.23 824.5,-163.23"/>
</g>
<!-- /lib/main.dart&#45;&gt;/lib/models/project_node.dart -->
<g id="edge18" class="edge">
<title>/lib/main.dart&#45;&gt;/lib/models/project_node.dart</title>
<path fill="none" stroke="#aabbaa" stroke-width="1.3" stroke-opacity="0.533333" d="M841.55,-442.99C705.38,-442.83 107.67,-440.83 76,-418 -30.26,-341.39 38.64,-151.19 69.91,-79.21"/>
<polygon fill="#aabbaa" fill-opacity="0.533333" stroke="#aabbaa" stroke-width="1.3" stroke-opacity="0.533333" points="73.09,-80.68 73.95,-70.12 66.69,-77.84 73.09,-80.68"/>
</g>
<!-- /lib/main.dart&#45;&gt;/lib/models/file_system_item.dart -->
<g id="edge17" class="edge">
<title>/lib/main.dart&#45;&gt;/lib/models/file_system_item.dart</title>
<path fill="none" stroke="#aabbaa" stroke-width="1.3" stroke-opacity="0.533333" d="M841.89,-442.88C713.51,-441.69 168.96,-429.21 72,-304 18.03,-234.3 29.48,-165.97 95,-107 111.08,-92.53 122.86,-106.89 143,-99 157.82,-93.19 172.76,-84.08 185.23,-75.35"/>
<polygon fill="#aabbaa" fill-opacity="0.533333" stroke="#aabbaa" stroke-width="1.3" stroke-opacity="0.533333" points="187.03,-78.37 193.05,-69.66 182.91,-72.71 187.03,-78.37"/>
</g>
<!-- /lib/main.dart&#45;&gt;/lib/screens/explorer/explorer_screen.dart -->
<g id="edge9" class="edge">
<title>/lib/main.dart&#45;&gt;/lib/screens/explorer/explorer_screen.dart</title>
<path fill="none" stroke="#aabbaa" stroke-width="1.3" stroke-opacity="0.533333" d="M881.55,-425.83C893.49,-409.49 911.62,-384.67 925.45,-365.75"/>
<polygon fill="#aabbaa" fill-opacity="0.533333" stroke="#aabbaa" stroke-width="1.3" stroke-opacity="0.533333" points="928.2,-367.93 931.27,-357.79 922.54,-363.8 928.2,-367.93"/>
</g>
<!-- /lib/main.dart&#45;&gt;/lib/screens/explorer/welcome_screen.dart -->
<g id="edge10" class="edge">
<title>/lib/main.dart&#45;&gt;/lib/screens/explorer/welcome_screen.dart</title>
<path fill="none" stroke="#aabbaa" stroke-width="1.3" stroke-opacity="0.533333" d="M896.2,-442.41C934.4,-440.93 1000.97,-435.8 1016,-418 1031.2,-400 1023.75,-334.24 1016,-312 1007.81,-288.5 990.34,-266.58 975.02,-250.62"/>
<polygon fill="#aabbaa" fill-opacity="0.533333" stroke="#aabbaa" stroke-width="1.3" stroke-opacity="0.533333" points="977.74,-248.39 968.2,-243.78 972.79,-253.33 977.74,-248.39"/>
</g>
<!-- /lib/main.dart&#45;&gt;/lib/screens/outline/outline_panel.dart -->
<g id="edge12" class="edge">
<title>/lib/main.dart&#45;&gt;/lib/screens/outline/outline_panel.dart</title>
<path fill="none" stroke="#aabbaa" stroke-width="1.3" stroke-opacity="0.533333" d="M841.8,-440.72C821.03,-437.93 792.44,-431.74 771,-418 750.82,-405.07 734.03,-383.62 722.73,-366.34"/>
<polygon fill="#aabbaa" fill-opacity="0.533333" stroke="#aabbaa" stroke-width="1.3" stroke-opacity="0.533333" points="725.72,-364.52 717.45,-357.89 719.78,-368.23 725.72,-364.52"/>
</g>
<!-- /lib/main.dart&#45;&gt;/lib/screens/editor/editor_screen.dart -->
<g id="edge11" class="edge">
<title>/lib/main.dart&#45;&gt;/lib/screens/editor/editor_screen.dart</title>
<path fill="none" stroke="#aabbaa" stroke-width="1.3" stroke-opacity="0.533333" d="M841.58,-442.52C789.1,-441.19 676.67,-436.23 643,-418 621.43,-406.32 604.21,-384.25 592.93,-366.4"/>
<polygon fill="#aabbaa" fill-opacity="0.533333" stroke="#aabbaa" stroke-width="1.3" stroke-opacity="0.533333" points="595.99,-364.69 587.85,-357.91 589.98,-368.29 595.99,-364.69"/>
</g>
<!-- /lib/main.dart&#45;&gt;/lib/screens/git/git_panel.dart -->
<g id="edge13" class="edge">
<title>/lib/main.dart&#45;&gt;/lib/screens/git/git_panel.dart</title>
<path fill="none" stroke="#aabbaa" stroke-width="1.3" stroke-opacity="0.533333" d="M861.07,-425.83C853.67,-409.79 842.5,-385.59 833.83,-366.8"/>
<polygon fill="#aabbaa" fill-opacity="0.533333" stroke="#aabbaa" stroke-width="1.3" stroke-opacity="0.533333" points="837.13,-365.6 829.76,-357.99 830.78,-368.53 837.13,-365.6"/>
</g>
<!-- /lib/theme/app_theme.dart -->
<g id="node10" class="node">
<title>/lib/theme/app_theme.dart</title>
<path fill="Lavender" stroke="black" stroke-width="1.3" d="M1124.5,-356C1124.5,-356 1057.5,-356 1057.5,-356 1051.5,-356 1045.5,-350 1045.5,-344 1045.5,-344 1045.5,-332 1045.5,-332 1045.5,-326 1051.5,-320 1057.5,-320 1057.5,-320 1124.5,-320 1124.5,-320 1130.5,-320 1136.5,-326 1136.5,-332 1136.5,-332 1136.5,-344 1136.5,-344 1136.5,-350 1130.5,-356 1124.5,-356"/>
<text text-anchor="middle" x="1091" y="-332.75" font-family="Arial" font-size="15.00">app_theme</text>
</g>
<!-- /lib/main.dart&#45;&gt;/lib/theme/app_theme.dart -->
<g id="edge16" class="edge">
<title>/lib/main.dart&#45;&gt;/lib/theme/app_theme.dart</title>
<path fill="none" stroke="#aabbaa" stroke-width="1.3" stroke-opacity="0.533333" d="M896.47,-441.83C939.06,-439.55 1018.58,-433.33 1042,-418 1060.28,-406.04 1072.93,-384.64 1080.79,-367.13"/>
<polygon fill="#aabbaa" fill-opacity="0.533333" stroke="#aabbaa" stroke-width="1.3" stroke-opacity="0.533333" points="1083.92,-368.72 1084.52,-358.14 1077.45,-366.03 1083.92,-368.72"/>
</g>
<!-- /lib/main.dart&#45;&gt;/lib/services/git_service.dart -->
<g id="edge15" class="edge">
<title>/lib/main.dart&#45;&gt;/lib/services/git_service.dart</title>
<path fill="none" stroke="#aabbaa" stroke-width="1.3" stroke-opacity="0.533333" d="M896.29,-442.72C965.43,-441.72 1143.3,-437.28 1161,-418 1229.53,-343.35 1231.65,-262.64 1161,-190 1149.88,-178.57 888.8,-187.94 874,-182 862.08,-177.21 851.13,-168.45 842.32,-159.71"/>
<polygon fill="#aabbaa" fill-opacity="0.533333" stroke="#aabbaa" stroke-width="1.3" stroke-opacity="0.533333" points="845.01,-157.46 835.61,-152.56 839.9,-162.25 845.01,-157.46"/>
</g>
<!-- /lib/services/file_system_service.dart -->
<g id="node12" class="node">
<title>/lib/services/file_system_service.dart</title>
<path fill="Lavender" stroke="black" stroke-width="1.3" d="M747.25,-151C747.25,-151 624.75,-151 624.75,-151 618.75,-151 612.75,-145 612.75,-139 612.75,-139 612.75,-127 612.75,-127 612.75,-121 618.75,-115 624.75,-115 624.75,-115 747.25,-115 747.25,-115 753.25,-115 759.25,-121 759.25,-127 759.25,-127 759.25,-139 759.25,-139 759.25,-145 753.25,-151 747.25,-151"/>
<text text-anchor="middle" x="686" y="-127.75" font-family="Arial" font-size="15.00">file_system_service</text>
</g>
<!-- /lib/main.dart&#45;&gt;/lib/services/file_system_service.dart -->
<g id="edge14" class="edge">
<title>/lib/main.dart&#45;&gt;/lib/services/file_system_service.dart</title>
<path fill="none" stroke="#aabbaa" stroke-width="1.3" stroke-opacity="0.533333" d="M896.39,-442.61C963.55,-441.36 1132.16,-436.41 1149,-418 1164.9,-400.62 1158.19,-333.69 1149,-312 1118.59,-240.23 1094.79,-220.38 1023,-190 996.89,-178.95 795.24,-189.85 768,-182 750.53,-176.97 732.89,-167.37 718.48,-158.07"/>
<polygon fill="#aabbaa" fill-opacity="0.533333" stroke="#aabbaa" stroke-width="1.3" stroke-opacity="0.533333" points="720.49,-155.2 710.24,-152.52 716.58,-161 720.49,-155.2"/>
</g>
<!-- /lib/services/file_system_service.dart&#45;&gt;/lib/models/file_system_item.dart -->
<g id="edge19" class="edge">
<title>/lib/services/file_system_service.dart&#45;&gt;/lib/models/file_system_item.dart</title>
<path fill="none" stroke="#aabbaa" stroke-width="1.3" stroke-opacity="0.533333" d="M612.29,-117.2C594.54,-113.75 575.61,-110.16 558,-107 466.61,-90.6 361.12,-73.62 291.75,-62.72"/>
<polygon fill="#aabbaa" fill-opacity="0.533333" stroke="#aabbaa" stroke-width="1.3" stroke-opacity="0.533333" points="292.44,-59.29 282.02,-61.2 291.36,-66.2 292.44,-59.29"/>
</g>
<!-- /lib/services/editor_service.dart -->
<g id="node13" class="node">
<title>/lib/services/editor_service.dart</title>
<path fill="Lavender" stroke="black" stroke-width="1.3" d="M979.5,-151C979.5,-151 894.5,-151 894.5,-151 888.5,-151 882.5,-145 882.5,-139 882.5,-139 882.5,-127 882.5,-127 882.5,-121 888.5,-115 894.5,-115 894.5,-115 979.5,-115 979.5,-115 985.5,-115 991.5,-121 991.5,-127 991.5,-127 991.5,-139 991.5,-139 991.5,-145 985.5,-151 979.5,-151"/>
<text text-anchor="middle" x="937" y="-127.75" font-family="Arial" font-size="15.00">editor_service</text>
</g>
<!-- /lib/widgets/save_file_dialog.dart -->
<g id="node14" class="node">
<title>/lib/widgets/save_file_dialog.dart</title>
<path fill="Lavender" stroke="black" stroke-width="1.3" d="M334.88,-242C334.88,-242 237.12,-242 237.12,-242 231.12,-242 225.12,-236 225.12,-230 225.12,-230 225.12,-218 225.12,-218 225.12,-212 231.12,-206 237.12,-206 237.12,-206 334.88,-206 334.88,-206 340.88,-206 346.88,-212 346.88,-218 346.88,-218 346.88,-230 346.88,-230 346.88,-236 340.88,-242 334.88,-242"/>
<text text-anchor="middle" x="286" y="-218.75" font-family="Arial" font-size="15.00">save_file_dialog</text>
</g>
<!-- /lib/widgets/explorer/file_explorer.dart -->
<g id="node15" class="node">
<title>/lib/widgets/explorer/file_explorer.dart</title>
<path fill="Lavender" stroke="black" stroke-width="1.3" d="M195.5,-242C195.5,-242 122.5,-242 122.5,-242 116.5,-242 110.5,-236 110.5,-230 110.5,-230 110.5,-218 110.5,-218 110.5,-212 116.5,-206 122.5,-206 122.5,-206 195.5,-206 195.5,-206 201.5,-206 207.5,-212 207.5,-218 207.5,-218 207.5,-230 207.5,-230 207.5,-236 201.5,-242 195.5,-242"/>
<text text-anchor="middle" x="159" y="-218.75" font-family="Arial" font-size="15.00">file_explorer</text>
</g>
<!-- /lib/widgets/explorer/file_explorer.dart&#45;&gt;/lib/models/file_system_item.dart -->
<g id="edge21" class="edge">
<title>/lib/widgets/explorer/file_explorer.dart&#45;&gt;/lib/models/file_system_item.dart</title>
<path fill="none" stroke="#aabbaa" stroke-width="1.3" stroke-opacity="0.533333" d="M164.78,-205.56C174.59,-175.94 194.61,-115.54 206.51,-79.64"/>
<polygon fill="#aabbaa" fill-opacity="0.533333" stroke="#aabbaa" stroke-width="1.3" stroke-opacity="0.533333" points="209.76,-80.95 209.59,-70.35 203.12,-78.74 209.76,-80.95"/>
</g>
<!-- /lib/widgets/explorer/file_explorer.dart&#45;&gt;/lib/services/file_system_service.dart -->
<g id="edge20" class="edge">
<title>/lib/widgets/explorer/file_explorer.dart&#45;&gt;/lib/services/file_system_service.dart</title>
<path fill="none" stroke="#aabbaa" stroke-width="1.3" stroke-opacity="0.533333" d="M182.14,-205.51C191.03,-199.64 201.57,-193.66 212,-190 281.74,-165.55 484.42,-147.98 600.92,-139.58"/>
<polygon fill="#aabbaa" fill-opacity="0.533333" stroke="#aabbaa" stroke-width="1.3" stroke-opacity="0.533333" points="600.92,-143.09 610.65,-138.89 600.42,-136.11 600.92,-143.09"/>
</g>
<!-- /tool/sort_source.dart -->
<g id="node17" class="node">
<title>/tool/sort_source.dart</title>
<path fill="Lavender" stroke="black" stroke-width="1.3" d="M1117.38,-545C1117.38,-545 1046.62,-545 1046.62,-545 1040.62,-545 1034.62,-539 1034.62,-533 1034.62,-533 1034.62,-521 1034.62,-521 1034.62,-515 1040.62,-509 1046.62,-509 1046.62,-509 1117.38,-509 1117.38,-509 1123.38,-509 1129.38,-515 1129.38,-521 1129.38,-521 1129.38,-533 1129.38,-533 1129.38,-539 1123.38,-545 1117.38,-545"/>
<text text-anchor="middle" x="1082" y="-521.75" font-family="Arial" font-size="15.00">sort_source</text>
</g>
</g>
</svg>
