<?xml version="1.0" encoding="UTF-8" standalone="no"?>
<!DOCTYPE svg PUBLIC "-//W3C//DTD SVG 1.1//EN"
 "http://www.w3.org/Graphics/SVG/1.1/DTD/svg11.dtd">
<!-- Generated by graphviz version 13.1.1 (20250719.2154)
 -->
<!-- Pages: 1 -->
<svg width="674pt" height="714pt"
 viewBox="0.00 0.00 674.00 714.00" xmlns="http://www.w3.org/2000/svg" xmlns:xlink="http://www.w3.org/1999/xlink">
<g id="graph0" class="graph" transform="scale(1 1) rotate(0) translate(4 710)">
<polygon fill="white" stroke="none" points="-4,4 -4,-710 670,-710 670,4 -4,4"/>
<g id="clust1" class="cluster">
<title>cluster~</title>
<path fill="none" stroke="lightgray" stroke-width="2.6" d="M20,-8C20,-8 646,-8 646,-8 652,-8 658,-14 658,-20 658,-20 658,-686 658,-686 658,-692 652,-698 646,-698 646,-698 20,-698 20,-698 14,-698 8,-692 8,-686 8,-686 8,-20 8,-20 8,-14 14,-8 20,-8"/>
<text xml:space="preserve" text-anchor="middle" x="333" y="-681.65" font-family="Arial Black" font-size="13.00">fide</text>
</g>
<g id="clust2" class="cluster">
<title>cluster~/test</title>
<path fill="none" stroke="lightgray" stroke-width="2.6" d="M146,-592C146,-592 230,-592 230,-592 236,-592 242,-598 242,-604 242,-604 242,-655 242,-655 242,-661 236,-667 230,-667 230,-667 146,-667 146,-667 140,-667 134,-661 134,-655 134,-655 134,-604 134,-604 134,-598 140,-592 146,-592"/>
<text xml:space="preserve" text-anchor="middle" x="188" y="-650.65" font-family="Arial Black" font-size="13.00">test</text>
</g>
<g id="clust3" class="cluster">
<title>cluster~/lib</title>
<path fill="none" stroke="lightgray" stroke-width="2.6" d="M28,-16C28,-16 638,-16 638,-16 644,-16 650,-22 650,-28 650,-28 650,-572 650,-572 650,-578 644,-584 638,-584 638,-584 28,-584 28,-584 22,-584 16,-578 16,-572 16,-572 16,-28 16,-28 16,-22 22,-16 28,-16"/>
<text xml:space="preserve" text-anchor="middle" x="333" y="-567.65" font-family="Arial Black" font-size="13.00">lib</text>
</g>
<g id="clust4" class="cluster">
<title>cluster~/lib/utils</title>
<path fill="none" stroke="lightgray" stroke-width="2.6" d="M68,-198C68,-198 166,-198 166,-198 172,-198 178,-204 178,-210 178,-210 178,-261 178,-261 178,-267 172,-273 166,-273 166,-273 68,-273 68,-273 62,-273 56,-267 56,-261 56,-261 56,-210 56,-210 56,-204 62,-198 68,-198"/>
<text xml:space="preserve" text-anchor="middle" x="117" y="-256.65" font-family="Arial Black" font-size="13.00">utils</text>
</g>
<g id="clust5" class="cluster">
<title>cluster~/lib/models</title>
<path fill="none" stroke="lightgray" stroke-width="2.6" d="M36,-24C36,-24 276,-24 276,-24 282,-24 288,-30 288,-36 288,-36 288,-87 288,-87 288,-93 282,-99 276,-99 276,-99 36,-99 36,-99 30,-99 24,-93 24,-87 24,-87 24,-36 24,-36 24,-30 30,-24 36,-24"/>
<text xml:space="preserve" text-anchor="middle" x="156" y="-82.65" font-family="Arial Black" font-size="13.00">models</text>
</g>
<g id="clust6" class="cluster">
<title>cluster~/lib/screens</title>
<path fill="none" stroke="lightgray" stroke-width="2.6" d="M118,-312C118,-312 482,-312 482,-312 488,-312 494,-318 494,-324 494,-324 494,-497 494,-497 494,-503 488,-509 482,-509 482,-509 118,-509 118,-509 112,-509 106,-503 106,-497 106,-497 106,-324 106,-324 106,-318 112,-312 118,-312"/>
<text xml:space="preserve" text-anchor="middle" x="300" y="-492.65" font-family="Arial Black" font-size="13.00">screens</text>
</g>
<g id="clust7" class="cluster">
<title>cluster~/lib/screens/explorer</title>
<path fill="none" stroke="lightgray" stroke-width="2.6" d="M126,-320C126,-320 246,-320 246,-320 252,-320 258,-326 258,-332 258,-332 258,-466 258,-466 258,-472 252,-478 246,-478 246,-478 126,-478 126,-478 120,-478 114,-472 114,-466 114,-466 114,-332 114,-332 114,-326 120,-320 126,-320"/>
<text xml:space="preserve" text-anchor="middle" x="186" y="-461.65" font-family="Arial Black" font-size="13.00">explorer</text>
</g>
<g id="clust8" class="cluster">
<title>cluster~/lib/screens/outline</title>
<path fill="none" stroke="lightgray" stroke-width="2.6" d="M278,-403C278,-403 374,-403 374,-403 380,-403 386,-409 386,-415 386,-415 386,-466 386,-466 386,-472 380,-478 374,-478 374,-478 278,-478 278,-478 272,-478 266,-472 266,-466 266,-466 266,-415 266,-415 266,-409 272,-403 278,-403"/>
<text xml:space="preserve" text-anchor="middle" x="326" y="-461.65" font-family="Arial Black" font-size="13.00">outline</text>
</g>
<g id="clust9" class="cluster">
<title>cluster~/lib/screens/editor</title>
<path fill="none" stroke="lightgray" stroke-width="2.6" d="M278,-320C278,-320 376,-320 376,-320 382,-320 388,-326 388,-332 388,-332 388,-383 388,-383 388,-389 382,-395 376,-395 376,-395 278,-395 278,-395 272,-395 266,-389 266,-383 266,-383 266,-332 266,-332 266,-326 272,-320 278,-320"/>
<text xml:space="preserve" text-anchor="middle" x="327" y="-378.65" font-family="Arial Black" font-size="13.00">editor</text>
</g>
<g id="clust10" class="cluster">
<title>cluster~/lib/screens/git</title>
<path fill="none" stroke="lightgray" stroke-width="2.6" d="M406,-403C406,-403 474,-403 474,-403 480,-403 486,-409 486,-415 486,-415 486,-466 486,-466 486,-472 480,-478 474,-478 474,-478 406,-478 406,-478 400,-478 394,-472 394,-466 394,-466 394,-415 394,-415 394,-409 400,-403 406,-403"/>
<text xml:space="preserve" text-anchor="middle" x="440" y="-461.65" font-family="Arial Black" font-size="13.00">git</text>
</g>
<g id="clust11" class="cluster">
<title>cluster~/lib/theme</title>
<path fill="none" stroke="lightgray" stroke-width="2.6" d="M514,-320C514,-320 598,-320 598,-320 604,-320 610,-326 610,-332 610,-332 610,-383 610,-383 610,-389 604,-395 598,-395 598,-395 514,-395 514,-395 508,-395 502,-389 502,-383 502,-383 502,-332 502,-332 502,-326 508,-320 514,-320"/>
<text xml:space="preserve" text-anchor="middle" x="556" y="-378.65" font-family="Arial Black" font-size="13.00">theme</text>
</g>
<g id="clust12" class="cluster">
<title>cluster~/lib/services</title>
<path fill="none" stroke="lightgray" stroke-width="2.6" d="M259,-107C259,-107 630,-107 630,-107 636,-107 642,-113 642,-119 642,-119 642,-170 642,-170 642,-176 636,-182 630,-182 630,-182 259,-182 259,-182 253,-182 247,-176 247,-170 247,-170 247,-119 247,-119 247,-113 253,-107 259,-107"/>
<text xml:space="preserve" text-anchor="middle" x="444.5" y="-165.65" font-family="Arial Black" font-size="13.00">services</text>
</g>
<g id="clust13" class="cluster">
<title>cluster~/lib/widgets</title>
<path fill="none" stroke="lightgray" stroke-width="2.6" d="M210,-190C210,-190 453,-190 453,-190 459,-190 465,-196 465,-202 465,-202 465,-292 465,-292 465,-298 459,-304 453,-304 453,-304 210,-304 210,-304 204,-304 198,-298 198,-292 198,-292 198,-202 198,-202 198,-196 204,-190 210,-190"/>
<text xml:space="preserve" text-anchor="middle" x="331.5" y="-287.65" font-family="Arial Black" font-size="13.00">widgets</text>
</g>
<g id="clust14" class="cluster">
<title>cluster~/lib/widgets/explorer</title>
<path fill="none" stroke="lightgray" stroke-width="2.6" d="M218,-198C218,-198 308,-198 308,-198 314,-198 320,-204 320,-210 320,-210 320,-261 320,-261 320,-267 314,-273 308,-273 308,-273 218,-273 218,-273 212,-273 206,-267 206,-261 206,-261 206,-210 206,-210 206,-204 212,-198 218,-198"/>
<text xml:space="preserve" text-anchor="middle" x="263" y="-256.65" font-family="Arial Black" font-size="13.00">explorer</text>
</g>
<g id="clust15" class="cluster">
<title>cluster~/tool</title>
<path fill="none" stroke="lightgray" stroke-width="2.6" d="M407,-592C407,-592 493,-592 493,-592 499,-592 505,-598 505,-604 505,-604 505,-655 505,-655 505,-661 499,-667 493,-667 493,-667 407,-667 407,-667 401,-667 395,-661 395,-655 395,-655 395,-604 395,-604 395,-598 401,-592 407,-592"/>
<text xml:space="preserve" text-anchor="middle" x="450" y="-650.65" font-family="Arial Black" font-size="13.00">tool</text>
</g>
<!-- /test/widget_test.dart -->
<g id="node1" class="node">
<title>/test/widget_test.dart</title>
<path fill="Lavender" stroke="black" stroke-width="1.3" d="M221.88,-636C221.88,-636 154.12,-636 154.12,-636 148.12,-636 142.12,-630 142.12,-624 142.12,-624 142.12,-612 142.12,-612 142.12,-606 148.12,-600 154.12,-600 154.12,-600 221.88,-600 221.88,-600 227.88,-600 233.88,-606 233.88,-612 233.88,-612 233.88,-624 233.88,-624 233.88,-630 227.88,-636 221.88,-636"/>
<text xml:space="preserve" text-anchor="middle" x="188" y="-612.75" font-family="Arial" font-size="15.00">widget_test</text>
</g>
<!-- /lib/main.dart -->
<g id="node10" class="node">
<title>/lib/main.dart</title>
<path fill="Lavender" stroke="black" stroke-width="1.3" d="M203,-553C203,-553 173,-553 173,-553 167,-553 161,-547 161,-541 161,-541 161,-529 161,-529 161,-523 167,-517 173,-517 173,-517 203,-517 203,-517 209,-517 215,-523 215,-529 215,-529 215,-541 215,-541 215,-547 209,-553 203,-553"/>
<text xml:space="preserve" text-anchor="middle" x="188" y="-529.75" font-family="Arial" font-size="15.00">main</text>
</g>
<!-- /test/widget_test.dart&#45;&gt;/lib/main.dart -->
<g id="edge1" class="edge">
<title>/test/widget_test.dart&#45;&gt;/lib/main.dart</title>
<path fill="none" stroke="#aabbaa" stroke-width="1.3" stroke-opacity="0.533333" d="M188,-599.42C188,-589.45 188,-576.7 188,-565.26"/>
<polygon fill="#aabbaa" fill-opacity="0.533333" stroke="#aabbaa" stroke-width="1.3" stroke-opacity="0.533333" points="191.5,-565.51 188,-555.51 184.5,-565.51 191.5,-565.51"/>
</g>
<!-- /lib/utils/file_type_utils.dart -->
<g id="node2" class="node">
<title>/lib/utils/file_type_utils.dart</title>
<path fill="Lavender" stroke="black" stroke-width="1.3" d="M158,-242C158,-242 76,-242 76,-242 70,-242 64,-236 64,-230 64,-230 64,-218 64,-218 64,-212 70,-206 76,-206 76,-206 158,-206 158,-206 164,-206 170,-212 170,-218 170,-218 170,-230 170,-230 170,-236 164,-242 158,-242"/>
<text xml:space="preserve" text-anchor="middle" x="117" y="-218.75" font-family="Arial" font-size="15.00">file_type_utils</text>
</g>
<!-- /lib/models/project_node.dart -->
<g id="node3" class="node">
<title>/lib/models/project_node.dart</title>
<path fill="Lavender" stroke="black" stroke-width="1.3" d="M122.12,-68C122.12,-68 43.88,-68 43.88,-68 37.88,-68 31.88,-62 31.88,-56 31.88,-56 31.88,-44 31.88,-44 31.88,-38 37.88,-32 43.88,-32 43.88,-32 122.12,-32 122.12,-32 128.12,-32 134.12,-38 134.12,-44 134.12,-44 134.12,-56 134.12,-56 134.12,-62 128.12,-68 122.12,-68"/>
<text xml:space="preserve" text-anchor="middle" x="83" y="-44.75" font-family="Arial" font-size="15.00">project_node</text>
</g>
<!-- /lib/models/file_system_item.dart -->
<g id="node4" class="node">
<title>/lib/models/file_system_item.dart</title>
<path fill="Lavender" stroke="black" stroke-width="1.3" d="M267.88,-68C267.88,-68 164.12,-68 164.12,-68 158.12,-68 152.12,-62 152.12,-56 152.12,-56 152.12,-44 152.12,-44 152.12,-38 158.12,-32 164.12,-32 164.12,-32 267.88,-32 267.88,-32 273.88,-32 279.88,-38 279.88,-44 279.88,-44 279.88,-56 279.88,-56 279.88,-62 273.88,-68 267.88,-68"/>
<text xml:space="preserve" text-anchor="middle" x="216" y="-44.75" font-family="Arial" font-size="15.00">file_system_item</text>
</g>
<!-- /lib/screens/explorer/explorer_screen.dart -->
<g id="node5" class="node">
<title>/lib/screens/explorer/explorer_screen.dart</title>
<path fill="Lavender" stroke="black" stroke-width="1.3" d="M237.62,-447C237.62,-447 138.38,-447 138.38,-447 132.38,-447 126.38,-441 126.38,-435 126.38,-435 126.38,-423 126.38,-423 126.38,-417 132.38,-411 138.38,-411 138.38,-411 237.62,-411 237.62,-411 243.62,-411 249.62,-417 249.62,-423 249.62,-423 249.62,-435 249.62,-435 249.62,-441 243.62,-447 237.62,-447"/>
<text xml:space="preserve" text-anchor="middle" x="188" y="-423.75" font-family="Arial" font-size="15.00">explorer_screen</text>
</g>
<!-- /lib/screens/explorer/explorer_screen.dart&#45;&gt;/lib/models/project_node.dart -->
<g id="edge2" class="edge">
<title>/lib/screens/explorer/explorer_screen.dart&#45;&gt;/lib/models/project_node.dart</title>
<path fill="none" stroke="#aabbaa" stroke-width="1.3" stroke-opacity="0.533333" d="M233.66,-410.4C242.92,-407.45 252.68,-404.78 262,-403 279.16,-399.73 404.2,-404.27 419,-395 428.78,-388.88 466.13,-315.17 469,-304 481.59,-254.92 504.22,-226.42 469,-190 459.8,-180.49 243.29,-186.9 231,-182 176.4,-160.25 128.61,-108.96 102.96,-77.4"/>
<polygon fill="#aabbaa" fill-opacity="0.533333" stroke="#aabbaa" stroke-width="1.3" stroke-opacity="0.533333" points="105.91,-75.49 96.95,-69.83 100.43,-79.84 105.91,-75.49"/>
</g>
<!-- /lib/screens/explorer/explorer_screen.dart&#45;&gt;/lib/models/file_system_item.dart -->
<g id="edge3" class="edge">
<title>/lib/screens/explorer/explorer_screen.dart&#45;&gt;/lib/models/file_system_item.dart</title>
<path fill="none" stroke="#aabbaa" stroke-width="1.3" stroke-opacity="0.533333" d="M234.07,-410.35C243.21,-407.45 252.82,-404.8 262,-403 276.2,-400.22 382.09,-405.54 392,-395 404.64,-381.56 404.76,-325.31 392,-312 377.38,-296.75 216.62,-319.25 202,-304 172.01,-272.72 196.46,-139.78 209.33,-80.15"/>
<polygon fill="#aabbaa" fill-opacity="0.533333" stroke="#aabbaa" stroke-width="1.3" stroke-opacity="0.533333" points="212.72,-81.04 211.45,-70.52 205.88,-79.53 212.72,-81.04"/>
</g>
<!-- /lib/screens/explorer/welcome_screen.dart -->
<g id="node6" class="node">
<title>/lib/screens/explorer/welcome_screen.dart</title>
<path fill="Lavender" stroke="black" stroke-width="1.3" d="M237.88,-364C237.88,-364 134.12,-364 134.12,-364 128.12,-364 122.12,-358 122.12,-352 122.12,-352 122.12,-340 122.12,-340 122.12,-334 128.12,-328 134.12,-328 134.12,-328 237.88,-328 237.88,-328 243.88,-328 249.88,-334 249.88,-340 249.88,-340 249.88,-352 249.88,-352 249.88,-358 243.88,-364 237.88,-364"/>
<text xml:space="preserve" text-anchor="middle" x="186" y="-340.75" font-family="Arial" font-size="15.00">welcome_screen</text>
</g>
<!-- /lib/screens/explorer/explorer_screen.dart&#45;&gt;/lib/screens/explorer/welcome_screen.dart -->
<g id="edge5" class="edge">
<title>/lib/screens/explorer/explorer_screen.dart&#45;&gt;/lib/screens/explorer/welcome_screen.dart</title>
<path fill="none" stroke="#aabbaa" stroke-width="1.3" stroke-opacity="0.533333" d="M187.57,-410.42C187.32,-400.45 187,-387.7 186.72,-376.26"/>
<polygon fill="#aabbaa" fill-opacity="0.533333" stroke="#aabbaa" stroke-width="1.3" stroke-opacity="0.533333" points="190.23,-376.42 186.48,-366.51 183.23,-376.59 190.23,-376.42"/>
</g>
<!-- /lib/theme/app_theme.dart -->
<g id="node11" class="node">
<title>/lib/theme/app_theme.dart</title>
<path fill="Lavender" stroke="black" stroke-width="1.3" d="M589.5,-364C589.5,-364 522.5,-364 522.5,-364 516.5,-364 510.5,-358 510.5,-352 510.5,-352 510.5,-340 510.5,-340 510.5,-334 516.5,-328 522.5,-328 522.5,-328 589.5,-328 589.5,-328 595.5,-328 601.5,-334 601.5,-340 601.5,-340 601.5,-352 601.5,-352 601.5,-358 595.5,-364 589.5,-364"/>
<text xml:space="preserve" text-anchor="middle" x="556" y="-340.75" font-family="Arial" font-size="15.00">app_theme</text>
</g>
<!-- /lib/screens/explorer/explorer_screen.dart&#45;&gt;/lib/theme/app_theme.dart -->
<g id="edge6" class="edge">
<title>/lib/screens/explorer/explorer_screen.dart&#45;&gt;/lib/theme/app_theme.dart</title>
<path fill="none" stroke="#aabbaa" stroke-width="1.3" stroke-opacity="0.533333" d="M233.25,-410.45C242.63,-407.46 252.53,-404.76 262,-403 346.85,-387.25 372.27,-415.88 456,-395 477.14,-389.73 499.13,-379.74 517.09,-370.23"/>
<polygon fill="#aabbaa" fill-opacity="0.533333" stroke="#aabbaa" stroke-width="1.3" stroke-opacity="0.533333" points="518.61,-373.39 525.71,-365.52 515.25,-367.25 518.61,-373.39"/>
</g>
<!-- /lib/widgets/message_widget.dart -->
<g id="node16" class="node">
<title>/lib/widgets/message_widget.dart</title>
<path fill="Lavender" stroke="black" stroke-width="1.3" d="M444.88,-242C444.88,-242 341.12,-242 341.12,-242 335.12,-242 329.12,-236 329.12,-230 329.12,-230 329.12,-218 329.12,-218 329.12,-212 335.12,-206 341.12,-206 341.12,-206 444.88,-206 444.88,-206 450.88,-206 456.88,-212 456.88,-218 456.88,-218 456.88,-230 456.88,-230 456.88,-236 450.88,-242 444.88,-242"/>
<text xml:space="preserve" text-anchor="middle" x="393" y="-218.75" font-family="Arial" font-size="15.00">message_widget</text>
</g>
<!-- /lib/screens/explorer/explorer_screen.dart&#45;&gt;/lib/widgets/message_widget.dart -->
<g id="edge4" class="edge">
<title>/lib/screens/explorer/explorer_screen.dart&#45;&gt;/lib/widgets/message_widget.dart</title>
<path fill="none" stroke="#aabbaa" stroke-width="1.3" stroke-opacity="0.533333" d="M233.67,-410.44C242.92,-407.49 252.68,-404.8 262,-403 277.52,-400 393.14,-406.48 404,-395 439.81,-357.11 421.09,-290.81 405.96,-253.18"/>
<polygon fill="#aabbaa" fill-opacity="0.533333" stroke="#aabbaa" stroke-width="1.3" stroke-opacity="0.533333" points="409.32,-252.14 402.21,-244.29 402.87,-254.87 409.32,-252.14"/>
</g>
<!-- /lib/screens/outline/outline_panel.dart -->
<g id="node7" class="node">
<title>/lib/screens/outline/outline_panel.dart</title>
<path fill="Lavender" stroke="black" stroke-width="1.3" d="M365.88,-447C365.88,-447 286.12,-447 286.12,-447 280.12,-447 274.12,-441 274.12,-435 274.12,-435 274.12,-423 274.12,-423 274.12,-417 280.12,-411 286.12,-411 286.12,-411 365.88,-411 365.88,-411 371.88,-411 377.88,-417 377.88,-423 377.88,-423 377.88,-435 377.88,-435 377.88,-441 371.88,-447 365.88,-447"/>
<text xml:space="preserve" text-anchor="middle" x="326" y="-423.75" font-family="Arial" font-size="15.00">outline_panel</text>
</g>
<!-- /lib/screens/outline/outline_panel.dart&#45;&gt;/lib/models/file_system_item.dart -->
<g id="edge8" class="edge">
<title>/lib/screens/outline/outline_panel.dart&#45;&gt;/lib/models/file_system_item.dart</title>
<path fill="none" stroke="#aabbaa" stroke-width="1.3" stroke-opacity="0.533333" d="M366.85,-410.42C374.44,-407.62 382.38,-404.99 390,-403 414.75,-396.52 427.22,-411.23 447,-395 477.21,-370.22 456.33,-345.76 476,-312 478.38,-307.92 481.34,-308.42 483,-304 491.91,-280.29 500.61,-208.21 483,-190 464.45,-170.82 263.35,-199.26 243,-182 217.07,-160.01 234.89,-140.29 228,-107 226.19,-98.26 224.18,-88.77 222.32,-80.13"/>
<polygon fill="#aabbaa" fill-opacity="0.533333" stroke="#aabbaa" stroke-width="1.3" stroke-opacity="0.533333" points="225.79,-79.6 220.26,-70.57 218.95,-81.08 225.79,-79.6"/>
</g>
<!-- /lib/screens/editor/editor_screen.dart -->
<g id="node8" class="node">
<title>/lib/screens/editor/editor_screen.dart</title>
<path fill="Lavender" stroke="black" stroke-width="1.3" d="M368.38,-364C368.38,-364 285.62,-364 285.62,-364 279.62,-364 273.62,-358 273.62,-352 273.62,-352 273.62,-340 273.62,-340 273.62,-334 279.62,-328 285.62,-328 285.62,-328 368.38,-328 368.38,-328 374.38,-328 380.38,-334 380.38,-340 380.38,-340 380.38,-352 380.38,-352 380.38,-358 374.38,-364 368.38,-364"/>
<text xml:space="preserve" text-anchor="middle" x="327" y="-340.75" font-family="Arial" font-size="15.00">editor_screen</text>
</g>
<!-- /lib/screens/outline/outline_panel.dart&#45;&gt;/lib/screens/editor/editor_screen.dart -->
<g id="edge9" class="edge">
<title>/lib/screens/outline/outline_panel.dart&#45;&gt;/lib/screens/editor/editor_screen.dart</title>
<path fill="none" stroke="#aabbaa" stroke-width="1.3" stroke-opacity="0.533333" d="M326.22,-410.42C326.34,-400.45 326.5,-387.7 326.64,-376.26"/>
<polygon fill="#aabbaa" fill-opacity="0.533333" stroke="#aabbaa" stroke-width="1.3" stroke-opacity="0.533333" points="330.14,-376.55 326.76,-366.51 323.14,-376.46 330.14,-376.55"/>
</g>
<!-- /lib/screens/outline/outline_panel.dart&#45;&gt;/lib/theme/app_theme.dart -->
<g id="edge7" class="edge">
<title>/lib/screens/outline/outline_panel.dart&#45;&gt;/lib/theme/app_theme.dart</title>
<path fill="none" stroke="#aabbaa" stroke-width="1.3" stroke-opacity="0.533333" d="M366.08,-410.38C373.89,-407.51 382.11,-404.87 390,-403 427.35,-394.15 439.52,-406.95 476,-395 492.72,-389.52 509.66,-380.05 523.61,-370.96"/>
<polygon fill="#aabbaa" fill-opacity="0.533333" stroke="#aabbaa" stroke-width="1.3" stroke-opacity="0.533333" points="525.25,-374.08 531.57,-365.57 521.33,-368.28 525.25,-374.08"/>
</g>
<!-- /lib/screens/editor/editor_screen.dart&#45;&gt;/lib/utils/file_type_utils.dart -->
<g id="edge11" class="edge">
<title>/lib/screens/editor/editor_screen.dart&#45;&gt;/lib/utils/file_type_utils.dart</title>
<path fill="none" stroke="#aabbaa" stroke-width="1.3" stroke-opacity="0.533333" d="M298.18,-327.5C287.22,-321.62 274.38,-315.64 262,-312 228.57,-302.17 214.83,-320.24 184,-304 162.05,-292.44 144.31,-270.4 132.6,-252.54"/>
<polygon fill="#aabbaa" fill-opacity="0.533333" stroke="#aabbaa" stroke-width="1.3" stroke-opacity="0.533333" points="135.72,-250.92 127.47,-244.28 129.78,-254.62 135.72,-250.92"/>
</g>
<!-- /lib/screens/editor/editor_screen.dart&#45;&gt;/lib/widgets/message_widget.dart -->
<g id="edge10" class="edge">
<title>/lib/screens/editor/editor_screen.dart&#45;&gt;/lib/widgets/message_widget.dart</title>
<path fill="none" stroke="#aabbaa" stroke-width="1.3" stroke-opacity="0.533333" d="M336.6,-327.55C347.4,-307.91 365.09,-275.74 377.79,-252.66"/>
<polygon fill="#aabbaa" fill-opacity="0.533333" stroke="#aabbaa" stroke-width="1.3" stroke-opacity="0.533333" points="380.69,-254.64 382.44,-244.19 374.56,-251.27 380.69,-254.64"/>
</g>
<!-- /lib/screens/git/git_panel.dart -->
<g id="node9" class="node">
<title>/lib/screens/git/git_panel.dart</title>
<path fill="Lavender" stroke="black" stroke-width="1.3" d="M466,-447C466,-447 414,-447 414,-447 408,-447 402,-441 402,-435 402,-435 402,-423 402,-423 402,-417 408,-411 414,-411 414,-411 466,-411 466,-411 472,-411 478,-417 478,-423 478,-423 478,-435 478,-435 478,-441 472,-447 466,-447"/>
<text xml:space="preserve" text-anchor="middle" x="440" y="-423.75" font-family="Arial" font-size="15.00">git_panel</text>
</g>
<!-- /lib/screens/git/git_panel.dart&#45;&gt;/lib/theme/app_theme.dart -->
<g id="edge12" class="edge">
<title>/lib/screens/git/git_panel.dart&#45;&gt;/lib/theme/app_theme.dart</title>
<path fill="none" stroke="#aabbaa" stroke-width="1.3" stroke-opacity="0.533333" d="M469.33,-410.45C473.58,-407.94 477.9,-405.39 482,-403 488.19,-399.39 490.07,-399.03 496,-395 506.34,-387.97 517.16,-379.65 526.71,-371.93"/>
<polygon fill="#aabbaa" fill-opacity="0.533333" stroke="#aabbaa" stroke-width="1.3" stroke-opacity="0.533333" points="528.75,-374.78 534.26,-365.73 524.31,-369.37 528.75,-374.78"/>
</g>
<!-- /lib/services/git_service.dart -->
<g id="node12" class="node">
<title>/lib/services/git_service.dart</title>
<path fill="Lavender" stroke="black" stroke-width="1.3" d="M494.62,-151C494.62,-151 431.38,-151 431.38,-151 425.38,-151 419.38,-145 419.38,-139 419.38,-139 419.38,-127 419.38,-127 419.38,-121 425.38,-115 431.38,-115 431.38,-115 494.62,-115 494.62,-115 500.62,-115 506.62,-121 506.62,-127 506.62,-127 506.62,-139 506.62,-139 506.62,-145 500.62,-151 494.62,-151"/>
<text xml:space="preserve" text-anchor="middle" x="463" y="-127.75" font-family="Arial" font-size="15.00">git_service</text>
</g>
<!-- /lib/screens/git/git_panel.dart&#45;&gt;/lib/services/git_service.dart -->
<g id="edge13" class="edge">
<title>/lib/screens/git/git_panel.dart&#45;&gt;/lib/services/git_service.dart</title>
<path fill="none" stroke="#aabbaa" stroke-width="1.3" stroke-opacity="0.533333" d="M463.05,-410.53C467.9,-405.93 472.58,-400.66 476,-395 495.75,-362.35 486.4,-348.36 498,-312 499.15,-308.38 500.32,-307.74 501,-304 510.04,-254.15 515.88,-238.43 501,-190 497.79,-179.56 491.9,-169.31 485.7,-160.49"/>
<polygon fill="#aabbaa" fill-opacity="0.533333" stroke="#aabbaa" stroke-width="1.3" stroke-opacity="0.533333" points="488.69,-158.66 479.87,-152.79 483.11,-162.88 488.69,-158.66"/>
</g>
<!-- /lib/main.dart&#45;&gt;/lib/utils/file_type_utils.dart -->
<g id="edge24" class="edge">
<title>/lib/main.dart&#45;&gt;/lib/utils/file_type_utils.dart</title>
<path fill="none" stroke="#aabbaa" stroke-width="1.3" stroke-opacity="0.533333" d="M160.57,-531.74C130.9,-528.66 86.4,-521.98 76,-509 44.76,-470.01 87.64,-317.78 107.67,-253.69"/>
<polygon fill="#aabbaa" fill-opacity="0.533333" stroke="#aabbaa" stroke-width="1.3" stroke-opacity="0.533333" points="110.96,-254.92 110.64,-244.33 104.28,-252.8 110.96,-254.92"/>
</g>
<!-- /lib/main.dart&#45;&gt;/lib/models/project_node.dart -->
<g id="edge23" class="edge">
<title>/lib/main.dart&#45;&gt;/lib/models/project_node.dart</title>
<path fill="none" stroke="#aabbaa" stroke-width="1.3" stroke-opacity="0.533333" d="M160.51,-533.23C122.27,-531.54 55.91,-526.15 40,-509 -9.18,-455.99 25,-419.31 25,-347 25,-347 25,-347 25,-223 25,-169.77 50.25,-111.91 67.43,-78.7"/>
<polygon fill="#aabbaa" fill-opacity="0.533333" stroke="#aabbaa" stroke-width="1.3" stroke-opacity="0.533333" points="70.36,-80.63 71.97,-70.16 64.18,-77.34 70.36,-80.63"/>
</g>
<!-- /lib/main.dart&#45;&gt;/lib/models/file_system_item.dart -->
<g id="edge22" class="edge">
<title>/lib/main.dart&#45;&gt;/lib/models/file_system_item.dart</title>
<path fill="none" stroke="#aabbaa" stroke-width="1.3" stroke-opacity="0.533333" d="M160.6,-532.47C127.22,-529.97 73.67,-523.74 61,-509 37.88,-482.11 37.09,-222.17 52,-190 65.68,-160.47 136.85,-106.66 180.82,-75.36"/>
<polygon fill="#aabbaa" fill-opacity="0.533333" stroke="#aabbaa" stroke-width="1.3" stroke-opacity="0.533333" points="182.8,-78.24 188.95,-69.61 178.76,-72.52 182.8,-78.24"/>
</g>
<!-- /lib/main.dart&#45;&gt;/lib/screens/explorer/explorer_screen.dart -->
<g id="edge14" class="edge">
<title>/lib/main.dart&#45;&gt;/lib/screens/explorer/explorer_screen.dart</title>
<path fill="none" stroke="#aabbaa" stroke-width="1.3" stroke-opacity="0.533333" d="M188,-516.36C188,-500.73 188,-477.59 188,-459.2"/>
<polygon fill="#aabbaa" fill-opacity="0.533333" stroke="#aabbaa" stroke-width="1.3" stroke-opacity="0.533333" points="191.5,-459.35 188,-449.35 184.5,-459.35 191.5,-459.35"/>
</g>
<!-- /lib/main.dart&#45;&gt;/lib/screens/explorer/welcome_screen.dart -->
<g id="edge15" class="edge">
<title>/lib/main.dart&#45;&gt;/lib/screens/explorer/welcome_screen.dart</title>
<path fill="none" stroke="#aabbaa" stroke-width="1.3" stroke-opacity="0.533333" d="M160.54,-534.34C140.27,-532.96 113.88,-527.38 100,-509 71.6,-471.41 74.33,-442.5 100,-403 104.77,-395.66 110.39,-399.32 118,-395 130.12,-388.12 142.76,-379.6 153.81,-371.67"/>
<polygon fill="#aabbaa" fill-opacity="0.533333" stroke="#aabbaa" stroke-width="1.3" stroke-opacity="0.533333" points="155.87,-374.5 161.86,-365.77 151.73,-368.86 155.87,-374.5"/>
</g>
<!-- /lib/main.dart&#45;&gt;/lib/screens/outline/outline_panel.dart -->
<g id="edge17" class="edge">
<title>/lib/main.dart&#45;&gt;/lib/screens/outline/outline_panel.dart</title>
<path fill="none" stroke="#aabbaa" stroke-width="1.3" stroke-opacity="0.533333" d="M215.37,-528.67C230.12,-524.87 248.09,-518.68 262,-509 281.44,-495.48 298.08,-474.43 309.52,-457.46"/>
<polygon fill="#aabbaa" fill-opacity="0.533333" stroke="#aabbaa" stroke-width="1.3" stroke-opacity="0.533333" points="312.38,-459.48 314.88,-449.18 306.51,-455.67 312.38,-459.48"/>
</g>
<!-- /lib/main.dart&#45;&gt;/lib/screens/editor/editor_screen.dart -->
<g id="edge16" class="edge">
<title>/lib/main.dart&#45;&gt;/lib/screens/editor/editor_screen.dart</title>
<path fill="none" stroke="#aabbaa" stroke-width="1.3" stroke-opacity="0.533333" d="M160.55,-533.02C143.01,-530.79 121.48,-524.74 110,-509 96.12,-489.97 93.79,-420.09 110,-403 121.64,-390.73 246.08,-400.71 262,-395 275.89,-390.02 289.34,-381.03 300.37,-372.16"/>
<polygon fill="#aabbaa" fill-opacity="0.533333" stroke="#aabbaa" stroke-width="1.3" stroke-opacity="0.533333" points="302.52,-374.92 307.88,-365.78 297.99,-369.59 302.52,-374.92"/>
</g>
<!-- /lib/main.dart&#45;&gt;/lib/screens/git/git_panel.dart -->
<g id="edge18" class="edge">
<title>/lib/main.dart&#45;&gt;/lib/screens/git/git_panel.dart</title>
<path fill="none" stroke="#aabbaa" stroke-width="1.3" stroke-opacity="0.533333" d="M215.32,-533.47C263.59,-532.06 361.57,-527.02 390,-509 408.56,-497.24 421.47,-475.83 429.52,-458.26"/>
<polygon fill="#aabbaa" fill-opacity="0.533333" stroke="#aabbaa" stroke-width="1.3" stroke-opacity="0.533333" points="432.67,-459.8 433.35,-449.23 426.22,-457.07 432.67,-459.8"/>
</g>
<!-- /lib/main.dart&#45;&gt;/lib/theme/app_theme.dart -->
<g id="edge21" class="edge">
<title>/lib/main.dart&#45;&gt;/lib/theme/app_theme.dart</title>
<path fill="none" stroke="#aabbaa" stroke-width="1.3" stroke-opacity="0.533333" d="M215.56,-533.35C285.92,-531.45 468.16,-525.03 490,-509 532.78,-477.59 547.91,-413.58 553.2,-376.11"/>
<polygon fill="#aabbaa" fill-opacity="0.533333" stroke="#aabbaa" stroke-width="1.3" stroke-opacity="0.533333" points="556.64,-376.81 554.4,-366.46 549.7,-375.95 556.64,-376.81"/>
</g>
<!-- /lib/main.dart&#45;&gt;/lib/services/git_service.dart -->
<g id="edge20" class="edge">
<title>/lib/main.dart&#45;&gt;/lib/services/git_service.dart</title>
<path fill="none" stroke="#aabbaa" stroke-width="1.3" stroke-opacity="0.533333" d="M215.55,-533.82C298.64,-533.06 542.86,-529.11 572,-509 646.54,-457.58 656.55,-396.5 624,-312 610.19,-276.15 532.75,-199.6 490.51,-159.58"/>
<polygon fill="#aabbaa" fill-opacity="0.533333" stroke="#aabbaa" stroke-width="1.3" stroke-opacity="0.533333" points="493.17,-157.28 483.49,-152.97 488.37,-162.38 493.17,-157.28"/>
</g>
<!-- /lib/services/file_system_service.dart -->
<g id="node13" class="node">
<title>/lib/services/file_system_service.dart</title>
<path fill="Lavender" stroke="black" stroke-width="1.3" d="M389.25,-151C389.25,-151 266.75,-151 266.75,-151 260.75,-151 254.75,-145 254.75,-139 254.75,-139 254.75,-127 254.75,-127 254.75,-121 260.75,-115 266.75,-115 266.75,-115 389.25,-115 389.25,-115 395.25,-115 401.25,-121 401.25,-127 401.25,-127 401.25,-139 401.25,-139 401.25,-145 395.25,-151 389.25,-151"/>
<text xml:space="preserve" text-anchor="middle" x="328" y="-127.75" font-family="Arial" font-size="15.00">file_system_service</text>
</g>
<!-- /lib/main.dart&#45;&gt;/lib/services/file_system_service.dart -->
<g id="edge19" class="edge">
<title>/lib/main.dart&#45;&gt;/lib/services/file_system_service.dart</title>
<path fill="none" stroke="#aabbaa" stroke-width="1.3" stroke-opacity="0.533333" d="M215.63,-533.21C291.13,-530.89 497.07,-523.31 524,-509 581.01,-478.71 592.83,-455.98 614,-395 648.7,-295.05 588.59,-235.33 493,-190 459.51,-174.12 445.26,-193.41 410,-182 392.95,-176.48 375.6,-167.01 361.28,-157.92"/>
<polygon fill="#aabbaa" fill-opacity="0.533333" stroke="#aabbaa" stroke-width="1.3" stroke-opacity="0.533333" points="363.36,-155.1 353.08,-152.52 359.51,-160.94 363.36,-155.1"/>
</g>
<!-- /lib/services/file_system_service.dart&#45;&gt;/lib/models/file_system_item.dart -->
<g id="edge25" class="edge">
<title>/lib/services/file_system_service.dart&#45;&gt;/lib/models/file_system_item.dart</title>
<path fill="none" stroke="#aabbaa" stroke-width="1.3" stroke-opacity="0.533333" d="M303.7,-114.42C287.85,-102.96 266.94,-87.84 249.52,-75.24"/>
<polygon fill="#aabbaa" fill-opacity="0.533333" stroke="#aabbaa" stroke-width="1.3" stroke-opacity="0.533333" points="252,-72.72 241.85,-69.69 247.9,-78.39 252,-72.72"/>
</g>
<!-- /lib/services/editor_service.dart -->
<g id="node14" class="node">
<title>/lib/services/editor_service.dart</title>
<path fill="Lavender" stroke="black" stroke-width="1.3" d="M621.5,-151C621.5,-151 536.5,-151 536.5,-151 530.5,-151 524.5,-145 524.5,-139 524.5,-139 524.5,-127 524.5,-127 524.5,-121 530.5,-115 536.5,-115 536.5,-115 621.5,-115 621.5,-115 627.5,-115 633.5,-121 633.5,-127 633.5,-127 633.5,-139 633.5,-139 633.5,-145 627.5,-151 621.5,-151"/>
<text xml:space="preserve" text-anchor="middle" x="579" y="-127.75" font-family="Arial" font-size="15.00">editor_service</text>
</g>
<!-- /lib/widgets/explorer/file_explorer.dart -->
<g id="node15" class="node">
<title>/lib/widgets/explorer/file_explorer.dart</title>
<path fill="Lavender" stroke="black" stroke-width="1.3" d="M299.5,-242C299.5,-242 226.5,-242 226.5,-242 220.5,-242 214.5,-236 214.5,-230 214.5,-230 214.5,-218 214.5,-218 214.5,-212 220.5,-206 226.5,-206 226.5,-206 299.5,-206 299.5,-206 305.5,-206 311.5,-212 311.5,-218 311.5,-218 311.5,-230 311.5,-230 311.5,-236 305.5,-242 299.5,-242"/>
<text xml:space="preserve" text-anchor="middle" x="263" y="-218.75" font-family="Arial" font-size="15.00">file_explorer</text>
</g>
<!-- /lib/widgets/explorer/file_explorer.dart&#45;&gt;/lib/models/file_system_item.dart -->
<g id="edge27" class="edge">
<title>/lib/widgets/explorer/file_explorer.dart&#45;&gt;/lib/models/file_system_item.dart</title>
<path fill="none" stroke="#aabbaa" stroke-width="1.3" stroke-opacity="0.533333" d="M245.98,-205.59C240.28,-198.76 234.49,-190.52 231,-182 217.45,-148.89 214.86,-107.4 214.89,-80.09"/>
<polygon fill="#aabbaa" fill-opacity="0.533333" stroke="#aabbaa" stroke-width="1.3" stroke-opacity="0.533333" points="218.39,-80.29 215.04,-70.24 211.39,-80.18 218.39,-80.29"/>
</g>
<!-- /lib/widgets/explorer/file_explorer.dart&#45;&gt;/lib/services/file_system_service.dart -->
<g id="edge26" class="edge">
<title>/lib/widgets/explorer/file_explorer.dart&#45;&gt;/lib/services/file_system_service.dart</title>
<path fill="none" stroke="#aabbaa" stroke-width="1.3" stroke-opacity="0.533333" d="M275.84,-205.42C285.1,-192.74 297.77,-175.39 308.3,-160.97"/>
<polygon fill="#aabbaa" fill-opacity="0.533333" stroke="#aabbaa" stroke-width="1.3" stroke-opacity="0.533333" points="310.95,-163.28 314.02,-153.14 305.3,-159.15 310.95,-163.28"/>
</g>
<!-- /tool/sort_source.dart -->
<g id="node17" class="node">
<title>/tool/sort_source.dart</title>
<path fill="Lavender" stroke="black" stroke-width="1.3" d="M485.38,-636C485.38,-636 414.62,-636 414.62,-636 408.62,-636 402.62,-630 402.62,-624 402.62,-624 402.62,-612 402.62,-612 402.62,-606 408.62,-600 414.62,-600 414.62,-600 485.38,-600 485.38,-600 491.38,-600 497.38,-606 497.38,-612 497.38,-612 497.38,-624 497.38,-624 497.38,-630 491.38,-636 485.38,-636"/>
<text xml:space="preserve" text-anchor="middle" x="450" y="-612.75" font-family="Arial" font-size="15.00">sort_source</text>
</g>
</g>
</svg>
