<?xml version="1.0" encoding="UTF-8" standalone="no"?>
<!DOCTYPE svg PUBLIC "-//W3C//DTD SVG 1.1//EN"
 "http://www.w3.org/Graphics/SVG/1.1/DTD/svg11.dtd">
<!-- Generated by graphviz version 13.1.1 (20250719.2154)
 -->
<!-- Pages: 1 -->
<svg width="656pt" height="631pt"
 viewBox="0.00 0.00 656.00 631.00" xmlns="http://www.w3.org/2000/svg" xmlns:xlink="http://www.w3.org/1999/xlink">
<g id="graph0" class="graph" transform="scale(1 1) rotate(0) translate(4 627)">
<polygon fill="white" stroke="none" points="-4,4 -4,-627 651.52,-627 651.52,4 -4,4"/>
<g id="clust1" class="cluster">
<title>cluster~</title>
<path fill="none" stroke="lightgray" stroke-width="2.6" d="M57.52,-8C57.52,-8 627.52,-8 627.52,-8 633.52,-8 639.52,-14 639.52,-20 639.52,-20 639.52,-603 639.52,-603 639.52,-609 633.52,-615 627.52,-615 627.52,-615 57.52,-615 57.52,-615 51.52,-615 45.52,-609 45.52,-603 45.52,-603 45.52,-20 45.52,-20 45.52,-14 51.52,-8 57.52,-8"/>
<text xml:space="preserve" text-anchor="middle" x="342.52" y="-598.65" font-family="Arial Black" font-size="13.00">fide</text>
</g>
<g id="clust2" class="cluster">
<title>cluster~/test</title>
<path fill="none" stroke="lightgray" stroke-width="2.6" d="M170.52,-509C170.52,-509 254.52,-509 254.52,-509 260.52,-509 266.52,-515 266.52,-521 266.52,-521 266.52,-572 266.52,-572 266.52,-578 260.52,-584 254.52,-584 254.52,-584 170.52,-584 170.52,-584 164.52,-584 158.52,-578 158.52,-572 158.52,-572 158.52,-521 158.52,-521 158.52,-515 164.52,-509 170.52,-509"/>
<text xml:space="preserve" text-anchor="middle" x="212.52" y="-567.65" font-family="Arial Black" font-size="13.00">test</text>
</g>
<g id="clust3" class="cluster">
<title>cluster~/lib</title>
<path fill="none" stroke="lightgray" stroke-width="2.6" d="M65.52,-16C65.52,-16 619.52,-16 619.52,-16 625.52,-16 631.52,-22 631.52,-28 631.52,-28 631.52,-489 631.52,-489 631.52,-495 625.52,-501 619.52,-501 619.52,-501 65.52,-501 65.52,-501 59.52,-501 53.52,-495 53.52,-489 53.52,-489 53.52,-28 53.52,-28 53.52,-22 59.52,-16 65.52,-16"/>
<text xml:space="preserve" text-anchor="middle" x="342.52" y="-484.65" font-family="Arial Black" font-size="13.00">lib</text>
</g>
<g id="clust4" class="cluster">
<title>cluster~/lib/models</title>
<path fill="none" stroke="lightgray" stroke-width="2.6" d="M346.52,-24C346.52,-24 586.52,-24 586.52,-24 592.52,-24 598.52,-30 598.52,-36 598.52,-36 598.52,-87 598.52,-87 598.52,-93 592.52,-99 586.52,-99 586.52,-99 346.52,-99 346.52,-99 340.52,-99 334.52,-93 334.52,-87 334.52,-87 334.52,-36 334.52,-36 334.52,-30 340.52,-24 346.52,-24"/>
<text xml:space="preserve" text-anchor="middle" x="466.52" y="-82.65" font-family="Arial Black" font-size="13.00">models</text>
</g>
<g id="clust5" class="cluster">
<title>cluster~/lib/screens</title>
<path fill="none" stroke="lightgray" stroke-width="2.6" d="M221.52,-312C221.52,-312 611.52,-312 611.52,-312 617.52,-312 623.52,-318 623.52,-324 623.52,-324 623.52,-414 623.52,-414 623.52,-420 617.52,-426 611.52,-426 611.52,-426 221.52,-426 221.52,-426 215.52,-426 209.52,-420 209.52,-414 209.52,-414 209.52,-324 209.52,-324 209.52,-318 215.52,-312 221.52,-312"/>
<text xml:space="preserve" text-anchor="middle" x="416.52" y="-409.65" font-family="Arial Black" font-size="13.00">screens</text>
</g>
<g id="clust6" class="cluster">
<title>cluster~/lib/screens/explorer</title>
<path fill="none" stroke="lightgray" stroke-width="2.6" d="M487.52,-320C487.52,-320 603.52,-320 603.52,-320 609.52,-320 615.52,-326 615.52,-332 615.52,-332 615.52,-383 615.52,-383 615.52,-389 609.52,-395 603.52,-395 603.52,-395 487.52,-395 487.52,-395 481.52,-395 475.52,-389 475.52,-383 475.52,-383 475.52,-332 475.52,-332 475.52,-326 481.52,-320 487.52,-320"/>
<text xml:space="preserve" text-anchor="middle" x="545.52" y="-378.65" font-family="Arial Black" font-size="13.00">explorer</text>
</g>
<g id="clust7" class="cluster">
<title>cluster~/lib/screens/outline</title>
<path fill="none" stroke="lightgray" stroke-width="2.6" d="M359.52,-320C359.52,-320 455.52,-320 455.52,-320 461.52,-320 467.52,-326 467.52,-332 467.52,-332 467.52,-383 467.52,-383 467.52,-389 461.52,-395 455.52,-395 455.52,-395 359.52,-395 359.52,-395 353.52,-395 347.52,-389 347.52,-383 347.52,-383 347.52,-332 347.52,-332 347.52,-326 353.52,-320 359.52,-320"/>
<text xml:space="preserve" text-anchor="middle" x="407.52" y="-378.65" font-family="Arial Black" font-size="13.00">outline</text>
</g>
<g id="clust8" class="cluster">
<title>cluster~/lib/screens/editor</title>
<path fill="none" stroke="lightgray" stroke-width="2.6" d="M229.52,-320C229.52,-320 327.52,-320 327.52,-320 333.52,-320 339.52,-326 339.52,-332 339.52,-332 339.52,-383 339.52,-383 339.52,-389 333.52,-395 327.52,-395 327.52,-395 229.52,-395 229.52,-395 223.52,-395 217.52,-389 217.52,-383 217.52,-383 217.52,-332 217.52,-332 217.52,-326 223.52,-320 229.52,-320"/>
<text xml:space="preserve" text-anchor="middle" x="278.52" y="-378.65" font-family="Arial Black" font-size="13.00">editor</text>
</g>
<g id="clust9" class="cluster">
<title>cluster~/lib/theme</title>
<path fill="none" stroke="lightgray" stroke-width="2.6" d="M105.52,-320C105.52,-320 189.52,-320 189.52,-320 195.52,-320 201.52,-326 201.52,-332 201.52,-332 201.52,-383 201.52,-383 201.52,-389 195.52,-395 189.52,-395 189.52,-395 105.52,-395 105.52,-395 99.52,-395 93.52,-389 93.52,-383 93.52,-383 93.52,-332 93.52,-332 93.52,-326 99.52,-320 105.52,-320"/>
<text xml:space="preserve" text-anchor="middle" x="147.52" y="-378.65" font-family="Arial Black" font-size="13.00">theme</text>
</g>
<g id="clust10" class="cluster">
<title>cluster~/lib/services</title>
<path fill="none" stroke="lightgray" stroke-width="2.6" d="M87.52,-107C87.52,-107 353.52,-107 353.52,-107 359.52,-107 365.52,-113 365.52,-119 365.52,-119 365.52,-170 365.52,-170 365.52,-176 359.52,-182 353.52,-182 353.52,-182 87.52,-182 87.52,-182 81.52,-182 75.52,-176 75.52,-170 75.52,-170 75.52,-119 75.52,-119 75.52,-113 81.52,-107 87.52,-107"/>
<text xml:space="preserve" text-anchor="middle" x="220.52" y="-165.65" font-family="Arial Black" font-size="13.00">services</text>
</g>
<g id="clust11" class="cluster">
<title>cluster~/lib/widgets</title>
<path fill="none" stroke="lightgray" stroke-width="2.6" d="M103.52,-190C103.52,-190 486.52,-190 486.52,-190 492.52,-190 498.52,-196 498.52,-202 498.52,-202 498.52,-292 498.52,-292 498.52,-298 492.52,-304 486.52,-304 486.52,-304 103.52,-304 103.52,-304 97.52,-304 91.52,-298 91.52,-292 91.52,-292 91.52,-202 91.52,-202 91.52,-196 97.52,-190 103.52,-190"/>
<text xml:space="preserve" text-anchor="middle" x="295.02" y="-287.65" font-family="Arial Black" font-size="13.00">widgets</text>
</g>
<g id="clust12" class="cluster">
<title>cluster~/lib/widgets/explorer</title>
<path fill="none" stroke="lightgray" stroke-width="2.6" d="M111.52,-198C111.52,-198 201.52,-198 201.52,-198 207.52,-198 213.52,-204 213.52,-210 213.52,-210 213.52,-261 213.52,-261 213.52,-267 207.52,-273 201.52,-273 201.52,-273 111.52,-273 111.52,-273 105.52,-273 99.52,-267 99.52,-261 99.52,-261 99.52,-210 99.52,-210 99.52,-204 105.52,-198 111.52,-198"/>
<text xml:space="preserve" text-anchor="middle" x="156.52" y="-256.65" font-family="Arial Black" font-size="13.00">explorer</text>
</g>
<g id="clust13" class="cluster">
<title>cluster~/tool</title>
<path fill="none" stroke="lightgray" stroke-width="2.6" d="M442.52,-509C442.52,-509 528.52,-509 528.52,-509 534.52,-509 540.52,-515 540.52,-521 540.52,-521 540.52,-572 540.52,-572 540.52,-578 534.52,-584 528.52,-584 528.52,-584 442.52,-584 442.52,-584 436.52,-584 430.52,-578 430.52,-572 430.52,-572 430.52,-521 430.52,-521 430.52,-515 436.52,-509 442.52,-509"/>
<text xml:space="preserve" text-anchor="middle" x="485.52" y="-567.65" font-family="Arial Black" font-size="13.00">tool</text>
</g>
<!-- /test/widget_test.dart -->
<g id="node1" class="node">
<title>/test/widget_test.dart</title>
<path fill="Lavender" stroke="black" stroke-width="1.3" d="M246.4,-553C246.4,-553 178.65,-553 178.65,-553 172.65,-553 166.65,-547 166.65,-541 166.65,-541 166.65,-529 166.65,-529 166.65,-523 172.65,-517 178.65,-517 178.65,-517 246.4,-517 246.4,-517 252.4,-517 258.4,-523 258.4,-529 258.4,-529 258.4,-541 258.4,-541 258.4,-547 252.4,-553 246.4,-553"/>
<text xml:space="preserve" text-anchor="middle" x="212.52" y="-529.75" font-family="Arial" font-size="15.00">widget_test</text>
</g>
<!-- /lib/main.dart -->
<g id="node7" class="node">
<title>/lib/main.dart</title>
<path fill="Lavender" stroke="black" stroke-width="1.3" d="M227.52,-470C227.52,-470 197.52,-470 197.52,-470 191.52,-470 185.52,-464 185.52,-458 185.52,-458 185.52,-446 185.52,-446 185.52,-440 191.52,-434 197.52,-434 197.52,-434 227.52,-434 227.52,-434 233.52,-434 239.52,-440 239.52,-446 239.52,-446 239.52,-458 239.52,-458 239.52,-464 233.52,-470 227.52,-470"/>
<text xml:space="preserve" text-anchor="middle" x="212.52" y="-446.75" font-family="Arial" font-size="15.00">main</text>
</g>
<!-- /test/widget_test.dart&#45;&gt;/lib/main.dart -->
<g id="edge1" class="edge">
<title>/test/widget_test.dart&#45;&gt;/lib/main.dart</title>
<path fill="none" stroke="#aabbaa" stroke-width="1.3" stroke-opacity="0.533333" d="M212.52,-516.42C212.52,-506.45 212.52,-493.7 212.52,-482.26"/>
<polygon fill="#aabbaa" fill-opacity="0.533333" stroke="#aabbaa" stroke-width="1.3" stroke-opacity="0.533333" points="216.02,-482.51 212.52,-472.51 209.02,-482.51 216.02,-482.51"/>
</g>
<!-- /lib/models/project_node.dart -->
<g id="node2" class="node">
<title>/lib/models/project_node.dart</title>
<path fill="Lavender" stroke="black" stroke-width="1.3" d="M578.65,-68C578.65,-68 500.4,-68 500.4,-68 494.4,-68 488.4,-62 488.4,-56 488.4,-56 488.4,-44 488.4,-44 488.4,-38 494.4,-32 500.4,-32 500.4,-32 578.65,-32 578.65,-32 584.65,-32 590.65,-38 590.65,-44 590.65,-44 590.65,-56 590.65,-56 590.65,-62 584.65,-68 578.65,-68"/>
<text xml:space="preserve" text-anchor="middle" x="539.52" y="-44.75" font-family="Arial" font-size="15.00">project_node</text>
</g>
<!-- /lib/models/file_system_item.dart -->
<g id="node3" class="node">
<title>/lib/models/file_system_item.dart</title>
<path fill="Lavender" stroke="black" stroke-width="1.3" d="M458.4,-68C458.4,-68 354.65,-68 354.65,-68 348.65,-68 342.65,-62 342.65,-56 342.65,-56 342.65,-44 342.65,-44 342.65,-38 348.65,-32 354.65,-32 354.65,-32 458.4,-32 458.4,-32 464.4,-32 470.4,-38 470.4,-44 470.4,-44 470.4,-56 470.4,-56 470.4,-62 464.4,-68 458.4,-68"/>
<text xml:space="preserve" text-anchor="middle" x="406.52" y="-44.75" font-family="Arial" font-size="15.00">file_system_item</text>
</g>
<!-- /lib/screens/explorer/explorer_screen.dart -->
<g id="node4" class="node">
<title>/lib/screens/explorer/explorer_screen.dart</title>
<path fill="Lavender" stroke="black" stroke-width="1.3" d="M595.15,-364C595.15,-364 495.9,-364 495.9,-364 489.9,-364 483.9,-358 483.9,-352 483.9,-352 483.9,-340 483.9,-340 483.9,-334 489.9,-328 495.9,-328 495.9,-328 595.15,-328 595.15,-328 601.15,-328 607.15,-334 607.15,-340 607.15,-340 607.15,-352 607.15,-352 607.15,-358 601.15,-364 595.15,-364"/>
<text xml:space="preserve" text-anchor="middle" x="545.52" y="-340.75" font-family="Arial" font-size="15.00">explorer_screen</text>
</g>
<!-- /lib/screens/explorer/explorer_screen.dart&#45;&gt;/lib/models/project_node.dart -->
<g id="edge2" class="edge">
<title>/lib/screens/explorer/explorer_screen.dart&#45;&gt;/lib/models/project_node.dart</title>
<path fill="none" stroke="#aabbaa" stroke-width="1.3" stroke-opacity="0.533333" d="M545.16,-327.49C544.17,-278.67 541.35,-140.67 540.12,-80.11"/>
<polygon fill="#aabbaa" fill-opacity="0.533333" stroke="#aabbaa" stroke-width="1.3" stroke-opacity="0.533333" points="543.62,-80.31 539.92,-70.39 536.62,-80.46 543.62,-80.31"/>
</g>
<!-- /lib/screens/explorer/explorer_screen.dart&#45;&gt;/lib/models/file_system_item.dart -->
<g id="edge3" class="edge">
<title>/lib/screens/explorer/explorer_screen.dart&#45;&gt;/lib/models/file_system_item.dart</title>
<path fill="none" stroke="#aabbaa" stroke-width="1.3" stroke-opacity="0.533333" d="M542.46,-327.6C535.81,-289.92 520.32,-203.12 516.52,-190 505.49,-151.87 507.87,-138.36 483.52,-107 474,-94.74 461.11,-83.94 448.59,-75.18"/>
<polygon fill="#aabbaa" fill-opacity="0.533333" stroke="#aabbaa" stroke-width="1.3" stroke-opacity="0.533333" points="450.61,-72.32 440.35,-69.69 446.73,-78.14 450.61,-72.32"/>
</g>
<!-- /lib/widgets/message_widget.dart -->
<g id="node13" class="node">
<title>/lib/widgets/message_widget.dart</title>
<path fill="Lavender" stroke="black" stroke-width="1.3" d="M478.4,-242C478.4,-242 374.65,-242 374.65,-242 368.65,-242 362.65,-236 362.65,-230 362.65,-230 362.65,-218 362.65,-218 362.65,-212 368.65,-206 374.65,-206 374.65,-206 478.4,-206 478.4,-206 484.4,-206 490.4,-212 490.4,-218 490.4,-218 490.4,-230 490.4,-230 490.4,-236 484.4,-242 478.4,-242"/>
<text xml:space="preserve" text-anchor="middle" x="426.52" y="-218.75" font-family="Arial" font-size="15.00">message_widget</text>
</g>
<!-- /lib/screens/explorer/explorer_screen.dart&#45;&gt;/lib/widgets/message_widget.dart -->
<g id="edge4" class="edge">
<title>/lib/screens/explorer/explorer_screen.dart&#45;&gt;/lib/widgets/message_widget.dart</title>
<path fill="none" stroke="#aabbaa" stroke-width="1.3" stroke-opacity="0.533333" d="M528.22,-327.55C508.21,-307.38 475.09,-273.98 452.11,-250.8"/>
<polygon fill="#aabbaa" fill-opacity="0.533333" stroke="#aabbaa" stroke-width="1.3" stroke-opacity="0.533333" points="454.76,-248.5 445.23,-243.87 449.79,-253.43 454.76,-248.5"/>
</g>
<!-- /lib/screens/outline/outline_panel.dart -->
<g id="node5" class="node">
<title>/lib/screens/outline/outline_panel.dart</title>
<path fill="Lavender" stroke="black" stroke-width="1.3" d="M447.4,-364C447.4,-364 367.65,-364 367.65,-364 361.65,-364 355.65,-358 355.65,-352 355.65,-352 355.65,-340 355.65,-340 355.65,-334 361.65,-328 367.65,-328 367.65,-328 447.4,-328 447.4,-328 453.4,-328 459.4,-334 459.4,-340 459.4,-340 459.4,-352 459.4,-352 459.4,-358 453.4,-364 447.4,-364"/>
<text xml:space="preserve" text-anchor="middle" x="407.52" y="-340.75" font-family="Arial" font-size="15.00">outline_panel</text>
</g>
<!-- /lib/screens/outline/outline_panel.dart&#45;&gt;/lib/models/file_system_item.dart -->
<g id="edge5" class="edge">
<title>/lib/screens/outline/outline_panel.dart&#45;&gt;/lib/models/file_system_item.dart</title>
<path fill="none" stroke="#aabbaa" stroke-width="1.3" stroke-opacity="0.533333" d="M438.13,-327.45C448.5,-321.99 460.31,-316.28 471.52,-312 484.82,-306.93 493.81,-315.25 502.52,-304 533.55,-263.95 517.6,-238.37 502.52,-190 488.7,-145.67 455.25,-103 431.74,-76.9"/>
<polygon fill="#aabbaa" fill-opacity="0.533333" stroke="#aabbaa" stroke-width="1.3" stroke-opacity="0.533333" points="434.58,-74.81 425.23,-69.83 429.43,-79.55 434.58,-74.81"/>
</g>
<!-- /lib/screens/editor/editor_screen.dart -->
<g id="node6" class="node">
<title>/lib/screens/editor/editor_screen.dart</title>
<path fill="Lavender" stroke="black" stroke-width="1.3" d="M319.9,-364C319.9,-364 237.15,-364 237.15,-364 231.15,-364 225.15,-358 225.15,-352 225.15,-352 225.15,-340 225.15,-340 225.15,-334 231.15,-328 237.15,-328 237.15,-328 319.9,-328 319.9,-328 325.9,-328 331.9,-334 331.9,-340 331.9,-340 331.9,-352 331.9,-352 331.9,-358 325.9,-364 319.9,-364"/>
<text xml:space="preserve" text-anchor="middle" x="278.52" y="-340.75" font-family="Arial" font-size="15.00">editor_screen</text>
</g>
<!-- /lib/screens/editor/editor_screen.dart&#45;&gt;/lib/widgets/message_widget.dart -->
<g id="edge6" class="edge">
<title>/lib/screens/editor/editor_screen.dart&#45;&gt;/lib/widgets/message_widget.dart</title>
<path fill="none" stroke="#aabbaa" stroke-width="1.3" stroke-opacity="0.533333" d="M316.24,-327.45C328.66,-320.89 342.17,-312.85 353.52,-304 373.09,-288.73 392.02,-268.02 405.69,-251.64"/>
<polygon fill="#aabbaa" fill-opacity="0.533333" stroke="#aabbaa" stroke-width="1.3" stroke-opacity="0.533333" points="408.25,-254.05 411.86,-244.09 402.82,-249.62 408.25,-254.05"/>
</g>
<!-- /lib/main.dart&#45;&gt;/lib/models/file_system_item.dart -->
<g id="edge12" class="edge">
<title>/lib/main.dart&#45;&gt;/lib/models/file_system_item.dart</title>
<path fill="none" stroke="#aabbaa" stroke-width="1.3" stroke-opacity="0.533333" d="M185.06,-450.32C147.27,-448.74 82.25,-443.49 67.52,-426 -23.82,-317.56 -22.04,-213.54 71.52,-107 104.68,-69.25 242.14,-56.94 330.35,-52.93"/>
<polygon fill="#aabbaa" fill-opacity="0.533333" stroke="#aabbaa" stroke-width="1.3" stroke-opacity="0.533333" points="330.38,-56.44 340.22,-52.51 330.08,-49.44 330.38,-56.44"/>
</g>
<!-- /lib/main.dart&#45;&gt;/lib/screens/explorer/explorer_screen.dart -->
<g id="edge7" class="edge">
<title>/lib/main.dart&#45;&gt;/lib/screens/explorer/explorer_screen.dart</title>
<path fill="none" stroke="#aabbaa" stroke-width="1.3" stroke-opacity="0.533333" d="M239.76,-450.78C297.73,-449.92 431.29,-445.79 471.52,-426 495.03,-414.44 514.88,-392.04 528.08,-374.04"/>
<polygon fill="#aabbaa" fill-opacity="0.533333" stroke="#aabbaa" stroke-width="1.3" stroke-opacity="0.533333" points="530.89,-376.13 533.76,-365.93 525.16,-372.11 530.89,-376.13"/>
</g>
<!-- /lib/main.dart&#45;&gt;/lib/screens/outline/outline_panel.dart -->
<g id="edge9" class="edge">
<title>/lib/main.dart&#45;&gt;/lib/screens/outline/outline_panel.dart</title>
<path fill="none" stroke="#aabbaa" stroke-width="1.3" stroke-opacity="0.533333" d="M240.04,-451.13C267.97,-450.09 311.53,-445.14 343.52,-426 364.29,-413.57 381.17,-391.8 392.37,-374.26"/>
<polygon fill="#aabbaa" fill-opacity="0.533333" stroke="#aabbaa" stroke-width="1.3" stroke-opacity="0.533333" points="395.06,-376.56 397.27,-366.2 389.08,-372.92 395.06,-376.56"/>
</g>
<!-- /lib/main.dart&#45;&gt;/lib/screens/editor/editor_screen.dart -->
<g id="edge8" class="edge">
<title>/lib/main.dart&#45;&gt;/lib/screens/editor/editor_screen.dart</title>
<path fill="none" stroke="#aabbaa" stroke-width="1.3" stroke-opacity="0.533333" d="M223.72,-433.36C233.97,-417.2 249.31,-393.03 261.16,-374.36"/>
<polygon fill="#aabbaa" fill-opacity="0.533333" stroke="#aabbaa" stroke-width="1.3" stroke-opacity="0.533333" points="264.03,-376.36 266.44,-366.04 258.12,-372.61 264.03,-376.36"/>
</g>
<!-- /lib/theme/app_theme.dart -->
<g id="node8" class="node">
<title>/lib/theme/app_theme.dart</title>
<path fill="Lavender" stroke="black" stroke-width="1.3" d="M181.02,-364C181.02,-364 114.02,-364 114.02,-364 108.02,-364 102.02,-358 102.02,-352 102.02,-352 102.02,-340 102.02,-340 102.02,-334 108.02,-328 114.02,-328 114.02,-328 181.02,-328 181.02,-328 187.02,-328 193.02,-334 193.02,-340 193.02,-340 193.02,-352 193.02,-352 193.02,-358 187.02,-364 181.02,-364"/>
<text xml:space="preserve" text-anchor="middle" x="147.52" y="-340.75" font-family="Arial" font-size="15.00">app_theme</text>
</g>
<!-- /lib/main.dart&#45;&gt;/lib/theme/app_theme.dart -->
<g id="edge11" class="edge">
<title>/lib/main.dart&#45;&gt;/lib/theme/app_theme.dart</title>
<path fill="none" stroke="#aabbaa" stroke-width="1.3" stroke-opacity="0.533333" d="M201.5,-433.36C191.4,-417.2 176.29,-393.03 164.62,-374.36"/>
<polygon fill="#aabbaa" fill-opacity="0.533333" stroke="#aabbaa" stroke-width="1.3" stroke-opacity="0.533333" points="167.7,-372.68 159.43,-366.05 161.76,-376.39 167.7,-372.68"/>
</g>
<!-- /lib/services/file_system_service.dart -->
<g id="node9" class="node">
<title>/lib/services/file_system_service.dart</title>
<path fill="Lavender" stroke="black" stroke-width="1.3" d="M217.77,-151C217.77,-151 95.27,-151 95.27,-151 89.27,-151 83.27,-145 83.27,-139 83.27,-139 83.27,-127 83.27,-127 83.27,-121 89.27,-115 95.27,-115 95.27,-115 217.77,-115 217.77,-115 223.77,-115 229.77,-121 229.77,-127 229.77,-127 229.77,-139 229.77,-139 229.77,-145 223.77,-151 217.77,-151"/>
<text xml:space="preserve" text-anchor="middle" x="156.52" y="-127.75" font-family="Arial" font-size="15.00">file_system_service</text>
</g>
<!-- /lib/main.dart&#45;&gt;/lib/services/file_system_service.dart -->
<g id="edge10" class="edge">
<title>/lib/main.dart&#45;&gt;/lib/services/file_system_service.dart</title>
<path fill="none" stroke="#aabbaa" stroke-width="1.3" stroke-opacity="0.533333" d="M185.03,-449.36C152.53,-446.77 101.35,-440.47 89.52,-426 56.32,-385.38 73.24,-237.5 95.52,-190 101.08,-178.14 110.41,-167.63 120.12,-159.01"/>
<polygon fill="#aabbaa" fill-opacity="0.533333" stroke="#aabbaa" stroke-width="1.3" stroke-opacity="0.533333" points="122.05,-161.96 127.53,-152.89 117.59,-156.56 122.05,-161.96"/>
</g>
<!-- /lib/services/file_system_service.dart&#45;&gt;/lib/models/file_system_item.dart -->
<g id="edge13" class="edge">
<title>/lib/services/file_system_service.dart&#45;&gt;/lib/models/file_system_item.dart</title>
<path fill="none" stroke="#aabbaa" stroke-width="1.3" stroke-opacity="0.533333" d="M210.77,-114.42C249.1,-102.01 300.66,-85.3 341.25,-72.15"/>
<polygon fill="#aabbaa" fill-opacity="0.533333" stroke="#aabbaa" stroke-width="1.3" stroke-opacity="0.533333" points="342.07,-75.56 350.51,-69.15 339.92,-68.9 342.07,-75.56"/>
</g>
<!-- /lib/services/editor_service.dart -->
<g id="node10" class="node">
<title>/lib/services/editor_service.dart</title>
<path fill="Lavender" stroke="black" stroke-width="1.3" d="M345.02,-151C345.02,-151 260.02,-151 260.02,-151 254.02,-151 248.02,-145 248.02,-139 248.02,-139 248.02,-127 248.02,-127 248.02,-121 254.02,-115 260.02,-115 260.02,-115 345.02,-115 345.02,-115 351.02,-115 357.02,-121 357.02,-127 357.02,-127 357.02,-139 357.02,-139 357.02,-145 351.02,-151 345.02,-151"/>
<text xml:space="preserve" text-anchor="middle" x="302.52" y="-127.75" font-family="Arial" font-size="15.00">editor_service</text>
</g>
<!-- /lib/widgets/save_file_dialog.dart -->
<g id="node11" class="node">
<title>/lib/widgets/save_file_dialog.dart</title>
<path fill="Lavender" stroke="black" stroke-width="1.3" d="M332.4,-242C332.4,-242 234.65,-242 234.65,-242 228.65,-242 222.65,-236 222.65,-230 222.65,-230 222.65,-218 222.65,-218 222.65,-212 228.65,-206 234.65,-206 234.65,-206 332.4,-206 332.4,-206 338.4,-206 344.4,-212 344.4,-218 344.4,-218 344.4,-230 344.4,-230 344.4,-236 338.4,-242 332.4,-242"/>
<text xml:space="preserve" text-anchor="middle" x="283.52" y="-218.75" font-family="Arial" font-size="15.00">save_file_dialog</text>
</g>
<!-- /lib/widgets/explorer/file_explorer.dart -->
<g id="node12" class="node">
<title>/lib/widgets/explorer/file_explorer.dart</title>
<path fill="Lavender" stroke="black" stroke-width="1.3" d="M193.02,-242C193.02,-242 120.02,-242 120.02,-242 114.02,-242 108.02,-236 108.02,-230 108.02,-230 108.02,-218 108.02,-218 108.02,-212 114.02,-206 120.02,-206 120.02,-206 193.02,-206 193.02,-206 199.02,-206 205.02,-212 205.02,-218 205.02,-218 205.02,-230 205.02,-230 205.02,-236 199.02,-242 193.02,-242"/>
<text xml:space="preserve" text-anchor="middle" x="156.52" y="-218.75" font-family="Arial" font-size="15.00">file_explorer</text>
</g>
<!-- /lib/widgets/explorer/file_explorer.dart&#45;&gt;/lib/models/file_system_item.dart -->
<g id="edge15" class="edge">
<title>/lib/widgets/explorer/file_explorer.dart&#45;&gt;/lib/models/file_system_item.dart</title>
<path fill="none" stroke="#aabbaa" stroke-width="1.3" stroke-opacity="0.533333" d="M179.01,-205.48C188,-199.45 198.76,-193.37 209.52,-190 226.51,-184.68 355.6,-193.09 369.52,-182 399.9,-157.8 406.52,-110.68 407.37,-80.04"/>
<polygon fill="#aabbaa" fill-opacity="0.533333" stroke="#aabbaa" stroke-width="1.3" stroke-opacity="0.533333" points="410.87,-80.41 407.43,-70.39 403.87,-80.37 410.87,-80.41"/>
</g>
<!-- /lib/widgets/explorer/file_explorer.dart&#45;&gt;/lib/services/file_system_service.dart -->
<g id="edge14" class="edge">
<title>/lib/widgets/explorer/file_explorer.dart&#45;&gt;/lib/services/file_system_service.dart</title>
<path fill="none" stroke="#aabbaa" stroke-width="1.3" stroke-opacity="0.533333" d="M156.52,-205.42C156.52,-193.47 156.52,-177.38 156.52,-163.5"/>
<polygon fill="#aabbaa" fill-opacity="0.533333" stroke="#aabbaa" stroke-width="1.3" stroke-opacity="0.533333" points="160.02,-163.51 156.52,-153.51 153.02,-163.51 160.02,-163.51"/>
</g>
<!-- /tool/sort_source.dart -->
<g id="node14" class="node">
<title>/tool/sort_source.dart</title>
<path fill="Lavender" stroke="black" stroke-width="1.3" d="M520.9,-553C520.9,-553 450.15,-553 450.15,-553 444.15,-553 438.15,-547 438.15,-541 438.15,-541 438.15,-529 438.15,-529 438.15,-523 444.15,-517 450.15,-517 450.15,-517 520.9,-517 520.9,-517 526.9,-517 532.9,-523 532.9,-529 532.9,-529 532.9,-541 532.9,-541 532.9,-547 526.9,-553 520.9,-553"/>
<text xml:space="preserve" text-anchor="middle" x="485.52" y="-529.75" font-family="Arial" font-size="15.00">sort_source</text>
</g>
</g>
</svg>
