<?xml version="1.0" encoding="UTF-8" standalone="no"?>
<!DOCTYPE svg PUBLIC "-//W3C//DTD SVG 1.1//EN"
 "http://www.w3.org/Graphics/SVG/1.1/DTD/svg11.dtd">
<!-- Generated by graphviz version 13.1.2 (20250808.2320)
 -->
<!-- Pages: 1 -->
<svg width="1663pt" height="747pt"
 viewBox="0.00 0.00 1663.00 747.00" xmlns="http://www.w3.org/2000/svg" xmlns:xlink="http://www.w3.org/1999/xlink">
<g id="graph0" class="graph" transform="scale(1 1) rotate(0) translate(4 743)">
<polygon fill="white" stroke="none" points="-4,4 -4,-743 1658.95,-743 1658.95,4 -4,4"/>
<g id="clust1" class="cluster">
<title>cluster~</title>
<path fill="none" stroke="lightgray" stroke-width="2.6" d="M41.95,-8C41.95,-8 1634.95,-8 1634.95,-8 1640.95,-8 1646.95,-14 1646.95,-20 1646.95,-20 1646.95,-719 1646.95,-719 1646.95,-725 1640.95,-731 1634.95,-731 1634.95,-731 41.95,-731 41.95,-731 35.95,-731 29.95,-725 29.95,-719 29.95,-719 29.95,-20 29.95,-20 29.95,-14 35.95,-8 41.95,-8"/>
<text xml:space="preserve" text-anchor="middle" x="838.45" y="-714.65" font-family="Arial Black" font-size="13.00">fide</text>
</g>
<g id="clust2" class="cluster">
<title>cluster~/test</title>
<path fill="none" stroke="lightgray" stroke-width="2.6" d="M1274.95,-625C1274.95,-625 1358.95,-625 1358.95,-625 1364.95,-625 1370.95,-631 1370.95,-637 1370.95,-637 1370.95,-688 1370.95,-688 1370.95,-694 1364.95,-700 1358.95,-700 1358.95,-700 1274.95,-700 1274.95,-700 1268.95,-700 1262.95,-694 1262.95,-688 1262.95,-688 1262.95,-637 1262.95,-637 1262.95,-631 1268.95,-625 1274.95,-625"/>
<text xml:space="preserve" text-anchor="middle" x="1316.95" y="-683.65" font-family="Arial Black" font-size="13.00">test</text>
</g>
<g id="clust3" class="cluster">
<title>cluster~/lib</title>
<path fill="none" stroke="lightgray" stroke-width="2.6" d="M49.95,-16C49.95,-16 1626.95,-16 1626.95,-16 1632.95,-16 1638.95,-22 1638.95,-28 1638.95,-28 1638.95,-605 1638.95,-605 1638.95,-611 1632.95,-617 1626.95,-617 1626.95,-617 49.95,-617 49.95,-617 43.95,-617 37.95,-611 37.95,-605 37.95,-605 37.95,-28 37.95,-28 37.95,-22 43.95,-16 49.95,-16"/>
<text xml:space="preserve" text-anchor="middle" x="838.45" y="-600.65" font-family="Arial Black" font-size="13.00">lib</text>
</g>
<g id="clust4" class="cluster">
<title>cluster~/lib/providers</title>
<path fill="none" stroke="lightgray" stroke-width="2.6" d="M1434.95,-187C1434.95,-187 1536.95,-187 1536.95,-187 1542.95,-187 1548.95,-193 1548.95,-199 1548.95,-199 1548.95,-250 1548.95,-250 1548.95,-256 1542.95,-262 1536.95,-262 1536.95,-262 1434.95,-262 1434.95,-262 1428.95,-262 1422.95,-256 1422.95,-250 1422.95,-250 1422.95,-199 1422.95,-199 1422.95,-193 1428.95,-187 1434.95,-187"/>
<text xml:space="preserve" text-anchor="middle" x="1485.95" y="-245.65" font-family="Arial Black" font-size="13.00">providers</text>
</g>
<g id="clust5" class="cluster">
<title>cluster~/lib/panels</title>
<path fill="none" stroke="lightgray" stroke-width="2.6" d="M187.95,-179C187.95,-179 1094.95,-179 1094.95,-179 1100.95,-179 1106.95,-185 1106.95,-191 1106.95,-191 1106.95,-530 1106.95,-530 1106.95,-536 1100.95,-542 1094.95,-542 1094.95,-542 187.95,-542 187.95,-542 181.95,-542 175.95,-536 175.95,-530 175.95,-530 175.95,-191 175.95,-191 175.95,-185 181.95,-179 187.95,-179"/>
<text xml:space="preserve" text-anchor="middle" x="641.45" y="-525.65" font-family="Arial Black" font-size="13.00">panels</text>
</g>
<g id="clust6" class="cluster">
<title>cluster~/lib/panels/right</title>
<path fill="none" stroke="lightgray" stroke-width="2.6" d="M195.95,-353C195.95,-353 381.95,-353 381.95,-353 387.95,-353 393.95,-359 393.95,-365 393.95,-365 393.95,-499 393.95,-499 393.95,-505 387.95,-511 381.95,-511 381.95,-511 195.95,-511 195.95,-511 189.95,-511 183.95,-505 183.95,-499 183.95,-499 183.95,-365 183.95,-365 183.95,-359 189.95,-353 195.95,-353"/>
<text xml:space="preserve" text-anchor="middle" x="288.95" y="-494.65" font-family="Arial Black" font-size="13.00">right</text>
</g>
<g id="clust7" class="cluster">
<title>cluster~/lib/panels/center</title>
<path fill="none" stroke="lightgray" stroke-width="2.6" d="M856.95,-270C856.95,-270 1086.95,-270 1086.95,-270 1092.95,-270 1098.95,-276 1098.95,-282 1098.95,-282 1098.95,-416 1098.95,-416 1098.95,-422 1092.95,-428 1086.95,-428 1086.95,-428 856.95,-428 856.95,-428 850.95,-428 844.95,-422 844.95,-416 844.95,-416 844.95,-282 844.95,-282 844.95,-276 850.95,-270 856.95,-270"/>
<text xml:space="preserve" text-anchor="middle" x="971.95" y="-411.65" font-family="Arial Black" font-size="13.00">center</text>
</g>
<g id="clust8" class="cluster">
<title>cluster~/lib/panels/left</title>
<path fill="none" stroke="lightgray" stroke-width="2.6" d="M413.95,-187C413.95,-187 824.95,-187 824.95,-187 830.95,-187 836.95,-193 836.95,-199 836.95,-199 836.95,-499 836.95,-499 836.95,-505 830.95,-511 824.95,-511 824.95,-511 413.95,-511 413.95,-511 407.95,-511 401.95,-505 401.95,-499 401.95,-499 401.95,-199 401.95,-199 401.95,-193 407.95,-187 413.95,-187"/>
<text xml:space="preserve" text-anchor="middle" x="619.45" y="-494.65" font-family="Arial Black" font-size="13.00">left</text>
</g>
<g id="clust9" class="cluster">
<title>cluster~/lib/utils</title>
<path fill="none" stroke="lightgray" stroke-width="2.6" d="M1126.95,-187C1126.95,-187 1368.95,-187 1368.95,-187 1374.95,-187 1380.95,-193 1380.95,-199 1380.95,-199 1380.95,-250 1380.95,-250 1380.95,-256 1374.95,-262 1368.95,-262 1368.95,-262 1126.95,-262 1126.95,-262 1120.95,-262 1114.95,-256 1114.95,-250 1114.95,-250 1114.95,-199 1114.95,-199 1114.95,-193 1120.95,-187 1126.95,-187"/>
<text xml:space="preserve" text-anchor="middle" x="1247.95" y="-245.65" font-family="Arial Black" font-size="13.00">utils</text>
</g>
<g id="clust10" class="cluster">
<title>cluster~/lib/models</title>
<path fill="none" stroke="lightgray" stroke-width="2.6" d="M774.95,-24C774.95,-24 1010.95,-24 1010.95,-24 1016.95,-24 1022.95,-30 1022.95,-36 1022.95,-36 1022.95,-159 1022.95,-159 1022.95,-165 1016.95,-171 1010.95,-171 1010.95,-171 774.95,-171 774.95,-171 768.95,-171 762.95,-165 762.95,-159 762.95,-159 762.95,-36 762.95,-36 762.95,-30 768.95,-24 774.95,-24"/>
<text xml:space="preserve" text-anchor="middle" x="892.95" y="-154.65" font-family="Arial Black" font-size="13.00">models</text>
</g>
<g id="clust11" class="cluster">
<title>cluster~/lib/screens</title>
<path fill="none" stroke="lightgray" stroke-width="2.6" d="M1256.95,-436C1256.95,-436 1490.95,-436 1490.95,-436 1496.95,-436 1502.95,-442 1502.95,-448 1502.95,-448 1502.95,-499 1502.95,-499 1502.95,-505 1496.95,-511 1490.95,-511 1490.95,-511 1256.95,-511 1256.95,-511 1250.95,-511 1244.95,-505 1244.95,-499 1244.95,-499 1244.95,-448 1244.95,-448 1244.95,-442 1250.95,-436 1256.95,-436"/>
<text xml:space="preserve" text-anchor="middle" x="1373.95" y="-494.65" font-family="Arial Black" font-size="13.00">screens</text>
</g>
<g id="clust12" class="cluster">
<title>cluster~/lib/theme</title>
<path fill="none" stroke="lightgray" stroke-width="2.6" d="M1126.95,-436C1126.95,-436 1210.95,-436 1210.95,-436 1216.95,-436 1222.95,-442 1222.95,-448 1222.95,-448 1222.95,-499 1222.95,-499 1222.95,-505 1216.95,-511 1210.95,-511 1210.95,-511 1126.95,-511 1126.95,-511 1120.95,-511 1114.95,-505 1114.95,-499 1114.95,-499 1114.95,-448 1114.95,-448 1114.95,-442 1120.95,-436 1126.95,-436"/>
<text xml:space="preserve" text-anchor="middle" x="1168.95" y="-494.65" font-family="Arial Black" font-size="13.00">theme</text>
</g>
<g id="clust13" class="cluster">
<title>cluster~/lib/services</title>
<path fill="none" stroke="lightgray" stroke-width="2.6" d="M198.95,-96C198.95,-96 670.95,-96 670.95,-96 676.95,-96 682.95,-102 682.95,-108 682.95,-108 682.95,-159 682.95,-159 682.95,-165 676.95,-171 670.95,-171 670.95,-171 198.95,-171 198.95,-171 192.95,-171 186.95,-165 186.95,-159 186.95,-159 186.95,-108 186.95,-108 186.95,-102 192.95,-96 198.95,-96"/>
<text xml:space="preserve" text-anchor="middle" x="434.95" y="-154.65" font-family="Arial Black" font-size="13.00">services</text>
</g>
<g id="clust14" class="cluster">
<title>cluster~/lib/widgets</title>
<path fill="none" stroke="lightgray" stroke-width="2.6" d="M1192.95,-270C1192.95,-270 1546.95,-270 1546.95,-270 1552.95,-270 1558.95,-276 1558.95,-282 1558.95,-282 1558.95,-333 1558.95,-333 1558.95,-339 1552.95,-345 1546.95,-345 1546.95,-345 1192.95,-345 1192.95,-345 1186.95,-345 1180.95,-339 1180.95,-333 1180.95,-333 1180.95,-282 1180.95,-282 1180.95,-276 1186.95,-270 1192.95,-270"/>
<text xml:space="preserve" text-anchor="middle" x="1369.95" y="-328.65" font-family="Arial Black" font-size="13.00">widgets</text>
</g>
<g id="clust15" class="cluster">
<title>cluster~/tool</title>
<path fill="none" stroke="lightgray" stroke-width="2.6" d="M1465.95,-625C1465.95,-625 1551.95,-625 1551.95,-625 1557.95,-625 1563.95,-631 1563.95,-637 1563.95,-637 1563.95,-688 1563.95,-688 1563.95,-694 1557.95,-700 1551.95,-700 1551.95,-700 1465.95,-700 1465.95,-700 1459.95,-700 1453.95,-694 1453.95,-688 1453.95,-688 1453.95,-637 1453.95,-637 1453.95,-631 1459.95,-625 1465.95,-625"/>
<text xml:space="preserve" text-anchor="middle" x="1508.95" y="-683.65" font-family="Arial Black" font-size="13.00">tool</text>
</g>
<!-- /test/widget_test.dart -->
<g id="node1" class="node">
<title>/test/widget_test.dart</title>
<path fill="Lavender" stroke="black" stroke-width="1.3" d="M1350.83,-669C1350.83,-669 1283.08,-669 1283.08,-669 1277.08,-669 1271.08,-663 1271.08,-657 1271.08,-657 1271.08,-645 1271.08,-645 1271.08,-639 1277.08,-633 1283.08,-633 1283.08,-633 1350.83,-633 1350.83,-633 1356.83,-633 1362.83,-639 1362.83,-645 1362.83,-645 1362.83,-657 1362.83,-657 1362.83,-663 1356.83,-669 1350.83,-669"/>
<text xml:space="preserve" text-anchor="middle" x="1316.95" y="-645.75" font-family="Arial" font-size="15.00">widget_test</text>
</g>
<!-- /lib/main.dart -->
<g id="node24" class="node">
<title>/lib/main.dart</title>
<path fill="Lavender" stroke="black" stroke-width="1.3" d="M1331.95,-586C1331.95,-586 1301.95,-586 1301.95,-586 1295.95,-586 1289.95,-580 1289.95,-574 1289.95,-574 1289.95,-562 1289.95,-562 1289.95,-556 1295.95,-550 1301.95,-550 1301.95,-550 1331.95,-550 1331.95,-550 1337.95,-550 1343.95,-556 1343.95,-562 1343.95,-562 1343.95,-574 1343.95,-574 1343.95,-580 1337.95,-586 1331.95,-586"/>
<text xml:space="preserve" text-anchor="middle" x="1316.95" y="-562.75" font-family="Arial" font-size="15.00">main</text>
</g>
<!-- /test/widget_test.dart&#45;&gt;/lib/main.dart -->
<g id="edge1" class="edge">
<title>/test/widget_test.dart&#45;&gt;/lib/main.dart</title>
<path fill="none" stroke="#aabbaa" stroke-width="1.3" stroke-opacity="0.533333" d="M1316.95,-632.42C1316.95,-622.45 1316.95,-609.7 1316.95,-598.26"/>
<polygon fill="#aabbaa" fill-opacity="0.533333" stroke="#aabbaa" stroke-width="1.3" stroke-opacity="0.533333" points="1320.45,-598.51 1316.95,-588.51 1313.45,-598.51 1320.45,-598.51"/>
</g>
<!-- /lib/providers/app_providers.dart -->
<g id="node2" class="node">
<title>/lib/providers/app_providers.dart</title>
<path fill="Lavender" stroke="black" stroke-width="1.3" d="M1529.2,-231C1529.2,-231 1442.7,-231 1442.7,-231 1436.7,-231 1430.7,-225 1430.7,-219 1430.7,-219 1430.7,-207 1430.7,-207 1430.7,-201 1436.7,-195 1442.7,-195 1442.7,-195 1529.2,-195 1529.2,-195 1535.2,-195 1541.2,-201 1541.2,-207 1541.2,-207 1541.2,-219 1541.2,-219 1541.2,-225 1535.2,-231 1529.2,-231"/>
<text xml:space="preserve" text-anchor="middle" x="1485.95" y="-207.75" font-family="Arial" font-size="15.00">app_providers</text>
</g>
<!-- /lib/utils/file_type_utils.dart -->
<g id="node18" class="node">
<title>/lib/utils/file_type_utils.dart</title>
<path fill="Lavender" stroke="black" stroke-width="1.3" d="M1360.95,-231C1360.95,-231 1278.95,-231 1278.95,-231 1272.95,-231 1266.95,-225 1266.95,-219 1266.95,-219 1266.95,-207 1266.95,-207 1266.95,-201 1272.95,-195 1278.95,-195 1278.95,-195 1360.95,-195 1360.95,-195 1366.95,-195 1372.95,-201 1372.95,-207 1372.95,-207 1372.95,-219 1372.95,-219 1372.95,-225 1366.95,-231 1360.95,-231"/>
<text xml:space="preserve" text-anchor="middle" x="1319.95" y="-207.75" font-family="Arial" font-size="15.00">file_type_utils</text>
</g>
<!-- /lib/providers/app_providers.dart&#45;&gt;/lib/utils/file_type_utils.dart -->
<g id="edge5" class="edge">
<title>/lib/providers/app_providers.dart&#45;&gt;/lib/utils/file_type_utils.dart</title>
<path fill="none" stroke="#aabbaa" stroke-width="1.3" stroke-opacity="0.533333" d="M1430.14,-213C1415.23,-213 1400.32,-213 1385.41,-213"/>
<polygon fill="#aabbaa" fill-opacity="0.533333" stroke="#aabbaa" stroke-width="1.3" stroke-opacity="0.533333" points="1385.42,-209.5 1375.42,-213 1385.42,-216.5 1385.42,-209.5"/>
</g>
<!-- /lib/models/project_node.dart -->
<g id="node19" class="node">
<title>/lib/models/project_node.dart</title>
<path fill="Lavender" stroke="black" stroke-width="1.3" d="M861.08,-140C861.08,-140 782.83,-140 782.83,-140 776.83,-140 770.83,-134 770.83,-128 770.83,-128 770.83,-116 770.83,-116 770.83,-110 776.83,-104 782.83,-104 782.83,-104 861.08,-104 861.08,-104 867.08,-104 873.08,-110 873.08,-116 873.08,-116 873.08,-128 873.08,-128 873.08,-134 867.08,-140 861.08,-140"/>
<text xml:space="preserve" text-anchor="middle" x="821.95" y="-116.75" font-family="Arial" font-size="15.00">project_node</text>
</g>
<!-- /lib/providers/app_providers.dart&#45;&gt;/lib/models/project_node.dart -->
<g id="edge3" class="edge">
<title>/lib/providers/app_providers.dart&#45;&gt;/lib/models/project_node.dart</title>
<path fill="none" stroke="#aabbaa" stroke-width="1.3" stroke-opacity="0.533333" d="M1456.42,-194.43C1444.57,-188.31 1430.53,-182.19 1416.95,-179 1388.01,-172.21 909.93,-181.05 881.95,-171 868.69,-166.24 856.15,-157.23 846,-148.29"/>
<polygon fill="#aabbaa" fill-opacity="0.533333" stroke="#aabbaa" stroke-width="1.3" stroke-opacity="0.533333" points="848.53,-145.86 838.84,-141.57 843.74,-150.96 848.53,-145.86"/>
</g>
<!-- /lib/models/document_state.dart -->
<g id="node20" class="node">
<title>/lib/models/document_state.dart</title>
<path fill="Lavender" stroke="black" stroke-width="1.3" d="M1002.58,-140C1002.58,-140 903.33,-140 903.33,-140 897.33,-140 891.33,-134 891.33,-128 891.33,-128 891.33,-116 891.33,-116 891.33,-110 897.33,-104 903.33,-104 903.33,-104 1002.58,-104 1002.58,-104 1008.58,-104 1014.58,-110 1014.58,-116 1014.58,-116 1014.58,-128 1014.58,-128 1014.58,-134 1008.58,-140 1002.58,-140"/>
<text xml:space="preserve" text-anchor="middle" x="952.95" y="-116.75" font-family="Arial" font-size="15.00">document_state</text>
</g>
<!-- /lib/providers/app_providers.dart&#45;&gt;/lib/models/document_state.dart -->
<g id="edge4" class="edge">
<title>/lib/providers/app_providers.dart&#45;&gt;/lib/models/document_state.dart</title>
<path fill="none" stroke="#aabbaa" stroke-width="1.3" stroke-opacity="0.533333" d="M1456.02,-194.51C1444.24,-188.48 1430.34,-182.4 1416.95,-179 1383.09,-170.41 1294.7,-174.59 1259.95,-171 1179.8,-162.71 1088.66,-147.76 1026.65,-136.73"/>
<polygon fill="#aabbaa" fill-opacity="0.533333" stroke="#aabbaa" stroke-width="1.3" stroke-opacity="0.533333" points="1027.43,-133.32 1016.97,-135 1026.2,-140.21 1027.43,-133.32"/>
</g>
<!-- /lib/models/file_system_item.dart -->
<g id="node21" class="node">
<title>/lib/models/file_system_item.dart</title>
<path fill="Lavender" stroke="black" stroke-width="1.3" d="M886.83,-68C886.83,-68 783.08,-68 783.08,-68 777.08,-68 771.08,-62 771.08,-56 771.08,-56 771.08,-44 771.08,-44 771.08,-38 777.08,-32 783.08,-32 783.08,-32 886.83,-32 886.83,-32 892.83,-32 898.83,-38 898.83,-44 898.83,-44 898.83,-56 898.83,-56 898.83,-62 892.83,-68 886.83,-68"/>
<text xml:space="preserve" text-anchor="middle" x="834.95" y="-44.75" font-family="Arial" font-size="15.00">file_system_item</text>
</g>
<!-- /lib/providers/app_providers.dart&#45;&gt;/lib/models/file_system_item.dart -->
<g id="edge2" class="edge">
<title>/lib/providers/app_providers.dart&#45;&gt;/lib/models/file_system_item.dart</title>
<path fill="none" stroke="#aabbaa" stroke-width="1.3" stroke-opacity="0.533333" d="M1453.26,-194.47C1441.99,-188.94 1429.13,-183.19 1416.95,-179 1240.26,-118.22 1023.2,-79.49 910.68,-61.95"/>
<polygon fill="#aabbaa" fill-opacity="0.533333" stroke="#aabbaa" stroke-width="1.3" stroke-opacity="0.533333" points="911.49,-58.54 901.08,-60.47 910.43,-65.45 911.49,-58.54"/>
</g>
<!-- /lib/panels/right/outline_panel.dart -->
<g id="node3" class="node">
<title>/lib/panels/right/outline_panel.dart</title>
<path fill="Lavender" stroke="black" stroke-width="1.3" d="M373.83,-397C373.83,-397 294.08,-397 294.08,-397 288.08,-397 282.08,-391 282.08,-385 282.08,-385 282.08,-373 282.08,-373 282.08,-367 288.08,-361 294.08,-361 294.08,-361 373.83,-361 373.83,-361 379.83,-361 385.83,-367 385.83,-373 385.83,-373 385.83,-385 385.83,-385 385.83,-391 379.83,-397 373.83,-397"/>
<text xml:space="preserve" text-anchor="middle" x="333.95" y="-373.75" font-family="Arial" font-size="15.00">outline_panel</text>
</g>
<!-- /lib/panels/center/editor_screen.dart -->
<g id="node6" class="node">
<title>/lib/panels/center/editor_screen.dart</title>
<path fill="Lavender" stroke="black" stroke-width="1.3" d="M947.33,-314C947.33,-314 864.58,-314 864.58,-314 858.58,-314 852.58,-308 852.58,-302 852.58,-302 852.58,-290 852.58,-290 852.58,-284 858.58,-278 864.58,-278 864.58,-278 947.33,-278 947.33,-278 953.33,-278 959.33,-284 959.33,-290 959.33,-290 959.33,-302 959.33,-302 959.33,-308 953.33,-314 947.33,-314"/>
<text xml:space="preserve" text-anchor="middle" x="905.95" y="-290.75" font-family="Arial" font-size="15.00">editor_screen</text>
</g>
<!-- /lib/panels/right/outline_panel.dart&#45;&gt;/lib/panels/center/editor_screen.dart -->
<g id="edge7" class="edge">
<title>/lib/panels/right/outline_panel.dart&#45;&gt;/lib/panels/center/editor_screen.dart</title>
<path fill="none" stroke="#aabbaa" stroke-width="1.3" stroke-opacity="0.533333" d="M372.56,-360.4C380.78,-357.37 389.53,-354.67 397.95,-353 446.25,-343.45 794.33,-360.82 840.95,-345 855.03,-340.22 868.59,-331.18 879.65,-322.22"/>
<polygon fill="#aabbaa" fill-opacity="0.533333" stroke="#aabbaa" stroke-width="1.3" stroke-opacity="0.533333" points="881.87,-324.92 887.18,-315.75 877.31,-319.61 881.87,-324.92"/>
</g>
<!-- /lib/panels/right/outline_panel.dart&#45;&gt;/lib/models/file_system_item.dart -->
<g id="edge6" class="edge">
<title>/lib/panels/right/outline_panel.dart&#45;&gt;/lib/models/file_system_item.dart</title>
<path fill="none" stroke="#aabbaa" stroke-width="1.3" stroke-opacity="0.533333" d="M333.47,-360.45C333.43,-320.49 339.6,-222.78 397.95,-179 423.65,-159.72 662.8,-192.18 686.95,-171 712.33,-148.74 677.08,-121.71 698.95,-96 714.26,-78.01 736.92,-67.18 759.38,-60.66"/>
<polygon fill="#aabbaa" fill-opacity="0.533333" stroke="#aabbaa" stroke-width="1.3" stroke-opacity="0.533333" points="760,-64.12 768.8,-58.22 758.24,-57.34 760,-64.12"/>
</g>
<!-- /lib/panels/right/ai_panel.dart -->
<g id="node4" class="node">
<title>/lib/panels/right/ai_panel.dart</title>
<path fill="Lavender" stroke="black" stroke-width="1.3" d="M251.7,-397C251.7,-397 204.2,-397 204.2,-397 198.2,-397 192.2,-391 192.2,-385 192.2,-385 192.2,-373 192.2,-373 192.2,-367 198.2,-361 204.2,-361 204.2,-361 251.7,-361 251.7,-361 257.7,-361 263.7,-367 263.7,-373 263.7,-373 263.7,-385 263.7,-385 263.7,-391 257.7,-397 251.7,-397"/>
<text xml:space="preserve" text-anchor="middle" x="227.95" y="-373.75" font-family="Arial" font-size="15.00">ai_panel</text>
</g>
<!-- /lib/panels/right/ai_panel.dart&#45;&gt;/lib/models/file_system_item.dart -->
<g id="edge9" class="edge">
<title>/lib/panels/right/ai_panel.dart&#45;&gt;/lib/models/file_system_item.dart</title>
<path fill="none" stroke="#aabbaa" stroke-width="1.3" stroke-opacity="0.533333" d="M212.73,-360.51C172.28,-311.93 70.05,-173.8 142.95,-96 184.33,-51.84 587.53,-49.29 758.71,-50.23"/>
<polygon fill="#aabbaa" fill-opacity="0.533333" stroke="#aabbaa" stroke-width="1.3" stroke-opacity="0.533333" points="758.64,-53.73 768.66,-50.29 758.68,-46.73 758.64,-53.73"/>
</g>
<!-- /lib/services/ai_service.dart -->
<g id="node27" class="node">
<title>/lib/services/ai_service.dart</title>
<path fill="Lavender" stroke="black" stroke-width="1.3" d="M430.33,-140C430.33,-140 371.58,-140 371.58,-140 365.58,-140 359.58,-134 359.58,-128 359.58,-128 359.58,-116 359.58,-116 359.58,-110 365.58,-104 371.58,-104 371.58,-104 430.33,-104 430.33,-104 436.33,-104 442.33,-110 442.33,-116 442.33,-116 442.33,-128 442.33,-128 442.33,-134 436.33,-140 430.33,-140"/>
<text xml:space="preserve" text-anchor="middle" x="400.95" y="-116.75" font-family="Arial" font-size="15.00">ai_service</text>
</g>
<!-- /lib/panels/right/ai_panel.dart&#45;&gt;/lib/services/ai_service.dart -->
<g id="edge8" class="edge">
<title>/lib/panels/right/ai_panel.dart&#45;&gt;/lib/services/ai_service.dart</title>
<path fill="none" stroke="#aabbaa" stroke-width="1.3" stroke-opacity="0.533333" d="M229.4,-360.38C233.62,-321.12 249.54,-226.23 306.95,-179 321.97,-166.65 332.62,-179.8 349.95,-171 360.74,-165.53 370.84,-157.06 379.16,-148.76"/>
<polygon fill="#aabbaa" fill-opacity="0.533333" stroke="#aabbaa" stroke-width="1.3" stroke-opacity="0.533333" points="381.48,-151.4 385.8,-141.72 376.39,-146.6 381.48,-151.4"/>
</g>
<!-- /lib/panels/right/right_panel.dart -->
<g id="node5" class="node">
<title>/lib/panels/right/right_panel.dart</title>
<path fill="Lavender" stroke="black" stroke-width="1.3" d="M317.7,-480C317.7,-480 252.2,-480 252.2,-480 246.2,-480 240.2,-474 240.2,-468 240.2,-468 240.2,-456 240.2,-456 240.2,-450 246.2,-444 252.2,-444 252.2,-444 317.7,-444 317.7,-444 323.7,-444 329.7,-450 329.7,-456 329.7,-456 329.7,-468 329.7,-468 329.7,-474 323.7,-480 317.7,-480"/>
<text xml:space="preserve" text-anchor="middle" x="284.95" y="-456.75" font-family="Arial" font-size="15.00">right_panel</text>
</g>
<!-- /lib/panels/right/right_panel.dart&#45;&gt;/lib/panels/right/outline_panel.dart -->
<g id="edge10" class="edge">
<title>/lib/panels/right/right_panel.dart&#45;&gt;/lib/panels/right/outline_panel.dart</title>
<path fill="none" stroke="#aabbaa" stroke-width="1.3" stroke-opacity="0.533333" d="M295.59,-443.42C301.94,-432.92 310.16,-419.34 317.35,-407.44"/>
<polygon fill="#aabbaa" fill-opacity="0.533333" stroke="#aabbaa" stroke-width="1.3" stroke-opacity="0.533333" points="320.14,-409.59 322.32,-399.23 314.15,-405.97 320.14,-409.59"/>
</g>
<!-- /lib/panels/right/right_panel.dart&#45;&gt;/lib/panels/right/ai_panel.dart -->
<g id="edge11" class="edge">
<title>/lib/panels/right/right_panel.dart&#45;&gt;/lib/panels/right/ai_panel.dart</title>
<path fill="none" stroke="#aabbaa" stroke-width="1.3" stroke-opacity="0.533333" d="M272.59,-443.42C265.12,-432.81 255.44,-419.06 247.01,-407.08"/>
<polygon fill="#aabbaa" fill-opacity="0.533333" stroke="#aabbaa" stroke-width="1.3" stroke-opacity="0.533333" points="250.05,-405.31 241.43,-399.15 244.32,-409.34 250.05,-405.31"/>
</g>
<!-- /lib/panels/right/right_panel.dart&#45;&gt;/lib/models/file_system_item.dart -->
<g id="edge12" class="edge">
<title>/lib/panels/right/right_panel.dart&#45;&gt;/lib/models/file_system_item.dart</title>
<path fill="none" stroke="#aabbaa" stroke-width="1.3" stroke-opacity="0.533333" d="M239.7,-459.17C188.63,-456.15 109.93,-448.25 88.95,-428 -17.38,-325.35 -32.73,-202.3 69.95,-96 93.64,-71.48 569.85,-57.38 758.73,-52.73"/>
<polygon fill="#aabbaa" fill-opacity="0.533333" stroke="#aabbaa" stroke-width="1.3" stroke-opacity="0.533333" points="758.6,-56.23 768.51,-52.49 758.43,-49.23 758.6,-56.23"/>
</g>
<!-- /lib/panels/center/editor_screen.dart&#45;&gt;/lib/providers/app_providers.dart -->
<g id="edge13" class="edge">
<title>/lib/panels/center/editor_screen.dart&#45;&gt;/lib/providers/app_providers.dart</title>
<path fill="none" stroke="#aabbaa" stroke-width="1.3" stroke-opacity="0.533333" d="M943.31,-277.41C951.28,-274.38 959.77,-271.67 967.95,-270 1058.77,-251.47 1294.74,-283.26 1384.95,-262 1406.49,-256.92 1428.88,-246.85 1447.08,-237.24"/>
<polygon fill="#aabbaa" fill-opacity="0.533333" stroke="#aabbaa" stroke-width="1.3" stroke-opacity="0.533333" points="1448.73,-240.33 1455.83,-232.46 1445.37,-234.18 1448.73,-240.33"/>
</g>
<!-- /lib/utils/message_helper.dart -->
<g id="node17" class="node">
<title>/lib/utils/message_helper.dart</title>
<path fill="Lavender" stroke="black" stroke-width="1.3" d="M1237.08,-231C1237.08,-231 1134.83,-231 1134.83,-231 1128.83,-231 1122.83,-225 1122.83,-219 1122.83,-219 1122.83,-207 1122.83,-207 1122.83,-201 1128.83,-195 1134.83,-195 1134.83,-195 1237.08,-195 1237.08,-195 1243.08,-195 1249.08,-201 1249.08,-207 1249.08,-207 1249.08,-219 1249.08,-219 1249.08,-225 1243.08,-231 1237.08,-231"/>
<text xml:space="preserve" text-anchor="middle" x="1185.95" y="-207.75" font-family="Arial" font-size="15.00">message_helper</text>
</g>
<!-- /lib/panels/center/editor_screen.dart&#45;&gt;/lib/utils/message_helper.dart -->
<g id="edge14" class="edge">
<title>/lib/panels/center/editor_screen.dart&#45;&gt;/lib/utils/message_helper.dart</title>
<path fill="none" stroke="#aabbaa" stroke-width="1.3" stroke-opacity="0.533333" d="M947.36,-277.43C954.19,-274.79 961.23,-272.21 967.95,-270 1014.78,-254.62 1068.39,-240.8 1110.73,-230.74"/>
<polygon fill="#aabbaa" fill-opacity="0.533333" stroke="#aabbaa" stroke-width="1.3" stroke-opacity="0.533333" points="1111.51,-234.15 1120.44,-228.45 1109.9,-227.33 1111.51,-234.15"/>
</g>
<!-- /lib/panels/center/editor_screen.dart&#45;&gt;/lib/utils/file_type_utils.dart -->
<g id="edge15" class="edge">
<title>/lib/panels/center/editor_screen.dart&#45;&gt;/lib/utils/file_type_utils.dart</title>
<path fill="none" stroke="#aabbaa" stroke-width="1.3" stroke-opacity="0.533333" d="M943.32,-277.46C951.29,-274.43 959.77,-271.7 967.95,-270 999.51,-263.42 1227.6,-272.85 1257.95,-262 1271.3,-257.23 1284.05,-248.4 1294.47,-239.6"/>
<polygon fill="#aabbaa" fill-opacity="0.533333" stroke="#aabbaa" stroke-width="1.3" stroke-opacity="0.533333" points="1296.77,-242.24 1301.88,-232.96 1292.1,-237.03 1296.77,-242.24"/>
</g>
<!-- /lib/panels/center/editor_screen.dart&#45;&gt;/lib/models/document_state.dart -->
<g id="edge16" class="edge">
<title>/lib/panels/center/editor_screen.dart&#45;&gt;/lib/models/document_state.dart</title>
<path fill="none" stroke="#aabbaa" stroke-width="1.3" stroke-opacity="0.533333" d="M910.72,-277.56C918.81,-247.94 935.32,-187.54 945.13,-151.64"/>
<polygon fill="#aabbaa" fill-opacity="0.533333" stroke="#aabbaa" stroke-width="1.3" stroke-opacity="0.533333" points="948.4,-152.95 947.66,-142.38 941.64,-151.11 948.4,-152.95"/>
</g>
<!-- /lib/panels/center/terminal_panel.dart -->
<g id="node7" class="node">
<title>/lib/panels/center/terminal_panel.dart</title>
<path fill="Lavender" stroke="black" stroke-width="1.3" d="M1078.7,-314C1078.7,-314 989.2,-314 989.2,-314 983.2,-314 977.2,-308 977.2,-302 977.2,-302 977.2,-290 977.2,-290 977.2,-284 983.2,-278 989.2,-278 989.2,-278 1078.7,-278 1078.7,-278 1084.7,-278 1090.7,-284 1090.7,-290 1090.7,-290 1090.7,-302 1090.7,-302 1090.7,-308 1084.7,-314 1078.7,-314"/>
<text xml:space="preserve" text-anchor="middle" x="1033.95" y="-290.75" font-family="Arial" font-size="15.00">terminal_panel</text>
</g>
<!-- /lib/panels/center/terminal_panel.dart&#45;&gt;/lib/providers/app_providers.dart -->
<g id="edge17" class="edge">
<title>/lib/panels/center/terminal_panel.dart&#45;&gt;/lib/providers/app_providers.dart</title>
<path fill="none" stroke="#aabbaa" stroke-width="1.3" stroke-opacity="0.533333" d="M1091.06,-282.15C1113.91,-277.51 1140.57,-272.75 1164.95,-270 1213.57,-264.51 1337.43,-273.63 1384.95,-262 1406.29,-256.78 1428.5,-246.79 1446.64,-237.28"/>
<polygon fill="#aabbaa" fill-opacity="0.533333" stroke="#aabbaa" stroke-width="1.3" stroke-opacity="0.533333" points="1448.23,-240.4 1455.36,-232.55 1444.9,-234.24 1448.23,-240.4"/>
</g>
<!-- /lib/panels/center/center_panel.dart -->
<g id="node8" class="node">
<title>/lib/panels/center/center_panel.dart</title>
<path fill="Lavender" stroke="black" stroke-width="1.3" d="M1079.08,-397C1079.08,-397 1000.83,-397 1000.83,-397 994.83,-397 988.83,-391 988.83,-385 988.83,-385 988.83,-373 988.83,-373 988.83,-367 994.83,-361 1000.83,-361 1000.83,-361 1079.08,-361 1079.08,-361 1085.08,-361 1091.08,-367 1091.08,-373 1091.08,-373 1091.08,-385 1091.08,-385 1091.08,-391 1085.08,-397 1079.08,-397"/>
<text xml:space="preserve" text-anchor="middle" x="1039.95" y="-373.75" font-family="Arial" font-size="15.00">center_panel</text>
</g>
<!-- /lib/panels/center/center_panel.dart&#45;&gt;/lib/providers/app_providers.dart -->
<g id="edge18" class="edge">
<title>/lib/panels/center/center_panel.dart&#45;&gt;/lib/providers/app_providers.dart</title>
<path fill="none" stroke="#aabbaa" stroke-width="1.3" stroke-opacity="0.533333" d="M1091.64,-374.16C1113.74,-369.99 1138.23,-361.62 1154.95,-345 1179.59,-320.51 1149.5,-291.28 1176.95,-270 1198.04,-253.65 1391.63,-270.41 1416.95,-262 1431.67,-257.11 1446.05,-248.02 1457.85,-239.04"/>
<polygon fill="#aabbaa" fill-opacity="0.533333" stroke="#aabbaa" stroke-width="1.3" stroke-opacity="0.533333" points="1459.95,-241.85 1465.56,-232.86 1455.57,-236.38 1459.95,-241.85"/>
</g>
<!-- /lib/panels/center/center_panel.dart&#45;&gt;/lib/panels/center/editor_screen.dart -->
<g id="edge20" class="edge">
<title>/lib/panels/center/center_panel.dart&#45;&gt;/lib/panels/center/editor_screen.dart</title>
<path fill="none" stroke="#aabbaa" stroke-width="1.3" stroke-opacity="0.533333" d="M997.24,-360.38C987.4,-355.79 977.13,-350.55 967.95,-345 956.75,-338.22 945.2,-329.75 935.16,-321.82"/>
<polygon fill="#aabbaa" fill-opacity="0.533333" stroke="#aabbaa" stroke-width="1.3" stroke-opacity="0.533333" points="937.56,-319.26 927.58,-315.7 933.16,-324.71 937.56,-319.26"/>
</g>
<!-- /lib/panels/center/center_panel.dart&#45;&gt;/lib/panels/center/terminal_panel.dart -->
<g id="edge21" class="edge">
<title>/lib/panels/center/center_panel.dart&#45;&gt;/lib/panels/center/terminal_panel.dart</title>
<path fill="none" stroke="#aabbaa" stroke-width="1.3" stroke-opacity="0.533333" d="M1038.65,-360.42C1037.91,-350.45 1036.97,-337.7 1036.12,-326.26"/>
<polygon fill="#aabbaa" fill-opacity="0.533333" stroke="#aabbaa" stroke-width="1.3" stroke-opacity="0.533333" points="1039.63,-326.22 1035.4,-316.5 1032.65,-326.73 1039.63,-326.22"/>
</g>
<!-- /lib/panels/center/center_panel.dart&#45;&gt;/lib/models/file_system_item.dart -->
<g id="edge23" class="edge">
<title>/lib/panels/center/center_panel.dart&#45;&gt;/lib/models/file_system_item.dart</title>
<path fill="none" stroke="#aabbaa" stroke-width="1.3" stroke-opacity="0.533333" d="M988.56,-370.01C948.47,-364.15 891.31,-356.61 840.95,-353 828.68,-352.12 408.15,-351.9 397.95,-345 331.64,-300.13 393.42,-225.09 327.95,-179 314.76,-169.71 194.04,-182.72 182.95,-171 160.04,-146.79 160.21,-120.37 182.95,-96 221.52,-54.68 595.07,-50.42 758.76,-50.56"/>
<polygon fill="#aabbaa" fill-opacity="0.533333" stroke="#aabbaa" stroke-width="1.3" stroke-opacity="0.533333" points="758.67,-54.06 768.67,-50.58 758.68,-47.06 758.67,-54.06"/>
</g>
<!-- /lib/screens/welcome_screen.dart -->
<g id="node23" class="node">
<title>/lib/screens/welcome_screen.dart</title>
<path fill="Lavender" stroke="black" stroke-width="1.3" d="M1368.83,-480C1368.83,-480 1265.08,-480 1265.08,-480 1259.08,-480 1253.08,-474 1253.08,-468 1253.08,-468 1253.08,-456 1253.08,-456 1253.08,-450 1259.08,-444 1265.08,-444 1265.08,-444 1368.83,-444 1368.83,-444 1374.83,-444 1380.83,-450 1380.83,-456 1380.83,-456 1380.83,-468 1380.83,-468 1380.83,-474 1374.83,-480 1368.83,-480"/>
<text xml:space="preserve" text-anchor="middle" x="1316.95" y="-456.75" font-family="Arial" font-size="15.00">welcome_screen</text>
</g>
<!-- /lib/panels/center/center_panel.dart&#45;&gt;/lib/screens/welcome_screen.dart -->
<g id="edge19" class="edge">
<title>/lib/panels/center/center_panel.dart&#45;&gt;/lib/screens/welcome_screen.dart</title>
<path fill="none" stroke="#aabbaa" stroke-width="1.3" stroke-opacity="0.533333" d="M1078.91,-397.55C1103.43,-407.91 1135.99,-420.44 1165.95,-428 1192.47,-434.69 1200.16,-430.55 1226.95,-436 1233.47,-437.33 1240.21,-438.87 1246.93,-440.52"/>
<polygon fill="#aabbaa" fill-opacity="0.533333" stroke="#aabbaa" stroke-width="1.3" stroke-opacity="0.533333" points="1245.72,-443.83 1256.27,-442.91 1247.45,-437.04 1245.72,-443.83"/>
</g>
<!-- /lib/widgets/resizable_splitter.dart -->
<g id="node30" class="node">
<title>/lib/widgets/resizable_splitter.dart</title>
<path fill="Lavender" stroke="black" stroke-width="1.3" d="M1304.83,-314C1304.83,-314 1201.08,-314 1201.08,-314 1195.08,-314 1189.08,-308 1189.08,-302 1189.08,-302 1189.08,-290 1189.08,-290 1189.08,-284 1195.08,-278 1201.08,-278 1201.08,-278 1304.83,-278 1304.83,-278 1310.83,-278 1316.83,-284 1316.83,-290 1316.83,-290 1316.83,-302 1316.83,-302 1316.83,-308 1310.83,-314 1304.83,-314"/>
<text xml:space="preserve" text-anchor="middle" x="1252.95" y="-290.75" font-family="Arial" font-size="15.00">resizable_splitter</text>
</g>
<!-- /lib/panels/center/center_panel.dart&#45;&gt;/lib/widgets/resizable_splitter.dart -->
<g id="edge22" class="edge">
<title>/lib/panels/center/center_panel.dart&#45;&gt;/lib/widgets/resizable_splitter.dart</title>
<path fill="none" stroke="#aabbaa" stroke-width="1.3" stroke-opacity="0.533333" d="M1091.48,-369.34C1117.17,-364.04 1148.35,-356.11 1174.95,-345 1190.15,-338.65 1205.82,-329.58 1219.1,-321.03"/>
<polygon fill="#aabbaa" fill-opacity="0.533333" stroke="#aabbaa" stroke-width="1.3" stroke-opacity="0.533333" points="1220.69,-324.17 1227.09,-315.73 1216.82,-318.34 1220.69,-324.17"/>
</g>
<!-- /lib/panels/left/git_panel.dart -->
<g id="node9" class="node">
<title>/lib/panels/left/git_panel.dart</title>
<path fill="Lavender" stroke="black" stroke-width="1.3" d="M709.95,-231C709.95,-231 657.95,-231 657.95,-231 651.95,-231 645.95,-225 645.95,-219 645.95,-219 645.95,-207 645.95,-207 645.95,-201 651.95,-195 657.95,-195 657.95,-195 709.95,-195 709.95,-195 715.95,-195 721.95,-201 721.95,-207 721.95,-207 721.95,-219 721.95,-219 721.95,-225 715.95,-231 709.95,-231"/>
<text xml:space="preserve" text-anchor="middle" x="683.95" y="-207.75" font-family="Arial" font-size="15.00">git_panel</text>
</g>
<!-- /lib/services/git_service.dart -->
<g id="node26" class="node">
<title>/lib/services/git_service.dart</title>
<path fill="Lavender" stroke="black" stroke-width="1.3" d="M535.58,-140C535.58,-140 472.33,-140 472.33,-140 466.33,-140 460.33,-134 460.33,-128 460.33,-128 460.33,-116 460.33,-116 460.33,-110 466.33,-104 472.33,-104 472.33,-104 535.58,-104 535.58,-104 541.58,-104 547.58,-110 547.58,-116 547.58,-116 547.58,-128 547.58,-128 547.58,-134 541.58,-140 535.58,-140"/>
<text xml:space="preserve" text-anchor="middle" x="503.95" y="-116.75" font-family="Arial" font-size="15.00">git_service</text>
</g>
<!-- /lib/panels/left/git_panel.dart&#45;&gt;/lib/services/git_service.dart -->
<g id="edge24" class="edge">
<title>/lib/panels/left/git_panel.dart&#45;&gt;/lib/services/git_service.dart</title>
<path fill="none" stroke="#aabbaa" stroke-width="1.3" stroke-opacity="0.533333" d="M645.52,-204.1C619.38,-197.66 584.64,-187 556.95,-171 546.58,-165.01 536.5,-156.71 527.96,-148.7"/>
<polygon fill="#aabbaa" fill-opacity="0.533333" stroke="#aabbaa" stroke-width="1.3" stroke-opacity="0.533333" points="530.67,-146.45 521.08,-141.95 525.77,-151.45 530.67,-146.45"/>
</g>
<!-- /lib/panels/left/left_panel_controls.dart -->
<g id="node10" class="node">
<title>/lib/panels/left/left_panel_controls.dart</title>
<path fill="Lavender" stroke="black" stroke-width="1.3" d="M539.58,-480C539.58,-480 422.33,-480 422.33,-480 416.33,-480 410.33,-474 410.33,-468 410.33,-468 410.33,-456 410.33,-456 410.33,-450 416.33,-444 422.33,-444 422.33,-444 539.58,-444 539.58,-444 545.58,-444 551.58,-450 551.58,-456 551.58,-456 551.58,-468 551.58,-468 551.58,-474 545.58,-480 539.58,-480"/>
<text xml:space="preserve" text-anchor="middle" x="480.95" y="-456.75" font-family="Arial" font-size="15.00">left_panel_controls</text>
</g>
<!-- /lib/panels/left/base_panel.dart -->
<g id="node11" class="node">
<title>/lib/panels/left/base_panel.dart</title>
<path fill="Lavender" stroke="black" stroke-width="1.3" d="M797.2,-314C797.2,-314 728.7,-314 728.7,-314 722.7,-314 716.7,-308 716.7,-302 716.7,-302 716.7,-290 716.7,-290 716.7,-284 722.7,-278 728.7,-278 728.7,-278 797.2,-278 797.2,-278 803.2,-278 809.2,-284 809.2,-290 809.2,-290 809.2,-302 809.2,-302 809.2,-308 803.2,-314 797.2,-314"/>
<text xml:space="preserve" text-anchor="middle" x="762.95" y="-290.75" font-family="Arial" font-size="15.00">base_panel</text>
</g>
<!-- /lib/panels/left/base_panel.dart&#45;&gt;/lib/providers/app_providers.dart -->
<g id="edge30" class="edge">
<title>/lib/panels/left/base_panel.dart&#45;&gt;/lib/providers/app_providers.dart</title>
<path fill="none" stroke="#aabbaa" stroke-width="1.3" stroke-opacity="0.533333" d="M809.84,-277.51C819.97,-274.43 830.71,-271.68 840.95,-270 900.61,-260.22 1326.08,-275.73 1384.95,-262 1406.5,-256.97 1428.89,-246.91 1447.09,-237.28"/>
<polygon fill="#aabbaa" fill-opacity="0.533333" stroke="#aabbaa" stroke-width="1.3" stroke-opacity="0.533333" points="1448.74,-240.37 1455.84,-232.5 1445.38,-234.23 1448.74,-240.37"/>
</g>
<!-- /lib/panels/left/base_panel.dart&#45;&gt;/lib/panels/left/git_panel.dart -->
<g id="edge29" class="edge">
<title>/lib/panels/left/base_panel.dart&#45;&gt;/lib/panels/left/git_panel.dart</title>
<path fill="none" stroke="#aabbaa" stroke-width="1.3" stroke-opacity="0.533333" d="M745.81,-277.42C735.15,-266.49 721.24,-252.24 709.32,-240.01"/>
<polygon fill="#aabbaa" fill-opacity="0.533333" stroke="#aabbaa" stroke-width="1.3" stroke-opacity="0.533333" points="711.92,-237.67 702.44,-232.95 706.91,-242.55 711.92,-237.67"/>
</g>
<!-- /lib/panels/left/base_panel.dart&#45;&gt;/lib/utils/message_helper.dart -->
<g id="edge28" class="edge">
<title>/lib/panels/left/base_panel.dart&#45;&gt;/lib/utils/message_helper.dart</title>
<path fill="none" stroke="#aabbaa" stroke-width="1.3" stroke-opacity="0.533333" d="M809.65,-278.78C819.89,-275.58 830.72,-272.46 840.95,-270 932.71,-247.98 1040.29,-232.05 1110.62,-222.93"/>
<polygon fill="#aabbaa" fill-opacity="0.533333" stroke="#aabbaa" stroke-width="1.3" stroke-opacity="0.533333" points="1111.01,-226.41 1120.49,-221.67 1110.12,-219.47 1111.01,-226.41"/>
</g>
<!-- /lib/panels/left/base_panel.dart&#45;&gt;/lib/models/project_node.dart -->
<g id="edge25" class="edge">
<title>/lib/panels/left/base_panel.dart&#45;&gt;/lib/models/project_node.dart</title>
<path fill="none" stroke="#aabbaa" stroke-width="1.3" stroke-opacity="0.533333" d="M768.94,-277.56C779.1,-247.94 799.82,-187.54 812.13,-151.64"/>
<polygon fill="#aabbaa" fill-opacity="0.533333" stroke="#aabbaa" stroke-width="1.3" stroke-opacity="0.533333" points="815.38,-152.94 815.32,-142.35 808.76,-150.67 815.38,-152.94"/>
</g>
<!-- /lib/panels/left/base_panel.dart&#45;&gt;/lib/models/file_system_item.dart -->
<g id="edge26" class="edge">
<title>/lib/panels/left/base_panel.dart&#45;&gt;/lib/models/file_system_item.dart</title>
<path fill="none" stroke="#aabbaa" stroke-width="1.3" stroke-opacity="0.533333" d="M760.72,-277.51C755.61,-234.87 744.78,-126.77 761.95,-96 766.6,-87.68 773.48,-80.71 781.19,-74.93"/>
<polygon fill="#aabbaa" fill-opacity="0.533333" stroke="#aabbaa" stroke-width="1.3" stroke-opacity="0.533333" points="782.89,-78.01 789.28,-69.56 779.01,-72.18 782.89,-78.01"/>
</g>
<!-- /lib/panels/left/base_panel.dart&#45;&gt;/lib/services/git_service.dart -->
<g id="edge27" class="edge">
<title>/lib/panels/left/base_panel.dart&#45;&gt;/lib/services/git_service.dart</title>
<path fill="none" stroke="#aabbaa" stroke-width="1.3" stroke-opacity="0.533333" d="M759.32,-277.57C752.73,-246.73 738.75,-185.22 730.95,-179 715.83,-166.92 574.85,-178.37 556.95,-171 545.25,-166.17 534.45,-157.57 525.71,-148.97"/>
<polygon fill="#aabbaa" fill-opacity="0.533333" stroke="#aabbaa" stroke-width="1.3" stroke-opacity="0.533333" points="528.46,-146.79 519.04,-141.94 523.38,-151.6 528.46,-146.79"/>
</g>
<!-- /lib/panels/left/directory_contents.dart -->
<g id="node12" class="node">
<title>/lib/panels/left/directory_contents.dart</title>
<path fill="Lavender" stroke="black" stroke-width="1.3" d="M537.45,-397C537.45,-397 422.45,-397 422.45,-397 416.45,-397 410.45,-391 410.45,-385 410.45,-385 410.45,-373 410.45,-373 410.45,-367 416.45,-361 422.45,-361 422.45,-361 537.45,-361 537.45,-361 543.45,-361 549.45,-367 549.45,-373 549.45,-373 549.45,-385 549.45,-385 549.45,-391 543.45,-397 537.45,-397"/>
<text xml:space="preserve" text-anchor="middle" x="479.95" y="-373.75" font-family="Arial" font-size="15.00">directory_contents</text>
</g>
<!-- /lib/panels/left/directory_contents.dart&#45;&gt;/lib/models/file_system_item.dart -->
<g id="edge33" class="edge">
<title>/lib/panels/left/directory_contents.dart&#45;&gt;/lib/models/file_system_item.dart</title>
<path fill="none" stroke="#aabbaa" stroke-width="1.3" stroke-opacity="0.533333" d="M487.92,-360.43C507.1,-320.42 560,-222.61 636.95,-179 661.13,-165.3 675.35,-185.65 698.95,-171 732.99,-149.87 719.17,-122.79 748.95,-96 758.35,-87.55 769.63,-80.18 780.88,-73.99"/>
<polygon fill="#aabbaa" fill-opacity="0.533333" stroke="#aabbaa" stroke-width="1.3" stroke-opacity="0.533333" points="782.15,-77.28 789.4,-69.56 778.91,-71.07 782.15,-77.28"/>
</g>
<!-- /lib/panels/left/directory_contents.dart&#45;&gt;/lib/services/git_service.dart -->
<g id="edge32" class="edge">
<title>/lib/panels/left/directory_contents.dart&#45;&gt;/lib/services/git_service.dart</title>
<path fill="none" stroke="#aabbaa" stroke-width="1.3" stroke-opacity="0.533333" d="M425.98,-360.4C416.69,-357.7 407.09,-355.11 397.95,-353 386.99,-350.46 355.25,-353.56 347.95,-345 300.08,-288.86 297.85,-233.15 347.95,-179 363.55,-162.15 429.87,-180.08 450.95,-171 462.58,-165.99 473.36,-157.35 482.12,-148.77"/>
<polygon fill="#aabbaa" fill-opacity="0.533333" stroke="#aabbaa" stroke-width="1.3" stroke-opacity="0.533333" points="484.42,-151.42 488.8,-141.77 479.36,-146.59 484.42,-151.42"/>
</g>
<!-- /lib/services/file_system_service.dart -->
<g id="node28" class="node">
<title>/lib/services/file_system_service.dart</title>
<path fill="Lavender" stroke="black" stroke-width="1.3" d="M329.2,-140C329.2,-140 206.7,-140 206.7,-140 200.7,-140 194.7,-134 194.7,-128 194.7,-128 194.7,-116 194.7,-116 194.7,-110 200.7,-104 206.7,-104 206.7,-104 329.2,-104 329.2,-104 335.2,-104 341.2,-110 341.2,-116 341.2,-116 341.2,-128 341.2,-128 341.2,-134 335.2,-140 329.2,-140"/>
<text xml:space="preserve" text-anchor="middle" x="267.95" y="-116.75" font-family="Arial" font-size="15.00">file_system_service</text>
</g>
<!-- /lib/panels/left/directory_contents.dart&#45;&gt;/lib/services/file_system_service.dart -->
<g id="edge31" class="edge">
<title>/lib/panels/left/directory_contents.dart&#45;&gt;/lib/services/file_system_service.dart</title>
<path fill="none" stroke="#aabbaa" stroke-width="1.3" stroke-opacity="0.533333" d="M427.87,-360.36C418.02,-357.53 407.74,-354.91 397.95,-353 378.24,-349.16 322.77,-358.55 307.95,-345 253.96,-295.64 257.47,-200.11 263.31,-152.07"/>
<polygon fill="#aabbaa" fill-opacity="0.533333" stroke="#aabbaa" stroke-width="1.3" stroke-opacity="0.533333" points="266.75,-152.73 264.62,-142.35 259.81,-151.78 266.75,-152.73"/>
</g>
<!-- /lib/panels/left/folder_panel.dart -->
<g id="node13" class="node">
<title>/lib/panels/left/folder_panel.dart</title>
<path fill="Lavender" stroke="black" stroke-width="1.3" d="M652.83,-397C652.83,-397 579.08,-397 579.08,-397 573.08,-397 567.08,-391 567.08,-385 567.08,-385 567.08,-373 567.08,-373 567.08,-367 573.08,-361 579.08,-361 579.08,-361 652.83,-361 652.83,-361 658.83,-361 664.83,-367 664.83,-373 664.83,-373 664.83,-385 664.83,-385 664.83,-391 658.83,-397 652.83,-397"/>
<text xml:space="preserve" text-anchor="middle" x="615.95" y="-373.75" font-family="Arial" font-size="15.00">folder_panel</text>
</g>
<!-- /lib/panels/left/folder_panel.dart&#45;&gt;/lib/panels/left/base_panel.dart -->
<g id="edge37" class="edge">
<title>/lib/panels/left/folder_panel.dart&#45;&gt;/lib/panels/left/base_panel.dart</title>
<path fill="none" stroke="#aabbaa" stroke-width="1.3" stroke-opacity="0.533333" d="M647.85,-360.42C669.23,-348.64 697.62,-333 720.85,-320.2"/>
<polygon fill="#aabbaa" fill-opacity="0.533333" stroke="#aabbaa" stroke-width="1.3" stroke-opacity="0.533333" points="722.33,-323.38 729.4,-315.49 718.95,-317.25 722.33,-323.38"/>
</g>
<!-- /lib/panels/left/folder_panel.dart&#45;&gt;/lib/models/project_node.dart -->
<g id="edge34" class="edge">
<title>/lib/panels/left/folder_panel.dart&#45;&gt;/lib/models/project_node.dart</title>
<path fill="none" stroke="#aabbaa" stroke-width="1.3" stroke-opacity="0.533333" d="M663.26,-360.42C673.27,-357.39 683.85,-354.68 693.95,-353 705.16,-351.14 1094.38,-352.46 1102.95,-345 1128.42,-322.85 1089.59,-292.28 1114.95,-270 1137.5,-250.19 1364.05,-283.53 1384.95,-262 1397.8,-248.77 1397.89,-192.15 1384.95,-179 1375.15,-169.04 895.1,-175.73 881.95,-171 868.69,-166.23 856.16,-157.22 846.01,-148.28"/>
<polygon fill="#aabbaa" fill-opacity="0.533333" stroke="#aabbaa" stroke-width="1.3" stroke-opacity="0.533333" points="848.53,-145.85 838.84,-141.57 843.74,-150.96 848.53,-145.85"/>
</g>
<!-- /lib/panels/left/folder_panel.dart&#45;&gt;/lib/models/file_system_item.dart -->
<g id="edge35" class="edge">
<title>/lib/panels/left/folder_panel.dart&#45;&gt;/lib/models/file_system_item.dart</title>
<path fill="none" stroke="#aabbaa" stroke-width="1.3" stroke-opacity="0.533333" d="M575.89,-360.42C466.09,-312.15 168.07,-180.51 161.95,-171 143.92,-142.96 139.18,-120.34 161.95,-96 201.99,-53.19 591.06,-49.82 758.72,-50.38"/>
<polygon fill="#aabbaa" fill-opacity="0.533333" stroke="#aabbaa" stroke-width="1.3" stroke-opacity="0.533333" points="758.66,-53.88 768.67,-50.42 758.69,-46.88 758.66,-53.88"/>
</g>
<!-- /lib/panels/left/folder_panel.dart&#45;&gt;/lib/services/git_service.dart -->
<g id="edge36" class="edge">
<title>/lib/panels/left/folder_panel.dart&#45;&gt;/lib/services/git_service.dart</title>
<path fill="none" stroke="#aabbaa" stroke-width="1.3" stroke-opacity="0.533333" d="M608.26,-360.47C589.19,-317.07 539.66,-204.3 516.38,-151.3"/>
<polygon fill="#aabbaa" fill-opacity="0.533333" stroke="#aabbaa" stroke-width="1.3" stroke-opacity="0.533333" points="519.72,-150.2 512.5,-142.45 513.31,-153.01 519.72,-150.2"/>
</g>
<!-- /lib/panels/left/file_explorer.dart -->
<g id="node14" class="node">
<title>/lib/panels/left/file_explorer.dart</title>
<path fill="Lavender" stroke="black" stroke-width="1.3" d="M654.45,-480C654.45,-480 581.45,-480 581.45,-480 575.45,-480 569.45,-474 569.45,-468 569.45,-468 569.45,-456 569.45,-456 569.45,-450 575.45,-444 581.45,-444 581.45,-444 654.45,-444 654.45,-444 660.45,-444 666.45,-450 666.45,-456 666.45,-456 666.45,-468 666.45,-468 666.45,-474 660.45,-480 654.45,-480"/>
<text xml:space="preserve" text-anchor="middle" x="617.95" y="-456.75" font-family="Arial" font-size="15.00">file_explorer</text>
</g>
<!-- /lib/panels/left/file_explorer.dart&#45;&gt;/lib/panels/left/directory_contents.dart -->
<g id="edge41" class="edge">
<title>/lib/panels/left/file_explorer.dart&#45;&gt;/lib/panels/left/directory_contents.dart</title>
<path fill="none" stroke="#aabbaa" stroke-width="1.3" stroke-opacity="0.533333" d="M585.41,-443.48C576.46,-438.56 566.79,-433.14 557.95,-428 544.62,-420.24 530.18,-411.46 517.4,-403.55"/>
<polygon fill="#aabbaa" fill-opacity="0.533333" stroke="#aabbaa" stroke-width="1.3" stroke-opacity="0.533333" points="519.56,-400.78 509.22,-398.48 515.87,-406.73 519.56,-400.78"/>
</g>
<!-- /lib/panels/left/file_explorer.dart&#45;&gt;/lib/models/file_system_item.dart -->
<g id="edge40" class="edge">
<title>/lib/panels/left/file_explorer.dart&#45;&gt;/lib/models/file_system_item.dart</title>
<path fill="none" stroke="#aabbaa" stroke-width="1.3" stroke-opacity="0.533333" d="M583.72,-443.4C576.39,-440.37 568.55,-437.67 560.95,-436 549.28,-433.44 139.83,-435.99 130.95,-428 75.86,-378.42 48.17,-149.99 98.95,-96 121.32,-72.22 575.5,-57.76 759.01,-52.87"/>
<polygon fill="#aabbaa" fill-opacity="0.533333" stroke="#aabbaa" stroke-width="1.3" stroke-opacity="0.533333" points="758.83,-56.38 768.73,-52.61 758.65,-49.38 758.83,-56.38"/>
</g>
<!-- /lib/panels/left/file_explorer.dart&#45;&gt;/lib/services/git_service.dart -->
<g id="edge39" class="edge">
<title>/lib/panels/left/file_explorer.dart&#45;&gt;/lib/services/git_service.dart</title>
<path fill="none" stroke="#aabbaa" stroke-width="1.3" stroke-opacity="0.533333" d="M583.72,-443.42C576.38,-440.39 568.55,-437.68 560.95,-436 550.62,-433.72 187.36,-435.56 179.95,-428 156.63,-404.18 169.62,-384.69 179.95,-353 194.8,-307.49 264.89,-201.86 306.95,-179 335.11,-163.69 421.38,-183.35 450.95,-171 462.64,-166.12 473.42,-157.51 482.17,-148.91"/>
<polygon fill="#aabbaa" fill-opacity="0.533333" stroke="#aabbaa" stroke-width="1.3" stroke-opacity="0.533333" points="484.5,-151.55 488.85,-141.89 479.42,-146.73 484.5,-151.55"/>
</g>
<!-- /lib/panels/left/file_explorer.dart&#45;&gt;/lib/services/file_system_service.dart -->
<g id="edge38" class="edge">
<title>/lib/panels/left/file_explorer.dart&#45;&gt;/lib/services/file_system_service.dart</title>
<path fill="none" stroke="#aabbaa" stroke-width="1.3" stroke-opacity="0.533333" d="M583.72,-443.41C576.38,-440.38 568.55,-437.67 560.95,-436 550.15,-433.62 170.69,-435.9 162.95,-428 84.63,-348.09 192.54,-207.11 243.68,-149.08"/>
<polygon fill="#aabbaa" fill-opacity="0.533333" stroke="#aabbaa" stroke-width="1.3" stroke-opacity="0.533333" points="245.99,-151.75 250.05,-141.97 240.77,-147.08 245.99,-151.75"/>
</g>
<!-- /lib/panels/left/left_panel.dart -->
<g id="node15" class="node">
<title>/lib/panels/left/left_panel.dart</title>
<path fill="Lavender" stroke="black" stroke-width="1.3" d="M753.2,-480C753.2,-480 696.7,-480 696.7,-480 690.7,-480 684.7,-474 684.7,-468 684.7,-468 684.7,-456 684.7,-456 684.7,-450 690.7,-444 696.7,-444 696.7,-444 753.2,-444 753.2,-444 759.2,-444 765.2,-450 765.2,-456 765.2,-456 765.2,-468 765.2,-468 765.2,-474 759.2,-480 753.2,-480"/>
<text xml:space="preserve" text-anchor="middle" x="724.95" y="-456.75" font-family="Arial" font-size="15.00">left_panel</text>
</g>
<!-- /lib/panels/left/left_panel.dart&#45;&gt;/lib/panels/left/git_panel.dart -->
<g id="edge44" class="edge">
<title>/lib/panels/left/left_panel.dart&#45;&gt;/lib/panels/left/git_panel.dart</title>
<path fill="none" stroke="#aabbaa" stroke-width="1.3" stroke-opacity="0.533333" d="M704.3,-443.51C700.16,-438.92 696.34,-433.65 693.95,-428 667.88,-366.41 673.5,-285.75 679.16,-243.21"/>
<polygon fill="#aabbaa" fill-opacity="0.533333" stroke="#aabbaa" stroke-width="1.3" stroke-opacity="0.533333" points="682.6,-243.88 680.56,-233.48 675.67,-242.88 682.6,-243.88"/>
</g>
<!-- /lib/panels/left/left_panel.dart&#45;&gt;/lib/panels/left/folder_panel.dart -->
<g id="edge42" class="edge">
<title>/lib/panels/left/left_panel.dart&#45;&gt;/lib/panels/left/folder_panel.dart</title>
<path fill="none" stroke="#aabbaa" stroke-width="1.3" stroke-opacity="0.533333" d="M700.51,-443.66C693.52,-438.65 685.91,-433.14 678.95,-428 668.84,-420.52 657.9,-412.25 648.03,-404.72"/>
<polygon fill="#aabbaa" fill-opacity="0.533333" stroke="#aabbaa" stroke-width="1.3" stroke-opacity="0.533333" points="650.21,-401.98 640.14,-398.68 645.96,-407.54 650.21,-401.98"/>
</g>
<!-- /lib/panels/left/organized_panel.dart -->
<g id="node16" class="node">
<title>/lib/panels/left/organized_panel.dart</title>
<path fill="Lavender" stroke="black" stroke-width="1.3" d="M816.7,-397C816.7,-397 715.2,-397 715.2,-397 709.2,-397 703.2,-391 703.2,-385 703.2,-385 703.2,-373 703.2,-373 703.2,-367 709.2,-361 715.2,-361 715.2,-361 816.7,-361 816.7,-361 822.7,-361 828.7,-367 828.7,-373 828.7,-373 828.7,-385 828.7,-385 828.7,-391 822.7,-397 816.7,-397"/>
<text xml:space="preserve" text-anchor="middle" x="765.95" y="-373.75" font-family="Arial" font-size="15.00">organized_panel</text>
</g>
<!-- /lib/panels/left/left_panel.dart&#45;&gt;/lib/panels/left/organized_panel.dart -->
<g id="edge43" class="edge">
<title>/lib/panels/left/left_panel.dart&#45;&gt;/lib/panels/left/organized_panel.dart</title>
<path fill="none" stroke="#aabbaa" stroke-width="1.3" stroke-opacity="0.533333" d="M733.85,-443.42C739.06,-433.13 745.76,-419.89 751.7,-408.17"/>
<polygon fill="#aabbaa" fill-opacity="0.533333" stroke="#aabbaa" stroke-width="1.3" stroke-opacity="0.533333" points="754.79,-409.8 756.19,-399.3 748.55,-406.64 754.79,-409.8"/>
</g>
<!-- /lib/panels/left/left_panel.dart&#45;&gt;/lib/models/file_system_item.dart -->
<g id="edge45" class="edge">
<title>/lib/panels/left/left_panel.dart&#45;&gt;/lib/models/file_system_item.dart</title>
<path fill="none" stroke="#aabbaa" stroke-width="1.3" stroke-opacity="0.533333" d="M695.74,-443.39C689.42,-440.37 682.63,-437.66 675.95,-436 649.21,-429.34 202.28,-444.16 179.95,-428 151.38,-407.31 170.51,-384.15 153.95,-353 151.87,-349.08 150.13,-348.88 147.95,-345 128.54,-310.37 122.85,-300.9 114.95,-262 106.91,-222.35 113.4,-211.45 112.95,-171 112.59,-137.67 90.13,-120.29 112.95,-96 134.82,-72.73 577.85,-58.03 758.89,-52.97"/>
<polygon fill="#aabbaa" fill-opacity="0.533333" stroke="#aabbaa" stroke-width="1.3" stroke-opacity="0.533333" points="758.82,-56.47 768.72,-52.7 758.62,-49.48 758.82,-56.47"/>
</g>
<!-- /lib/panels/left/organized_panel.dart&#45;&gt;/lib/panels/left/base_panel.dart -->
<g id="edge47" class="edge">
<title>/lib/panels/left/organized_panel.dart&#45;&gt;/lib/panels/left/base_panel.dart</title>
<path fill="none" stroke="#aabbaa" stroke-width="1.3" stroke-opacity="0.533333" d="M765.3,-360.42C764.93,-350.45 764.46,-337.7 764.04,-326.26"/>
<polygon fill="#aabbaa" fill-opacity="0.533333" stroke="#aabbaa" stroke-width="1.3" stroke-opacity="0.533333" points="767.54,-326.37 763.68,-316.51 760.55,-326.63 767.54,-326.37"/>
</g>
<!-- /lib/panels/left/organized_panel.dart&#45;&gt;/lib/models/project_node.dart -->
<g id="edge46" class="edge">
<title>/lib/panels/left/organized_panel.dart&#45;&gt;/lib/models/project_node.dart</title>
<path fill="none" stroke="#aabbaa" stroke-width="1.3" stroke-opacity="0.533333" d="M811.81,-360.37C821.32,-357.38 831.36,-354.7 840.95,-353 855.95,-350.34 1102.01,-353.02 1114.95,-345 1147.06,-325.09 1122.88,-289.97 1154.95,-270 1177.79,-255.78 1378.25,-281.34 1396.95,-262 1422.6,-235.49 1422.83,-205.29 1396.95,-179 1386.92,-168.8 895.42,-175.84 881.95,-171 868.69,-166.23 856.15,-157.22 846.01,-148.29"/>
<polygon fill="#aabbaa" fill-opacity="0.533333" stroke="#aabbaa" stroke-width="1.3" stroke-opacity="0.533333" points="848.53,-145.85 838.84,-141.57 843.74,-150.96 848.53,-145.85"/>
</g>
<!-- /lib/widgets/message_widget.dart -->
<g id="node32" class="node">
<title>/lib/widgets/message_widget.dart</title>
<path fill="Lavender" stroke="black" stroke-width="1.3" d="M1450.83,-314C1450.83,-314 1347.08,-314 1347.08,-314 1341.08,-314 1335.08,-308 1335.08,-302 1335.08,-302 1335.08,-290 1335.08,-290 1335.08,-284 1341.08,-278 1347.08,-278 1347.08,-278 1450.83,-278 1450.83,-278 1456.83,-278 1462.83,-284 1462.83,-290 1462.83,-290 1462.83,-302 1462.83,-302 1462.83,-308 1456.83,-314 1450.83,-314"/>
<text xml:space="preserve" text-anchor="middle" x="1398.95" y="-290.75" font-family="Arial" font-size="15.00">message_widget</text>
</g>
<!-- /lib/utils/message_helper.dart&#45;&gt;/lib/widgets/message_widget.dart -->
<g id="edge48" class="edge">
<title>/lib/utils/message_helper.dart&#45;&gt;/lib/widgets/message_widget.dart</title>
<path fill="none" stroke="#aabbaa" stroke-width="1.3" stroke-opacity="0.533333" d="M1206.55,-231.58C1220.22,-242.22 1239.06,-255.05 1257.95,-262 1286.51,-272.51 1296.28,-263.25 1325.95,-270 1330.94,-271.13 1336.06,-272.48 1341.16,-273.96"/>
<polygon fill="#aabbaa" fill-opacity="0.533333" stroke="#aabbaa" stroke-width="1.3" stroke-opacity="0.533333" points="1339.79,-277.2 1350.37,-276.79 1341.84,-270.51 1339.79,-277.2"/>
</g>
<!-- /lib/models/project_node.dart&#45;&gt;/lib/models/file_system_item.dart -->
<g id="edge49" class="edge">
<title>/lib/models/project_node.dart&#45;&gt;/lib/models/file_system_item.dart</title>
<path fill="none" stroke="#aabbaa" stroke-width="1.3" stroke-opacity="0.533333" d="M825.17,-103.7C826.49,-96.6 828.05,-88.18 829.53,-80.18"/>
<polygon fill="#aabbaa" fill-opacity="0.533333" stroke="#aabbaa" stroke-width="1.3" stroke-opacity="0.533333" points="832.94,-81 831.33,-70.53 826.06,-79.72 832.94,-81"/>
</g>
<!-- /lib/screens/main_layout.dart -->
<g id="node22" class="node">
<title>/lib/screens/main_layout.dart</title>
<path fill="Lavender" stroke="black" stroke-width="1.3" d="M1483.08,-480C1483.08,-480 1410.83,-480 1410.83,-480 1404.83,-480 1398.83,-474 1398.83,-468 1398.83,-468 1398.83,-456 1398.83,-456 1398.83,-450 1404.83,-444 1410.83,-444 1410.83,-444 1483.08,-444 1483.08,-444 1489.08,-444 1495.08,-450 1495.08,-456 1495.08,-456 1495.08,-468 1495.08,-468 1495.08,-474 1489.08,-480 1483.08,-480"/>
<text xml:space="preserve" text-anchor="middle" x="1446.95" y="-456.75" font-family="Arial" font-size="15.00">main_layout</text>
</g>
<!-- /lib/screens/main_layout.dart&#45;&gt;/lib/providers/app_providers.dart -->
<g id="edge51" class="edge">
<title>/lib/screens/main_layout.dart&#45;&gt;/lib/providers/app_providers.dart</title>
<path fill="none" stroke="#aabbaa" stroke-width="1.3" stroke-opacity="0.533333" d="M1474.46,-443.36C1502.76,-423.41 1545.13,-388.02 1562.95,-345 1575.71,-314.2 1578.08,-299.7 1562.95,-270 1556.39,-257.11 1545.32,-246.49 1533.59,-238.09"/>
<polygon fill="#aabbaa" fill-opacity="0.533333" stroke="#aabbaa" stroke-width="1.3" stroke-opacity="0.533333" points="1535.58,-235.22 1525.3,-232.64 1531.73,-241.07 1535.58,-235.22"/>
</g>
<!-- /lib/screens/main_layout.dart&#45;&gt;/lib/panels/right/right_panel.dart -->
<g id="edge58" class="edge">
<title>/lib/screens/main_layout.dart&#45;&gt;/lib/panels/right/right_panel.dart</title>
<path fill="none" stroke="#aabbaa" stroke-width="1.3" stroke-opacity="0.533333" d="M1440.69,-480.27C1431.67,-502.9 1412.52,-539.3 1380.95,-546 1367.72,-548.81 420.19,-548.81 406.95,-546 368.98,-537.94 333.37,-510.18 310.54,-488.75"/>
<polygon fill="#aabbaa" fill-opacity="0.533333" stroke="#aabbaa" stroke-width="1.3" stroke-opacity="0.533333" points="313.17,-486.43 303.56,-481.98 308.3,-491.46 313.17,-486.43"/>
</g>
<!-- /lib/screens/main_layout.dart&#45;&gt;/lib/panels/center/editor_screen.dart -->
<g id="edge50" class="edge">
<title>/lib/screens/main_layout.dart&#45;&gt;/lib/panels/center/editor_screen.dart</title>
<path fill="none" stroke="#aabbaa" stroke-width="1.3" stroke-opacity="0.533333" d="M1412.39,-443.4C1405.14,-440.41 1397.43,-437.72 1389.95,-436 1367.85,-430.91 1203.67,-442.17 1185.95,-428 1159.01,-406.45 1192.88,-374.57 1165.95,-353 1148.77,-339.24 988.64,-352.54 967.95,-345 954.64,-340.15 941.9,-331.3 931.47,-322.51"/>
<polygon fill="#aabbaa" fill-opacity="0.533333" stroke="#aabbaa" stroke-width="1.3" stroke-opacity="0.533333" points="933.84,-319.94 924.05,-315.88 929.18,-325.16 933.84,-319.94"/>
</g>
<!-- /lib/screens/main_layout.dart&#45;&gt;/lib/panels/center/center_panel.dart -->
<g id="edge57" class="edge">
<title>/lib/screens/main_layout.dart&#45;&gt;/lib/panels/center/center_panel.dart</title>
<path fill="none" stroke="#aabbaa" stroke-width="1.3" stroke-opacity="0.533333" d="M1412.39,-443.38C1405.15,-440.39 1397.43,-437.71 1389.95,-436 1292.83,-413.82 1263.59,-447.78 1165.95,-428 1139.14,-422.57 1110.55,-412.09 1087.39,-402.31"/>
<polygon fill="#aabbaa" fill-opacity="0.533333" stroke="#aabbaa" stroke-width="1.3" stroke-opacity="0.533333" points="1088.86,-399.13 1078.29,-398.37 1086.08,-405.56 1088.86,-399.13"/>
</g>
<!-- /lib/screens/main_layout.dart&#45;&gt;/lib/panels/left/left_panel.dart -->
<g id="edge56" class="edge">
<title>/lib/screens/main_layout.dart&#45;&gt;/lib/panels/left/left_panel.dart</title>
<path fill="none" stroke="#aabbaa" stroke-width="1.3" stroke-opacity="0.533333" d="M1440.69,-480.27C1431.67,-502.9 1412.52,-539.3 1380.95,-546 1352.59,-552.02 1148.79,-549.03 1119.95,-546 995.36,-532.9 852.25,-497.16 777.18,-476.77"/>
<polygon fill="#aabbaa" fill-opacity="0.533333" stroke="#aabbaa" stroke-width="1.3" stroke-opacity="0.533333" points="778.19,-473.42 767.62,-474.16 776.35,-480.17 778.19,-473.42"/>
</g>
<!-- /lib/screens/main_layout.dart&#45;&gt;/lib/utils/file_type_utils.dart -->
<g id="edge54" class="edge">
<title>/lib/screens/main_layout.dart&#45;&gt;/lib/utils/file_type_utils.dart</title>
<path fill="none" stroke="#aabbaa" stroke-width="1.3" stroke-opacity="0.533333" d="M1411.37,-443.43C1404.4,-440.55 1397.05,-437.9 1389.95,-436 1358.42,-427.57 1347.91,-438.33 1316.95,-428 1248.34,-405.1 1212.76,-407.85 1176.95,-345 1160.45,-316.04 1154.57,-294.7 1176.95,-270 1189.1,-256.6 1241.15,-268.69 1257.95,-262 1271.03,-256.8 1283.65,-247.97 1294.06,-239.3"/>
<polygon fill="#aabbaa" fill-opacity="0.533333" stroke="#aabbaa" stroke-width="1.3" stroke-opacity="0.533333" points="1296.27,-242.01 1301.46,-232.78 1291.64,-236.76 1296.27,-242.01"/>
</g>
<!-- /lib/screens/main_layout.dart&#45;&gt;/lib/models/document_state.dart -->
<g id="edge53" class="edge">
<title>/lib/screens/main_layout.dart&#45;&gt;/lib/models/document_state.dart</title>
<path fill="none" stroke="#aabbaa" stroke-width="1.3" stroke-opacity="0.533333" d="M1495.63,-449.5C1508.9,-444.57 1522.48,-437.64 1532.95,-428 1614.64,-352.81 1636.15,-252.52 1552.95,-179 1514.29,-144.83 1178.89,-130.07 1027.07,-125.09"/>
<polygon fill="#aabbaa" fill-opacity="0.533333" stroke="#aabbaa" stroke-width="1.3" stroke-opacity="0.533333" points="1027.22,-121.6 1017.11,-124.77 1026.99,-128.59 1027.22,-121.6"/>
</g>
<!-- /lib/screens/main_layout.dart&#45;&gt;/lib/models/file_system_item.dart -->
<g id="edge52" class="edge">
<title>/lib/screens/main_layout.dart&#45;&gt;/lib/models/file_system_item.dart</title>
<path fill="none" stroke="#aabbaa" stroke-width="1.3" stroke-opacity="0.533333" d="M1495.67,-456.95C1519.15,-452.81 1546.38,-444.52 1565.95,-428 1650.72,-356.45 1661.11,-257.71 1582.95,-179 1489.75,-85.13 1082.53,-59.77 911.27,-53.19"/>
<polygon fill="#aabbaa" fill-opacity="0.533333" stroke="#aabbaa" stroke-width="1.3" stroke-opacity="0.533333" points="911.45,-49.7 901.32,-52.83 911.19,-56.69 911.45,-49.7"/>
</g>
<!-- /lib/screens/main_layout.dart&#45;&gt;/lib/widgets/resizable_splitter.dart -->
<g id="edge55" class="edge">
<title>/lib/screens/main_layout.dart&#45;&gt;/lib/widgets/resizable_splitter.dart</title>
<path fill="none" stroke="#aabbaa" stroke-width="1.3" stroke-opacity="0.533333" d="M1426.19,-443.45C1391.62,-414.23 1322.16,-355.5 1282.5,-321.97"/>
<polygon fill="#aabbaa" fill-opacity="0.533333" stroke="#aabbaa" stroke-width="1.3" stroke-opacity="0.533333" points="1284.96,-319.48 1275.07,-315.69 1280.45,-324.82 1284.96,-319.48"/>
</g>
<!-- /lib/main.dart&#45;&gt;/lib/providers/app_providers.dart -->
<g id="edge59" class="edge">
<title>/lib/main.dart&#45;&gt;/lib/providers/app_providers.dart</title>
<path fill="none" stroke="#aabbaa" stroke-width="1.3" stroke-opacity="0.533333" d="M1344.47,-567.59C1395.79,-568.09 1503.33,-566.13 1529.95,-542 1620.63,-459.8 1631.57,-377.44 1572.95,-270 1565.55,-256.43 1553.29,-245.65 1540.28,-237.33"/>
<polygon fill="#aabbaa" fill-opacity="0.533333" stroke="#aabbaa" stroke-width="1.3" stroke-opacity="0.533333" points="1542.34,-234.48 1531.95,-232.43 1538.79,-240.51 1542.34,-234.48"/>
</g>
<!-- /lib/main.dart&#45;&gt;/lib/panels/center/editor_screen.dart -->
<g id="edge62" class="edge">
<title>/lib/main.dart&#45;&gt;/lib/panels/center/editor_screen.dart</title>
<path fill="none" stroke="#aabbaa" stroke-width="1.3" stroke-opacity="0.533333" d="M1289.34,-565.08C1272.8,-562.41 1252.74,-556.22 1240.95,-542 1210.63,-505.42 1260.7,-469.45 1226.95,-436 1216.62,-425.75 1174.72,-434.99 1161.95,-428 1124.03,-407.22 1138.51,-372.6 1099.95,-353 1073.76,-339.68 995.46,-355.34 967.95,-345 954.69,-340.01 941.95,-331.14 931.52,-322.37"/>
<polygon fill="#aabbaa" fill-opacity="0.533333" stroke="#aabbaa" stroke-width="1.3" stroke-opacity="0.533333" points="933.9,-319.8 924.1,-315.77 929.24,-325.03 933.9,-319.8"/>
</g>
<!-- /lib/main.dart&#45;&gt;/lib/screens/main_layout.dart -->
<g id="edge60" class="edge">
<title>/lib/main.dart&#45;&gt;/lib/screens/main_layout.dart</title>
<path fill="none" stroke="#aabbaa" stroke-width="1.3" stroke-opacity="0.533333" d="M1344.52,-561.8C1359.06,-558.07 1376.61,-551.89 1389.95,-542 1408.01,-528.62 1422.68,-507.84 1432.61,-490.95"/>
<polygon fill="#aabbaa" fill-opacity="0.533333" stroke="#aabbaa" stroke-width="1.3" stroke-opacity="0.533333" points="1435.65,-492.69 1437.48,-482.25 1429.55,-489.27 1435.65,-492.69"/>
</g>
<!-- /lib/main.dart&#45;&gt;/lib/screens/welcome_screen.dart -->
<g id="edge63" class="edge">
<title>/lib/main.dart&#45;&gt;/lib/screens/welcome_screen.dart</title>
<path fill="none" stroke="#aabbaa" stroke-width="1.3" stroke-opacity="0.533333" d="M1316.95,-549.36C1316.95,-533.73 1316.95,-510.59 1316.95,-492.2"/>
<polygon fill="#aabbaa" fill-opacity="0.533333" stroke="#aabbaa" stroke-width="1.3" stroke-opacity="0.533333" points="1320.45,-492.35 1316.95,-482.35 1313.45,-492.35 1320.45,-492.35"/>
</g>
<!-- /lib/theme/app_theme.dart -->
<g id="node25" class="node">
<title>/lib/theme/app_theme.dart</title>
<path fill="Lavender" stroke="black" stroke-width="1.3" d="M1202.45,-480C1202.45,-480 1135.45,-480 1135.45,-480 1129.45,-480 1123.45,-474 1123.45,-468 1123.45,-468 1123.45,-456 1123.45,-456 1123.45,-450 1129.45,-444 1135.45,-444 1135.45,-444 1202.45,-444 1202.45,-444 1208.45,-444 1214.45,-450 1214.45,-456 1214.45,-456 1214.45,-468 1214.45,-468 1214.45,-474 1208.45,-480 1202.45,-480"/>
<text xml:space="preserve" text-anchor="middle" x="1168.95" y="-456.75" font-family="Arial" font-size="15.00">app_theme</text>
</g>
<!-- /lib/main.dart&#45;&gt;/lib/theme/app_theme.dart -->
<g id="edge65" class="edge">
<title>/lib/main.dart&#45;&gt;/lib/theme/app_theme.dart</title>
<path fill="none" stroke="#aabbaa" stroke-width="1.3" stroke-opacity="0.533333" d="M1289.71,-565.46C1268.65,-563.08 1239.7,-557.06 1218.95,-542 1201.39,-529.25 1188.54,-508.26 1180.26,-491.13"/>
<polygon fill="#aabbaa" fill-opacity="0.533333" stroke="#aabbaa" stroke-width="1.3" stroke-opacity="0.533333" points="1183.6,-490.01 1176.29,-482.34 1177.22,-492.89 1183.6,-490.01"/>
</g>
<!-- /lib/main.dart&#45;&gt;/lib/services/git_service.dart -->
<g id="edge64" class="edge">
<title>/lib/main.dart&#45;&gt;/lib/services/git_service.dart</title>
<path fill="none" stroke="#aabbaa" stroke-width="1.3" stroke-opacity="0.533333" d="M1289.41,-566.88C1117.79,-566.08 201.43,-560.93 179.95,-542 57.86,-434.4 89.76,-264.94 227.95,-179 249.01,-165.91 427.98,-180.33 450.95,-171 462.68,-166.23 473.48,-157.65 482.23,-149.04"/>
<polygon fill="#aabbaa" fill-opacity="0.533333" stroke="#aabbaa" stroke-width="1.3" stroke-opacity="0.533333" points="484.56,-151.66 488.89,-141.99 479.48,-146.85 484.56,-151.66"/>
</g>
<!-- /lib/widgets/title_bar.dart -->
<g id="node31" class="node">
<title>/lib/widgets/title_bar.dart</title>
<path fill="Lavender" stroke="black" stroke-width="1.3" d="M1538.58,-314C1538.58,-314 1493.33,-314 1493.33,-314 1487.33,-314 1481.33,-308 1481.33,-302 1481.33,-302 1481.33,-290 1481.33,-290 1481.33,-284 1487.33,-278 1493.33,-278 1493.33,-278 1538.58,-278 1538.58,-278 1544.58,-278 1550.58,-284 1550.58,-290 1550.58,-290 1550.58,-302 1550.58,-302 1550.58,-308 1544.58,-314 1538.58,-314"/>
<text xml:space="preserve" text-anchor="middle" x="1515.95" y="-290.75" font-family="Arial" font-size="15.00">title_bar</text>
</g>
<!-- /lib/main.dart&#45;&gt;/lib/widgets/title_bar.dart -->
<g id="edge61" class="edge">
<title>/lib/main.dart&#45;&gt;/lib/widgets/title_bar.dart</title>
<path fill="none" stroke="#aabbaa" stroke-width="1.3" stroke-opacity="0.533333" d="M1344.46,-567.54C1391.82,-567.81 1485.74,-565.31 1506.95,-542 1561.21,-482.38 1540.11,-376.89 1525.46,-326.02"/>
<polygon fill="#aabbaa" fill-opacity="0.533333" stroke="#aabbaa" stroke-width="1.3" stroke-opacity="0.533333" points="1528.83,-325.06 1522.59,-316.5 1522.13,-327.08 1528.83,-325.06"/>
</g>
<!-- /lib/services/file_system_service.dart&#45;&gt;/lib/models/file_system_item.dart -->
<g id="edge66" class="edge">
<title>/lib/services/file_system_service.dart&#45;&gt;/lib/models/file_system_item.dart</title>
<path fill="none" stroke="#aabbaa" stroke-width="1.3" stroke-opacity="0.533333" d="M320.69,-103.4C330.66,-100.56 341.06,-97.93 350.95,-96 493.34,-68.23 662.73,-57.46 758.67,-53.39"/>
<polygon fill="#aabbaa" fill-opacity="0.533333" stroke="#aabbaa" stroke-width="1.3" stroke-opacity="0.533333" points="758.75,-56.89 768.6,-52.98 758.46,-49.89 758.75,-56.89"/>
</g>
<!-- /lib/services/editor_service.dart -->
<g id="node29" class="node">
<title>/lib/services/editor_service.dart</title>
<path fill="Lavender" stroke="black" stroke-width="1.3" d="M662.45,-140C662.45,-140 577.45,-140 577.45,-140 571.45,-140 565.45,-134 565.45,-128 565.45,-128 565.45,-116 565.45,-116 565.45,-110 571.45,-104 577.45,-104 577.45,-104 662.45,-104 662.45,-104 668.45,-104 674.45,-110 674.45,-116 674.45,-116 674.45,-128 674.45,-128 674.45,-134 668.45,-140 662.45,-140"/>
<text xml:space="preserve" text-anchor="middle" x="619.95" y="-116.75" font-family="Arial" font-size="15.00">editor_service</text>
</g>
<!-- /lib/widgets/title_bar.dart&#45;&gt;/lib/providers/app_providers.dart -->
<g id="edge67" class="edge">
<title>/lib/widgets/title_bar.dart&#45;&gt;/lib/providers/app_providers.dart</title>
<path fill="none" stroke="#aabbaa" stroke-width="1.3" stroke-opacity="0.533333" d="M1509.44,-277.42C1505.67,-267.23 1500.83,-254.16 1496.52,-242.53"/>
<polygon fill="#aabbaa" fill-opacity="0.533333" stroke="#aabbaa" stroke-width="1.3" stroke-opacity="0.533333" points="1499.89,-241.55 1493.13,-233.39 1493.32,-243.98 1499.89,-241.55"/>
</g>
<!-- /tool/sort_source.dart -->
<g id="node33" class="node">
<title>/tool/sort_source.dart</title>
<path fill="Lavender" stroke="black" stroke-width="1.3" d="M1544.33,-669C1544.33,-669 1473.58,-669 1473.58,-669 1467.58,-669 1461.58,-663 1461.58,-657 1461.58,-657 1461.58,-645 1461.58,-645 1461.58,-639 1467.58,-633 1473.58,-633 1473.58,-633 1544.33,-633 1544.33,-633 1550.33,-633 1556.33,-639 1556.33,-645 1556.33,-645 1556.33,-657 1556.33,-657 1556.33,-663 1550.33,-669 1544.33,-669"/>
<text xml:space="preserve" text-anchor="middle" x="1508.95" y="-645.75" font-family="Arial" font-size="15.00">sort_source</text>
</g>
</g>
</svg>
