<?xml version="1.0" encoding="UTF-8" standalone="no"?>
<!DOCTYPE svg PUBLIC "-//W3C//DTD SVG 1.1//EN"
 "http://www.w3.org/Graphics/SVG/1.1/DTD/svg11.dtd">
<!-- Generated by graphviz version 13.1.2 (20250808.2320)
 -->
<!-- Pages: 1 -->
<svg width="2959pt" height="747pt"
 viewBox="0.00 0.00 2959.00 747.00" xmlns="http://www.w3.org/2000/svg" xmlns:xlink="http://www.w3.org/1999/xlink">
<g id="graph0" class="graph" transform="scale(1 1) rotate(0) translate(4 743)">
<polygon fill="white" stroke="none" points="-4,4 -4,-743 2955.12,-743 2955.12,4 -4,4"/>
<g id="clust1" class="cluster">
<title>cluster~</title>
<path fill="none" stroke="lightgray" stroke-width="2.6" d="M51.12,-8C51.12,-8 2931.12,-8 2931.12,-8 2937.12,-8 2943.12,-14 2943.12,-20 2943.12,-20 2943.12,-719 2943.12,-719 2943.12,-725 2937.12,-731 2931.12,-731 2931.12,-731 51.12,-731 51.12,-731 45.12,-731 39.12,-725 39.12,-719 39.12,-719 39.12,-20 39.12,-20 39.12,-14 45.12,-8 51.12,-8"/>
<text xml:space="preserve" text-anchor="middle" x="1491.12" y="-714.65" font-family="Arial Black" font-size="13.00">fide</text>
</g>
<g id="clust2" class="cluster">
<title>cluster~/integration_test</title>
<path fill="none" stroke="lightgray" stroke-width="2.6" d="M1121.12,-625C1121.12,-625 1231.12,-625 1231.12,-625 1237.12,-625 1243.12,-631 1243.12,-637 1243.12,-637 1243.12,-688 1243.12,-688 1243.12,-694 1237.12,-700 1231.12,-700 1231.12,-700 1121.12,-700 1121.12,-700 1115.12,-700 1109.12,-694 1109.12,-688 1109.12,-688 1109.12,-637 1109.12,-637 1109.12,-631 1115.12,-625 1121.12,-625"/>
<text xml:space="preserve" text-anchor="middle" x="1176.12" y="-683.65" font-family="Arial Black" font-size="13.00">integration_test</text>
</g>
<g id="clust3" class="cluster">
<title>cluster~/test</title>
<path fill="none" stroke="lightgray" stroke-width="2.6" d="M2325.12,-625C2325.12,-625 2409.12,-625 2409.12,-625 2415.12,-625 2421.12,-631 2421.12,-637 2421.12,-637 2421.12,-688 2421.12,-688 2421.12,-694 2415.12,-700 2409.12,-700 2409.12,-700 2325.12,-700 2325.12,-700 2319.12,-700 2313.12,-694 2313.12,-688 2313.12,-688 2313.12,-637 2313.12,-637 2313.12,-631 2319.12,-625 2325.12,-625"/>
<text xml:space="preserve" text-anchor="middle" x="2367.12" y="-683.65" font-family="Arial Black" font-size="13.00">test</text>
</g>
<g id="clust4" class="cluster">
<title>cluster~/lib</title>
<path fill="none" stroke="lightgray" stroke-width="2.6" d="M59.12,-16C59.12,-16 2923.12,-16 2923.12,-16 2929.12,-16 2935.12,-22 2935.12,-28 2935.12,-28 2935.12,-605 2935.12,-605 2935.12,-611 2929.12,-617 2923.12,-617 2923.12,-617 59.12,-617 59.12,-617 53.12,-617 47.12,-611 47.12,-605 47.12,-605 47.12,-28 47.12,-28 47.12,-22 53.12,-16 59.12,-16"/>
<text xml:space="preserve" text-anchor="middle" x="1491.12" y="-600.65" font-family="Arial Black" font-size="13.00">lib</text>
</g>
<g id="clust5" class="cluster">
<title>cluster~/lib/providers</title>
<path fill="none" stroke="lightgray" stroke-width="2.6" d="M359.12,-187C359.12,-187 461.12,-187 461.12,-187 467.12,-187 473.12,-193 473.12,-199 473.12,-199 473.12,-250 473.12,-250 473.12,-256 467.12,-262 461.12,-262 461.12,-262 359.12,-262 359.12,-262 353.12,-262 347.12,-256 347.12,-250 347.12,-250 347.12,-199 347.12,-199 347.12,-193 353.12,-187 359.12,-187"/>
<text xml:space="preserve" text-anchor="middle" x="410.12" y="-245.65" font-family="Arial Black" font-size="13.00">providers</text>
</g>
<g id="clust6" class="cluster">
<title>cluster~/lib/panels</title>
<path fill="none" stroke="lightgray" stroke-width="2.6" d="M1043.12,-179C1043.12,-179 2147.12,-179 2147.12,-179 2153.12,-179 2159.12,-185 2159.12,-191 2159.12,-191 2159.12,-530 2159.12,-530 2159.12,-536 2153.12,-542 2147.12,-542 2147.12,-542 1043.12,-542 1043.12,-542 1037.12,-542 1031.12,-536 1031.12,-530 1031.12,-530 1031.12,-191 1031.12,-191 1031.12,-185 1037.12,-179 1043.12,-179"/>
<text xml:space="preserve" text-anchor="middle" x="1595.12" y="-525.65" font-family="Arial Black" font-size="13.00">panels</text>
</g>
<g id="clust7" class="cluster">
<title>cluster~/lib/panels/right</title>
<path fill="none" stroke="lightgray" stroke-width="2.6" d="M1051.12,-353C1051.12,-353 1237.12,-353 1237.12,-353 1243.12,-353 1249.12,-359 1249.12,-365 1249.12,-365 1249.12,-499 1249.12,-499 1249.12,-505 1243.12,-511 1237.12,-511 1237.12,-511 1051.12,-511 1051.12,-511 1045.12,-511 1039.12,-505 1039.12,-499 1039.12,-499 1039.12,-365 1039.12,-365 1039.12,-359 1045.12,-353 1051.12,-353"/>
<text xml:space="preserve" text-anchor="middle" x="1144.12" y="-494.65" font-family="Arial Black" font-size="13.00">right</text>
</g>
<g id="clust8" class="cluster">
<title>cluster~/lib/panels/center</title>
<path fill="none" stroke="lightgray" stroke-width="2.6" d="M1909.12,-187C1909.12,-187 2139.12,-187 2139.12,-187 2145.12,-187 2151.12,-193 2151.12,-199 2151.12,-199 2151.12,-416 2151.12,-416 2151.12,-422 2145.12,-428 2139.12,-428 2139.12,-428 1909.12,-428 1909.12,-428 1903.12,-428 1897.12,-422 1897.12,-416 1897.12,-416 1897.12,-199 1897.12,-199 1897.12,-193 1903.12,-187 1909.12,-187"/>
<text xml:space="preserve" text-anchor="middle" x="2024.12" y="-411.65" font-family="Arial Black" font-size="13.00">center</text>
</g>
<g id="clust9" class="cluster">
<title>cluster~/lib/panels/left</title>
<path fill="none" stroke="lightgray" stroke-width="2.6" d="M1269.12,-270C1269.12,-270 1877.12,-270 1877.12,-270 1883.12,-270 1889.12,-276 1889.12,-282 1889.12,-282 1889.12,-499 1889.12,-499 1889.12,-505 1883.12,-511 1877.12,-511 1877.12,-511 1269.12,-511 1269.12,-511 1263.12,-511 1257.12,-505 1257.12,-499 1257.12,-499 1257.12,-282 1257.12,-282 1257.12,-276 1263.12,-270 1269.12,-270"/>
<text xml:space="preserve" text-anchor="middle" x="1573.12" y="-494.65" font-family="Arial Black" font-size="13.00">left</text>
</g>
<g id="clust10" class="cluster">
<title>cluster~/lib/utils</title>
<path fill="none" stroke="lightgray" stroke-width="2.6" d="M1997.12,-96C1997.12,-96 2327.12,-96 2327.12,-96 2333.12,-96 2339.12,-102 2339.12,-108 2339.12,-108 2339.12,-159 2339.12,-159 2339.12,-165 2333.12,-171 2327.12,-171 2327.12,-171 1997.12,-171 1997.12,-171 1991.12,-171 1985.12,-165 1985.12,-159 1985.12,-159 1985.12,-108 1985.12,-108 1985.12,-102 1991.12,-96 1997.12,-96"/>
<text xml:space="preserve" text-anchor="middle" x="2162.12" y="-154.65" font-family="Arial Black" font-size="13.00">utils</text>
</g>
<g id="clust11" class="cluster">
<title>cluster~/lib/models</title>
<path fill="none" stroke="lightgray" stroke-width="2.6" d="M379.12,-24C379.12,-24 775.12,-24 775.12,-24 781.12,-24 787.12,-30 787.12,-36 787.12,-36 787.12,-159 787.12,-159 787.12,-165 781.12,-171 775.12,-171 775.12,-171 379.12,-171 379.12,-171 373.12,-171 367.12,-165 367.12,-159 367.12,-159 367.12,-36 367.12,-36 367.12,-30 373.12,-24 379.12,-24"/>
<text xml:space="preserve" text-anchor="middle" x="577.12" y="-154.65" font-family="Arial Black" font-size="13.00">models</text>
</g>
<g id="clust12" class="cluster">
<title>cluster~/lib/screens</title>
<path fill="none" stroke="lightgray" stroke-width="2.6" d="M2307.12,-436C2307.12,-436 2675.12,-436 2675.12,-436 2681.12,-436 2687.12,-442 2687.12,-448 2687.12,-448 2687.12,-499 2687.12,-499 2687.12,-505 2681.12,-511 2675.12,-511 2675.12,-511 2307.12,-511 2307.12,-511 2301.12,-511 2295.12,-505 2295.12,-499 2295.12,-499 2295.12,-448 2295.12,-448 2295.12,-442 2301.12,-436 2307.12,-436"/>
<text xml:space="preserve" text-anchor="middle" x="2491.12" y="-494.65" font-family="Arial Black" font-size="13.00">screens</text>
</g>
<g id="clust13" class="cluster">
<title>cluster~/lib/theme</title>
<path fill="none" stroke="lightgray" stroke-width="2.6" d="M2191.12,-436C2191.12,-436 2275.12,-436 2275.12,-436 2281.12,-436 2287.12,-442 2287.12,-448 2287.12,-448 2287.12,-499 2287.12,-499 2287.12,-505 2281.12,-511 2275.12,-511 2275.12,-511 2191.12,-511 2191.12,-511 2185.12,-511 2179.12,-505 2179.12,-499 2179.12,-499 2179.12,-448 2179.12,-448 2179.12,-442 2185.12,-436 2191.12,-436"/>
<text xml:space="preserve" text-anchor="middle" x="2233.12" y="-494.65" font-family="Arial Black" font-size="13.00">theme</text>
</g>
<g id="clust14" class="cluster">
<title>cluster~/lib/services</title>
<path fill="none" stroke="lightgray" stroke-width="2.6" d="M545.12,-187C545.12,-187 919.12,-187 919.12,-187 925.12,-187 931.12,-193 931.12,-199 931.12,-199 931.12,-333 931.12,-333 931.12,-339 925.12,-345 919.12,-345 919.12,-345 545.12,-345 545.12,-345 539.12,-345 533.12,-339 533.12,-333 533.12,-333 533.12,-199 533.12,-199 533.12,-193 539.12,-187 545.12,-187"/>
<text xml:space="preserve" text-anchor="middle" x="732.12" y="-328.65" font-family="Arial Black" font-size="13.00">services</text>
</g>
<g id="clust15" class="cluster">
<title>cluster~/lib/widgets</title>
<path fill="none" stroke="lightgray" stroke-width="2.6" d="M2203.12,-187C2203.12,-187 2803.12,-187 2803.12,-187 2809.12,-187 2815.12,-193 2815.12,-199 2815.12,-199 2815.12,-250 2815.12,-250 2815.12,-256 2809.12,-262 2803.12,-262 2803.12,-262 2203.12,-262 2203.12,-262 2197.12,-262 2191.12,-256 2191.12,-250 2191.12,-250 2191.12,-199 2191.12,-199 2191.12,-193 2197.12,-187 2203.12,-187"/>
<text xml:space="preserve" text-anchor="middle" x="2503.12" y="-245.65" font-family="Arial Black" font-size="13.00">widgets</text>
</g>
<g id="clust16" class="cluster">
<title>cluster~/tool</title>
<path fill="none" stroke="lightgray" stroke-width="2.6" d="M2639.12,-625C2639.12,-625 2725.12,-625 2725.12,-625 2731.12,-625 2737.12,-631 2737.12,-637 2737.12,-637 2737.12,-688 2737.12,-688 2737.12,-694 2731.12,-700 2725.12,-700 2725.12,-700 2639.12,-700 2639.12,-700 2633.12,-700 2627.12,-694 2627.12,-688 2627.12,-688 2627.12,-637 2627.12,-637 2627.12,-631 2633.12,-625 2639.12,-625"/>
<text xml:space="preserve" text-anchor="middle" x="2682.12" y="-683.65" font-family="Arial Black" font-size="13.00">tool</text>
</g>
<!-- /integration_test/integration_test.dart -->
<g id="node1" class="node">
<title>/integration_test/integration_test.dart</title>
<path fill="Lavender" stroke="black" stroke-width="1.3" d="M1223.5,-669C1223.5,-669 1128.75,-669 1128.75,-669 1122.75,-669 1116.75,-663 1116.75,-657 1116.75,-657 1116.75,-645 1116.75,-645 1116.75,-639 1122.75,-633 1128.75,-633 1128.75,-633 1223.5,-633 1223.5,-633 1229.5,-633 1235.5,-639 1235.5,-645 1235.5,-645 1235.5,-657 1235.5,-657 1235.5,-663 1229.5,-669 1223.5,-669"/>
<text xml:space="preserve" text-anchor="middle" x="1176.12" y="-645.75" font-family="Arial" font-size="15.00">integration_test</text>
</g>
<!-- /lib/providers/app_providers.dart -->
<g id="node3" class="node">
<title>/lib/providers/app_providers.dart</title>
<path fill="Lavender" stroke="black" stroke-width="1.3" d="M453.37,-231C453.37,-231 366.87,-231 366.87,-231 360.87,-231 354.87,-225 354.87,-219 354.87,-219 354.87,-207 354.87,-207 354.87,-201 360.87,-195 366.87,-195 366.87,-195 453.37,-195 453.37,-195 459.37,-195 465.37,-201 465.37,-207 465.37,-207 465.37,-219 465.37,-219 465.37,-225 459.37,-231 453.37,-231"/>
<text xml:space="preserve" text-anchor="middle" x="410.12" y="-207.75" font-family="Arial" font-size="15.00">app_providers</text>
</g>
<!-- /integration_test/integration_test.dart&#45;&gt;/lib/providers/app_providers.dart -->
<g id="edge2" class="edge">
<title>/integration_test/integration_test.dart&#45;&gt;/lib/providers/app_providers.dart</title>
<path fill="none" stroke="#aabbaa" stroke-width="1.3" stroke-opacity="0.533333" d="M1116.48,-649.34C886.9,-646.68 72.11,-635.92 53.12,-617 4.63,-568.65 48.12,-531.48 48.12,-463 48.12,-463 48.12,-463 48.12,-378 48.12,-329.95 21.05,-305.78 53.12,-270 90.58,-228.21 250.04,-217.48 342.69,-214.81"/>
<polygon fill="#aabbaa" fill-opacity="0.533333" stroke="#aabbaa" stroke-width="1.3" stroke-opacity="0.533333" points="342.6,-218.31 352.5,-214.55 342.42,-211.31 342.6,-218.31"/>
</g>
<!-- /lib/main.dart -->
<g id="node30" class="node">
<title>/lib/main.dart</title>
<path fill="Lavender" stroke="black" stroke-width="1.3" d="M2382.12,-586C2382.12,-586 2352.12,-586 2352.12,-586 2346.12,-586 2340.12,-580 2340.12,-574 2340.12,-574 2340.12,-562 2340.12,-562 2340.12,-556 2346.12,-550 2352.12,-550 2352.12,-550 2382.12,-550 2382.12,-550 2388.12,-550 2394.12,-556 2394.12,-562 2394.12,-562 2394.12,-574 2394.12,-574 2394.12,-580 2388.12,-586 2382.12,-586"/>
<text xml:space="preserve" text-anchor="middle" x="2367.12" y="-562.75" font-family="Arial" font-size="15.00">main</text>
</g>
<!-- /integration_test/integration_test.dart&#45;&gt;/lib/main.dart -->
<g id="edge1" class="edge">
<title>/integration_test/integration_test.dart&#45;&gt;/lib/main.dart</title>
<path fill="none" stroke="#aabbaa" stroke-width="1.3" stroke-opacity="0.533333" d="M1236,-645.93C1447.11,-631.57 2153.36,-583.54 2327.88,-571.67"/>
<polygon fill="#aabbaa" fill-opacity="0.533333" stroke="#aabbaa" stroke-width="1.3" stroke-opacity="0.533333" points="2328.04,-575.17 2337.78,-571 2327.56,-568.18 2328.04,-575.17"/>
</g>
<!-- /test/widget_test.dart -->
<g id="node2" class="node">
<title>/test/widget_test.dart</title>
<path fill="Lavender" stroke="black" stroke-width="1.3" d="M2401,-669C2401,-669 2333.25,-669 2333.25,-669 2327.25,-669 2321.25,-663 2321.25,-657 2321.25,-657 2321.25,-645 2321.25,-645 2321.25,-639 2327.25,-633 2333.25,-633 2333.25,-633 2401,-633 2401,-633 2407,-633 2413,-639 2413,-645 2413,-645 2413,-657 2413,-657 2413,-663 2407,-669 2401,-669"/>
<text xml:space="preserve" text-anchor="middle" x="2367.12" y="-645.75" font-family="Arial" font-size="15.00">widget_test</text>
</g>
<!-- /test/widget_test.dart&#45;&gt;/lib/main.dart -->
<g id="edge3" class="edge">
<title>/test/widget_test.dart&#45;&gt;/lib/main.dart</title>
<path fill="none" stroke="#aabbaa" stroke-width="1.3" stroke-opacity="0.533333" d="M2367.12,-632.42C2367.12,-622.45 2367.12,-609.7 2367.12,-598.26"/>
<polygon fill="#aabbaa" fill-opacity="0.533333" stroke="#aabbaa" stroke-width="1.3" stroke-opacity="0.533333" points="2370.62,-598.51 2367.12,-588.51 2363.62,-598.51 2370.62,-598.51"/>
</g>
<!-- /lib/utils/file_type_utils.dart -->
<g id="node22" class="node">
<title>/lib/utils/file_type_utils.dart</title>
<path fill="Lavender" stroke="black" stroke-width="1.3" d="M2087.12,-140C2087.12,-140 2005.12,-140 2005.12,-140 1999.12,-140 1993.12,-134 1993.12,-128 1993.12,-128 1993.12,-116 1993.12,-116 1993.12,-110 1999.12,-104 2005.12,-104 2005.12,-104 2087.12,-104 2087.12,-104 2093.12,-104 2099.12,-110 2099.12,-116 2099.12,-116 2099.12,-128 2099.12,-128 2099.12,-134 2093.12,-140 2087.12,-140"/>
<text xml:space="preserve" text-anchor="middle" x="2046.12" y="-116.75" font-family="Arial" font-size="15.00">file_type_utils</text>
</g>
<!-- /lib/providers/app_providers.dart&#45;&gt;/lib/utils/file_type_utils.dart -->
<g id="edge8" class="edge">
<title>/lib/providers/app_providers.dart&#45;&gt;/lib/utils/file_type_utils.dart</title>
<path fill="none" stroke="#aabbaa" stroke-width="1.3" stroke-opacity="0.533333" d="M463.14,-194.36C483.53,-188.36 507.19,-182.33 529.12,-179 586.71,-170.27 732.91,-173 791.12,-171 1246.64,-155.33 1795.02,-133.25 1980.9,-125.67"/>
<polygon fill="#aabbaa" fill-opacity="0.533333" stroke="#aabbaa" stroke-width="1.3" stroke-opacity="0.533333" points="1980.8,-129.18 1990.65,-125.27 1980.51,-122.18 1980.8,-129.18"/>
</g>
<!-- /lib/models/project_node.dart -->
<g id="node24" class="node">
<title>/lib/models/project_node.dart</title>
<path fill="Lavender" stroke="black" stroke-width="1.3" d="M607.25,-140C607.25,-140 529,-140 529,-140 523,-140 517,-134 517,-128 517,-128 517,-116 517,-116 517,-110 523,-104 529,-104 529,-104 607.25,-104 607.25,-104 613.25,-104 619.25,-110 619.25,-116 619.25,-116 619.25,-128 619.25,-128 619.25,-134 613.25,-140 607.25,-140"/>
<text xml:space="preserve" text-anchor="middle" x="568.12" y="-116.75" font-family="Arial" font-size="15.00">project_node</text>
</g>
<!-- /lib/providers/app_providers.dart&#45;&gt;/lib/models/project_node.dart -->
<g id="edge5" class="edge">
<title>/lib/providers/app_providers.dart&#45;&gt;/lib/models/project_node.dart</title>
<path fill="none" stroke="#aabbaa" stroke-width="1.3" stroke-opacity="0.533333" d="M443.65,-194.5C454.76,-189.1 467.31,-183.42 479.12,-179 491.65,-174.32 496.22,-177.08 508.12,-171 519.92,-164.98 531.59,-156.41 541.46,-148.17"/>
<polygon fill="#aabbaa" fill-opacity="0.533333" stroke="#aabbaa" stroke-width="1.3" stroke-opacity="0.533333" points="543.58,-150.97 548.83,-141.77 538.98,-145.69 543.58,-150.97"/>
</g>
<!-- /lib/models/document_state.dart -->
<g id="node25" class="node">
<title>/lib/models/document_state.dart</title>
<path fill="Lavender" stroke="black" stroke-width="1.3" d="M486.75,-140C486.75,-140 387.5,-140 387.5,-140 381.5,-140 375.5,-134 375.5,-128 375.5,-128 375.5,-116 375.5,-116 375.5,-110 381.5,-104 387.5,-104 387.5,-104 486.75,-104 486.75,-104 492.75,-104 498.75,-110 498.75,-116 498.75,-116 498.75,-128 498.75,-128 498.75,-134 492.75,-140 486.75,-140"/>
<text xml:space="preserve" text-anchor="middle" x="437.12" y="-116.75" font-family="Arial" font-size="15.00">document_state</text>
</g>
<!-- /lib/providers/app_providers.dart&#45;&gt;/lib/models/document_state.dart -->
<g id="edge6" class="edge">
<title>/lib/providers/app_providers.dart&#45;&gt;/lib/models/document_state.dart</title>
<path fill="none" stroke="#aabbaa" stroke-width="1.3" stroke-opacity="0.533333" d="M415.46,-194.42C419.16,-182.23 424.16,-165.72 428.43,-151.65"/>
<polygon fill="#aabbaa" fill-opacity="0.533333" stroke="#aabbaa" stroke-width="1.3" stroke-opacity="0.533333" points="431.68,-153.02 431.23,-142.43 424.98,-150.98 431.68,-153.02"/>
</g>
<!-- /lib/models/file_system_item.dart -->
<g id="node26" class="node">
<title>/lib/models/file_system_item.dart</title>
<path fill="Lavender" stroke="black" stroke-width="1.3" d="M491,-68C491,-68 387.25,-68 387.25,-68 381.25,-68 375.25,-62 375.25,-56 375.25,-56 375.25,-44 375.25,-44 375.25,-38 381.25,-32 387.25,-32 387.25,-32 491,-32 491,-32 497,-32 503,-38 503,-44 503,-44 503,-56 503,-56 503,-62 497,-68 491,-68"/>
<text xml:space="preserve" text-anchor="middle" x="439.12" y="-44.75" font-family="Arial" font-size="15.00">file_system_item</text>
</g>
<!-- /lib/providers/app_providers.dart&#45;&gt;/lib/models/file_system_item.dart -->
<g id="edge4" class="edge">
<title>/lib/providers/app_providers.dart&#45;&gt;/lib/models/file_system_item.dart</title>
<path fill="none" stroke="#aabbaa" stroke-width="1.3" stroke-opacity="0.533333" d="M384.73,-194.74C377.31,-188.25 370.12,-180.19 366.12,-171 352.83,-140.43 349.88,-125.1 366.12,-96 370.77,-87.68 377.65,-80.71 385.36,-74.93"/>
<polygon fill="#aabbaa" fill-opacity="0.533333" stroke="#aabbaa" stroke-width="1.3" stroke-opacity="0.533333" points="387.06,-78.01 393.45,-69.56 383.18,-72.18 387.06,-78.01"/>
</g>
<!-- /lib/services/project_service.dart -->
<g id="node32" class="node">
<title>/lib/services/project_service.dart</title>
<path fill="Lavender" stroke="black" stroke-width="1.3" d="M810.37,-314C810.37,-314 717.87,-314 717.87,-314 711.87,-314 705.87,-308 705.87,-302 705.87,-302 705.87,-290 705.87,-290 705.87,-284 711.87,-278 717.87,-278 717.87,-278 810.37,-278 810.37,-278 816.37,-278 822.37,-284 822.37,-290 822.37,-290 822.37,-302 822.37,-302 822.37,-308 816.37,-314 810.37,-314"/>
<text xml:space="preserve" text-anchor="middle" x="764.12" y="-290.75" font-family="Arial" font-size="15.00">project_service</text>
</g>
<!-- /lib/providers/app_providers.dart&#45;&gt;/lib/services/project_service.dart -->
<g id="edge7" class="edge">
<title>/lib/providers/app_providers.dart&#45;&gt;/lib/services/project_service.dart</title>
<path fill="none" stroke="#aabbaa" stroke-width="1.3" stroke-opacity="0.533333" d="M452.47,-231.6C477.03,-242.47 508.64,-255.54 538.12,-262 610.71,-277.9 632.3,-255.23 705.12,-270 709.98,-270.98 714.95,-272.26 719.85,-273.71"/>
<polygon fill="#aabbaa" fill-opacity="0.533333" stroke="#aabbaa" stroke-width="1.3" stroke-opacity="0.533333" points="718.61,-276.99 729.21,-276.75 720.78,-270.33 718.61,-276.99"/>
</g>
<!-- /lib/panels/right/outline_panel.dart -->
<g id="node4" class="node">
<title>/lib/panels/right/outline_panel.dart</title>
<path fill="Lavender" stroke="black" stroke-width="1.3" d="M1229,-397C1229,-397 1149.25,-397 1149.25,-397 1143.25,-397 1137.25,-391 1137.25,-385 1137.25,-385 1137.25,-373 1137.25,-373 1137.25,-367 1143.25,-361 1149.25,-361 1149.25,-361 1229,-361 1229,-361 1235,-361 1241,-367 1241,-373 1241,-373 1241,-385 1241,-385 1241,-391 1235,-397 1229,-397"/>
<text xml:space="preserve" text-anchor="middle" x="1189.12" y="-373.75" font-family="Arial" font-size="15.00">outline_panel</text>
</g>
<!-- /lib/panels/center/editor_screen.dart -->
<g id="node8" class="node">
<title>/lib/panels/center/editor_screen.dart</title>
<path fill="Lavender" stroke="black" stroke-width="1.3" d="M2131.5,-314C2131.5,-314 2048.75,-314 2048.75,-314 2042.75,-314 2036.75,-308 2036.75,-302 2036.75,-302 2036.75,-290 2036.75,-290 2036.75,-284 2042.75,-278 2048.75,-278 2048.75,-278 2131.5,-278 2131.5,-278 2137.5,-278 2143.5,-284 2143.5,-290 2143.5,-290 2143.5,-302 2143.5,-302 2143.5,-308 2137.5,-314 2131.5,-314"/>
<text xml:space="preserve" text-anchor="middle" x="2090.12" y="-290.75" font-family="Arial" font-size="15.00">editor_screen</text>
</g>
<!-- /lib/panels/right/outline_panel.dart&#45;&gt;/lib/panels/center/editor_screen.dart -->
<g id="edge10" class="edge">
<title>/lib/panels/right/outline_panel.dart&#45;&gt;/lib/panels/center/editor_screen.dart</title>
<path fill="none" stroke="#aabbaa" stroke-width="1.3" stroke-opacity="0.533333" d="M1227.72,-360.35C1235.94,-357.33 1244.69,-354.63 1253.12,-353 1295.4,-344.81 1987.45,-359.14 2028.12,-345 2041.85,-340.23 2054.91,-331.09 2065.47,-322.06"/>
<polygon fill="#aabbaa" fill-opacity="0.533333" stroke="#aabbaa" stroke-width="1.3" stroke-opacity="0.533333" points="2067.55,-324.9 2072.6,-315.58 2062.85,-319.71 2067.55,-324.9"/>
</g>
<!-- /lib/panels/right/outline_panel.dart&#45;&gt;/lib/models/file_system_item.dart -->
<g id="edge9" class="edge">
<title>/lib/panels/right/outline_panel.dart&#45;&gt;/lib/models/file_system_item.dart</title>
<path fill="none" stroke="#aabbaa" stroke-width="1.3" stroke-opacity="0.533333" d="M1152.73,-360.47C1144.79,-357.39 1136.31,-354.65 1128.12,-353 1114.98,-350.36 173.22,-353.82 163.12,-345 121.94,-309.05 122.18,-129.82 151.12,-96 177.91,-64.71 287.09,-55.01 363.04,-52.11"/>
<polygon fill="#aabbaa" fill-opacity="0.533333" stroke="#aabbaa" stroke-width="1.3" stroke-opacity="0.533333" points="363.09,-55.61 372.96,-51.76 362.85,-48.61 363.09,-55.61"/>
</g>
<!-- /lib/panels/right/ai_panel.dart -->
<g id="node5" class="node">
<title>/lib/panels/right/ai_panel.dart</title>
<path fill="Lavender" stroke="black" stroke-width="1.3" d="M1106.87,-397C1106.87,-397 1059.37,-397 1059.37,-397 1053.37,-397 1047.37,-391 1047.37,-385 1047.37,-385 1047.37,-373 1047.37,-373 1047.37,-367 1053.37,-361 1059.37,-361 1059.37,-361 1106.87,-361 1106.87,-361 1112.87,-361 1118.87,-367 1118.87,-373 1118.87,-373 1118.87,-385 1118.87,-385 1118.87,-391 1112.87,-397 1106.87,-397"/>
<text xml:space="preserve" text-anchor="middle" x="1083.12" y="-373.75" font-family="Arial" font-size="15.00">ai_panel</text>
</g>
<!-- /lib/panels/right/ai_panel.dart&#45;&gt;/lib/models/file_system_item.dart -->
<g id="edge12" class="edge">
<title>/lib/panels/right/ai_panel.dart&#45;&gt;/lib/models/file_system_item.dart</title>
<path fill="none" stroke="#aabbaa" stroke-width="1.3" stroke-opacity="0.533333" d="M1046.94,-376.81C874.61,-371.12 145.27,-346.92 143.12,-345 102.34,-308.42 102.96,-128.57 131.12,-96 160.48,-62.04 281.47,-53.2 362.78,-51.19"/>
<polygon fill="#aabbaa" fill-opacity="0.533333" stroke="#aabbaa" stroke-width="1.3" stroke-opacity="0.533333" points="362.84,-54.69 372.76,-50.98 362.69,-47.69 362.84,-54.69"/>
</g>
<!-- /lib/services/ai_service.dart -->
<g id="node35" class="node">
<title>/lib/services/ai_service.dart</title>
<path fill="Lavender" stroke="black" stroke-width="1.3" d="M911.5,-314C911.5,-314 852.75,-314 852.75,-314 846.75,-314 840.75,-308 840.75,-302 840.75,-302 840.75,-290 840.75,-290 840.75,-284 846.75,-278 852.75,-278 852.75,-278 911.5,-278 911.5,-278 917.5,-278 923.5,-284 923.5,-290 923.5,-290 923.5,-302 923.5,-302 923.5,-308 917.5,-314 911.5,-314"/>
<text xml:space="preserve" text-anchor="middle" x="882.12" y="-290.75" font-family="Arial" font-size="15.00">ai_service</text>
</g>
<!-- /lib/panels/right/ai_panel.dart&#45;&gt;/lib/services/ai_service.dart -->
<g id="edge11" class="edge">
<title>/lib/panels/right/ai_panel.dart&#45;&gt;/lib/services/ai_service.dart</title>
<path fill="none" stroke="#aabbaa" stroke-width="1.3" stroke-opacity="0.533333" d="M1046.82,-371.64C1021.09,-366.38 986.12,-357.7 957.12,-345 942.6,-338.64 927.67,-329.67 915,-321.2"/>
<polygon fill="#aabbaa" fill-opacity="0.533333" stroke="#aabbaa" stroke-width="1.3" stroke-opacity="0.533333" points="917.21,-318.48 906.99,-315.69 913.24,-324.24 917.21,-318.48"/>
</g>
<!-- /lib/panels/right/right_panel.dart -->
<g id="node6" class="node">
<title>/lib/panels/right/right_panel.dart</title>
<path fill="Lavender" stroke="black" stroke-width="1.3" d="M1172.87,-480C1172.87,-480 1107.37,-480 1107.37,-480 1101.37,-480 1095.37,-474 1095.37,-468 1095.37,-468 1095.37,-456 1095.37,-456 1095.37,-450 1101.37,-444 1107.37,-444 1107.37,-444 1172.87,-444 1172.87,-444 1178.87,-444 1184.87,-450 1184.87,-456 1184.87,-456 1184.87,-468 1184.87,-468 1184.87,-474 1178.87,-480 1172.87,-480"/>
<text xml:space="preserve" text-anchor="middle" x="1140.12" y="-456.75" font-family="Arial" font-size="15.00">right_panel</text>
</g>
<!-- /lib/panels/right/right_panel.dart&#45;&gt;/lib/panels/right/outline_panel.dart -->
<g id="edge13" class="edge">
<title>/lib/panels/right/right_panel.dart&#45;&gt;/lib/panels/right/outline_panel.dart</title>
<path fill="none" stroke="#aabbaa" stroke-width="1.3" stroke-opacity="0.533333" d="M1150.76,-443.42C1157.11,-432.92 1165.33,-419.34 1172.52,-407.44"/>
<polygon fill="#aabbaa" fill-opacity="0.533333" stroke="#aabbaa" stroke-width="1.3" stroke-opacity="0.533333" points="1175.31,-409.59 1177.49,-399.23 1169.32,-405.97 1175.31,-409.59"/>
</g>
<!-- /lib/panels/right/right_panel.dart&#45;&gt;/lib/panels/right/ai_panel.dart -->
<g id="edge14" class="edge">
<title>/lib/panels/right/right_panel.dart&#45;&gt;/lib/panels/right/ai_panel.dart</title>
<path fill="none" stroke="#aabbaa" stroke-width="1.3" stroke-opacity="0.533333" d="M1127.76,-443.42C1120.29,-432.81 1110.61,-419.06 1102.18,-407.08"/>
<polygon fill="#aabbaa" fill-opacity="0.533333" stroke="#aabbaa" stroke-width="1.3" stroke-opacity="0.533333" points="1105.22,-405.31 1096.6,-399.15 1099.49,-409.34 1105.22,-405.31"/>
</g>
<!-- /lib/panels/right/right_panel.dart&#45;&gt;/lib/models/file_system_item.dart -->
<g id="edge15" class="edge">
<title>/lib/panels/right/right_panel.dart&#45;&gt;/lib/models/file_system_item.dart</title>
<path fill="none" stroke="#aabbaa" stroke-width="1.3" stroke-opacity="0.533333" d="M1094.8,-461.26C897.31,-462.17 120.11,-463.5 83.12,-428 -23.4,-325.75 -26.74,-206.56 71.12,-96 90.13,-74.53 260.98,-61.15 363.07,-54.99"/>
<polygon fill="#aabbaa" fill-opacity="0.533333" stroke="#aabbaa" stroke-width="1.3" stroke-opacity="0.533333" points="363.12,-58.5 372.9,-54.41 362.71,-51.51 363.12,-58.5"/>
</g>
<!-- /lib/panels/center/large_file_message.dart -->
<g id="node7" class="node">
<title>/lib/panels/center/large_file_message.dart</title>
<path fill="Lavender" stroke="black" stroke-width="1.3" d="M2058.62,-231C2058.62,-231 1937.62,-231 1937.62,-231 1931.62,-231 1925.62,-225 1925.62,-219 1925.62,-219 1925.62,-207 1925.62,-207 1925.62,-201 1931.62,-195 1937.62,-195 1937.62,-195 2058.62,-195 2058.62,-195 2064.62,-195 2070.62,-201 2070.62,-207 2070.62,-207 2070.62,-219 2070.62,-219 2070.62,-225 2064.62,-231 2058.62,-231"/>
<text xml:space="preserve" text-anchor="middle" x="1998.12" y="-207.75" font-family="Arial" font-size="15.00">large_file_message</text>
</g>
<!-- /lib/panels/center/editor_screen.dart&#45;&gt;/lib/providers/app_providers.dart -->
<g id="edge17" class="edge">
<title>/lib/panels/center/editor_screen.dart&#45;&gt;/lib/providers/app_providers.dart</title>
<path fill="none" stroke="#aabbaa" stroke-width="1.3" stroke-opacity="0.533333" d="M2053.12,-277.45C2045.05,-274.37 2036.44,-271.64 2028.12,-270 1946.41,-253.92 610.84,-278.09 529.12,-262 503.41,-256.94 476.21,-246.39 454.31,-236.47"/>
<polygon fill="#aabbaa" fill-opacity="0.533333" stroke="#aabbaa" stroke-width="1.3" stroke-opacity="0.533333" points="456.02,-233.41 445.48,-232.36 453.06,-239.76 456.02,-233.41"/>
</g>
<!-- /lib/panels/center/editor_screen.dart&#45;&gt;/lib/panels/center/large_file_message.dart -->
<g id="edge16" class="edge">
<title>/lib/panels/center/editor_screen.dart&#45;&gt;/lib/panels/center/large_file_message.dart</title>
<path fill="none" stroke="#aabbaa" stroke-width="1.3" stroke-opacity="0.533333" d="M2070.16,-277.42C2057.5,-266.28 2040.92,-251.68 2026.86,-239.3"/>
<polygon fill="#aabbaa" fill-opacity="0.533333" stroke="#aabbaa" stroke-width="1.3" stroke-opacity="0.533333" points="2029.34,-236.82 2019.52,-232.84 2024.72,-242.08 2029.34,-236.82"/>
</g>
<!-- /lib/utils/message_helper.dart -->
<g id="node20" class="node">
<title>/lib/utils/message_helper.dart</title>
<path fill="Lavender" stroke="black" stroke-width="1.3" d="M2231.25,-140C2231.25,-140 2129,-140 2129,-140 2123,-140 2117,-134 2117,-128 2117,-128 2117,-116 2117,-116 2117,-110 2123,-104 2129,-104 2129,-104 2231.25,-104 2231.25,-104 2237.25,-104 2243.25,-110 2243.25,-116 2243.25,-116 2243.25,-128 2243.25,-128 2243.25,-134 2237.25,-140 2231.25,-140"/>
<text xml:space="preserve" text-anchor="middle" x="2180.12" y="-116.75" font-family="Arial" font-size="15.00">message_helper</text>
</g>
<!-- /lib/panels/center/editor_screen.dart&#45;&gt;/lib/utils/message_helper.dart -->
<g id="edge18" class="edge">
<title>/lib/panels/center/editor_screen.dart&#45;&gt;/lib/utils/message_helper.dart</title>
<path fill="none" stroke="#aabbaa" stroke-width="1.3" stroke-opacity="0.533333" d="M2143.95,-279.76C2152.14,-275.26 2159.66,-269.46 2165.12,-262 2188.56,-229.98 2188.18,-182.17 2184.85,-151.8"/>
<polygon fill="#aabbaa" fill-opacity="0.533333" stroke="#aabbaa" stroke-width="1.3" stroke-opacity="0.533333" points="2188.37,-151.74 2183.61,-142.27 2181.43,-152.64 2188.37,-151.74"/>
</g>
<!-- /lib/panels/center/editor_screen.dart&#45;&gt;/lib/utils/file_type_utils.dart -->
<g id="edge19" class="edge">
<title>/lib/panels/center/editor_screen.dart&#45;&gt;/lib/utils/file_type_utils.dart</title>
<path fill="none" stroke="#aabbaa" stroke-width="1.3" stroke-opacity="0.533333" d="M2091.05,-277.61C2091.75,-254.48 2091.11,-212.62 2080.12,-179 2076.91,-169.16 2071.68,-159.24 2066.28,-150.54"/>
<polygon fill="#aabbaa" fill-opacity="0.533333" stroke="#aabbaa" stroke-width="1.3" stroke-opacity="0.533333" points="2069.25,-148.68 2060.82,-142.26 2063.41,-152.54 2069.25,-148.68"/>
</g>
<!-- /lib/panels/center/editor_screen.dart&#45;&gt;/lib/models/document_state.dart -->
<g id="edge20" class="edge">
<title>/lib/panels/center/editor_screen.dart&#45;&gt;/lib/models/document_state.dart</title>
<path fill="none" stroke="#aabbaa" stroke-width="1.3" stroke-opacity="0.533333" d="M2051.7,-277.36C2044.03,-274.46 2035.93,-271.81 2028.12,-270 1979.94,-258.84 1966.43,-265.86 1917.12,-262 1480.46,-227.81 1372.54,-201.56 935.12,-179 911.43,-177.78 530.74,-178.16 508.12,-171 492.79,-166.15 477.75,-156.83 465.48,-147.69"/>
<polygon fill="#aabbaa" fill-opacity="0.533333" stroke="#aabbaa" stroke-width="1.3" stroke-opacity="0.533333" points="467.87,-145.11 457.84,-141.7 463.55,-150.62 467.87,-145.11"/>
</g>
<!-- /lib/panels/center/terminal_panel.dart -->
<g id="node9" class="node">
<title>/lib/panels/center/terminal_panel.dart</title>
<path fill="Lavender" stroke="black" stroke-width="1.3" d="M2006.87,-314C2006.87,-314 1917.37,-314 1917.37,-314 1911.37,-314 1905.37,-308 1905.37,-302 1905.37,-302 1905.37,-290 1905.37,-290 1905.37,-284 1911.37,-278 1917.37,-278 1917.37,-278 2006.87,-278 2006.87,-278 2012.87,-278 2018.87,-284 2018.87,-290 2018.87,-290 2018.87,-302 2018.87,-302 2018.87,-308 2012.87,-314 2006.87,-314"/>
<text xml:space="preserve" text-anchor="middle" x="1962.12" y="-290.75" font-family="Arial" font-size="15.00">terminal_panel</text>
</g>
<!-- /lib/panels/center/terminal_panel.dart&#45;&gt;/lib/providers/app_providers.dart -->
<g id="edge21" class="edge">
<title>/lib/panels/center/terminal_panel.dart&#45;&gt;/lib/providers/app_providers.dart</title>
<path fill="none" stroke="#aabbaa" stroke-width="1.3" stroke-opacity="0.533333" d="M1920.79,-277.45C1911.83,-274.37 1902.28,-271.64 1893.12,-270 1818.53,-256.68 603.47,-276.66 529.12,-262 503.51,-256.95 476.41,-246.46 454.55,-236.58"/>
<polygon fill="#aabbaa" fill-opacity="0.533333" stroke="#aabbaa" stroke-width="1.3" stroke-opacity="0.533333" points="456.28,-233.52 445.73,-232.48 453.32,-239.87 456.28,-233.52"/>
</g>
<!-- /lib/panels/center/center_panel.dart -->
<g id="node10" class="node">
<title>/lib/panels/center/center_panel.dart</title>
<path fill="Lavender" stroke="black" stroke-width="1.3" d="M2065.25,-397C2065.25,-397 1987,-397 1987,-397 1981,-397 1975,-391 1975,-385 1975,-385 1975,-373 1975,-373 1975,-367 1981,-361 1987,-361 1987,-361 2065.25,-361 2065.25,-361 2071.25,-361 2077.25,-367 2077.25,-373 2077.25,-373 2077.25,-385 2077.25,-385 2077.25,-391 2071.25,-397 2065.25,-397"/>
<text xml:space="preserve" text-anchor="middle" x="2026.12" y="-373.75" font-family="Arial" font-size="15.00">center_panel</text>
</g>
<!-- /lib/panels/center/center_panel.dart&#45;&gt;/lib/providers/app_providers.dart -->
<g id="edge23" class="edge">
<title>/lib/panels/center/center_panel.dart&#45;&gt;/lib/providers/app_providers.dart</title>
<path fill="none" stroke="#aabbaa" stroke-width="1.3" stroke-opacity="0.533333" d="M1974.64,-366.09C1950.1,-360.99 1920.25,-355.61 1893.12,-353 1874.27,-351.19 544.26,-356.4 529.12,-345 501.38,-324.1 528.59,-297.31 507.12,-270 496.38,-256.34 481.32,-245.39 466.26,-236.93"/>
<polygon fill="#aabbaa" fill-opacity="0.533333" stroke="#aabbaa" stroke-width="1.3" stroke-opacity="0.533333" points="468.11,-233.94 457.63,-232.38 464.84,-240.14 468.11,-233.94"/>
</g>
<!-- /lib/panels/center/center_panel.dart&#45;&gt;/lib/panels/center/editor_screen.dart -->
<g id="edge25" class="edge">
<title>/lib/panels/center/center_panel.dart&#45;&gt;/lib/panels/center/editor_screen.dart</title>
<path fill="none" stroke="#aabbaa" stroke-width="1.3" stroke-opacity="0.533333" d="M2040.01,-360.42C2048.48,-349.7 2059.48,-335.79 2069.01,-323.72"/>
<polygon fill="#aabbaa" fill-opacity="0.533333" stroke="#aabbaa" stroke-width="1.3" stroke-opacity="0.533333" points="2071.59,-326.1 2075.04,-316.09 2066.1,-321.76 2071.59,-326.1"/>
</g>
<!-- /lib/panels/center/center_panel.dart&#45;&gt;/lib/panels/center/terminal_panel.dart -->
<g id="edge26" class="edge">
<title>/lib/panels/center/center_panel.dart&#45;&gt;/lib/panels/center/terminal_panel.dart</title>
<path fill="none" stroke="#aabbaa" stroke-width="1.3" stroke-opacity="0.533333" d="M2012.24,-360.42C2003.77,-349.7 1992.77,-335.79 1983.24,-323.72"/>
<polygon fill="#aabbaa" fill-opacity="0.533333" stroke="#aabbaa" stroke-width="1.3" stroke-opacity="0.533333" points="1986.15,-321.76 1977.2,-316.09 1980.66,-326.1 1986.15,-321.76"/>
</g>
<!-- /lib/panels/center/center_panel.dart&#45;&gt;/lib/models/document_state.dart -->
<g id="edge22" class="edge">
<title>/lib/panels/center/center_panel.dart&#45;&gt;/lib/models/document_state.dart</title>
<path fill="none" stroke="#aabbaa" stroke-width="1.3" stroke-opacity="0.533333" d="M1974.64,-366.09C1950.1,-360.98 1920.25,-355.61 1893.12,-353 1854.8,-349.32 542.89,-359.26 507.12,-345 461.85,-326.95 471.54,-290.05 427.12,-270 410.03,-262.28 355.74,-275.87 343.12,-262 318.31,-234.71 324.9,-211.07 343.12,-179 350.9,-165.31 363.5,-154.62 376.97,-146.41"/>
<polygon fill="#aabbaa" fill-opacity="0.533333" stroke="#aabbaa" stroke-width="1.3" stroke-opacity="0.533333" points="378.63,-149.5 385.66,-141.57 375.22,-143.38 378.63,-149.5"/>
</g>
<!-- /lib/panels/center/center_panel.dart&#45;&gt;/lib/models/file_system_item.dart -->
<g id="edge28" class="edge">
<title>/lib/panels/center/center_panel.dart&#45;&gt;/lib/models/file_system_item.dart</title>
<path fill="none" stroke="#aabbaa" stroke-width="1.3" stroke-opacity="0.533333" d="M1974.64,-366.08C1950.1,-360.98 1920.25,-355.6 1893.12,-353 1872.86,-351.06 446.01,-352.6 427.12,-345 382.21,-326.93 389.78,-294.67 348.12,-270 338.09,-264.06 331.37,-270.25 323.12,-262 270.2,-209.01 249.7,-156.3 294.12,-96 310.26,-74.09 336.96,-62.54 363.08,-56.55"/>
<polygon fill="#aabbaa" fill-opacity="0.533333" stroke="#aabbaa" stroke-width="1.3" stroke-opacity="0.533333" points="363.56,-60.02 372.67,-54.62 362.18,-53.16 363.56,-60.02"/>
</g>
<!-- /lib/screens/welcome_screen.dart -->
<g id="node29" class="node">
<title>/lib/screens/welcome_screen.dart</title>
<path fill="Lavender" stroke="black" stroke-width="1.3" d="M2419,-480C2419,-480 2315.25,-480 2315.25,-480 2309.25,-480 2303.25,-474 2303.25,-468 2303.25,-468 2303.25,-456 2303.25,-456 2303.25,-450 2309.25,-444 2315.25,-444 2315.25,-444 2419,-444 2419,-444 2425,-444 2431,-450 2431,-456 2431,-456 2431,-468 2431,-468 2431,-474 2425,-480 2419,-480"/>
<text xml:space="preserve" text-anchor="middle" x="2367.12" y="-456.75" font-family="Arial" font-size="15.00">welcome_screen</text>
</g>
<!-- /lib/panels/center/center_panel.dart&#45;&gt;/lib/screens/welcome_screen.dart -->
<g id="edge24" class="edge">
<title>/lib/panels/center/center_panel.dart&#45;&gt;/lib/screens/welcome_screen.dart</title>
<path fill="none" stroke="#aabbaa" stroke-width="1.3" stroke-opacity="0.533333" d="M2077.82,-389.19C2131.52,-399.14 2217.79,-416.25 2291.12,-436 2295.73,-437.24 2300.46,-438.6 2305.21,-440.01"/>
<polygon fill="#aabbaa" fill-opacity="0.533333" stroke="#aabbaa" stroke-width="1.3" stroke-opacity="0.533333" points="2303.79,-443.24 2314.37,-442.84 2305.85,-436.55 2303.79,-443.24"/>
</g>
<!-- /lib/widgets/resizable_splitter.dart -->
<g id="node37" class="node">
<title>/lib/widgets/resizable_splitter.dart</title>
<path fill="Lavender" stroke="black" stroke-width="1.3" d="M2561,-231C2561,-231 2457.25,-231 2457.25,-231 2451.25,-231 2445.25,-225 2445.25,-219 2445.25,-219 2445.25,-207 2445.25,-207 2445.25,-201 2451.25,-195 2457.25,-195 2457.25,-195 2561,-195 2561,-195 2567,-195 2573,-201 2573,-207 2573,-207 2573,-219 2573,-219 2573,-225 2567,-231 2561,-231"/>
<text xml:space="preserve" text-anchor="middle" x="2509.12" y="-207.75" font-family="Arial" font-size="15.00">resizable_splitter</text>
</g>
<!-- /lib/panels/center/center_panel.dart&#45;&gt;/lib/widgets/resizable_splitter.dart -->
<g id="edge27" class="edge">
<title>/lib/panels/center/center_panel.dart&#45;&gt;/lib/widgets/resizable_splitter.dart</title>
<path fill="none" stroke="#aabbaa" stroke-width="1.3" stroke-opacity="0.533333" d="M2077.55,-378C2192.91,-377.51 2464.56,-373.3 2494.12,-345 2521.16,-319.12 2519.78,-272.87 2515.26,-242.83"/>
<polygon fill="#aabbaa" fill-opacity="0.533333" stroke="#aabbaa" stroke-width="1.3" stroke-opacity="0.533333" points="2518.77,-242.61 2513.61,-233.36 2511.88,-243.81 2518.77,-242.61"/>
</g>
<!-- /lib/panels/left/git_panel.dart -->
<g id="node11" class="node">
<title>/lib/panels/left/git_panel.dart</title>
<path fill="Lavender" stroke="black" stroke-width="1.3" d="M1869.12,-397C1869.12,-397 1817.12,-397 1817.12,-397 1811.12,-397 1805.12,-391 1805.12,-385 1805.12,-385 1805.12,-373 1805.12,-373 1805.12,-367 1811.12,-361 1817.12,-361 1817.12,-361 1869.12,-361 1869.12,-361 1875.12,-361 1881.12,-367 1881.12,-373 1881.12,-373 1881.12,-385 1881.12,-385 1881.12,-391 1875.12,-397 1869.12,-397"/>
<text xml:space="preserve" text-anchor="middle" x="1843.12" y="-373.75" font-family="Arial" font-size="15.00">git_panel</text>
</g>
<!-- /lib/panels/left/git_panel.dart&#45;&gt;/lib/models/file_system_item.dart -->
<g id="edge31" class="edge">
<title>/lib/panels/left/git_panel.dart&#45;&gt;/lib/models/file_system_item.dart</title>
<path fill="none" stroke="#aabbaa" stroke-width="1.3" stroke-opacity="0.533333" d="M1815.44,-360.47C1809.3,-357.39 1802.67,-354.65 1796.12,-353 1721.84,-334.24 491.64,-362.82 417.12,-345 417.12,-345 251.12,-262 251.12,-262 231.73,-230.62 228.28,-124.96 251.12,-96 265.23,-78.12 317.2,-66.56 362.93,-59.63"/>
<polygon fill="#aabbaa" fill-opacity="0.533333" stroke="#aabbaa" stroke-width="1.3" stroke-opacity="0.533333" points="363.36,-63.1 372.75,-58.21 362.35,-56.18 363.36,-63.1"/>
</g>
<!-- /lib/services/git_service.dart -->
<g id="node33" class="node">
<title>/lib/services/git_service.dart</title>
<path fill="Lavender" stroke="black" stroke-width="1.3" d="M910.75,-231C910.75,-231 847.5,-231 847.5,-231 841.5,-231 835.5,-225 835.5,-219 835.5,-219 835.5,-207 835.5,-207 835.5,-201 841.5,-195 847.5,-195 847.5,-195 910.75,-195 910.75,-195 916.75,-195 922.75,-201 922.75,-207 922.75,-207 922.75,-219 922.75,-219 922.75,-225 916.75,-231 910.75,-231"/>
<text xml:space="preserve" text-anchor="middle" x="879.12" y="-207.75" font-family="Arial" font-size="15.00">git_service</text>
</g>
<!-- /lib/panels/left/git_panel.dart&#45;&gt;/lib/services/git_service.dart -->
<g id="edge29" class="edge">
<title>/lib/panels/left/git_panel.dart&#45;&gt;/lib/services/git_service.dart</title>
<path fill="none" stroke="#aabbaa" stroke-width="1.3" stroke-opacity="0.533333" d="M1815.18,-360.37C1809.11,-357.34 1802.57,-354.64 1796.12,-353 1774.89,-347.59 1024.44,-358.44 1007.12,-345 979.87,-323.84 1008.72,-296.9 987.12,-270 973.52,-253.06 953.41,-240.69 934.22,-231.95"/>
<polygon fill="#aabbaa" fill-opacity="0.533333" stroke="#aabbaa" stroke-width="1.3" stroke-opacity="0.533333" points="935.77,-228.81 925.2,-228.11 933.03,-235.25 935.77,-228.81"/>
</g>
<!-- /lib/widgets/diff_viewer.dart -->
<g id="node38" class="node">
<title>/lib/widgets/diff_viewer.dart</title>
<path fill="Lavender" stroke="black" stroke-width="1.3" d="M2415.37,-231C2415.37,-231 2352.87,-231 2352.87,-231 2346.87,-231 2340.87,-225 2340.87,-219 2340.87,-219 2340.87,-207 2340.87,-207 2340.87,-201 2346.87,-195 2352.87,-195 2352.87,-195 2415.37,-195 2415.37,-195 2421.37,-195 2427.37,-201 2427.37,-207 2427.37,-207 2427.37,-219 2427.37,-219 2427.37,-225 2421.37,-231 2415.37,-231"/>
<text xml:space="preserve" text-anchor="middle" x="2384.12" y="-207.75" font-family="Arial" font-size="15.00">diff_viewer</text>
</g>
<!-- /lib/panels/left/git_panel.dart&#45;&gt;/lib/widgets/diff_viewer.dart -->
<g id="edge30" class="edge">
<title>/lib/panels/left/git_panel.dart&#45;&gt;/lib/widgets/diff_viewer.dart</title>
<path fill="none" stroke="#aabbaa" stroke-width="1.3" stroke-opacity="0.533333" d="M1872.97,-360.44C1879.42,-357.4 1886.34,-354.69 1893.12,-353 1928.72,-344.14 2188.52,-357.15 2223.12,-345 2281.61,-324.47 2334.19,-272.38 2362.4,-240.42"/>
<polygon fill="#aabbaa" fill-opacity="0.533333" stroke="#aabbaa" stroke-width="1.3" stroke-opacity="0.533333" points="2364.85,-242.93 2368.73,-233.08 2359.55,-238.36 2364.85,-242.93"/>
</g>
<!-- /lib/widgets/filename_widget.dart -->
<g id="node41" class="node">
<title>/lib/widgets/filename_widget.dart</title>
<path fill="Lavender" stroke="black" stroke-width="1.3" d="M2310.75,-231C2310.75,-231 2211.5,-231 2211.5,-231 2205.5,-231 2199.5,-225 2199.5,-219 2199.5,-219 2199.5,-207 2199.5,-207 2199.5,-201 2205.5,-195 2211.5,-195 2211.5,-195 2310.75,-195 2310.75,-195 2316.75,-195 2322.75,-201 2322.75,-207 2322.75,-207 2322.75,-219 2322.75,-219 2322.75,-225 2316.75,-231 2310.75,-231"/>
<text xml:space="preserve" text-anchor="middle" x="2261.12" y="-207.75" font-family="Arial" font-size="15.00">filename_widget</text>
</g>
<!-- /lib/panels/left/git_panel.dart&#45;&gt;/lib/widgets/filename_widget.dart -->
<g id="edge32" class="edge">
<title>/lib/panels/left/git_panel.dart&#45;&gt;/lib/widgets/filename_widget.dart</title>
<path fill="none" stroke="#aabbaa" stroke-width="1.3" stroke-opacity="0.533333" d="M1872.98,-360.45C1879.42,-357.41 1886.34,-354.69 1893.12,-353 1909.68,-348.86 2185.86,-354.36 2200.12,-345 2204.79,-341.94 2232.48,-279.75 2248.91,-242.17"/>
<polygon fill="#aabbaa" fill-opacity="0.533333" stroke="#aabbaa" stroke-width="1.3" stroke-opacity="0.533333" points="2252.03,-243.76 2252.82,-233.2 2245.62,-240.97 2252.03,-243.76"/>
</g>
<!-- /lib/panels/left/left_panel_controls.dart -->
<g id="node12" class="node">
<title>/lib/panels/left/left_panel_controls.dart</title>
<path fill="Lavender" stroke="black" stroke-width="1.3" d="M1394.75,-480C1394.75,-480 1277.5,-480 1277.5,-480 1271.5,-480 1265.5,-474 1265.5,-468 1265.5,-468 1265.5,-456 1265.5,-456 1265.5,-450 1271.5,-444 1277.5,-444 1277.5,-444 1394.75,-444 1394.75,-444 1400.75,-444 1406.75,-450 1406.75,-456 1406.75,-456 1406.75,-468 1406.75,-468 1406.75,-474 1400.75,-480 1394.75,-480"/>
<text xml:space="preserve" text-anchor="middle" x="1336.12" y="-456.75" font-family="Arial" font-size="15.00">left_panel_controls</text>
</g>
<!-- /lib/panels/left/search_panel.dart -->
<g id="node13" class="node">
<title>/lib/panels/left/search_panel.dart</title>
<path fill="Lavender" stroke="black" stroke-width="1.3" d="M1358.75,-397C1358.75,-397 1277.5,-397 1277.5,-397 1271.5,-397 1265.5,-391 1265.5,-385 1265.5,-385 1265.5,-373 1265.5,-373 1265.5,-367 1271.5,-361 1277.5,-361 1277.5,-361 1358.75,-361 1358.75,-361 1364.75,-361 1370.75,-367 1370.75,-373 1370.75,-373 1370.75,-385 1370.75,-385 1370.75,-391 1364.75,-397 1358.75,-397"/>
<text xml:space="preserve" text-anchor="middle" x="1318.12" y="-373.75" font-family="Arial" font-size="15.00">search_panel</text>
</g>
<!-- /lib/panels/left/search_panel.dart&#45;&gt;/lib/models/project_node.dart -->
<g id="edge33" class="edge">
<title>/lib/panels/left/search_panel.dart&#45;&gt;/lib/models/project_node.dart</title>
<path fill="none" stroke="#aabbaa" stroke-width="1.3" stroke-opacity="0.533333" d="M1279.26,-360.48C1270.8,-357.4 1261.79,-354.65 1253.12,-353 1242.26,-350.93 464.9,-352.86 457.12,-345 433.67,-321.31 438.44,-297.6 457.12,-270 462.49,-262.07 470.78,-269.17 477.12,-262 502.42,-233.43 478.4,-211.05 499.12,-179 499.83,-177.9 519.09,-162.3 537.08,-147.85"/>
<polygon fill="#aabbaa" fill-opacity="0.533333" stroke="#aabbaa" stroke-width="1.3" stroke-opacity="0.533333" points="539.13,-150.69 544.74,-141.7 534.75,-145.23 539.13,-150.69"/>
</g>
<!-- /lib/panels/left/search_panel.dart&#45;&gt;/lib/models/file_system_item.dart -->
<g id="edge34" class="edge">
<title>/lib/panels/left/search_panel.dart&#45;&gt;/lib/models/file_system_item.dart</title>
<path fill="none" stroke="#aabbaa" stroke-width="1.3" stroke-opacity="0.533333" d="M1279.26,-360.46C1270.81,-357.38 1261.8,-354.64 1253.12,-353 1238.52,-350.23 194.32,-354.77 183.12,-345 142.03,-309.15 142.34,-130.02 171.12,-96 195.29,-67.44 292.35,-57 362.72,-53.18"/>
<polygon fill="#aabbaa" fill-opacity="0.533333" stroke="#aabbaa" stroke-width="1.3" stroke-opacity="0.533333" points="362.87,-56.68 372.68,-52.68 362.52,-49.69 362.87,-56.68"/>
</g>
<!-- /lib/panels/left/directory_contents.dart -->
<g id="node14" class="node">
<title>/lib/panels/left/directory_contents.dart</title>
<path fill="Lavender" stroke="black" stroke-width="1.3" d="M1515.62,-397C1515.62,-397 1400.62,-397 1400.62,-397 1394.62,-397 1388.62,-391 1388.62,-385 1388.62,-385 1388.62,-373 1388.62,-373 1388.62,-367 1394.62,-361 1400.62,-361 1400.62,-361 1515.62,-361 1515.62,-361 1521.62,-361 1527.62,-367 1527.62,-373 1527.62,-373 1527.62,-385 1527.62,-385 1527.62,-391 1521.62,-397 1515.62,-397"/>
<text xml:space="preserve" text-anchor="middle" x="1458.12" y="-373.75" font-family="Arial" font-size="15.00">directory_contents</text>
</g>
<!-- /lib/panels/left/directory_contents.dart&#45;&gt;/lib/models/file_system_item.dart -->
<g id="edge38" class="edge">
<title>/lib/panels/left/directory_contents.dart&#45;&gt;/lib/models/file_system_item.dart</title>
<path fill="none" stroke="#aabbaa" stroke-width="1.3" stroke-opacity="0.533333" d="M1411.25,-360.45C1401.12,-357.38 1390.37,-354.64 1380.12,-353 1363.98,-350.42 215.45,-355.74 203.12,-345 162.13,-309.26 162.54,-130.24 191.12,-96 212.74,-70.11 298.25,-59.08 362.87,-54.41"/>
<polygon fill="#aabbaa" fill-opacity="0.533333" stroke="#aabbaa" stroke-width="1.3" stroke-opacity="0.533333" points="362.96,-57.91 372.7,-53.74 362.49,-50.92 362.96,-57.91"/>
</g>
<!-- /lib/panels/left/directory_contents.dart&#45;&gt;/lib/services/git_service.dart -->
<g id="edge37" class="edge">
<title>/lib/panels/left/directory_contents.dart&#45;&gt;/lib/services/git_service.dart</title>
<path fill="none" stroke="#aabbaa" stroke-width="1.3" stroke-opacity="0.533333" d="M1410.82,-360.43C1400.81,-357.4 1390.22,-354.68 1380.12,-353 1358.04,-349.32 995.54,-357.74 977.12,-345 947.6,-324.58 968.31,-298.98 947.12,-270 938.52,-258.23 926.9,-247.46 915.7,-238.58"/>
<polygon fill="#aabbaa" fill-opacity="0.533333" stroke="#aabbaa" stroke-width="1.3" stroke-opacity="0.533333" points="918.12,-236.02 908.03,-232.77 913.89,-241.6 918.12,-236.02"/>
</g>
<!-- /lib/services/file_system_service.dart -->
<g id="node36" class="node">
<title>/lib/services/file_system_service.dart</title>
<path fill="Lavender" stroke="black" stroke-width="1.3" d="M675.37,-314C675.37,-314 552.87,-314 552.87,-314 546.87,-314 540.87,-308 540.87,-302 540.87,-302 540.87,-290 540.87,-290 540.87,-284 546.87,-278 552.87,-278 552.87,-278 675.37,-278 675.37,-278 681.37,-278 687.37,-284 687.37,-290 687.37,-290 687.37,-302 687.37,-302 687.37,-308 681.37,-314 675.37,-314"/>
<text xml:space="preserve" text-anchor="middle" x="614.12" y="-290.75" font-family="Arial" font-size="15.00">file_system_service</text>
</g>
<!-- /lib/panels/left/directory_contents.dart&#45;&gt;/lib/services/file_system_service.dart -->
<g id="edge36" class="edge">
<title>/lib/panels/left/directory_contents.dart&#45;&gt;/lib/services/file_system_service.dart</title>
<path fill="none" stroke="#aabbaa" stroke-width="1.3" stroke-opacity="0.533333" d="M1410.83,-360.36C1400.82,-357.34 1390.23,-354.64 1380.12,-353 1342.67,-346.92 733.72,-355.05 697.12,-345 679.26,-340.09 661.24,-330.38 646.57,-320.96"/>
<polygon fill="#aabbaa" fill-opacity="0.533333" stroke="#aabbaa" stroke-width="1.3" stroke-opacity="0.533333" points="648.89,-318.31 638.63,-315.65 645,-324.12 648.89,-318.31"/>
</g>
<!-- /lib/panels/left/directory_contents.dart&#45;&gt;/lib/widgets/filename_widget.dart -->
<g id="edge35" class="edge">
<title>/lib/panels/left/directory_contents.dart&#45;&gt;/lib/widgets/filename_widget.dart</title>
<path fill="none" stroke="#aabbaa" stroke-width="1.3" stroke-opacity="0.533333" d="M1505.42,-360.37C1515.43,-357.34 1526.02,-354.65 1536.12,-353 1553.1,-350.23 2141.9,-355.99 2155.12,-345 2181.27,-323.28 2150.7,-297.9 2170.12,-270 2171.92,-267.41 2197.46,-251.79 2221.02,-237.71"/>
<polygon fill="#aabbaa" fill-opacity="0.533333" stroke="#aabbaa" stroke-width="1.3" stroke-opacity="0.533333" points="2222.77,-240.73 2229.57,-232.61 2219.19,-234.72 2222.77,-240.73"/>
</g>
<!-- /lib/panels/left/shared_panel_utils.dart -->
<g id="node15" class="node">
<title>/lib/panels/left/shared_panel_utils.dart</title>
<path fill="Lavender" stroke="black" stroke-width="1.3" d="M1782.37,-314C1782.37,-314 1665.87,-314 1665.87,-314 1659.87,-314 1653.87,-308 1653.87,-302 1653.87,-302 1653.87,-290 1653.87,-290 1653.87,-284 1659.87,-278 1665.87,-278 1665.87,-278 1782.37,-278 1782.37,-278 1788.37,-278 1794.37,-284 1794.37,-290 1794.37,-290 1794.37,-302 1794.37,-302 1794.37,-308 1788.37,-314 1782.37,-314"/>
<text xml:space="preserve" text-anchor="middle" x="1724.12" y="-290.75" font-family="Arial" font-size="15.00">shared_panel_utils</text>
</g>
<!-- /lib/panels/left/shared_panel_utils.dart&#45;&gt;/lib/utils/message_helper.dart -->
<g id="edge43" class="edge">
<title>/lib/panels/left/shared_panel_utils.dart&#45;&gt;/lib/utils/message_helper.dart</title>
<path fill="none" stroke="#aabbaa" stroke-width="1.3" stroke-opacity="0.533333" d="M1794.62,-282.7C1824.85,-277.91 1860.63,-272.89 1893.12,-270 1907.63,-268.71 2144.38,-271.83 2155.12,-262 2168.83,-249.46 2161.6,-197.24 2165.12,-179 2166.84,-170.13 2169.19,-160.6 2171.53,-151.96"/>
<polygon fill="#aabbaa" fill-opacity="0.533333" stroke="#aabbaa" stroke-width="1.3" stroke-opacity="0.533333" points="2174.88,-152.97 2174.22,-142.4 2168.14,-151.08 2174.88,-152.97"/>
</g>
<!-- /lib/panels/left/shared_panel_utils.dart&#45;&gt;/lib/models/project_node.dart -->
<g id="edge40" class="edge">
<title>/lib/panels/left/shared_panel_utils.dart&#45;&gt;/lib/models/project_node.dart</title>
<path fill="none" stroke="#aabbaa" stroke-width="1.3" stroke-opacity="0.533333" d="M1676.76,-277.45C1667.99,-274.64 1658.85,-272.01 1650.12,-270 1337.94,-198.16 1254.53,-203.43 935.12,-179 901.1,-176.4 660.17,-182.71 628.12,-171 615.08,-166.23 602.72,-157.4 592.65,-148.6"/>
<polygon fill="#aabbaa" fill-opacity="0.533333" stroke="#aabbaa" stroke-width="1.3" stroke-opacity="0.533333" points="595.23,-146.23 585.52,-141.99 590.47,-151.36 595.23,-146.23"/>
</g>
<!-- /lib/panels/left/shared_panel_utils.dart&#45;&gt;/lib/models/file_system_item.dart -->
<g id="edge41" class="edge">
<title>/lib/panels/left/shared_panel_utils.dart&#45;&gt;/lib/models/file_system_item.dart</title>
<path fill="none" stroke="#aabbaa" stroke-width="1.3" stroke-opacity="0.533333" d="M1795,-282.29C1825.15,-277.46 1860.75,-272.52 1893.12,-270 1905.95,-269 2810.07,-271.13 2819.12,-262 2845.1,-235.8 2842.8,-207.29 2819.12,-179 2684.97,-18.66 2564.13,-116.96 2356.12,-96 1989.84,-59.09 825.6,-52.37 515.58,-51.22"/>
<polygon fill="#aabbaa" fill-opacity="0.533333" stroke="#aabbaa" stroke-width="1.3" stroke-opacity="0.533333" points="515.6,-47.72 505.59,-51.19 515.57,-54.72 515.6,-47.72"/>
</g>
<!-- /lib/panels/left/shared_panel_utils.dart&#45;&gt;/lib/services/git_service.dart -->
<g id="edge42" class="edge">
<title>/lib/panels/left/shared_panel_utils.dart&#45;&gt;/lib/services/git_service.dart</title>
<path fill="none" stroke="#aabbaa" stroke-width="1.3" stroke-opacity="0.533333" d="M1679.3,-277.39C1669.81,-274.36 1659.75,-271.66 1650.12,-270 1592.85,-260.14 1184.93,-267.99 1127.12,-262 1060.29,-255.08 984.62,-239.25 934.63,-227.65"/>
<polygon fill="#aabbaa" fill-opacity="0.533333" stroke="#aabbaa" stroke-width="1.3" stroke-opacity="0.533333" points="935.58,-224.28 925.04,-225.4 933.98,-231.09 935.58,-224.28"/>
</g>
<!-- /lib/panels/left/shared_panel_utils.dart&#45;&gt;/lib/widgets/filename_widget.dart -->
<g id="edge39" class="edge">
<title>/lib/panels/left/shared_panel_utils.dart&#45;&gt;/lib/widgets/filename_widget.dart</title>
<path fill="none" stroke="#aabbaa" stroke-width="1.3" stroke-opacity="0.533333" d="M1794.62,-282.68C1824.85,-277.89 1860.63,-272.87 1893.12,-270 1953.36,-264.68 2106.48,-276.76 2165.12,-262 2185.63,-256.84 2206.81,-246.83 2224.05,-237.27"/>
<polygon fill="#aabbaa" fill-opacity="0.533333" stroke="#aabbaa" stroke-width="1.3" stroke-opacity="0.533333" points="2225.59,-240.43 2232.52,-232.41 2222.1,-234.35 2225.59,-240.43"/>
</g>
<!-- /lib/panels/left/folder_panel.dart -->
<g id="node16" class="node">
<title>/lib/panels/left/folder_panel.dart</title>
<path fill="Lavender" stroke="black" stroke-width="1.3" d="M1631,-397C1631,-397 1557.25,-397 1557.25,-397 1551.25,-397 1545.25,-391 1545.25,-385 1545.25,-385 1545.25,-373 1545.25,-373 1545.25,-367 1551.25,-361 1557.25,-361 1557.25,-361 1631,-361 1631,-361 1637,-361 1643,-367 1643,-373 1643,-373 1643,-385 1643,-385 1643,-391 1637,-397 1631,-397"/>
<text xml:space="preserve" text-anchor="middle" x="1594.12" y="-373.75" font-family="Arial" font-size="15.00">folder_panel</text>
</g>
<!-- /lib/panels/left/folder_panel.dart&#45;&gt;/lib/providers/app_providers.dart -->
<g id="edge49" class="edge">
<title>/lib/panels/left/folder_panel.dart&#45;&gt;/lib/providers/app_providers.dart</title>
<path fill="none" stroke="#aabbaa" stroke-width="1.3" stroke-opacity="0.533333" d="M1560.21,-360.46C1552.79,-357.39 1544.84,-354.65 1537.12,-353 1521.64,-349.7 408.28,-356.24 397.12,-345 370.56,-318.25 383.62,-271.6 396.28,-241.79"/>
<polygon fill="#aabbaa" fill-opacity="0.533333" stroke="#aabbaa" stroke-width="1.3" stroke-opacity="0.533333" points="399.29,-243.61 400.21,-233.06 392.91,-240.73 399.29,-243.61"/>
</g>
<!-- /lib/panels/left/folder_panel.dart&#45;&gt;/lib/panels/left/shared_panel_utils.dart -->
<g id="edge48" class="edge">
<title>/lib/panels/left/folder_panel.dart&#45;&gt;/lib/panels/left/shared_panel_utils.dart</title>
<path fill="none" stroke="#aabbaa" stroke-width="1.3" stroke-opacity="0.533333" d="M1622.33,-360.42C1640.99,-348.8 1665.67,-333.42 1686.06,-320.72"/>
<polygon fill="#aabbaa" fill-opacity="0.533333" stroke="#aabbaa" stroke-width="1.3" stroke-opacity="0.533333" points="1687.66,-323.84 1694.3,-315.58 1683.96,-317.9 1687.66,-323.84"/>
</g>
<!-- /lib/panels/left/folder_panel.dart&#45;&gt;/lib/utils/message_helper.dart -->
<g id="edge47" class="edge">
<title>/lib/panels/left/folder_panel.dart&#45;&gt;/lib/utils/message_helper.dart</title>
<path fill="none" stroke="#aabbaa" stroke-width="1.3" stroke-opacity="0.533333" d="M1628.98,-360.39C1636.44,-357.36 1644.4,-354.66 1652.12,-353 1708.19,-340.98 2111.25,-352.32 2168.12,-345 2307.01,-327.14 2335.31,-288.4 2474.12,-270 2483.63,-268.74 2812.42,-268.86 2819.12,-262 2832.01,-248.81 2832.07,-192.13 2819.12,-179 2808.07,-167.78 2267.17,-175.67 2252.12,-171 2236.61,-166.18 2221.36,-156.88 2208.92,-147.73"/>
<polygon fill="#aabbaa" fill-opacity="0.533333" stroke="#aabbaa" stroke-width="1.3" stroke-opacity="0.533333" points="2211.2,-145.07 2201.15,-141.72 2206.92,-150.61 2211.2,-145.07"/>
</g>
<!-- /lib/panels/left/folder_panel.dart&#45;&gt;/lib/models/project_node.dart -->
<g id="edge44" class="edge">
<title>/lib/panels/left/folder_panel.dart&#45;&gt;/lib/models/project_node.dart</title>
<path fill="none" stroke="#aabbaa" stroke-width="1.3" stroke-opacity="0.533333" d="M1560.21,-360.47C1552.79,-357.39 1544.84,-354.65 1537.12,-353 1522.73,-349.92 487.5,-355.45 477.12,-345 453.64,-321.34 459.6,-298.36 477.12,-270 481.3,-263.24 487.97,-268.05 493.12,-262 518.19,-232.57 500.21,-212.71 519.12,-179 525.13,-168.3 533.42,-157.82 541.48,-148.89"/>
<polygon fill="#aabbaa" fill-opacity="0.533333" stroke="#aabbaa" stroke-width="1.3" stroke-opacity="0.533333" points="544.03,-151.29 548.34,-141.62 538.93,-146.49 544.03,-151.29"/>
</g>
<!-- /lib/panels/left/folder_panel.dart&#45;&gt;/lib/models/file_system_item.dart -->
<g id="edge45" class="edge">
<title>/lib/panels/left/folder_panel.dart&#45;&gt;/lib/models/file_system_item.dart</title>
<path fill="none" stroke="#aabbaa" stroke-width="1.3" stroke-opacity="0.533333" d="M1560.21,-360.46C1552.79,-357.38 1544.84,-354.64 1537.12,-353 1519.27,-349.2 236.89,-356.99 223.12,-345 182.24,-309.39 182.77,-130.49 211.12,-96 230.21,-72.78 304.3,-61.35 362.91,-55.84"/>
<polygon fill="#aabbaa" fill-opacity="0.533333" stroke="#aabbaa" stroke-width="1.3" stroke-opacity="0.533333" points="363.17,-59.33 372.82,-54.96 362.55,-52.36 363.17,-59.33"/>
</g>
<!-- /lib/panels/left/folder_panel.dart&#45;&gt;/lib/services/git_service.dart -->
<g id="edge46" class="edge">
<title>/lib/panels/left/folder_panel.dart&#45;&gt;/lib/services/git_service.dart</title>
<path fill="none" stroke="#aabbaa" stroke-width="1.3" stroke-opacity="0.533333" d="M1559.9,-360.38C1552.56,-357.35 1544.73,-354.65 1537.12,-353 1522.46,-349.81 1009.48,-353.5 997.12,-345 967.55,-324.65 990.04,-297.64 967.12,-270 956.33,-256.99 941.71,-246.02 927.49,-237.33"/>
<polygon fill="#aabbaa" fill-opacity="0.533333" stroke="#aabbaa" stroke-width="1.3" stroke-opacity="0.533333" points="929.37,-234.38 918.97,-232.4 925.87,-240.44 929.37,-234.38"/>
</g>
<!-- /lib/panels/left/file_explorer.dart -->
<g id="node17" class="node">
<title>/lib/panels/left/file_explorer.dart</title>
<path fill="Lavender" stroke="black" stroke-width="1.3" d="M1509.62,-480C1509.62,-480 1436.62,-480 1436.62,-480 1430.62,-480 1424.62,-474 1424.62,-468 1424.62,-468 1424.62,-456 1424.62,-456 1424.62,-450 1430.62,-444 1436.62,-444 1436.62,-444 1509.62,-444 1509.62,-444 1515.62,-444 1521.62,-450 1521.62,-456 1521.62,-456 1521.62,-468 1521.62,-468 1521.62,-474 1515.62,-480 1509.62,-480"/>
<text xml:space="preserve" text-anchor="middle" x="1473.12" y="-456.75" font-family="Arial" font-size="15.00">file_explorer</text>
</g>
<!-- /lib/panels/left/file_explorer.dart&#45;&gt;/lib/panels/left/directory_contents.dart -->
<g id="edge54" class="edge">
<title>/lib/panels/left/file_explorer.dart&#45;&gt;/lib/panels/left/directory_contents.dart</title>
<path fill="none" stroke="#aabbaa" stroke-width="1.3" stroke-opacity="0.533333" d="M1469.87,-443.42C1468.02,-433.45 1465.66,-420.7 1463.54,-409.26"/>
<polygon fill="#aabbaa" fill-opacity="0.533333" stroke="#aabbaa" stroke-width="1.3" stroke-opacity="0.533333" points="1466.99,-408.67 1461.73,-399.48 1460.11,-409.95 1466.99,-408.67"/>
</g>
<!-- /lib/panels/left/file_explorer.dart&#45;&gt;/lib/models/file_system_item.dart -->
<g id="edge53" class="edge">
<title>/lib/panels/left/file_explorer.dart&#45;&gt;/lib/models/file_system_item.dart</title>
<path fill="none" stroke="#aabbaa" stroke-width="1.3" stroke-opacity="0.533333" d="M1439.21,-443.46C1431.79,-440.39 1423.84,-437.65 1416.12,-436 1357.17,-423.41 390.45,-438.69 331.12,-428 224.99,-408.88 171.15,-428.67 103.12,-345 67.96,-301.75 74.09,-115.38 91.12,-96 108.79,-75.9 266.08,-62.2 363.05,-55.58"/>
<polygon fill="#aabbaa" fill-opacity="0.533333" stroke="#aabbaa" stroke-width="1.3" stroke-opacity="0.533333" points="363.15,-59.08 372.9,-54.92 362.68,-52.09 363.15,-59.08"/>
</g>
<!-- /lib/panels/left/file_explorer.dart&#45;&gt;/lib/services/git_service.dart -->
<g id="edge52" class="edge">
<title>/lib/panels/left/file_explorer.dart&#45;&gt;/lib/services/git_service.dart</title>
<path fill="none" stroke="#aabbaa" stroke-width="1.3" stroke-opacity="0.533333" d="M1438.89,-443.42C1431.55,-440.39 1423.72,-437.68 1416.12,-436 1374.78,-426.88 1074.31,-444.04 1035.12,-428 985.37,-407.63 973.18,-392.03 947.12,-345 930.65,-315.27 947.75,-300.19 932.12,-270 926.4,-258.94 917.84,-248.53 909.26,-239.75"/>
<polygon fill="#aabbaa" fill-opacity="0.533333" stroke="#aabbaa" stroke-width="1.3" stroke-opacity="0.533333" points="911.82,-237.35 902.19,-232.92 906.95,-242.39 911.82,-237.35"/>
</g>
<!-- /lib/panels/left/file_explorer.dart&#45;&gt;/lib/services/file_system_service.dart -->
<g id="edge51" class="edge">
<title>/lib/panels/left/file_explorer.dart&#45;&gt;/lib/services/file_system_service.dart</title>
<path fill="none" stroke="#aabbaa" stroke-width="1.3" stroke-opacity="0.533333" d="M1438.9,-443.35C1431.57,-440.33 1423.73,-437.64 1416.12,-436 1394.75,-431.41 645.36,-442.64 629.12,-428 614.51,-414.83 612.76,-360.28 613.18,-325.87"/>
<polygon fill="#aabbaa" fill-opacity="0.533333" stroke="#aabbaa" stroke-width="1.3" stroke-opacity="0.533333" points="616.68,-326.25 613.38,-316.18 609.68,-326.1 616.68,-326.25"/>
</g>
<!-- /lib/panels/left/file_explorer.dart&#45;&gt;/lib/widgets/filename_widget.dart -->
<g id="edge50" class="edge">
<title>/lib/panels/left/file_explorer.dart&#45;&gt;/lib/widgets/filename_widget.dart</title>
<path fill="none" stroke="#aabbaa" stroke-width="1.3" stroke-opacity="0.533333" d="M1521.99,-450.05C1548.01,-444.73 1580.65,-438.89 1610.12,-436 1640.26,-433.05 2127.85,-441.16 2155.12,-428 2225.87,-393.87 2249.96,-293.06 2257.7,-242.95"/>
<polygon fill="#aabbaa" fill-opacity="0.533333" stroke="#aabbaa" stroke-width="1.3" stroke-opacity="0.533333" points="2261.13,-243.71 2259.06,-233.32 2254.2,-242.74 2261.13,-243.71"/>
</g>
<!-- /lib/panels/left/left_panel.dart -->
<g id="node18" class="node">
<title>/lib/panels/left/left_panel.dart</title>
<path fill="Lavender" stroke="black" stroke-width="1.3" d="M1687.37,-480C1687.37,-480 1630.87,-480 1630.87,-480 1624.87,-480 1618.87,-474 1618.87,-468 1618.87,-468 1618.87,-456 1618.87,-456 1618.87,-450 1624.87,-444 1630.87,-444 1630.87,-444 1687.37,-444 1687.37,-444 1693.37,-444 1699.37,-450 1699.37,-456 1699.37,-456 1699.37,-468 1699.37,-468 1699.37,-474 1693.37,-480 1687.37,-480"/>
<text xml:space="preserve" text-anchor="middle" x="1659.12" y="-456.75" font-family="Arial" font-size="15.00">left_panel</text>
</g>
<!-- /lib/panels/left/left_panel.dart&#45;&gt;/lib/panels/left/git_panel.dart -->
<g id="edge58" class="edge">
<title>/lib/panels/left/left_panel.dart&#45;&gt;/lib/panels/left/git_panel.dart</title>
<path fill="none" stroke="#aabbaa" stroke-width="1.3" stroke-opacity="0.533333" d="M1685.75,-443.48C1691.3,-440.52 1697.25,-437.82 1703.12,-436 1742.74,-423.69 1758.61,-445.7 1796.12,-428 1806.66,-423.03 1816.13,-414.63 1823.76,-406.24"/>
<polygon fill="#aabbaa" fill-opacity="0.533333" stroke="#aabbaa" stroke-width="1.3" stroke-opacity="0.533333" points="1826.26,-408.7 1830.01,-398.8 1820.9,-404.2 1826.26,-408.7"/>
</g>
<!-- /lib/panels/left/left_panel.dart&#45;&gt;/lib/panels/left/search_panel.dart -->
<g id="edge55" class="edge">
<title>/lib/panels/left/left_panel.dart&#45;&gt;/lib/panels/left/search_panel.dart</title>
<path fill="none" stroke="#aabbaa" stroke-width="1.3" stroke-opacity="0.533333" d="M1618.43,-451.54C1593.39,-446.1 1560.56,-439.64 1531.12,-436 1497.78,-431.88 1411.62,-439.71 1380.12,-428 1366.84,-423.06 1354.1,-414.2 1343.67,-405.42"/>
<polygon fill="#aabbaa" fill-opacity="0.533333" stroke="#aabbaa" stroke-width="1.3" stroke-opacity="0.533333" points="1346.05,-402.85 1336.25,-398.81 1341.39,-408.08 1346.05,-402.85"/>
</g>
<!-- /lib/panels/left/left_panel.dart&#45;&gt;/lib/panels/left/folder_panel.dart -->
<g id="edge56" class="edge">
<title>/lib/panels/left/left_panel.dart&#45;&gt;/lib/panels/left/folder_panel.dart</title>
<path fill="none" stroke="#aabbaa" stroke-width="1.3" stroke-opacity="0.533333" d="M1645.02,-443.42C1636.42,-432.7 1625.25,-418.79 1615.57,-406.72"/>
<polygon fill="#aabbaa" fill-opacity="0.533333" stroke="#aabbaa" stroke-width="1.3" stroke-opacity="0.533333" points="1618.42,-404.68 1609.43,-399.08 1612.96,-409.07 1618.42,-404.68"/>
</g>
<!-- /lib/panels/left/organized_panel.dart -->
<g id="node19" class="node">
<title>/lib/panels/left/organized_panel.dart</title>
<path fill="Lavender" stroke="black" stroke-width="1.3" d="M1774.87,-397C1774.87,-397 1673.37,-397 1673.37,-397 1667.37,-397 1661.37,-391 1661.37,-385 1661.37,-385 1661.37,-373 1661.37,-373 1661.37,-367 1667.37,-361 1673.37,-361 1673.37,-361 1774.87,-361 1774.87,-361 1780.87,-361 1786.87,-367 1786.87,-373 1786.87,-373 1786.87,-385 1786.87,-385 1786.87,-391 1780.87,-397 1774.87,-397"/>
<text xml:space="preserve" text-anchor="middle" x="1724.12" y="-373.75" font-family="Arial" font-size="15.00">organized_panel</text>
</g>
<!-- /lib/panels/left/left_panel.dart&#45;&gt;/lib/panels/left/organized_panel.dart -->
<g id="edge57" class="edge">
<title>/lib/panels/left/left_panel.dart&#45;&gt;/lib/panels/left/organized_panel.dart</title>
<path fill="none" stroke="#aabbaa" stroke-width="1.3" stroke-opacity="0.533333" d="M1673.23,-443.42C1681.83,-432.7 1693,-418.79 1702.68,-406.72"/>
<polygon fill="#aabbaa" fill-opacity="0.533333" stroke="#aabbaa" stroke-width="1.3" stroke-opacity="0.533333" points="1705.29,-409.07 1708.82,-399.08 1699.83,-404.68 1705.29,-409.07"/>
</g>
<!-- /lib/panels/left/left_panel.dart&#45;&gt;/lib/models/file_system_item.dart -->
<g id="edge59" class="edge">
<title>/lib/panels/left/left_panel.dart&#45;&gt;/lib/models/file_system_item.dart</title>
<path fill="none" stroke="#aabbaa" stroke-width="1.3" stroke-opacity="0.533333" d="M1618.48,-451.05C1593.46,-445.43 1560.64,-438.96 1531.12,-436 1466.78,-429.55 429.82,-443.87 367.12,-428 298.31,-410.59 294.34,-372.6 226.12,-353 214.03,-349.52 122.03,-353.89 113.12,-345 93.54,-325.45 89.8,-116.73 108.12,-96 140.76,-59.08 275.93,-51.35 363.12,-50.32"/>
<polygon fill="#aabbaa" fill-opacity="0.533333" stroke="#aabbaa" stroke-width="1.3" stroke-opacity="0.533333" points="362.88,-53.82 372.85,-50.24 362.82,-46.82 362.88,-53.82"/>
</g>
<!-- /lib/panels/left/organized_panel.dart&#45;&gt;/lib/providers/app_providers.dart -->
<g id="edge64" class="edge">
<title>/lib/panels/left/organized_panel.dart&#45;&gt;/lib/providers/app_providers.dart</title>
<path fill="none" stroke="#aabbaa" stroke-width="1.3" stroke-opacity="0.533333" d="M1680.94,-360.45C1671.59,-357.38 1661.64,-354.64 1652.12,-353 1636.04,-350.23 491.02,-353.56 477.12,-345 441.03,-322.75 423.58,-274.29 415.76,-242.96"/>
<polygon fill="#aabbaa" fill-opacity="0.533333" stroke="#aabbaa" stroke-width="1.3" stroke-opacity="0.533333" points="419.22,-242.37 413.58,-233.4 412.4,-243.93 419.22,-242.37"/>
</g>
<!-- /lib/panels/left/organized_panel.dart&#45;&gt;/lib/panels/left/shared_panel_utils.dart -->
<g id="edge63" class="edge">
<title>/lib/panels/left/organized_panel.dart&#45;&gt;/lib/panels/left/shared_panel_utils.dart</title>
<path fill="none" stroke="#aabbaa" stroke-width="1.3" stroke-opacity="0.533333" d="M1724.12,-360.42C1724.12,-350.45 1724.12,-337.7 1724.12,-326.26"/>
<polygon fill="#aabbaa" fill-opacity="0.533333" stroke="#aabbaa" stroke-width="1.3" stroke-opacity="0.533333" points="1727.62,-326.51 1724.12,-316.51 1720.62,-326.51 1727.62,-326.51"/>
</g>
<!-- /lib/panels/left/organized_panel.dart&#45;&gt;/lib/utils/message_helper.dart -->
<g id="edge62" class="edge">
<title>/lib/panels/left/organized_panel.dart&#45;&gt;/lib/utils/message_helper.dart</title>
<path fill="none" stroke="#aabbaa" stroke-width="1.3" stroke-opacity="0.533333" d="M1767.7,-360.36C1776.94,-357.33 1786.74,-354.64 1796.12,-353 1870.34,-340.03 2399.33,-354.03 2474.12,-345 2635.85,-325.48 2729.82,-389.56 2831.12,-262 2854.07,-233.11 2857.03,-205.26 2831.12,-179 2819.83,-167.55 2267.49,-175.77 2252.12,-171 2236.61,-166.19 2221.36,-156.88 2208.92,-147.73"/>
<polygon fill="#aabbaa" fill-opacity="0.533333" stroke="#aabbaa" stroke-width="1.3" stroke-opacity="0.533333" points="2211.2,-145.07 2201.15,-141.72 2206.92,-150.61 2211.2,-145.07"/>
</g>
<!-- /lib/panels/left/organized_panel.dart&#45;&gt;/lib/models/project_node.dart -->
<g id="edge60" class="edge">
<title>/lib/panels/left/organized_panel.dart&#45;&gt;/lib/models/project_node.dart</title>
<path fill="none" stroke="#aabbaa" stroke-width="1.3" stroke-opacity="0.533333" d="M1680.94,-360.45C1671.59,-357.38 1661.64,-354.64 1652.12,-353 1636.75,-350.35 540.11,-356.07 529.12,-345 503.13,-318.82 518.08,-214.2 529.12,-179 532.34,-168.76 538.16,-158.76 544.34,-150.11"/>
<polygon fill="#aabbaa" fill-opacity="0.533333" stroke="#aabbaa" stroke-width="1.3" stroke-opacity="0.533333" points="547.1,-152.26 550.43,-142.2 541.55,-147.99 547.1,-152.26"/>
</g>
<!-- /lib/panels/left/organized_panel.dart&#45;&gt;/lib/models/file_system_item.dart -->
<g id="edge61" class="edge">
<title>/lib/panels/left/organized_panel.dart&#45;&gt;/lib/models/file_system_item.dart</title>
<path fill="none" stroke="#aabbaa" stroke-width="1.3" stroke-opacity="0.533333" d="M1680.94,-360.44C1671.59,-357.37 1661.64,-354.63 1652.12,-353 1633.49,-349.8 307.93,-353.65 291.12,-345 250.65,-324.17 245.14,-305.31 231.12,-262 219.77,-226.9 207.96,-124.71 231.12,-96 247.7,-75.45 310.62,-63.82 362.95,-57.55"/>
<polygon fill="#aabbaa" fill-opacity="0.533333" stroke="#aabbaa" stroke-width="1.3" stroke-opacity="0.533333" points="363.13,-61.06 372.66,-56.45 362.33,-54.1 363.13,-61.06"/>
</g>
<!-- /lib/panels/left/organized_panel.dart&#45;&gt;/lib/widgets/filename_widget.dart -->
<g id="edge65" class="edge">
<title>/lib/panels/left/organized_panel.dart&#45;&gt;/lib/widgets/filename_widget.dart</title>
<path fill="none" stroke="#aabbaa" stroke-width="1.3" stroke-opacity="0.533333" d="M1767.71,-360.43C1776.95,-357.4 1786.75,-354.68 1796.12,-353 1816.58,-349.32 2153.04,-356.83 2170.12,-345 2199.64,-324.56 2179.73,-299.54 2200.12,-270 2207.88,-258.77 2218.27,-248.17 2228.28,-239.27"/>
<polygon fill="#aabbaa" fill-opacity="0.533333" stroke="#aabbaa" stroke-width="1.3" stroke-opacity="0.533333" points="2230.43,-242.03 2235.78,-232.89 2225.89,-236.71 2230.43,-242.03"/>
</g>
<!-- /lib/widgets/message_widget.dart -->
<g id="node40" class="node">
<title>/lib/widgets/message_widget.dart</title>
<path fill="Lavender" stroke="black" stroke-width="1.3" d="M2707,-231C2707,-231 2603.25,-231 2603.25,-231 2597.25,-231 2591.25,-225 2591.25,-219 2591.25,-219 2591.25,-207 2591.25,-207 2591.25,-201 2597.25,-195 2603.25,-195 2603.25,-195 2707,-195 2707,-195 2713,-195 2719,-201 2719,-207 2719,-207 2719,-219 2719,-219 2719,-225 2713,-231 2707,-231"/>
<text xml:space="preserve" text-anchor="middle" x="2655.12" y="-207.75" font-family="Arial" font-size="15.00">message_widget</text>
</g>
<!-- /lib/utils/message_helper.dart&#45;&gt;/lib/widgets/message_widget.dart -->
<g id="edge66" class="edge">
<title>/lib/utils/message_helper.dart&#45;&gt;/lib/widgets/message_widget.dart</title>
<path fill="none" stroke="#aabbaa" stroke-width="1.3" stroke-opacity="0.533333" d="M2199.61,-140.45C2213.26,-151.49 2232.5,-164.8 2252.12,-171 2287.1,-182.05 2546.37,-170.84 2582.12,-179 2592.47,-181.36 2603.13,-185.25 2613,-189.54"/>
<polygon fill="#aabbaa" fill-opacity="0.533333" stroke="#aabbaa" stroke-width="1.3" stroke-opacity="0.533333" points="2611.42,-192.66 2621.97,-193.67 2614.35,-186.3 2611.42,-192.66"/>
</g>
<!-- /lib/utils/file_utils.dart -->
<g id="node21" class="node">
<title>/lib/utils/file_utils.dart</title>
<path fill="Lavender" stroke="black" stroke-width="1.3" d="M2318.75,-140C2318.75,-140 2273.5,-140 2273.5,-140 2267.5,-140 2261.5,-134 2261.5,-128 2261.5,-128 2261.5,-116 2261.5,-116 2261.5,-110 2267.5,-104 2273.5,-104 2273.5,-104 2318.75,-104 2318.75,-104 2324.75,-104 2330.75,-110 2330.75,-116 2330.75,-116 2330.75,-128 2330.75,-128 2330.75,-134 2324.75,-140 2318.75,-140"/>
<text xml:space="preserve" text-anchor="middle" x="2296.12" y="-116.75" font-family="Arial" font-size="15.00">file_utils</text>
</g>
<!-- /lib/utils/file_type_utils.dart&#45;&gt;/lib/models/file_system_item.dart -->
<g id="edge67" class="edge">
<title>/lib/utils/file_type_utils.dart&#45;&gt;/lib/models/file_system_item.dart</title>
<path fill="none" stroke="#aabbaa" stroke-width="1.3" stroke-opacity="0.533333" d="M1992.66,-118.67C1754.95,-108.32 793.49,-66.44 515.03,-54.31"/>
<polygon fill="#aabbaa" fill-opacity="0.533333" stroke="#aabbaa" stroke-width="1.3" stroke-opacity="0.533333" points="515.57,-50.83 505.43,-53.89 515.27,-57.82 515.57,-50.83"/>
</g>
<!-- /lib/models/file_extension_icon.dart -->
<g id="node23" class="node">
<title>/lib/models/file_extension_icon.dart</title>
<path fill="Lavender" stroke="black" stroke-width="1.3" d="M767.12,-140C767.12,-140 649.12,-140 649.12,-140 643.12,-140 637.12,-134 637.12,-128 637.12,-128 637.12,-116 637.12,-116 637.12,-110 643.12,-104 649.12,-104 649.12,-104 767.12,-104 767.12,-104 773.12,-104 779.12,-110 779.12,-116 779.12,-116 779.12,-128 779.12,-128 779.12,-134 773.12,-140 767.12,-140"/>
<text xml:space="preserve" text-anchor="middle" x="708.12" y="-116.75" font-family="Arial" font-size="15.00">file_extension_icon</text>
</g>
<!-- /lib/models/project_node.dart&#45;&gt;/lib/models/file_system_item.dart -->
<g id="edge68" class="edge">
<title>/lib/models/project_node.dart&#45;&gt;/lib/models/file_system_item.dart</title>
<path fill="none" stroke="#aabbaa" stroke-width="1.3" stroke-opacity="0.533333" d="M535.9,-103.52C519.44,-94.58 499.18,-83.59 481.47,-73.98"/>
<polygon fill="#aabbaa" fill-opacity="0.533333" stroke="#aabbaa" stroke-width="1.3" stroke-opacity="0.533333" points="483.57,-71.13 473.11,-69.44 480.23,-77.29 483.57,-71.13"/>
</g>
<!-- /lib/models/file_system_item.dart&#45;&gt;/lib/utils/file_utils.dart -->
<g id="edge69" class="edge">
<title>/lib/models/file_system_item.dart&#45;&gt;/lib/utils/file_utils.dart</title>
<path fill="none" stroke="#aabbaa" stroke-width="1.3" stroke-opacity="0.533333" d="M503.42,-50.74C806.05,-49.77 2081.19,-48.55 2252.12,-96 2254.51,-96.66 2256.89,-97.48 2259.26,-98.41"/>
<polygon fill="#aabbaa" fill-opacity="0.533333" stroke="#aabbaa" stroke-width="1.3" stroke-opacity="0.533333" points="2257.73,-101.56 2268.27,-102.61 2260.69,-95.21 2257.73,-101.56"/>
</g>
<!-- /lib/screens/main_layout.dart -->
<g id="node27" class="node">
<title>/lib/screens/main_layout.dart</title>
<path fill="Lavender" stroke="black" stroke-width="1.3" d="M2533.25,-480C2533.25,-480 2461,-480 2461,-480 2455,-480 2449,-474 2449,-468 2449,-468 2449,-456 2449,-456 2449,-450 2455,-444 2461,-444 2461,-444 2533.25,-444 2533.25,-444 2539.25,-444 2545.25,-450 2545.25,-456 2545.25,-456 2545.25,-468 2545.25,-468 2545.25,-474 2539.25,-480 2533.25,-480"/>
<text xml:space="preserve" text-anchor="middle" x="2497.12" y="-456.75" font-family="Arial" font-size="15.00">main_layout</text>
</g>
<!-- /lib/screens/main_layout.dart&#45;&gt;/lib/providers/app_providers.dart -->
<g id="edge71" class="edge">
<title>/lib/screens/main_layout.dart&#45;&gt;/lib/providers/app_providers.dart</title>
<path fill="none" stroke="#aabbaa" stroke-width="1.3" stroke-opacity="0.533333" d="M2463.21,-443.45C2455.79,-440.38 2447.84,-437.64 2440.12,-436 2363.77,-419.77 1112.78,-435.89 1035.12,-428 865.59,-410.77 828.45,-372.16 659.12,-353 643.61,-351.24 389.01,-356.2 378.12,-345 351.12,-317.22 372.4,-270.61 390.83,-241.13"/>
<polygon fill="#aabbaa" fill-opacity="0.533333" stroke="#aabbaa" stroke-width="1.3" stroke-opacity="0.533333" points="393.52,-243.4 396.06,-233.12 387.66,-239.57 393.52,-243.4"/>
</g>
<!-- /lib/screens/main_layout.dart&#45;&gt;/lib/panels/right/right_panel.dart -->
<g id="edge79" class="edge">
<title>/lib/screens/main_layout.dart&#45;&gt;/lib/panels/right/right_panel.dart</title>
<path fill="none" stroke="#aabbaa" stroke-width="1.3" stroke-opacity="0.533333" d="M2490.86,-480.27C2481.84,-502.9 2462.69,-539.3 2431.12,-546 2415.24,-549.37 1278.01,-549.37 1262.12,-546 1224.15,-537.94 1188.54,-510.18 1165.71,-488.75"/>
<polygon fill="#aabbaa" fill-opacity="0.533333" stroke="#aabbaa" stroke-width="1.3" stroke-opacity="0.533333" points="1168.34,-486.43 1158.73,-481.98 1163.47,-491.46 1168.34,-486.43"/>
</g>
<!-- /lib/screens/main_layout.dart&#45;&gt;/lib/panels/center/editor_screen.dart -->
<g id="edge70" class="edge">
<title>/lib/screens/main_layout.dart&#45;&gt;/lib/panels/center/editor_screen.dart</title>
<path fill="none" stroke="#aabbaa" stroke-width="1.3" stroke-opacity="0.533333" d="M2460.87,-443.37C2454.09,-440.58 2446.98,-437.96 2440.12,-436 2428.25,-432.6 2393.81,-436.79 2385.12,-428 2361.49,-404.08 2398.16,-377.5 2375.12,-353 2345.82,-321.84 2230.16,-307.38 2155.5,-301.18"/>
<polygon fill="#aabbaa" fill-opacity="0.533333" stroke="#aabbaa" stroke-width="1.3" stroke-opacity="0.533333" points="2156.09,-297.71 2145.84,-300.41 2155.53,-304.69 2156.09,-297.71"/>
</g>
<!-- /lib/screens/main_layout.dart&#45;&gt;/lib/panels/center/center_panel.dart -->
<g id="edge78" class="edge">
<title>/lib/screens/main_layout.dart&#45;&gt;/lib/panels/center/center_panel.dart</title>
<path fill="none" stroke="#aabbaa" stroke-width="1.3" stroke-opacity="0.533333" d="M2461.21,-443.37C2454.34,-440.54 2447.11,-437.92 2440.12,-436 2412.06,-428.3 2403.99,-431.76 2375.12,-428 2275.22,-414.98 2159.39,-398.84 2089.49,-388.99"/>
<polygon fill="#aabbaa" fill-opacity="0.533333" stroke="#aabbaa" stroke-width="1.3" stroke-opacity="0.533333" points="2090.17,-385.55 2079.78,-387.62 2089.19,-392.48 2090.17,-385.55"/>
</g>
<!-- /lib/screens/main_layout.dart&#45;&gt;/lib/panels/left/left_panel.dart -->
<g id="edge77" class="edge">
<title>/lib/screens/main_layout.dart&#45;&gt;/lib/panels/left/left_panel.dart</title>
<path fill="none" stroke="#aabbaa" stroke-width="1.3" stroke-opacity="0.533333" d="M2490.86,-480.27C2481.84,-502.9 2462.69,-539.3 2431.12,-546 2411.59,-550.15 1731.66,-550.15 1712.12,-546 1687.25,-540.72 1673.44,-513.64 1666.21,-491.63"/>
<polygon fill="#aabbaa" fill-opacity="0.533333" stroke="#aabbaa" stroke-width="1.3" stroke-opacity="0.533333" points="1669.65,-490.92 1663.47,-482.31 1662.93,-492.89 1669.65,-490.92"/>
</g>
<!-- /lib/screens/main_layout.dart&#45;&gt;/lib/utils/file_utils.dart -->
<g id="edge75" class="edge">
<title>/lib/screens/main_layout.dart&#45;&gt;/lib/utils/file_utils.dart</title>
<path fill="none" stroke="#aabbaa" stroke-width="1.3" stroke-opacity="0.533333" d="M2531.37,-443.44C2538.7,-440.41 2546.53,-437.69 2554.12,-436 2571.32,-432.17 2858.83,-440.61 2871.12,-428 2909.96,-388.17 2887.78,-214.72 2845.12,-179 2806.96,-147.04 2468.93,-130.07 2343.07,-124.81"/>
<polygon fill="#aabbaa" fill-opacity="0.533333" stroke="#aabbaa" stroke-width="1.3" stroke-opacity="0.533333" points="2343.32,-121.32 2333.19,-124.4 2343.04,-128.31 2343.32,-121.32"/>
</g>
<!-- /lib/screens/main_layout.dart&#45;&gt;/lib/utils/file_type_utils.dart -->
<g id="edge74" class="edge">
<title>/lib/screens/main_layout.dart&#45;&gt;/lib/utils/file_type_utils.dart</title>
<path fill="none" stroke="#aabbaa" stroke-width="1.3" stroke-opacity="0.533333" d="M2534.93,-443.45C2613.03,-406.35 2787.52,-318.68 2819.12,-262 2837.09,-229.78 2845.06,-205.23 2819.12,-179 2805.24,-164.96 2126.78,-177.49 2108.12,-171 2094.4,-166.22 2081.35,-157.09 2070.78,-148.05"/>
<polygon fill="#aabbaa" fill-opacity="0.533333" stroke="#aabbaa" stroke-width="1.3" stroke-opacity="0.533333" points="2073.41,-145.71 2063.65,-141.58 2068.7,-150.89 2073.41,-145.71"/>
</g>
<!-- /lib/screens/main_layout.dart&#45;&gt;/lib/models/document_state.dart -->
<g id="edge73" class="edge">
<title>/lib/screens/main_layout.dart&#45;&gt;/lib/models/document_state.dart</title>
<path fill="none" stroke="#aabbaa" stroke-width="1.3" stroke-opacity="0.533333" d="M2463.22,-443.45C2455.79,-440.37 2447.84,-437.64 2440.12,-436 2391.73,-425.74 708.13,-434.81 659.12,-428 522.95,-409.08 465.7,-434.26 361.12,-345 303.56,-295.86 283.11,-243.24 323.12,-179 332.74,-163.57 347.98,-152.27 364.23,-144.04"/>
<polygon fill="#aabbaa" fill-opacity="0.533333" stroke="#aabbaa" stroke-width="1.3" stroke-opacity="0.533333" points="365.61,-147.26 373.22,-139.89 362.67,-140.9 365.61,-147.26"/>
</g>
<!-- /lib/screens/main_layout.dart&#45;&gt;/lib/models/file_system_item.dart -->
<g id="edge72" class="edge">
<title>/lib/screens/main_layout.dart&#45;&gt;/lib/models/file_system_item.dart</title>
<path fill="none" stroke="#aabbaa" stroke-width="1.3" stroke-opacity="0.533333" d="M2531.36,-443.44C2538.7,-440.4 2546.53,-437.69 2554.12,-436 2572.13,-432 2872.77,-440.73 2886.12,-428 2966.44,-351.45 2945.42,-258.6 2868.12,-179 2777.4,-85.58 2715.8,-115.99 2587.12,-96 2379.51,-63.76 873.41,-53.41 515.36,-51.39"/>
<polygon fill="#aabbaa" fill-opacity="0.533333" stroke="#aabbaa" stroke-width="1.3" stroke-opacity="0.533333" points="515.59,-47.9 505.57,-51.34 515.55,-54.9 515.59,-47.9"/>
</g>
<!-- /lib/screens/main_layout.dart&#45;&gt;/lib/widgets/resizable_splitter.dart -->
<g id="edge76" class="edge">
<title>/lib/screens/main_layout.dart&#45;&gt;/lib/widgets/resizable_splitter.dart</title>
<path fill="none" stroke="#aabbaa" stroke-width="1.3" stroke-opacity="0.533333" d="M2499.92,-443.37C2503.36,-420.69 2509.02,-380.03 2511.12,-345 2513.12,-311.73 2511.72,-303.33 2511.12,-270 2510.97,-261.24 2510.67,-251.72 2510.36,-243.05"/>
<polygon fill="#aabbaa" fill-opacity="0.533333" stroke="#aabbaa" stroke-width="1.3" stroke-opacity="0.533333" points="2513.86,-242.97 2509.97,-233.12 2506.86,-243.25 2513.86,-242.97"/>
</g>
<!-- /lib/screens/loading_screen.dart -->
<g id="node28" class="node">
<title>/lib/screens/loading_screen.dart</title>
<path fill="Lavender" stroke="black" stroke-width="1.3" d="M2667.37,-480C2667.37,-480 2574.87,-480 2574.87,-480 2568.87,-480 2562.87,-474 2562.87,-468 2562.87,-468 2562.87,-456 2562.87,-456 2562.87,-450 2568.87,-444 2574.87,-444 2574.87,-444 2667.37,-444 2667.37,-444 2673.37,-444 2679.37,-450 2679.37,-456 2679.37,-456 2679.37,-468 2679.37,-468 2679.37,-474 2673.37,-480 2667.37,-480"/>
<text xml:space="preserve" text-anchor="middle" x="2621.12" y="-456.75" font-family="Arial" font-size="15.00">loading_screen</text>
</g>
<!-- /lib/main.dart&#45;&gt;/lib/providers/app_providers.dart -->
<g id="edge80" class="edge">
<title>/lib/main.dart&#45;&gt;/lib/providers/app_providers.dart</title>
<path fill="none" stroke="#aabbaa" stroke-width="1.3" stroke-opacity="0.533333" d="M2339.74,-566.89C2161.44,-566.09 1168.46,-560.81 1035.12,-542 726.09,-498.41 543.45,-598.29 361.12,-345 341.65,-317.95 349.4,-301.2 361.12,-270 365.27,-258.96 372.69,-248.67 380.52,-240.01"/>
<polygon fill="#aabbaa" fill-opacity="0.533333" stroke="#aabbaa" stroke-width="1.3" stroke-opacity="0.533333" points="382.87,-242.61 387.34,-233 377.86,-237.73 382.87,-242.61"/>
</g>
<!-- /lib/main.dart&#45;&gt;/lib/panels/center/editor_screen.dart -->
<g id="edge83" class="edge">
<title>/lib/main.dart&#45;&gt;/lib/panels/center/editor_screen.dart</title>
<path fill="none" stroke="#aabbaa" stroke-width="1.3" stroke-opacity="0.533333" d="M2394.65,-566.96C2469.28,-566.58 2671.17,-563.55 2691.12,-542 2723.13,-507.43 2719.75,-473.42 2691.12,-436 2605.51,-324.07 2524.47,-373.95 2385.12,-353 2358.96,-349.07 2171.82,-354.49 2147.12,-345 2134.68,-340.22 2123.01,-331.51 2113.52,-322.81"/>
<polygon fill="#aabbaa" fill-opacity="0.533333" stroke="#aabbaa" stroke-width="1.3" stroke-opacity="0.533333" points="2116.13,-320.46 2106.54,-315.97 2111.23,-325.47 2116.13,-320.46"/>
</g>
<!-- /lib/main.dart&#45;&gt;/lib/screens/main_layout.dart -->
<g id="edge81" class="edge">
<title>/lib/main.dart&#45;&gt;/lib/screens/main_layout.dart</title>
<path fill="none" stroke="#aabbaa" stroke-width="1.3" stroke-opacity="0.533333" d="M2394.69,-561.8C2409.23,-558.07 2426.78,-551.89 2440.12,-542 2458.18,-528.62 2472.85,-507.84 2482.78,-490.95"/>
<polygon fill="#aabbaa" fill-opacity="0.533333" stroke="#aabbaa" stroke-width="1.3" stroke-opacity="0.533333" points="2485.82,-492.69 2487.65,-482.25 2479.72,-489.27 2485.82,-492.69"/>
</g>
<!-- /lib/main.dart&#45;&gt;/lib/screens/loading_screen.dart -->
<g id="edge84" class="edge">
<title>/lib/main.dart&#45;&gt;/lib/screens/loading_screen.dart</title>
<path fill="none" stroke="#aabbaa" stroke-width="1.3" stroke-opacity="0.533333" d="M2394.7,-565.73C2439.86,-563.26 2527.25,-556.69 2554.12,-542 2575.89,-530.1 2593.65,-508.09 2605.4,-490.32"/>
<polygon fill="#aabbaa" fill-opacity="0.533333" stroke="#aabbaa" stroke-width="1.3" stroke-opacity="0.533333" points="2608.2,-492.45 2610.57,-482.12 2602.28,-488.72 2608.2,-492.45"/>
</g>
<!-- /lib/main.dart&#45;&gt;/lib/screens/welcome_screen.dart -->
<g id="edge85" class="edge">
<title>/lib/main.dart&#45;&gt;/lib/screens/welcome_screen.dart</title>
<path fill="none" stroke="#aabbaa" stroke-width="1.3" stroke-opacity="0.533333" d="M2367.12,-549.36C2367.12,-533.73 2367.12,-510.59 2367.12,-492.2"/>
<polygon fill="#aabbaa" fill-opacity="0.533333" stroke="#aabbaa" stroke-width="1.3" stroke-opacity="0.533333" points="2370.62,-492.35 2367.12,-482.35 2363.62,-492.35 2370.62,-492.35"/>
</g>
<!-- /lib/theme/app_theme.dart -->
<g id="node31" class="node">
<title>/lib/theme/app_theme.dart</title>
<path fill="Lavender" stroke="black" stroke-width="1.3" d="M2266.62,-480C2266.62,-480 2199.62,-480 2199.62,-480 2193.62,-480 2187.62,-474 2187.62,-468 2187.62,-468 2187.62,-456 2187.62,-456 2187.62,-450 2193.62,-444 2199.62,-444 2199.62,-444 2266.62,-444 2266.62,-444 2272.62,-444 2278.62,-450 2278.62,-456 2278.62,-456 2278.62,-468 2278.62,-468 2278.62,-474 2272.62,-480 2266.62,-480"/>
<text xml:space="preserve" text-anchor="middle" x="2233.12" y="-456.75" font-family="Arial" font-size="15.00">app_theme</text>
</g>
<!-- /lib/main.dart&#45;&gt;/lib/theme/app_theme.dart -->
<g id="edge87" class="edge">
<title>/lib/main.dart&#45;&gt;/lib/theme/app_theme.dart</title>
<path fill="none" stroke="#aabbaa" stroke-width="1.3" stroke-opacity="0.533333" d="M2339.56,-562.24C2324.22,-558.59 2305.4,-552.36 2291.12,-542 2272.65,-528.6 2257.61,-507.54 2247.48,-490.54"/>
<polygon fill="#aabbaa" fill-opacity="0.533333" stroke="#aabbaa" stroke-width="1.3" stroke-opacity="0.533333" points="2250.77,-489.26 2242.79,-482.3 2244.69,-492.72 2250.77,-489.26"/>
</g>
<!-- /lib/main.dart&#45;&gt;/lib/services/git_service.dart -->
<g id="edge86" class="edge">
<title>/lib/main.dart&#45;&gt;/lib/services/git_service.dart</title>
<path fill="none" stroke="#aabbaa" stroke-width="1.3" stroke-opacity="0.533333" d="M2339.49,-567.43C2291.89,-567.54 2197.37,-564.79 2175.12,-542 2116.12,-481.56 2217.67,-409.78 2155.12,-353 2145.85,-344.58 1265.51,-346.87 1253.12,-345 1138,-327.65 1116.2,-293.28 1002.12,-270 971.01,-263.65 960,-275.2 931.12,-262 920.01,-256.92 909.69,-248.54 901.21,-240.2"/>
<polygon fill="#aabbaa" fill-opacity="0.533333" stroke="#aabbaa" stroke-width="1.3" stroke-opacity="0.533333" points="903.87,-237.92 894.45,-233.08 898.8,-242.74 903.87,-237.92"/>
</g>
<!-- /lib/widgets/title_bar.dart -->
<g id="node39" class="node">
<title>/lib/widgets/title_bar.dart</title>
<path fill="Lavender" stroke="black" stroke-width="1.3" d="M2794.75,-231C2794.75,-231 2749.5,-231 2749.5,-231 2743.5,-231 2737.5,-225 2737.5,-219 2737.5,-219 2737.5,-207 2737.5,-207 2737.5,-201 2743.5,-195 2749.5,-195 2749.5,-195 2794.75,-195 2794.75,-195 2800.75,-195 2806.75,-201 2806.75,-207 2806.75,-207 2806.75,-219 2806.75,-219 2806.75,-225 2800.75,-231 2794.75,-231"/>
<text xml:space="preserve" text-anchor="middle" x="2772.12" y="-207.75" font-family="Arial" font-size="15.00">title_bar</text>
</g>
<!-- /lib/main.dart&#45;&gt;/lib/widgets/title_bar.dart -->
<g id="edge82" class="edge">
<title>/lib/main.dart&#45;&gt;/lib/widgets/title_bar.dart</title>
<path fill="none" stroke="#aabbaa" stroke-width="1.3" stroke-opacity="0.533333" d="M2394.68,-566.86C2471.5,-566.2 2683.93,-562.52 2707.12,-542 2794.15,-465.01 2784.83,-307.9 2776.62,-243.02"/>
<polygon fill="#aabbaa" fill-opacity="0.533333" stroke="#aabbaa" stroke-width="1.3" stroke-opacity="0.533333" points="2780.11,-242.71 2775.29,-233.28 2773.17,-243.66 2780.11,-242.71"/>
</g>
<!-- /lib/services/project_service.dart&#45;&gt;/lib/providers/app_providers.dart -->
<g id="edge92" class="edge">
<title>/lib/services/project_service.dart&#45;&gt;/lib/providers/app_providers.dart</title>
<path fill="none" stroke="#aabbaa" stroke-width="1.3" stroke-opacity="0.533333" d="M713.45,-277.36C704.75,-274.41 695.75,-271.75 687.12,-270 614.3,-255.23 592.71,-277.9 520.12,-262 495.04,-256.51 468.41,-246.23 447.55,-236.58"/>
<polygon fill="#aabbaa" fill-opacity="0.533333" stroke="#aabbaa" stroke-width="1.3" stroke-opacity="0.533333" points="449.2,-233.5 438.67,-232.33 446.17,-239.81 449.2,-233.5"/>
</g>
<!-- /lib/services/project_service.dart&#45;&gt;/lib/models/project_node.dart -->
<g id="edge88" class="edge">
<title>/lib/services/project_service.dart&#45;&gt;/lib/models/project_node.dart</title>
<path fill="none" stroke="#aabbaa" stroke-width="1.3" stroke-opacity="0.533333" d="M720.67,-277.44C712.6,-274.63 704.18,-272 696.12,-270 670.44,-263.62 658.62,-277.43 637.12,-262 600.44,-235.68 582.22,-184.25 574,-151.87"/>
<polygon fill="#aabbaa" fill-opacity="0.533333" stroke="#aabbaa" stroke-width="1.3" stroke-opacity="0.533333" points="577.47,-151.33 571.78,-142.39 570.66,-152.93 577.47,-151.33"/>
</g>
<!-- /lib/services/project_service.dart&#45;&gt;/lib/models/file_system_item.dart -->
<g id="edge89" class="edge">
<title>/lib/services/project_service.dart&#45;&gt;/lib/models/file_system_item.dart</title>
<path fill="none" stroke="#aabbaa" stroke-width="1.3" stroke-opacity="0.533333" d="M723.02,-277.44C714.29,-274.4 705.02,-271.69 696.12,-270 676.85,-266.34 356.84,-276.03 343.12,-262 317.31,-235.59 330.36,-126.54 351.12,-96 357.01,-87.34 365.09,-80.25 373.99,-74.48"/>
<polygon fill="#aabbaa" fill-opacity="0.533333" stroke="#aabbaa" stroke-width="1.3" stroke-opacity="0.533333" points="375.7,-77.53 382.6,-69.49 372.2,-71.47 375.7,-77.53"/>
</g>
<!-- /lib/services/project_service.dart&#45;&gt;/lib/services/git_service.dart -->
<g id="edge90" class="edge">
<title>/lib/services/project_service.dart&#45;&gt;/lib/services/git_service.dart</title>
<path fill="none" stroke="#aabbaa" stroke-width="1.3" stroke-opacity="0.533333" d="M789.08,-277.42C805.35,-265.96 826.82,-250.84 844.7,-238.24"/>
<polygon fill="#aabbaa" fill-opacity="0.533333" stroke="#aabbaa" stroke-width="1.3" stroke-opacity="0.533333" points="846.45,-241.29 852.61,-232.67 842.42,-235.57 846.45,-241.29"/>
</g>
<!-- /lib/services/file_system_watcher.dart -->
<g id="node34" class="node">
<title>/lib/services/file_system_watcher.dart</title>
<path fill="Lavender" stroke="black" stroke-width="1.3" d="M786,-231C786,-231 658.25,-231 658.25,-231 652.25,-231 646.25,-225 646.25,-219 646.25,-219 646.25,-207 646.25,-207 646.25,-201 652.25,-195 658.25,-195 658.25,-195 786,-195 786,-195 792,-195 798,-201 798,-207 798,-207 798,-219 798,-219 798,-225 792,-231 786,-231"/>
<text xml:space="preserve" text-anchor="middle" x="722.12" y="-207.75" font-family="Arial" font-size="15.00">file_system_watcher</text>
</g>
<!-- /lib/services/project_service.dart&#45;&gt;/lib/services/file_system_watcher.dart -->
<g id="edge91" class="edge">
<title>/lib/services/project_service.dart&#45;&gt;/lib/services/file_system_watcher.dart</title>
<path fill="none" stroke="#aabbaa" stroke-width="1.3" stroke-opacity="0.533333" d="M755.01,-277.42C749.67,-267.13 742.81,-253.89 736.73,-242.17"/>
<polygon fill="#aabbaa" fill-opacity="0.533333" stroke="#aabbaa" stroke-width="1.3" stroke-opacity="0.533333" points="739.84,-240.55 732.13,-233.29 733.62,-243.78 739.84,-240.55"/>
</g>
<!-- /lib/services/git_service.dart&#45;&gt;/lib/utils/file_utils.dart -->
<g id="edge93" class="edge">
<title>/lib/services/git_service.dart&#45;&gt;/lib/utils/file_utils.dart</title>
<path fill="none" stroke="#aabbaa" stroke-width="1.3" stroke-opacity="0.533333" d="M923.1,-210.41C1064.11,-205.34 1517.66,-189.29 1893.12,-179 1913.07,-178.45 2233.95,-179.24 2252.12,-171 2262.3,-166.39 2271.17,-158.19 2278.24,-149.85"/>
<polygon fill="#aabbaa" fill-opacity="0.533333" stroke="#aabbaa" stroke-width="1.3" stroke-opacity="0.533333" points="2280.86,-152.18 2284.21,-142.13 2275.32,-147.9 2280.86,-152.18"/>
</g>
<!-- /lib/services/file_system_watcher.dart&#45;&gt;/lib/models/project_node.dart -->
<g id="edge94" class="edge">
<title>/lib/services/file_system_watcher.dart&#45;&gt;/lib/models/project_node.dart</title>
<path fill="none" stroke="#aabbaa" stroke-width="1.3" stroke-opacity="0.533333" d="M675.5,-194.53C659.99,-187.97 642.91,-179.92 628.12,-171 617.25,-164.43 606.16,-156.11 596.52,-148.24"/>
<polygon fill="#aabbaa" fill-opacity="0.533333" stroke="#aabbaa" stroke-width="1.3" stroke-opacity="0.533333" points="598.84,-145.63 588.93,-141.88 594.34,-150.99 598.84,-145.63"/>
</g>
<!-- /lib/services/file_system_service.dart&#45;&gt;/lib/models/file_system_item.dart -->
<g id="edge95" class="edge">
<title>/lib/services/file_system_service.dart&#45;&gt;/lib/models/file_system_item.dart</title>
<path fill="none" stroke="#aabbaa" stroke-width="1.3" stroke-opacity="0.533333" d="M540.51,-284.3C506.11,-279.52 464.57,-274.06 427.12,-270 416.48,-268.85 338.37,-269.88 331.12,-262 281.17,-207.71 290.2,-157.39 331.12,-96 339.17,-83.93 351.13,-75.09 364.2,-68.62"/>
<polygon fill="#aabbaa" fill-opacity="0.533333" stroke="#aabbaa" stroke-width="1.3" stroke-opacity="0.533333" points="365.32,-71.96 373.06,-64.72 362.49,-65.55 365.32,-71.96"/>
</g>
<!-- /lib/widgets/title_bar.dart&#45;&gt;/lib/providers/app_providers.dart -->
<g id="edge96" class="edge">
<title>/lib/widgets/title_bar.dart&#45;&gt;/lib/providers/app_providers.dart</title>
<path fill="none" stroke="#aabbaa" stroke-width="1.3" stroke-opacity="0.533333" d="M2761.66,-231.48C2752.53,-245.14 2737.84,-262.03 2719.12,-266 2704.31,-269.14 552.98,-268.95 538.12,-266 509.38,-260.28 479,-248 455.06,-236.7"/>
<polygon fill="#aabbaa" fill-opacity="0.533333" stroke="#aabbaa" stroke-width="1.3" stroke-opacity="0.533333" points="456.84,-233.67 446.31,-232.46 453.78,-239.97 456.84,-233.67"/>
</g>
<!-- /lib/widgets/filename_widget.dart&#45;&gt;/lib/utils/file_type_utils.dart -->
<g id="edge99" class="edge">
<title>/lib/widgets/filename_widget.dart&#45;&gt;/lib/utils/file_type_utils.dart</title>
<path fill="none" stroke="#aabbaa" stroke-width="1.3" stroke-opacity="0.533333" d="M2209.48,-194.41C2192.32,-188.97 2173.02,-183.29 2155.12,-179 2134.52,-174.06 2127.53,-179.52 2108.12,-171 2095.43,-165.43 2083.03,-156.69 2072.69,-148.2"/>
<polygon fill="#aabbaa" fill-opacity="0.533333" stroke="#aabbaa" stroke-width="1.3" stroke-opacity="0.533333" points="2075.18,-145.72 2065.32,-141.84 2070.61,-151.02 2075.18,-145.72"/>
</g>
<!-- /lib/widgets/filename_widget.dart&#45;&gt;/lib/models/file_extension_icon.dart -->
<g id="edge97" class="edge">
<title>/lib/widgets/filename_widget.dart&#45;&gt;/lib/models/file_extension_icon.dart</title>
<path fill="none" stroke="#aabbaa" stroke-width="1.3" stroke-opacity="0.533333" d="M2214.02,-194.42C2195.87,-188.42 2174.78,-182.38 2155.12,-179 2138.21,-176.09 1096.46,-137.37 791.27,-126.07"/>
<polygon fill="#aabbaa" fill-opacity="0.533333" stroke="#aabbaa" stroke-width="1.3" stroke-opacity="0.533333" points="791.52,-122.58 781.4,-125.71 791.27,-129.57 791.52,-122.58"/>
</g>
<!-- /lib/widgets/filename_widget.dart&#45;&gt;/lib/models/file_system_item.dart -->
<g id="edge98" class="edge">
<title>/lib/widgets/filename_widget.dart&#45;&gt;/lib/models/file_system_item.dart</title>
<path fill="none" stroke="#aabbaa" stroke-width="1.3" stroke-opacity="0.533333" d="M2300.58,-194.53C2320.27,-185.42 2340.47,-175.3 2343.12,-171 2360.65,-142.64 2366.41,-119.85 2343.12,-96 2310.65,-62.75 865.88,-53.19 515.21,-51.36"/>
<polygon fill="#aabbaa" fill-opacity="0.533333" stroke="#aabbaa" stroke-width="1.3" stroke-opacity="0.533333" points="515.43,-47.86 505.41,-51.31 515.39,-54.86 515.43,-47.86"/>
</g>
<!-- /tool/sort_source.dart -->
<g id="node42" class="node">
<title>/tool/sort_source.dart</title>
<path fill="Lavender" stroke="black" stroke-width="1.3" d="M2717.5,-669C2717.5,-669 2646.75,-669 2646.75,-669 2640.75,-669 2634.75,-663 2634.75,-657 2634.75,-657 2634.75,-645 2634.75,-645 2634.75,-639 2640.75,-633 2646.75,-633 2646.75,-633 2717.5,-633 2717.5,-633 2723.5,-633 2729.5,-639 2729.5,-645 2729.5,-645 2729.5,-657 2729.5,-657 2729.5,-663 2723.5,-669 2717.5,-669"/>
<text xml:space="preserve" text-anchor="middle" x="2682.12" y="-645.75" font-family="Arial" font-size="15.00">sort_source</text>
</g>
</g>
</svg>
