<?xml version="1.0" encoding="UTF-8" standalone="no"?>
<!DOCTYPE svg PUBLIC "-//W3C//DTD SVG 1.1//EN"
 "http://www.w3.org/Graphics/SVG/1.1/DTD/svg11.dtd">
<!-- Generated by graphviz version 13.1.2 (20250808.2320)
 -->
<!-- Pages: 1 -->
<svg width="2387pt" height="739pt"
 viewBox="0.00 0.00 2387.00 739.00" xmlns="http://www.w3.org/2000/svg" xmlns:xlink="http://www.w3.org/1999/xlink">
<g id="graph0" class="graph" transform="scale(1 1) rotate(0) translate(4 735)">
<polygon fill="white" stroke="none" points="-4,4 -4,-735 2382.54,-735 2382.54,4 -4,4"/>
<g id="clust1" class="cluster">
<title>cluster~</title>
<path fill="none" stroke="lightgray" stroke-width="2.6" d="M47.54,-8C47.54,-8 2358.54,-8 2358.54,-8 2364.54,-8 2370.54,-14 2370.54,-20 2370.54,-20 2370.54,-711 2370.54,-711 2370.54,-717 2364.54,-723 2358.54,-723 2358.54,-723 47.54,-723 47.54,-723 41.54,-723 35.54,-717 35.54,-711 35.54,-711 35.54,-20 35.54,-20 35.54,-14 41.54,-8 47.54,-8"/>
<text xml:space="preserve" text-anchor="middle" x="1203.04" y="-706.65" font-family="Arial Black" font-size="13.00">fide</text>
</g>
<g id="clust2" class="cluster">
<title>cluster~/test</title>
<path fill="none" stroke="lightgray" stroke-width="2.6" d="M1899.54,-617C1899.54,-617 1983.54,-617 1983.54,-617 1989.54,-617 1995.54,-623 1995.54,-629 1995.54,-629 1995.54,-680 1995.54,-680 1995.54,-686 1989.54,-692 1983.54,-692 1983.54,-692 1899.54,-692 1899.54,-692 1893.54,-692 1887.54,-686 1887.54,-680 1887.54,-680 1887.54,-629 1887.54,-629 1887.54,-623 1893.54,-617 1899.54,-617"/>
<text xml:space="preserve" text-anchor="middle" x="1941.54" y="-675.65" font-family="Arial Black" font-size="13.00">test</text>
</g>
<g id="clust3" class="cluster">
<title>cluster~/lib</title>
<path fill="none" stroke="lightgray" stroke-width="2.6" d="M55.54,-16C55.54,-16 2350.54,-16 2350.54,-16 2356.54,-16 2362.54,-22 2362.54,-28 2362.54,-28 2362.54,-597 2362.54,-597 2362.54,-603 2356.54,-609 2350.54,-609 2350.54,-609 55.54,-609 55.54,-609 49.54,-609 43.54,-603 43.54,-597 43.54,-597 43.54,-28 43.54,-28 43.54,-22 49.54,-16 55.54,-16"/>
<text xml:space="preserve" text-anchor="middle" x="1203.04" y="-592.65" font-family="Arial Black" font-size="13.00">lib</text>
</g>
<g id="clust4" class="cluster">
<title>cluster~/lib/providers</title>
<path fill="none" stroke="lightgray" stroke-width="2.6" d="M751.54,-187C751.54,-187 853.54,-187 853.54,-187 859.54,-187 865.54,-193 865.54,-199 865.54,-199 865.54,-250 865.54,-250 865.54,-256 859.54,-262 853.54,-262 853.54,-262 751.54,-262 751.54,-262 745.54,-262 739.54,-256 739.54,-250 739.54,-250 739.54,-199 739.54,-199 739.54,-193 745.54,-187 751.54,-187"/>
<text xml:space="preserve" text-anchor="middle" x="802.54" y="-245.65" font-family="Arial Black" font-size="13.00">providers</text>
</g>
<g id="clust5" class="cluster">
<title>cluster~/lib/panels</title>
<path fill="none" stroke="lightgray" stroke-width="2.6" d="M885.54,-179C885.54,-179 1792.54,-179 1792.54,-179 1798.54,-179 1804.54,-185 1804.54,-191 1804.54,-191 1804.54,-522 1804.54,-522 1804.54,-528 1798.54,-534 1792.54,-534 1792.54,-534 885.54,-534 885.54,-534 879.54,-534 873.54,-528 873.54,-522 873.54,-522 873.54,-191 873.54,-191 873.54,-185 879.54,-179 885.54,-179"/>
<text xml:space="preserve" text-anchor="middle" x="1339.04" y="-517.65" font-family="Arial Black" font-size="13.00">panels</text>
</g>
<g id="clust6" class="cluster">
<title>cluster~/lib/panels/right</title>
<path fill="none" stroke="lightgray" stroke-width="2.6" d="M893.54,-345C893.54,-345 1079.54,-345 1079.54,-345 1085.54,-345 1091.54,-351 1091.54,-357 1091.54,-357 1091.54,-491 1091.54,-491 1091.54,-497 1085.54,-503 1079.54,-503 1079.54,-503 893.54,-503 893.54,-503 887.54,-503 881.54,-497 881.54,-491 881.54,-491 881.54,-357 881.54,-357 881.54,-351 887.54,-345 893.54,-345"/>
<text xml:space="preserve" text-anchor="middle" x="986.54" y="-486.65" font-family="Arial Black" font-size="13.00">right</text>
</g>
<g id="clust7" class="cluster">
<title>cluster~/lib/panels/center</title>
<path fill="none" stroke="lightgray" stroke-width="2.6" d="M1554.54,-187C1554.54,-187 1784.54,-187 1784.54,-187 1790.54,-187 1796.54,-193 1796.54,-199 1796.54,-199 1796.54,-408 1796.54,-408 1796.54,-414 1790.54,-420 1784.54,-420 1784.54,-420 1554.54,-420 1554.54,-420 1548.54,-420 1542.54,-414 1542.54,-408 1542.54,-408 1542.54,-199 1542.54,-199 1542.54,-193 1548.54,-187 1554.54,-187"/>
<text xml:space="preserve" text-anchor="middle" x="1669.54" y="-403.65" font-family="Arial Black" font-size="13.00">center</text>
</g>
<g id="clust8" class="cluster">
<title>cluster~/lib/panels/left</title>
<path fill="none" stroke="lightgray" stroke-width="2.6" d="M1111.54,-187C1111.54,-187 1522.54,-187 1522.54,-187 1528.54,-187 1534.54,-193 1534.54,-199 1534.54,-199 1534.54,-491 1534.54,-491 1534.54,-497 1528.54,-503 1522.54,-503 1522.54,-503 1111.54,-503 1111.54,-503 1105.54,-503 1099.54,-497 1099.54,-491 1099.54,-491 1099.54,-199 1099.54,-199 1099.54,-193 1105.54,-187 1111.54,-187"/>
<text xml:space="preserve" text-anchor="middle" x="1317.04" y="-486.65" font-family="Arial Black" font-size="13.00">left</text>
</g>
<g id="clust9" class="cluster">
<title>cluster~/lib/utils</title>
<path fill="none" stroke="lightgray" stroke-width="2.6" d="M1824.54,-187C1824.54,-187 2066.54,-187 2066.54,-187 2072.54,-187 2078.54,-193 2078.54,-199 2078.54,-199 2078.54,-250 2078.54,-250 2078.54,-256 2072.54,-262 2066.54,-262 2066.54,-262 1824.54,-262 1824.54,-262 1818.54,-262 1812.54,-256 1812.54,-250 1812.54,-250 1812.54,-199 1812.54,-199 1812.54,-193 1818.54,-187 1824.54,-187"/>
<text xml:space="preserve" text-anchor="middle" x="1945.54" y="-245.65" font-family="Arial Black" font-size="13.00">utils</text>
</g>
<g id="clust10" class="cluster">
<title>cluster~/lib/models</title>
<path fill="none" stroke="lightgray" stroke-width="2.6" d="M440.54,-24C440.54,-24 676.54,-24 676.54,-24 682.54,-24 688.54,-30 688.54,-36 688.54,-36 688.54,-159 688.54,-159 688.54,-165 682.54,-171 676.54,-171 676.54,-171 440.54,-171 440.54,-171 434.54,-171 428.54,-165 428.54,-159 428.54,-159 428.54,-36 428.54,-36 428.54,-30 434.54,-24 440.54,-24"/>
<text xml:space="preserve" text-anchor="middle" x="558.54" y="-154.65" font-family="Arial Black" font-size="13.00">models</text>
</g>
<g id="clust11" class="cluster">
<title>cluster~/lib/screens</title>
<path fill="none" stroke="lightgray" stroke-width="2.6" d="M1974.54,-428C1974.54,-428 2342.54,-428 2342.54,-428 2348.54,-428 2354.54,-434 2354.54,-440 2354.54,-440 2354.54,-491 2354.54,-491 2354.54,-497 2348.54,-503 2342.54,-503 2342.54,-503 1974.54,-503 1974.54,-503 1968.54,-503 1962.54,-497 1962.54,-491 1962.54,-491 1962.54,-440 1962.54,-440 1962.54,-434 1968.54,-428 1974.54,-428"/>
<text xml:space="preserve" text-anchor="middle" x="2158.54" y="-486.65" font-family="Arial Black" font-size="13.00">screens</text>
</g>
<g id="clust12" class="cluster">
<title>cluster~/lib/theme</title>
<path fill="none" stroke="lightgray" stroke-width="2.6" d="M1824.54,-428C1824.54,-428 1908.54,-428 1908.54,-428 1914.54,-428 1920.54,-434 1920.54,-440 1920.54,-440 1920.54,-491 1920.54,-491 1920.54,-497 1914.54,-503 1908.54,-503 1908.54,-503 1824.54,-503 1824.54,-503 1818.54,-503 1812.54,-497 1812.54,-491 1812.54,-491 1812.54,-440 1812.54,-440 1812.54,-434 1818.54,-428 1824.54,-428"/>
<text xml:space="preserve" text-anchor="middle" x="1866.54" y="-486.65" font-family="Arial Black" font-size="13.00">theme</text>
</g>
<g id="clust13" class="cluster">
<title>cluster~/lib/services</title>
<path fill="none" stroke="lightgray" stroke-width="2.6" d="M293.54,-187C293.54,-187 667.54,-187 667.54,-187 673.54,-187 679.54,-193 679.54,-199 679.54,-199 679.54,-325 679.54,-325 679.54,-331 673.54,-337 667.54,-337 667.54,-337 293.54,-337 293.54,-337 287.54,-337 281.54,-331 281.54,-325 281.54,-325 281.54,-199 281.54,-199 281.54,-193 287.54,-187 293.54,-187"/>
<text xml:space="preserve" text-anchor="middle" x="480.54" y="-320.65" font-family="Arial Black" font-size="13.00">services</text>
</g>
<g id="clust14" class="cluster">
<title>cluster~/lib/widgets</title>
<path fill="none" stroke="lightgray" stroke-width="2.6" d="M966.54,-96C966.54,-96 1424.54,-96 1424.54,-96 1430.54,-96 1436.54,-102 1436.54,-108 1436.54,-108 1436.54,-159 1436.54,-159 1436.54,-165 1430.54,-171 1424.54,-171 1424.54,-171 966.54,-171 966.54,-171 960.54,-171 954.54,-165 954.54,-159 954.54,-159 954.54,-108 954.54,-108 954.54,-102 960.54,-96 966.54,-96"/>
<text xml:space="preserve" text-anchor="middle" x="1195.54" y="-154.65" font-family="Arial Black" font-size="13.00">widgets</text>
</g>
<g id="clust15" class="cluster">
<title>cluster~/tool</title>
<path fill="none" stroke="lightgray" stroke-width="2.6" d="M2144.54,-617C2144.54,-617 2230.54,-617 2230.54,-617 2236.54,-617 2242.54,-623 2242.54,-629 2242.54,-629 2242.54,-680 2242.54,-680 2242.54,-686 2236.54,-692 2230.54,-692 2230.54,-692 2144.54,-692 2144.54,-692 2138.54,-692 2132.54,-686 2132.54,-680 2132.54,-680 2132.54,-629 2132.54,-629 2132.54,-623 2138.54,-617 2144.54,-617"/>
<text xml:space="preserve" text-anchor="middle" x="2187.54" y="-675.65" font-family="Arial Black" font-size="13.00">tool</text>
</g>
<!-- /test/widget_test.dart -->
<g id="node1" class="node">
<title>/test/widget_test.dart</title>
<path fill="Lavender" stroke="black" stroke-width="1.3" d="M1975.42,-661C1975.42,-661 1907.67,-661 1907.67,-661 1901.67,-661 1895.67,-655 1895.67,-649 1895.67,-649 1895.67,-637 1895.67,-637 1895.67,-631 1901.67,-625 1907.67,-625 1907.67,-625 1975.42,-625 1975.42,-625 1981.42,-625 1987.42,-631 1987.42,-637 1987.42,-637 1987.42,-649 1987.42,-649 1987.42,-655 1981.42,-661 1975.42,-661"/>
<text xml:space="preserve" text-anchor="middle" x="1941.54" y="-637.75" font-family="Arial" font-size="15.00">widget_test</text>
</g>
<!-- /lib/main.dart -->
<g id="node26" class="node">
<title>/lib/main.dart</title>
<path fill="Lavender" stroke="black" stroke-width="1.3" d="M1956.54,-578C1956.54,-578 1926.54,-578 1926.54,-578 1920.54,-578 1914.54,-572 1914.54,-566 1914.54,-566 1914.54,-554 1914.54,-554 1914.54,-548 1920.54,-542 1926.54,-542 1926.54,-542 1956.54,-542 1956.54,-542 1962.54,-542 1968.54,-548 1968.54,-554 1968.54,-554 1968.54,-566 1968.54,-566 1968.54,-572 1962.54,-578 1956.54,-578"/>
<text xml:space="preserve" text-anchor="middle" x="1941.54" y="-554.75" font-family="Arial" font-size="15.00">main</text>
</g>
<!-- /test/widget_test.dart&#45;&gt;/lib/main.dart -->
<g id="edge1" class="edge">
<title>/test/widget_test.dart&#45;&gt;/lib/main.dart</title>
<path fill="none" stroke="#aabbaa" stroke-width="1.3" stroke-opacity="0.533333" d="M1941.54,-624.42C1941.54,-614.45 1941.54,-601.7 1941.54,-590.26"/>
<polygon fill="#aabbaa" fill-opacity="0.533333" stroke="#aabbaa" stroke-width="1.3" stroke-opacity="0.533333" points="1945.04,-590.51 1941.54,-580.51 1938.04,-590.51 1945.04,-590.51"/>
</g>
<!-- /lib/providers/app_providers.dart -->
<g id="node2" class="node">
<title>/lib/providers/app_providers.dart</title>
<path fill="Lavender" stroke="black" stroke-width="1.3" d="M845.79,-231C845.79,-231 759.29,-231 759.29,-231 753.29,-231 747.29,-225 747.29,-219 747.29,-219 747.29,-207 747.29,-207 747.29,-201 753.29,-195 759.29,-195 759.29,-195 845.79,-195 845.79,-195 851.79,-195 857.79,-201 857.79,-207 857.79,-207 857.79,-219 857.79,-219 857.79,-225 851.79,-231 845.79,-231"/>
<text xml:space="preserve" text-anchor="middle" x="802.54" y="-207.75" font-family="Arial" font-size="15.00">app_providers</text>
</g>
<!-- /lib/utils/file_type_utils.dart -->
<g id="node19" class="node">
<title>/lib/utils/file_type_utils.dart</title>
<path fill="Lavender" stroke="black" stroke-width="1.3" d="M2058.54,-231C2058.54,-231 1976.54,-231 1976.54,-231 1970.54,-231 1964.54,-225 1964.54,-219 1964.54,-219 1964.54,-207 1964.54,-207 1964.54,-201 1970.54,-195 1976.54,-195 1976.54,-195 2058.54,-195 2058.54,-195 2064.54,-195 2070.54,-201 2070.54,-207 2070.54,-207 2070.54,-219 2070.54,-219 2070.54,-225 2064.54,-231 2058.54,-231"/>
<text xml:space="preserve" text-anchor="middle" x="2017.54" y="-207.75" font-family="Arial" font-size="15.00">file_type_utils</text>
</g>
<!-- /lib/providers/app_providers.dart&#45;&gt;/lib/utils/file_type_utils.dart -->
<g id="edge6" class="edge">
<title>/lib/providers/app_providers.dart&#45;&gt;/lib/utils/file_type_utils.dart</title>
<path fill="none" stroke="#aabbaa" stroke-width="1.3" stroke-opacity="0.533333" d="M858.38,-225.8C918.7,-238.92 1017.84,-258.45 1104.54,-266 1127.84,-268.03 1923.66,-270.86 1946.54,-266 1964.1,-262.27 1980.4,-250.93 1992.95,-239.7"/>
<polygon fill="#aabbaa" fill-opacity="0.533333" stroke="#aabbaa" stroke-width="1.3" stroke-opacity="0.533333" points="1995.14,-242.44 1999.96,-233 1990.31,-237.38 1995.14,-242.44"/>
</g>
<!-- /lib/models/project_node.dart -->
<g id="node20" class="node">
<title>/lib/models/project_node.dart</title>
<path fill="Lavender" stroke="black" stroke-width="1.3" d="M526.67,-140C526.67,-140 448.42,-140 448.42,-140 442.42,-140 436.42,-134 436.42,-128 436.42,-128 436.42,-116 436.42,-116 436.42,-110 442.42,-104 448.42,-104 448.42,-104 526.67,-104 526.67,-104 532.67,-104 538.67,-110 538.67,-116 538.67,-116 538.67,-128 538.67,-128 538.67,-134 532.67,-140 526.67,-140"/>
<text xml:space="preserve" text-anchor="middle" x="487.54" y="-116.75" font-family="Arial" font-size="15.00">project_node</text>
</g>
<!-- /lib/providers/app_providers.dart&#45;&gt;/lib/models/project_node.dart -->
<g id="edge3" class="edge">
<title>/lib/providers/app_providers.dart&#45;&gt;/lib/models/project_node.dart</title>
<path fill="none" stroke="#aabbaa" stroke-width="1.3" stroke-opacity="0.533333" d="M762.99,-194.37C747.83,-188.4 730.17,-182.4 713.54,-179 677.36,-171.6 582.09,-184.06 547.54,-171 534.55,-166.09 522.2,-157.23 512.12,-148.45"/>
<polygon fill="#aabbaa" fill-opacity="0.533333" stroke="#aabbaa" stroke-width="1.3" stroke-opacity="0.533333" points="514.71,-146.08 504.99,-141.86 509.96,-151.22 514.71,-146.08"/>
</g>
<!-- /lib/models/document_state.dart -->
<g id="node21" class="node">
<title>/lib/models/document_state.dart</title>
<path fill="Lavender" stroke="black" stroke-width="1.3" d="M668.17,-140C668.17,-140 568.92,-140 568.92,-140 562.92,-140 556.92,-134 556.92,-128 556.92,-128 556.92,-116 556.92,-116 556.92,-110 562.92,-104 568.92,-104 568.92,-104 668.17,-104 668.17,-104 674.17,-104 680.17,-110 680.17,-116 680.17,-116 680.17,-128 680.17,-128 680.17,-134 674.17,-140 668.17,-140"/>
<text xml:space="preserve" text-anchor="middle" x="618.54" y="-116.75" font-family="Arial" font-size="15.00">document_state</text>
</g>
<!-- /lib/providers/app_providers.dart&#45;&gt;/lib/models/document_state.dart -->
<g id="edge4" class="edge">
<title>/lib/providers/app_providers.dart&#45;&gt;/lib/models/document_state.dart</title>
<path fill="none" stroke="#aabbaa" stroke-width="1.3" stroke-opacity="0.533333" d="M766.19,-194.42C737.34,-180.46 696.78,-160.84 665.47,-145.7"/>
<polygon fill="#aabbaa" fill-opacity="0.533333" stroke="#aabbaa" stroke-width="1.3" stroke-opacity="0.533333" points="667.12,-142.61 656.59,-141.4 664.07,-148.91 667.12,-142.61"/>
</g>
<!-- /lib/models/file_system_item.dart -->
<g id="node22" class="node">
<title>/lib/models/file_system_item.dart</title>
<path fill="Lavender" stroke="black" stroke-width="1.3" d="M552.42,-68C552.42,-68 448.67,-68 448.67,-68 442.67,-68 436.67,-62 436.67,-56 436.67,-56 436.67,-44 436.67,-44 436.67,-38 442.67,-32 448.67,-32 448.67,-32 552.42,-32 552.42,-32 558.42,-32 564.42,-38 564.42,-44 564.42,-44 564.42,-56 564.42,-56 564.42,-62 558.42,-68 552.42,-68"/>
<text xml:space="preserve" text-anchor="middle" x="500.54" y="-44.75" font-family="Arial" font-size="15.00">file_system_item</text>
</g>
<!-- /lib/providers/app_providers.dart&#45;&gt;/lib/models/file_system_item.dart -->
<g id="edge2" class="edge">
<title>/lib/providers/app_providers.dart&#45;&gt;/lib/models/file_system_item.dart</title>
<path fill="none" stroke="#aabbaa" stroke-width="1.3" stroke-opacity="0.533333" d="M790.53,-194.43C771.96,-168.7 733.8,-121.11 689.54,-96 655,-76.4 612.24,-65.31 576.14,-59.05"/>
<polygon fill="#aabbaa" fill-opacity="0.533333" stroke="#aabbaa" stroke-width="1.3" stroke-opacity="0.533333" points="577.05,-55.65 566.62,-57.5 575.92,-62.56 577.05,-55.65"/>
</g>
<!-- /lib/services/project_service.dart -->
<g id="node28" class="node">
<title>/lib/services/project_service.dart</title>
<path fill="Lavender" stroke="black" stroke-width="1.3" d="M659.79,-306C659.79,-306 567.29,-306 567.29,-306 561.29,-306 555.29,-300 555.29,-294 555.29,-294 555.29,-282 555.29,-282 555.29,-276 561.29,-270 567.29,-270 567.29,-270 659.79,-270 659.79,-270 665.79,-270 671.79,-276 671.79,-282 671.79,-282 671.79,-294 671.79,-294 671.79,-300 665.79,-306 659.79,-306"/>
<text xml:space="preserve" text-anchor="middle" x="613.54" y="-282.75" font-family="Arial" font-size="15.00">project_service</text>
</g>
<!-- /lib/providers/app_providers.dart&#45;&gt;/lib/services/project_service.dart -->
<g id="edge5" class="edge">
<title>/lib/providers/app_providers.dart&#45;&gt;/lib/services/project_service.dart</title>
<path fill="none" stroke="#aabbaa" stroke-width="1.3" stroke-opacity="0.533333" d="M768.04,-231.64C746.4,-240.9 718.05,-252.3 692.54,-262 689.59,-263.12 686.57,-264.26 683.5,-265.39"/>
<polygon fill="#aabbaa" fill-opacity="0.533333" stroke="#aabbaa" stroke-width="1.3" stroke-opacity="0.533333" points="682.31,-262.1 674.11,-268.82 684.7,-268.68 682.31,-262.1"/>
</g>
<!-- /lib/panels/right/outline_panel.dart -->
<g id="node3" class="node">
<title>/lib/panels/right/outline_panel.dart</title>
<path fill="Lavender" stroke="black" stroke-width="1.3" d="M1071.42,-389C1071.42,-389 991.67,-389 991.67,-389 985.67,-389 979.67,-383 979.67,-377 979.67,-377 979.67,-365 979.67,-365 979.67,-359 985.67,-353 991.67,-353 991.67,-353 1071.42,-353 1071.42,-353 1077.42,-353 1083.42,-359 1083.42,-365 1083.42,-365 1083.42,-377 1083.42,-377 1083.42,-383 1077.42,-389 1071.42,-389"/>
<text xml:space="preserve" text-anchor="middle" x="1031.54" y="-365.75" font-family="Arial" font-size="15.00">outline_panel</text>
</g>
<!-- /lib/panels/center/editor_screen.dart -->
<g id="node7" class="node">
<title>/lib/panels/center/editor_screen.dart</title>
<path fill="Lavender" stroke="black" stroke-width="1.3" d="M1776.92,-306C1776.92,-306 1694.17,-306 1694.17,-306 1688.17,-306 1682.17,-300 1682.17,-294 1682.17,-294 1682.17,-282 1682.17,-282 1682.17,-276 1688.17,-270 1694.17,-270 1694.17,-270 1776.92,-270 1776.92,-270 1782.92,-270 1788.92,-276 1788.92,-282 1788.92,-282 1788.92,-294 1788.92,-294 1788.92,-300 1782.92,-306 1776.92,-306"/>
<text xml:space="preserve" text-anchor="middle" x="1735.54" y="-282.75" font-family="Arial" font-size="15.00">editor_screen</text>
</g>
<!-- /lib/panels/right/outline_panel.dart&#45;&gt;/lib/panels/center/editor_screen.dart -->
<g id="edge8" class="edge">
<title>/lib/panels/right/outline_panel.dart&#45;&gt;/lib/panels/center/editor_screen.dart</title>
<path fill="none" stroke="#aabbaa" stroke-width="1.3" stroke-opacity="0.533333" d="M1070.14,-352.37C1078.36,-349.35 1087.11,-346.65 1095.54,-345 1127.06,-338.84 1643.23,-347.6 1673.54,-337 1687.26,-332.21 1700.32,-323.06 1710.88,-314.04"/>
<polygon fill="#aabbaa" fill-opacity="0.533333" stroke="#aabbaa" stroke-width="1.3" stroke-opacity="0.533333" points="1712.96,-316.87 1718.01,-307.56 1708.26,-311.69 1712.96,-316.87"/>
</g>
<!-- /lib/panels/right/outline_panel.dart&#45;&gt;/lib/models/file_system_item.dart -->
<g id="edge7" class="edge">
<title>/lib/panels/right/outline_panel.dart&#45;&gt;/lib/models/file_system_item.dart</title>
<path fill="none" stroke="#aabbaa" stroke-width="1.3" stroke-opacity="0.533333" d="M994.82,-352.35C986.98,-349.32 978.62,-346.63 970.54,-345 948.68,-340.58 185.16,-350.68 167.54,-337 140.29,-315.85 152.03,-296.21 147.54,-262 137.96,-188.85 98.79,-151.37 147.54,-96 165.54,-75.56 326.22,-61.93 424.49,-55.42"/>
<polygon fill="#aabbaa" fill-opacity="0.533333" stroke="#aabbaa" stroke-width="1.3" stroke-opacity="0.533333" points="424.44,-58.93 434.19,-54.79 423.98,-51.95 424.44,-58.93"/>
</g>
<!-- /lib/panels/right/ai_panel.dart -->
<g id="node4" class="node">
<title>/lib/panels/right/ai_panel.dart</title>
<path fill="Lavender" stroke="black" stroke-width="1.3" d="M949.29,-389C949.29,-389 901.79,-389 901.79,-389 895.79,-389 889.79,-383 889.79,-377 889.79,-377 889.79,-365 889.79,-365 889.79,-359 895.79,-353 901.79,-353 901.79,-353 949.29,-353 949.29,-353 955.29,-353 961.29,-359 961.29,-365 961.29,-365 961.29,-377 961.29,-377 961.29,-383 955.29,-389 949.29,-389"/>
<text xml:space="preserve" text-anchor="middle" x="925.54" y="-365.75" font-family="Arial" font-size="15.00">ai_panel</text>
</g>
<!-- /lib/panels/right/ai_panel.dart&#45;&gt;/lib/models/file_system_item.dart -->
<g id="edge10" class="edge">
<title>/lib/panels/right/ai_panel.dart&#45;&gt;/lib/models/file_system_item.dart</title>
<path fill="none" stroke="#aabbaa" stroke-width="1.3" stroke-opacity="0.533333" d="M889.16,-368.53C735.73,-362.31 149.38,-338.47 147.54,-337 120.64,-315.41 132.03,-296.21 127.54,-262 117.96,-188.85 78.6,-151.2 127.54,-96 146.87,-74.2 320.92,-60.91 424.3,-54.87"/>
<polygon fill="#aabbaa" fill-opacity="0.533333" stroke="#aabbaa" stroke-width="1.3" stroke-opacity="0.533333" points="424.49,-58.36 434.27,-54.3 424.09,-51.38 424.49,-58.36"/>
</g>
<!-- /lib/services/ai_service.dart -->
<g id="node31" class="node">
<title>/lib/services/ai_service.dart</title>
<path fill="Lavender" stroke="black" stroke-width="1.3" d="M359.92,-306C359.92,-306 301.17,-306 301.17,-306 295.17,-306 289.17,-300 289.17,-294 289.17,-294 289.17,-282 289.17,-282 289.17,-276 295.17,-270 301.17,-270 301.17,-270 359.92,-270 359.92,-270 365.92,-270 371.92,-276 371.92,-282 371.92,-282 371.92,-294 371.92,-294 371.92,-300 365.92,-306 359.92,-306"/>
<text xml:space="preserve" text-anchor="middle" x="330.54" y="-282.75" font-family="Arial" font-size="15.00">ai_service</text>
</g>
<!-- /lib/panels/right/ai_panel.dart&#45;&gt;/lib/services/ai_service.dart -->
<g id="edge9" class="edge">
<title>/lib/panels/right/ai_panel.dart&#45;&gt;/lib/services/ai_service.dart</title>
<path fill="none" stroke="#aabbaa" stroke-width="1.3" stroke-opacity="0.533333" d="M889.38,-369.23C775.31,-366.6 427.9,-357.03 381.54,-337 370.28,-332.13 359.97,-323.64 351.61,-315.14"/>
<polygon fill="#aabbaa" fill-opacity="0.533333" stroke="#aabbaa" stroke-width="1.3" stroke-opacity="0.533333" points="354.31,-312.9 344.98,-307.88 349.14,-317.63 354.31,-312.9"/>
</g>
<!-- /lib/panels/right/right_panel.dart -->
<g id="node5" class="node">
<title>/lib/panels/right/right_panel.dart</title>
<path fill="Lavender" stroke="black" stroke-width="1.3" d="M1015.29,-472C1015.29,-472 949.79,-472 949.79,-472 943.79,-472 937.79,-466 937.79,-460 937.79,-460 937.79,-448 937.79,-448 937.79,-442 943.79,-436 949.79,-436 949.79,-436 1015.29,-436 1015.29,-436 1021.29,-436 1027.29,-442 1027.29,-448 1027.29,-448 1027.29,-460 1027.29,-460 1027.29,-466 1021.29,-472 1015.29,-472"/>
<text xml:space="preserve" text-anchor="middle" x="982.54" y="-448.75" font-family="Arial" font-size="15.00">right_panel</text>
</g>
<!-- /lib/panels/right/right_panel.dart&#45;&gt;/lib/panels/right/outline_panel.dart -->
<g id="edge11" class="edge">
<title>/lib/panels/right/right_panel.dart&#45;&gt;/lib/panels/right/outline_panel.dart</title>
<path fill="none" stroke="#aabbaa" stroke-width="1.3" stroke-opacity="0.533333" d="M993.18,-435.42C999.53,-424.92 1007.75,-411.34 1014.94,-399.44"/>
<polygon fill="#aabbaa" fill-opacity="0.533333" stroke="#aabbaa" stroke-width="1.3" stroke-opacity="0.533333" points="1017.73,-401.59 1019.91,-391.23 1011.74,-397.97 1017.73,-401.59"/>
</g>
<!-- /lib/panels/right/right_panel.dart&#45;&gt;/lib/panels/right/ai_panel.dart -->
<g id="edge12" class="edge">
<title>/lib/panels/right/right_panel.dart&#45;&gt;/lib/panels/right/ai_panel.dart</title>
<path fill="none" stroke="#aabbaa" stroke-width="1.3" stroke-opacity="0.533333" d="M970.18,-435.42C962.71,-424.81 953.03,-411.06 944.6,-399.08"/>
<polygon fill="#aabbaa" fill-opacity="0.533333" stroke="#aabbaa" stroke-width="1.3" stroke-opacity="0.533333" points="947.64,-397.31 939.02,-391.15 941.91,-401.34 947.64,-397.31"/>
</g>
<!-- /lib/panels/right/right_panel.dart&#45;&gt;/lib/models/file_system_item.dart -->
<g id="edge13" class="edge">
<title>/lib/panels/right/right_panel.dart&#45;&gt;/lib/models/file_system_item.dart</title>
<path fill="none" stroke="#aabbaa" stroke-width="1.3" stroke-opacity="0.533333" d="M953.34,-435.36C947.02,-432.33 940.22,-429.64 933.54,-428 910.72,-422.4 105.1,-435.62 87.54,-420 -20.24,-324.09 -29.06,-203.16 67.54,-96 90.94,-70.05 306.42,-58.11 424.31,-53.48"/>
<polygon fill="#aabbaa" fill-opacity="0.533333" stroke="#aabbaa" stroke-width="1.3" stroke-opacity="0.533333" points="424.27,-56.98 434.13,-53.1 424.01,-49.99 424.27,-56.98"/>
</g>
<!-- /lib/panels/center/large_file_message.dart -->
<g id="node6" class="node">
<title>/lib/panels/center/large_file_message.dart</title>
<path fill="Lavender" stroke="black" stroke-width="1.3" d="M1776.04,-231C1776.04,-231 1655.04,-231 1655.04,-231 1649.04,-231 1643.04,-225 1643.04,-219 1643.04,-219 1643.04,-207 1643.04,-207 1643.04,-201 1649.04,-195 1655.04,-195 1655.04,-195 1776.04,-195 1776.04,-195 1782.04,-195 1788.04,-201 1788.04,-207 1788.04,-207 1788.04,-219 1788.04,-219 1788.04,-225 1782.04,-231 1776.04,-231"/>
<text xml:space="preserve" text-anchor="middle" x="1715.54" y="-207.75" font-family="Arial" font-size="15.00">large_file_message</text>
</g>
<!-- /lib/panels/center/editor_screen.dart&#45;&gt;/lib/providers/app_providers.dart -->
<g id="edge15" class="edge">
<title>/lib/panels/center/editor_screen.dart&#45;&gt;/lib/providers/app_providers.dart</title>
<path fill="none" stroke="#aabbaa" stroke-width="1.3" stroke-opacity="0.533333" d="M1681.61,-271.34C1678.9,-270.83 1676.2,-270.37 1673.54,-270 1530.28,-249.82 1166.29,-278.39 1022.54,-262 970.6,-256.08 912.89,-243.24 869.61,-232.33"/>
<polygon fill="#aabbaa" fill-opacity="0.533333" stroke="#aabbaa" stroke-width="1.3" stroke-opacity="0.533333" points="870.54,-228.96 859.99,-229.88 868.81,-235.74 870.54,-228.96"/>
</g>
<!-- /lib/panels/center/editor_screen.dart&#45;&gt;/lib/panels/center/large_file_message.dart -->
<g id="edge14" class="edge">
<title>/lib/panels/center/editor_screen.dart&#45;&gt;/lib/panels/center/large_file_message.dart</title>
<path fill="none" stroke="#aabbaa" stroke-width="1.3" stroke-opacity="0.533333" d="M1730.8,-269.7C1728.6,-261.67 1725.93,-251.9 1723.43,-242.8"/>
<polygon fill="#aabbaa" fill-opacity="0.533333" stroke="#aabbaa" stroke-width="1.3" stroke-opacity="0.533333" points="1726.86,-242.05 1720.84,-233.33 1720.11,-243.9 1726.86,-242.05"/>
</g>
<!-- /lib/utils/message_helper.dart -->
<g id="node18" class="node">
<title>/lib/utils/message_helper.dart</title>
<path fill="Lavender" stroke="black" stroke-width="1.3" d="M1934.67,-231C1934.67,-231 1832.42,-231 1832.42,-231 1826.42,-231 1820.42,-225 1820.42,-219 1820.42,-219 1820.42,-207 1820.42,-207 1820.42,-201 1826.42,-195 1832.42,-195 1832.42,-195 1934.67,-195 1934.67,-195 1940.67,-195 1946.67,-201 1946.67,-207 1946.67,-207 1946.67,-219 1946.67,-219 1946.67,-225 1940.67,-231 1934.67,-231"/>
<text xml:space="preserve" text-anchor="middle" x="1883.54" y="-207.75" font-family="Arial" font-size="15.00">message_helper</text>
</g>
<!-- /lib/panels/center/editor_screen.dart&#45;&gt;/lib/utils/message_helper.dart -->
<g id="edge16" class="edge">
<title>/lib/panels/center/editor_screen.dart&#45;&gt;/lib/utils/message_helper.dart</title>
<path fill="none" stroke="#aabbaa" stroke-width="1.3" stroke-opacity="0.533333" d="M1783.83,-269.41C1789.52,-267.05 1795.2,-264.55 1800.54,-262 1815.62,-254.79 1831.64,-245.86 1845.54,-237.66"/>
<polygon fill="#aabbaa" fill-opacity="0.533333" stroke="#aabbaa" stroke-width="1.3" stroke-opacity="0.533333" points="1847.24,-240.72 1854.02,-232.58 1843.65,-234.71 1847.24,-240.72"/>
</g>
<!-- /lib/panels/center/editor_screen.dart&#45;&gt;/lib/utils/file_type_utils.dart -->
<g id="edge17" class="edge">
<title>/lib/panels/center/editor_screen.dart&#45;&gt;/lib/utils/file_type_utils.dart</title>
<path fill="none" stroke="#aabbaa" stroke-width="1.3" stroke-opacity="0.533333" d="M1789.55,-284.2C1844.77,-280.75 1926.43,-273.83 1955.54,-262 1968.48,-256.74 1981.01,-247.99 1991.37,-239.39"/>
<polygon fill="#aabbaa" fill-opacity="0.533333" stroke="#aabbaa" stroke-width="1.3" stroke-opacity="0.533333" points="1993.53,-242.15 1998.75,-232.93 1988.92,-236.88 1993.53,-242.15"/>
</g>
<!-- /lib/panels/center/editor_screen.dart&#45;&gt;/lib/models/document_state.dart -->
<g id="edge18" class="edge">
<title>/lib/panels/center/editor_screen.dart&#45;&gt;/lib/models/document_state.dart</title>
<path fill="none" stroke="#aabbaa" stroke-width="1.3" stroke-opacity="0.533333" d="M1681.61,-271.35C1678.9,-270.83 1676.2,-270.38 1673.54,-270 1609.95,-260.99 1157.47,-279.03 1095.54,-262 1024.32,-242.41 1021.07,-203.96 951.54,-179 865.61,-148.14 760.99,-134.11 692.23,-127.84"/>
<polygon fill="#aabbaa" fill-opacity="0.533333" stroke="#aabbaa" stroke-width="1.3" stroke-opacity="0.533333" points="692.89,-124.39 682.62,-127 692.28,-131.36 692.89,-124.39"/>
</g>
<!-- /lib/panels/center/terminal_panel.dart -->
<g id="node8" class="node">
<title>/lib/panels/center/terminal_panel.dart</title>
<path fill="Lavender" stroke="black" stroke-width="1.3" d="M1652.29,-306C1652.29,-306 1562.79,-306 1562.79,-306 1556.79,-306 1550.79,-300 1550.79,-294 1550.79,-294 1550.79,-282 1550.79,-282 1550.79,-276 1556.79,-270 1562.79,-270 1562.79,-270 1652.29,-270 1652.29,-270 1658.29,-270 1664.29,-276 1664.29,-282 1664.29,-282 1664.29,-294 1664.29,-294 1664.29,-300 1658.29,-306 1652.29,-306"/>
<text xml:space="preserve" text-anchor="middle" x="1607.54" y="-282.75" font-family="Arial" font-size="15.00">terminal_panel</text>
</g>
<!-- /lib/panels/center/terminal_panel.dart&#45;&gt;/lib/providers/app_providers.dart -->
<g id="edge19" class="edge">
<title>/lib/panels/center/terminal_panel.dart&#45;&gt;/lib/providers/app_providers.dart</title>
<path fill="none" stroke="#aabbaa" stroke-width="1.3" stroke-opacity="0.533333" d="M1550.5,-271.89C1546.47,-271.15 1542.46,-270.51 1538.54,-270 1424.81,-255.3 1136.46,-275.18 1022.54,-262 970.61,-255.99 912.89,-243.16 869.61,-232.28"/>
<polygon fill="#aabbaa" fill-opacity="0.533333" stroke="#aabbaa" stroke-width="1.3" stroke-opacity="0.533333" points="870.55,-228.9 860,-229.82 868.82,-235.69 870.55,-228.9"/>
</g>
<!-- /lib/panels/center/center_panel.dart -->
<g id="node9" class="node">
<title>/lib/panels/center/center_panel.dart</title>
<path fill="Lavender" stroke="black" stroke-width="1.3" d="M1643.67,-389C1643.67,-389 1565.42,-389 1565.42,-389 1559.42,-389 1553.42,-383 1553.42,-377 1553.42,-377 1553.42,-365 1553.42,-365 1553.42,-359 1559.42,-353 1565.42,-353 1565.42,-353 1643.67,-353 1643.67,-353 1649.67,-353 1655.67,-359 1655.67,-365 1655.67,-365 1655.67,-377 1655.67,-377 1655.67,-383 1649.67,-389 1643.67,-389"/>
<text xml:space="preserve" text-anchor="middle" x="1604.54" y="-365.75" font-family="Arial" font-size="15.00">center_panel</text>
</g>
<!-- /lib/panels/center/center_panel.dart&#45;&gt;/lib/providers/app_providers.dart -->
<g id="edge21" class="edge">
<title>/lib/panels/center/center_panel.dart&#45;&gt;/lib/providers/app_providers.dart</title>
<path fill="none" stroke="#aabbaa" stroke-width="1.3" stroke-opacity="0.533333" d="M1564.7,-352.36C1556.23,-349.33 1547.21,-346.64 1538.54,-345 1520.01,-341.49 875.38,-347.25 859.54,-337 827.38,-316.19 813.08,-272.13 806.92,-242.79"/>
<polygon fill="#aabbaa" fill-opacity="0.533333" stroke="#aabbaa" stroke-width="1.3" stroke-opacity="0.533333" points="810.4,-242.34 805.12,-233.16 803.52,-243.63 810.4,-242.34"/>
</g>
<!-- /lib/panels/center/center_panel.dart&#45;&gt;/lib/panels/center/editor_screen.dart -->
<g id="edge23" class="edge">
<title>/lib/panels/center/center_panel.dart&#45;&gt;/lib/panels/center/editor_screen.dart</title>
<path fill="none" stroke="#aabbaa" stroke-width="1.3" stroke-opacity="0.533333" d="M1643.15,-352.4C1655.65,-346.51 1667.78,-340.55 1673.54,-337 1684.61,-330.18 1696.04,-321.77 1706.04,-313.9"/>
<polygon fill="#aabbaa" fill-opacity="0.533333" stroke="#aabbaa" stroke-width="1.3" stroke-opacity="0.533333" points="1707.98,-316.83 1713.58,-307.83 1703.59,-311.37 1707.98,-316.83"/>
</g>
<!-- /lib/panels/center/center_panel.dart&#45;&gt;/lib/panels/center/terminal_panel.dart -->
<g id="edge24" class="edge">
<title>/lib/panels/center/center_panel.dart&#45;&gt;/lib/panels/center/terminal_panel.dart</title>
<path fill="none" stroke="#aabbaa" stroke-width="1.3" stroke-opacity="0.533333" d="M1605.19,-352.42C1605.56,-342.45 1606.04,-329.7 1606.46,-318.26"/>
<polygon fill="#aabbaa" fill-opacity="0.533333" stroke="#aabbaa" stroke-width="1.3" stroke-opacity="0.533333" points="1609.95,-318.63 1606.82,-308.51 1602.95,-318.37 1609.95,-318.63"/>
</g>
<!-- /lib/panels/center/center_panel.dart&#45;&gt;/lib/models/document_state.dart -->
<g id="edge20" class="edge">
<title>/lib/panels/center/center_panel.dart&#45;&gt;/lib/models/document_state.dart</title>
<path fill="none" stroke="#aabbaa" stroke-width="1.3" stroke-opacity="0.533333" d="M1564.7,-352.36C1556.23,-349.33 1547.21,-346.64 1538.54,-345 1518.7,-341.25 829.31,-346.6 811.54,-337 779.98,-319.95 795.82,-290.72 766.54,-270 754.93,-261.78 745.47,-272.2 735.54,-262 709.16,-234.88 742.93,-206.12 716.54,-179 706.62,-168.8 698.44,-177.02 685.54,-171 672.41,-164.86 659.18,-156.06 647.98,-147.67"/>
<polygon fill="#aabbaa" fill-opacity="0.533333" stroke="#aabbaa" stroke-width="1.3" stroke-opacity="0.533333" points="650.32,-145.06 640.27,-141.69 646.02,-150.59 650.32,-145.06"/>
</g>
<!-- /lib/panels/center/center_panel.dart&#45;&gt;/lib/models/file_system_item.dart -->
<g id="edge26" class="edge">
<title>/lib/panels/center/center_panel.dart&#45;&gt;/lib/models/file_system_item.dart</title>
<path fill="none" stroke="#aabbaa" stroke-width="1.3" stroke-opacity="0.533333" d="M1565.06,-352.45C1556.48,-349.38 1547.34,-346.64 1538.54,-345 1504.11,-338.58 309.72,-350.84 277.54,-337 235.09,-318.75 222.79,-304.87 205.54,-262 191.78,-227.78 181.51,-123.98 205.54,-96 233.24,-63.76 346.62,-54.36 424.46,-51.77"/>
<polygon fill="#aabbaa" fill-opacity="0.533333" stroke="#aabbaa" stroke-width="1.3" stroke-opacity="0.533333" points="424.3,-55.28 434.19,-51.48 424.09,-48.28 424.3,-55.28"/>
</g>
<!-- /lib/screens/welcome_screen.dart -->
<g id="node25" class="node">
<title>/lib/screens/welcome_screen.dart</title>
<path fill="Lavender" stroke="black" stroke-width="1.3" d="M2086.42,-472C2086.42,-472 1982.67,-472 1982.67,-472 1976.67,-472 1970.67,-466 1970.67,-460 1970.67,-460 1970.67,-448 1970.67,-448 1970.67,-442 1976.67,-436 1982.67,-436 1982.67,-436 2086.42,-436 2086.42,-436 2092.42,-436 2098.42,-442 2098.42,-448 2098.42,-448 2098.42,-460 2098.42,-460 2098.42,-466 2092.42,-472 2086.42,-472"/>
<text xml:space="preserve" text-anchor="middle" x="2034.54" y="-448.75" font-family="Arial" font-size="15.00">welcome_screen</text>
</g>
<!-- /lib/panels/center/center_panel.dart&#45;&gt;/lib/screens/welcome_screen.dart -->
<g id="edge22" class="edge">
<title>/lib/panels/center/center_panel.dart&#45;&gt;/lib/screens/welcome_screen.dart</title>
<path fill="none" stroke="#aabbaa" stroke-width="1.3" stroke-opacity="0.533333" d="M1656.25,-385.05C1701.43,-395.98 1768.94,-411.17 1828.54,-420 1870.9,-426.28 1882.23,-421.46 1924.54,-428 1935.72,-429.73 1947.45,-431.95 1958.92,-434.35"/>
<polygon fill="#aabbaa" fill-opacity="0.533333" stroke="#aabbaa" stroke-width="1.3" stroke-opacity="0.533333" points="1957.83,-437.7 1968.35,-436.39 1959.31,-430.85 1957.83,-437.7"/>
</g>
<!-- /lib/widgets/resizable_splitter.dart -->
<g id="node33" class="node">
<title>/lib/widgets/resizable_splitter.dart</title>
<path fill="Lavender" stroke="black" stroke-width="1.3" d="M1166.42,-140C1166.42,-140 1062.67,-140 1062.67,-140 1056.67,-140 1050.67,-134 1050.67,-128 1050.67,-128 1050.67,-116 1050.67,-116 1050.67,-110 1056.67,-104 1062.67,-104 1062.67,-104 1166.42,-104 1166.42,-104 1172.42,-104 1178.42,-110 1178.42,-116 1178.42,-116 1178.42,-128 1178.42,-128 1178.42,-134 1172.42,-140 1166.42,-140"/>
<text xml:space="preserve" text-anchor="middle" x="1114.54" y="-116.75" font-family="Arial" font-size="15.00">resizable_splitter</text>
</g>
<!-- /lib/panels/center/center_panel.dart&#45;&gt;/lib/widgets/resizable_splitter.dart -->
<g id="edge25" class="edge">
<title>/lib/panels/center/center_panel.dart&#45;&gt;/lib/widgets/resizable_splitter.dart</title>
<path fill="none" stroke="#aabbaa" stroke-width="1.3" stroke-opacity="0.533333" d="M1564.7,-352.4C1556.22,-349.37 1547.21,-346.67 1538.54,-345 1526.46,-342.67 1104.17,-345.78 1095.54,-337 1046.88,-287.44 1079.06,-196.75 1100.23,-150.99"/>
<polygon fill="#aabbaa" fill-opacity="0.533333" stroke="#aabbaa" stroke-width="1.3" stroke-opacity="0.533333" points="1103.3,-152.68 1104.47,-142.15 1096.99,-149.65 1103.3,-152.68"/>
</g>
<!-- /lib/panels/left/git_panel.dart -->
<g id="node10" class="node">
<title>/lib/panels/left/git_panel.dart</title>
<path fill="Lavender" stroke="black" stroke-width="1.3" d="M1314.54,-231C1314.54,-231 1262.54,-231 1262.54,-231 1256.54,-231 1250.54,-225 1250.54,-219 1250.54,-219 1250.54,-207 1250.54,-207 1250.54,-201 1256.54,-195 1262.54,-195 1262.54,-195 1314.54,-195 1314.54,-195 1320.54,-195 1326.54,-201 1326.54,-207 1326.54,-207 1326.54,-219 1326.54,-219 1326.54,-225 1320.54,-231 1314.54,-231"/>
<text xml:space="preserve" text-anchor="middle" x="1288.54" y="-207.75" font-family="Arial" font-size="15.00">git_panel</text>
</g>
<!-- /lib/services/git_service.dart -->
<g id="node29" class="node">
<title>/lib/services/git_service.dart</title>
<path fill="Lavender" stroke="black" stroke-width="1.3" d="M657.17,-231C657.17,-231 593.92,-231 593.92,-231 587.92,-231 581.92,-225 581.92,-219 581.92,-219 581.92,-207 581.92,-207 581.92,-201 587.92,-195 593.92,-195 593.92,-195 657.17,-195 657.17,-195 663.17,-195 669.17,-201 669.17,-207 669.17,-207 669.17,-219 669.17,-219 669.17,-225 663.17,-231 657.17,-231"/>
<text xml:space="preserve" text-anchor="middle" x="625.54" y="-207.75" font-family="Arial" font-size="15.00">git_service</text>
</g>
<!-- /lib/panels/left/git_panel.dart&#45;&gt;/lib/services/git_service.dart -->
<g id="edge27" class="edge">
<title>/lib/panels/left/git_panel.dart&#45;&gt;/lib/services/git_service.dart</title>
<path fill="none" stroke="#aabbaa" stroke-width="1.3" stroke-opacity="0.533333" d="M1250.03,-226.27C1209.81,-239.38 1144.62,-258.51 1086.54,-266 1067.7,-268.43 763.13,-269.94 744.54,-266 717.74,-260.31 689.65,-248.13 667.49,-236.88"/>
<polygon fill="#aabbaa" fill-opacity="0.533333" stroke="#aabbaa" stroke-width="1.3" stroke-opacity="0.533333" points="669.35,-233.91 658.87,-232.38 666.11,-240.11 669.35,-233.91"/>
</g>
<!-- /lib/widgets/diff_viewer.dart -->
<g id="node34" class="node">
<title>/lib/widgets/diff_viewer.dart</title>
<path fill="Lavender" stroke="black" stroke-width="1.3" d="M1270.79,-140C1270.79,-140 1208.29,-140 1208.29,-140 1202.29,-140 1196.29,-134 1196.29,-128 1196.29,-128 1196.29,-116 1196.29,-116 1196.29,-110 1202.29,-104 1208.29,-104 1208.29,-104 1270.79,-104 1270.79,-104 1276.79,-104 1282.79,-110 1282.79,-116 1282.79,-116 1282.79,-128 1282.79,-128 1282.79,-134 1276.79,-140 1270.79,-140"/>
<text xml:space="preserve" text-anchor="middle" x="1239.54" y="-116.75" font-family="Arial" font-size="15.00">diff_viewer</text>
</g>
<!-- /lib/panels/left/git_panel.dart&#45;&gt;/lib/widgets/diff_viewer.dart -->
<g id="edge28" class="edge">
<title>/lib/panels/left/git_panel.dart&#45;&gt;/lib/widgets/diff_viewer.dart</title>
<path fill="none" stroke="#aabbaa" stroke-width="1.3" stroke-opacity="0.533333" d="M1278.86,-194.42C1272.02,-181.98 1262.7,-165.06 1254.85,-150.81"/>
<polygon fill="#aabbaa" fill-opacity="0.533333" stroke="#aabbaa" stroke-width="1.3" stroke-opacity="0.533333" points="1258.04,-149.34 1250.15,-142.27 1251.91,-152.72 1258.04,-149.34"/>
</g>
<!-- /lib/panels/left/left_panel_controls.dart -->
<g id="node11" class="node">
<title>/lib/panels/left/left_panel_controls.dart</title>
<path fill="Lavender" stroke="black" stroke-width="1.3" d="M1237.17,-472C1237.17,-472 1119.92,-472 1119.92,-472 1113.92,-472 1107.92,-466 1107.92,-460 1107.92,-460 1107.92,-448 1107.92,-448 1107.92,-442 1113.92,-436 1119.92,-436 1119.92,-436 1237.17,-436 1237.17,-436 1243.17,-436 1249.17,-442 1249.17,-448 1249.17,-448 1249.17,-460 1249.17,-460 1249.17,-466 1243.17,-472 1237.17,-472"/>
<text xml:space="preserve" text-anchor="middle" x="1178.54" y="-448.75" font-family="Arial" font-size="15.00">left_panel_controls</text>
</g>
<!-- /lib/panels/left/base_panel.dart -->
<g id="node12" class="node">
<title>/lib/panels/left/base_panel.dart</title>
<path fill="Lavender" stroke="black" stroke-width="1.3" d="M1335.79,-306C1335.79,-306 1267.29,-306 1267.29,-306 1261.29,-306 1255.29,-300 1255.29,-294 1255.29,-294 1255.29,-282 1255.29,-282 1255.29,-276 1261.29,-270 1267.29,-270 1267.29,-270 1335.79,-270 1335.79,-270 1341.79,-270 1347.79,-276 1347.79,-282 1347.79,-282 1347.79,-294 1347.79,-294 1347.79,-300 1341.79,-306 1335.79,-306"/>
<text xml:space="preserve" text-anchor="middle" x="1301.54" y="-282.75" font-family="Arial" font-size="15.00">base_panel</text>
</g>
<!-- /lib/panels/left/base_panel.dart&#45;&gt;/lib/providers/app_providers.dart -->
<g id="edge34" class="edge">
<title>/lib/panels/left/base_panel.dart&#45;&gt;/lib/providers/app_providers.dart</title>
<path fill="none" stroke="#aabbaa" stroke-width="1.3" stroke-opacity="0.533333" d="M1254.72,-285.93C1166.45,-283.6 978.68,-276.99 915.54,-262 891.81,-256.36 866.72,-246.18 846.22,-236.63"/>
<polygon fill="#aabbaa" fill-opacity="0.533333" stroke="#aabbaa" stroke-width="1.3" stroke-opacity="0.533333" points="847.96,-233.58 837.43,-232.43 844.94,-239.9 847.96,-233.58"/>
</g>
<!-- /lib/panels/left/base_panel.dart&#45;&gt;/lib/panels/left/git_panel.dart -->
<g id="edge33" class="edge">
<title>/lib/panels/left/base_panel.dart&#45;&gt;/lib/panels/left/git_panel.dart</title>
<path fill="none" stroke="#aabbaa" stroke-width="1.3" stroke-opacity="0.533333" d="M1298.46,-269.7C1297.05,-261.76 1295.33,-252.12 1293.73,-243.11"/>
<polygon fill="#aabbaa" fill-opacity="0.533333" stroke="#aabbaa" stroke-width="1.3" stroke-opacity="0.533333" points="1297.19,-242.6 1291.99,-233.37 1290.3,-243.82 1297.19,-242.6"/>
</g>
<!-- /lib/panels/left/base_panel.dart&#45;&gt;/lib/utils/message_helper.dart -->
<g id="edge32" class="edge">
<title>/lib/panels/left/base_panel.dart&#45;&gt;/lib/utils/message_helper.dart</title>
<path fill="none" stroke="#aabbaa" stroke-width="1.3" stroke-opacity="0.533333" d="M1348.28,-283.08C1396.05,-279.2 1472.42,-273.38 1538.54,-270 1567.63,-268.51 1772.53,-269.98 1800.54,-262 1818.36,-256.93 1836.38,-247.19 1851.05,-237.8"/>
<polygon fill="#aabbaa" fill-opacity="0.533333" stroke="#aabbaa" stroke-width="1.3" stroke-opacity="0.533333" points="1852.61,-240.97 1858.99,-232.51 1848.73,-235.14 1852.61,-240.97"/>
</g>
<!-- /lib/panels/left/base_panel.dart&#45;&gt;/lib/models/project_node.dart -->
<g id="edge29" class="edge">
<title>/lib/panels/left/base_panel.dart&#45;&gt;/lib/models/project_node.dart</title>
<path fill="none" stroke="#aabbaa" stroke-width="1.3" stroke-opacity="0.533333" d="M1254.86,-285.11C1187.04,-281.97 1064.74,-274.74 1022.54,-262 948.48,-239.64 944.29,-198.96 869.54,-179 834.97,-169.77 581.17,-183.26 547.54,-171 534.3,-166.17 521.77,-157.15 511.62,-148.22"/>
<polygon fill="#aabbaa" fill-opacity="0.533333" stroke="#aabbaa" stroke-width="1.3" stroke-opacity="0.533333" points="514.14,-145.79 504.45,-141.52 509.36,-150.9 514.14,-145.79"/>
</g>
<!-- /lib/panels/left/base_panel.dart&#45;&gt;/lib/models/file_system_item.dart -->
<g id="edge30" class="edge">
<title>/lib/panels/left/base_panel.dart&#45;&gt;/lib/models/file_system_item.dart</title>
<path fill="none" stroke="#aabbaa" stroke-width="1.3" stroke-opacity="0.533333" d="M1348.27,-282.86C1396.03,-278.81 1472.4,-272.86 1538.54,-270 1546.09,-269.67 2077.24,-267.38 2082.54,-262 2108.44,-235.72 2106.9,-206.71 2082.54,-179 1982.12,-64.76 878.07,-52.36 576.35,-51.11"/>
<polygon fill="#aabbaa" fill-opacity="0.533333" stroke="#aabbaa" stroke-width="1.3" stroke-opacity="0.533333" points="576.67,-47.62 566.66,-51.08 576.65,-54.62 576.67,-47.62"/>
</g>
<!-- /lib/panels/left/base_panel.dart&#45;&gt;/lib/services/git_service.dart -->
<g id="edge31" class="edge">
<title>/lib/panels/left/base_panel.dart&#45;&gt;/lib/services/git_service.dart</title>
<path fill="none" stroke="#aabbaa" stroke-width="1.3" stroke-opacity="0.533333" d="M1254.82,-270.62C1253.72,-270.4 1252.63,-270.19 1251.54,-270 1195.05,-260.21 791.58,-274.15 735.54,-262 712.01,-256.9 687.3,-246.62 667.27,-236.87"/>
<polygon fill="#aabbaa" fill-opacity="0.533333" stroke="#aabbaa" stroke-width="1.3" stroke-opacity="0.533333" points="668.93,-233.79 658.43,-232.43 665.8,-240.05 668.93,-233.79"/>
</g>
<!-- /lib/panels/left/directory_contents.dart -->
<g id="node13" class="node">
<title>/lib/panels/left/directory_contents.dart</title>
<path fill="Lavender" stroke="black" stroke-width="1.3" d="M1235.04,-389C1235.04,-389 1120.04,-389 1120.04,-389 1114.04,-389 1108.04,-383 1108.04,-377 1108.04,-377 1108.04,-365 1108.04,-365 1108.04,-359 1114.04,-353 1120.04,-353 1120.04,-353 1235.04,-353 1235.04,-353 1241.04,-353 1247.04,-359 1247.04,-365 1247.04,-365 1247.04,-377 1247.04,-377 1247.04,-383 1241.04,-389 1235.04,-389"/>
<text xml:space="preserve" text-anchor="middle" x="1177.54" y="-365.75" font-family="Arial" font-size="15.00">directory_contents</text>
</g>
<!-- /lib/panels/left/directory_contents.dart&#45;&gt;/lib/models/file_system_item.dart -->
<g id="edge37" class="edge">
<title>/lib/panels/left/directory_contents.dart&#45;&gt;/lib/models/file_system_item.dart</title>
<path fill="none" stroke="#aabbaa" stroke-width="1.3" stroke-opacity="0.533333" d="M1128.21,-352.47C1117.56,-349.39 1106.28,-346.65 1095.54,-345 1083.08,-343.09 197.51,-344.73 187.54,-337 160.28,-315.86 172.03,-296.21 167.54,-262 157.96,-188.85 118.99,-151.55 167.54,-96 200.21,-58.62 336.6,-51.05 424.37,-50.18"/>
<polygon fill="#aabbaa" fill-opacity="0.533333" stroke="#aabbaa" stroke-width="1.3" stroke-opacity="0.533333" points="424.21,-53.68 434.19,-50.11 424.16,-46.68 424.21,-53.68"/>
</g>
<!-- /lib/panels/left/directory_contents.dart&#45;&gt;/lib/services/git_service.dart -->
<g id="edge36" class="edge">
<title>/lib/panels/left/directory_contents.dart&#45;&gt;/lib/services/git_service.dart</title>
<path fill="none" stroke="#aabbaa" stroke-width="1.3" stroke-opacity="0.533333" d="M1127.75,-352.44C1117.24,-349.4 1106.13,-346.69 1095.54,-345 1074.14,-341.59 723.22,-349.54 705.54,-337 679.62,-318.61 697.61,-296.81 680.54,-270 673.56,-259.02 664.13,-248.44 655.06,-239.49"/>
<polygon fill="#aabbaa" fill-opacity="0.533333" stroke="#aabbaa" stroke-width="1.3" stroke-opacity="0.533333" points="657.66,-237.13 647.99,-232.8 652.84,-242.22 657.66,-237.13"/>
</g>
<!-- /lib/services/file_system_service.dart -->
<g id="node32" class="node">
<title>/lib/services/file_system_service.dart</title>
<path fill="Lavender" stroke="black" stroke-width="1.3" d="M524.79,-306C524.79,-306 402.29,-306 402.29,-306 396.29,-306 390.29,-300 390.29,-294 390.29,-294 390.29,-282 390.29,-282 390.29,-276 396.29,-270 402.29,-270 402.29,-270 524.79,-270 524.79,-270 530.79,-270 536.79,-276 536.79,-282 536.79,-282 536.79,-294 536.79,-294 536.79,-300 530.79,-306 524.79,-306"/>
<text xml:space="preserve" text-anchor="middle" x="463.54" y="-282.75" font-family="Arial" font-size="15.00">file_system_service</text>
</g>
<!-- /lib/panels/left/directory_contents.dart&#45;&gt;/lib/services/file_system_service.dart -->
<g id="edge35" class="edge">
<title>/lib/panels/left/directory_contents.dart&#45;&gt;/lib/services/file_system_service.dart</title>
<path fill="none" stroke="#aabbaa" stroke-width="1.3" stroke-opacity="0.533333" d="M1127.76,-352.39C1117.25,-349.36 1106.13,-346.66 1095.54,-345 1035.27,-335.57 605.35,-353.24 546.54,-337 528.68,-332.07 510.66,-322.35 496,-312.94"/>
<polygon fill="#aabbaa" fill-opacity="0.533333" stroke="#aabbaa" stroke-width="1.3" stroke-opacity="0.533333" points="498.32,-310.28 488.06,-307.63 494.43,-316.1 498.32,-310.28"/>
</g>
<!-- /lib/panels/left/folder_panel.dart -->
<g id="node14" class="node">
<title>/lib/panels/left/folder_panel.dart</title>
<path fill="Lavender" stroke="black" stroke-width="1.3" d="M1350.42,-389C1350.42,-389 1276.67,-389 1276.67,-389 1270.67,-389 1264.67,-383 1264.67,-377 1264.67,-377 1264.67,-365 1264.67,-365 1264.67,-359 1270.67,-353 1276.67,-353 1276.67,-353 1350.42,-353 1350.42,-353 1356.42,-353 1362.42,-359 1362.42,-365 1362.42,-365 1362.42,-377 1362.42,-377 1362.42,-383 1356.42,-389 1350.42,-389"/>
<text xml:space="preserve" text-anchor="middle" x="1313.54" y="-365.75" font-family="Arial" font-size="15.00">folder_panel</text>
</g>
<!-- /lib/panels/left/folder_panel.dart&#45;&gt;/lib/panels/left/base_panel.dart -->
<g id="edge41" class="edge">
<title>/lib/panels/left/folder_panel.dart&#45;&gt;/lib/panels/left/base_panel.dart</title>
<path fill="none" stroke="#aabbaa" stroke-width="1.3" stroke-opacity="0.533333" d="M1310.94,-352.42C1309.46,-342.45 1307.57,-329.7 1305.88,-318.26"/>
<polygon fill="#aabbaa" fill-opacity="0.533333" stroke="#aabbaa" stroke-width="1.3" stroke-opacity="0.533333" points="1309.36,-317.87 1304.43,-308.49 1302.43,-318.89 1309.36,-317.87"/>
</g>
<!-- /lib/panels/left/folder_panel.dart&#45;&gt;/lib/models/project_node.dart -->
<g id="edge38" class="edge">
<title>/lib/panels/left/folder_panel.dart&#45;&gt;/lib/models/project_node.dart</title>
<path fill="none" stroke="#aabbaa" stroke-width="1.3" stroke-opacity="0.533333" d="M1279.32,-352.39C1271.98,-349.36 1264.15,-346.66 1256.54,-345 1228.8,-338.96 769.05,-352.92 745.54,-337 718.82,-318.9 738.92,-294.18 717.54,-270 712.8,-264.63 707.85,-267.73 703.54,-262 680.76,-231.66 712.65,-203.34 683.54,-179 671.93,-169.29 561.67,-176.43 547.54,-171 534.58,-166.02 522.23,-157.15 512.15,-148.38"/>
<polygon fill="#aabbaa" fill-opacity="0.533333" stroke="#aabbaa" stroke-width="1.3" stroke-opacity="0.533333" points="514.74,-146.01 505.02,-141.8 509.99,-151.15 514.74,-146.01"/>
</g>
<!-- /lib/panels/left/folder_panel.dart&#45;&gt;/lib/models/file_system_item.dart -->
<g id="edge39" class="edge">
<title>/lib/panels/left/folder_panel.dart&#45;&gt;/lib/models/file_system_item.dart</title>
<path fill="none" stroke="#aabbaa" stroke-width="1.3" stroke-opacity="0.533333" d="M1279.63,-352.47C1272.21,-349.39 1264.26,-346.65 1256.54,-345 1242.3,-341.96 219.06,-345.92 207.54,-337 180.27,-315.88 192.03,-296.21 187.54,-262 177.96,-188.85 139.23,-151.76 187.54,-96 217.57,-61.35 341.67,-52.76 424.29,-50.97"/>
<polygon fill="#aabbaa" fill-opacity="0.533333" stroke="#aabbaa" stroke-width="1.3" stroke-opacity="0.533333" points="424.26,-54.47 434.2,-50.79 424.14,-47.47 424.26,-54.47"/>
</g>
<!-- /lib/panels/left/folder_panel.dart&#45;&gt;/lib/services/git_service.dart -->
<g id="edge40" class="edge">
<title>/lib/panels/left/folder_panel.dart&#45;&gt;/lib/services/git_service.dart</title>
<path fill="none" stroke="#aabbaa" stroke-width="1.3" stroke-opacity="0.533333" d="M1279.32,-352.38C1271.98,-349.35 1264.15,-346.65 1256.54,-345 1242.13,-341.86 737.71,-345.35 725.54,-337 699.07,-318.84 720,-293.88 698.54,-270 693.49,-264.38 689.82,-266.21 683.54,-262 673.39,-255.19 662.92,-246.95 653.71,-239.24"/>
<polygon fill="#aabbaa" fill-opacity="0.533333" stroke="#aabbaa" stroke-width="1.3" stroke-opacity="0.533333" points="656.01,-236.6 646.14,-232.75 651.45,-241.91 656.01,-236.6"/>
</g>
<!-- /lib/panels/left/file_explorer.dart -->
<g id="node15" class="node">
<title>/lib/panels/left/file_explorer.dart</title>
<path fill="Lavender" stroke="black" stroke-width="1.3" d="M1352.04,-472C1352.04,-472 1279.04,-472 1279.04,-472 1273.04,-472 1267.04,-466 1267.04,-460 1267.04,-460 1267.04,-448 1267.04,-448 1267.04,-442 1273.04,-436 1279.04,-436 1279.04,-436 1352.04,-436 1352.04,-436 1358.04,-436 1364.04,-442 1364.04,-448 1364.04,-448 1364.04,-460 1364.04,-460 1364.04,-466 1358.04,-472 1352.04,-472"/>
<text xml:space="preserve" text-anchor="middle" x="1315.54" y="-448.75" font-family="Arial" font-size="15.00">file_explorer</text>
</g>
<!-- /lib/panels/left/file_explorer.dart&#45;&gt;/lib/panels/left/directory_contents.dart -->
<g id="edge45" class="edge">
<title>/lib/panels/left/file_explorer.dart&#45;&gt;/lib/panels/left/directory_contents.dart</title>
<path fill="none" stroke="#aabbaa" stroke-width="1.3" stroke-opacity="0.533333" d="M1283,-435.48C1274.05,-430.56 1264.38,-425.14 1255.54,-420 1242.21,-412.24 1227.77,-403.46 1214.99,-395.55"/>
<polygon fill="#aabbaa" fill-opacity="0.533333" stroke="#aabbaa" stroke-width="1.3" stroke-opacity="0.533333" points="1217.15,-392.78 1206.81,-390.48 1213.46,-398.73 1217.15,-392.78"/>
</g>
<!-- /lib/panels/left/file_explorer.dart&#45;&gt;/lib/models/file_system_item.dart -->
<g id="edge44" class="edge">
<title>/lib/panels/left/file_explorer.dart&#45;&gt;/lib/models/file_system_item.dart</title>
<path fill="none" stroke="#aabbaa" stroke-width="1.3" stroke-opacity="0.533333" d="M1281.63,-435.47C1274.21,-432.39 1266.26,-429.65 1258.54,-428 1205.57,-416.67 336.35,-432.06 283.54,-420 199.23,-400.75 162.95,-403.4 107.54,-337 73.11,-295.74 51.66,-136 87.54,-96 109.58,-71.43 311.2,-58.99 424.37,-53.9"/>
<polygon fill="#aabbaa" fill-opacity="0.533333" stroke="#aabbaa" stroke-width="1.3" stroke-opacity="0.533333" points="424.23,-57.41 434.07,-53.47 423.93,-50.41 424.23,-57.41"/>
</g>
<!-- /lib/panels/left/file_explorer.dart&#45;&gt;/lib/services/git_service.dart -->
<g id="edge43" class="edge">
<title>/lib/panels/left/file_explorer.dart&#45;&gt;/lib/services/git_service.dart</title>
<path fill="none" stroke="#aabbaa" stroke-width="1.3" stroke-opacity="0.533333" d="M1281.32,-435.36C1273.99,-432.34 1266.15,-429.64 1258.54,-428 1183.38,-411.79 642.61,-431.26 566.54,-420 435.62,-400.61 360.03,-442.83 280.54,-337 262.66,-313.19 259.78,-291.34 280.54,-270 291.86,-258.37 557.48,-268.04 572.54,-262 584.3,-257.28 595.1,-248.71 603.84,-240.09"/>
<polygon fill="#aabbaa" fill-opacity="0.533333" stroke="#aabbaa" stroke-width="1.3" stroke-opacity="0.533333" points="606.18,-242.71 610.5,-233.04 601.09,-237.9 606.18,-242.71"/>
</g>
<!-- /lib/panels/left/file_explorer.dart&#45;&gt;/lib/services/file_system_service.dart -->
<g id="edge42" class="edge">
<title>/lib/panels/left/file_explorer.dart&#45;&gt;/lib/services/file_system_service.dart</title>
<path fill="none" stroke="#aabbaa" stroke-width="1.3" stroke-opacity="0.533333" d="M1281.31,-435.42C1273.97,-432.39 1266.14,-429.68 1258.54,-428 1175.85,-409.75 961.48,-431.26 877.54,-420 727.22,-399.84 687.11,-393.96 546.54,-337 530.41,-330.46 513.6,-321.25 499.36,-312.64"/>
<polygon fill="#aabbaa" fill-opacity="0.533333" stroke="#aabbaa" stroke-width="1.3" stroke-opacity="0.533333" points="501.51,-309.86 491.17,-307.57 497.83,-315.81 501.51,-309.86"/>
</g>
<!-- /lib/panels/left/left_panel.dart -->
<g id="node16" class="node">
<title>/lib/panels/left/left_panel.dart</title>
<path fill="Lavender" stroke="black" stroke-width="1.3" d="M1471.79,-472C1471.79,-472 1415.29,-472 1415.29,-472 1409.29,-472 1403.29,-466 1403.29,-460 1403.29,-460 1403.29,-448 1403.29,-448 1403.29,-442 1409.29,-436 1415.29,-436 1415.29,-436 1471.79,-436 1471.79,-436 1477.79,-436 1483.79,-442 1483.79,-448 1483.79,-448 1483.79,-460 1483.79,-460 1483.79,-466 1477.79,-472 1471.79,-472"/>
<text xml:space="preserve" text-anchor="middle" x="1443.54" y="-448.75" font-family="Arial" font-size="15.00">left_panel</text>
</g>
<!-- /lib/panels/left/left_panel.dart&#45;&gt;/lib/panels/left/git_panel.dart -->
<g id="edge48" class="edge">
<title>/lib/panels/left/left_panel.dart&#45;&gt;/lib/panels/left/git_panel.dart</title>
<path fill="none" stroke="#aabbaa" stroke-width="1.3" stroke-opacity="0.533333" d="M1484.41,-443.46C1496.51,-438.53 1508.41,-431.11 1515.54,-420 1533.55,-391.95 1532.21,-373.87 1515.54,-345 1477.62,-279.34 1392.88,-243.65 1338.34,-226.74"/>
<polygon fill="#aabbaa" fill-opacity="0.533333" stroke="#aabbaa" stroke-width="1.3" stroke-opacity="0.533333" points="1339.66,-223.48 1329.08,-223.97 1337.66,-230.19 1339.66,-223.48"/>
</g>
<!-- /lib/panels/left/left_panel.dart&#45;&gt;/lib/panels/left/folder_panel.dart -->
<g id="edge46" class="edge">
<title>/lib/panels/left/left_panel.dart&#45;&gt;/lib/panels/left/folder_panel.dart</title>
<path fill="none" stroke="#aabbaa" stroke-width="1.3" stroke-opacity="0.533333" d="M1402.96,-436.64C1392.44,-431.8 1381.33,-426.14 1371.54,-420 1361,-413.38 1350.27,-405.04 1340.96,-397.18"/>
<polygon fill="#aabbaa" fill-opacity="0.533333" stroke="#aabbaa" stroke-width="1.3" stroke-opacity="0.533333" points="1343.51,-394.76 1333.66,-390.85 1338.92,-400.05 1343.51,-394.76"/>
</g>
<!-- /lib/panels/left/organized_panel.dart -->
<g id="node17" class="node">
<title>/lib/panels/left/organized_panel.dart</title>
<path fill="Lavender" stroke="black" stroke-width="1.3" d="M1494.29,-389C1494.29,-389 1392.79,-389 1392.79,-389 1386.79,-389 1380.79,-383 1380.79,-377 1380.79,-377 1380.79,-365 1380.79,-365 1380.79,-359 1386.79,-353 1392.79,-353 1392.79,-353 1494.29,-353 1494.29,-353 1500.29,-353 1506.29,-359 1506.29,-365 1506.29,-365 1506.29,-377 1506.29,-377 1506.29,-383 1500.29,-389 1494.29,-389"/>
<text xml:space="preserve" text-anchor="middle" x="1443.54" y="-365.75" font-family="Arial" font-size="15.00">organized_panel</text>
</g>
<!-- /lib/panels/left/left_panel.dart&#45;&gt;/lib/panels/left/organized_panel.dart -->
<g id="edge47" class="edge">
<title>/lib/panels/left/left_panel.dart&#45;&gt;/lib/panels/left/organized_panel.dart</title>
<path fill="none" stroke="#aabbaa" stroke-width="1.3" stroke-opacity="0.533333" d="M1443.54,-435.42C1443.54,-425.45 1443.54,-412.7 1443.54,-401.26"/>
<polygon fill="#aabbaa" fill-opacity="0.533333" stroke="#aabbaa" stroke-width="1.3" stroke-opacity="0.533333" points="1447.04,-401.51 1443.54,-391.51 1440.04,-401.51 1447.04,-401.51"/>
</g>
<!-- /lib/panels/left/left_panel.dart&#45;&gt;/lib/models/file_system_item.dart -->
<g id="edge49" class="edge">
<title>/lib/panels/left/left_panel.dart&#45;&gt;/lib/models/file_system_item.dart</title>
<path fill="none" stroke="#aabbaa" stroke-width="1.3" stroke-opacity="0.533333" d="M1402.7,-435.9C1393.28,-432.67 1383.19,-429.75 1373.54,-428 1319.31,-418.16 932.55,-423.5 877.54,-420 577.19,-400.89 503.84,-376.64 204.54,-345 186.78,-343.12 138.22,-348.49 124.54,-337 103.93,-319.68 81.6,-116.07 99.54,-96 120.77,-72.25 314.23,-59.54 424.49,-54.16"/>
<polygon fill="#aabbaa" fill-opacity="0.533333" stroke="#aabbaa" stroke-width="1.3" stroke-opacity="0.533333" points="424.41,-57.67 434.23,-53.7 424.08,-50.68 424.41,-57.67"/>
</g>
<!-- /lib/panels/left/organized_panel.dart&#45;&gt;/lib/panels/left/base_panel.dart -->
<g id="edge51" class="edge">
<title>/lib/panels/left/organized_panel.dart&#45;&gt;/lib/panels/left/base_panel.dart</title>
<path fill="none" stroke="#aabbaa" stroke-width="1.3" stroke-opacity="0.533333" d="M1412.73,-352.42C1392.17,-340.7 1364.9,-325.14 1342.52,-312.37"/>
<polygon fill="#aabbaa" fill-opacity="0.533333" stroke="#aabbaa" stroke-width="1.3" stroke-opacity="0.533333" points="1344.43,-309.43 1334,-307.52 1340.96,-315.51 1344.43,-309.43"/>
</g>
<!-- /lib/panels/left/organized_panel.dart&#45;&gt;/lib/models/project_node.dart -->
<g id="edge50" class="edge">
<title>/lib/panels/left/organized_panel.dart&#45;&gt;/lib/models/project_node.dart</title>
<path fill="none" stroke="#aabbaa" stroke-width="1.3" stroke-opacity="0.533333" d="M1399.97,-352.38C1390.73,-349.35 1380.93,-346.65 1371.54,-345 1339.48,-339.37 814.48,-351.93 785.54,-337 752.76,-320.08 763.65,-295.02 736.54,-270 731.56,-265.4 727.68,-267.38 723.54,-262 700.05,-231.47 728.85,-202.79 698.54,-179 685.33,-168.62 563.25,-176.98 547.54,-171 534.56,-166.06 522.22,-157.19 512.13,-148.42"/>
<polygon fill="#aabbaa" fill-opacity="0.533333" stroke="#aabbaa" stroke-width="1.3" stroke-opacity="0.533333" points="514.72,-146.05 505,-141.83 509.98,-151.19 514.72,-146.05"/>
</g>
<!-- /lib/widgets/message_widget.dart -->
<g id="node36" class="node">
<title>/lib/widgets/message_widget.dart</title>
<path fill="Lavender" stroke="black" stroke-width="1.3" d="M1416.42,-140C1416.42,-140 1312.67,-140 1312.67,-140 1306.67,-140 1300.67,-134 1300.67,-128 1300.67,-128 1300.67,-116 1300.67,-116 1300.67,-110 1306.67,-104 1312.67,-104 1312.67,-104 1416.42,-104 1416.42,-104 1422.42,-104 1428.42,-110 1428.42,-116 1428.42,-116 1428.42,-128 1428.42,-128 1428.42,-134 1422.42,-140 1416.42,-140"/>
<text xml:space="preserve" text-anchor="middle" x="1364.54" y="-116.75" font-family="Arial" font-size="15.00">message_widget</text>
</g>
<!-- /lib/utils/message_helper.dart&#45;&gt;/lib/widgets/message_widget.dart -->
<g id="edge52" class="edge">
<title>/lib/utils/message_helper.dart&#45;&gt;/lib/widgets/message_widget.dart</title>
<path fill="none" stroke="#aabbaa" stroke-width="1.3" stroke-opacity="0.533333" d="M1845.37,-194.5C1831.51,-188.77 1815.56,-182.88 1800.54,-179 1676.93,-147.03 1528.66,-132.93 1440.77,-127"/>
<polygon fill="#aabbaa" fill-opacity="0.533333" stroke="#aabbaa" stroke-width="1.3" stroke-opacity="0.533333" points="1441.21,-123.52 1431,-126.36 1440.75,-130.5 1441.21,-123.52"/>
</g>
<!-- /lib/models/project_node.dart&#45;&gt;/lib/models/file_system_item.dart -->
<g id="edge53" class="edge">
<title>/lib/models/project_node.dart&#45;&gt;/lib/models/file_system_item.dart</title>
<path fill="none" stroke="#aabbaa" stroke-width="1.3" stroke-opacity="0.533333" d="M490.76,-103.7C492.08,-96.6 493.64,-88.18 495.12,-80.18"/>
<polygon fill="#aabbaa" fill-opacity="0.533333" stroke="#aabbaa" stroke-width="1.3" stroke-opacity="0.533333" points="498.53,-81 496.92,-70.53 491.65,-79.72 498.53,-81"/>
</g>
<!-- /lib/screens/main_layout.dart -->
<g id="node23" class="node">
<title>/lib/screens/main_layout.dart</title>
<path fill="Lavender" stroke="black" stroke-width="1.3" d="M2334.67,-472C2334.67,-472 2262.42,-472 2262.42,-472 2256.42,-472 2250.42,-466 2250.42,-460 2250.42,-460 2250.42,-448 2250.42,-448 2250.42,-442 2256.42,-436 2262.42,-436 2262.42,-436 2334.67,-436 2334.67,-436 2340.67,-436 2346.67,-442 2346.67,-448 2346.67,-448 2346.67,-460 2346.67,-460 2346.67,-466 2340.67,-472 2334.67,-472"/>
<text xml:space="preserve" text-anchor="middle" x="2298.54" y="-448.75" font-family="Arial" font-size="15.00">main_layout</text>
</g>
<!-- /lib/screens/main_layout.dart&#45;&gt;/lib/providers/app_providers.dart -->
<g id="edge55" class="edge">
<title>/lib/screens/main_layout.dart&#45;&gt;/lib/providers/app_providers.dart</title>
<path fill="none" stroke="#aabbaa" stroke-width="1.3" stroke-opacity="0.533333" d="M2263.99,-435.36C2256.74,-432.38 2249.03,-429.7 2241.54,-428 2137.47,-404.36 2105.67,-443.42 2001.54,-420 1919.78,-401.61 1910.51,-362.47 1828.54,-345 1748.88,-328.02 1175.91,-350.22 1095.54,-337 989.45,-319.54 960.76,-311.95 865.54,-262 853.64,-255.76 841.64,-247.28 831.36,-239.19"/>
<polygon fill="#aabbaa" fill-opacity="0.533333" stroke="#aabbaa" stroke-width="1.3" stroke-opacity="0.533333" points="833.57,-236.48 823.6,-232.88 829.15,-241.91 833.57,-236.48"/>
</g>
<!-- /lib/screens/main_layout.dart&#45;&gt;/lib/panels/right/right_panel.dart -->
<g id="edge62" class="edge">
<title>/lib/screens/main_layout.dart&#45;&gt;/lib/panels/right/right_panel.dart</title>
<path fill="none" stroke="#aabbaa" stroke-width="1.3" stroke-opacity="0.533333" d="M2292.28,-472.27C2283.26,-494.9 2264.11,-531.3 2232.54,-538 2217.22,-541.25 1119.87,-541.25 1104.54,-538 1066.57,-529.94 1030.96,-502.18 1008.13,-480.75"/>
<polygon fill="#aabbaa" fill-opacity="0.533333" stroke="#aabbaa" stroke-width="1.3" stroke-opacity="0.533333" points="1010.76,-478.43 1001.15,-473.98 1005.89,-483.46 1010.76,-478.43"/>
</g>
<!-- /lib/screens/main_layout.dart&#45;&gt;/lib/panels/center/editor_screen.dart -->
<g id="edge54" class="edge">
<title>/lib/screens/main_layout.dart&#45;&gt;/lib/panels/center/editor_screen.dart</title>
<path fill="none" stroke="#aabbaa" stroke-width="1.3" stroke-opacity="0.533333" d="M2263.98,-435.4C2256.73,-432.41 2249.02,-429.72 2241.54,-428 2219.55,-422.93 2057.2,-432.71 2038.54,-420 2008.44,-399.5 2033.85,-367.91 2005.54,-345 1974.72,-320.05 1870.72,-303.94 1801.16,-295.68"/>
<polygon fill="#aabbaa" fill-opacity="0.533333" stroke="#aabbaa" stroke-width="1.3" stroke-opacity="0.533333" points="1801.75,-292.22 1791.41,-294.55 1800.94,-299.18 1801.75,-292.22"/>
</g>
<!-- /lib/screens/main_layout.dart&#45;&gt;/lib/panels/center/center_panel.dart -->
<g id="edge61" class="edge">
<title>/lib/screens/main_layout.dart&#45;&gt;/lib/panels/center/center_panel.dart</title>
<path fill="none" stroke="#aabbaa" stroke-width="1.3" stroke-opacity="0.533333" d="M2264.31,-435.41C2256.98,-432.38 2249.14,-429.67 2241.54,-428 2196.72,-418.15 1874.14,-425.28 1828.54,-420 1773.6,-413.64 1712.24,-400.02 1667.66,-388.91"/>
<polygon fill="#aabbaa" fill-opacity="0.533333" stroke="#aabbaa" stroke-width="1.3" stroke-opacity="0.533333" points="1668.59,-385.54 1658.03,-386.48 1666.87,-392.32 1668.59,-385.54"/>
</g>
<!-- /lib/screens/main_layout.dart&#45;&gt;/lib/panels/left/left_panel.dart -->
<g id="edge60" class="edge">
<title>/lib/screens/main_layout.dart&#45;&gt;/lib/panels/left/left_panel.dart</title>
<path fill="none" stroke="#aabbaa" stroke-width="1.3" stroke-opacity="0.533333" d="M2292.28,-472.27C2283.26,-494.9 2264.11,-531.3 2232.54,-538 2209.99,-542.79 1840.46,-540.54 1817.54,-538 1700.85,-525.06 1567.37,-490.06 1495.66,-469.55"/>
<polygon fill="#aabbaa" fill-opacity="0.533333" stroke="#aabbaa" stroke-width="1.3" stroke-opacity="0.533333" points="1496.74,-466.22 1486.16,-466.81 1494.8,-472.95 1496.74,-466.22"/>
</g>
<!-- /lib/screens/main_layout.dart&#45;&gt;/lib/utils/file_type_utils.dart -->
<g id="edge58" class="edge">
<title>/lib/screens/main_layout.dart&#45;&gt;/lib/utils/file_type_utils.dart</title>
<path fill="none" stroke="#aabbaa" stroke-width="1.3" stroke-opacity="0.533333" d="M2263.96,-435.47C2256.72,-432.47 2249.01,-429.76 2241.54,-428 2224.55,-423.98 2098.41,-430.62 2084.54,-420 2029.42,-377.78 2018.96,-289.3 2017.41,-243.25"/>
<polygon fill="#aabbaa" fill-opacity="0.533333" stroke="#aabbaa" stroke-width="1.3" stroke-opacity="0.533333" points="2020.91,-243.36 2017.22,-233.43 2013.91,-243.5 2020.91,-243.36"/>
</g>
<!-- /lib/screens/main_layout.dart&#45;&gt;/lib/models/document_state.dart -->
<g id="edge57" class="edge">
<title>/lib/screens/main_layout.dart&#45;&gt;/lib/models/document_state.dart</title>
<path fill="none" stroke="#aabbaa" stroke-width="1.3" stroke-opacity="0.533333" d="M2262.96,-435.41C2256,-432.54 2248.65,-429.89 2241.54,-428 2225.35,-423.69 2180.14,-429.8 2166.54,-420 2103.95,-374.86 2116.28,-336.04 2094.54,-262 2089.29,-244.12 2096.59,-191.25 2082.54,-179 2070.69,-168.67 966.22,-172.18 950.54,-171 861.25,-164.26 759.44,-148.3 692.37,-136.63"/>
<polygon fill="#aabbaa" fill-opacity="0.533333" stroke="#aabbaa" stroke-width="1.3" stroke-opacity="0.533333" points="693.07,-133.2 682.62,-134.91 691.86,-140.09 693.07,-133.2"/>
</g>
<!-- /lib/screens/main_layout.dart&#45;&gt;/lib/models/file_system_item.dart -->
<g id="edge56" class="edge">
<title>/lib/screens/main_layout.dart&#45;&gt;/lib/models/file_system_item.dart</title>
<path fill="none" stroke="#aabbaa" stroke-width="1.3" stroke-opacity="0.533333" d="M2284.44,-435.52C2262.71,-406.77 2223.54,-346.92 2223.54,-289 2223.54,-289 2223.54,-289 2223.54,-212 2223.54,-64.48 2057.29,-124.5 1912.54,-96 1781.54,-70.2 851.71,-55.73 576.87,-51.99"/>
<polygon fill="#aabbaa" fill-opacity="0.533333" stroke="#aabbaa" stroke-width="1.3" stroke-opacity="0.533333" points="577.06,-48.49 567.02,-51.85 576.97,-55.49 577.06,-48.49"/>
</g>
<!-- /lib/screens/main_layout.dart&#45;&gt;/lib/widgets/resizable_splitter.dart -->
<g id="edge59" class="edge">
<title>/lib/screens/main_layout.dart&#45;&gt;/lib/widgets/resizable_splitter.dart</title>
<path fill="none" stroke="#aabbaa" stroke-width="1.3" stroke-opacity="0.533333" d="M2259.47,-435.38C2253.49,-432.83 2247.38,-430.29 2241.54,-428 2231.47,-424.05 2226.71,-427.1 2218.54,-420 2127.6,-341.01 2197.1,-242.19 2094.54,-179 2073.09,-165.78 1211.65,-178.33 1187.54,-171 1171.86,-166.23 1156.4,-156.93 1143.78,-147.77"/>
<polygon fill="#aabbaa" fill-opacity="0.533333" stroke="#aabbaa" stroke-width="1.3" stroke-opacity="0.533333" points="1145.95,-145.03 1135.88,-141.75 1141.71,-150.59 1145.95,-145.03"/>
</g>
<!-- /lib/screens/loading_screen.dart -->
<g id="node24" class="node">
<title>/lib/screens/loading_screen.dart</title>
<path fill="Lavender" stroke="black" stroke-width="1.3" d="M2220.79,-472C2220.79,-472 2128.29,-472 2128.29,-472 2122.29,-472 2116.29,-466 2116.29,-460 2116.29,-460 2116.29,-448 2116.29,-448 2116.29,-442 2122.29,-436 2128.29,-436 2128.29,-436 2220.79,-436 2220.79,-436 2226.79,-436 2232.79,-442 2232.79,-448 2232.79,-448 2232.79,-460 2232.79,-460 2232.79,-466 2226.79,-472 2220.79,-472"/>
<text xml:space="preserve" text-anchor="middle" x="2174.54" y="-448.75" font-family="Arial" font-size="15.00">loading_screen</text>
</g>
<!-- /lib/main.dart&#45;&gt;/lib/providers/app_providers.dart -->
<g id="edge63" class="edge">
<title>/lib/main.dart&#45;&gt;/lib/providers/app_providers.dart</title>
<path fill="none" stroke="#aabbaa" stroke-width="1.3" stroke-opacity="0.533333" d="M1913.97,-558.79C1748.99,-557.46 899.02,-549.84 877.54,-534 785.63,-466.21 791.6,-308.8 798.57,-243.36"/>
<polygon fill="#aabbaa" fill-opacity="0.533333" stroke="#aabbaa" stroke-width="1.3" stroke-opacity="0.533333" points="802.04,-243.84 799.72,-233.51 795.09,-243.03 802.04,-243.84"/>
</g>
<!-- /lib/main.dart&#45;&gt;/lib/panels/center/editor_screen.dart -->
<g id="edge66" class="edge">
<title>/lib/main.dart&#45;&gt;/lib/panels/center/editor_screen.dart</title>
<path fill="none" stroke="#aabbaa" stroke-width="1.3" stroke-opacity="0.533333" d="M1945.49,-541.61C1950.51,-515.25 1956.33,-464.39 1936.54,-428 1905.9,-371.63 1841.32,-333.36 1793.59,-311.47"/>
<polygon fill="#aabbaa" fill-opacity="0.533333" stroke="#aabbaa" stroke-width="1.3" stroke-opacity="0.533333" points="1795.13,-308.32 1784.57,-307.45 1792.28,-314.71 1795.13,-308.32"/>
</g>
<!-- /lib/main.dart&#45;&gt;/lib/screens/main_layout.dart -->
<g id="edge64" class="edge">
<title>/lib/main.dart&#45;&gt;/lib/screens/main_layout.dart</title>
<path fill="none" stroke="#aabbaa" stroke-width="1.3" stroke-opacity="0.533333" d="M1968.86,-559.59C2033.78,-560.53 2195.36,-560.1 2241.54,-534 2261.57,-522.68 2276.4,-501.09 2285.91,-483.34"/>
<polygon fill="#aabbaa" fill-opacity="0.533333" stroke="#aabbaa" stroke-width="1.3" stroke-opacity="0.533333" points="2289.04,-484.91 2290.39,-474.4 2282.78,-481.78 2289.04,-484.91"/>
</g>
<!-- /lib/main.dart&#45;&gt;/lib/screens/loading_screen.dart -->
<g id="edge67" class="edge">
<title>/lib/main.dart&#45;&gt;/lib/screens/loading_screen.dart</title>
<path fill="none" stroke="#aabbaa" stroke-width="1.3" stroke-opacity="0.533333" d="M1968.99,-557.2C2009.84,-554.14 2084.31,-546.95 2107.54,-534 2129.21,-521.92 2146.98,-499.93 2158.76,-482.21"/>
<polygon fill="#aabbaa" fill-opacity="0.533333" stroke="#aabbaa" stroke-width="1.3" stroke-opacity="0.533333" points="2161.54,-484.36 2163.94,-474.04 2155.63,-480.61 2161.54,-484.36"/>
</g>
<!-- /lib/main.dart&#45;&gt;/lib/screens/welcome_screen.dart -->
<g id="edge68" class="edge">
<title>/lib/main.dart&#45;&gt;/lib/screens/welcome_screen.dart</title>
<path fill="none" stroke="#aabbaa" stroke-width="1.3" stroke-opacity="0.533333" d="M1959.46,-541.41C1961.87,-538.95 1964.29,-536.43 1966.54,-534 1982.34,-516.97 1999.4,-497.16 2012.47,-481.64"/>
<polygon fill="#aabbaa" fill-opacity="0.533333" stroke="#aabbaa" stroke-width="1.3" stroke-opacity="0.533333" points="2015.05,-484.01 2018.79,-474.09 2009.68,-479.51 2015.05,-484.01"/>
</g>
<!-- /lib/theme/app_theme.dart -->
<g id="node27" class="node">
<title>/lib/theme/app_theme.dart</title>
<path fill="Lavender" stroke="black" stroke-width="1.3" d="M1900.04,-472C1900.04,-472 1833.04,-472 1833.04,-472 1827.04,-472 1821.04,-466 1821.04,-460 1821.04,-460 1821.04,-448 1821.04,-448 1821.04,-442 1827.04,-436 1833.04,-436 1833.04,-436 1900.04,-436 1900.04,-436 1906.04,-436 1912.04,-442 1912.04,-448 1912.04,-448 1912.04,-460 1912.04,-460 1912.04,-466 1906.04,-472 1900.04,-472"/>
<text xml:space="preserve" text-anchor="middle" x="1866.54" y="-448.75" font-family="Arial" font-size="15.00">app_theme</text>
</g>
<!-- /lib/main.dart&#45;&gt;/lib/theme/app_theme.dart -->
<g id="edge70" class="edge">
<title>/lib/main.dart&#45;&gt;/lib/theme/app_theme.dart</title>
<path fill="none" stroke="#aabbaa" stroke-width="1.3" stroke-opacity="0.533333" d="M1923.02,-541.42C1920.75,-539 1918.54,-536.49 1916.54,-534 1903.61,-517.83 1891.15,-498.16 1881.9,-482.49"/>
<polygon fill="#aabbaa" fill-opacity="0.533333" stroke="#aabbaa" stroke-width="1.3" stroke-opacity="0.533333" points="1885.07,-480.98 1877.04,-474.08 1879.01,-484.49 1885.07,-480.98"/>
</g>
<!-- /lib/main.dart&#45;&gt;/lib/services/git_service.dart -->
<g id="edge69" class="edge">
<title>/lib/main.dart&#45;&gt;/lib/services/git_service.dart</title>
<path fill="none" stroke="#aabbaa" stroke-width="1.3" stroke-opacity="0.533333" d="M1937.86,-541.55C1937.38,-539.02 1936.93,-536.45 1936.54,-534 1932.88,-510.58 1941.58,-444.48 1924.54,-428 1908.52,-412.5 1842.01,-433.85 1824.54,-420 1797.12,-398.25 1828.72,-365.76 1800.54,-345 1779.9,-329.79 902.5,-342.88 877.54,-337 834.74,-326.92 726.86,-269.81 667.06,-237.07"/>
<polygon fill="#aabbaa" fill-opacity="0.533333" stroke="#aabbaa" stroke-width="1.3" stroke-opacity="0.533333" points="669.01,-234.15 658.56,-232.4 665.64,-240.28 669.01,-234.15"/>
</g>
<!-- /lib/widgets/title_bar.dart -->
<g id="node35" class="node">
<title>/lib/widgets/title_bar.dart</title>
<path fill="Lavender" stroke="black" stroke-width="1.3" d="M1020.17,-140C1020.17,-140 974.92,-140 974.92,-140 968.92,-140 962.92,-134 962.92,-128 962.92,-128 962.92,-116 962.92,-116 962.92,-110 968.92,-104 974.92,-104 974.92,-104 1020.17,-104 1020.17,-104 1026.17,-104 1032.17,-110 1032.17,-116 1032.17,-116 1032.17,-128 1032.17,-128 1032.17,-134 1026.17,-140 1020.17,-140"/>
<text xml:space="preserve" text-anchor="middle" x="997.54" y="-116.75" font-family="Arial" font-size="15.00">title_bar</text>
</g>
<!-- /lib/main.dart&#45;&gt;/lib/widgets/title_bar.dart -->
<g id="edge65" class="edge">
<title>/lib/main.dart&#45;&gt;/lib/widgets/title_bar.dart</title>
<path fill="none" stroke="#aabbaa" stroke-width="1.3" stroke-opacity="0.533333" d="M1914.3,-559.11C1763.62,-559.62 1030.89,-560.67 806.54,-534 570.3,-505.92 455.47,-584.44 283.54,-420 206.12,-345.94 196.15,-248.68 277.54,-179 286.3,-171.5 681.06,-172.01 692.54,-171 784.71,-162.9 891.25,-143.9 950.88,-132.38"/>
<polygon fill="#aabbaa" fill-opacity="0.533333" stroke="#aabbaa" stroke-width="1.3" stroke-opacity="0.533333" points="951.44,-135.84 960.58,-130.49 950.1,-128.97 951.44,-135.84"/>
</g>
<!-- /lib/services/project_service.dart&#45;&gt;/lib/providers/app_providers.dart -->
<g id="edge75" class="edge">
<title>/lib/services/project_service.dart&#45;&gt;/lib/providers/app_providers.dart</title>
<path fill="none" stroke="#aabbaa" stroke-width="1.3" stroke-opacity="0.533333" d="M654.8,-269.35C661.4,-266.93 668.15,-264.43 674.54,-262 696.17,-253.78 719.83,-244.33 740.91,-236"/>
<polygon fill="#aabbaa" fill-opacity="0.533333" stroke="#aabbaa" stroke-width="1.3" stroke-opacity="0.533333" points="742.16,-239.28 750.18,-232.36 739.59,-232.76 742.16,-239.28"/>
</g>
<!-- /lib/services/project_service.dart&#45;&gt;/lib/models/project_node.dart -->
<g id="edge71" class="edge">
<title>/lib/services/project_service.dart&#45;&gt;/lib/models/project_node.dart</title>
<path fill="none" stroke="#aabbaa" stroke-width="1.3" stroke-opacity="0.533333" d="M554.71,-271.57C551.62,-270.98 548.55,-270.46 545.54,-270 529.81,-267.62 413.48,-273.56 402.54,-262 377.2,-235.2 385.05,-211.48 402.54,-179 409.82,-165.49 421.95,-154.7 434.79,-146.34"/>
<polygon fill="#aabbaa" fill-opacity="0.533333" stroke="#aabbaa" stroke-width="1.3" stroke-opacity="0.533333" points="436.22,-149.56 443,-141.42 432.62,-143.56 436.22,-149.56"/>
</g>
<!-- /lib/services/project_service.dart&#45;&gt;/lib/models/file_system_item.dart -->
<g id="edge72" class="edge">
<title>/lib/services/project_service.dart&#45;&gt;/lib/models/file_system_item.dart</title>
<path fill="none" stroke="#aabbaa" stroke-width="1.3" stroke-opacity="0.533333" d="M554.71,-271.54C551.62,-270.97 548.55,-270.45 545.54,-270 527.61,-267.34 395.05,-275.13 382.54,-262 329.83,-206.64 375.02,-151.53 427.54,-96 435.13,-87.98 444.45,-80.83 453.86,-74.71"/>
<polygon fill="#aabbaa" fill-opacity="0.533333" stroke="#aabbaa" stroke-width="1.3" stroke-opacity="0.533333" points="455.64,-77.73 462.35,-69.53 451.99,-71.75 455.64,-77.73"/>
</g>
<!-- /lib/services/project_service.dart&#45;&gt;/lib/services/git_service.dart -->
<g id="edge73" class="edge">
<title>/lib/services/project_service.dart&#45;&gt;/lib/services/git_service.dart</title>
<path fill="none" stroke="#aabbaa" stroke-width="1.3" stroke-opacity="0.533333" d="M616.39,-269.7C617.69,-261.76 619.28,-252.12 620.76,-243.11"/>
<polygon fill="#aabbaa" fill-opacity="0.533333" stroke="#aabbaa" stroke-width="1.3" stroke-opacity="0.533333" points="624.19,-243.81 622.36,-233.37 617.28,-242.67 624.19,-243.81"/>
</g>
<!-- /lib/services/file_system_watcher.dart -->
<g id="node30" class="node">
<title>/lib/services/file_system_watcher.dart</title>
<path fill="Lavender" stroke="black" stroke-width="1.3" d="M551.42,-231C551.42,-231 423.67,-231 423.67,-231 417.67,-231 411.67,-225 411.67,-219 411.67,-219 411.67,-207 411.67,-207 411.67,-201 417.67,-195 423.67,-195 423.67,-195 551.42,-195 551.42,-195 557.42,-195 563.42,-201 563.42,-207 563.42,-207 563.42,-219 563.42,-219 563.42,-225 557.42,-231 551.42,-231"/>
<text xml:space="preserve" text-anchor="middle" x="487.54" y="-207.75" font-family="Arial" font-size="15.00">file_system_watcher</text>
</g>
<!-- /lib/services/project_service.dart&#45;&gt;/lib/services/file_system_watcher.dart -->
<g id="edge74" class="edge">
<title>/lib/services/project_service.dart&#45;&gt;/lib/services/file_system_watcher.dart</title>
<path fill="none" stroke="#aabbaa" stroke-width="1.3" stroke-opacity="0.533333" d="M583.36,-269.51C566.81,-259.92 546.06,-247.9 528.11,-237.5"/>
<polygon fill="#aabbaa" fill-opacity="0.533333" stroke="#aabbaa" stroke-width="1.3" stroke-opacity="0.533333" points="530.02,-234.57 519.62,-232.58 526.52,-240.62 530.02,-234.57"/>
</g>
<!-- /lib/services/file_system_watcher.dart&#45;&gt;/lib/models/project_node.dart -->
<g id="edge76" class="edge">
<title>/lib/services/file_system_watcher.dart&#45;&gt;/lib/models/project_node.dart</title>
<path fill="none" stroke="#aabbaa" stroke-width="1.3" stroke-opacity="0.533333" d="M487.54,-194.42C487.54,-182.47 487.54,-166.38 487.54,-152.5"/>
<polygon fill="#aabbaa" fill-opacity="0.533333" stroke="#aabbaa" stroke-width="1.3" stroke-opacity="0.533333" points="491.04,-152.51 487.54,-142.51 484.04,-152.51 491.04,-152.51"/>
</g>
<!-- /lib/services/file_system_service.dart&#45;&gt;/lib/models/file_system_item.dart -->
<g id="edge77" class="edge">
<title>/lib/services/file_system_service.dart&#45;&gt;/lib/models/file_system_item.dart</title>
<path fill="none" stroke="#aabbaa" stroke-width="1.3" stroke-opacity="0.533333" d="M389.87,-271.31C386.73,-270.83 383.61,-270.39 380.54,-270 363.66,-267.84 239.26,-274.35 227.54,-262 202.15,-235.24 203.67,-124.13 227.54,-96 252.39,-66.73 352.65,-56.47 424.45,-52.89"/>
<polygon fill="#aabbaa" fill-opacity="0.533333" stroke="#aabbaa" stroke-width="1.3" stroke-opacity="0.533333" points="424.37,-56.4 434.2,-52.44 424.05,-49.4 424.37,-56.4"/>
</g>
<!-- /lib/widgets/title_bar.dart&#45;&gt;/lib/providers/app_providers.dart -->
<g id="edge78" class="edge">
<title>/lib/widgets/title_bar.dart&#45;&gt;/lib/providers/app_providers.dart</title>
<path fill="none" stroke="#aabbaa" stroke-width="1.3" stroke-opacity="0.533333" d="M962.38,-139.05C931.52,-153.13 886.32,-173.76 851.85,-189.5"/>
<polygon fill="#aabbaa" fill-opacity="0.533333" stroke="#aabbaa" stroke-width="1.3" stroke-opacity="0.533333" points="850.5,-186.26 842.86,-193.6 853.41,-192.63 850.5,-186.26"/>
</g>
<!-- /tool/sort_source.dart -->
<g id="node37" class="node">
<title>/tool/sort_source.dart</title>
<path fill="Lavender" stroke="black" stroke-width="1.3" d="M2222.92,-661C2222.92,-661 2152.17,-661 2152.17,-661 2146.17,-661 2140.17,-655 2140.17,-649 2140.17,-649 2140.17,-637 2140.17,-637 2140.17,-631 2146.17,-625 2152.17,-625 2152.17,-625 2222.92,-625 2222.92,-625 2228.92,-625 2234.92,-631 2234.92,-637 2234.92,-637 2234.92,-649 2234.92,-649 2234.92,-655 2228.92,-661 2222.92,-661"/>
<text xml:space="preserve" text-anchor="middle" x="2187.54" y="-637.75" font-family="Arial" font-size="15.00">sort_source</text>
</g>
</g>
</svg>
