<?xml version="1.0" encoding="UTF-8" standalone="no"?>
<!DOCTYPE svg PUBLIC "-//W3C//DTD SVG 1.1//EN"
 "http://www.w3.org/Graphics/SVG/1.1/DTD/svg11.dtd">
<!-- Generated by graphviz version 13.1.1 (20250719.2154)
 -->
<!-- Pages: 1 -->
<svg width="648pt" height="714pt"
 viewBox="0.00 0.00 648.00 714.00" xmlns="http://www.w3.org/2000/svg" xmlns:xlink="http://www.w3.org/1999/xlink">
<g id="graph0" class="graph" transform="scale(1 1) rotate(0) translate(4 710)">
<polygon fill="white" stroke="none" points="-4,4 -4,-710 644,-710 644,4 -4,4"/>
<g id="clust1" class="cluster">
<title>cluster~</title>
<path fill="none" stroke="lightgray" stroke-width="2.6" d="M20,-8C20,-8 620,-8 620,-8 626,-8 632,-14 632,-20 632,-20 632,-686 632,-686 632,-692 626,-698 620,-698 620,-698 20,-698 20,-698 14,-698 8,-692 8,-686 8,-686 8,-20 8,-20 8,-14 14,-8 20,-8"/>
<text xml:space="preserve" text-anchor="middle" x="320" y="-681.65" font-family="Arial Black" font-size="13.00">fide</text>
</g>
<g id="clust2" class="cluster">
<title>cluster~/test</title>
<path fill="none" stroke="lightgray" stroke-width="2.6" d="M351,-592C351,-592 435,-592 435,-592 441,-592 447,-598 447,-604 447,-604 447,-655 447,-655 447,-661 441,-667 435,-667 435,-667 351,-667 351,-667 345,-667 339,-661 339,-655 339,-655 339,-604 339,-604 339,-598 345,-592 351,-592"/>
<text xml:space="preserve" text-anchor="middle" x="393" y="-650.65" font-family="Arial Black" font-size="13.00">test</text>
</g>
<g id="clust3" class="cluster">
<title>cluster~/lib</title>
<path fill="none" stroke="lightgray" stroke-width="2.6" d="M28,-16C28,-16 612,-16 612,-16 618,-16 624,-22 624,-28 624,-28 624,-572 624,-572 624,-578 618,-584 612,-584 612,-584 28,-584 28,-584 22,-584 16,-578 16,-572 16,-572 16,-28 16,-28 16,-22 22,-16 28,-16"/>
<text xml:space="preserve" text-anchor="middle" x="320" y="-567.65" font-family="Arial Black" font-size="13.00">lib</text>
</g>
<g id="clust4" class="cluster">
<title>cluster~/lib/models</title>
<path fill="none" stroke="lightgray" stroke-width="2.6" d="M36,-24C36,-24 276,-24 276,-24 282,-24 288,-30 288,-36 288,-36 288,-87 288,-87 288,-93 282,-99 276,-99 276,-99 36,-99 36,-99 30,-99 24,-93 24,-87 24,-87 24,-36 24,-36 24,-30 30,-24 36,-24"/>
<text xml:space="preserve" text-anchor="middle" x="156" y="-82.65" font-family="Arial Black" font-size="13.00">models</text>
</g>
<g id="clust5" class="cluster">
<title>cluster~/lib/screens</title>
<path fill="none" stroke="lightgray" stroke-width="2.6" d="M66,-312C66,-312 432,-312 432,-312 438,-312 444,-318 444,-324 444,-324 444,-497 444,-497 444,-503 438,-509 432,-509 432,-509 66,-509 66,-509 60,-509 54,-503 54,-497 54,-497 54,-324 54,-324 54,-318 60,-312 66,-312"/>
<text xml:space="preserve" text-anchor="middle" x="249" y="-492.65" font-family="Arial Black" font-size="13.00">screens</text>
</g>
<g id="clust6" class="cluster">
<title>cluster~/lib/screens/explorer</title>
<path fill="none" stroke="lightgray" stroke-width="2.6" d="M174,-320C174,-320 294,-320 294,-320 300,-320 306,-326 306,-332 306,-332 306,-466 306,-466 306,-472 300,-478 294,-478 294,-478 174,-478 174,-478 168,-478 162,-472 162,-466 162,-466 162,-332 162,-332 162,-326 168,-320 174,-320"/>
<text xml:space="preserve" text-anchor="middle" x="234" y="-461.65" font-family="Arial Black" font-size="13.00">explorer</text>
</g>
<g id="clust7" class="cluster">
<title>cluster~/lib/screens/outline</title>
<path fill="none" stroke="lightgray" stroke-width="2.6" d="M326,-403C326,-403 422,-403 422,-403 428,-403 434,-409 434,-415 434,-415 434,-466 434,-466 434,-472 428,-478 422,-478 422,-478 326,-478 326,-478 320,-478 314,-472 314,-466 314,-466 314,-415 314,-415 314,-409 320,-403 326,-403"/>
<text xml:space="preserve" text-anchor="middle" x="374" y="-461.65" font-family="Arial Black" font-size="13.00">outline</text>
</g>
<g id="clust8" class="cluster">
<title>cluster~/lib/screens/editor</title>
<path fill="none" stroke="lightgray" stroke-width="2.6" d="M326,-320C326,-320 424,-320 424,-320 430,-320 436,-326 436,-332 436,-332 436,-383 436,-383 436,-389 430,-395 424,-395 424,-395 326,-395 326,-395 320,-395 314,-389 314,-383 314,-383 314,-332 314,-332 314,-326 320,-320 326,-320"/>
<text xml:space="preserve" text-anchor="middle" x="375" y="-378.65" font-family="Arial Black" font-size="13.00">editor</text>
</g>
<g id="clust9" class="cluster">
<title>cluster~/lib/screens/git</title>
<path fill="none" stroke="lightgray" stroke-width="2.6" d="M74,-403C74,-403 142,-403 142,-403 148,-403 154,-409 154,-415 154,-415 154,-466 154,-466 154,-472 148,-478 142,-478 142,-478 74,-478 74,-478 68,-478 62,-472 62,-466 62,-466 62,-415 62,-415 62,-409 68,-403 74,-403"/>
<text xml:space="preserve" text-anchor="middle" x="108" y="-461.65" font-family="Arial Black" font-size="13.00">git</text>
</g>
<g id="clust10" class="cluster">
<title>cluster~/lib/theme</title>
<path fill="none" stroke="lightgray" stroke-width="2.6" d="M488,-403C488,-403 572,-403 572,-403 578,-403 584,-409 584,-415 584,-415 584,-466 584,-466 584,-472 578,-478 572,-478 572,-478 488,-478 488,-478 482,-478 476,-472 476,-466 476,-466 476,-415 476,-415 476,-409 482,-403 488,-403"/>
<text xml:space="preserve" text-anchor="middle" x="530" y="-461.65" font-family="Arial Black" font-size="13.00">theme</text>
</g>
<g id="clust11" class="cluster">
<title>cluster~/lib/services</title>
<path fill="none" stroke="lightgray" stroke-width="2.6" d="M233,-107C233,-107 604,-107 604,-107 610,-107 616,-113 616,-119 616,-119 616,-170 616,-170 616,-176 610,-182 604,-182 604,-182 233,-182 233,-182 227,-182 221,-176 221,-170 221,-170 221,-119 221,-119 221,-113 227,-107 233,-107"/>
<text xml:space="preserve" text-anchor="middle" x="418.5" y="-165.65" font-family="Arial Black" font-size="13.00">services</text>
</g>
<g id="clust12" class="cluster">
<title>cluster~/lib/widgets</title>
<path fill="none" stroke="lightgray" stroke-width="2.6" d="M154,-190C154,-190 397,-190 397,-190 403,-190 409,-196 409,-202 409,-202 409,-292 409,-292 409,-298 403,-304 397,-304 397,-304 154,-304 154,-304 148,-304 142,-298 142,-292 142,-292 142,-202 142,-202 142,-196 148,-190 154,-190"/>
<text xml:space="preserve" text-anchor="middle" x="275.5" y="-287.65" font-family="Arial Black" font-size="13.00">widgets</text>
</g>
<g id="clust13" class="cluster">
<title>cluster~/lib/widgets/explorer</title>
<path fill="none" stroke="lightgray" stroke-width="2.6" d="M162,-198C162,-198 252,-198 252,-198 258,-198 264,-204 264,-210 264,-210 264,-261 264,-261 264,-267 258,-273 252,-273 252,-273 162,-273 162,-273 156,-273 150,-267 150,-261 150,-261 150,-210 150,-210 150,-204 156,-198 162,-198"/>
<text xml:space="preserve" text-anchor="middle" x="207" y="-256.65" font-family="Arial Black" font-size="13.00">explorer</text>
</g>
<g id="clust14" class="cluster">
<title>cluster~/tool</title>
<path fill="none" stroke="lightgray" stroke-width="2.6" d="M506,-592C506,-592 592,-592 592,-592 598,-592 604,-598 604,-604 604,-604 604,-655 604,-655 604,-661 598,-667 592,-667 592,-667 506,-667 506,-667 500,-667 494,-661 494,-655 494,-655 494,-604 494,-604 494,-598 500,-592 506,-592"/>
<text xml:space="preserve" text-anchor="middle" x="549" y="-650.65" font-family="Arial Black" font-size="13.00">tool</text>
</g>
<!-- /test/widget_test.dart -->
<g id="node1" class="node">
<title>/test/widget_test.dart</title>
<path fill="Lavender" stroke="black" stroke-width="1.3" d="M426.88,-636C426.88,-636 359.12,-636 359.12,-636 353.12,-636 347.12,-630 347.12,-624 347.12,-624 347.12,-612 347.12,-612 347.12,-606 353.12,-600 359.12,-600 359.12,-600 426.88,-600 426.88,-600 432.88,-600 438.88,-606 438.88,-612 438.88,-612 438.88,-624 438.88,-624 438.88,-630 432.88,-636 426.88,-636"/>
<text xml:space="preserve" text-anchor="middle" x="393" y="-612.75" font-family="Arial" font-size="15.00">widget_test</text>
</g>
<!-- /lib/main.dart -->
<g id="node9" class="node">
<title>/lib/main.dart</title>
<path fill="Lavender" stroke="black" stroke-width="1.3" d="M408,-553C408,-553 378,-553 378,-553 372,-553 366,-547 366,-541 366,-541 366,-529 366,-529 366,-523 372,-517 378,-517 378,-517 408,-517 408,-517 414,-517 420,-523 420,-529 420,-529 420,-541 420,-541 420,-547 414,-553 408,-553"/>
<text xml:space="preserve" text-anchor="middle" x="393" y="-529.75" font-family="Arial" font-size="15.00">main</text>
</g>
<!-- /test/widget_test.dart&#45;&gt;/lib/main.dart -->
<g id="edge1" class="edge">
<title>/test/widget_test.dart&#45;&gt;/lib/main.dart</title>
<path fill="none" stroke="#aabbaa" stroke-width="1.3" stroke-opacity="0.533333" d="M393,-599.42C393,-589.45 393,-576.7 393,-565.26"/>
<polygon fill="#aabbaa" fill-opacity="0.533333" stroke="#aabbaa" stroke-width="1.3" stroke-opacity="0.533333" points="396.5,-565.51 393,-555.51 389.5,-565.51 396.5,-565.51"/>
</g>
<!-- /lib/models/project_node.dart -->
<g id="node2" class="node">
<title>/lib/models/project_node.dart</title>
<path fill="Lavender" stroke="black" stroke-width="1.3" d="M122.12,-68C122.12,-68 43.88,-68 43.88,-68 37.88,-68 31.88,-62 31.88,-56 31.88,-56 31.88,-44 31.88,-44 31.88,-38 37.88,-32 43.88,-32 43.88,-32 122.12,-32 122.12,-32 128.12,-32 134.12,-38 134.12,-44 134.12,-44 134.12,-56 134.12,-56 134.12,-62 128.12,-68 122.12,-68"/>
<text xml:space="preserve" text-anchor="middle" x="83" y="-44.75" font-family="Arial" font-size="15.00">project_node</text>
</g>
<!-- /lib/models/file_system_item.dart -->
<g id="node3" class="node">
<title>/lib/models/file_system_item.dart</title>
<path fill="Lavender" stroke="black" stroke-width="1.3" d="M267.88,-68C267.88,-68 164.12,-68 164.12,-68 158.12,-68 152.12,-62 152.12,-56 152.12,-56 152.12,-44 152.12,-44 152.12,-38 158.12,-32 164.12,-32 164.12,-32 267.88,-32 267.88,-32 273.88,-32 279.88,-38 279.88,-44 279.88,-44 279.88,-56 279.88,-56 279.88,-62 273.88,-68 267.88,-68"/>
<text xml:space="preserve" text-anchor="middle" x="216" y="-44.75" font-family="Arial" font-size="15.00">file_system_item</text>
</g>
<!-- /lib/screens/explorer/explorer_screen.dart -->
<g id="node4" class="node">
<title>/lib/screens/explorer/explorer_screen.dart</title>
<path fill="Lavender" stroke="black" stroke-width="1.3" d="M281.62,-447C281.62,-447 182.38,-447 182.38,-447 176.38,-447 170.38,-441 170.38,-435 170.38,-435 170.38,-423 170.38,-423 170.38,-417 176.38,-411 182.38,-411 182.38,-411 281.62,-411 281.62,-411 287.62,-411 293.62,-417 293.62,-423 293.62,-423 293.62,-435 293.62,-435 293.62,-441 287.62,-447 281.62,-447"/>
<text xml:space="preserve" text-anchor="middle" x="232" y="-423.75" font-family="Arial" font-size="15.00">explorer_screen</text>
</g>
<!-- /lib/screens/explorer/explorer_screen.dart&#45;&gt;/lib/models/project_node.dart -->
<g id="edge2" class="edge">
<title>/lib/screens/explorer/explorer_screen.dart&#45;&gt;/lib/models/project_node.dart</title>
<path fill="none" stroke="#aabbaa" stroke-width="1.3" stroke-opacity="0.533333" d="M182.49,-410.38C174.36,-407.74 165.98,-405.18 158,-403 141.35,-398.45 132.26,-407.15 120,-395 76.04,-351.43 78.88,-155.09 81.66,-80.17"/>
<polygon fill="#aabbaa" fill-opacity="0.533333" stroke="#aabbaa" stroke-width="1.3" stroke-opacity="0.533333" points="85.15,-80.54 82.05,-70.41 78.15,-80.26 85.15,-80.54"/>
</g>
<!-- /lib/screens/explorer/explorer_screen.dart&#45;&gt;/lib/models/file_system_item.dart -->
<g id="edge3" class="edge">
<title>/lib/screens/explorer/explorer_screen.dart&#45;&gt;/lib/models/file_system_item.dart</title>
<path fill="none" stroke="#aabbaa" stroke-width="1.3" stroke-opacity="0.533333" d="M179.64,-410.43C159.79,-403.55 141.53,-396.86 140,-395 113.97,-363.43 129.12,-344.8 126,-304 119.32,-216.7 79.09,-180.93 126,-107 130.47,-99.95 135.72,-103.08 143,-99 155.92,-91.76 169.61,-83.06 181.6,-75.06"/>
<polygon fill="#aabbaa" fill-opacity="0.533333" stroke="#aabbaa" stroke-width="1.3" stroke-opacity="0.533333" points="183.26,-78.17 189.58,-69.66 179.34,-72.37 183.26,-78.17"/>
</g>
<!-- /lib/screens/explorer/welcome_screen.dart -->
<g id="node5" class="node">
<title>/lib/screens/explorer/welcome_screen.dart</title>
<path fill="Lavender" stroke="black" stroke-width="1.3" d="M285.88,-364C285.88,-364 182.12,-364 182.12,-364 176.12,-364 170.12,-358 170.12,-352 170.12,-352 170.12,-340 170.12,-340 170.12,-334 176.12,-328 182.12,-328 182.12,-328 285.88,-328 285.88,-328 291.88,-328 297.88,-334 297.88,-340 297.88,-340 297.88,-352 297.88,-352 297.88,-358 291.88,-364 285.88,-364"/>
<text xml:space="preserve" text-anchor="middle" x="234" y="-340.75" font-family="Arial" font-size="15.00">welcome_screen</text>
</g>
<!-- /lib/screens/explorer/explorer_screen.dart&#45;&gt;/lib/screens/explorer/welcome_screen.dart -->
<g id="edge5" class="edge">
<title>/lib/screens/explorer/explorer_screen.dart&#45;&gt;/lib/screens/explorer/welcome_screen.dart</title>
<path fill="none" stroke="#aabbaa" stroke-width="1.3" stroke-opacity="0.533333" d="M232.43,-410.42C232.68,-400.45 233,-387.7 233.28,-376.26"/>
<polygon fill="#aabbaa" fill-opacity="0.533333" stroke="#aabbaa" stroke-width="1.3" stroke-opacity="0.533333" points="236.77,-376.59 233.52,-366.51 229.77,-376.42 236.77,-376.59"/>
</g>
<!-- /lib/widgets/message_widget.dart -->
<g id="node15" class="node">
<title>/lib/widgets/message_widget.dart</title>
<path fill="Lavender" stroke="black" stroke-width="1.3" d="M388.88,-242C388.88,-242 285.12,-242 285.12,-242 279.12,-242 273.12,-236 273.12,-230 273.12,-230 273.12,-218 273.12,-218 273.12,-212 279.12,-206 285.12,-206 285.12,-206 388.88,-206 388.88,-206 394.88,-206 400.88,-212 400.88,-218 400.88,-218 400.88,-230 400.88,-230 400.88,-236 394.88,-242 388.88,-242"/>
<text xml:space="preserve" text-anchor="middle" x="337" y="-218.75" font-family="Arial" font-size="15.00">message_widget</text>
</g>
<!-- /lib/screens/explorer/explorer_screen.dart&#45;&gt;/lib/widgets/message_widget.dart -->
<g id="edge4" class="edge">
<title>/lib/screens/explorer/explorer_screen.dart&#45;&gt;/lib/widgets/message_widget.dart</title>
<path fill="none" stroke="#aabbaa" stroke-width="1.3" stroke-opacity="0.533333" d="M176.86,-410.57C170.59,-406.42 165.02,-401.3 161,-395 141.16,-363.9 135.91,-339.04 161,-312 177.22,-294.52 246.67,-314.67 268,-304 290.6,-292.7 308.97,-270.44 321.06,-252.42"/>
<polygon fill="#aabbaa" fill-opacity="0.533333" stroke="#aabbaa" stroke-width="1.3" stroke-opacity="0.533333" points="323.96,-254.39 326.38,-244.07 318.05,-250.62 323.96,-254.39"/>
</g>
<!-- /lib/screens/outline/outline_panel.dart -->
<g id="node6" class="node">
<title>/lib/screens/outline/outline_panel.dart</title>
<path fill="Lavender" stroke="black" stroke-width="1.3" d="M413.88,-447C413.88,-447 334.12,-447 334.12,-447 328.12,-447 322.12,-441 322.12,-435 322.12,-435 322.12,-423 322.12,-423 322.12,-417 328.12,-411 334.12,-411 334.12,-411 413.88,-411 413.88,-411 419.88,-411 425.88,-417 425.88,-423 425.88,-423 425.88,-435 425.88,-435 425.88,-441 419.88,-447 413.88,-447"/>
<text xml:space="preserve" text-anchor="middle" x="374" y="-423.75" font-family="Arial" font-size="15.00">outline_panel</text>
</g>
<!-- /lib/screens/outline/outline_panel.dart&#45;&gt;/lib/models/file_system_item.dart -->
<g id="edge6" class="edge">
<title>/lib/screens/outline/outline_panel.dart&#45;&gt;/lib/models/file_system_item.dart</title>
<path fill="none" stroke="#aabbaa" stroke-width="1.3" stroke-opacity="0.533333" d="M334.67,-410.37C326.65,-407.43 318.16,-404.76 310,-403 293.47,-399.43 170.42,-406.48 158,-395 124.49,-364.02 135.45,-234.4 146,-190 155.87,-148.46 180.23,-105.24 197.43,-78.24"/>
<polygon fill="#aabbaa" fill-opacity="0.533333" stroke="#aabbaa" stroke-width="1.3" stroke-opacity="0.533333" points="200.24,-80.33 202.77,-70.04 194.38,-76.51 200.24,-80.33"/>
</g>
<!-- /lib/screens/editor/editor_screen.dart -->
<g id="node7" class="node">
<title>/lib/screens/editor/editor_screen.dart</title>
<path fill="Lavender" stroke="black" stroke-width="1.3" d="M416.38,-364C416.38,-364 333.62,-364 333.62,-364 327.62,-364 321.62,-358 321.62,-352 321.62,-352 321.62,-340 321.62,-340 321.62,-334 327.62,-328 333.62,-328 333.62,-328 416.38,-328 416.38,-328 422.38,-328 428.38,-334 428.38,-340 428.38,-340 428.38,-352 428.38,-352 428.38,-358 422.38,-364 416.38,-364"/>
<text xml:space="preserve" text-anchor="middle" x="375" y="-340.75" font-family="Arial" font-size="15.00">editor_screen</text>
</g>
<!-- /lib/screens/outline/outline_panel.dart&#45;&gt;/lib/screens/editor/editor_screen.dart -->
<g id="edge7" class="edge">
<title>/lib/screens/outline/outline_panel.dart&#45;&gt;/lib/screens/editor/editor_screen.dart</title>
<path fill="none" stroke="#aabbaa" stroke-width="1.3" stroke-opacity="0.533333" d="M374.22,-410.42C374.34,-400.45 374.5,-387.7 374.64,-376.26"/>
<polygon fill="#aabbaa" fill-opacity="0.533333" stroke="#aabbaa" stroke-width="1.3" stroke-opacity="0.533333" points="378.14,-376.55 374.76,-366.51 371.14,-376.46 378.14,-376.55"/>
</g>
<!-- /lib/screens/editor/editor_screen.dart&#45;&gt;/lib/widgets/message_widget.dart -->
<g id="edge8" class="edge">
<title>/lib/screens/editor/editor_screen.dart&#45;&gt;/lib/widgets/message_widget.dart</title>
<path fill="none" stroke="#aabbaa" stroke-width="1.3" stroke-opacity="0.533333" d="M369.47,-327.55C363.34,-308.18 353.34,-276.61 346.06,-253.61"/>
<polygon fill="#aabbaa" fill-opacity="0.533333" stroke="#aabbaa" stroke-width="1.3" stroke-opacity="0.533333" points="349.48,-252.82 343.13,-244.35 342.81,-254.94 349.48,-252.82"/>
</g>
<!-- /lib/screens/git/git_panel.dart -->
<g id="node8" class="node">
<title>/lib/screens/git/git_panel.dart</title>
<path fill="Lavender" stroke="black" stroke-width="1.3" d="M134,-447C134,-447 82,-447 82,-447 76,-447 70,-441 70,-435 70,-435 70,-423 70,-423 70,-417 76,-411 82,-411 82,-411 134,-411 134,-411 140,-411 146,-417 146,-423 146,-423 146,-435 146,-435 146,-441 140,-447 134,-447"/>
<text xml:space="preserve" text-anchor="middle" x="108" y="-423.75" font-family="Arial" font-size="15.00">git_panel</text>
</g>
<!-- /lib/services/git_service.dart -->
<g id="node11" class="node">
<title>/lib/services/git_service.dart</title>
<path fill="Lavender" stroke="black" stroke-width="1.3" d="M468.62,-151C468.62,-151 405.38,-151 405.38,-151 399.38,-151 393.38,-145 393.38,-139 393.38,-139 393.38,-127 393.38,-127 393.38,-121 399.38,-115 405.38,-115 405.38,-115 468.62,-115 468.62,-115 474.62,-115 480.62,-121 480.62,-127 480.62,-127 480.62,-139 480.62,-139 480.62,-145 474.62,-151 468.62,-151"/>
<text xml:space="preserve" text-anchor="middle" x="437" y="-127.75" font-family="Arial" font-size="15.00">git_service</text>
</g>
<!-- /lib/screens/git/git_panel.dart&#45;&gt;/lib/services/git_service.dart -->
<g id="edge9" class="edge">
<title>/lib/screens/git/git_panel.dart&#45;&gt;/lib/services/git_service.dart</title>
<path fill="none" stroke="#aabbaa" stroke-width="1.3" stroke-opacity="0.533333" d="M133.22,-410.64C138.18,-406.11 142.82,-400.83 146,-395 163.86,-362.28 130.21,-336.84 158,-312 179.14,-293.11 391.89,-322.92 413,-304 433.3,-285.8 436.84,-206.8 437.21,-163.19"/>
<polygon fill="#aabbaa" fill-opacity="0.533333" stroke="#aabbaa" stroke-width="1.3" stroke-opacity="0.533333" points="440.71,-163.38 437.24,-153.37 433.71,-163.36 440.71,-163.38"/>
</g>
<!-- /lib/main.dart&#45;&gt;/lib/models/project_node.dart -->
<g id="edge19" class="edge">
<title>/lib/main.dart&#45;&gt;/lib/models/project_node.dart</title>
<path fill="none" stroke="#aabbaa" stroke-width="1.3" stroke-opacity="0.533333" d="M365.37,-534.1C285.58,-534.13 59.1,-532.14 36,-509 -14.97,-457.92 25,-419.17 25,-347 25,-347 25,-347 25,-223 25,-169.77 50.25,-111.91 67.43,-78.7"/>
<polygon fill="#aabbaa" fill-opacity="0.533333" stroke="#aabbaa" stroke-width="1.3" stroke-opacity="0.533333" points="70.36,-80.63 71.97,-70.16 64.18,-77.34 70.36,-80.63"/>
</g>
<!-- /lib/main.dart&#45;&gt;/lib/models/file_system_item.dart -->
<g id="edge18" class="edge">
<title>/lib/main.dart&#45;&gt;/lib/models/file_system_item.dart</title>
<path fill="none" stroke="#aabbaa" stroke-width="1.3" stroke-opacity="0.533333" d="M365.37,-534.04C288.9,-533.86 78.73,-531.34 58,-509 24.79,-473.22 37.63,-172.11 100,-107 113.45,-92.96 124.97,-106.26 143,-99 157.65,-93.1 172.47,-84.05 184.89,-75.4"/>
<polygon fill="#aabbaa" fill-opacity="0.533333" stroke="#aabbaa" stroke-width="1.3" stroke-opacity="0.533333" points="186.63,-78.46 192.69,-69.76 182.53,-72.78 186.63,-78.46"/>
</g>
<!-- /lib/main.dart&#45;&gt;/lib/screens/explorer/explorer_screen.dart -->
<g id="edge10" class="edge">
<title>/lib/main.dart&#45;&gt;/lib/screens/explorer/explorer_screen.dart</title>
<path fill="none" stroke="#aabbaa" stroke-width="1.3" stroke-opacity="0.533333" d="M365.42,-529.3C348.55,-525.58 327.02,-519.25 310,-509 287.43,-495.41 266.73,-473.81 252.33,-456.63"/>
<polygon fill="#aabbaa" fill-opacity="0.533333" stroke="#aabbaa" stroke-width="1.3" stroke-opacity="0.533333" points="255.27,-454.7 246.25,-449.14 249.84,-459.11 255.27,-454.7"/>
</g>
<!-- /lib/main.dart&#45;&gt;/lib/screens/explorer/welcome_screen.dart -->
<g id="edge11" class="edge">
<title>/lib/main.dart&#45;&gt;/lib/screens/explorer/welcome_screen.dart</title>
<path fill="none" stroke="#aabbaa" stroke-width="1.3" stroke-opacity="0.533333" d="M420.55,-524.59C427.45,-520.85 434.01,-515.78 438,-509 449.95,-488.7 454.13,-420.17 438,-403 428.24,-392.61 323.56,-399.39 310,-395 293.91,-389.79 277.82,-380.39 264.62,-371.28"/>
<polygon fill="#aabbaa" fill-opacity="0.533333" stroke="#aabbaa" stroke-width="1.3" stroke-opacity="0.533333" points="266.89,-368.6 256.73,-365.6 262.79,-374.28 266.89,-368.6"/>
</g>
<!-- /lib/main.dart&#45;&gt;/lib/screens/outline/outline_panel.dart -->
<g id="edge13" class="edge">
<title>/lib/main.dart&#45;&gt;/lib/screens/outline/outline_panel.dart</title>
<path fill="none" stroke="#aabbaa" stroke-width="1.3" stroke-opacity="0.533333" d="M389.78,-516.36C386.91,-500.65 382.65,-477.37 379.29,-458.94"/>
<polygon fill="#aabbaa" fill-opacity="0.533333" stroke="#aabbaa" stroke-width="1.3" stroke-opacity="0.533333" points="382.77,-458.53 377.53,-449.32 375.88,-459.78 382.77,-458.53"/>
</g>
<!-- /lib/main.dart&#45;&gt;/lib/screens/editor/editor_screen.dart -->
<g id="edge12" class="edge">
<title>/lib/main.dart&#45;&gt;/lib/screens/editor/editor_screen.dart</title>
<path fill="none" stroke="#aabbaa" stroke-width="1.3" stroke-opacity="0.533333" d="M420.53,-528.79C431.64,-525.18 443.38,-519.13 450,-509 475.77,-469.56 475.67,-442.5 450,-403 445.23,-395.66 439.42,-399.64 432,-395 421.66,-388.53 411.21,-380.32 402.13,-372.52"/>
<polygon fill="#aabbaa" fill-opacity="0.533333" stroke="#aabbaa" stroke-width="1.3" stroke-opacity="0.533333" points="404.5,-369.95 394.7,-365.95 399.87,-375.2 404.5,-369.95"/>
</g>
<!-- /lib/main.dart&#45;&gt;/lib/screens/git/git_panel.dart -->
<g id="edge14" class="edge">
<title>/lib/main.dart&#45;&gt;/lib/screens/git/git_panel.dart</title>
<path fill="none" stroke="#aabbaa" stroke-width="1.3" stroke-opacity="0.533333" d="M365.54,-534.02C311.15,-533.59 192.06,-530.18 158,-509 139.34,-497.4 126.44,-475.98 118.42,-458.37"/>
<polygon fill="#aabbaa" fill-opacity="0.533333" stroke="#aabbaa" stroke-width="1.3" stroke-opacity="0.533333" points="121.71,-457.16 114.6,-449.3 115.25,-459.88 121.71,-457.16"/>
</g>
<!-- /lib/theme/app_theme.dart -->
<g id="node10" class="node">
<title>/lib/theme/app_theme.dart</title>
<path fill="Lavender" stroke="black" stroke-width="1.3" d="M563.5,-447C563.5,-447 496.5,-447 496.5,-447 490.5,-447 484.5,-441 484.5,-435 484.5,-435 484.5,-423 484.5,-423 484.5,-417 490.5,-411 496.5,-411 496.5,-411 563.5,-411 563.5,-411 569.5,-411 575.5,-417 575.5,-423 575.5,-423 575.5,-435 575.5,-435 575.5,-441 569.5,-447 563.5,-447"/>
<text xml:space="preserve" text-anchor="middle" x="530" y="-423.75" font-family="Arial" font-size="15.00">app_theme</text>
</g>
<!-- /lib/main.dart&#45;&gt;/lib/theme/app_theme.dart -->
<g id="edge17" class="edge">
<title>/lib/main.dart&#45;&gt;/lib/theme/app_theme.dart</title>
<path fill="none" stroke="#aabbaa" stroke-width="1.3" stroke-opacity="0.533333" d="M420.3,-531.44C438.95,-528.52 463.37,-522.29 481,-509 498.23,-496.01 510.83,-475.03 518.93,-457.96"/>
<polygon fill="#aabbaa" fill-opacity="0.533333" stroke="#aabbaa" stroke-width="1.3" stroke-opacity="0.533333" points="521.95,-459.79 522.81,-449.23 515.55,-456.95 521.95,-459.79"/>
</g>
<!-- /lib/main.dart&#45;&gt;/lib/services/git_service.dart -->
<g id="edge16" class="edge">
<title>/lib/main.dart&#45;&gt;/lib/services/git_service.dart</title>
<path fill="none" stroke="#aabbaa" stroke-width="1.3" stroke-opacity="0.533333" d="M420.25,-532.69C473.73,-529.84 588.26,-522.24 600,-509 696.67,-399.95 533.49,-224.66 465.04,-159.48"/>
<polygon fill="#aabbaa" fill-opacity="0.533333" stroke="#aabbaa" stroke-width="1.3" stroke-opacity="0.533333" points="467.54,-157.03 457.86,-152.73 462.75,-162.13 467.54,-157.03"/>
</g>
<!-- /lib/services/file_system_service.dart -->
<g id="node12" class="node">
<title>/lib/services/file_system_service.dart</title>
<path fill="Lavender" stroke="black" stroke-width="1.3" d="M363.25,-151C363.25,-151 240.75,-151 240.75,-151 234.75,-151 228.75,-145 228.75,-139 228.75,-139 228.75,-127 228.75,-127 228.75,-121 234.75,-115 240.75,-115 240.75,-115 363.25,-115 363.25,-115 369.25,-115 375.25,-121 375.25,-127 375.25,-127 375.25,-139 375.25,-139 375.25,-145 369.25,-151 363.25,-151"/>
<text xml:space="preserve" text-anchor="middle" x="302" y="-127.75" font-family="Arial" font-size="15.00">file_system_service</text>
</g>
<!-- /lib/main.dart&#45;&gt;/lib/services/file_system_service.dart -->
<g id="edge15" class="edge">
<title>/lib/main.dart&#45;&gt;/lib/services/file_system_service.dart</title>
<path fill="none" stroke="#aabbaa" stroke-width="1.3" stroke-opacity="0.533333" d="M420.55,-534.72C469.03,-535.33 566.52,-533.41 588,-509 603.56,-491.32 596.67,-424.9 588,-403 565.77,-346.87 533.37,-350.6 495,-304 455.33,-255.82 464.22,-225.66 413,-190 402.03,-182.36 396.32,-187.2 384,-182 368.38,-175.41 352.08,-166.37 338.17,-157.91"/>
<polygon fill="#aabbaa" fill-opacity="0.533333" stroke="#aabbaa" stroke-width="1.3" stroke-opacity="0.533333" points="340.05,-154.96 329.71,-152.65 336.35,-160.91 340.05,-154.96"/>
</g>
<!-- /lib/services/file_system_service.dart&#45;&gt;/lib/models/file_system_item.dart -->
<g id="edge20" class="edge">
<title>/lib/services/file_system_service.dart&#45;&gt;/lib/models/file_system_item.dart</title>
<path fill="none" stroke="#aabbaa" stroke-width="1.3" stroke-opacity="0.533333" d="M283.34,-114.42C271.62,-103.39 256.3,-88.96 243.24,-76.65"/>
<polygon fill="#aabbaa" fill-opacity="0.533333" stroke="#aabbaa" stroke-width="1.3" stroke-opacity="0.533333" points="245.74,-74.2 236.06,-69.89 240.94,-79.29 245.74,-74.2"/>
</g>
<!-- /lib/services/editor_service.dart -->
<g id="node13" class="node">
<title>/lib/services/editor_service.dart</title>
<path fill="Lavender" stroke="black" stroke-width="1.3" d="M595.5,-151C595.5,-151 510.5,-151 510.5,-151 504.5,-151 498.5,-145 498.5,-139 498.5,-139 498.5,-127 498.5,-127 498.5,-121 504.5,-115 510.5,-115 510.5,-115 595.5,-115 595.5,-115 601.5,-115 607.5,-121 607.5,-127 607.5,-127 607.5,-139 607.5,-139 607.5,-145 601.5,-151 595.5,-151"/>
<text xml:space="preserve" text-anchor="middle" x="553" y="-127.75" font-family="Arial" font-size="15.00">editor_service</text>
</g>
<!-- /lib/widgets/explorer/file_explorer.dart -->
<g id="node14" class="node">
<title>/lib/widgets/explorer/file_explorer.dart</title>
<path fill="Lavender" stroke="black" stroke-width="1.3" d="M243.5,-242C243.5,-242 170.5,-242 170.5,-242 164.5,-242 158.5,-236 158.5,-230 158.5,-230 158.5,-218 158.5,-218 158.5,-212 164.5,-206 170.5,-206 170.5,-206 243.5,-206 243.5,-206 249.5,-206 255.5,-212 255.5,-218 255.5,-218 255.5,-230 255.5,-230 255.5,-236 249.5,-242 243.5,-242"/>
<text xml:space="preserve" text-anchor="middle" x="207" y="-218.75" font-family="Arial" font-size="15.00">file_explorer</text>
</g>
<!-- /lib/widgets/explorer/file_explorer.dart&#45;&gt;/lib/models/file_system_item.dart -->
<g id="edge22" class="edge">
<title>/lib/widgets/explorer/file_explorer.dart&#45;&gt;/lib/models/file_system_item.dart</title>
<path fill="none" stroke="#aabbaa" stroke-width="1.3" stroke-opacity="0.533333" d="M207.91,-205.56C209.46,-176.07 212.6,-116.06 214.48,-80.11"/>
<polygon fill="#aabbaa" fill-opacity="0.533333" stroke="#aabbaa" stroke-width="1.3" stroke-opacity="0.533333" points="217.95,-80.62 214.98,-70.45 210.96,-80.25 217.95,-80.62"/>
</g>
<!-- /lib/widgets/explorer/file_explorer.dart&#45;&gt;/lib/services/file_system_service.dart -->
<g id="edge21" class="edge">
<title>/lib/widgets/explorer/file_explorer.dart&#45;&gt;/lib/services/file_system_service.dart</title>
<path fill="none" stroke="#aabbaa" stroke-width="1.3" stroke-opacity="0.533333" d="M225.77,-205.42C239.82,-192.25 259.25,-174.05 274.97,-159.32"/>
<polygon fill="#aabbaa" fill-opacity="0.533333" stroke="#aabbaa" stroke-width="1.3" stroke-opacity="0.533333" points="276.93,-162.28 281.83,-152.89 272.14,-157.17 276.93,-162.28"/>
</g>
<!-- /tool/sort_source.dart -->
<g id="node16" class="node">
<title>/tool/sort_source.dart</title>
<path fill="Lavender" stroke="black" stroke-width="1.3" d="M584.38,-636C584.38,-636 513.62,-636 513.62,-636 507.62,-636 501.62,-630 501.62,-624 501.62,-624 501.62,-612 501.62,-612 501.62,-606 507.62,-600 513.62,-600 513.62,-600 584.38,-600 584.38,-600 590.38,-600 596.38,-606 596.38,-612 596.38,-612 596.38,-624 596.38,-624 596.38,-630 590.38,-636 584.38,-636"/>
<text xml:space="preserve" text-anchor="middle" x="549" y="-612.75" font-family="Arial" font-size="15.00">sort_source</text>
</g>
</g>
</svg>
