<?xml version="1.0" encoding="UTF-8" standalone="no"?>
<!DOCTYPE svg PUBLIC "-//W3C//DTD SVG 1.1//EN"
 "http://www.w3.org/Graphics/SVG/1.1/DTD/svg11.dtd">
<!-- Generated by graphviz version 13.1.1 (20250719.2154)
 -->
<!-- Pages: 1 -->
<svg width="650pt" height="714pt"
 viewBox="0.00 0.00 650.00 714.00" xmlns="http://www.w3.org/2000/svg" xmlns:xlink="http://www.w3.org/1999/xlink">
<g id="graph0" class="graph" transform="scale(1 1) rotate(0) translate(4 710)">
<polygon fill="white" stroke="none" points="-4,4 -4,-710 646,-710 646,4 -4,4"/>
<g id="clust1" class="cluster">
<title>cluster~</title>
<path fill="none" stroke="lightgray" stroke-width="2.6" d="M20,-8C20,-8 622,-8 622,-8 628,-8 634,-14 634,-20 634,-20 634,-686 634,-686 634,-692 628,-698 622,-698 622,-698 20,-698 20,-698 14,-698 8,-692 8,-686 8,-686 8,-20 8,-20 8,-14 14,-8 20,-8"/>
<text xml:space="preserve" text-anchor="middle" x="321" y="-681.65" font-family="Arial Black" font-size="13.00">fide</text>
</g>
<g id="clust2" class="cluster">
<title>cluster~/test</title>
<path fill="none" stroke="lightgray" stroke-width="2.6" d="M278,-592C278,-592 362,-592 362,-592 368,-592 374,-598 374,-604 374,-604 374,-655 374,-655 374,-661 368,-667 362,-667 362,-667 278,-667 278,-667 272,-667 266,-661 266,-655 266,-655 266,-604 266,-604 266,-598 272,-592 278,-592"/>
<text xml:space="preserve" text-anchor="middle" x="320" y="-650.65" font-family="Arial Black" font-size="13.00">test</text>
</g>
<g id="clust3" class="cluster">
<title>cluster~/lib</title>
<path fill="none" stroke="lightgray" stroke-width="2.6" d="M28,-16C28,-16 614,-16 614,-16 620,-16 626,-22 626,-28 626,-28 626,-572 626,-572 626,-578 620,-584 614,-584 614,-584 28,-584 28,-584 22,-584 16,-578 16,-572 16,-572 16,-28 16,-28 16,-22 22,-16 28,-16"/>
<text xml:space="preserve" text-anchor="middle" x="321" y="-567.65" font-family="Arial Black" font-size="13.00">lib</text>
</g>
<g id="clust4" class="cluster">
<title>cluster~/lib/models</title>
<path fill="none" stroke="lightgray" stroke-width="2.6" d="M36,-24C36,-24 276,-24 276,-24 282,-24 288,-30 288,-36 288,-36 288,-87 288,-87 288,-93 282,-99 276,-99 276,-99 36,-99 36,-99 30,-99 24,-93 24,-87 24,-87 24,-36 24,-36 24,-30 30,-24 36,-24"/>
<text xml:space="preserve" text-anchor="middle" x="156" y="-82.65" font-family="Arial Black" font-size="13.00">models</text>
</g>
<g id="clust5" class="cluster">
<title>cluster~/lib/screens</title>
<path fill="none" stroke="lightgray" stroke-width="2.6" d="M66,-312C66,-312 472,-312 472,-312 478,-312 484,-318 484,-324 484,-324 484,-497 484,-497 484,-503 478,-509 472,-509 472,-509 66,-509 66,-509 60,-509 54,-503 54,-497 54,-497 54,-324 54,-324 54,-318 60,-312 66,-312"/>
<text xml:space="preserve" text-anchor="middle" x="269" y="-492.65" font-family="Arial Black" font-size="13.00">screens</text>
</g>
<g id="clust6" class="cluster">
<title>cluster~/lib/screens/explorer</title>
<path fill="none" stroke="lightgray" stroke-width="2.6" d="M74,-403C74,-403 336,-403 336,-403 342,-403 348,-409 348,-415 348,-415 348,-466 348,-466 348,-472 342,-478 336,-478 336,-478 74,-478 74,-478 68,-478 62,-472 62,-466 62,-466 62,-415 62,-415 62,-409 68,-403 74,-403"/>
<text xml:space="preserve" text-anchor="middle" x="205" y="-461.65" font-family="Arial Black" font-size="13.00">explorer</text>
</g>
<g id="clust7" class="cluster">
<title>cluster~/lib/screens/outline</title>
<path fill="none" stroke="lightgray" stroke-width="2.6" d="M368,-403C368,-403 464,-403 464,-403 470,-403 476,-409 476,-415 476,-415 476,-466 476,-466 476,-472 470,-478 464,-478 464,-478 368,-478 368,-478 362,-478 356,-472 356,-466 356,-466 356,-415 356,-415 356,-409 362,-403 368,-403"/>
<text xml:space="preserve" text-anchor="middle" x="416" y="-461.65" font-family="Arial Black" font-size="13.00">outline</text>
</g>
<g id="clust8" class="cluster">
<title>cluster~/lib/screens/editor</title>
<path fill="none" stroke="lightgray" stroke-width="2.6" d="M366,-320C366,-320 464,-320 464,-320 470,-320 476,-326 476,-332 476,-332 476,-383 476,-383 476,-389 470,-395 464,-395 464,-395 366,-395 366,-395 360,-395 354,-389 354,-383 354,-383 354,-332 354,-332 354,-326 360,-320 366,-320"/>
<text xml:space="preserve" text-anchor="middle" x="415" y="-378.65" font-family="Arial Black" font-size="13.00">editor</text>
</g>
<g id="clust9" class="cluster">
<title>cluster~/lib/theme</title>
<path fill="none" stroke="lightgray" stroke-width="2.6" d="M510,-403C510,-403 594,-403 594,-403 600,-403 606,-409 606,-415 606,-415 606,-466 606,-466 606,-472 600,-478 594,-478 594,-478 510,-478 510,-478 504,-478 498,-472 498,-466 498,-466 498,-415 498,-415 498,-409 504,-403 510,-403"/>
<text xml:space="preserve" text-anchor="middle" x="552" y="-461.65" font-family="Arial Black" font-size="13.00">theme</text>
</g>
<g id="clust10" class="cluster">
<title>cluster~/lib/services</title>
<path fill="none" stroke="lightgray" stroke-width="2.6" d="M254,-107C254,-107 520,-107 520,-107 526,-107 532,-113 532,-119 532,-119 532,-170 532,-170 532,-176 526,-182 520,-182 520,-182 254,-182 254,-182 248,-182 242,-176 242,-170 242,-170 242,-119 242,-119 242,-113 248,-107 254,-107"/>
<text xml:space="preserve" text-anchor="middle" x="387" y="-165.65" font-family="Arial Black" font-size="13.00">services</text>
</g>
<g id="clust11" class="cluster">
<title>cluster~/lib/widgets</title>
<path fill="none" stroke="lightgray" stroke-width="2.6" d="M232,-190C232,-190 475,-190 475,-190 481,-190 487,-196 487,-202 487,-202 487,-292 487,-292 487,-298 481,-304 475,-304 475,-304 232,-304 232,-304 226,-304 220,-298 220,-292 220,-292 220,-202 220,-202 220,-196 226,-190 232,-190"/>
<text xml:space="preserve" text-anchor="middle" x="353.5" y="-287.65" font-family="Arial Black" font-size="13.00">widgets</text>
</g>
<g id="clust12" class="cluster">
<title>cluster~/lib/widgets/explorer</title>
<path fill="none" stroke="lightgray" stroke-width="2.6" d="M240,-198C240,-198 330,-198 330,-198 336,-198 342,-204 342,-210 342,-210 342,-261 342,-261 342,-267 336,-273 330,-273 330,-273 240,-273 240,-273 234,-273 228,-267 228,-261 228,-261 228,-210 228,-210 228,-204 234,-198 240,-198"/>
<text xml:space="preserve" text-anchor="middle" x="285" y="-256.65" font-family="Arial Black" font-size="13.00">explorer</text>
</g>
<g id="clust13" class="cluster">
<title>cluster~/tool</title>
<path fill="none" stroke="lightgray" stroke-width="2.6" d="M483,-592C483,-592 569,-592 569,-592 575,-592 581,-598 581,-604 581,-604 581,-655 581,-655 581,-661 575,-667 569,-667 569,-667 483,-667 483,-667 477,-667 471,-661 471,-655 471,-655 471,-604 471,-604 471,-598 477,-592 483,-592"/>
<text xml:space="preserve" text-anchor="middle" x="526" y="-650.65" font-family="Arial Black" font-size="13.00">tool</text>
</g>
<!-- /test/widget_test.dart -->
<g id="node1" class="node">
<title>/test/widget_test.dart</title>
<path fill="Lavender" stroke="black" stroke-width="1.3" d="M353.88,-636C353.88,-636 286.12,-636 286.12,-636 280.12,-636 274.12,-630 274.12,-624 274.12,-624 274.12,-612 274.12,-612 274.12,-606 280.12,-600 286.12,-600 286.12,-600 353.88,-600 353.88,-600 359.88,-600 365.88,-606 365.88,-612 365.88,-612 365.88,-624 365.88,-624 365.88,-630 359.88,-636 353.88,-636"/>
<text xml:space="preserve" text-anchor="middle" x="320" y="-612.75" font-family="Arial" font-size="15.00">widget_test</text>
</g>
<!-- /lib/main.dart -->
<g id="node8" class="node">
<title>/lib/main.dart</title>
<path fill="Lavender" stroke="black" stroke-width="1.3" d="M335,-553C335,-553 305,-553 305,-553 299,-553 293,-547 293,-541 293,-541 293,-529 293,-529 293,-523 299,-517 305,-517 305,-517 335,-517 335,-517 341,-517 347,-523 347,-529 347,-529 347,-541 347,-541 347,-547 341,-553 335,-553"/>
<text xml:space="preserve" text-anchor="middle" x="320" y="-529.75" font-family="Arial" font-size="15.00">main</text>
</g>
<!-- /test/widget_test.dart&#45;&gt;/lib/main.dart -->
<g id="edge1" class="edge">
<title>/test/widget_test.dart&#45;&gt;/lib/main.dart</title>
<path fill="none" stroke="#aabbaa" stroke-width="1.3" stroke-opacity="0.533333" d="M320,-599.42C320,-589.45 320,-576.7 320,-565.26"/>
<polygon fill="#aabbaa" fill-opacity="0.533333" stroke="#aabbaa" stroke-width="1.3" stroke-opacity="0.533333" points="323.5,-565.51 320,-555.51 316.5,-565.51 323.5,-565.51"/>
</g>
<!-- /lib/models/project_node.dart -->
<g id="node2" class="node">
<title>/lib/models/project_node.dart</title>
<path fill="Lavender" stroke="black" stroke-width="1.3" d="M122.12,-68C122.12,-68 43.88,-68 43.88,-68 37.88,-68 31.88,-62 31.88,-56 31.88,-56 31.88,-44 31.88,-44 31.88,-38 37.88,-32 43.88,-32 43.88,-32 122.12,-32 122.12,-32 128.12,-32 134.12,-38 134.12,-44 134.12,-44 134.12,-56 134.12,-56 134.12,-62 128.12,-68 122.12,-68"/>
<text xml:space="preserve" text-anchor="middle" x="83" y="-44.75" font-family="Arial" font-size="15.00">project_node</text>
</g>
<!-- /lib/models/file_system_item.dart -->
<g id="node3" class="node">
<title>/lib/models/file_system_item.dart</title>
<path fill="Lavender" stroke="black" stroke-width="1.3" d="M267.88,-68C267.88,-68 164.12,-68 164.12,-68 158.12,-68 152.12,-62 152.12,-56 152.12,-56 152.12,-44 152.12,-44 152.12,-38 158.12,-32 164.12,-32 164.12,-32 267.88,-32 267.88,-32 273.88,-32 279.88,-38 279.88,-44 279.88,-44 279.88,-56 279.88,-56 279.88,-62 273.88,-68 267.88,-68"/>
<text xml:space="preserve" text-anchor="middle" x="216" y="-44.75" font-family="Arial" font-size="15.00">file_system_item</text>
</g>
<!-- /lib/screens/explorer/explorer_screen.dart -->
<g id="node4" class="node">
<title>/lib/screens/explorer/explorer_screen.dart</title>
<path fill="Lavender" stroke="black" stroke-width="1.3" d="M181.62,-447C181.62,-447 82.38,-447 82.38,-447 76.38,-447 70.38,-441 70.38,-435 70.38,-435 70.38,-423 70.38,-423 70.38,-417 76.38,-411 82.38,-411 82.38,-411 181.62,-411 181.62,-411 187.62,-411 193.62,-417 193.62,-423 193.62,-423 193.62,-435 193.62,-435 193.62,-441 187.62,-447 181.62,-447"/>
<text xml:space="preserve" text-anchor="middle" x="132" y="-423.75" font-family="Arial" font-size="15.00">explorer_screen</text>
</g>
<!-- /lib/screens/explorer/explorer_screen.dart&#45;&gt;/lib/models/project_node.dart -->
<g id="edge2" class="edge">
<title>/lib/screens/explorer/explorer_screen.dart&#45;&gt;/lib/models/project_node.dart</title>
<path fill="none" stroke="#aabbaa" stroke-width="1.3" stroke-opacity="0.533333" d="M130.93,-410.48C127.8,-361.95 117.51,-221.79 97,-107 95.42,-98.15 93.23,-88.62 91.05,-79.98"/>
<polygon fill="#aabbaa" fill-opacity="0.533333" stroke="#aabbaa" stroke-width="1.3" stroke-opacity="0.533333" points="94.46,-79.21 88.53,-70.43 87.69,-80.99 94.46,-79.21"/>
</g>
<!-- /lib/screens/explorer/explorer_screen.dart&#45;&gt;/lib/models/file_system_item.dart -->
<g id="edge3" class="edge">
<title>/lib/screens/explorer/explorer_screen.dart&#45;&gt;/lib/models/file_system_item.dart</title>
<path fill="none" stroke="#aabbaa" stroke-width="1.3" stroke-opacity="0.533333" d="M135.83,-410.82C149.06,-351.45 192.94,-154.5 209.55,-79.94"/>
<polygon fill="#aabbaa" fill-opacity="0.533333" stroke="#aabbaa" stroke-width="1.3" stroke-opacity="0.533333" points="212.96,-80.72 211.72,-70.2 206.13,-79.2 212.96,-80.72"/>
</g>
<!-- /lib/widgets/message_widget.dart -->
<g id="node13" class="node">
<title>/lib/widgets/message_widget.dart</title>
<path fill="Lavender" stroke="black" stroke-width="1.3" d="M466.88,-242C466.88,-242 363.12,-242 363.12,-242 357.12,-242 351.12,-236 351.12,-230 351.12,-230 351.12,-218 351.12,-218 351.12,-212 357.12,-206 363.12,-206 363.12,-206 466.88,-206 466.88,-206 472.88,-206 478.88,-212 478.88,-218 478.88,-218 478.88,-230 478.88,-230 478.88,-236 472.88,-242 466.88,-242"/>
<text xml:space="preserve" text-anchor="middle" x="415" y="-218.75" font-family="Arial" font-size="15.00">message_widget</text>
</g>
<!-- /lib/screens/explorer/explorer_screen.dart&#45;&gt;/lib/widgets/message_widget.dart -->
<g id="edge4" class="edge">
<title>/lib/screens/explorer/explorer_screen.dart&#45;&gt;/lib/widgets/message_widget.dart</title>
<path fill="none" stroke="#aabbaa" stroke-width="1.3" stroke-opacity="0.533333" d="M170.74,-410.37C215.56,-388.93 290.32,-349.86 346,-304 364.68,-288.61 382.56,-267.91 395.44,-251.55"/>
<polygon fill="#aabbaa" fill-opacity="0.533333" stroke="#aabbaa" stroke-width="1.3" stroke-opacity="0.533333" points="397.88,-254.12 401.21,-244.06 392.34,-249.85 397.88,-254.12"/>
</g>
<!-- /lib/screens/explorer/welcome_screen.dart -->
<g id="node5" class="node">
<title>/lib/screens/explorer/welcome_screen.dart</title>
<path fill="Lavender" stroke="black" stroke-width="1.3" d="M327.88,-447C327.88,-447 224.12,-447 224.12,-447 218.12,-447 212.12,-441 212.12,-435 212.12,-435 212.12,-423 212.12,-423 212.12,-417 218.12,-411 224.12,-411 224.12,-411 327.88,-411 327.88,-411 333.88,-411 339.88,-417 339.88,-423 339.88,-423 339.88,-435 339.88,-435 339.88,-441 333.88,-447 327.88,-447"/>
<text xml:space="preserve" text-anchor="middle" x="276" y="-423.75" font-family="Arial" font-size="15.00">welcome_screen</text>
</g>
<!-- /lib/screens/outline/outline_panel.dart -->
<g id="node6" class="node">
<title>/lib/screens/outline/outline_panel.dart</title>
<path fill="Lavender" stroke="black" stroke-width="1.3" d="M455.88,-447C455.88,-447 376.12,-447 376.12,-447 370.12,-447 364.12,-441 364.12,-435 364.12,-435 364.12,-423 364.12,-423 364.12,-417 370.12,-411 376.12,-411 376.12,-411 455.88,-411 455.88,-411 461.88,-411 467.88,-417 467.88,-423 467.88,-423 467.88,-435 467.88,-435 467.88,-441 461.88,-447 455.88,-447"/>
<text xml:space="preserve" text-anchor="middle" x="416" y="-423.75" font-family="Arial" font-size="15.00">outline_panel</text>
</g>
<!-- /lib/screens/outline/outline_panel.dart&#45;&gt;/lib/models/file_system_item.dart -->
<g id="edge5" class="edge">
<title>/lib/screens/outline/outline_panel.dart&#45;&gt;/lib/models/file_system_item.dart</title>
<path fill="none" stroke="#aabbaa" stroke-width="1.3" stroke-opacity="0.533333" d="M378.08,-410.36C368.74,-405.65 358.88,-400.38 350,-395 290.91,-359.21 257.44,-364.44 224,-304 203.14,-266.3 209.54,-137.89 213.68,-79.87"/>
<polygon fill="#aabbaa" fill-opacity="0.533333" stroke="#aabbaa" stroke-width="1.3" stroke-opacity="0.533333" points="217.15,-80.49 214.4,-70.26 210.17,-79.97 217.15,-80.49"/>
</g>
<!-- /lib/screens/editor/editor_screen.dart -->
<g id="node7" class="node">
<title>/lib/screens/editor/editor_screen.dart</title>
<path fill="Lavender" stroke="black" stroke-width="1.3" d="M456.38,-364C456.38,-364 373.62,-364 373.62,-364 367.62,-364 361.62,-358 361.62,-352 361.62,-352 361.62,-340 361.62,-340 361.62,-334 367.62,-328 373.62,-328 373.62,-328 456.38,-328 456.38,-328 462.38,-328 468.38,-334 468.38,-340 468.38,-340 468.38,-352 468.38,-352 468.38,-358 462.38,-364 456.38,-364"/>
<text xml:space="preserve" text-anchor="middle" x="415" y="-340.75" font-family="Arial" font-size="15.00">editor_screen</text>
</g>
<!-- /lib/screens/outline/outline_panel.dart&#45;&gt;/lib/screens/editor/editor_screen.dart -->
<g id="edge6" class="edge">
<title>/lib/screens/outline/outline_panel.dart&#45;&gt;/lib/screens/editor/editor_screen.dart</title>
<path fill="none" stroke="#aabbaa" stroke-width="1.3" stroke-opacity="0.533333" d="M415.78,-410.42C415.66,-400.45 415.5,-387.7 415.36,-376.26"/>
<polygon fill="#aabbaa" fill-opacity="0.533333" stroke="#aabbaa" stroke-width="1.3" stroke-opacity="0.533333" points="418.86,-376.46 415.24,-366.51 411.86,-376.55 418.86,-376.46"/>
</g>
<!-- /lib/screens/editor/editor_screen.dart&#45;&gt;/lib/widgets/message_widget.dart -->
<g id="edge7" class="edge">
<title>/lib/screens/editor/editor_screen.dart&#45;&gt;/lib/widgets/message_widget.dart</title>
<path fill="none" stroke="#aabbaa" stroke-width="1.3" stroke-opacity="0.533333" d="M415,-327.55C415,-308.35 415,-277.19 415,-254.24"/>
<polygon fill="#aabbaa" fill-opacity="0.533333" stroke="#aabbaa" stroke-width="1.3" stroke-opacity="0.533333" points="418.5,-254.44 415,-244.44 411.5,-254.44 418.5,-254.44"/>
</g>
<!-- /lib/main.dart&#45;&gt;/lib/models/project_node.dart -->
<g id="edge15" class="edge">
<title>/lib/main.dart&#45;&gt;/lib/models/project_node.dart</title>
<path fill="none" stroke="#aabbaa" stroke-width="1.3" stroke-opacity="0.533333" d="M292.43,-533.66C223.48,-532.54 47.82,-527.83 30,-509 -19.51,-456.68 25,-419.03 25,-347 25,-347 25,-347 25,-223 25,-169.77 50.25,-111.91 67.43,-78.7"/>
<polygon fill="#aabbaa" fill-opacity="0.533333" stroke="#aabbaa" stroke-width="1.3" stroke-opacity="0.533333" points="70.36,-80.63 71.97,-70.16 64.18,-77.34 70.36,-80.63"/>
</g>
<!-- /lib/main.dart&#45;&gt;/lib/models/file_system_item.dart -->
<g id="edge14" class="edge">
<title>/lib/main.dart&#45;&gt;/lib/models/file_system_item.dart</title>
<path fill="none" stroke="#aabbaa" stroke-width="1.3" stroke-opacity="0.533333" d="M292.58,-533.34C228.72,-531.53 74.23,-525.48 58,-509 7.31,-457.54 45,-419.23 45,-347 45,-347 45,-347 45,-223 45,-184.41 132.65,-112.92 182.45,-75.41"/>
<polygon fill="#aabbaa" fill-opacity="0.533333" stroke="#aabbaa" stroke-width="1.3" stroke-opacity="0.533333" points="184.36,-78.34 190.29,-69.56 180.18,-72.73 184.36,-78.34"/>
</g>
<!-- /lib/main.dart&#45;&gt;/lib/screens/explorer/explorer_screen.dart -->
<g id="edge8" class="edge">
<title>/lib/main.dart&#45;&gt;/lib/screens/explorer/explorer_screen.dart</title>
<path fill="none" stroke="#aabbaa" stroke-width="1.3" stroke-opacity="0.533333" d="M292.75,-532.93C267.88,-530.89 230.87,-525.13 203,-509 181.12,-496.34 162.31,-474.58 149.56,-457.1"/>
<polygon fill="#aabbaa" fill-opacity="0.533333" stroke="#aabbaa" stroke-width="1.3" stroke-opacity="0.533333" points="152.51,-455.21 143.9,-449.02 146.77,-459.22 152.51,-455.21"/>
</g>
<!-- /lib/main.dart&#45;&gt;/lib/screens/explorer/welcome_screen.dart -->
<g id="edge9" class="edge">
<title>/lib/main.dart&#45;&gt;/lib/screens/explorer/welcome_screen.dart</title>
<path fill="none" stroke="#aabbaa" stroke-width="1.3" stroke-opacity="0.533333" d="M312.54,-516.36C305.79,-500.42 295.76,-476.7 287.91,-458.15"/>
<polygon fill="#aabbaa" fill-opacity="0.533333" stroke="#aabbaa" stroke-width="1.3" stroke-opacity="0.533333" points="291.24,-457.04 284.12,-449.19 284.79,-459.77 291.24,-457.04"/>
</g>
<!-- /lib/main.dart&#45;&gt;/lib/screens/outline/outline_panel.dart -->
<g id="edge11" class="edge">
<title>/lib/main.dart&#45;&gt;/lib/screens/outline/outline_panel.dart</title>
<path fill="none" stroke="#aabbaa" stroke-width="1.3" stroke-opacity="0.533333" d="M343.59,-516.57C346.51,-514.13 349.38,-511.57 352,-509 368.37,-492.92 384.62,-472.79 396.65,-456.88"/>
<polygon fill="#aabbaa" fill-opacity="0.533333" stroke="#aabbaa" stroke-width="1.3" stroke-opacity="0.533333" points="399.22,-459.28 402.38,-449.17 393.61,-455.11 399.22,-459.28"/>
</g>
<!-- /lib/main.dart&#45;&gt;/lib/screens/editor/editor_screen.dart -->
<g id="edge10" class="edge">
<title>/lib/main.dart&#45;&gt;/lib/screens/editor/editor_screen.dart</title>
<path fill="none" stroke="#aabbaa" stroke-width="1.3" stroke-opacity="0.533333" d="M347.53,-533.83C388.7,-532.92 463.27,-528.54 480,-509 495.32,-491.1 489.82,-424.41 480,-403 478.97,-400.76 461.6,-385.84 445.08,-371.97"/>
<polygon fill="#aabbaa" fill-opacity="0.533333" stroke="#aabbaa" stroke-width="1.3" stroke-opacity="0.533333" points="447.52,-369.45 437.61,-365.72 443.03,-374.82 447.52,-369.45"/>
</g>
<!-- /lib/theme/app_theme.dart -->
<g id="node9" class="node">
<title>/lib/theme/app_theme.dart</title>
<path fill="Lavender" stroke="black" stroke-width="1.3" d="M585.5,-447C585.5,-447 518.5,-447 518.5,-447 512.5,-447 506.5,-441 506.5,-435 506.5,-435 506.5,-423 506.5,-423 506.5,-417 512.5,-411 518.5,-411 518.5,-411 585.5,-411 585.5,-411 591.5,-411 597.5,-417 597.5,-423 597.5,-423 597.5,-435 597.5,-435 597.5,-441 591.5,-447 585.5,-447"/>
<text xml:space="preserve" text-anchor="middle" x="552" y="-423.75" font-family="Arial" font-size="15.00">app_theme</text>
</g>
<!-- /lib/main.dart&#45;&gt;/lib/theme/app_theme.dart -->
<g id="edge13" class="edge">
<title>/lib/main.dart&#45;&gt;/lib/theme/app_theme.dart</title>
<path fill="none" stroke="#aabbaa" stroke-width="1.3" stroke-opacity="0.533333" d="M347.59,-533.07C392.26,-531.11 477.92,-525.28 503,-509 521.32,-497.11 533.97,-475.71 541.82,-458.18"/>
<polygon fill="#aabbaa" fill-opacity="0.533333" stroke="#aabbaa" stroke-width="1.3" stroke-opacity="0.533333" points="544.95,-459.75 545.54,-449.17 538.49,-457.08 544.95,-459.75"/>
</g>
<!-- /lib/services/file_system_service.dart -->
<g id="node10" class="node">
<title>/lib/services/file_system_service.dart</title>
<path fill="Lavender" stroke="black" stroke-width="1.3" d="M384.25,-151C384.25,-151 261.75,-151 261.75,-151 255.75,-151 249.75,-145 249.75,-139 249.75,-139 249.75,-127 249.75,-127 249.75,-121 255.75,-115 261.75,-115 261.75,-115 384.25,-115 384.25,-115 390.25,-115 396.25,-121 396.25,-127 396.25,-127 396.25,-139 396.25,-139 396.25,-145 390.25,-151 384.25,-151"/>
<text xml:space="preserve" text-anchor="middle" x="323" y="-127.75" font-family="Arial" font-size="15.00">file_system_service</text>
</g>
<!-- /lib/main.dart&#45;&gt;/lib/services/file_system_service.dart -->
<g id="edge12" class="edge">
<title>/lib/main.dart&#45;&gt;/lib/services/file_system_service.dart</title>
<path fill="none" stroke="#aabbaa" stroke-width="1.3" stroke-opacity="0.533333" d="M347.61,-533.69C416.63,-532.65 592.47,-528.11 610,-509 701.84,-408.9 520.75,-209.39 491,-190 475.11,-179.64 424.07,-187.77 406,-182 388.77,-176.5 371.22,-167.02 356.72,-157.94"/>
<polygon fill="#aabbaa" fill-opacity="0.533333" stroke="#aabbaa" stroke-width="1.3" stroke-opacity="0.533333" points="358.69,-155.04 348.4,-152.52 354.88,-160.91 358.69,-155.04"/>
</g>
<!-- /lib/services/file_system_service.dart&#45;&gt;/lib/models/file_system_item.dart -->
<g id="edge16" class="edge">
<title>/lib/services/file_system_service.dart&#45;&gt;/lib/models/file_system_item.dart</title>
<path fill="none" stroke="#aabbaa" stroke-width="1.3" stroke-opacity="0.533333" d="M299.78,-114.42C284.78,-103.07 265.04,-88.12 248.49,-75.59"/>
<polygon fill="#aabbaa" fill-opacity="0.533333" stroke="#aabbaa" stroke-width="1.3" stroke-opacity="0.533333" points="250.83,-72.97 240.74,-69.73 246.6,-78.56 250.83,-72.97"/>
</g>
<!-- /lib/services/editor_service.dart -->
<g id="node11" class="node">
<title>/lib/services/editor_service.dart</title>
<path fill="Lavender" stroke="black" stroke-width="1.3" d="M511.5,-151C511.5,-151 426.5,-151 426.5,-151 420.5,-151 414.5,-145 414.5,-139 414.5,-139 414.5,-127 414.5,-127 414.5,-121 420.5,-115 426.5,-115 426.5,-115 511.5,-115 511.5,-115 517.5,-115 523.5,-121 523.5,-127 523.5,-127 523.5,-139 523.5,-139 523.5,-145 517.5,-151 511.5,-151"/>
<text xml:space="preserve" text-anchor="middle" x="469" y="-127.75" font-family="Arial" font-size="15.00">editor_service</text>
</g>
<!-- /lib/widgets/explorer/file_explorer.dart -->
<g id="node12" class="node">
<title>/lib/widgets/explorer/file_explorer.dart</title>
<path fill="Lavender" stroke="black" stroke-width="1.3" d="M321.5,-242C321.5,-242 248.5,-242 248.5,-242 242.5,-242 236.5,-236 236.5,-230 236.5,-230 236.5,-218 236.5,-218 236.5,-212 242.5,-206 248.5,-206 248.5,-206 321.5,-206 321.5,-206 327.5,-206 333.5,-212 333.5,-218 333.5,-218 333.5,-230 333.5,-230 333.5,-236 327.5,-242 321.5,-242"/>
<text xml:space="preserve" text-anchor="middle" x="285" y="-218.75" font-family="Arial" font-size="15.00">file_explorer</text>
</g>
<!-- /lib/widgets/explorer/file_explorer.dart&#45;&gt;/lib/models/file_system_item.dart -->
<g id="edge18" class="edge">
<title>/lib/widgets/explorer/file_explorer.dart&#45;&gt;/lib/models/file_system_item.dart</title>
<path fill="none" stroke="#aabbaa" stroke-width="1.3" stroke-opacity="0.533333" d="M258.82,-205.6C250.95,-199.11 243.07,-191.07 238,-182 220.23,-150.23 216.01,-107.84 215.39,-80"/>
<polygon fill="#aabbaa" fill-opacity="0.533333" stroke="#aabbaa" stroke-width="1.3" stroke-opacity="0.533333" points="218.89,-80.27 215.33,-70.29 211.89,-80.32 218.89,-80.27"/>
</g>
<!-- /lib/widgets/explorer/file_explorer.dart&#45;&gt;/lib/services/file_system_service.dart -->
<g id="edge17" class="edge">
<title>/lib/widgets/explorer/file_explorer.dart&#45;&gt;/lib/services/file_system_service.dart</title>
<path fill="none" stroke="#aabbaa" stroke-width="1.3" stroke-opacity="0.533333" d="M292.51,-205.42C297.76,-193.1 304.9,-176.39 310.95,-162.23"/>
<polygon fill="#aabbaa" fill-opacity="0.533333" stroke="#aabbaa" stroke-width="1.3" stroke-opacity="0.533333" points="314.03,-163.93 314.74,-153.36 307.59,-161.18 314.03,-163.93"/>
</g>
<!-- /tool/sort_source.dart -->
<g id="node14" class="node">
<title>/tool/sort_source.dart</title>
<path fill="Lavender" stroke="black" stroke-width="1.3" d="M561.38,-636C561.38,-636 490.62,-636 490.62,-636 484.62,-636 478.62,-630 478.62,-624 478.62,-624 478.62,-612 478.62,-612 478.62,-606 484.62,-600 490.62,-600 490.62,-600 561.38,-600 561.38,-600 567.38,-600 573.38,-606 573.38,-612 573.38,-612 573.38,-624 573.38,-624 573.38,-630 567.38,-636 561.38,-636"/>
<text xml:space="preserve" text-anchor="middle" x="526" y="-612.75" font-family="Arial" font-size="15.00">sort_source</text>
</g>
</g>
</svg>
